<svg width="41" height="40" viewBox="0 0 41 40" fill="none" xmlns="http://www.w3.org/2000/svg">
<g clip-path="url(#clip0_1599_3711)">
<path fill-rule="evenodd" clip-rule="evenodd" d="M22.2542 34.7672L24.4343 33.4618C25.0979 34.1335 25.3513 34.6829 26.5562 35.3202C27.4639 35.8003 28.4764 36.1364 29.6916 36.1364C30.931 36.1364 31.8912 35.8204 32.8176 35.314C33.283 35.0596 33.5859 34.8211 33.967 34.5224C34.3963 34.1859 34.544 33.8745 34.9361 33.4838L37.1455 34.7387C36.6484 35.7415 35.0846 36.9895 34.2051 37.506C31.5275 39.0782 27.9288 39.144 25.2314 37.5337C24.3047 36.9805 22.7593 35.8157 22.2543 34.7673L22.2542 34.7672ZM29.1088 24.556C32.109 24.1962 34.5069 26.4683 34.82 29.0795C35.1821 32.0992 32.9226 34.4968 30.3047 34.8104C27.2736 35.1734 24.8792 32.9141 24.5612 30.2778C24.1952 27.244 26.4755 24.8717 29.1088 24.5559V24.556ZM19.3637 21.2925H20.6554V24.4395C20.6554 24.839 20.4109 25.1656 20.2623 25.5018C20.1893 25.6667 20.1134 25.8364 20.0497 26.0135C19.8714 26.5089 19.9391 26.457 19.3636 26.457V21.2925H19.3637ZM30.3368 20.6832C31.9953 20.8141 33.3843 21.3495 34.5589 22.0752C38.2556 24.3589 39.8955 29.459 37.8005 33.6176L35.5849 32.3579C35.9424 31.1574 36.2557 30.5287 36.1147 29.0568C35.9932 27.7877 35.2798 26.1561 34.501 25.3561C33.3836 24.2085 32.1015 23.4865 30.3439 23.2675L30.3368 20.6832V20.6832ZM21.5754 33.6047C20.1571 30.818 20.4661 27.2041 22.0854 24.8216L22.6976 23.9826C22.9024 23.6921 23.1159 23.5126 23.3613 23.2726C24.9109 21.7573 26.6821 20.8689 29.05 20.6832L29.0035 23.2673C25.8731 23.6657 23.5308 26.0471 23.2629 29.1173C23.1365 30.5649 23.4431 31.1763 23.7917 32.3462L21.5754 33.6048V33.6047ZM17.2064 14.26C17.9265 13.9134 18.4407 15.0759 17.685 15.42C17.0046 15.7299 16.3171 14.688 17.2064 14.26ZM26.8886 12.3235C27.6085 11.9771 28.123 13.1394 27.3671 13.4836C26.6868 13.7934 25.9991 12.7516 26.8886 12.3235ZM23.0157 8.45071C23.7358 8.10411 24.25 9.26655 23.4943 9.61073C22.8139 9.92057 22.1264 8.87872 23.0157 8.45071ZM1.29039 5.80106H31.0633L31.8584 7.25669L28.0131 11.1374C26.9083 10.9579 27.3018 10.9597 26.2242 11.12L25.0012 9.93103C25.1439 9.04031 25.3513 8.72977 24.8281 7.92128C24.1221 6.83039 22.3383 6.79628 21.6133 7.96951C21.1239 8.76147 21.3344 9.06787 21.4558 9.91598L18.3305 13.0736C17.7582 12.9803 17.4693 12.7764 16.8066 13.004C15.2016 13.5553 15.2944 15.4696 16.0468 16.2185C16.6255 16.7945 17.7805 16.946 18.5826 16.3957C19.6857 15.6389 19.2768 14.4543 19.2093 13.9527L22.3338 10.7931C23.453 10.9731 23.0234 10.9704 24.1226 10.8101L25.3453 11.9974C25.2024 12.87 25.0115 13.2319 25.5187 14.0089C26.2353 15.1063 28.0097 15.1272 28.7314 13.9584C29.2212 13.1652 29.0136 12.8665 28.892 12.0169L32.7439 8.14143C33.452 8.42992 33.578 8.76767 34.839 8.96945L34.8527 20.733C33.7247 20.2326 33.0311 19.8171 31.6138 19.543C28.7011 18.9796 25.0731 19.8616 23.0734 21.7752L21.9522 22.8327L21.9461 20.0021H18.0736L18.0732 27.7472L19.5415 27.7467L19.4006 28.9943C18.8411 29.1343 2.33775 29.0389 1.2905 29.0389V5.80106H1.29039ZM35.0717 1.31634C36.9524 1.05221 38.472 2.44823 38.6979 4.07291C38.9593 5.95254 37.5575 7.48499 35.9487 7.70549C34.0413 7.96699 32.5404 6.58187 32.3114 4.98039C32.0355 3.05024 33.4255 1.54752 35.0717 1.31646V1.31634ZM30.9849 4.5108H1.52588e-05V30.3292C1.11663 30.3292 18.8077 30.2265 19.4007 30.3736C20.0778 38.1598 28.0923 42.2849 34.7401 38.6861C39.199 36.2722 41.4208 30.5652 39.0232 25.2752C38.503 24.1277 38.034 23.6091 37.3783 22.8045C36.9526 22.2822 36.1963 21.7425 36.1461 21.5349L36.1469 8.96899C39.5923 8.38858 40.9957 4.68238 39.2988 2.08602C38.7435 1.23641 38.9812 1.67132 38.5191 1.1698C37.0535 -0.420765 33.5476 -0.60635 31.7664 1.98771C31.2656 2.71708 31.0275 3.43174 30.9849 4.5108V4.5108Z" fill="#36D1C2"/>
<path fill-rule="evenodd" clip-rule="evenodd" d="M14.1998 18.7107H15.4915L15.5012 26.457H14.1998V18.7107ZM12.9092 27.7474H16.7817L16.7922 17.4204H12.9096L12.9092 27.7474V27.7474Z" fill="#36D1C2"/>
<path fill-rule="evenodd" clip-rule="evenodd" d="M29.2213 27.156C32.479 26.4837 33.5438 31.5181 30.2046 32.2109C26.9221 32.8919 25.7842 27.8654 29.2213 27.156ZM29.1375 25.8631C27.1718 26.1766 25.5108 27.9375 25.8665 30.2738C26.1609 32.2084 27.9765 33.8422 30.2875 33.5061C32.1992 33.2281 33.8682 31.3728 33.5175 29.1021C33.2222 27.1907 31.4151 25.4998 29.1374 25.863L29.1375 25.8631Z" fill="#36D1C2"/>
<path fill-rule="evenodd" clip-rule="evenodd" d="M3.8725 22.5833H5.16379L5.15334 26.4569H3.87216L3.8725 22.5833V22.5833ZM2.58156 27.7471H6.45405L6.45439 21.293H2.5819L2.58156 27.7471Z" fill="#36D1C2"/>
<path fill-rule="evenodd" clip-rule="evenodd" d="M9.03605 23.8744H10.3277L10.3374 26.4569H9.03605V23.8744V23.8744ZM7.74545 27.7472H11.6181L11.6184 22.584H7.74591L7.74557 27.7472H7.74545Z" fill="#36D1C2"/>
<path fill-rule="evenodd" clip-rule="evenodd" d="M5.1638 10.9646H14.2002L14.1998 9.67432H14.2809H5.16357L5.1638 10.9646Z" fill="#36D1C2"/>
<path fill-rule="evenodd" clip-rule="evenodd" d="M5.16357 13.5467H14.2809H14.1998L14.2002 12.2563H5.1638L5.16357 13.5467Z" fill="#36D1C2"/>
<path fill-rule="evenodd" clip-rule="evenodd" d="M5.1638 8.38303H14.2002L14.1998 7.09277H14.2809H5.16357L5.1638 8.38303Z" fill="#36D1C2"/>
<path fill-rule="evenodd" clip-rule="evenodd" d="M5.20388 16.1287H14.1998L14.2002 14.8384H5.1638L5.20388 16.1287Z" fill="#36D1C2"/>
<path fill-rule="evenodd" clip-rule="evenodd" d="M2.5819 8.38303H3.88261L3.87227 7.09277H2.58156L2.5819 8.38303Z" fill="#36D1C2"/>
<path fill-rule="evenodd" clip-rule="evenodd" d="M2.5819 10.9646H3.87756L3.87227 9.67432H2.58156L2.5819 10.9646Z" fill="#36D1C2"/>
<path fill-rule="evenodd" clip-rule="evenodd" d="M2.58156 13.5467H3.87227V12.2563H2.5819L2.58156 13.5467Z" fill="#36D1C2"/>
<path fill-rule="evenodd" clip-rule="evenodd" d="M2.5819 16.1287H3.87227L3.86251 14.8384H2.5819V16.1287Z" fill="#36D1C2"/>
</g>
<defs>
<clipPath id="clip0_1599_3711">
<rect width="40.0188" height="40" fill="white"/>
</clipPath>
</defs>
</svg>
