<svg width="40" height="40" viewBox="0 0 40 40" fill="none" xmlns="http://www.w3.org/2000/svg">
<g clip-path="url(#clip0_1599_3737)">
<path fill-rule="evenodd" clip-rule="evenodd" d="M2.83228 38.6812L1.31507 37.0819C1.65396 36.5148 2.92081 35.441 3.41682 34.9773C3.61753 34.7896 3.75544 34.6577 3.95663 34.4689C4.35156 34.0982 4.91915 33.3403 5.59652 32.8805C5.8753 33.0083 6.96212 34.2052 7.18303 34.4977L5.05466 36.6156C4.67021 36.9791 3.13126 38.5764 2.83228 38.6812V38.6812ZM7.49921 32.9914L7.14362 32.5726L8.56116 31.1468C8.71776 31.2858 8.82379 31.4277 8.97063 31.5962C8.83247 31.8434 7.81669 32.8412 7.49921 32.9914V32.9914ZM23.2682 27.1142L37.9353 27.1153L37.9473 27.5928C37.4656 27.7177 24.0391 27.6366 23.171 27.6366L23.2682 27.1142V27.1142ZM7.91265 26.4378C7.46889 22.3095 10.6101 19.0433 14.2246 18.6531C18.4048 18.2019 21.6656 21.3257 22.0456 24.9841C22.4748 29.1162 19.3449 32.4494 15.656 32.7894C11.5171 33.1709 8.30507 30.0884 7.91265 26.4378V26.4378ZM6.79143 27.6324L6.34516 27.6293L6.33657 1.30551L6.85566 1.30478L6.85584 23.1345C6.857 23.7437 6.73507 24.033 6.66239 24.5981C6.49819 25.8746 6.68407 26.4716 6.79144 27.6324L6.79143 27.6324ZM21.6938 20.7325C21.4028 20.2356 20.9121 19.7754 20.5052 19.4249C20.2647 19.2178 20.1221 19.0653 19.846 18.879C19.5996 18.7129 19.3621 18.5877 19.1276 18.4195L19.0478 17.9777C19.0321 16.7748 19.004 11.9381 19.0973 11.5437L21.871 11.572L21.6938 20.7325V20.7325ZM11.5832 16.5771L14.3361 16.572V17.3546C13.8286 17.3881 13.3473 17.4667 12.8717 17.5931C12.4868 17.6954 11.9156 17.9508 11.5832 17.9914L11.5832 16.5771H11.5832ZM5.04792 0.887801V28.0498C5.04792 29.1783 5.72703 28.9253 7.24755 28.9253L7.77269 30.0624L6.18673 31.6693C4.98153 31.4 4.89174 31.7651 3.80815 32.7898L2.43726 34.0798C2.2474 34.2799 2.18135 34.4016 1.98142 34.5894C0.876554 35.6271 -0.591053 36.5306 0.248554 37.8324L1.16543 38.7671C2.72221 40.4129 3.01465 40.6068 5.36968 38.1388C5.54005 37.9602 5.60425 37.8368 5.78305 37.6674L7.19619 36.3389C7.83292 35.7377 8.5958 35.3856 8.43003 34.0141C8.71406 33.7362 8.90367 33.5887 9.17562 33.241C9.40283 32.9505 9.69324 32.7535 9.92288 32.4763C10.8297 32.8498 11.2481 33.5334 13.3926 33.9578C17.0112 34.6739 20.814 32.7573 22.3455 29.7265C22.472 29.4761 22.5834 29.0775 22.8448 28.9253L37.9169 28.9253C39.4153 28.9277 39.2364 28.8284 39.2364 26.6796C39.2364 25.5117 38.0733 25.831 35.9825 25.831C34.3078 25.831 24.1516 25.9167 23.409 25.7978C23.3064 25.4244 23.291 24.5161 23.1895 23.9963C23.0481 23.2717 23.1264 13.3084 23.1296 11.5267C23.1309 10.7568 23.1649 10.2807 22.2806 10.2807L18.143 10.3184C17.6831 10.5457 17.7994 11.4169 17.7994 11.8493V17.7869L15.6265 17.2992C15.6248 16.2485 15.9329 15.2833 14.7043 15.2833L10.6519 15.3192C10.1523 15.8209 10.2944 16.0088 10.2945 16.8465C10.2946 17.4961 10.3037 18.152 10.2888 18.8008C9.99771 18.9213 9.36196 19.4723 9.1474 19.6725L8.20837 20.7106C8.19381 20.7231 8.16623 20.7399 8.14497 20.7543L8.14401 1.85498C8.14401 -0.124861 8.39768 0.00162356 5.91893 0.00162356C5.22746 0.00162356 5.04793 0.202767 5.04793 0.887796L5.04792 0.887801Z" fill="#36D1C2"/>
<path fill-rule="evenodd" clip-rule="evenodd" d="M34.1086 6.26579L36.5471 6.26095L36.8505 6.28987L36.8512 23.1584L36.5467 23.1818H34.0973L34.1086 6.26578V6.26579ZM32.8086 5.88472V23.6166C32.8086 24.2982 33.0782 24.4705 33.7257 24.4705H37.2721C37.9036 24.4705 38.1392 24.2587 38.1392 23.6166V5.80412C38.1392 5.20954 37.8721 4.97705 37.2721 4.97705H33.7156C32.9905 4.97705 32.8086 5.14484 32.8086 5.88472V5.88472Z" fill="#36D1C2"/>
<path fill-rule="evenodd" clip-rule="evenodd" d="M14.3173 20.8493C17.1865 20.4406 19.5057 22.5811 19.8479 24.997C20.2655 27.9445 18.1441 30.2034 15.6873 30.5851C12.7666 31.0387 10.474 28.8559 10.1151 26.4398C9.67416 23.4714 11.8378 21.2024 14.3173 20.8493ZM8.84719 26.6797C9.31455 29.7123 12.2482 32.4333 15.9147 31.8531C18.971 31.3694 21.7 28.4894 21.121 24.7928C20.6374 21.7047 17.7528 19.0064 14.0582 19.5773C10.9746 20.0538 8.27119 22.9421 8.84719 26.6797V26.6797Z" fill="#36D1C2"/>
<path fill-rule="evenodd" clip-rule="evenodd" d="M33.6812 1.57203C33.5783 1.83155 33.718 1.6129 33.5443 1.83886L32.2236 3.0933C31.709 3.6106 31.2567 4.07557 30.7447 4.59648L27.8486 7.57713C26.5987 7.38017 21.2023 5.28884 20.4993 5.26329C20.0539 5.24714 18.1621 6.89286 17.6895 7.25595L12.8812 10.9922C11.7371 11.8353 12.6122 12.3607 12.9315 12.375C13.3765 12.3949 14.7935 11.1467 15.1554 10.8502C15.5917 10.4928 16.0883 10.1372 16.5201 9.79485C16.9924 9.42048 17.4012 9.08088 17.8774 8.73424C18.2611 8.45501 20.4717 6.6155 20.6879 6.62767C20.7568 6.63156 27.7501 9.06749 28.1644 8.94067C28.3682 8.87825 32.5083 4.69531 33.0016 4.19373C33.4645 3.72296 34.1289 2.95258 34.6037 2.58653C34.5863 3.16276 34.495 3.63996 35.0054 3.80266C35.4905 3.95727 35.7849 3.61232 35.8533 3.17695C35.95 2.56113 36.2853 0.664021 35.9187 0.30594C35.5709 -0.0338411 33.5992 0.234542 33.0033 0.334017C32.5739 0.40569 32.2651 0.707176 32.4332 1.20901C32.6033 1.71654 33.0802 1.60756 33.6812 1.57203H33.6812Z" fill="#36D1C2"/>
<path fill-rule="evenodd" clip-rule="evenodd" d="M26.5913 13.2205L29.3833 13.2451L29.348 23.2163L26.5641 23.1751L26.5913 13.2205V13.2205ZM25.3505 12.3065C25.2348 13.0866 25.267 23.9712 25.3505 24.127C25.6301 24.6488 27.0012 24.4709 27.9226 24.4709C31.3449 24.4709 30.6344 25.2971 30.6344 18.2169C30.6344 17.4434 30.7094 12.6626 30.5678 12.3514C30.2843 11.728 28.7911 11.9628 28.0032 11.9628C27.4926 11.9628 26.9819 11.9637 26.4713 11.9625C25.7287 11.9607 25.805 11.8953 25.3505 12.3064V12.3065Z" fill="#36D1C2"/>
<path fill-rule="evenodd" clip-rule="evenodd" d="M26.6455 13.294H29.3085L29.3129 23.1393H26.6469L26.6455 13.294V13.294ZM26.564 23.1748L29.3479 23.216L29.3833 13.2448L26.5913 13.2202L26.564 23.1748Z" fill="#36D1C2"/>
<path fill-rule="evenodd" clip-rule="evenodd" d="M19.1276 18.4192L19.1372 11.6266H21.7912C21.7912 13.1515 21.7912 14.6765 21.7912 16.2014C21.7912 16.5612 21.9137 20.4128 21.6938 20.7323L21.871 11.5718L19.0973 11.5435C19.004 11.9379 19.0321 16.7746 19.0478 17.9775L19.1276 18.4192V18.4192Z" fill="#36D1C2"/>
</g>
<defs>
<clipPath id="clip0_1599_3737">
<rect width="39.2431" height="40" fill="white"/>
</clipPath>
</defs>
</svg>
