<svg width="50" height="40" viewBox="0 0 50 40" fill="none" xmlns="http://www.w3.org/2000/svg">
<g clip-path="url(#clip0_1599_3683)">
<path fill-rule="evenodd" clip-rule="evenodd" d="M41.0307 35.6186C42.2953 35.2024 42.7318 37.074 41.6581 37.4564C40.3721 37.9146 39.7835 36.0288 41.0307 35.6186ZM15.2647 34.1582C16.6306 33.7134 17.6783 34.5344 17.9923 35.5316C18.4172 36.881 17.552 37.9309 16.5893 38.2452C13.911 39.1198 12.5692 35.0358 15.2647 34.1581V34.1582ZM47.3195 28.395C47.1908 28.542 47.3148 28.4916 47.0466 28.5338L42.1407 28.4928C41.9857 28.0887 41.9958 25.3522 42.1239 24.8524L47.3601 24.8475C47.4179 25.3751 47.4019 24.9516 47.257 25.1237C47.034 25.318 46.8755 25.634 46.6997 25.8757C46.5186 26.1248 46.2716 26.3836 46.3108 26.7736C46.3432 27.0942 47.1298 28.16 47.3193 28.3951L47.3195 28.395ZM21.1221 17.9356C22.4199 17.5629 23.4835 18.4038 23.7631 19.3591C24.1653 20.7327 23.2699 21.7802 22.2875 22.0709C19.6048 22.8649 18.3287 18.738 21.1221 17.9356V17.9356ZM27.2556 1.70543C29.9212 1.09325 30.8697 5.16075 28.2576 5.8764C25.4923 6.63387 24.2274 2.40097 27.2556 1.70543V1.70543ZM3.48035 1.67294C6.23281 1.22429 6.9743 5.46198 4.17975 5.92687C1.34619 6.39829 0.606837 2.14142 3.48035 1.67294ZM42.2782 34.0588C42.0379 33.9031 42.1106 34.0962 42.0919 33.6104L42.1226 30.0979L49.0515 30.0947C50.6604 29.775 49.0605 28.0792 48.7208 27.5504C48.5188 27.236 48.3459 27.055 48.1599 26.7024C48.6304 25.6822 51.3392 23.25 48.4023 23.2613L42.1495 23.2353C41.9288 21.7858 40.5389 22.0571 40.4821 23.1991C40.3284 26.2885 40.6363 30.5455 40.4711 33.9923C40.0531 34.3337 39.0887 34.5484 38.8174 35.7901H19.7103C19.2491 31.2842 12.6406 31.3028 12.1719 35.7877C10.4087 35.7877 9.43765 35.8517 7.88117 35.2475C7.23078 34.9951 6.11522 34.3287 5.68988 33.8401C5.49626 33.6177 5.29344 33.494 5.09768 33.2695C4.37711 32.4426 3.7604 31.2381 3.51404 30.0823C2.70837 26.3037 4.92576 22.4752 8.77354 21.4792C10.6428 20.9953 15.74 21.2459 17.9794 21.2459C18.3289 21.3434 18.8607 23.7773 21.6723 23.7952C23.4386 23.8065 24.8727 22.5853 25.2726 21.2579C28.1723 21.1281 35.8604 21.482 37.9152 21.0785C41.2484 20.4241 43.754 17.9665 44.6889 15.0183C45.5224 12.3899 45.0938 9.56424 43.5744 7.32927C43.3573 7.01007 43.0827 6.62201 42.8679 6.37845C42.7184 6.20879 42.6016 6.17111 42.4516 6.02102L41.5863 5.2332C41.4418 5.11361 41.3164 5.01014 41.1479 4.89695C37.4392 2.40683 32.4536 3.71401 31.5871 3.40759C31.3259 3.19652 31.2258 2.38326 31.0552 2.05646C29.9736 -0.0152438 27.0709 -0.843553 25.0358 1.09951C23.9883 2.09961 24.0925 2.77384 23.9219 3.18613C23.8248 3.42091 23.9152 3.2956 23.7139 3.40759L7.57529 3.40333C7.06911 -1.09764 0.618689 -1.0734 0.0360765 3.29173C-0.411503 6.64559 3.40351 8.70184 5.85568 6.99728C6.69597 6.41321 6.89306 6.147 7.41056 5.05262L24.0646 5.06487C24.6567 6.40788 25.7665 7.61772 27.6992 7.60001C29.8046 7.5807 30.5503 6.32132 31.2902 5.05236C33.0001 5.05236 35.2348 4.92917 36.8829 5.08698C39.0357 5.29299 41.0944 6.53572 42.1586 8.15945C45.4743 13.2176 42.0167 19.2581 36.6451 19.5866L25.4854 19.5848C24.7789 15.1539 18.7368 14.9783 17.9209 19.5487C16.1511 19.9891 10.4284 19.0147 7.39165 20.1978C3.07392 21.8799 0.743069 26.5864 2.06597 31.0473C2.39423 32.1539 3.32015 33.8999 4.06962 34.5881L4.8179 35.2936C7.49339 37.286 8.6702 37.4215 12.3082 37.4335C12.5411 37.7805 12.6165 38.0726 12.8677 38.4222C13.1443 38.8071 13.2455 38.9229 13.6436 39.2049C15.1434 40.2675 16.7437 40.2589 18.246 39.2165C19.0326 38.6706 19.0607 38.2766 19.5767 37.435L38.7795 37.4463C39.0991 37.7976 39.1243 38.0756 39.4935 38.4311C40.5886 39.4852 42.2211 39.3534 43.1679 38.3805C43.7134 37.82 44.1293 36.9034 43.8338 35.8391C43.4777 34.5563 42.7433 34.4433 42.2782 34.059V34.0588Z" fill="#617792"/>
<path fill-rule="evenodd" clip-rule="evenodd" d="M47.3196 28.3948L42.1618 28.4381V24.9454H45.9725C46.7289 24.9453 46.9856 24.8341 47.2571 25.1234C47.402 24.9514 47.418 25.3749 47.3602 24.8472L42.124 24.8521C41.996 25.352 41.9858 28.0884 42.1408 28.4925L47.0467 28.5335C47.3148 28.4913 47.1908 28.5417 47.3196 28.3946V28.3948Z" fill="#617792"/>
<path fill-rule="evenodd" clip-rule="evenodd" d="M42.2784 34.0589C42.1171 33.456 42.2143 30.9794 42.2143 30.1794C43.1729 30.1794 48.6611 30.3332 49.0517 30.0947L42.1228 30.0979L42.0922 33.6104C42.1108 34.0962 42.0381 33.9031 42.2785 34.0588L42.2784 34.0589Z" fill="#617792"/>
</g>
<defs>
<clipPath id="clip0_1599_3683">
<rect width="49.7571" height="40" fill="white"/>
</clipPath>
</defs>
</svg>
