<svg width="40" height="40" viewBox="0 0 40 40" fill="none" xmlns="http://www.w3.org/2000/svg">
<g clip-path="url(#clip0_1599_3675)">
<path fill-rule="evenodd" clip-rule="evenodd" d="M10.2344 0L10.3906 0.21875C10.4844 0.335937 10.5547 0.5 10.5547 0.585938C10.5547 0.671875 10.4844 0.835937 10.2344 1.17188L5.85938 1.19531C1.78906 1.21094 1.47656 1.21875 1.35156 1.35156C1.22656 1.47656 1.21094 1.67969 1.17188 5H38.8281L38.8125 3.24219C38.7891 1.67969 38.7734 1.47656 38.6484 1.35156C38.5156 1.21875 37.8594 1.21094 12.3438 1.17188L12.1875 0.953125C12.0937 0.835937 12.0234 0.671875 12.0234 0.585938C12.0234 0.5 12.0937 0.335938 12.3438 0H25.5469C38.3828 0 38.7578 0.0078125 39.0469 0.148437C39.2031 0.234375 39.4297 0.398437 39.5391 0.523437C39.6563 0.640625 39.8047 0.859375 39.875 0.992187C39.9844 1.21875 40 1.85156 40 6.77344C40.0078 12.1484 40 12.3125 39.8516 12.5C39.7422 12.6484 39.625 12.6953 39.4141 12.6953C39.2031 12.6953 39.0859 12.6484 38.9766 12.5C38.8281 12.3125 38.8203 12.1641 38.8281 6.25H1.17188V15.5469C1.17188 24.7422 1.17188 24.8438 1.01562 25C0.921875 25.0938 0.757813 25.1562 0.585938 25.1562C0.414062 25.1562 0.25 25.0938 0.15625 25C0 24.8438 0 24.7422 0 13.0469C0 2.8125 0.015625 1.21875 0.117188 0.992187C0.179688 0.859375 0.34375 0.632813 0.484375 0.492188C0.625 0.359375 0.84375 0.1875 0.976562 0.125C1.17969 0.015625 1.79688 0 10.2344 0V0ZM39.4297 14.2188C39.5859 14.2188 39.75 14.2812 39.8438 14.375C40 14.5312 40 14.6328 40 23.1641C40 30.1953 39.9844 31.8437 39.8984 32.0547C39.8359 32.1875 39.6719 32.4219 39.5234 32.5703C39.375 32.7187 39.1328 32.8906 38.9844 32.9531C38.8359 33.0156 38.3281 33.0938 36.9922 33.1641L38.3203 33.8984C39.0547 34.2969 39.7266 34.7031 39.8281 34.7969C39.9479 34.9062 40.0078 35.0521 40.0078 35.2344C40.0078 35.4141 39.9453 35.5625 39.8359 35.6641C39.7422 35.7578 39.5703 35.8203 39.4219 35.8125C39.2656 35.8125 38.4766 35.4141 37.1094 34.6563C35.9687 34.0313 35.0234 33.5156 35 33.5156C34.9766 33.5156 34.625 33.8516 33.4766 35L33.6016 35.2109C33.6719 35.3359 34.1953 36.2734 34.7734 37.3047C35.4661 38.5547 35.8125 39.2604 35.8125 39.4219C35.8203 39.5703 35.7578 39.7422 35.6641 39.8359C35.5547 39.9531 35.4141 40.0078 35.2109 40C34.9844 40 34.8828 39.9531 34.7422 39.7734C34.6484 39.6563 34.0938 38.6875 33.5156 37.6328C32.5391 35.8438 32.4453 35.7109 32.2422 35.7031C32.125 35.7031 31.9141 35.6563 31.7734 35.5938C31.6406 35.5391 31.2578 35.2109 30.9297 34.875C30.5234 34.4531 30.3203 34.1797 30.2344 33.75H28.8828C27.75 33.75 27.4922 33.7266 27.2266 33.6016C27.0547 33.5234 26.8437 33.3828 26.6016 33.1172H14.1406C5.875 33.1172 1.5625 33.0937 1.32812 33.0391C1.13281 33 0.859375 32.8828 0.71875 32.7891C0.578125 32.6953 0.367187 32.4766 0.0390625 32.0078L0.015625 29.5156C0 27.125 0.0078125 27.0234 0.15625 26.875C0.25 26.7812 0.421875 26.7188 0.5625 26.7188C0.703125 26.7188 0.890625 26.7656 0.976562 26.8281C1.125 26.9375 1.13281 27.0547 1.21094 31.5781L1.40625 31.7266C1.60156 31.8828 1.82031 31.8828 13.8125 31.875C25.3984 31.875 26.0156 31.8672 25.9687 31.7422C25.9453 31.6641 25.3828 30.1797 24.7187 28.4375C23.9297 26.375 23.5156 25.1719 23.5156 24.9844C23.5156 24.8203 23.5703 24.5547 23.6406 24.3984C23.7031 24.2344 23.8203 24.0313 23.8906 23.9531C23.9609 23.875 24.1641 23.7422 24.3359 23.6641C24.5078 23.5859 24.7891 23.5156 24.9609 23.5156C25.1797 23.5156 26.3359 23.9141 28.9453 24.9062C30.9687 25.6797 32.7266 26.3594 32.8516 26.4297C32.9766 26.4922 33.1797 26.6484 33.2969 26.7734C33.4141 26.8906 33.5625 27.125 33.625 27.2891C33.7187 27.5078 33.75 27.875 33.75 30.1953L34.0391 30.2891C34.237 30.3516 34.5495 30.599 34.9766 31.0313C35.3281 31.3906 35.6172 31.7266 35.625 31.7812C35.625 31.8516 35.9609 31.875 37.0078 31.875C38.2734 31.8828 38.4141 31.8672 38.7891 31.5781L38.8281 23.0078C38.8672 14.5859 38.8672 14.4375 39.0234 14.3281C39.1094 14.2656 39.2891 14.2188 39.4297 14.2188V14.2188ZM27.2656 26.3672C28.4297 27.5391 28.4844 27.5781 28.6875 27.5C28.8125 27.4609 29.0938 27.4219 29.3125 27.4219C29.6094 27.4219 29.8437 27.4844 30.1484 27.6328C30.3828 27.7578 30.6563 27.9609 30.75 28.0859C30.8516 28.2109 30.9922 28.5 31.0625 28.7109C31.1484 28.9609 31.1797 29.2266 31.1562 29.4531C31.1328 29.6484 31.0469 29.9297 30.9766 30.0781C30.8984 30.2266 30.75 30.4531 30.6328 30.5703C30.5234 30.6953 30.2969 30.8594 30.1328 30.9453C29.9766 31.0234 29.7109 31.1172 29.5469 31.1406C29.3906 31.1719 29.0781 31.1484 28.8672 31.1016C28.6484 31.0547 28.3359 30.9219 28.1641 30.7969C27.9688 30.6641 27.7734 30.4219 27.6328 30.1562C27.4844 29.8438 27.4219 29.6094 27.4219 29.3203C27.4219 29.0937 27.4609 28.8125 27.5 28.6953C27.5781 28.4844 27.5391 28.4297 26.3672 27.2656L25.1484 26.0547C25.4453 26.8438 25.9766 28.25 26.5234 29.6875C27.0703 31.125 27.5703 32.3516 27.6406 32.4062C27.7422 32.4766 28.1953 32.5 29.3359 32.5H30.8984L32.5 30.8984C32.5078 28.0781 32.4844 27.6719 32.4062 27.6094C32.3516 27.5547 31.125 27.0703 29.6875 26.5234C28.25 25.9766 26.8437 25.4453 26.5625 25.3359L26.0547 25.1484L27.2656 26.3672ZM28.6562 29.2812C28.6641 29.4297 28.75 29.6094 28.8672 29.7266C28.9766 29.8359 29.1328 29.9219 29.2188 29.9219C29.3047 29.9219 29.4609 29.875 29.5703 29.8281C29.6797 29.7734 29.7969 29.6484 29.8438 29.5547C29.8828 29.4531 29.9219 29.3047 29.9219 29.2188C29.9219 29.1328 29.8359 28.9766 29.7266 28.8672C29.5964 28.737 29.4453 28.6719 29.2734 28.6719C29.1016 28.6719 28.9453 28.7344 28.8281 28.8516C28.6953 28.9766 28.6484 29.1094 28.6562 29.2812ZM31.4844 33.7109L32.2656 34.4922L34.4922 32.2656L33.7109 31.4844L31.4844 33.7109ZM3.41406 2.5C3.53125 2.5 3.70312 2.54687 3.78906 2.60156C3.875 2.66406 3.97656 2.8125 4.00781 2.9375C4.04687 3.08594 4.03125 3.24219 3.96875 3.38281C3.91406 3.5 3.78125 3.63281 3.67188 3.67969C3.5625 3.72656 3.38281 3.73437 3.25 3.69531C3.125 3.66406 2.97656 3.5625 2.91406 3.47656C2.85937 3.39062 2.8125 3.21875 2.8125 3.10156C2.82031 2.98438 2.90625 2.79687 3.00781 2.69531C3.11719 2.57812 3.28906 2.5 3.41406 2.5V2.5ZM6.10156 2.5C6.24219 2.5 6.40625 2.57812 6.52344 2.69531C6.63281 2.80469 6.71875 2.98438 6.71875 3.10156C6.72656 3.22656 6.66406 3.39844 6.58594 3.49219C6.50781 3.59375 6.32813 3.6875 6.19531 3.71094C5.98438 3.74219 5.89063 3.70313 5.70312 3.51562C5.51562 3.32812 5.47656 3.23438 5.50781 3.02344C5.53125 2.89063 5.625 2.71094 5.71094 2.63281C5.80469 2.5625 5.97656 2.5 6.10156 2.5ZM8.78125 2.5C8.91406 2.5 9.10156 2.57031 9.20313 2.65625C9.32813 2.76562 9.375 2.89844 9.375 3.125C9.375 3.375 9.33594 3.46875 9.16406 3.59375C9.03906 3.6875 8.86719 3.75781 8.77344 3.75C8.67188 3.75 8.50781 3.66406 8.39844 3.55469C8.28125 3.4375 8.19531 3.25781 8.1875 3.10937C8.17969 2.9375 8.22656 2.80469 8.35938 2.67969C8.46875 2.57031 8.64063 2.5 8.78125 2.5V2.5ZM4.67187 7.57812C5.78125 7.57812 6.14844 7.60156 6.32812 7.69531C6.46094 7.75781 6.63281 7.92969 6.71875 8.0625C6.82031 8.22656 6.875 8.46094 6.875 8.6875C6.875 9.00781 6.90625 9.09375 7.10938 9.25781C7.28906 9.40625 7.34375 9.51562 7.34375 9.72656C7.34375 9.89844 7.28125 10.0625 7.1875 10.1562C7.10156 10.2422 7 10.3125 6.95312 10.3125C6.91406 10.3125 6.875 10.5 6.875 10.7187C6.875 11.0234 6.82813 11.2031 6.70313 11.4062C6.60156 11.5547 6.39844 11.7422 6.25 11.8125C6.10156 11.8906 5.82813 11.9531 5.64844 11.9531C5.40625 11.9531 5.29687 11.9922 5.24219 12.0859C5.21094 12.1641 5.05469 12.2734 4.91406 12.3359C4.6875 12.4219 4.61719 12.4219 4.42969 12.3359C4.3125 12.2734 4.19531 12.1641 4.17188 12.0859C4.14844 11.9844 4.05469 11.9531 3.77344 11.9531C3.5625 11.9531 3.27344 11.8906 3.125 11.8125C2.97656 11.7422 2.77344 11.5547 2.67188 11.4062C2.50781 11.1484 2.49219 11.0625 2.5 9.78125C2.5 8.76562 2.53125 8.36719 2.61719 8.16406C2.67969 8.01563 2.85156 7.82031 2.99219 7.73438C3.21875 7.59375 3.38281 7.57812 4.67187 7.57812V7.57812ZM3.75 10.7031H5.625V8.75H3.75V10.7031ZM35.3125 7.57812C36.6172 7.57812 36.7812 7.59375 37.0156 7.73438C37.1484 7.82031 37.3203 8.01563 37.3828 8.16406C37.4688 8.36719 37.5 8.76562 37.5 9.78125C37.5078 11.0625 37.4922 11.1484 37.3281 11.4062C37.2266 11.5547 37.0234 11.7422 36.875 11.8125C36.7266 11.8906 36.4375 11.9531 36.2344 11.9531C35.9453 11.9531 35.8516 11.9844 35.8281 12.0859C35.8047 12.1641 35.6719 12.2734 35.5312 12.3359C35.3125 12.4219 35.2422 12.4219 35.0469 12.3359C34.9219 12.2734 34.7891 12.1641 34.7578 12.0859C34.7031 11.9922 34.5937 11.9531 34.3594 11.9531C34.1719 11.9531 33.8984 11.8906 33.75 11.8125C33.6016 11.7422 33.3984 11.5547 33.2969 11.4062C33.1719 11.2031 33.125 11.0234 33.125 10.7187C33.125 10.5 33.0938 10.3125 33.0469 10.3125C33.0078 10.3125 32.8984 10.2422 32.8125 10.1562C32.7187 10.0625 32.6562 9.89844 32.6562 9.72656C32.6562 9.51562 32.7109 9.40625 32.8906 9.25781C33.0859 9.09375 33.125 9.00781 33.125 8.71094C33.125 8.51562 33.1797 8.25 33.2422 8.125C33.3047 7.99219 33.4766 7.82031 33.6172 7.73438C33.8437 7.59375 34.0078 7.57812 35.3125 7.57812ZM34.375 10.7031H36.25V8.75H34.375V10.7031ZM9.73437 9.14062C10.4453 9.14062 10.4766 9.14844 10.625 9.35156C10.7188 9.47656 10.7891 9.66406 10.7812 9.78125C10.7812 9.90625 10.7109 10.0703 10.625 10.1562C10.5391 10.2422 10.375 10.3359 10.2578 10.3594C10.1328 10.3906 9.79687 10.3984 9.50781 10.3828C9.02344 10.3516 8.95313 10.3281 8.77344 10.1172C8.625 9.9375 8.58594 9.82812 8.625 9.64844C8.64844 9.51562 8.75 9.35156 8.83594 9.27344C8.96875 9.17187 9.15625 9.14062 9.73437 9.14062V9.14062ZM13.1641 9.14062C13.8828 9.14062 13.9141 9.14844 14.0625 9.35156C14.1563 9.47656 14.2266 9.65625 14.2266 9.76562C14.2188 9.875 14.1484 10.0391 14.0625 10.1328C13.9766 10.2344 13.7734 10.3359 13.6172 10.3594C13.4531 10.3906 13.1094 10.3906 12.8516 10.375C12.4687 10.3438 12.3516 10.2969 12.2109 10.125C12.1094 10.0156 12.0312 9.83594 12.0312 9.72656C12.0391 9.61719 12.125 9.4375 12.2266 9.33594C12.3984 9.15625 12.4688 9.14062 13.1641 9.14062ZM16.6016 9.14062C17.3203 9.14062 17.3516 9.14844 17.5 9.35156C17.5938 9.47656 17.6641 9.63281 17.6562 9.70312C17.6562 9.78125 17.6094 9.92969 17.5625 10.0391C17.5 10.1562 17.3516 10.2734 17.1875 10.3281C17.0391 10.375 16.6719 10.3984 16.3828 10.3828C15.9141 10.3516 15.8203 10.3203 15.6562 10.1328C15.5547 10.0156 15.4688 9.83594 15.4688 9.72656C15.4766 9.61719 15.5625 9.4375 15.6641 9.33594C15.8359 9.15625 15.9063 9.14062 16.6016 9.14062V9.14062ZM20 9.14062C20.6484 9.14062 20.7188 9.15625 20.8984 9.33594C21.0078 9.44531 21.0938 9.61719 21.0938 9.72656C21.0938 9.83594 21.0078 10.0156 20.9063 10.1328C20.7266 10.3437 20.6875 10.3516 20 10.3516C19.3125 10.3516 19.2734 10.3437 19.0937 10.1328C18.9922 10.0156 18.9062 9.83594 18.9062 9.72656C18.9141 9.61719 19 9.4375 19.1016 9.33594C19.2734 9.15625 19.3516 9.14062 20 9.14062V9.14062ZM23.4063 9.14062C24.0859 9.14062 24.1563 9.15625 24.3359 9.33594C24.4453 9.44531 24.5312 9.61719 24.5312 9.72656C24.5312 9.83594 24.4531 10.0156 24.3594 10.125C24.2109 10.2969 24.0938 10.3438 23.7109 10.375C23.4531 10.3906 23.1094 10.3906 22.9531 10.3594C22.7891 10.3359 22.5859 10.2344 22.5 10.1328C22.4141 10.0391 22.3359 9.86719 22.3359 9.75781C22.3281 9.64063 22.4062 9.46094 22.5 9.34375C22.6562 9.14844 22.7031 9.14062 23.4063 9.14062ZM26.8438 9.14062C27.5234 9.14062 27.5938 9.15625 27.7734 9.33594C27.8828 9.44531 27.9688 9.61719 27.9688 9.72656C27.9688 9.83594 27.8906 10.0156 27.7969 10.125C27.6484 10.2969 27.5313 10.3438 27.1484 10.375C26.8906 10.3906 26.5469 10.3906 26.3906 10.3594C26.2266 10.3359 26.0234 10.2344 25.9375 10.1328C25.8516 10.0391 25.7734 9.86719 25.7734 9.75781C25.7656 9.64063 25.8437 9.46094 25.9375 9.34375C26.0938 9.14844 26.1406 9.14062 26.8438 9.14062ZM30.2656 9.14062C30.8359 9.13281 31.0078 9.16406 31.1484 9.27344C31.25 9.35156 31.3516 9.51562 31.375 9.64844C31.4141 9.82812 31.375 9.9375 31.2266 10.1172C31.0469 10.3281 30.9766 10.3516 30.4922 10.3828C30.2031 10.3984 29.8672 10.3906 29.75 10.3594C29.625 10.3359 29.4609 10.2422 29.375 10.1562C29.2891 10.0703 29.2109 9.89063 29.2031 9.75C29.1953 9.57813 29.2422 9.44531 29.375 9.32031C29.5391 9.15625 29.6328 9.14062 30.2656 9.14062ZM8.50781 12.8281C9.40625 12.8516 9.61719 12.8828 9.88281 13.0234C10.0547 13.1094 10.2734 13.2734 10.3672 13.375C10.4609 13.4687 10.6094 13.7109 10.6953 13.9062C10.7812 14.1016 10.8594 14.4141 10.8594 14.6094C10.8594 14.8047 10.7891 15.1016 10.5547 15.5859L10.7578 15.7812C10.8672 15.8906 11.0156 16.1016 11.0938 16.25C11.1719 16.3984 11.2578 16.6797 11.2891 16.875C11.3281 17.1094 11.3047 17.3672 11.2266 17.6562C11.1562 17.8906 10.9844 18.2266 10.8359 18.3984C10.6953 18.5703 10.4062 18.7969 10.1875 18.9062C9.84375 19.0781 9.6875 19.1016 8.63281 19.1328C7.46875 19.1562 7.46094 19.1562 6.99219 18.7656V13.1875L7.21875 12.9922C7.44531 12.8047 7.46875 12.7969 8.50781 12.8281V12.8281ZM8.20312 15.1562C9.0625 15.1641 9.23438 15.125 9.39844 15C9.54688 14.8906 9.60938 14.7734 9.60938 14.6094C9.60938 14.4453 9.54688 14.3281 9.39844 14.2188C9.23438 14.0937 9.0625 14.0547 8.69531 14.0625H8.20312V15.1562ZM8.20312 17.8906C9.60156 17.8516 9.625 17.8437 9.85156 17.5937C9.97656 17.4609 10.0781 17.2734 10.0781 17.1875C10.0781 17.1016 10.0234 16.9219 9.96094 16.7969C9.89844 16.6641 9.77344 16.5234 9.6875 16.4844C9.60156 16.4375 9.23437 16.4062 8.86719 16.4062H8.20312V17.8906ZM13.5469 12.8281C14.4687 12.8594 14.6094 12.8828 14.9844 13.0703C15.2344 13.2031 15.4844 13.4062 15.625 13.6094C15.7578 13.7969 15.9062 14.0703 15.9531 14.2188C16 14.3672 16.0234 14.6875 16.0078 14.9297C15.9844 15.2344 15.9062 15.4688 15.7422 15.75C15.5781 16.0078 15.375 16.2109 15.1016 16.3672C14.875 16.4922 14.6953 16.625 14.6875 16.6562C14.6875 16.6953 14.9844 17.0625 15.3516 17.4766C15.875 18.0781 16.0156 18.2969 16.0156 18.4766C16.0156 18.6016 15.9609 18.7891 15.8984 18.8828C15.8359 18.9844 15.6797 19.0781 15.5469 19.1016C15.4219 19.125 15.2422 19.1016 15.1562 19.0625C15.0703 19.0156 14.6172 18.5469 13.2812 17.0312V17.8672C13.2891 18.5625 13.2656 18.7422 13.1484 18.8828C13.0703 18.9844 12.9063 19.0859 12.7734 19.1094C12.5938 19.1484 12.4844 19.1094 12.0703 18.7656V13.1875L12.2969 12.9922C12.5234 12.7969 12.5469 12.7969 13.5469 12.8281V12.8281ZM13.2812 15.4688C13.9453 15.4688 14.25 15.4141 14.375 15.3516C14.5078 15.2891 14.6484 15.1641 14.6875 15.0781C14.7344 14.9922 14.7656 14.8359 14.7656 14.7266C14.7656 14.6172 14.6797 14.4375 14.5781 14.3125C14.4141 14.125 14.3203 14.1016 13.8437 14.0703L13.2969 14.0469L13.2812 15.4688ZM19.4922 12.8437C19.625 12.875 19.7734 12.9375 19.8281 12.9922C19.8828 13.0391 20.4063 14.2969 20.9922 15.7812C21.8516 17.9531 22.0391 18.5078 21.9844 18.6641C21.9453 18.7656 21.8203 18.9219 21.7031 19.0156C21.5234 19.1562 21.4453 19.1641 21.2344 19.0937C21.0625 19.0417 20.9323 18.9245 20.8437 18.7422C20.7656 18.5937 20.6563 18.3438 20.4688 17.8906L18.3203 17.8828L18.125 18.3672C18.0234 18.6328 17.8437 18.9219 17.7344 19C17.6016 19.1094 17.4687 19.1406 17.3047 19.1094C17.1797 19.0781 17.0078 18.9844 16.9297 18.8828C16.8594 18.7891 16.7969 18.6172 16.7969 18.5156C16.7969 18.4063 17.2578 17.1563 17.8203 15.7422C18.5703 13.8359 18.8906 13.1172 19.0469 12.9766C19.2031 12.8359 19.3047 12.8047 19.4922 12.8437V12.8437ZM19.125 15.8672C18.9609 16.2734 18.8438 16.6094 18.8516 16.6172C18.8594 16.6328 19.1172 16.6328 19.4219 16.6172L19.9688 16.6016L19.4141 15.1406L19.125 15.8672ZM23.3828 12.8125C23.4141 12.8125 23.5313 12.8437 23.6406 12.8828C23.7656 12.9375 24.2656 13.5859 26.2969 16.4844L26.3359 14.8047C26.3672 13.4531 26.3906 13.1016 26.4922 13.0078C26.5547 12.9453 26.7187 12.8672 26.8594 12.8516C27.0703 12.8125 27.1563 12.8516 27.5859 13.2734V18.6641L27.3516 18.8984C27.2266 19.0312 27.0703 19.1328 27 19.1328C26.9375 19.1328 26.7891 19.0937 26.6797 19.0391C26.5625 18.9766 25.9766 18.2109 24.0313 15.4297L24.0078 17.1094C23.9922 18.7031 23.9844 18.7891 23.8281 18.9375C23.7266 19.0312 23.5547 19.0937 23.4063 19.0937C23.25 19.0937 23.0781 19.0312 22.9766 18.9375C22.8125 18.7891 22.8125 18.7422 22.8125 15.9687C22.8125 13.375 22.8203 13.1484 22.9531 13.0313C23.0234 12.9609 23.1406 12.8828 23.2109 12.8594C23.2734 12.8359 23.3516 12.8125 23.3828 12.8125V12.8125ZM28.7578 12.7891L29.8672 12.8203C30.8516 12.8438 31.0313 12.875 31.4141 13.0469C31.6484 13.1562 31.9766 13.3828 32.1484 13.5547C32.3203 13.7266 32.5547 14.0703 32.6719 14.3281C32.7969 14.6016 32.9219 15.0469 32.9688 15.3828C33.0156 15.7578 33.0156 16.1719 32.9688 16.5156C32.9219 16.8516 32.7891 17.2734 32.6328 17.6094C32.4609 17.9609 32.2422 18.2656 32.0234 18.4531C31.8359 18.6172 31.5781 18.7969 31.4531 18.8594C31.3203 18.9219 31.0234 19.0078 30.7891 19.0547C30.5469 19.1016 29.9922 19.1328 29.5547 19.1328C28.8203 19.1328 28.7344 19.1172 28.3281 18.7578L28.2891 13.2656L28.7578 12.7891ZM29.5312 17.8906C30.2266 17.8906 30.5547 17.8516 30.7031 17.8125C30.8516 17.7734 31.1016 17.6094 31.2578 17.4453C31.4063 17.2813 31.5859 17.0078 31.6406 16.8359C31.7031 16.6641 31.75 16.2578 31.75 15.9375C31.75 15.4453 31.7188 15.2734 31.5234 14.8828C31.3281 14.5 31.2266 14.3828 30.9375 14.2344C30.6797 14.1016 30.4531 14.0625 30.0625 14.0625H29.5312V17.8906ZM4.69531 13.4375C4.9375 13.4375 5.03125 13.4766 5.15625 13.6484C5.28906 13.8203 5.32031 13.9844 5.3125 14.4687C5.3125 15.0078 5.28906 15.1016 5.125 15.2734C5 15.3906 4.84375 15.4688 4.69531 15.4688C4.53906 15.4688 4.38281 15.3906 4.25781 15.2734C4.08594 15.0938 4.0625 15.0078 4.05469 14.4609C4.04688 13.9375 4.07031 13.8125 4.21875 13.6406C4.34375 13.4844 4.45312 13.4375 4.69531 13.4375ZM35.3203 13.4375C35.5625 13.4375 35.6562 13.4766 35.7812 13.6484C35.9141 13.8203 35.9453 13.9844 35.9375 14.4687C35.9375 15.0078 35.9141 15.1016 35.75 15.2734C35.625 15.3906 35.4688 15.4688 35.3203 15.4688C35.1641 15.4688 35.0078 15.3906 34.8828 15.2734C34.7109 15.0938 34.6875 15.0078 34.6797 14.4609C34.6719 13.9375 34.6953 13.8125 34.8438 13.6406C34.9688 13.4844 35.0781 13.4375 35.3203 13.4375ZM4.6875 16.4844C4.83594 16.4844 4.99219 16.5547 5.11719 16.6797C5.28906 16.8516 5.3125 16.9375 5.3125 17.4766C5.32031 17.9687 5.28906 18.125 5.15625 18.2969C5.03125 18.4687 4.9375 18.5156 4.6875 18.5156C4.4375 18.5156 4.34375 18.4687 4.21875 18.2969C4.08594 18.125 4.0625 17.9687 4.0625 17.4766C4.07031 16.9375 4.09375 16.8437 4.25781 16.6719C4.375 16.5547 4.53125 16.4844 4.6875 16.4844V16.4844ZM35.3125 16.4844C35.4609 16.4844 35.6172 16.5547 35.7422 16.6797C35.9141 16.8516 35.9375 16.9375 35.9375 17.4766C35.9453 17.9687 35.9141 18.125 35.7812 18.2969C35.6562 18.4687 35.5625 18.5156 35.3125 18.5156C35.0625 18.5156 34.9688 18.4687 34.8438 18.2969C34.7109 18.125 34.6875 17.9687 34.6875 17.4766C34.6953 16.9375 34.7188 16.8437 34.8828 16.6719C35 16.5547 35.1562 16.4844 35.3125 16.4844V16.4844ZM4.80469 19.5703C4.9375 19.5859 5.10937 19.6953 5.19531 19.8047C5.3125 19.9453 5.42969 19.9922 5.64844 20C5.80469 20 6.05469 20.0469 6.19531 20.1016C6.32813 20.1641 6.53125 20.3047 6.64062 20.4219C6.80469 20.5937 6.84375 20.7266 6.85938 21.1406C6.86719 21.4141 6.91406 21.6406 6.95312 21.6406C7 21.6406 7.10156 21.7109 7.1875 21.7969C7.28125 21.8906 7.34375 22.0547 7.34375 22.2266C7.34375 22.4297 7.28906 22.5469 7.10938 22.6953C6.91406 22.8594 6.875 22.9453 6.875 23.2422C6.875 23.4297 6.82031 23.6953 6.75781 23.8281C6.69531 23.9531 6.52344 24.1328 6.39063 24.2188C6.15625 24.3594 5.99219 24.375 4.6875 24.375C3.38281 24.375 3.21875 24.3594 2.99219 24.2188C2.85156 24.1328 2.67969 23.9375 2.61719 23.7891C2.53125 23.5781 2.5 23.1875 2.5 22.1641C2.5 20.8906 2.50781 20.8047 2.67188 20.5469C2.77344 20.3906 2.97656 20.2109 3.125 20.1328C3.27344 20.0625 3.54687 20 3.73437 20C3.96094 20 4.07812 19.9609 4.125 19.8672C4.15625 19.7969 4.26563 19.6953 4.375 19.6328C4.48437 19.5781 4.67969 19.5469 4.80469 19.5703ZM3.75 23.2031H5.625V21.25H3.75V23.2031ZM35.2969 19.5312C35.3437 19.5312 35.5 19.5781 35.625 19.6484C35.7578 19.7109 35.8594 19.8125 35.8594 19.8828C35.8594 19.9688 35.9531 20 36.2344 20C36.4375 20 36.7266 20.0625 36.875 20.1328C37.0234 20.2109 37.2266 20.3906 37.3281 20.5469C37.4922 20.8047 37.5078 20.8906 37.5 22.1641C37.5 23.1875 37.4688 23.5781 37.3828 23.7891C37.3203 23.9375 37.1484 24.1328 37.0156 24.2188C36.7812 24.3594 36.6172 24.375 35.3125 24.375C34.0078 24.375 33.8437 24.3594 33.6172 24.2188C33.4766 24.1328 33.3047 23.9531 33.2422 23.8281C33.1797 23.6953 33.125 23.4297 33.125 23.2422C33.125 22.9453 33.0859 22.8594 32.8906 22.6953C32.7109 22.5469 32.6562 22.4297 32.6562 22.2266C32.6562 22.0547 32.7187 21.8906 32.8125 21.7969C32.8984 21.7109 33.0078 21.6406 33.0469 21.6406C33.0938 21.6406 33.125 21.4531 33.125 21.2266C33.125 20.9297 33.1719 20.7422 33.2969 20.5469C33.3984 20.3906 33.6016 20.2109 33.75 20.1328C33.8984 20.0625 34.1719 20 34.3594 20C34.6094 20 34.7109 19.9609 34.7813 19.8359C34.8359 19.75 34.9453 19.6484 35.0391 19.6094C35.125 19.5703 35.2422 19.5391 35.2969 19.5312ZM34.375 23.2031H36.25V21.25H34.375V23.2031ZM9.71094 21.5625C10.0078 21.5625 10.3281 21.6094 10.4531 21.6641C10.5703 21.7266 10.6875 21.8281 10.7266 21.8984C10.7578 21.9687 10.7812 22.1094 10.7812 22.2031C10.7891 22.3047 10.7188 22.4766 10.625 22.5938C10.4766 22.8047 10.4453 22.8125 9.75 22.8125C9.23438 22.8125 8.97656 22.7734 8.85156 22.6953C8.75 22.625 8.65625 22.4609 8.63281 22.3203C8.60156 22.1536 8.63021 22.0104 8.71875 21.8906C8.78906 21.7891 8.92188 21.6797 9.01563 21.6406C9.10156 21.6016 9.41406 21.5703 9.71094 21.5625V21.5625ZM13.1484 21.5625C13.4453 21.5625 13.7656 21.6094 13.8906 21.6641C14.0078 21.7266 14.125 21.8281 14.1641 21.8984C14.1953 21.9687 14.2188 22.1094 14.2188 22.2031C14.2266 22.3047 14.1563 22.4766 14.0625 22.5938C13.9141 22.8047 13.8828 22.8125 13.1641 22.8125C12.4766 22.8125 12.4062 22.7969 12.2266 22.6172C12.1172 22.5078 12.0312 22.3438 12.0312 22.2422C12.0312 22.1484 12.0859 21.9844 12.1563 21.8828C12.2266 21.7891 12.3594 21.6719 12.4531 21.6406C12.5391 21.6016 12.8516 21.5703 13.1484 21.5625V21.5625ZM16.5156 21.5625C16.8437 21.5625 17.1875 21.6016 17.2891 21.6484C17.3828 21.7031 17.5078 21.7969 17.5547 21.8672C17.6094 21.9375 17.6562 22.0859 17.6562 22.2031C17.6562 22.3281 17.5781 22.5 17.4688 22.6172C17.2891 22.7969 17.2188 22.8125 16.5703 22.8125C15.9141 22.8125 15.8437 22.7969 15.6641 22.6172C15.5547 22.5 15.4688 22.3359 15.4766 22.2187C15.4766 22.1094 15.5781 21.9141 15.7031 21.7891C15.9141 21.5781 15.9687 21.5625 16.5156 21.5625V21.5625ZM19.9844 21.5625C20.2891 21.5625 20.6328 21.6016 20.7422 21.6563C20.8516 21.7109 20.9766 21.8359 21.0156 21.9297C21.0625 22.0313 21.0938 22.1797 21.0938 22.2656C21.0938 22.3516 21.0078 22.5078 20.9063 22.6172C20.7266 22.7969 20.6563 22.8125 20.0078 22.8125C19.3516 22.8125 19.2812 22.7969 19.1016 22.6172C18.9922 22.5078 18.9062 22.3516 18.9062 22.2656C18.9062 22.1797 18.9531 22.0156 19.0078 21.9141C19.0547 21.8047 19.1719 21.6797 19.2578 21.6406C19.3438 21.6016 19.6719 21.5703 19.9844 21.5625V21.5625ZM23.4609 21.5625C24.0312 21.5625 24.0781 21.5703 24.2969 21.7969C24.4297 21.9297 24.5312 22.1094 24.5312 22.2266C24.5312 22.3281 24.4453 22.5078 24.3438 22.6172C24.1641 22.7969 24.0938 22.8125 23.4453 22.8125C22.7891 22.8125 22.7187 22.7969 22.5391 22.6172C22.4219 22.5 22.3438 22.3281 22.3438 22.2031C22.3516 22.0859 22.3906 21.9375 22.4453 21.8672C22.5 21.7969 22.6094 21.7031 22.6953 21.6563C22.7813 21.6016 23.125 21.5625 23.4609 21.5625ZM26.9375 21.5781C27.5391 21.5938 27.6094 21.6172 27.7813 21.8125C27.8828 21.9297 27.9688 22.1172 27.9688 22.2266C27.9688 22.3281 27.8828 22.5078 27.7813 22.6172C27.6016 22.7969 27.5313 22.8125 26.8438 22.8125C26.1172 22.8125 26.0859 22.8047 25.9375 22.5938C25.8516 22.4766 25.7812 22.2891 25.7812 22.1875C25.7812 22.0781 25.8281 21.9375 25.8828 21.8672C25.9375 21.7969 26.0469 21.7031 26.1328 21.6484C26.2266 21.5938 26.5391 21.5625 26.9375 21.5781ZM30.375 21.5781C30.9922 21.6016 31.0391 21.6094 31.2266 21.8359C31.3828 22.0156 31.4141 22.1172 31.375 22.3047C31.3516 22.4297 31.25 22.6016 31.1562 22.6797C31.0078 22.7891 30.8359 22.8125 30.2578 22.8125C29.5547 22.8125 29.5234 22.8047 29.375 22.5938C29.2891 22.4766 29.2109 22.2891 29.2188 22.1875C29.2188 22.0781 29.2578 21.9297 29.3125 21.8594C29.3672 21.7891 29.4844 21.6953 29.5703 21.6484C29.6641 21.5938 29.9922 21.5625 30.375 21.5781V21.5781Z" fill="#617792"/>
</g>
<defs>
<clipPath id="clip0_1599_3675">
<rect width="40" height="40" fill="white"/>
</clipPath>
</defs>
</svg>
