<svg width="40" height="40" viewBox="0 0 40 40" fill="none" xmlns="http://www.w3.org/2000/svg">
<g clip-path="url(#clip0_1599_3679)">
<path fill-rule="evenodd" clip-rule="evenodd" d="M23.4609 0.625H39.0234L39.3828 0.976562L39.375 21.5234L39.0234 21.8828L23.4766 21.875L23.1172 21.5234L23.0938 0.984375L23.4609 0.625ZM24.375 20.625H38.125V1.875H24.375V20.625ZM1.99219 2.5L19.4375 2.53906L19.7734 2.78125C19.9609 2.91406 20.2188 3.17188 20.5859 3.6875V20.0703L20.3516 20.3984C20.2188 20.5859 19.9609 20.8438 19.4375 21.2109H1.81251L1.47657 20.9766C1.28907 20.8516 1.03126 20.5937 0.664068 20.0703L0.64063 12.0469C0.625005 6.84375 0.64063 3.92969 0.695318 3.75C0.73438 3.60156 0.89063 3.33594 1.03907 3.16406C1.17969 2.99219 1.45313 2.77344 1.64844 2.67969L1.99219 2.5ZM2.01563 4.02344C1.92969 4.14062 1.91407 5.57031 1.91407 11.8828V19.6016L2.26563 19.9609H18.9766L19.3359 19.6016V4.14062L18.9766 3.78906C6.17188 3.76562 2.38282 3.78906 2.28907 3.82031C2.19532 3.85938 2.07032 3.95313 2.01563 4.02344V4.02344ZM9.64844 23.1562C10.9375 23.1797 11.2344 23.2109 11.9531 23.3906C12.3984 23.5078 13.0313 23.7109 13.3594 23.8438C13.6797 23.9766 14.1875 24.2266 14.4922 24.3906C14.7891 24.5625 15.3047 24.9141 15.6406 25.1797C15.9688 25.4453 16.4219 25.875 16.6406 26.1328C16.8594 26.3906 17.1719 26.8281 17.3438 27.1094C17.5078 27.3906 17.7422 27.8984 17.8594 28.2422C18.0625 28.8125 18.0781 28.9609 18.0781 30C18.0781 31.0391 18.0625 31.1797 17.8594 31.7578C17.7422 32.1016 17.5078 32.6094 17.3438 32.8906C17.1719 33.1719 16.8516 33.6172 16.625 33.8828C16.3906 34.1406 16 34.5391 15.7422 34.75C15.4844 34.9609 15.0391 35.2734 14.7656 35.4453C14.4844 35.6094 14.0469 35.8437 13.7891 35.9687C13.5313 36.0859 13.0547 36.2734 12.7344 36.375C12.4063 36.4844 11.8672 36.625 11.5234 36.7031C11.0313 36.8047 10.5391 36.8359 9.25782 36.8281C7.86719 36.8203 7.51563 36.7969 6.36719 36.4922L4.92188 37.9297C3.53126 39.3125 3.46094 39.3672 3.16407 39.3672C2.93751 39.3672 2.79688 39.3203 2.67188 39.1953C2.49219 39.0234 2.49219 39.0156 2.50001 34.375L2.09376 33.8828C1.87501 33.6172 1.56251 33.1719 1.39844 32.8906C1.23438 32.6094 1.00001 32.1016 0.882818 31.7578C0.718755 31.2656 0.664068 30.9453 0.64063 30.2734C0.617193 29.7812 0.648443 29.2109 0.695318 28.9453C0.750005 28.6875 0.882818 28.2266 1.00001 27.9297C1.11719 27.625 1.37501 27.1328 1.57032 26.8359C1.77344 26.5312 2.14063 26.0781 2.39063 25.8203C2.64063 25.5703 3.02344 25.2188 3.24219 25.0547C3.45313 24.8828 3.85938 24.6172 4.14063 24.4531C4.41407 24.2891 4.94532 24.0313 5.31251 23.8828C5.67188 23.7266 6.27344 23.5313 6.64063 23.4375C7 23.3437 7.49219 23.2344 7.73438 23.2031C7.96875 23.1641 8.82813 23.1484 9.64844 23.1562V23.1562ZM7.10938 24.6797C6.78125 24.7578 6.24219 24.9375 5.89844 25.0703C5.55469 25.1953 4.96876 25.4922 4.60938 25.7188C4.24219 25.9453 3.69532 26.375 3.39844 26.6797C3.09376 26.9844 2.71876 27.4609 2.55469 27.7344C2.39063 28.0156 2.18751 28.4688 2.10157 28.75C1.98438 29.1094 1.93751 29.4766 1.93751 30C1.93751 30.5391 1.97657 30.8828 2.09376 31.25C2.18751 31.5312 2.38282 31.9688 2.53907 32.2266C2.69532 32.4844 3.03126 32.9297 3.28126 33.2188L3.75001 33.75V37.1875C5.59376 35.3437 5.90625 35.0781 6.05469 35.0781C6.15625 35.0781 6.57032 35.1641 6.96875 35.2734C7.36719 35.3828 8.0625 35.5 8.51563 35.5312C8.96094 35.5703 9.71875 35.5703 10.1953 35.5312C10.6641 35.4922 11.3125 35.3984 11.6406 35.3203C11.9609 35.2344 12.5078 35.0625 12.8516 34.9297C13.1953 34.7969 13.6875 34.5625 13.9453 34.4062C14.2031 34.2578 14.6016 33.9844 14.8359 33.8047C15.0625 33.625 15.4063 33.2969 15.5859 33.0859C15.7734 32.8672 16.0469 32.4844 16.2031 32.2266C16.3594 31.9688 16.5547 31.5312 16.6406 31.25C16.7578 30.8906 16.8047 30.5234 16.8047 30C16.8047 29.4687 16.7578 29.1094 16.6406 28.75C16.5547 28.4688 16.3516 28.0156 16.1875 27.7422C16.0313 27.4609 15.6641 27.0078 15.3906 26.7188C15.1094 26.4375 14.6484 26.0469 14.375 25.8594C14.0938 25.6719 13.6172 25.4062 13.3203 25.2656C13.0156 25.125 12.4922 24.9297 12.1484 24.8203C11.8047 24.7109 11.2422 24.5859 10.8984 24.5391C10.5547 24.4922 10.0391 24.4453 9.76563 24.4297C9.48438 24.4141 8.90625 24.4297 8.47657 24.4609C8.04688 24.5 7.42969 24.5937 7.10938 24.6797V24.6797ZM20.7422 23.75L38.1875 23.7891L38.5234 24.0234C38.7109 24.1563 38.9688 24.4141 39.3359 24.9375V38.1875L39.0938 38.5234C38.9609 38.7109 38.7031 38.9688 38.1875 39.3359H20.5547L20.2188 39.1016C20.0391 38.9687 19.7813 38.7109 19.4141 38.1875L19.3906 31.7266C19.375 27.5703 19.3906 25.1719 19.4453 25C19.4844 24.8516 19.6406 24.5859 19.7813 24.4141C19.9297 24.2422 20.2031 24.0234 20.3906 23.9219L20.7422 23.75ZM20.7734 25.2813C20.6875 25.3906 20.6641 26.5625 20.6641 31.5781V37.7344L21.0234 38.0859H37.7344L38.0859 37.7344V25.3984L37.7344 25.0391C24.9297 25.0156 21.1406 25.0391 21.0469 25.0781C20.9531 25.1094 20.8281 25.2031 20.7734 25.2813ZM30 3.75C33.3359 3.75 33.4453 3.75781 33.5938 3.90625C33.6979 4.01042 33.75 4.16667 33.75 4.375C33.75 4.58333 33.6979 4.73958 33.5938 4.84375C33.4453 5 33.3359 5 30 5C26.6719 5 26.5625 5 26.4063 4.84375C26.3021 4.73958 26.25 4.58333 26.25 4.375C26.25 4.16667 26.3021 4.01042 26.4063 3.90625C26.5625 3.75781 26.6719 3.75 30 3.75ZM13.2031 5.64844C13.7344 5.66406 13.9453 5.71094 14.25 5.86719C14.4609 5.96875 14.7969 6.23437 14.9922 6.44531C15.2031 6.67188 15.4141 7 15.4922 7.22656C15.5703 7.44531 15.625 7.84375 15.625 8.125C15.625 8.40625 15.5703 8.8125 15.4922 9.02344C15.3984 9.29688 15.2109 9.5625 14.8828 9.89062C14.5625 10.2109 14.2969 10.3984 14.0234 10.4922C13.8125 10.5703 13.4063 10.6328 13.125 10.6328C12.8438 10.6328 12.4453 10.5703 12.2266 10.4922C12 10.4141 11.6719 10.2031 11.4453 9.99219C11.2344 9.79688 10.9688 9.46094 10.8594 9.25C10.7266 8.97656 10.6641 8.71094 10.6406 8.28125C10.6172 7.86719 10.6484 7.57812 10.75 7.26562C10.8516 6.94531 11 6.72656 11.3594 6.36719C11.6641 6.0625 11.9688 5.84375 12.1875 5.75781C12.4297 5.67187 12.75 5.64063 13.2031 5.64844V5.64844ZM12.2891 7.28125C12.1406 7.42969 12 7.66406 11.9609 7.8125C11.9219 7.97656 11.9219 8.21875 11.9609 8.39844C12.0078 8.57812 12.1484 8.82813 12.2891 8.96875C12.4297 9.10938 12.6641 9.25781 12.8125 9.29688C12.9766 9.33594 13.2188 9.33594 13.3984 9.28906C13.5781 9.25 13.8203 9.10938 13.9688 8.96875C14.1172 8.82031 14.25 8.58594 14.2891 8.39844C14.3281 8.21875 14.3281 7.97656 14.2891 7.8125C14.2578 7.66406 14.1094 7.42969 13.9688 7.28906C13.8281 7.14844 13.6641 7.01562 13.5938 7C13.5313 6.98437 13.3906 6.95313 13.2813 6.9375C13.1797 6.91406 12.9688 6.92969 12.8125 6.96094C12.6641 7 12.4297 7.14062 12.2891 7.28125ZM27.5 6.875C28.3359 6.875 28.4531 6.89844 28.5938 7.03125C28.6979 7.13542 28.75 7.29167 28.75 7.5C28.75 7.70833 28.6979 7.86458 28.5938 7.96875C28.4531 8.10937 28.3359 8.125 27.5 8.125C26.6719 8.125 26.5469 8.10937 26.4063 7.96875C26.3021 7.86458 26.25 7.70833 26.25 7.5C26.25 7.29167 26.3021 7.13542 26.4063 7.03125C26.5469 6.89844 26.6719 6.875 27.5 6.875ZM33.4375 6.875C35.8359 6.875 35.9453 6.88281 36.0938 7.03125C36.1979 7.13542 36.25 7.29167 36.25 7.5C36.25 7.70833 36.1979 7.86458 36.0938 7.96875C35.9453 8.125 35.8359 8.125 33.4375 8.125C31.0469 8.125 30.9297 8.125 30.7813 7.96875C30.6771 7.86458 30.625 7.70833 30.625 7.5C30.625 7.29167 30.6771 7.13542 30.7813 7.03125C30.9297 6.88281 31.0469 6.875 33.4375 6.875ZM31.25 9.375C35.8359 9.375 35.9453 9.38281 36.0938 9.53125C36.1979 9.63542 36.25 9.79167 36.25 10C36.25 10.2083 36.1979 10.3646 36.0938 10.4688C35.9453 10.625 35.8359 10.625 31.25 10.625C26.6719 10.625 26.5625 10.625 26.4063 10.4688C26.3021 10.3646 26.25 10.2083 26.25 10C26.25 9.79167 26.3021 9.63542 26.4063 9.53125C26.5625 9.38281 26.6719 9.375 31.25 9.375V9.375ZM8.16407 10.6328C8.46875 10.6328 8.52344 10.6797 12.5391 14.6875L13.6172 13.5938C14.6641 12.5234 14.6953 12.5 15.0234 12.5078C15.3438 12.5078 15.3828 12.5391 16.6641 13.8125C17.3828 14.5313 18.0234 15.2344 18.0938 15.375C18.1563 15.5156 18.1797 15.6875 18.1563 15.7656C18.125 15.8438 18.0313 15.9844 17.9375 16.0781C17.8203 16.2109 17.6953 16.2578 17.4609 16.25C17.1641 16.25 17.1016 16.1953 15.0391 14.0703L13.9297 15.1641C12.875 16.1953 12.7969 16.25 12.5 16.25C12.1953 16.25 12.1406 16.2031 8.16407 12.1953L6.21094 14.1484C5.14063 15.2188 4.14844 16.1484 4.00782 16.2109C3.86719 16.2812 3.68751 16.3047 3.61719 16.2812C3.53907 16.25 3.41407 16.1719 3.33594 16.1016C3.25001 16.0391 3.15626 15.8984 3.11719 15.8047C3.07813 15.7109 3.07813 15.5547 3.10938 15.4688C3.14063 15.3828 4.21876 14.2578 5.50782 12.9688C7.81251 10.6562 7.84375 10.625 8.16407 10.6328V10.6328ZM29.0625 12.5C31.4609 12.5 31.5703 12.5078 31.7188 12.6562C31.8229 12.7604 31.875 12.9167 31.875 13.125C31.875 13.3333 31.8229 13.4896 31.7188 13.5938C31.5703 13.75 31.4609 13.75 29.0625 13.75C26.6719 13.75 26.5547 13.75 26.4063 13.5938C26.3021 13.4896 26.25 13.3333 26.25 13.125C26.25 12.9167 26.3021 12.7604 26.4063 12.6562C26.5547 12.5078 26.6719 12.5 29.0625 12.5ZM35 12.5C35.8359 12.5 35.9531 12.5234 36.0938 12.6562C36.1979 12.7604 36.25 12.9167 36.25 13.125C36.25 13.3333 36.1979 13.4896 36.0938 13.5938C35.9531 13.7344 35.8359 13.75 35 13.75C34.1719 13.75 34.0469 13.7344 33.9063 13.5938C33.8021 13.4896 33.75 13.3333 33.75 13.125C33.75 12.9167 33.8021 12.7604 33.9063 12.6562C34.0469 12.5234 34.1719 12.5 35 12.5ZM31.25 15C35.8359 15 35.9453 15.0078 36.0938 15.1562C36.1979 15.2604 36.25 15.4167 36.25 15.625C36.25 15.8333 36.1979 15.9896 36.0938 16.0938C35.9453 16.25 35.8359 16.25 31.25 16.25C26.6719 16.25 26.5625 16.25 26.4063 16.0938C26.3021 15.9896 26.25 15.8333 26.25 15.625C26.25 15.4167 26.3021 15.2604 26.4063 15.1562C26.5625 15.0078 26.6719 15 31.25 15ZM28.4375 17.5C30.2109 17.5 30.3203 17.5156 30.4688 17.6562C30.5729 17.7604 30.625 17.9167 30.625 18.125C30.625 18.3333 30.5729 18.4896 30.4688 18.5938C30.3203 18.7422 30.2109 18.75 28.4375 18.75C26.6719 18.75 26.5547 18.7422 26.4063 18.5938C26.3021 18.4896 26.25 18.3333 26.25 18.125C26.25 17.9167 26.3021 17.7604 26.4063 17.6562C26.5547 17.5156 26.6719 17.5 28.4375 17.5ZM27.6016 26.2578C27.8281 26.2578 28.1016 26.3203 28.3047 26.4219C28.4844 26.5078 29.4609 27.0625 30.4688 27.6406C31.4844 28.2187 32.4219 28.7813 32.5625 28.8828C32.7031 28.9844 32.8828 29.1797 32.9688 29.3203C33.0781 29.4922 33.125 29.7109 33.125 30C33.125 30.2969 33.0781 30.5156 32.9688 30.6875C32.8828 30.8281 32.7031 31.0234 32.5625 31.125C32.4219 31.2266 31.375 31.8516 28.1641 33.7109H27.6094C27.1406 33.7109 27.0234 33.6875 26.7891 33.5156C26.6484 33.3984 26.4609 33.1797 26.3906 33.0234C26.2656 32.7656 26.2578 32.4687 26.2891 27.0625L26.4922 26.7969C26.6016 26.6484 26.8125 26.4687 26.9609 26.3906C27.1094 26.3203 27.3984 26.2578 27.6016 26.2578V26.2578ZM27.5781 32.4219C27.625 32.4219 27.7344 32.3828 27.8359 32.3359C27.9297 32.2891 28.8594 31.7578 29.9063 31.1641C30.9453 30.5703 31.7969 30.0469 31.7969 30C31.7969 29.9609 30.8906 29.4062 29.7891 28.7812C28.6797 28.1484 27.7188 27.6172 27.6484 27.5938C27.5391 27.5703 27.5234 27.8125 27.5156 29.9922C27.5078 31.5703 27.5313 32.4219 27.5781 32.4219V32.4219ZM4.99219 29.0625C5.34376 29.0625 5.42188 29.1016 5.66407 29.3359C5.90625 29.5781 5.9375 29.6641 5.9375 30C5.9375 30.3438 5.90625 30.4297 5.67188 30.6641C5.4375 30.9062 5.35938 30.9375 5.00782 30.9375C4.65626 30.9375 4.57813 30.9062 4.33594 30.6641C4.09376 30.4219 4.06251 30.3516 4.07032 29.9922C4.07813 29.6562 4.11719 29.5547 4.33594 29.3281C4.56251 29.1016 4.64063 29.0625 4.99219 29.0625V29.0625ZM9.36719 29.0625C9.71876 29.0625 9.79688 29.1016 10.0391 29.3359C10.2813 29.5781 10.3125 29.6641 10.3125 30C10.3125 30.3438 10.2813 30.4297 10.0469 30.6641C9.81251 30.9062 9.73438 30.9375 9.38282 30.9375C9.03125 30.9375 8.95313 30.9062 8.71094 30.6641C8.46875 30.4219 8.4375 30.3516 8.44532 29.9922C8.45313 29.6562 8.49219 29.5547 8.71094 29.3281C8.9375 29.1016 9.01563 29.0625 9.36719 29.0625ZM13.7422 29.0625C14.0938 29.0625 14.1719 29.1016 14.4141 29.3359C14.6563 29.5781 14.6875 29.6641 14.6875 30C14.6875 30.3438 14.6563 30.4297 14.4219 30.6641C14.1875 30.9062 14.1094 30.9375 13.7578 30.9375C13.4063 30.9375 13.3281 30.9062 13.0859 30.6641C12.8438 30.4219 12.8125 30.3516 12.8203 29.9922C12.8281 29.6562 12.8672 29.5547 13.0859 29.3281C13.3125 29.1016 13.3906 29.0625 13.7422 29.0625ZM33.7422 34.3828C33.9297 34.3828 34.0859 34.4453 34.2031 34.5547C34.3047 34.6484 34.3828 34.7891 34.3828 34.8672C34.375 34.9844 34.4688 35 35.1563 35C35.8359 35 35.9609 35.0234 36.0938 35.1562C36.1979 35.2604 36.25 35.4167 36.25 35.625C36.25 35.8333 36.1979 35.9896 36.0938 36.0938C35.9609 36.2344 35.8359 36.25 35.1563 36.25C34.4688 36.25 34.375 36.2656 34.375 36.3906C34.375 36.4687 34.2969 36.6094 34.2031 36.7031C34.0781 36.8281 33.9375 36.8828 33.75 36.875C33.5781 36.875 33.4141 36.8125 33.3047 36.7031C33.2031 36.6016 33.125 36.4687 33.125 36.3906C33.125 36.2578 32.8281 36.25 27.9688 36.25C22.9219 36.25 22.8125 36.25 22.6563 36.0938C22.5521 35.9896 22.5 35.8333 22.5 35.625C22.5 35.4167 22.5521 35.2604 22.6563 35.1562C22.8125 35.0078 22.9219 35 27.9688 35C32.7578 35 33.125 34.9922 33.1094 34.875C33.1016 34.7969 33.1797 34.6562 33.2813 34.5625C33.4063 34.4375 33.5547 34.375 33.7422 34.3828V34.3828Z" fill="#617792"/>
</g>
<defs>
<clipPath id="clip0_1599_3679">
<rect width="40" height="40" fill="white"/>
</clipPath>
</defs>
</svg>
