<svg width="41" height="40" viewBox="0 0 41 40" fill="none" xmlns="http://www.w3.org/2000/svg">
<g clip-path="url(#clip0_1599_3638)">
<path fill-rule="evenodd" clip-rule="evenodd" d="M11.8038 16.5625V23.4375C11.8038 24.6894 12.8301 25.7813 14.0694 25.7813H20.5537C21.1948 25.7813 21.6284 24.5991 20.242 24.6086L14.616 24.6096C13.7553 24.6141 13.0538 24.3102 13.0538 23.3594V16.6407C13.0538 15.9346 13.5978 15.3907 14.3038 15.3907H25.7881C26.4942 15.3907 27.0381 15.9346 27.0381 16.6407V23.3594C27.0381 25.4521 23.6381 24.2445 22.891 24.681C22.4068 24.9639 22.5677 25.7813 23.21 25.7813H26.0225C27.2618 25.7813 28.2881 24.6895 28.2881 23.4375V16.5625C28.2881 15.3106 27.2618 14.2188 26.0225 14.2188H14.0694C12.8301 14.2188 11.8038 15.3106 11.8038 16.5625V16.5625Z" fill="#36D1C2"/>
<path fill-rule="evenodd" clip-rule="evenodd" d="M32.6631 1.17192C33.507 1.17192 34.6011 1.43548 35.1636 1.71832C37.0483 2.66604 38.1312 3.86691 38.6634 5.95285C39.1848 7.99665 38.4876 10.0806 37.137 11.5834C37.0292 11.7033 36.9062 11.823 36.7727 11.9221C36.5838 12.0623 36.553 12.1094 36.3831 12.2356C34.4919 13.6395 32.0679 13.843 29.955 12.7862C28.5457 12.0813 27.736 11.058 27.0631 9.66257C26.3508 8.18559 26.56 6.17656 27.1692 4.74042C27.4053 4.18394 28.0199 3.35357 28.4246 2.94887C29.4706 1.90283 31.1615 1.17192 32.6631 1.17192V1.17192ZM25.3194 7.26566C25.3194 8.32713 25.6156 9.54481 25.9694 10.2875L26.6327 11.4992C28.7287 14.4234 32.1868 15.4732 35.7571 14.0315L36.8977 13.3751C37.9874 12.6505 38.7989 11.6331 39.3823 10.4692C40.6088 8.0224 40.1884 4.74239 38.4242 2.67637C38.3362 2.57329 38.2797 2.54394 38.1952 2.43659C37.1201 1.07048 34.8462 0 33.1319 0C30.7129 0 29.0761 0.579524 27.4482 2.20698C26.1447 3.51019 25.3194 5.40515 25.3194 7.26558V7.26566Z" fill="#36D1C2"/>
<path fill-rule="evenodd" clip-rule="evenodd" d="M7.42887 38.8279C6.16215 38.8279 5.32136 38.4708 4.40808 38.0206C3.65913 37.6514 3.08928 37.0567 2.56396 36.4272L2.09072 35.7285C1.13389 33.915 0.948644 32.1554 1.77869 30.2089C1.97025 29.7597 2.29032 29.2088 2.60431 28.8471C4.09597 27.1288 5.37376 26.5623 7.81945 26.5623C9.95099 26.5623 12.19 28.2965 13.0229 30.3432C13.4961 31.5061 13.5936 32.9693 13.3053 34.1574C13.0512 35.2045 12.4209 36.3144 11.6685 37.0519C10.9141 37.7913 9.85874 38.3747 8.80433 38.6408C8.49025 38.7201 7.75902 38.8279 7.42887 38.8279V38.8279ZM7.73073 39.9997H6.92717C5.55294 39.9271 4.19388 39.4757 3.04016 38.6072L2.10015 37.8284C0.777337 36.2995 0.00698853 34.7005 0.00698853 32.4998C0.00698853 30.8604 0.772088 28.9863 1.78304 27.8696C2.4558 27.1264 2.93651 26.7898 3.77271 26.2655C5.60755 25.1151 8.49427 25.0158 10.4239 25.9891C11.3306 26.4464 11.8542 26.73 12.6046 27.4803L13.6322 28.7964C14.7327 30.6088 14.9732 32.1813 14.5569 34.3155C14.3682 35.2829 13.9806 36.0301 13.4603 36.8125C12.1635 38.7626 9.97625 39.8791 7.73073 39.9997V39.9997Z" fill="#36D1C2"/>
<path fill-rule="evenodd" clip-rule="evenodd" d="M32.2725 26.5625C34.2718 26.5625 35.6636 26.9432 37.0974 28.3782C37.277 28.558 37.2703 28.5812 37.4145 28.7642C41.9006 34.4604 34.9885 41.5455 29.3349 37.7813C28.1137 36.9683 27.202 35.7115 26.818 34.2826C26.654 33.6724 26.5594 32.2755 26.6918 31.6067C26.915 30.4788 27.4018 29.3538 28.1904 28.5741C29.2455 27.5309 30.5908 26.5625 32.2726 26.5625H32.2725ZM25.3194 32.6562C25.3194 33.8127 25.6247 34.7716 25.9546 35.6148C26.8993 38.029 29.7371 40 32.4288 40C33.9472 40 34.5377 39.8965 35.8661 39.2967L38.132 37.6564C38.715 36.8429 38.6449 37.2486 39.3818 35.7812C41.6843 31.1968 38.2282 25.3125 32.7412 25.3125C30.8128 25.3125 29.1544 26.0362 27.7612 27.2075C27.0224 27.8286 26.4516 28.7526 26.0219 29.6089C25.6258 30.3985 25.3193 31.6994 25.3193 32.6562H25.3194Z" fill="#36D1C2"/>
<path fill-rule="evenodd" clip-rule="evenodd" d="M3.60073 1.24999V1.64066C4.0174 1.91964 3.98468 2.14917 4.92904 1.71897C7.97328 0.332035 11.5384 1.80549 12.8728 4.63423C13.8993 6.81054 13.58 9.76655 11.9016 11.426C10.3698 12.9405 9.27838 13.4376 7.03819 13.4376C6.15951 13.4376 5.28199 13.1427 4.66662 12.8404C3.84183 12.4353 3.20998 11.8736 2.6421 11.1931C0.892624 9.09682 0.790528 5.81066 2.48589 3.65083C2.79201 3.26082 2.74133 3.29633 2.74133 2.81258C2.04733 2.34786 1.92334 2.24708 1.24131 3.26566L0.655959 4.32089C-0.189013 6.26144 -0.256994 8.51164 0.682775 10.418C1.12388 11.3127 1.51094 11.8554 2.17501 12.5194C4.86491 15.2093 9.13266 15.4274 12.0593 12.9899C13.7151 11.6108 14.7725 9.57269 14.7725 7.34373C14.7725 5.79368 14.2715 4.40437 13.4914 3.23425C13.205 2.80463 13.0354 2.59863 12.6826 2.24618C11.3885 0.953136 9.76549 0.155152 8.02511 0H6.7711C6.2038 0.0501866 5.62968 0.168929 5.05549 0.361065C4.63579 0.501538 3.60065 0.838412 3.60065 1.24999H3.60073Z" fill="#36D1C2"/>
<path fill-rule="evenodd" clip-rule="evenodd" d="M6.96012 28.9844V29.375C6.21798 29.4368 5.39761 30.2724 5.39761 31.0938C5.39761 31.9614 5.55818 32.63 6.51394 33.1024C6.95143 33.3187 7.12471 33.1947 7.55687 33.3096C8.27949 33.5016 8.54937 34.8545 7.03901 34.8445C6.73338 34.8425 6.39938 34.8313 6.09695 34.84C5.67372 34.8519 5.64281 34.9922 5.3977 35.1563C5.3977 36.1414 5.70185 36.0938 6.9602 36.0938C6.9602 36.534 6.99932 37.1876 7.58516 37.1876C8.30696 37.1876 8.28826 36.5173 8.28826 35.7814C9.49668 35.4587 9.9181 33.1216 8.36814 32.3421C7.54293 31.9271 6.6476 32.2931 6.6476 31.2501C6.6476 29.7928 9.38195 31.2681 9.38195 29.922C9.38195 29.7099 9.33111 29.5872 9.19843 29.4805C8.93159 29.266 8.61267 29.297 8.28818 29.297C8.28818 28.6856 8.26752 28.3218 7.75491 28.1873C7.29347 28.0662 6.96004 28.3904 6.96004 28.9844H6.96012Z" fill="#36D1C2"/>
<path fill-rule="evenodd" clip-rule="evenodd" d="M32.3506 28.7502V29.3751C30.7778 29.506 29.8974 31.9184 31.7393 33.0333C32.5098 33.4996 33.4444 32.9517 33.4444 34.1407C33.4444 35.6443 30.71 34.0121 30.71 35.5469C30.71 36.1711 31.9325 36.0938 32.3506 36.0938C32.3506 36.4369 32.2822 37.1876 32.8975 37.1876C33.7609 37.1876 33.6006 36.296 33.6006 35.8594C34.6055 35.1865 34.6944 34.9161 34.6944 33.8282C34.6944 33.1077 34.0705 32.5172 33.6007 32.2657C33.0511 31.9715 31.96 32.2674 31.96 31.2501C31.96 31.0742 32.1679 30.7359 32.2966 30.6491C32.507 30.5073 32.8115 30.5457 33.1318 30.5469C33.3994 30.5479 33.8151 30.5712 34.0662 30.5438C34.4285 30.5043 34.4657 30.3875 34.6944 30.2344V29.6094C34.2038 29.2809 34.5337 29.2969 33.6006 29.2969V28.8282C33.6006 27.9685 32.3506 27.9369 32.3506 28.75V28.7502Z" fill="#36D1C2"/>
<path fill-rule="evenodd" clip-rule="evenodd" d="M32.3506 3.98434C32.099 4.10505 31.6008 4.15147 31.198 4.62857C30.3809 5.59638 30.5837 7.01989 31.7547 7.70529C32.4698 8.12384 33.4444 7.70373 33.4444 8.74994C33.4444 8.92477 33.4003 9.04556 33.3179 9.17029C32.9146 9.78098 31.6671 9.21999 31.0047 9.59138C30.4716 9.89029 30.6875 10.703 31.3351 10.703H32.3507V11.2499C32.3507 11.7488 32.8774 11.9754 33.255 11.7671C33.6947 11.5246 33.6007 11.0877 33.6007 10.4687C34.5278 10.2211 35.1022 8.71656 34.3679 7.59204C33.6446 6.48424 32.5372 6.94527 32.1755 6.50327C31.8045 6.04995 31.8049 5.15364 33.1302 5.15446C34.1687 5.15512 34.6945 5.36054 34.6945 4.45308C34.6945 4.25881 34.4991 4.15934 34.3819 3.98434H33.6007C33.6007 3.67084 33.7134 2.8125 32.9756 2.8125C32.3166 2.8125 32.3507 3.32642 32.3507 3.98434H32.3506Z" fill="#36D1C2"/>
<path fill-rule="evenodd" clip-rule="evenodd" d="M6.96011 3.98446C6.52033 4.19545 5.98172 4.3151 5.6159 4.98401C5.1461 5.843 5.35406 7.1654 6.43685 7.7109C6.80906 7.89844 7.03367 7.90951 7.50265 7.97315C7.69807 7.99963 7.80345 8.04597 7.91653 8.18423C8.24693 8.58793 8.16984 9.11022 7.79426 9.34983C7.09895 9.79348 5.39761 8.86101 5.39761 10.2344V10.3906C6.00296 10.796 5.63402 10.7032 6.96011 10.7032C6.96011 11.2494 7.0276 12.057 7.81042 11.7941C8.34451 11.6148 8.28817 11.1593 8.28817 10.4688C9.95573 9.58642 9.51857 7.56312 8.34328 6.97622C7.41147 6.51085 6.6476 7.04945 6.6476 5.78134C6.6476 4.91275 8.60364 5.1563 9.06951 5.1563C9.1748 4.9991 9.38203 4.84099 9.38203 4.60941C9.38203 3.89975 8.72099 3.98438 8.28826 3.98438C8.28826 2.3511 7.30839 2.76948 7.06369 3.15039C6.91124 3.38763 6.9602 3.63733 6.9602 3.98438L6.96011 3.98446Z" fill="#36D1C2"/>
<path fill-rule="evenodd" clip-rule="evenodd" d="M18.7569 21.5625V18.4375C19.166 18.5467 20.6476 19.8009 21.1007 19.9218V20.0781C20.6472 20.1992 19.1658 21.4533 18.7569 21.5624V21.5625ZM17.5069 17.9687V22.0312C17.5069 22.6942 17.9694 23.0469 18.6007 23.0469C18.9655 23.0469 21.3362 21.3513 21.8196 21.0314C22.5431 20.5529 22.9166 19.8926 22.2692 19.3003C21.8453 18.9124 18.9161 16.9531 18.6007 16.9531C18.2544 16.9531 18.0614 17.0009 17.7963 17.2424C17.5946 17.4263 17.507 17.611 17.507 17.9687H17.5069Z" fill="#36D1C2"/>
<path fill-rule="evenodd" clip-rule="evenodd" d="M19.3819 36.797C19.3819 37.6237 20.71 37.6041 20.71 36.797C20.71 36.0147 19.3819 36.0139 19.3819 36.797Z" fill="#36D1C2"/>
<path fill-rule="evenodd" clip-rule="evenodd" d="M19.3819 3.20316C19.3819 3.51724 19.7388 3.79695 20.0163 3.81254C20.8661 3.86018 20.9343 2.57812 20.085 2.57812C19.7062 2.57812 19.3819 2.83677 19.3819 3.20316V3.20316Z" fill="#36D1C2"/>
<path fill-rule="evenodd" clip-rule="evenodd" d="M36.2568 19.6875V20.3125C36.414 20.4178 36.5722 20.625 36.8037 20.625C37.7768 20.625 37.6471 19.375 36.8818 19.375C36.5268 19.375 36.4744 19.5419 36.2568 19.6875V19.6875Z" fill="#36D1C2"/>
<path fill-rule="evenodd" clip-rule="evenodd" d="M2.58511 20C2.58511 20.2375 2.81563 20.625 3.21007 20.625C3.56506 20.625 3.61755 20.4581 3.83511 20.3125V19.6875C3.54825 19.4954 3.59819 19.375 3.132 19.375C2.87369 19.375 2.58511 19.7388 2.58511 20V20Z" fill="#36D1C2"/>
<path fill-rule="evenodd" clip-rule="evenodd" d="M3.2883 24.3749V25C3.45346 25.1106 3.62944 25.3125 3.91325 25.3125C4.74945 25.3125 4.6139 24.0625 3.9914 24.0625C3.61222 24.0625 3.50741 24.2283 3.2883 24.375V24.3749Z" fill="#36D1C2"/>
<path fill-rule="evenodd" clip-rule="evenodd" d="M17.0382 36.6405C17.0382 37.4228 18.2882 37.4962 18.2882 36.6405C18.2882 36.429 18.2373 36.3049 18.1047 36.199C17.8204 35.9721 17.506 35.9721 17.2218 36.199C17.0891 36.305 17.0383 36.4291 17.0383 36.6405H17.0382Z" fill="#36D1C2"/>
<path fill-rule="evenodd" clip-rule="evenodd" d="M35.5537 15.3125C35.5537 16.0278 36.8037 16.2252 36.8037 15.3125C36.8037 15.115 36.7417 14.9603 36.6313 14.86C36.2415 14.5063 35.5537 14.7617 35.5537 15.3125V15.3125Z" fill="#36D1C2"/>
<path fill-rule="evenodd" clip-rule="evenodd" d="M3.2883 15.3127C3.2883 16.2013 4.53829 16.0329 4.53829 15.3127C4.53829 14.5514 3.2883 14.4223 3.2883 15.3127V15.3127Z" fill="#36D1C2"/>
<path fill-rule="evenodd" clip-rule="evenodd" d="M21.8038 3.35969C21.8038 4.16579 23.0538 4.16579 23.0538 3.35969C23.0538 2.57737 21.8038 2.50397 21.8038 3.35969Z" fill="#36D1C2"/>
<path fill-rule="evenodd" clip-rule="evenodd" d="M21.8038 36.6407C21.8038 37.488 23.0538 37.4228 23.0538 36.6407C23.0538 35.8346 21.8038 35.8346 21.8038 36.6407Z" fill="#36D1C2"/>
<path fill-rule="evenodd" clip-rule="evenodd" d="M35.5537 24.6875C35.5537 24.9341 35.9187 25.3126 36.1006 25.3126C36.4798 25.3126 36.5846 25.1468 36.8037 25.0001V24.375C36.6385 24.2644 36.4626 24.0625 36.1787 24.0625C35.9063 24.0625 35.5536 24.4152 35.5536 24.6875H35.5537Z" fill="#36D1C2"/>
<path fill-rule="evenodd" clip-rule="evenodd" d="M36.0224 17.6562C36.2161 18.0224 36.1895 18.2031 36.7255 18.2031C37.5229 18.2031 37.568 17.0312 36.6474 17.0312C36.1446 17.0312 36.1798 17.3281 36.0223 17.6563L36.0224 17.6562Z" fill="#36D1C2"/>
<path fill-rule="evenodd" clip-rule="evenodd" d="M17.0382 3.35929C17.0382 4.08011 18.2882 4.20845 18.2882 3.35929C18.2882 2.51203 17.0382 2.57722 17.0382 3.35929Z" fill="#36D1C2"/>
<path fill-rule="evenodd" clip-rule="evenodd" d="M14.6944 3.90654C15.3564 5.15751 16.3881 3.98543 15.8144 3.41173C15.576 3.17334 14.908 2.9899 14.6944 3.90654Z" fill="#36D1C2"/>
<path fill-rule="evenodd" clip-rule="evenodd" d="M24.6944 36.7186C25.36 36.7186 25.5698 36.1474 25.2025 35.7417C24.4602 34.9217 23.421 36.7186 24.6944 36.7186Z" fill="#36D1C2"/>
<path fill-rule="evenodd" clip-rule="evenodd" d="M14.6944 36.0935C14.8988 36.9706 15.5346 36.8208 15.7731 36.6258C16.4393 36.081 15.3758 34.8058 14.6944 36.0935Z" fill="#36D1C2"/>
<path fill-rule="evenodd" clip-rule="evenodd" d="M2.74141 17.5781C2.85089 18.048 2.93847 18.2031 3.44452 18.2031C4.18018 18.2031 4.29408 17.0312 3.36637 17.0312C2.91469 17.0312 2.89386 17.29 2.74133 17.5781H2.74141Z" fill="#36D1C2"/>
<path fill-rule="evenodd" clip-rule="evenodd" d="M36.5693 22.9687C37.6083 22.9687 37.5626 21.7969 36.6475 21.7969C36.0602 21.7969 35.9456 22.4013 36.1801 22.7315C36.2421 22.8187 36.4194 22.9687 36.5693 22.9687V22.9687Z" fill="#36D1C2"/>
<path fill-rule="evenodd" clip-rule="evenodd" d="M2.74142 22.4218C2.97218 22.8579 2.91191 22.9687 3.52268 22.9687C4.06227 22.9687 4.32649 21.7969 3.36646 21.7969C2.90535 21.7969 2.8281 22.05 2.74142 22.4218V22.4218Z" fill="#36D1C2"/>
<path fill-rule="evenodd" clip-rule="evenodd" d="M24.7725 4.45309L25.2026 4.25817C25.5699 3.85249 25.3601 3.28125 24.6945 3.28125C23.8282 3.28125 23.9627 4.45309 24.7726 4.45309H24.7725Z" fill="#36D1C2"/>
</g>
<defs>
<clipPath id="clip0_1599_3638">
<rect width="40.1054" height="40" fill="white"/>
</clipPath>
</defs>
</svg>
