<svg width="40" height="40" viewBox="0 0 40 40" fill="none" xmlns="http://www.w3.org/2000/svg">
<g clip-path="url(#clip0_1599_3569)">
<path fill-rule="evenodd" clip-rule="evenodd" d="M20.1857 38.6559H19.158C19.158 37.9449 19.2893 37.312 18.4465 37.312C17.678 37.312 17.8142 38.1996 17.8142 38.6559H6.03549C6.03549 38.0636 6.13365 37.312 5.32406 37.312C4.55135 37.312 4.69167 38.1212 4.69167 38.6559C3.6988 38.6559 2.77416 38.7799 2.06059 38.1249C1.42231 37.5389 1.45053 36.8613 1.45053 36.0471H22.3991C22.3991 36.6622 22.4337 37.3388 22.0241 37.8064C21.5152 38.3875 21.2474 38.6558 20.1857 38.6558V38.6559ZM2.00387 20.9483V34.7033C1.14756 34.7033 0.482041 34.5639 0.188001 34.9428C-0.136676 35.3611 -0.00457207 37.2293 0.309922 37.9782C0.583776 38.6302 1.22884 39.3384 1.86953 39.6596C2.17045 39.8105 2.77077 39.9997 3.18959 39.9997H20.66C21.5489 39.9997 22.1639 39.597 22.7462 39.0819C22.8969 38.9486 22.771 39.0738 22.9045 38.924C22.983 38.8359 23.0209 38.7961 23.0895 38.7138C23.946 37.6876 23.743 36.4262 23.743 35.0194C23.0731 34.5708 23.3681 34.7032 21.8458 34.7032V28.3791C21.8458 28.0071 21.6006 27.8127 21.4505 27.5885C21.0757 27.5885 20.4229 27.5951 20.4229 28.1419V34.7031H3.42691V21.5806H8.88148C9.07432 21.5806 9.18454 21.5388 9.29155 21.4374C9.70224 21.0477 9.55879 20.2368 8.88148 20.2368H2.55738C2.29577 20.2368 2.00405 20.5843 2.00405 20.9482L2.00387 20.9483Z" fill="#617792"/>
<path fill-rule="evenodd" clip-rule="evenodd" d="M13.2291 29.4861C13.5909 29.4018 13.968 29.1273 14.3359 28.9327L15.3647 30.7497C15.4862 30.9592 15.6797 31.1328 15.6797 31.4623C15.6797 32.0579 14.9285 32.4547 14.4666 31.6478L13.2291 29.4861V29.4861ZM6.03549 28.7746C6.03549 28.2189 6.53934 28.0986 6.90501 27.9051L7.45835 28.8537C7.45835 29.3073 6.0354 29.6316 6.0354 28.7746H6.03549ZM6.19358 25.9288L6.28719 26.7173C4.80002 27.0582 4.08877 29.1389 5.26323 30.1793C6.36713 31.1572 7.26131 30.6828 8.32796 30.1185L8.49901 30.2637C8.57109 30.3235 8.58699 30.346 8.67461 30.4043C8.81002 30.4941 8.93677 30.5444 9.09075 30.6206C10.5685 31.351 11.3019 30.345 12.1224 30.2767C12.17 30.4812 12.201 30.5419 12.3116 30.7199C12.7104 31.3615 13.0492 32.091 13.4964 32.6972C13.6644 32.9249 13.9644 33.1811 14.2298 33.3076C15.5436 33.9335 17.1025 32.8835 17.1025 31.4624C17.1025 30.7674 16.3009 29.4752 15.8851 28.8063C15.7552 28.5975 15.7446 28.6587 15.6796 28.3795L16.7863 27.9842C17.1541 27.8319 17.5301 27.6964 17.9429 27.5598C18.3273 27.4325 18.6574 27.2973 19.0321 27.1471C19.4434 26.9823 19.777 26.8651 20.1747 26.7087L21.8344 26.0759C22.5557 25.8209 25.4755 24.8463 25.7391 24.526C26.049 24.1494 25.8841 23.8196 25.6562 23.4623C24.6536 21.8901 23.8121 20.1182 22.842 18.5295C22.5146 17.9934 22.0872 17.3645 21.4782 17.8935C20.915 18.3829 21.7035 19.3441 21.9505 19.8162L24.2172 23.7155C23.8528 23.8904 23.4911 24 23.0859 24.1652L20.7681 25.0095C19.5505 25.4126 18.4377 25.8994 17.2293 26.3718C17.0042 26.4598 16.8551 26.4995 16.638 26.5711L13.6918 27.6565C12.2193 28.2282 10.0192 30.5612 8.98554 28.7493L7.80437 26.6894L7.61627 25.9288C7.61627 24.8859 8.8604 24.4773 9.61979 24.0588C9.93277 23.8863 10.1275 23.6707 10.5411 23.6362C10.6386 24.0547 10.9963 24.4883 11.1988 24.8758L11.9158 26.1351C12.6294 27.3199 13.8404 26.5422 13.0868 25.3593C12.9585 25.1578 12.896 25.005 12.7705 24.8061L11.9119 23.2931C11.7795 23.053 11.6749 23.0142 11.6477 22.6877C11.9386 22.61 12.185 22.3169 12.4188 22.115C13.8281 20.8976 15.3355 19.7603 16.7658 18.5568L17.7921 17.6859C18.1544 17.4111 18.443 17.1644 18.7918 16.8673C18.8043 16.8566 18.8228 16.8424 18.8353 16.8318L19.2951 16.422C19.4767 16.2572 19.6458 16.107 19.869 16.0474C20.0335 16.7532 20.9193 17.176 21.2884 16.3541C21.4257 16.0484 21.2514 15.8073 21.1076 15.5203C20.9586 15.2228 20.8641 15.1018 20.7134 14.8078C20.2443 13.8928 19.6409 14.3957 19.1891 14.7351L14.4289 18.6705C14.3053 18.7678 14.3339 18.7188 14.1978 18.8346L9.30191 22.6344C9.08352 22.7487 9.01171 22.8208 8.80288 22.9259L7.79008 23.4941C7.57286 23.6295 7.51444 23.6562 7.31294 23.8076C6.97647 24.0602 6.80176 24.2863 6.57096 24.6466C6.37767 24.9484 6.14008 25.543 6.19314 25.9289L6.19358 25.9288Z" fill="#617792"/>
<path fill-rule="evenodd" clip-rule="evenodd" d="M27.6955 22.6877V30.83C27.6955 31.906 28.5168 32.7273 29.5927 32.7273H37.735C38.6714 32.7273 39.5532 31.8454 39.5532 30.9091C39.5532 29.5962 39.7753 28.7747 38.8418 28.7747C37.7699 28.7747 38.432 30.3411 38.1373 30.9952C38.0658 31.154 38.0691 31.1606 37.9244 31.2565C37.8017 31.3377 37.6699 31.3834 37.4979 31.3834H29.7508C29.3204 31.3834 29.0394 31.1023 29.0394 30.672V22.925C29.0394 22.5343 29.3601 22.2135 29.7508 22.2135H37.4979C38.4 22.2135 38.2093 23.3625 38.2093 24.2689C38.2093 25.1911 38.2093 26.1134 38.2093 27.0356C38.4265 27.7505 39.5532 27.6008 39.5532 26.9566V22.6878C39.5532 21.7869 38.636 20.8696 37.735 20.8696H29.5137C28.6127 20.8696 27.6955 21.7869 27.6955 22.6878V22.6877Z" fill="#617792"/>
<path fill-rule="evenodd" clip-rule="evenodd" d="M27.6955 2.2924C27.6955 3.25946 27.4648 4.50583 28.3279 4.50583C29.8169 4.50583 28.2618 1.81811 29.7508 1.81811H37.4979C37.9831 1.81811 38.2093 2.19433 38.2093 2.68764V10.2766C38.2093 10.707 37.9282 10.988 37.4979 10.988H29.8299C29.5433 10.988 29.3886 10.9217 29.1975 10.8299C28.9176 10.55 29.0378 7.48196 29.0413 6.63833C29.0465 5.33007 27.6955 5.66011 27.6955 6.40298C27.6955 7.34146 27.5844 10.5506 27.8267 11.173C28.0762 11.8139 28.7559 12.3318 29.4346 12.3318H37.8141C38.3677 12.3318 38.7856 12.0029 39.0747 11.6953C39.3616 11.39 39.5532 10.9664 39.5532 10.5136V2.29231C39.5532 1.39134 38.636 0.474121 37.735 0.474121H29.5137C28.6127 0.474121 27.6955 1.39134 27.6955 2.29231V2.2924Z" fill="#617792"/>
<path fill-rule="evenodd" clip-rule="evenodd" d="M1.45054 7.74713H7.93273V16.9171H1.45054V7.74713V7.74713ZM0.0275879 7.11475V17.5495C0.0275879 17.9135 0.319395 18.2609 0.580923 18.2609H8.64416C9.00332 18.2609 9.05646 18.0921 9.27654 17.9448V7.0357C9.27654 6.65333 9.02654 6.40332 8.64416 6.40332H0.739019C0.348335 6.40332 0.0275879 6.72407 0.0275879 7.11475V7.11475Z" fill="#617792"/>
<path fill-rule="evenodd" clip-rule="evenodd" d="M16.5493 10.3557C15.9224 10.3557 15.1264 10.1379 14.6613 9.95128C13.8785 9.63723 13.2932 8.97189 13.0513 8.71545C11.5726 7.14727 11.5831 4.26055 13.2722 2.57267C13.9007 1.94467 14.5578 1.53665 15.4246 1.32586C17.7177 0.768327 19.6636 1.88884 20.6604 3.87299C22.1302 6.79847 19.7852 10.3557 16.5492 10.3557H16.5493ZM15.2055 0H17.633C18.3242 0.0619878 18.9659 0.244825 19.6967 0.726168C20.0046 0.929013 20.1496 1.04611 20.4169 1.27084L20.7544 1.56568C22.2263 3.3017 22.8388 4.85568 22.3036 7.25624C22.2684 7.41424 22.2026 7.59619 22.1338 7.79787C21.9198 8.42507 21.2294 9.53058 20.7402 9.96164C20.6344 10.0548 20.6475 10.0468 20.5362 10.153C20.4844 10.2023 20.4282 10.2457 20.3667 10.2997C18.6253 11.8296 15.9111 12.1399 13.8879 11.1198C12.0397 10.1881 11.2784 8.88703 10.6874 6.96845C10.6276 6.77418 10.5413 5.977 10.5413 5.69171C10.5413 5.40178 10.6349 4.75002 10.7088 4.51537C10.9487 3.75321 11.0228 3.37244 11.458 2.65592C12.1995 1.43492 13.9357 8.93196e-05 15.2053 8.93196e-05L15.2055 0Z" fill="#617792"/>
<path fill-rule="evenodd" clip-rule="evenodd" d="M32.3596 26.7986C32.3596 26.4065 32.5036 26.1763 32.695 25.9482C33.3774 25.135 34.8892 25.6147 34.8892 26.7986C34.8892 28.513 32.3596 28.513 32.3596 26.7986ZM30.9366 26.7986C30.9366 27.1898 31.0446 27.616 31.2089 27.9493C32.5411 30.6541 36.3122 29.484 36.3122 26.7986C36.3122 25.5613 35.2586 24.1899 33.7825 24.1899C32.0621 24.1899 30.9367 25.3247 30.9367 26.7986H30.9366Z" fill="#617792"/>
<path fill-rule="evenodd" clip-rule="evenodd" d="M15.9169 6.5612V4.98016C16.4462 5.10351 16.9623 5.54841 17.577 5.69159V5.84968C17.0656 5.8922 16.4506 6.43678 15.9169 6.56111V6.5612ZM14.4939 3.71539V7.82606C14.4939 8.09839 14.9216 8.45844 15.2054 8.45844C15.2365 8.45844 18.9346 6.73868 19.501 6.35103C19.9086 6.07209 19.9999 5.55171 19.5719 5.19854L15.2843 3.08301C14.7578 3.08301 14.4938 3.5422 14.4938 3.71539H14.4939Z" fill="#617792"/>
<path fill-rule="evenodd" clip-rule="evenodd" d="M32.2805 5.05927V5.7707C31.8008 5.7707 30.9366 5.66066 30.9366 6.40308C30.9366 7.22491 31.8271 7.11451 32.2805 7.11451C32.2805 8.76782 32.0146 9.72318 32.992 9.72318C33.8839 9.72318 33.6244 8.50906 33.6244 7.11451H34.4148C35.0295 7.11451 35.3018 5.7707 34.3358 5.7707H33.6244C33.6244 5.38564 33.5733 5.06311 33.7524 4.79202C34.1391 4.20635 35.2761 4.65259 35.7587 4.50593C36.569 4.25968 36.3403 3.08298 35.6797 3.08298C34.3311 3.08298 33.4981 2.87835 32.6519 3.92875C32.3934 4.24976 32.2805 4.579 32.2805 5.05936V5.05927Z" fill="#617792"/>
<path fill-rule="evenodd" clip-rule="evenodd" d="M26.2726 18.8143C26.2726 20.1803 28.1046 19.3891 29.2055 19.2176C30.5982 19.0007 31.0157 18.9955 31.0157 18.1029C31.0157 17.7547 30.6244 17.5037 30.0485 17.6085L26.6378 18.3099C26.4718 18.3851 26.2725 18.6176 26.2725 18.8143H26.2726Z" fill="#617792"/>
<path fill-rule="evenodd" clip-rule="evenodd" d="M24.3754 16.2845C24.3754 16.637 24.6955 16.9959 25.0078 16.9959C25.4349 16.9959 25.72 16.6798 25.9778 16.4639L27.7089 15.191C27.9559 15.005 28.8614 14.3654 28.189 13.8146C27.5527 13.2934 27.1999 13.8762 26.3528 14.4674L24.6307 15.7493C24.4754 15.8824 24.3753 16.0187 24.3753 16.2844L24.3754 16.2845Z" fill="#617792"/>
<path fill-rule="evenodd" clip-rule="evenodd" d="M22.3991 13.6759C22.3991 14.2901 22.8841 14.3082 23.2687 14.3082C23.6056 14.3082 24.9092 12.4337 25.2124 11.9832C25.4566 11.6204 25.7193 11.4656 25.7193 10.9881C25.7193 10.3167 24.9099 10.1361 24.4859 10.6242C24.3814 10.7445 24.2854 10.8992 24.185 11.0347C24.0566 11.2077 24.0052 11.2663 23.8857 11.4468L22.6349 13.121C22.5152 13.2879 22.3992 13.3946 22.3992 13.6758L22.3991 13.6759Z" fill="#617792"/>
<path fill-rule="evenodd" clip-rule="evenodd" d="M2.7153 12.3321C2.7153 12.7559 2.90135 13.0435 3.34768 13.0435C4.06581 13.0435 6.15964 13.1715 6.44546 12.9003C6.98228 12.3909 6.43823 11.829 6.35159 11.6997C5.24483 11.6997 4.13816 11.6997 3.0314 11.6997C2.88402 11.9198 2.71521 11.9729 2.71521 12.3321H2.7153Z" fill="#617792"/>
<path fill-rule="evenodd" clip-rule="evenodd" d="M2.71527 14.9405C2.71527 15.3643 2.90132 15.652 3.34765 15.652H6.03537C6.88962 15.652 6.88962 14.3081 6.03537 14.3081H3.34765C2.96528 14.3081 2.71527 14.5581 2.71527 14.9405Z" fill="#617792"/>
<path fill-rule="evenodd" clip-rule="evenodd" d="M3.98016 9.72341C3.98016 10.613 5.18133 10.4348 5.8774 10.4348C6.9663 10.4348 6.81213 9.01189 6.11454 9.01189C5.18258 9.01189 3.98016 8.7943 3.98016 9.72332V9.72341Z" fill="#617792"/>
</g>
<defs>
<clipPath id="clip0_1599_3569">
<rect width="39.5764" height="40" fill="white"/>
</clipPath>
</defs>
</svg>
