<svg width="41" height="40" viewBox="0 0 41 40" fill="none" xmlns="http://www.w3.org/2000/svg">
<g clip-path="url(#clip0_1599_3812)">
<path fill-rule="evenodd" clip-rule="evenodd" d="M22.7144 29.3519H26.1489L26.1485 38.4063H22.714L22.7144 29.3519ZM14.0023 22.7521H17.4065L17.4071 38.4063H13.9721L14.0023 22.7521V22.7521ZM5.23171 31.3811H8.66623L8.66583 38.4063H5.23131L5.23171 31.3811V31.3811ZM3.67117 32.8258C2.29244 32.8258 1.64057 32.7747 1.64035 31.3037L1.64108 7.18636L38.4803 7.18639V31.4596C38.4803 32.9127 37.4485 32.8258 36.4503 32.8258V21.0793C36.4503 20.3327 36.2066 20.0259 35.4361 20.0259H30.9093C30.1387 20.0259 29.8951 20.3327 29.8951 21.0793V24.5134C29.8951 25.8936 31.3172 25.7395 31.4419 24.8175C31.5482 24.0309 31.4552 22.4558 31.4557 21.5863H34.8902L34.8922 38.4063H31.4553V30.2109C31.4553 28.8811 29.8952 28.8811 29.8952 30.2109L29.8948 38.4063H27.709V28.806C27.709 28.0555 27.4498 27.7918 26.6949 27.7918H22.1681C21.4176 27.7918 21.1539 28.051 21.1539 28.806L21.173 38.4063H18.9677V22.172C18.9677 21.4708 18.6342 21.1917 17.9536 21.1917H13.4268C12.7461 21.1917 12.4126 21.4708 12.4126 22.172L12.4122 38.4063H10.2265V30.8352C10.2265 30.0847 9.96722 29.821 9.21227 29.821H4.68553C3.36064 29.821 3.67131 30.8222 3.67131 32.8258H3.67117ZM1.64112 5.62846C1.64112 4.18759 1.36268 2.26521 3.31411 1.6764C4.12936 1.43039 18.5287 1.56696 20.0607 1.56696C21.5928 1.56696 35.9921 1.43042 36.8074 1.6764C38.7583 2.26507 38.4804 4.18638 38.4804 5.62625L1.64112 5.62846V5.62846ZM36.4894 34.3861C39.3793 34.3861 40.0406 33.2796 40.0405 30.6791V8.98189C40.0405 7.22661 40.3206 3.4532 39.6116 2.15067C38.3685 -0.132728 36.5555 0.00681936 34.4995 0.00681936H5.54386C4.37706 0.00681936 3.22946 -0.0853188 2.27566 0.407762C-0.649335 1.91983 0.0809766 5.24551 0.0809766 8.98189V30.7571C0.0808664 32.0156 0.187584 32.8718 0.851683 33.577C1.44766 34.2098 2.44958 34.386 3.66698 34.386L3.67113 38.4062C3.10714 38.4062 0.912056 38.3395 0.550591 38.4812C0.0357338 38.6831 -0.423121 39.9671 1.25079 39.9673C3.33218 39.9676 5.41364 39.9663 7.49506 39.9663C17.9131 39.9663 28.5593 40.0409 38.9493 39.9678C39.5122 39.9639 39.8503 39.8812 39.9877 39.4392C40.1381 38.9552 39.8775 38.5775 39.5181 38.463C39.1318 38.34 37.0111 38.4062 36.4483 38.4062L36.4894 34.386V34.3861Z" fill="#36D1C2"/>
<path fill-rule="evenodd" clip-rule="evenodd" d="M23.1365 22.9526C22.8445 21.2304 25.3509 21.0366 25.5842 22.4972C25.8523 24.1765 23.3867 24.4281 23.1365 22.9526ZM8.06214 22.4063C7.45192 23.9253 5.15283 23.1018 5.73596 21.502C6.27472 20.0239 8.67303 20.8856 8.06214 22.4063ZM32.8595 12.2324C34.3949 11.7842 35.091 14.1814 33.5088 14.6228C31.951 15.0574 31.2298 12.7081 32.8595 12.2324ZM14.9266 12.2415C16.5087 11.7992 17.1437 14.1282 15.624 14.6141C14.0709 15.1106 13.2761 12.7029 14.9266 12.2415ZM12.845 14.8932C12.6017 15.2355 12.0686 15.7059 11.7389 16.0355L8.27113 19.499C7.50524 19.2574 7.14726 19.0043 6.15677 19.2753C5.49399 19.4567 5.00194 19.8212 4.66882 20.2833C3.79566 21.4946 3.97817 23.057 4.91222 23.9743C5.74609 24.7932 7.50917 25.1199 8.5868 24.2006C10.2383 22.7918 9.6196 21.624 9.38594 20.6111L14.0428 15.9647C15.8679 16.5186 15.6441 16.0881 16.6267 15.922L21.9402 21.2313C21.6997 22.0354 21.1862 22.7655 21.937 24.1203C23.2341 26.461 26.97 25.7265 27.1528 22.8775C27.2035 22.0861 26.9849 21.9135 26.8368 21.2912L32.0734 16.08C32.9663 16.1372 33.2053 16.4105 34.2087 16.0276C36.3092 15.2262 36.4557 12.3511 34.9471 11.266C32.9048 9.79699 30.6899 11.0692 30.4018 13.0254C30.2532 14.0341 30.5681 14.3418 30.8693 15.0698C30.6746 15.4295 28.7864 17.2211 28.3478 17.6593L25.7906 20.2418C24.7143 19.98 24.6625 19.6637 23.1314 20.1868C22.8644 19.9432 17.9149 15.0529 17.7344 14.7576C18.1662 13.6315 18.2152 12.9092 17.5726 11.8624C16.5332 10.1691 13.834 10.2496 12.8422 11.9858C12.227 13.0627 12.3987 13.8633 12.845 14.8933L12.845 14.8932Z" fill="#36D1C2"/>
<path fill-rule="evenodd" clip-rule="evenodd" d="M17.1927 2.87326C16.3567 3.16576 16.538 4.15753 17.2093 4.33461C17.5967 4.43681 24.2604 4.37644 24.9777 4.37644C26.3856 4.37644 34.64 4.53101 35.3035 4.31963C35.999 4.09808 35.9969 3.04611 35.2456 2.85622C34.8516 2.75662 28.1991 2.8163 27.4752 2.8163C26.1733 2.8163 17.7027 2.69475 17.1926 2.87322L17.1927 2.87326Z" fill="#36D1C2"/>
<path fill-rule="evenodd" clip-rule="evenodd" d="M4.33127 9.86639C3.87341 9.95699 3.55572 10.3243 3.72361 10.8743C3.878 11.3799 4.29098 11.4056 4.9195 11.4039C5.71143 11.4019 7.67979 11.5033 8.33441 11.3798C8.77758 11.2962 9.09028 10.9089 8.92136 10.3652C8.76477 9.86129 8.35039 9.84087 7.7294 9.8423C6.96427 9.84403 4.93022 9.74789 4.33127 9.86639V9.86639Z" fill="#36D1C2"/>
<path fill-rule="evenodd" clip-rule="evenodd" d="M4.33127 13.613C3.87341 13.7035 3.55572 14.0709 3.72361 14.6209C3.878 15.1265 4.29098 15.1522 4.9195 15.1505C5.71143 15.1485 7.67979 15.2499 8.33441 15.1264C8.77758 15.0428 9.09028 14.6554 8.92136 14.1118C8.76477 13.6078 8.35039 13.5875 7.7294 13.5889C6.96427 13.5906 4.93022 13.4944 4.33127 13.613V13.613Z" fill="#36D1C2"/>
<path fill-rule="evenodd" clip-rule="evenodd" d="M4.86056 2.87332C4.48749 3.00053 4.18217 3.30688 4.35297 3.85104C4.46211 4.19881 4.82699 4.47731 5.32991 4.31948C6.24986 4.03076 5.82409 2.54476 4.86056 2.87332V2.87332Z" fill="#36D1C2"/>
<path fill-rule="evenodd" clip-rule="evenodd" d="M7.98246 2.87332C7.60939 3.00053 7.30407 3.30688 7.47487 3.85104C7.58401 4.19881 7.94889 4.47731 8.45182 4.31948C9.37176 4.03076 8.946 2.54476 7.98246 2.87332V2.87332Z" fill="#36D1C2"/>
<path fill-rule="evenodd" clip-rule="evenodd" d="M11.1043 2.87332C10.7313 3.00053 10.426 3.30688 10.5968 3.85104C10.7059 4.19881 11.0708 4.47731 11.5737 4.31948C12.4937 4.03076 12.0679 2.54476 11.1043 2.87332V2.87332Z" fill="#36D1C2"/>
<path fill-rule="evenodd" clip-rule="evenodd" d="M10.8817 9.90428C9.79757 10.3244 10.5068 11.7049 11.4027 11.3357C12.2856 10.9718 11.7856 9.55406 10.8817 9.90428Z" fill="#36D1C2"/>
<path fill-rule="evenodd" clip-rule="evenodd" d="M30.3779 26.8446C29.3925 27.293 30.1085 28.6487 31.0276 28.2195C31.826 27.8466 31.3534 26.4007 30.3779 26.8446Z" fill="#36D1C2"/>
</g>
<defs>
<clipPath id="clip0_1599_3812">
<rect width="40.0951" height="40" fill="white"/>
</clipPath>
</defs>
</svg>
