<svg width="38" height="40" viewBox="0 0 38 40" fill="none" xmlns="http://www.w3.org/2000/svg">
<g clip-path="url(#clip0_1599_3760)">
<path fill-rule="evenodd" clip-rule="evenodd" d="M25.3535 16.0257L25.6398 15.988L26.6881 15.9943L26.6879 29.9998L25.3534 29.9924L25.3535 16.0257V16.0257ZM20.0184 18.6635L21.3527 18.6618V29.9998L20.326 30.0009L20.0184 29.9945L20.0184 18.6635H20.0184ZM14.6897 21.3283L16.0174 21.3393L16.0177 29.9968L14.683 29.9998L14.6897 21.3283V21.3283ZM10.6441 30.003L9.39926 29.9936C9.30085 29.8721 9.34626 30.0309 9.31485 29.7682L9.33637 25.3402C9.70206 25.2324 10.3187 25.2489 10.6972 25.3265L10.7224 29.5331C10.7236 29.8197 10.7444 29.8368 10.6441 30.003V30.003ZM24.0204 29.9999L22.6859 29.9953L22.6864 19.0582C22.6887 17.62 22.1041 17.3283 20.7168 17.3288C19.6302 17.3293 18.6847 17.3336 18.6844 18.9798L18.6852 29.9999H17.3514C17.3511 29.1163 17.4094 21.6011 17.3316 21.1099C17.1504 19.9655 16.0924 19.9959 15.4025 19.9963C14.7979 19.9967 13.6632 19.9043 13.3975 20.9594C13.2804 21.4246 13.3501 29.1233 13.3501 29.979L12.0157 30.0026C12.0156 28.6711 12.015 27.3424 12.0157 26.0138C12.0165 24.3611 11.6662 23.9978 10.01 23.9977C8.41732 23.9976 8.01311 24.3413 8.01478 25.9356C8.01619 27.2903 8.01482 28.6451 8.01482 29.9999C7.385 29.9999 6.72749 29.9437 6.6913 30.6245C6.65352 31.335 7.27733 31.335 7.89992 31.3333L28.8447 31.3331C29.4002 31.3331 30.2566 31.4631 30.545 31.0743C30.9286 30.5573 30.5333 30.0296 29.9427 29.9996C29.3572 29.9698 28.5688 30.0743 28.0212 29.9634V17.1044C28.0212 15.2386 28.0123 14.6609 26.0312 14.6611C24.1479 14.6614 24.0204 15.1393 24.0204 16.9481V29.9999H24.0204Z" fill="#36D1C2"/>
<path fill-rule="evenodd" clip-rule="evenodd" d="M14.7676 3.34968C15.0378 3.02507 17.9521 1.45369 18.0195 1.43935L18.0123 5.25278L14.7676 3.34968V3.34968ZM19.3869 2.64631C19.209 1.63451 19.5986 0.68246 18.7887 0.199397C17.9309 -0.312224 17.2994 0.281364 16.6724 0.632791C16.017 1.00018 15.4074 1.35239 14.7936 1.72611C14.1581 2.11298 13.3826 2.38189 13.3557 3.27031C13.3189 4.48567 15.089 5.01433 16.6536 6.00616C17.1933 6.34832 18.0818 6.97166 18.8007 6.43492C19.5232 5.89563 19.3516 5.04696 19.3516 4.01168C33.4429 4.61923 40.6925 20.5659 32.7497 31.483L31.2664 33.2817C30.7214 33.8798 30.4853 33.9974 30.0171 34.454C29.3071 35.1465 27.489 36.3237 26.621 36.7605C25.1938 37.4789 23.5381 38.0913 21.7668 38.3968C16.8074 39.2522 11.454 37.9043 7.86481 34.8789C7.24593 34.3572 6.67482 33.9187 6.1439 33.3198C3.53228 30.3737 1.98868 27.4916 1.46643 23.3605C1.40509 22.8754 1.36931 22.3699 1.35842 21.8745C1.34227 21.1389 1.40898 21.1144 0.974843 20.6848L0.378922 20.7107C-0.0935485 21.1934 -0.00417332 21.2817 0.0291248 22.1082C0.0933135 23.7008 0.340253 25.0671 0.767535 26.582C1.80596 30.2639 4.18139 33.6989 7.19218 36.0232C11.3167 39.2073 16.518 40.7123 22.0395 39.6746C23.9485 39.3157 25.7163 38.6824 27.2474 37.86C29.3696 36.7203 29.7883 36.2949 31.3031 34.9603C33.2852 33.2139 35.6938 29.8643 36.6009 26.1924C38.5418 18.3356 35.7817 10.9221 29.692 6.33232C28.4556 5.40053 26.8572 4.49233 25.1416 3.84952C21.8444 2.61408 20.2726 2.89532 19.387 2.64631H19.3869Z" fill="#36D1C2"/>
<path fill-rule="evenodd" clip-rule="evenodd" d="M23.3844 9.62317C23.8271 10.0382 24.1818 10.0853 24.8749 10.2205L10.1333 19.0254C9.50292 19.3965 8.51638 19.9046 8.06236 20.3563C7.97694 20.9404 8.20807 21.4194 8.82069 21.3089C9.27461 21.227 24.6819 11.7722 25.6359 11.3962C25.5775 11.7701 25.314 12.47 25.3766 12.8106C25.4658 13.2972 26.1849 13.4962 26.5154 13.1333C26.7517 12.8739 27.1303 10.9761 27.2656 10.4417C27.5774 9.21118 26.5456 9.26367 25.5243 9.01262C24.6596 8.80009 23.1654 8.15098 23.3843 9.62313L23.3844 9.62317Z" fill="#36D1C2"/>
<path fill-rule="evenodd" clip-rule="evenodd" d="M3.41313 10.7012C3.18842 10.9218 2.78906 11.4248 2.67828 11.736C2.32811 12.7195 3.74537 13.2057 4.32226 11.5719C4.55756 10.9056 4.0002 10.6268 3.41313 10.7012V10.7012Z" fill="#36D1C2"/>
<path fill-rule="evenodd" clip-rule="evenodd" d="M6.21073 8.04222C5.05323 7.86358 4.12932 9.59108 5.13694 9.86399C5.71111 10.0195 6.03532 9.47104 6.26907 9.22025C6.74628 8.70833 6.59794 8.48443 6.21073 8.04222V8.04222Z" fill="#36D1C2"/>
<path fill-rule="evenodd" clip-rule="evenodd" d="M1.76688 14.052C0.911017 14.4133 0.720229 16.2831 1.90863 15.9589C2.28235 15.857 2.50833 15.2925 2.58881 14.8302C2.67819 14.3167 2.26509 13.8417 1.76688 14.052V14.052Z" fill="#36D1C2"/>
<path fill-rule="evenodd" clip-rule="evenodd" d="M8.31607 5.84538L7.76641 6.18525C6.82036 6.91633 7.65588 7.71015 8.30129 7.42406C9.86252 6.73198 9.14759 5.47614 8.31607 5.84538V5.84538Z" fill="#36D1C2"/>
<path fill-rule="evenodd" clip-rule="evenodd" d="M0.776155 17.3846C0.33902 17.5266 0.27072 17.9493 0.22831 18.5107C0.186271 19.0673 0.581737 19.5078 1.14855 19.2662C1.77802 18.9978 1.94907 17.0037 0.776155 17.3846V17.3846Z" fill="#36D1C2"/>
<path fill-rule="evenodd" clip-rule="evenodd" d="M11.1334 4.27871C10.7382 4.42024 10.1804 4.57814 10.1376 5.06794C10.0877 5.6383 10.559 5.93673 11.1317 5.72109C12.7355 5.11731 11.8354 4.02729 11.1334 4.27871H11.1334Z" fill="#36D1C2"/>
<path fill-rule="evenodd" clip-rule="evenodd" d="M9.39929 29.9935V25.3561H10.6425L10.6441 30.0029C10.7445 29.8367 10.7236 29.8195 10.7224 29.5329L10.6972 25.3264C10.3187 25.2487 9.70209 25.2323 9.3364 25.3401L9.31488 29.7681C9.34629 30.0308 9.30088 29.872 9.39929 29.9935V29.9935Z" fill="#36D1C2"/>
</g>
<defs>
<clipPath id="clip0_1599_3760">
<rect width="37.2146" height="40" fill="white"/>
</clipPath>
</defs>
</svg>
