<svg width="70" height="70" viewBox="0 0 70 70" fill="none" xmlns="http://www.w3.org/2000/svg">
<path d="M67.6705 1.44371L46.7908 5.31558C46.3861 5.39215 46.0689 5.67652 45.9486 6.07027C45.8283 6.45308 45.9377 6.87965 46.2221 7.16402L50.0939 11.0359L6.77051 54.3375L8.3127 55.8796L52.4018 11.8015C52.8283 11.375 52.8283 10.6859 52.4018 10.2593L49.2299 7.08746L66.5002 3.89371L63.3064 21.164L60.1346 17.9921C59.708 17.5656 59.0189 17.5656 58.5924 17.9921L14.5033 62.0703L16.0455 63.6125L59.358 20.3L63.2299 24.1718C63.5143 24.4562 63.9408 24.5656 64.3236 24.4453C64.7064 24.325 65.0018 23.9968 65.0783 23.6031L68.9502 2.7234C69.0158 2.3734 68.9064 2.00152 68.6439 1.74996C68.3924 1.4984 68.0314 1.37808 67.6705 1.44371Z" fill="#617792"/>
<path d="M27.6502 14.8969C27.2346 14.4813 26.5127 14.4813 26.108 14.8969L7.54707 33.4578L9.08926 35L26.8846 17.2157L30.7564 21.0875C31.0408 21.3828 31.4783 21.4813 31.8611 21.361C32.2549 21.2407 32.5393 20.9016 32.6049 20.4969L35.6893 1.92503C35.7439 1.57503 35.6346 1.22503 35.383 0.973467C35.1314 0.721905 34.7814 0.61253 34.4314 0.667217L15.8705 3.76253C15.4658 3.82815 15.1377 4.11253 15.0064 4.50628C14.8752 4.90003 14.9846 5.32659 15.2799 5.61097L19.1518 9.48284L1.35645 27.2672L2.89863 28.8094L21.4705 10.2485C21.8971 9.82191 21.8971 9.13284 21.4705 8.70628L18.3314 5.56722L33.283 3.07347L30.7893 18.025L27.6502 14.886V14.8969Z" fill="#617792"/>
<path d="M36.9357 62.8468L49.3061 50.4765C49.5139 50.2687 49.6232 49.9953 49.6232 49.7C49.6232 49.4046 49.5029 49.1312 49.3061 48.9234L46.167 45.7843L61.1186 43.2906L58.6248 58.2421L55.4857 55.1031C55.0592 54.6765 54.3701 54.6765 53.9436 55.1031L41.5732 67.4734L43.1154 69.0156L54.7201 57.4109L58.592 61.2828C58.8764 61.5781 59.3139 61.6765 59.6967 61.5562C60.0904 61.4359 60.3748 61.0968 60.4404 60.6921L63.5357 42.1312C63.5904 41.7812 63.4811 41.4312 63.2295 41.1796C62.9779 40.9281 62.6279 40.8187 62.2779 40.8734L43.717 43.9687C43.3123 44.0343 42.9842 44.3187 42.8529 44.7125C42.7217 45.1062 42.8311 45.5328 43.1264 45.8171L46.9982 49.689L35.3936 61.2937L36.9357 62.8359V62.8468Z" fill="#617792"/>
</svg>
