<svg width="70" height="70" viewBox="0 0 70 70" fill="none" xmlns="http://www.w3.org/2000/svg">
<g clip-path="url(#clip0_1599_3014)">
<path d="M41.9998 13.9928H27.9998C26.7111 13.9928 25.6664 15.0375 25.6664 16.3262V31.4928H19.868C18.9106 31.4947 18.0483 32.0721 17.6818 32.9565C17.3152 33.8409 17.5163 34.8591 18.1916 35.5376L33.3 50.6342C34.2228 51.5564 35.7184 51.5564 36.6412 50.6342L51.7496 35.5259C52.4238 34.8486 52.6241 33.8322 52.2573 32.9498C51.8904 32.0674 51.0287 31.4925 50.073 31.4927H44.333V16.3262C44.3332 15.0375 43.2885 13.9928 41.9998 13.9928ZM50.0732 33.8262L50.1 33.8764L34.9496 48.9846L19.8682 33.826H26.8332C27.4775 33.826 27.9998 33.3036 27.9998 32.6594V16.3262H41.9998V32.6594C41.9998 33.3038 42.5222 33.826 43.1664 33.826H50.0732V33.8262Z" fill="#617792"/>
<path d="M13.0666 0.559788C12.2966 -0.183141 11.0744 -0.175895 10.3133 0.576195L0.558707 10.6889C0.00964453 11.246 -0.15141 12.0781 0.150055 12.7998C0.45152 13.5215 1.15671 13.9919 1.93888 13.9928H4.66656V27.2439C4.66779 28.3014 5.52474 29.1582 6.58226 29.1596H16.751C17.8085 29.1583 18.6653 28.3014 18.6667 27.2439V13.9928H21.3944C22.1726 13.9931 22.8753 13.5277 23.1787 12.811C23.4821 12.0943 23.327 11.2658 22.7851 10.7075L13.0666 0.559788ZM17.4999 11.6594C16.8556 11.6594 16.3333 12.1818 16.3333 12.8261V26.8261H6.99994V12.8261C6.99994 12.1817 6.47754 11.6594 5.83332 11.6594H2.86529L11.6946 2.50229L20.4656 11.6594H17.4999Z" fill="#617792"/>
<path d="M53.2491 29.1594H63.4178C64.4754 29.1582 65.3322 28.3013 65.3336 27.2437V13.9927H68.0612C68.8394 13.9929 69.5422 13.5276 69.8455 12.8109C70.1489 12.0943 69.9939 11.2657 69.4519 10.7073L59.7336 0.559786C58.9636 -0.183281 57.7413 -0.176035 56.9802 0.576055L47.2257 10.6887C46.6766 11.2459 46.5156 12.0779 46.817 12.7997C47.1185 13.5214 47.8237 13.9917 48.6059 13.9927H51.3336V27.2437C51.3348 28.3013 52.1917 29.1582 53.2491 29.1594ZM49.5321 11.6594L58.3614 2.50229L67.1325 11.6594H64.1668C63.5224 11.6594 63.0002 12.1818 63.0002 12.8261V26.8261H53.6668V12.8261C53.6668 12.1817 53.1445 11.6594 52.5002 11.6594H49.5321Z" fill="#617792"/>
<path d="M68.8334 67.6594H65.3334V43.1594C65.3334 41.8707 64.2887 40.826 63 40.826H58.3334C57.0447 40.826 56 41.8707 56 43.1594V67.6594H52.5V50.1594C52.5 48.8707 51.4553 47.826 50.1666 47.826H45.5C44.2113 47.826 43.1666 48.8707 43.1666 50.1594V67.6594H39.6666V57.1594C39.6666 55.8707 38.622 54.826 37.3332 54.826H32.6666C31.3779 54.826 30.3332 55.8707 30.3332 57.1594V67.6594H26.8332V50.1594C26.8332 48.8707 25.7886 47.826 24.4999 47.826H19.8332C18.5445 47.826 17.4999 48.8707 17.4999 50.1594V67.6594H13.9999V43.1594C13.9999 41.8707 12.9552 40.826 11.6665 40.826H7C5.71129 40.826 4.66662 41.8707 4.66662 43.1594V67.6594H1.16662C0.522266 67.6594 0 68.1818 0 68.826C0 69.4704 0.522402 69.9927 1.16662 69.9927H68.8332C69.4776 69.9927 69.9999 69.4703 69.9999 68.826C70 68.1818 69.4777 67.6594 68.8334 67.6594ZM7 67.6594V43.1594H11.6666V67.6594H7ZM19.8334 67.6594V50.1594H24.5V67.6594H19.8334ZM32.6666 67.6594V57.1594H37.3332V67.6594H32.6666ZM45.5 67.6594V50.1594H50.1666V67.6594H45.5ZM58.3334 67.6594V43.1594H63V67.6594H58.3334Z" fill="#617792"/>
</g>
<defs>
<clipPath id="clip0_1599_3014">
<rect width="70" height="70" fill="white"/>
</clipPath>
</defs>
</svg>
