<svg width="70" height="70" viewBox="0 0 70 70" fill="none" xmlns="http://www.w3.org/2000/svg">
<g clip-path="url(#clip0_1599_3097)">
<mask id="mask0_1599_3097" style="mask-type:luminance" maskUnits="userSpaceOnUse" x="0" y="0" width="70" height="70">
<path d="M0 7.62939e-06H70V70H0V7.62939e-06Z" fill="white"/>
</mask>
<g mask="url(#mask0_1599_3097)">
<path d="M60.7821 13.2178C59.0735 14.9264 56.3035 14.9264 54.5949 13.2178C52.8863 11.5093 52.8863 8.73922 54.5949 7.03064C56.3035 5.32207 59.0735 5.32207 60.7821 7.03064C62.4907 8.73922 62.4907 11.5093 60.7821 13.2178Z" stroke="#617792" stroke-width="2" stroke-miterlimit="10" stroke-linecap="round" stroke-linejoin="round"/>
<path d="M15.4056 62.9693C13.6971 64.6779 10.927 64.6779 9.21844 62.9693C7.50987 61.2608 7.50987 58.4907 9.21844 56.7821C10.927 55.0736 13.6971 55.0736 15.4056 56.7821C17.1142 58.4907 17.1142 61.2608 15.4056 62.9693Z" stroke="#617792" stroke-width="2" stroke-miterlimit="10" stroke-linecap="round" stroke-linejoin="round"/>
<path d="M28.3677 67.9789C30.512 68.4078 32.7298 68.6328 35.0003 68.6328C53.5752 68.6328 68.6331 53.5749 68.6331 35C68.6331 26.8913 65.7631 19.4533 60.9841 13.6451" stroke="#617792" stroke-width="2" stroke-miterlimit="10" stroke-linecap="round" stroke-linejoin="round"/>
<path d="M41.6965 2.03396C39.5324 1.59674 37.293 1.36718 35 1.36718C16.4251 1.36718 1.36719 16.4251 1.36719 35C1.36719 43.1086 4.23719 50.5467 9.01619 56.3549" stroke="#617792" stroke-width="2" stroke-miterlimit="10" stroke-linecap="round" stroke-linejoin="round"/>
<path d="M34.9999 44.9298C29.5158 44.9298 25.07 40.4841 25.07 34.9999C25.07 29.5159 29.5158 25.0702 34.9999 25.0702C40.4839 25.0702 44.9298 29.5159 44.9298 34.9999C44.9298 40.4841 40.4839 44.9298 34.9999 44.9298ZM54.8015 30.7134C54.2806 28.2891 53.3268 26.0257 52.0234 24.009L54.643 21.3893L48.596 15.3468L45.9785 17.9642C43.9618 16.6609 41.6986 15.707 39.2743 15.1862V11.4843H30.7255V15.1862C28.3012 15.707 26.038 16.6609 24.0212 17.9642L21.4037 15.3468L15.3568 21.3893L17.9763 24.009C16.673 26.0257 15.7191 28.2891 15.1982 30.7134H11.4866L11.4819 39.262H15.1981C15.719 41.6863 16.6729 43.9497 17.9762 45.9666L15.3467 48.5961L21.3893 54.6431L24.021 52.0113C26.0378 53.3148 28.3012 54.2687 30.7255 54.7896V58.5156H39.2743V54.7896C41.6986 54.2687 43.9619 53.3148 45.9788 52.0113L48.6105 54.6431L54.6531 48.5961L52.0236 45.9666C53.3269 43.9497 54.2808 41.6863 54.8017 39.262H58.5178V30.7134H54.8015Z" stroke="#617792" stroke-width="2" stroke-miterlimit="10" stroke-linecap="round" stroke-linejoin="round"/>
</g>
</g>
<defs>
<clipPath id="clip0_1599_3097">
<rect width="70" height="70" fill="white"/>
</clipPath>
</defs>
</svg>
