<svg width="70" height="70" viewBox="0 0 70 70" fill="none" xmlns="http://www.w3.org/2000/svg">
<g clip-path="url(#clip0_1599_2889)">
<path d="M68.9726 64.593H64.2507V45.3666C64.2507 44.7992 63.7907 44.3392 63.2233 44.3392C62.6559 44.3392 62.1959 44.7992 62.1959 45.3666V64.593H54.1942V30.7752C54.1942 30.5864 54.3478 30.4327 54.5367 30.4327H61.8534C62.0422 30.4327 62.1959 30.5864 62.1959 30.7752V41.257C62.1959 41.8244 62.6559 42.2844 63.2233 42.2844C63.7907 42.2844 64.2507 41.8244 64.2507 41.257V30.7752C64.2507 29.4534 63.1753 28.3779 61.8534 28.3779H54.5367C53.2149 28.3779 52.1395 29.4534 52.1395 30.7752V64.5931H48.7873V38.2522C48.7873 36.9304 47.7118 35.8549 46.39 35.8549H39.0733C37.7514 35.8549 36.676 36.9304 36.676 38.2522V64.5931H33.3238V45.7292C33.3238 44.4074 32.2485 43.3319 30.9266 43.3319H23.6099C22.2881 43.3319 21.2126 44.4074 21.2126 45.7292V54.713C21.2126 55.2804 21.6726 55.7404 22.24 55.7404C22.8074 55.7404 23.2674 55.2804 23.2674 54.713V45.7292C23.2674 45.5403 23.4211 45.3867 23.6099 45.3867H30.9266C31.1155 45.3867 31.269 45.5403 31.269 45.7292V64.593H23.2674V58.8226C23.2674 58.2552 22.8074 57.7952 22.24 57.7952C21.6726 57.7952 21.2126 58.2552 21.2126 58.8226V64.593H17.8604V53.2061C17.8604 51.8844 16.7851 50.8089 15.4632 50.8089H8.14658C6.82479 50.8089 5.74932 51.8844 5.74932 53.2061V64.593H1.0274C0.46 64.593 0 65.053 0 65.6204C0 66.1878 0.46 66.6478 1.0274 66.6478H68.9726C69.54 66.6478 70 66.1878 70 65.6204C70 65.053 69.54 64.593 68.9726 64.593ZM38.7308 38.2522C38.7308 38.0634 38.8845 37.9097 39.0733 37.9097H46.39C46.5788 37.9097 46.7325 38.0634 46.7325 38.2522V64.5931H38.7308V38.2522ZM7.80411 53.2061C7.80411 53.0174 7.95781 52.8637 8.14658 52.8637H15.4633C15.6522 52.8637 15.8058 53.0174 15.8058 53.2061V64.593H7.80411V53.2061Z" fill="#617792"/>
<path d="M10.9711 38.5435C11.0274 38.5435 11.0842 38.5415 11.1412 38.5376C18.7182 38.0113 25.8433 36.3578 32.3187 33.6228C41.0382 29.9401 48.2567 24.3889 53.7885 17.1147L57.2512 19.5224C57.9334 20.0311 58.9729 19.4197 58.86 18.5763L57.4248 4.27927C57.3781 3.66872 56.7324 3.21954 56.1435 3.38763L42.2287 7.01173C41.3981 7.19913 41.1865 8.3868 41.9011 8.84954L45.3955 11.2791C44.7002 12.3715 43.1685 14.5374 40.4976 17.1867C40.0948 17.5864 40.0922 18.2368 40.4918 18.6395C40.8913 19.0424 41.5419 19.045 41.9446 18.6454C46.062 14.5612 47.6166 11.5749 47.6807 11.4498C47.9153 10.992 47.7753 10.4312 47.353 10.1375L44.9078 8.43735L55.5003 5.67858L56.5929 16.5617L54.1456 14.8602C53.6872 14.5416 53.0589 14.6471 52.7296 15.0975C47.3463 22.4632 40.21 28.0593 31.5193 31.7298C23.7142 35.0263 16.0522 36.1365 10.999 36.4876C10.7038 36.5632 10.6144 36.0212 10.9083 35.9897C22.1652 32.5158 31.5661 27.6323 38.8501 21.4747C39.2835 21.1084 39.3378 20.4602 38.9715 20.0269C38.6053 19.5937 37.9568 19.5391 37.5237 19.9056C30.4522 25.8835 21.2937 30.6343 10.3026 34.0263C9.16121 34.3784 8.49148 35.4854 8.71011 36.6583C8.91792 37.7737 9.8545 38.5435 10.9711 38.5435Z" fill="#617792"/>
</g>
<defs>
<clipPath id="clip0_1599_2889">
<rect width="70" height="70" fill="white"/>
</clipPath>
</defs>
</svg>
