<svg width="70" height="70" viewBox="0 0 70 70" fill="none" xmlns="http://www.w3.org/2000/svg">
<g clip-path="url(#clip0_1599_3022)">
<path d="M29.1821 4.68035C15.6562 4.68035 4.69141 15.6452 4.69141 29.1711C4.69141 42.6969 15.6562 53.6618 29.1821 53.6618C42.708 53.6618 53.6728 42.6969 53.6728 29.1711C53.6581 15.6513 42.7019 4.69507 29.1821 4.68035ZM29.1821 7.0128C36.3859 7.01848 43.1364 10.5294 47.2773 16.4242L44.3617 19.3398C43.6522 18.9105 42.8399 18.6807 42.0106 18.675C39.4343 18.675 37.3457 20.7636 37.3457 23.3399C37.3498 24.1701 37.5782 24.9837 38.0069 25.6945L30.3705 33.331C28.9245 32.4493 27.1073 32.4493 25.6613 33.331L20.3573 28.027C20.786 27.3162 21.0145 26.5026 21.0186 25.6724C21.0218 23.1012 18.94 21.0142 16.3688 21.011C14.2423 21.0084 12.3844 22.4468 11.8544 24.5062H7.52766C9.73576 14.3094 18.7491 7.02811 29.1821 7.0128ZM44.343 23.3399C44.343 24.6282 43.2988 25.6724 42.0106 25.6724C40.7223 25.6724 39.6781 24.6282 39.6781 23.3399C39.6781 22.0517 40.7223 21.0075 42.0106 21.0075C43.2988 21.0075 44.343 22.0517 44.343 23.3399ZM30.3483 37.3346C30.3483 38.6229 29.3041 39.6671 28.0159 39.6671C26.7277 39.6671 25.6834 38.6229 25.6834 37.3346C25.6834 36.0464 26.7277 35.0022 28.0159 35.0022C29.3041 35.0022 30.3483 36.0464 30.3483 37.3346ZM18.6861 25.6724C18.6861 26.9606 17.6419 28.0048 16.3537 28.0048C15.0654 28.0048 14.0212 26.9606 14.0212 25.6724C14.0212 24.3842 15.0654 23.3399 16.3537 23.3399C17.6419 23.3399 18.6861 24.3842 18.6861 25.6724ZM39.9484 48.5458C36.655 50.3745 32.9493 51.3325 29.1821 51.3292C16.9528 51.3375 7.03216 41.4306 7.02386 29.2012C7.02327 28.412 7.06496 27.6232 7.14864 26.8385H11.8544C12.3846 28.8918 14.233 30.3291 16.3537 30.3371C17.1839 30.3331 17.9974 30.1046 18.7083 29.6759L24.0122 34.9799C23.5835 35.6907 23.3551 36.5043 23.351 37.3345C23.351 39.9108 25.4396 41.9994 28.0159 41.9994C30.5922 41.9994 32.6808 39.9108 32.6808 37.3345C32.6767 36.5043 32.4483 35.6907 32.0195 34.9799L39.656 27.3434C40.3668 27.7722 41.1804 28.0006 42.0106 28.0047C44.5869 28.0047 46.6755 25.9161 46.6755 23.3398C46.6714 22.5096 46.443 21.696 46.0142 20.9852L48.5566 18.444C54.492 29.1336 50.6379 42.6106 39.9484 48.5458Z" fill="#617792"/>
<path d="M58.3377 11.6777C60.4583 11.6697 62.3068 10.2325 62.837 8.17902H70V5.84657H62.837C62.3068 3.79314 60.4583 2.35592 58.3377 2.3479C55.7614 2.3479 53.6728 4.43646 53.6728 7.0128C53.6769 7.84301 53.9053 8.65659 54.3341 9.36741L52.285 11.4165C42.4807 -1.35676 24.178 -3.76355 11.4048 6.04075C-1.36846 15.8451 -3.77526 34.1479 6.02904 46.9211C15.2836 58.978 32.248 61.9028 45.0054 53.6408L48.5251 57.1605L50.1741 58.8095L59.5622 68.1976C61.9499 70.5853 65.8209 70.5853 68.2086 68.1976C70.5963 65.8099 70.5963 61.9389 68.2086 59.5512L58.8205 50.1631L57.1715 48.5141L53.6518 44.9944C59.8997 35.3707 59.8997 22.9716 53.6518 13.3477L55.9843 11.0153C56.6946 11.4442 57.5079 11.673 58.3377 11.6777ZM58.3377 4.68035C59.626 4.68035 60.6702 5.72456 60.6702 7.0128C60.6702 8.30104 59.626 9.34525 58.3377 9.34525C57.0495 9.34525 56.0053 8.30104 56.0053 7.0128C56.0053 5.72456 57.0496 4.68035 58.3377 4.68035ZM66.5596 61.2003C68.0532 62.6604 68.0805 65.0549 66.6204 66.5486C65.1603 68.0422 62.7657 68.0695 61.2721 66.6094C61.2515 66.5894 61.2314 66.5691 61.2113 66.5486L51.8232 57.1605L57.1715 51.8121L66.5596 61.2003ZM55.5224 50.1631L50.1741 55.5114L46.946 52.2833C47.1105 52.1574 47.2644 52.0186 47.4265 51.8891C47.5886 51.7597 47.7764 51.6046 47.9501 51.4588C48.2056 51.2442 48.4575 51.0273 48.7047 50.8045C48.8318 50.6879 48.9531 50.5713 49.0779 50.4547C49.556 50.0068 50.019 49.5438 50.4669 49.0657C50.5835 48.9409 50.7001 48.8196 50.8167 48.6925C51.0395 48.4453 51.2564 48.1934 51.471 47.938C51.6172 47.7654 51.7606 47.5909 51.9013 47.4143C52.0296 47.2534 52.1684 47.0994 52.2943 46.935L55.5224 50.1631ZM50.9998 44.746C50.6325 45.2591 50.2534 45.7618 49.8534 46.2458C49.7368 46.3869 49.612 46.5233 49.4919 46.6621C49.135 47.0773 48.7665 47.4801 48.3863 47.8703C48.2207 48.0413 48.0523 48.2097 47.8813 48.3753C47.4926 48.7555 47.0899 49.124 46.6731 49.4809C46.5344 49.5975 46.3979 49.7246 46.2568 49.8424C45.7728 50.2424 45.2702 50.6214 44.757 50.9888C32.6843 59.6138 15.9054 56.8188 7.2804 44.746C-1.34456 32.6732 1.45045 15.8943 13.5232 7.26937C25.596 -1.35559 42.3749 1.43927 50.9998 13.5122C57.6737 22.8539 57.6737 35.4042 50.9998 44.746Z" fill="#617792"/>
</g>
<defs>
<clipPath id="clip0_1599_3022">
<rect width="70" height="70" fill="white"/>
</clipPath>
</defs>
</svg>
