<svg width="70" height="70" viewBox="0 0 70 70" fill="none" xmlns="http://www.w3.org/2000/svg">
<path d="M66.1465 51.9979L62.4576 48.3078C61.4103 47.2618 59.7232 47.0992 58.4605 47.793L50.4079 41.0663C46.5528 37.8465 40.8954 37.7935 36.1681 39.5503C35.2284 39.8991 34.2279 40.0759 33.1943 40.0759H24.9387C23.3324 40.0759 21.8245 40.6993 20.6926 41.8317C20.481 42.0427 20.2882 42.266 20.1142 42.4999L12.3614 35.4355C10.0447 33.3244 6.47332 33.2362 4.05394 35.2277C2.58681 36.437 2.47006 38.6563 3.82316 40.0094L17.0182 53.2044C18.408 54.5944 20.1511 55.5542 22.059 55.9809C27.5033 57.1973 33.0292 57.6337 38.4883 57.2785C40.7405 57.1332 42.9914 58.0034 44.659 59.6715L45.5221 60.5343L45.4313 60.6251C44.1333 61.9231 44.1333 64.0357 45.4313 65.3344L49.1203 69.0244C50.4235 70.3267 52.5315 70.3239 53.8296 69.0239L66.1463 56.7072C67.4474 55.4074 67.4487 53.2989 66.1465 51.9979ZM46.2061 58.1248C44.1426 56.0601 41.3069 54.9081 38.3453 55.095C33.0998 55.4384 27.7774 55.017 22.5367 53.8455C21.0341 53.51 19.6613 52.7531 18.5651 51.6576L5.37013 38.4626C4.93373 38.0262 4.96832 37.3092 5.44492 36.9167C7.03031 35.6112 9.36998 35.6696 10.8881 37.0529L19.1287 44.5617C18.9968 45.0654 18.9326 45.5841 18.9369 46.1114C18.9497 47.9297 20.4486 49.4094 22.2787 49.4094H40.8344C41.439 49.4094 41.9283 48.9195 41.9283 48.3155C41.9283 47.7113 41.439 47.2216 40.8344 47.2216H22.2787C21.6468 47.2216 21.1292 46.7168 21.1249 46.0956C21.1091 44.0067 22.7956 42.2639 24.939 42.2639H33.1945C34.4888 42.2639 35.7456 42.0412 36.9288 41.6015C40.8754 40.136 45.7618 40.0335 49.0053 42.7456L56.7624 49.2255C55.7714 50.2237 60.3529 45.6096 47.0692 58.9876L46.2061 58.1248ZM64.5996 55.1596V55.1602L52.2828 67.4769C51.8523 67.9081 51.1002 67.9091 50.6675 67.4769L46.9786 63.7874C46.533 63.3418 46.533 62.6175 46.9786 62.1721C50.0951 59.0556 57.3666 51.784 59.2953 49.8554C59.742 49.4087 60.4649 49.4097 60.9106 49.8554L64.5996 53.5454C65.0481 53.9938 65.0435 54.7169 64.5996 55.1596Z" fill="#617792"/>
<path d="M23.3184 9.85813H26.4695L26.4701 32.7167C26.4701 33.3208 26.9599 33.8106 27.564 33.8106C28.168 33.8106 28.6578 33.3207 28.6578 32.7167L28.6573 8.7641C28.6573 8.15994 28.1674 7.67021 27.5634 7.67021H25.8408L30.5115 2.67998L35.1822 7.67021H33.4595C32.8561 7.67021 32.3657 8.16021 32.3657 8.7641L32.3662 26.1679C32.3662 26.772 32.8561 27.2617 33.4601 27.2617C34.0642 27.2617 34.554 26.7719 34.554 26.1679L34.5536 9.85813H37.7047C38.6596 9.85813 39.1557 8.71502 38.5038 8.01625L31.3099 0.331836C30.8963 -0.110449 30.1262 -0.110449 29.7128 0.331836L22.5197 8.01625C21.867 8.71352 22.3622 9.85813 23.3184 9.85813Z" fill="#617792"/>
<path d="M38.2151 20.2797H40.747V32.7166C40.747 33.3208 41.2363 33.8105 41.8409 33.8105C42.4455 33.8105 42.9348 33.3206 42.9348 32.7166V19.1855C42.9348 18.5814 42.4455 18.0917 41.8409 18.0917H40.7373L44.3588 14.2227L47.9794 18.0911H46.8769C46.2724 18.0911 45.783 18.581 45.783 19.185V27.1233C45.783 27.7275 46.2724 28.2172 46.8769 28.2172C47.4815 28.2172 47.9708 27.7273 47.9708 27.1233V20.2792H50.5016C51.4559 20.2792 51.9532 19.136 51.3007 18.4378L45.1581 11.8746C44.725 11.4125 43.9931 11.4131 43.5599 11.8741L37.4158 18.4378C36.7644 19.1363 37.2597 20.2797 38.2151 20.2797Z" fill="#617792"/>
<path d="M10.5201 20.2796H13.052V32.7165C13.052 33.3207 13.5419 33.8104 14.1459 33.8104C14.7499 33.8104 15.2398 33.3205 15.2398 32.7165V19.1854C15.2398 18.5813 14.7499 18.0916 14.1459 18.0916H13.0423L16.6634 14.2226L20.2846 18.091H19.1815C18.578 18.091 18.0876 18.581 18.0876 19.1849L18.0882 27.1232C18.0882 27.7274 18.578 28.2171 19.1821 28.2171C19.7861 28.2171 20.2759 27.7272 20.2759 27.1232L20.2754 20.2791H22.8067C23.762 20.2791 24.2587 19.1353 23.6053 18.4372L17.4623 11.874C17.0487 11.4328 16.2786 11.4323 15.8651 11.8745L9.72167 18.4383C9.06815 19.135 9.56458 20.2796 10.5201 20.2796Z" fill="#617792"/>
</svg>
