<svg width="70" height="70" viewBox="0 0 70 70" fill="none" xmlns="http://www.w3.org/2000/svg">
<g clip-path="url(#clip0_1599_2896)">
<path d="M15.9924 12.916C16.5587 12.916 17.0178 12.4569 17.0178 11.8906C17.0178 11.3243 16.5587 10.8652 15.9924 10.8652C15.4261 10.8652 14.967 11.3243 14.967 11.8906C14.967 12.4569 15.426 12.916 15.9924 12.916ZM7.78928 12.916C8.35557 12.916 8.81467 12.4569 8.81467 11.8906C8.81467 11.3243 8.35557 10.8652 7.78928 10.8652C7.22299 10.8652 6.76389 11.3243 6.76389 11.8906C6.76389 12.4569 7.22285 12.916 7.78928 12.916ZM11.8908 12.916C12.4571 12.916 12.9162 12.4569 12.9162 11.8906C12.9162 11.3243 12.4571 10.8652 11.8908 10.8652C11.3246 10.8652 10.8654 11.3243 10.8654 11.8906C10.8654 12.4569 11.3244 12.916 11.8908 12.916ZM11.6659 23.7787C11.6722 23.7788 11.6785 23.7788 11.6848 23.7788L20.9556 23.7812H20.9561C21.5966 23.7812 22.1404 23.3662 22.3095 22.7485C22.4787 22.1306 22.2219 21.4963 21.6706 21.1702L20.2606 20.336C22.5269 18.0898 23.8015 15.0251 23.7813 11.8142C23.7407 5.39276 18.4849 0.0936755 12.0654 0.00125361C5.41338 -0.0943128 0 5.28653 0 11.8909C0 18.2241 5.21828 23.6416 11.6659 23.7787ZM4.9834 4.88266C6.87422 3.01891 9.37344 2.01471 12.036 2.05176C17.348 2.12819 21.6969 6.5133 21.7305 11.827C21.7487 14.6939 20.5193 17.4202 18.3575 19.3066C17.996 19.6219 17.8067 20.0951 17.8504 20.5724C17.8942 21.0494 18.1666 21.4798 18.5788 21.7235L18.5891 21.7296L11.6949 21.7279C6.36535 21.6256 2.05078 17.2351 2.05078 11.8909C2.05078 9.23565 3.0923 6.74682 4.9834 4.88266ZM68.9746 67.9492H67.9492V52.6791C67.9492 48.6785 65.5852 45.0456 61.9151 43.4188L56.5112 41.1026C57.8262 40.6877 59.0141 39.9477 59.9807 38.9214C61.4391 37.3731 62.2754 35.2721 62.2754 33.1572C62.2754 31.2139 61.5964 29.3797 60.3117 27.8524C58.7047 25.9442 57.8197 23.5191 57.8197 21.0234V16.1097C57.8197 11.8061 56.1437 7.76086 53.1006 4.71928C50.0575 1.67592 46.0119 2.31369e-05 41.7088 2.31369e-05C32.8259 2.31369e-05 25.5992 7.2267 25.5992 16.1096V20.8633C25.5998 23.4456 24.5849 25.9106 22.9358 27.8975C20.8603 30.3981 20.4291 33.779 21.8106 36.7208C22.836 38.9044 24.6855 40.4733 26.8997 41.1373L21.5335 43.4708C17.7687 45.0551 15.3359 48.718 15.3359 52.8023V64.8732C15.3359 65.4395 15.7948 65.8986 16.3613 65.8986C16.9277 65.8986 17.3867 65.4395 17.3867 64.8732V52.8023C17.3867 49.5454 19.3266 46.6244 22.3401 45.3563L29.0664 42.4314V48.6035H25.9762C25.1053 48.6035 24.2717 48.9749 23.6891 49.6224C23.1067 50.2699 22.8253 51.1379 22.9172 52.0039L24.6075 67.9492H1.02539C0.458965 67.9492 0 68.4083 0 68.9746C0 69.5409 0.458965 70 1.02539 70H68.9746C69.541 70 70 69.5409 70 68.9746C70 68.4083 69.541 67.9492 68.9746 67.9492ZM58.7427 29.1728C59.7122 30.3253 60.2246 31.7031 60.2246 33.1571C60.2246 34.7549 59.5916 36.3433 58.4879 37.5152C57.3192 38.756 55.7137 39.4393 53.9671 39.4393H52.6308L50.8755 38.6869C49.3422 38.0293 48.2933 36.6196 48.0789 34.9969C51.2427 33.2934 53.3984 29.95 53.3984 26.1119V18.4033C53.6985 18.4237 53.9983 18.4348 54.2973 18.4348C54.7904 18.4348 55.2817 18.4067 55.7691 18.3515V21.0233C55.7689 24.0015 56.8252 26.8959 58.7427 29.1728ZM41.958 45.3604C38.2897 45.4254 34.649 44.9605 31.1172 43.9809V41.5396L31.4137 41.4106C31.4161 41.4097 31.4184 41.4086 31.4208 41.4076L33.2501 40.6122C35.2864 39.7269 36.7254 37.9138 37.1617 35.7949C38.0546 36.0545 38.997 36.1965 39.9726 36.1965H43.3139C44.2932 36.1965 45.2391 36.0534 46.1351 35.7919C46.5857 37.9011 48.0301 39.698 50.0674 40.5719L52.0197 41.4086C52.0209 41.4091 52.0222 41.4097 52.0234 41.4101L52.168 41.472V43.7794C48.8495 44.7682 45.4187 45.3 41.958 45.3604ZM52.1678 45.9144V48.6037H31.1172V46.1045C34.4414 46.976 37.8544 47.4171 41.2906 47.4171C41.5249 47.4171 41.7594 47.415 41.9938 47.4109C45.4378 47.3508 48.8536 46.8475 52.1678 45.9144ZM55.7689 16.2838C52.9445 16.6654 49.7607 15.9088 47.5672 14.2092C47.1197 13.8625 46.4756 13.944 46.1286 14.3917C45.7818 14.8393 45.8635 15.4834 46.3112 15.8303C47.7452 16.9413 49.4748 17.7238 51.3476 18.1184V23.7008C50.8549 24.8238 50.3063 25.7577 49.0697 26.7779C48.5491 27.2075 47.9793 27.5642 47.3689 27.8472C46.8706 26.8747 45.8585 26.2072 44.6928 26.2072H42.2898C40.6324 26.2072 39.2841 27.5557 39.2841 29.213C39.2841 30.8703 40.6324 32.2188 42.2898 32.2188H44.6928C46.0876 32.2188 47.2634 31.2636 47.601 29.9733C48.9727 29.4506 51.2092 27.586 51.2098 27.5854C50.5154 31.3133 47.2402 34.1451 43.314 34.1451H39.9725C35.5428 34.1451 31.9389 30.5414 31.9389 26.1115V18.1854C35.4215 17.6395 38.7116 16.461 41.729 14.6762C46.3233 11.9587 49.2703 8.40754 51.0487 5.60194C54.0917 8.31211 55.8227 12.1975 55.7689 16.2838ZM45.6475 29.2159C45.646 29.7413 45.2184 30.1682 44.6927 30.1682H42.2897C41.7631 30.1682 41.3347 29.7398 41.3347 29.2133C41.3347 28.6868 41.7632 28.2583 42.2897 28.2583H44.6927C45.2182 28.2583 45.6457 28.685 45.6475 29.2101V29.2159ZM27.65 16.1096C27.65 8.3575 33.9567 2.0508 41.7088 2.0508C44.489 2.0508 47.1457 2.85334 49.4159 4.34741C47.7792 6.9709 45.0245 10.3446 40.6849 12.9116C37.7079 14.6725 34.4423 15.7968 30.9787 16.2531H30.9147C30.9143 16.2531 30.9139 16.2531 30.9133 16.2531C30.9128 16.2531 30.9125 16.2531 30.912 16.2531H27.6499V16.1096H27.65ZM23.6667 35.849C22.627 33.6345 22.9515 31.0895 24.5126 29.2088C26.4713 26.8489 27.6522 23.9329 27.65 20.8633V18.3039H29.8881V26.1119C29.8881 29.9522 32.0465 33.2972 35.2131 34.9997C35.015 36.6348 33.9693 38.0631 32.4323 38.7314L30.8042 39.4393H29.318C26.8721 39.4393 24.7067 38.0636 23.6667 35.849ZM59.3622 51.7879L57.649 67.9492H26.6697L24.9565 51.7879C24.9255 51.4949 25.0168 51.213 25.2138 50.9941C25.4108 50.775 25.6817 50.6545 25.9762 50.6545H58.3425C58.637 50.6545 58.9079 50.775 59.1049 50.9941C59.3019 51.213 59.3932 51.4949 59.3622 51.7879ZM65.8984 67.9492H59.7112L61.4015 52.0041C61.4934 51.138 61.2119 50.27 60.6296 49.6225C60.047 48.975 59.2136 48.6037 58.3425 48.6037H54.2186V42.3511L61.0956 45.2986C64.0132 46.592 65.8984 49.4889 65.8984 52.6791V67.9492ZM42.1593 55.4053C40.0107 55.4053 38.2628 57.1532 38.2628 59.3018C38.2628 61.4503 40.0107 63.1983 42.1593 63.1983C44.3078 63.1983 46.0558 61.4503 46.0558 59.3018C46.0558 57.1532 44.3078 55.4053 42.1593 55.4053ZM42.1593 61.1475C41.1415 61.1475 40.3136 60.3195 40.3136 59.3018C40.3136 58.284 41.1415 57.4561 42.1593 57.4561C43.177 57.4561 44.005 58.284 44.005 59.3018C44.005 60.3195 43.1771 61.1475 42.1593 61.1475Z" fill="#617792"/>
</g>
<defs>
<clipPath id="clip0_1599_2896">
<rect width="70" height="70" fill="white"/>
</clipPath>
</defs>
</svg>
