<svg width="71" height="70" viewBox="0 0 71 70" fill="none" xmlns="http://www.w3.org/2000/svg">
<path d="M42.3356 48.454C39.2666 50.3851 35.7212 51.4063 32.0832 51.4063C21.4284 51.4063 12.7603 42.7374 12.7603 32.0833C12.7603 22.8609 19.4043 14.8988 28.3614 13.1397C28.9504 14.6228 30.3925 15.6771 32.0832 15.6771C33.7715 15.6771 35.2124 14.6258 35.803 13.1459C38.1934 13.6135 40.4481 14.4897 42.502 15.8093C43.6599 16.5533 44.9002 14.7494 43.6843 13.9695C41.3394 12.4621 38.76 11.4712 36.0225 10.963C35.688 9.08717 34.0539 7.65625 32.0832 7.65625C30.1148 7.65625 28.4818 9.08352 28.1446 10.956C18.0699 12.8338 10.5728 21.7476 10.5728 32.0833C10.5728 43.9437 20.2221 53.5938 32.0832 53.5938C36.1341 53.5938 40.0825 52.4573 43.5003 50.3056C44.6611 49.5748 43.5626 47.6828 42.3356 48.454ZM32.0832 9.84375C33.0886 9.84375 33.9061 10.6612 33.9061 11.6667C33.9061 12.6721 33.0886 13.4896 32.0832 13.4896C31.0777 13.4896 30.2603 12.6721 30.2603 11.6667C30.2603 10.6612 31.0777 9.84375 32.0832 9.84375Z" fill="#617792"/>
<path d="M47.155 55.7514C42.6632 58.6325 37.4508 60.1563 32.0832 60.1563C25.953 60.1563 19.9647 58.102 15.0872 54.3907C15.3265 53.8773 15.4697 53.3109 15.4697 52.708C15.4697 50.4963 13.671 48.6976 11.4593 48.6976C10.8563 48.6976 10.2899 48.8409 9.77639 49.0802C6.06477 44.2031 4.01025 38.2139 4.01025 32.0834C4.01025 16.6043 16.604 4.0105 32.0832 4.0105C38.12 4.0105 43.8763 5.90311 48.7297 9.48387C49.8401 10.3032 51.1737 8.56992 50.0289 7.72397C44.7966 3.8638 38.5916 1.823 32.0832 1.823C15.3978 1.823 1.82275 15.398 1.82275 32.0834C1.82275 38.735 4.06455 45.2306 8.11377 50.5055C7.6957 51.1384 7.44887 51.8942 7.44887 52.708C7.44887 54.9197 9.24758 56.7184 11.4593 56.7184C12.2727 56.7184 13.0282 56.4718 13.6609 56.054C18.936 60.1027 25.4321 62.3438 32.0832 62.3438C37.8708 62.3438 43.4905 60.7004 48.3368 57.5916C49.4742 56.862 48.3679 54.9688 47.155 55.7514ZM11.4593 54.5309C10.4538 54.5309 9.63637 53.7135 9.63637 52.708C9.63637 51.7026 10.4538 50.8851 11.4593 50.8851C12.4647 50.8851 13.2822 51.7026 13.2822 52.708C13.2822 53.7135 12.4647 54.5309 11.4593 54.5309Z" fill="#617792"/>
<path d="M32.0833 28.073C29.8716 28.073 28.0729 29.8717 28.0729 32.0834C28.0729 34.2952 29.8716 36.0939 32.0833 36.0939C34.295 36.0939 36.0938 34.2952 36.0938 32.0834C36.0938 31.3757 35.8939 30.7202 35.571 30.1424L40.2942 25.4192C41.8231 27.3073 42.6563 29.6351 42.6563 32.0834C42.6563 37.9139 37.9138 42.6564 32.0833 42.6564C27.5914 42.6564 23.6728 39.8202 22.1766 35.6695C23.5039 35.015 24.4271 33.661 24.4271 32.0834C24.4271 30.5059 23.5039 29.1519 22.1766 28.4974C23.6728 24.3467 27.5914 21.5105 32.0833 21.5105C33.5038 21.5105 34.8978 21.791 36.2265 22.3449C37.5073 22.8789 38.3816 20.8719 37.0679 20.3256C35.4714 19.6606 33.7937 19.323 32.0833 19.323C26.5263 19.323 21.6618 22.9019 19.963 28.1189C17.9669 28.3474 16.4062 30.027 16.4062 32.0834C16.4062 34.1397 17.9669 35.8194 19.9629 36.048C21.6611 41.265 26.5257 44.8439 32.0833 44.8439C39.1201 44.8439 44.8438 39.1202 44.8438 32.0834C44.8438 29.0513 43.782 26.1761 41.8443 23.8691L46.4834 19.23C49.4744 22.5899 51.2194 26.8462 51.3934 31.3521C51.4472 32.7447 53.6352 32.6931 53.5781 31.2688C53.3841 26.2103 51.4104 21.4364 48.0301 17.6833L52.6674 13.046C57.3027 18.0528 59.9601 24.4835 60.1278 31.3083C60.1621 32.7071 62.3489 32.6796 62.3153 31.2546C62.1321 23.8665 59.2473 16.9061 54.2141 11.4994C54.2141 11.4994 56.1846 9.52877 56.19 9.52344C57.1522 8.56124 55.67 6.95016 54.6434 7.9768C54.6434 7.9768 51.9325 10.6877 51.9289 10.6912L34.0244 28.5958C33.4466 28.2728 32.791 28.073 32.0833 28.073ZM32.0833 33.9064C31.0779 33.9064 30.2604 33.0889 30.2604 32.0834C30.2604 31.078 31.0779 30.2605 32.0833 30.2605C33.0888 30.2605 33.9063 31.078 33.9063 32.0834C33.9063 33.0889 33.0888 33.9064 32.0833 33.9064ZM20.4167 33.9064C19.4112 33.9064 18.5938 33.0889 18.5938 32.0834C18.5938 31.078 19.4112 30.2605 20.4167 30.2605C21.4221 30.2605 22.2396 31.078 22.2396 32.0834C22.2396 33.0889 21.4221 33.9064 20.4167 33.9064Z" fill="#617792"/>
<path d="M61.237 62.4991C61.4877 62.8039 61.6144 63.12 61.6144 63.4376C61.6144 64.6453 59.6676 65.9897 56.8748 65.9897C54.0821 65.9897 52.1353 64.6453 52.1353 63.4376C52.1353 63.1201 52.2619 62.8041 52.5124 62.4995C53.3966 61.4238 51.7302 60.003 50.8236 61.1091C50.2511 61.807 49.9478 62.6116 49.9478 63.4376C49.9478 66.0951 52.9912 68.1772 56.8748 68.1772C60.7585 68.1772 63.8019 66.0951 63.8019 63.4376C63.8019 62.6119 63.4988 61.8075 62.9264 61.1096C62.1152 60.121 60.336 61.4044 61.237 62.4991Z" fill="#617792"/>
<path d="M56.8748 33.9062C50.6427 33.9062 45.5728 38.9762 45.5728 45.2083C45.5728 48.3571 46.9072 51.3934 49.2385 53.5411C52.2732 56.3151 54.4976 59.5293 55.8521 63.0966C56.2001 64.0133 57.55 64.0133 57.8974 63.0971C59.2517 59.5296 61.4763 56.3153 64.514 53.5382C66.8425 51.3934 68.1769 48.3571 68.1769 45.2083C68.1769 38.9762 63.1069 33.9062 56.8748 33.9062ZM63.0357 51.9261C60.4181 54.3186 58.3531 57.0217 56.8748 59.9853C55.3966 57.0217 53.333 54.3186 50.7168 51.9289C48.8383 50.1971 47.7603 47.7476 47.7603 45.2083C47.7603 40.1825 51.849 36.0938 56.8748 36.0938C61.9007 36.0938 65.9894 40.1825 65.9894 45.2083C65.9894 47.7476 64.9113 50.1971 63.0357 51.9261Z" fill="#617792"/>
<path d="M56.8748 38.2812C53.0553 38.2812 49.9478 41.3888 49.9478 45.2083C49.9478 49.0279 53.0553 52.1354 56.8748 52.1354C60.6944 52.1354 63.8019 49.0279 63.8019 45.2083C63.8019 41.3888 60.6944 38.2812 56.8748 38.2812ZM56.8748 49.9479C54.2615 49.9479 52.1353 47.8217 52.1353 45.2083C52.1353 42.595 54.2615 40.4688 56.8748 40.4688C59.4882 40.4688 61.6144 42.595 61.6144 45.2083C61.6144 47.8217 59.4882 49.9479 56.8748 49.9479Z" fill="#617792"/>
</svg>
