<svg width="70" height="70" viewBox="0 0 70 70" fill="none" xmlns="http://www.w3.org/2000/svg">
<path d="M4.375 22.9687H2.1875V18.5937C2.18913 17.1438 2.76582 15.7538 3.79106 14.7286C4.8163 13.7033 6.20635 13.1266 7.65625 13.125H44.8438V10.9375H42.6562C42.4399 10.9375 42.2284 10.8734 42.0486 10.7532C41.8687 10.633 41.7285 10.4622 41.6457 10.2623C41.5629 10.0625 41.5413 9.84253 41.5835 9.63036C41.6257 9.41819 41.7299 9.2233 41.8828 9.07033L48.4453 2.50783C48.5469 2.40626 48.6675 2.32569 48.8002 2.27072C48.9329 2.21575 49.0751 2.18746 49.2188 2.18746C49.3624 2.18746 49.5046 2.21575 49.6373 2.27072C49.77 2.32569 49.8906 2.40626 49.9922 2.50783L56.5547 9.07033C56.7076 9.2233 56.8118 9.41819 56.854 9.63036C56.8962 9.84253 56.8746 10.0625 56.7918 10.2623C56.709 10.4622 56.5688 10.633 56.3889 10.7532C56.2091 10.8734 55.9976 10.9375 55.7812 10.9375H53.5938V13.125H57.9688C59.4187 13.1266 60.8087 13.7033 61.8339 14.7286C62.8592 15.7538 63.4359 17.1438 63.4375 18.5937V40.4688H61.25V18.5937C61.249 17.7238 60.903 16.8898 60.2878 16.2747C59.6727 15.6595 58.8387 15.3135 57.9688 15.3125H53.5938V35H51.4062V9.84375C51.4062 9.55367 51.5215 9.27547 51.7266 9.07035C51.9317 8.86523 52.2099 8.75 52.5 8.75H53.1408L49.2188 4.82795L45.2967 8.75H45.9375C46.2276 8.75 46.5058 8.86523 46.7109 9.07035C46.916 9.27547 47.0312 9.55367 47.0312 9.84375V36.0937H44.8438V15.3125H7.65625C6.78632 15.3135 5.95231 15.6595 5.33717 16.2747C4.72204 16.8898 4.37601 17.7238 4.375 18.5937V22.9687ZM7.65625 56.875H25.8736L23.2486 65.625H20.7812V67.8125H44.8438V65.625H42.3764L40.9696 60.9356L38.8742 61.5645L40.0925 65.625H25.532L28.157 56.875H36.0938V54.6875H7.65625C6.78632 54.6865 5.95231 54.3405 5.33717 53.7253C4.72204 53.1102 4.37601 52.2762 4.375 51.4063V50.3125H35V48.125H4.375V25.1562H2.1875V51.4063C2.18913 52.8562 2.76582 54.2462 3.79106 55.2714C4.8163 56.2967 6.20635 56.8734 7.65625 56.875ZM40.4688 38.2813V20.7812H36.0938V45.9375H7.65625V43.75H12.0312V35C12.0312 34.7099 12.1465 34.4317 12.3516 34.2266C12.5567 34.0215 12.8349 33.9062 13.125 33.9062H19.6875C19.9776 33.9062 20.2558 34.0215 20.4609 34.2266C20.666 34.4317 20.7812 34.7099 20.7812 35V43.75H22.9688V27.3437C22.9688 27.0537 23.084 26.7755 23.2891 26.5704C23.4942 26.3652 23.7724 26.25 24.0625 26.25H30.625C30.9151 26.25 31.1933 26.3652 31.3984 26.5704C31.6035 26.7755 31.7188 27.0537 31.7188 27.3437V43.75H33.9062V19.6875C33.9062 19.3974 34.0215 19.1192 34.2266 18.9141C34.4317 18.709 34.7099 18.5937 35 18.5937H41.5625C41.8526 18.5937 42.1308 18.709 42.3359 18.9141C42.541 19.1192 42.6562 19.3974 42.6562 19.6875V38.2813H40.4688ZM18.5938 36.0937H14.2188V43.75H18.5938V36.0937ZM29.5312 28.4375H25.1562V43.75H29.5312V28.4375ZM7.65625 17.5V19.6875H9.84375V17.5H7.65625ZM14.2188 17.5H12.0312V19.6875H14.2188V17.5ZM16.4062 17.5V19.6875H18.5938V17.5H16.4062ZM66.851 62.2115C67.4643 62.8281 67.8098 63.6616 67.8125 64.5313C67.8129 64.9623 67.7283 65.3891 67.5635 65.7874C67.3988 66.1857 67.1571 66.5476 66.8523 66.8523C66.5476 67.1571 66.1857 67.3988 65.7874 67.5635C65.3891 67.7283 64.9623 67.8129 64.5312 67.8125C63.6626 67.8049 62.8308 67.4601 62.2115 66.851L56.9762 61.6157C54.2223 63.2402 50.9705 63.8045 47.8304 63.2028C44.6902 62.6011 41.8774 60.8747 39.9191 58.3472C37.9609 55.8198 36.9918 52.6649 37.1934 49.474C37.3951 46.2831 38.7536 43.2753 41.0144 41.0145C43.2753 38.7536 46.2831 37.3951 49.474 37.1934C52.6649 36.9918 55.8198 37.9609 58.3472 39.9191C60.8747 41.8774 62.6011 44.6902 63.2028 47.8304C63.8045 50.9705 63.2402 54.2223 61.6157 56.9762L66.851 62.2115ZM61.25 50.3125C61.25 48.1493 60.6085 46.0346 59.4067 44.236C58.2049 42.4373 56.4967 41.0354 54.4981 40.2076C52.4995 39.3797 50.3004 39.1631 48.1787 39.5852C46.057 40.0072 44.1082 41.0489 42.5785 42.5785C41.0489 44.1082 40.0072 46.057 39.5852 48.1787C39.1631 50.3004 39.3797 52.4995 40.2076 54.4981C41.0354 56.4967 42.4373 58.2049 44.236 59.4067C46.0346 60.6085 48.1493 61.25 50.3125 61.25C53.2123 61.2467 55.9924 60.0933 58.0428 58.0428C60.0933 55.9924 61.2467 53.2123 61.25 50.3125ZM65.304 63.7585L60.3292 58.7835C59.8574 59.3404 59.3404 59.8574 58.7835 60.3292L63.7585 65.304C63.859 65.4098 63.9796 65.4944 64.1133 65.5529C64.2469 65.6113 64.391 65.6424 64.5368 65.6443C64.6827 65.6462 64.8275 65.6188 64.9627 65.5639C65.0978 65.5089 65.2206 65.4275 65.3238 65.3243C65.4269 65.2211 65.5084 65.0984 65.5633 64.9632C65.6183 64.8281 65.6456 64.6833 65.6437 64.5374C65.6418 64.3915 65.6108 64.2475 65.5523 64.1138C65.4939 63.9801 65.4092 63.8595 65.3034 63.7591L65.304 63.7585ZM59.0625 50.3125C59.0625 52.0431 58.5493 53.7348 57.5879 55.1737C56.6264 56.6127 55.2598 57.7342 53.661 58.3964C52.0621 59.0587 50.3028 59.232 48.6055 58.8944C46.9081 58.5568 45.349 57.7234 44.1253 56.4997C42.9016 55.276 42.0682 53.7169 41.7306 52.0195C41.393 50.3222 41.5663 48.5629 42.2286 46.964C42.8908 45.3652 44.0123 43.9986 45.4513 43.0371C46.8902 42.0757 48.5819 41.5625 50.3125 41.5625C52.6323 41.5651 54.8564 42.4878 56.4968 44.1282C58.1372 45.7686 59.0599 47.9927 59.0625 50.3125ZM56.875 50.3125C56.875 49.0146 56.4901 47.7458 55.769 46.6666C55.0479 45.5874 54.023 44.7462 52.8239 44.2495C51.6247 43.7528 50.3052 43.6229 49.0322 43.8761C47.7592 44.1293 46.5899 44.7543 45.6721 45.6721C44.7543 46.5899 44.1293 47.7592 43.8761 49.0322C43.6229 50.3052 43.7528 51.6247 44.2495 52.8239C44.7462 54.023 45.5874 55.0479 46.6666 55.769C47.7458 56.4901 49.0146 56.875 50.3125 56.875C52.0524 56.8731 53.7205 56.1811 54.9508 54.9508C56.1811 53.7205 56.8731 52.0524 56.875 50.3125ZM45.9375 50.3125H48.125C48.1257 49.7326 48.3564 49.1766 48.7665 48.7665C49.1765 48.3564 49.7325 48.1257 50.3125 48.125V45.9375C49.1526 45.9388 48.0405 46.4002 47.2203 47.2204C46.4002 48.0405 45.9388 49.1526 45.9375 50.3125ZM60.1562 8.75H62.3438C62.3418 7.01011 61.6498 5.34202 60.4195 4.11173C59.1892 2.88144 57.5211 2.18942 55.7812 2.1875V4.375C56.9412 4.3763 58.0532 4.83766 58.8734 5.65785C59.6936 6.47804 60.1549 7.59008 60.1562 8.75Z" fill="#617792"/>
</svg>
