<svg width="70" height="70" viewBox="0 0 70 70" fill="none" xmlns="http://www.w3.org/2000/svg">
<path d="M30.625 18.5938C30.625 19.459 30.8816 20.3049 31.3623 21.0244C31.8431 21.7438 32.5263 22.3046 33.3258 22.6357C34.1252 22.9669 35.0049 23.0535 35.8535 22.8847C36.7022 22.7159 37.4817 22.2992 38.0936 21.6873C38.7054 21.0755 39.1221 20.2959 39.2909 19.4473C39.4597 18.5986 39.3731 17.7189 39.042 16.9195C38.7108 16.1201 38.1501 15.4368 37.4306 14.9561C36.7112 14.4753 35.8653 14.2188 35 14.2188C33.8397 14.2188 32.7269 14.6797 31.9064 15.5002C31.0859 16.3206 30.625 17.4334 30.625 18.5938ZM37.1875 18.5938C37.1875 19.0264 37.0592 19.4493 36.8188 19.8091C36.5785 20.1688 36.2368 20.4492 35.8371 20.6147C35.4374 20.7803 34.9976 20.8236 34.5732 20.7392C34.1489 20.6548 33.7591 20.4465 33.4532 20.1405C33.1473 19.8346 32.9389 19.4448 32.8545 19.0205C32.7701 18.5962 32.8134 18.1563 32.979 17.7566C33.1446 17.3569 33.425 17.0153 33.7847 16.7749C34.1444 16.5345 34.5674 16.4062 35 16.4062C35.5802 16.4062 36.1366 16.6367 36.5468 17.047C36.957 17.4572 37.1875 18.0136 37.1875 18.5938Z" fill="#617792"/>
<path d="M43.75 29.2031C43.75 28.1298 43.3236 27.1005 42.5647 26.3416C41.8058 25.5826 40.7764 25.1563 39.7031 25.1563H30.2969C29.2236 25.1562 28.1942 25.5826 27.4353 26.3416C26.6764 27.1005 26.25 28.1298 26.25 29.2031V37.5156C26.2487 38.456 26.5758 39.3674 27.1749 40.0923C27.774 40.8172 28.6074 41.3101 29.5313 41.4859V52.2812C29.5313 53.2095 29.9 54.0997 30.5564 54.7561C31.2128 55.4125 32.103 55.7812 33.0313 55.7812H36.9688C37.897 55.7812 38.7872 55.4125 39.4436 54.7561C40.1 54.0997 40.4688 53.2095 40.4688 52.2812V41.4859C41.3926 41.3101 42.226 40.8172 42.8251 40.0923C43.4242 39.3674 43.7513 38.456 43.75 37.5156V29.2031ZM41.5625 37.5156C41.5625 38.0088 41.3666 38.4817 41.0179 38.8304C40.6692 39.1791 40.1963 39.375 39.7031 39.375H39.375C39.0849 39.375 38.8067 39.4902 38.6016 39.6954C38.3965 39.9005 38.2813 40.1787 38.2813 40.4688V52.2812C38.2813 52.6293 38.143 52.9632 37.8968 53.2093C37.6507 53.4555 37.3168 53.5937 36.9688 53.5938H36.0938V40.4688C36.0938 40.1787 35.9785 39.9005 35.7734 39.6954C35.5683 39.4902 35.2901 39.375 35 39.375C34.7099 39.375 34.4317 39.4902 34.2266 39.6954C34.0215 39.9005 33.9063 40.1787 33.9063 40.4688V53.5938H33.0313C32.6832 53.5937 32.3493 53.4555 32.1032 53.2093C31.857 52.9632 31.7188 52.6293 31.7188 52.2812V40.4688C31.7188 40.1787 31.6035 39.9005 31.3984 39.6954C31.1933 39.4902 30.9151 39.375 30.625 39.375H30.2969C29.8037 39.375 29.3308 39.1791 28.9821 38.8304C28.6334 38.4817 28.4375 38.0088 28.4375 37.5156V29.2031C28.4375 28.71 28.6334 28.237 28.9821 27.8883C29.3308 27.5396 29.8037 27.3438 30.2969 27.3438H39.7031C40.1963 27.3438 40.6692 27.5396 41.0179 27.8883C41.3666 28.237 41.5625 28.71 41.5625 29.2031V37.5156Z" fill="#617792"/>
<path d="M10.9377 19.6875C12.1428 19.6839 13.3341 19.4313 14.437 18.9458C15.54 18.4602 16.5307 17.752 17.3471 16.8656L25.6159 22.761C25.8005 22.8946 26.0223 22.9673 26.2502 22.9688C26.4808 22.9673 26.7049 22.893 26.8907 22.7565C27.0765 22.6201 27.2145 22.4284 27.2848 22.2088C27.3552 21.9893 27.3543 21.7531 27.2825 21.5341C27.2106 21.315 27.0713 21.1243 26.8846 20.9891L18.594 15.0938C19.5047 13.4066 19.836 11.4669 19.537 9.57305C19.238 7.67919 18.3252 5.93597 16.939 4.6114C15.5528 3.28682 13.7699 2.45422 11.8644 2.2416C9.95887 2.02898 8.03629 2.44812 6.39221 3.43457C4.74812 4.42102 3.47355 5.92017 2.76446 7.70154C2.05536 9.48291 1.95099 11.4479 2.4674 13.2943C2.9838 15.1408 4.0924 16.7665 5.62273 17.9216C7.15307 19.0767 9.02044 19.6971 10.9377 19.6875ZM10.9377 4.37502C12.2357 4.37502 13.5045 4.75991 14.5837 5.481C15.6629 6.2021 16.504 7.22702 17.0007 8.42616C17.4974 9.6253 17.6273 10.9448 17.3741 12.2178C17.1209 13.4908 16.4959 14.6601 15.5781 15.5779C14.6603 16.4957 13.491 17.1207 12.218 17.3739C10.945 17.6271 9.62551 17.4972 8.42637 17.0005C7.22723 16.5038 6.20231 15.6627 5.48121 14.5835C4.76011 13.5043 4.37523 12.2355 4.37523 10.9375C4.37523 9.19704 5.06663 7.52784 6.29734 6.29714C7.52805 5.06643 9.19725 4.37502 10.9377 4.37502Z" fill="#617792"/>
<path d="M10.9376 43.75C13.0675 43.7481 15.1235 42.9694 16.7202 41.5599C18.317 40.1504 19.3448 38.2069 19.6111 36.0937H22.9689C23.259 36.0937 23.5372 35.9785 23.7423 35.7734C23.9474 35.5683 24.0626 35.2901 24.0626 35C24.0626 34.7099 23.9474 34.4317 23.7423 34.2266C23.5372 34.0215 23.259 33.9062 22.9689 33.9062H19.6111C19.4005 32.2352 18.7122 30.6604 17.6287 29.371C16.5452 28.0815 15.1125 27.1322 13.5028 26.6369C11.893 26.1416 10.1744 26.1214 8.55349 26.5788C6.93253 27.0362 5.47802 27.9517 4.36457 29.2154C3.25111 30.4791 2.52603 32.0373 2.27636 33.7029C2.0267 35.3686 2.26305 37.0709 2.95706 38.6055C3.65107 40.1401 4.77324 41.4418 6.18885 42.3544C7.60447 43.2669 9.25337 43.7515 10.9376 43.75ZM10.9376 28.4375C12.2356 28.4375 13.5044 28.8224 14.5836 29.5435C15.6628 30.2646 16.5039 31.2895 17.0006 32.4886C17.4973 33.6878 17.6272 35.0073 17.374 36.2803C17.1208 37.5533 16.4958 38.7226 15.578 39.6404C14.6602 40.5582 13.4909 41.1832 12.2179 41.4364C10.9449 41.6896 9.62541 41.5597 8.42627 41.063C7.22713 40.5663 6.2022 39.7251 5.48111 38.6459C4.76001 37.5667 4.37513 36.2979 4.37513 35C4.37513 33.2595 5.06653 31.5903 6.29724 30.3596C7.52795 29.1289 9.19714 28.4375 10.9376 28.4375Z" fill="#617792"/>
<path d="M25.6155 47.2391L17.3468 53.1344C15.8819 51.5313 13.8615 50.5463 11.6963 50.3796C9.53115 50.213 7.38378 50.8772 5.69085 52.2372C3.99791 53.5973 2.88651 55.551 2.58262 57.7012C2.27873 59.8514 2.80517 62.0367 4.05489 63.8126C5.30462 65.5885 7.18381 66.8218 9.31036 67.2617C11.4369 67.7016 13.6512 67.3151 15.5029 66.1807C17.3547 65.0464 18.7049 63.2493 19.279 61.155C19.8531 59.0607 19.6081 56.8264 18.5936 54.9063L26.8405 49.011C27.0484 48.833 27.182 48.5835 27.2149 48.3118C27.2479 48.0401 27.1777 47.7659 27.0184 47.5434C26.8591 47.3209 26.6221 47.1662 26.3543 47.1099C26.0865 47.0535 25.8072 47.0996 25.5718 47.2391H25.6155ZM10.9374 65.625C9.63945 65.625 8.37066 65.2402 7.29146 64.5191C6.21226 63.798 5.37113 62.773 4.87443 61.5739C4.37773 60.3748 4.24777 59.0553 4.50099 57.7823C4.7542 56.5093 5.37922 55.3399 6.297 54.4221C7.21478 53.5044 8.38411 52.8793 9.65711 52.6261C10.9301 52.3729 12.2496 52.5029 13.4487 52.9996C14.6479 53.4963 15.6728 54.3374 16.3939 55.4166C17.115 56.4958 17.4999 57.7646 17.4999 59.0625C17.4999 60.803 16.8085 62.4722 15.5778 63.7029C14.3471 64.9336 12.6779 65.625 10.9374 65.625Z" fill="#617792"/>
<path d="M59.0625 26.25C56.9326 26.2519 54.8766 27.0306 53.2799 28.4401C51.6831 29.8496 50.6553 31.7931 50.3891 33.9063H47.0312C46.7412 33.9063 46.463 34.0215 46.2579 34.2266C46.0527 34.4317 45.9375 34.7099 45.9375 35C45.9375 35.2901 46.0527 35.5683 46.2579 35.7734C46.463 35.9785 46.7412 36.0938 47.0312 36.0938H50.3891C50.5996 37.7648 51.2879 39.3396 52.3714 40.629C53.455 41.9185 54.8876 42.8678 56.4974 43.3631C58.1072 43.8584 59.8257 43.8786 61.4466 43.4212C63.0676 42.9638 64.5221 42.0483 65.6356 40.7846C66.749 39.5209 67.4741 37.9627 67.7238 36.2971C67.9734 34.6314 67.7371 32.9291 67.0431 31.3945C66.3491 29.8599 65.2269 28.5582 63.8113 27.6456C62.3957 26.7331 60.7468 26.2485 59.0625 26.25ZM59.0625 41.5625C57.7646 41.5625 56.4958 41.1776 55.4166 40.4565C54.3374 39.7354 53.4962 38.7105 52.9995 37.5114C52.5028 36.3122 52.3729 34.9927 52.6261 33.7197C52.8793 32.4467 53.5043 31.2774 54.4221 30.3596C55.3399 29.4418 56.5092 28.8168 57.7822 28.5636C59.0552 28.3104 60.3747 28.4403 61.5739 28.937C62.773 29.4337 63.7979 30.2749 64.519 31.3541C65.2401 32.4333 65.625 33.7021 65.625 35C65.625 36.7405 64.9336 38.4097 63.7029 39.6404C62.4722 40.8711 60.803 41.5625 59.0625 41.5625Z" fill="#617792"/>
<path d="M59.0626 2.18754C57.5516 2.19506 56.0682 2.59375 54.7571 3.34479C53.4459 4.09582 52.3516 5.1736 51.5807 6.47316C50.8097 7.77273 50.3885 9.24979 50.3579 10.7605C50.3274 12.2712 50.6886 13.7641 51.4063 15.0938L43.1594 20.9891C42.9753 21.122 42.837 21.3088 42.7639 21.5238C42.6907 21.7388 42.6863 21.9712 42.7512 22.1888C42.8161 22.4065 42.9472 22.5985 43.1262 22.7382C43.3052 22.878 43.5232 22.9586 43.7501 22.9688C43.978 22.9673 44.1998 22.8947 44.3844 22.761L52.6532 16.8657C53.6391 17.936 54.8765 18.7436 56.2532 19.2152C57.6299 19.6869 59.1025 19.8077 60.5377 19.5667C61.9728 19.3258 63.3252 18.7307 64.4725 17.8354C65.6197 16.94 66.5255 15.7727 67.1078 14.439C67.6902 13.1054 67.9307 11.6475 67.8076 10.1975C67.6846 8.74745 67.2018 7.351 66.403 6.13458C65.6042 4.91815 64.5146 3.92017 63.2329 3.23098C61.9512 2.54178 60.5178 2.18315 59.0626 2.18754ZM59.0626 17.5C57.7646 17.5 56.4958 17.1152 55.4166 16.3941C54.3374 15.673 53.4963 14.648 52.9996 13.4489C52.5029 12.2498 52.3729 10.9303 52.6262 9.65726C52.8794 8.38426 53.5044 7.21493 54.4222 6.29715C55.34 5.37937 56.5093 4.75435 57.7823 4.50114C59.0553 4.24792 60.3748 4.37788 61.5739 4.87458C62.7731 5.37128 63.798 6.21241 64.5191 7.29161C65.2402 8.37081 65.6251 9.6396 65.6251 10.9375C65.6251 12.678 64.9337 14.3472 63.703 15.5779C62.4722 16.8086 60.8031 17.5 59.0626 17.5Z" fill="#617792"/>
<path d="M59.0626 50.3125C57.8576 50.3162 56.6662 50.5687 55.5633 51.0543C54.4604 51.5399 53.4697 52.248 52.6533 53.1344L44.3845 47.2391C44.149 47.0996 43.8698 47.0535 43.602 47.1099C43.3342 47.1662 43.0972 47.3209 42.9379 47.5434C42.7785 47.7659 42.7084 48.0401 42.7413 48.3118C42.7743 48.5835 42.9079 48.833 43.1158 49.011L51.4064 54.9063C50.4957 56.5935 50.1644 58.5332 50.4634 60.427C50.7624 62.3209 51.6752 64.0641 53.0614 65.3887C54.4476 66.7132 56.2305 67.5458 58.136 67.7585C60.0415 67.9711 61.9641 67.5519 63.6082 66.5655C65.2522 65.579 66.5268 64.0799 67.2359 62.2985C67.945 60.5171 68.0494 58.5522 67.533 56.7057C67.0166 54.8593 65.908 53.2335 64.3776 52.0785C62.8473 50.9234 60.9799 50.303 59.0626 50.3125ZM59.0626 65.625C57.7647 65.625 56.4959 65.2402 55.4167 64.5191C54.3375 63.798 53.4964 62.773 52.9997 61.5739C52.503 60.3748 52.373 59.0553 52.6262 57.7823C52.8794 56.5093 53.5045 55.3399 54.4222 54.4221C55.34 53.5044 56.5094 52.8793 57.7824 52.6261C59.0554 52.3729 60.3749 52.5029 61.574 52.9996C62.7731 53.4963 63.7981 54.3374 64.5192 55.4166C65.2403 56.4958 65.6251 57.7646 65.6251 59.0625C65.6251 60.803 64.9337 62.4722 63.703 63.7029C62.4723 64.9336 60.8031 65.625 59.0626 65.625Z" fill="#617792"/>
</svg>
