<svg width="32" height="40" viewBox="0 0 32 40" fill="none" xmlns="http://www.w3.org/2000/svg">
<g clip-path="url(#clip0_1599_3375)">
<path fill-rule="evenodd" clip-rule="evenodd" d="M1.24497 37.2614V34.025H21.7428C21.7428 34.8282 21.9047 37.532 21.5772 38.0918C21.2956 38.5733 20.9092 38.7552 20.249 38.7552H2.90458C1.81672 38.7552 1.24476 38.3471 1.24476 37.2614H1.24497ZM27.1371 19.3361C27.1371 19.8474 27.2654 19.9161 27.4981 20.3859C28.0275 21.4542 27.4631 21.9088 29.7927 21.9088V23.3196C29.4426 23.4011 29.1342 23.4394 28.7333 23.505C28.3004 23.5758 28.0785 23.6021 27.881 23.9805L27.5529 24.9801C26.8857 26.4432 26.9681 25.6466 28.1329 27.3859L27.2017 28.3636C26.9531 28.2406 26.7881 28.0976 26.5219 27.9179C25.4884 27.2206 25.7679 27.3746 24.6483 27.8847C24.5183 27.944 24.3551 27.9983 24.2232 28.0405C23.3753 28.3117 23.4405 28.1052 23.3005 29.0264C23.2627 29.2752 23.1767 29.8483 23.1536 30.1245H21.7428C21.7428 29.7399 21.6355 29.3663 21.5857 29.0368C21.5134 28.5577 21.5088 28.3617 21.0929 28.2017C20.811 28.0933 20.4507 28.0148 20.1649 27.8847C18.5786 27.1615 19.3346 27.4098 17.7591 28.4647L16.7434 27.4887C18.0005 25.679 17.8421 26.2857 17.2875 25.119C17.1282 24.7841 17.0635 24.4462 16.9433 24.1354C16.7279 23.5782 15.9026 23.5589 15.0205 23.4856V22.0749C15.5425 22.0749 16.706 21.9412 16.9014 21.466L17.211 20.5309C17.4118 20.0374 17.8247 19.5912 17.4451 19.0694C16.583 17.8849 16.4302 18.2126 17.0746 17.5728C17.6963 16.9554 17.4629 16.9294 18.3071 17.5435C19.1653 18.1678 18.9778 18.1372 19.9709 17.6474C20.1371 17.5654 20.261 17.5226 20.4392 17.4518C20.6687 17.3605 20.6997 17.372 20.9473 17.296C21.6042 17.0945 21.5766 16.1962 21.5766 15.3528C23.3346 15.3528 22.9961 15.1939 23.1619 16.2572C23.2236 16.6529 23.2479 17.0074 23.5652 17.1817C23.7599 17.2886 24.2636 17.4183 24.4931 17.4985C25.2244 17.7541 24.9523 17.9253 25.7259 17.9253C25.9606 17.9253 26.8927 17.0124 26.9707 17.0124C27.2647 17.0124 27.7904 17.7517 28.0496 17.9253C27.8903 18.1633 27.7606 18.3708 27.5742 18.6118C27.4716 18.7444 27.1367 19.1868 27.1367 19.3361H27.1371ZM20.2493 16.1827C19.9292 16.2094 19.4124 16.4695 19.1705 16.5975C17.3742 15.0362 17.293 15.529 16.2036 16.6182C14.8237 17.9981 14.8773 17.8699 15.5688 18.7882C16.4042 19.8978 16.2496 19.3078 15.8867 20.3677C15.6062 21.1874 13.6932 20.3381 13.6932 21.6596C13.6932 23.6095 13.3931 24.575 14.4379 24.7324C14.8045 24.7876 15.4682 24.8962 15.8509 24.8962C15.873 25.1611 15.9795 25.3258 16.1084 25.6346L16.1566 25.7524C16.2147 25.8593 16.2136 25.8319 16.2659 25.8921C14.8106 28.0655 14.808 27.332 17.0748 29.6475C17.8215 30.4103 18.0616 29.8259 19.0058 29.1301C19.2007 28.9864 19.1138 29.0881 19.2533 28.8797C19.4954 29.0077 20.012 29.2681 20.3321 29.2946C20.3399 29.6425 20.4498 30.081 20.5063 30.4481C20.6241 31.2106 20.5922 30.8905 20.9129 31.3693H21.7428V32.697H0.746898C0.337484 32.697 0 32.935 0 33.3609V37.7593C0 38.8289 1.17109 40 2.24069 40H20.7469C21.9684 40 23.0706 38.7828 23.0706 37.2614V31.3693H24.0665C24.5653 30.6245 24.321 31.0972 24.4981 29.8092C24.6026 29.049 24.5444 29.3606 25.2285 29.0458C25.772 28.7956 25.5136 28.8074 25.9741 29.1299C27.5381 30.2249 27.2693 30.1167 28.5686 28.8174C29.1673 28.2187 29.3594 28.1311 29.7097 27.469L29.2118 26.639C28.3143 25.4214 28.629 26.2461 28.9628 24.8132C29.3244 24.7289 29.8601 24.6259 30.2162 24.5731C31.333 24.407 31.0374 24.0978 31.0374 21.3277C31.0374 20.8314 30.6687 20.7369 30.2749 20.6795C29.8574 20.6184 29.3865 20.5808 28.9626 20.5808C28.8283 20.0043 28.5477 19.7103 28.5477 19.5021C28.5477 19.3837 29.5436 18.2415 29.5436 17.9253C29.5436 17.5409 29.3196 17.4085 29.1082 17.1991C28.8795 16.9726 28.7131 16.8044 28.4856 16.5769C27.1391 15.2304 27.2591 15.0751 25.9148 16.2053C25.6738 16.408 25.769 16.3604 25.4773 16.5147C24.3225 15.9037 24.5081 16.4537 24.3356 15.416C24.0598 13.7575 24.263 14.0252 21.245 14.0252C20.2358 14.0252 20.249 14.9171 20.249 16.1829L20.2493 16.1827Z" fill="#617792"/>
<path fill-rule="evenodd" clip-rule="evenodd" d="M1.24497 2.73861C1.24497 1.65292 1.81694 1.24481 2.9048 1.24481H20.0832C22.1481 1.24481 21.7431 2.68124 21.7431 4.64725H1.24519V2.73861H1.24497ZM0.000217311 2.24075V30.7054C0.724298 31.1903 0.544364 31.1746 1.24497 30.7054V5.97524H21.7428V9.12885C21.7428 10.0311 23.0706 10.0448 23.0706 9.04584V2.73882C23.0706 1.90761 22.8224 1.36781 22.4428 0.877121C22.3105 0.706097 21.9647 0.405991 21.7739 0.301247C21.5477 0.176945 21.0577 0.000488281 20.7469 0.000488281H2.24069C1.69611 0.000488281 1.06787 0.383608 0.725819 0.726307C0.38551 1.06727 0 1.59707 0 2.24118L0.000217311 2.24075Z" fill="#617792"/>
<path fill-rule="evenodd" clip-rule="evenodd" d="M21.7427 24.6475C20.7311 24.4117 19.6356 22.7404 20.9323 21.2644C21.9698 20.0833 24.3984 20.813 24.3984 22.4898C24.3984 23.8437 24.0255 24.1422 23.0707 24.6475C23.0707 23.3469 23.3571 21.6599 22.4068 21.6599C21.4693 21.6599 21.7429 23.13 21.7429 24.6475H21.7427ZM19.0871 22.3238V22.9877C19.0871 24.6447 20.7187 26.0583 22.4066 26.0583C25.2557 26.0583 26.896 22.5396 24.7509 20.3945C24.0566 19.7002 23.5414 19.4916 22.5217 19.3853C20.8726 19.2132 19.0869 20.8152 19.0869 22.324L19.0871 22.3238Z" fill="#617792"/>
<path fill-rule="evenodd" clip-rule="evenodd" d="M8.79688 17.2616C8.79688 17.6167 9.05265 17.9255 9.37775 17.9255C9.99535 17.9255 10.0751 17.3737 10.2652 16.9041L11.9505 12.6972C12.328 11.7708 12.6696 10.8525 13.0546 9.90106C13.2472 9.42537 13.4343 8.97619 13.6001 8.53765C14.0619 7.31615 12.9253 7.1862 12.5598 7.66363L10.7885 12.1163C10.6253 12.5171 8.79688 16.9189 8.79688 17.2616V17.2616Z" fill="#617792"/>
<path fill-rule="evenodd" clip-rule="evenodd" d="M3.98362 12.5308C3.98362 13.2336 4.70139 13.705 5.45677 14.4601C5.73971 14.7431 5.96201 14.9656 6.24495 15.2488C6.49595 15.4997 6.77932 15.9333 7.22003 15.9333C7.52057 15.9333 8.38112 15.5521 7.4067 14.5849L5.56021 12.6969L6.7426 11.3897C6.99381 11.1385 7.8837 10.3899 7.8837 10.0413C7.8837 9.75209 7.50905 9.37744 7.21981 9.37744C6.70739 9.37744 5.55564 10.7558 5.12428 11.1822C4.94109 11.3632 3.9834 12.3915 3.9834 12.5308H3.98362Z" fill="#617792"/>
<path fill-rule="evenodd" clip-rule="evenodd" d="M15.1865 9.70971C15.1865 10.5692 15.3373 10.4831 16.2861 11.4317C16.6379 11.7837 17.264 12.3294 17.5102 12.6971C17.1515 12.9372 16.6288 13.537 16.2861 13.8797C15.5755 14.5903 15.1865 14.7678 15.1865 15.4359C15.1865 15.8242 15.612 15.9337 15.9334 15.9337C16.1818 15.9337 16.6086 15.383 16.784 15.2075C17.1236 14.8678 19.1464 13.0726 19.087 12.6141C19.0336 12.201 17.1328 10.4525 16.784 10.1037C15.8065 9.12623 15.8923 9.23662 15.1865 9.70949V9.70971Z" fill="#617792"/>
<path fill-rule="evenodd" clip-rule="evenodd" d="M8.05002 36.5975V36.9295C8.28102 37.0843 8.33687 37.2614 8.71391 37.2614H14.274C15.1413 37.2614 15.3634 35.9336 14.108 35.9336H8.87971C8.38468 35.9336 8.0498 36.1029 8.0498 36.5975H8.05002Z" fill="#617792"/>
<path fill-rule="evenodd" clip-rule="evenodd" d="M10.8721 2.98762C10.8721 3.46287 11.283 3.6515 11.619 3.6515H14.4405C15.7692 3.6515 15.3915 2.32373 14.7724 2.32373H11.536C11.1346 2.32373 10.8721 2.58624 10.8721 2.98762V2.98762Z" fill="#617792"/>
</g>
<defs>
<clipPath id="clip0_1599_3375">
<rect width="31.0727" height="40" fill="white"/>
</clipPath>
</defs>
</svg>
