<svg width="70" height="70" viewBox="0 0 70 70" fill="none" xmlns="http://www.w3.org/2000/svg">
<path d="M17.7382 35H8.72559" stroke="#617792" stroke-width="2" stroke-miterlimit="10" stroke-linecap="round" stroke-linejoin="round"/>
<path d="M23.9604 20.8231L18.3817 15.2444C17.9971 14.8598 17.4755 14.6438 16.9315 14.6438H15.9961" stroke="#617792" stroke-width="2" stroke-miterlimit="10" stroke-linecap="round" stroke-linejoin="round"/>
<path d="M11.2107 14.6438H8.72559" stroke="#617792" stroke-width="2" stroke-miterlimit="10" stroke-linecap="round" stroke-linejoin="round"/>
<path d="M8.72559 55.3562H16.9313C17.4752 55.3562 17.9969 55.1401 18.3815 54.7555L23.9602 49.1769" stroke="#617792" stroke-width="2" stroke-miterlimit="10" stroke-linecap="round" stroke-linejoin="round"/>
<path d="M45.5723 43.5684L50.6265 48.6226" stroke="#617792" stroke-width="2" stroke-miterlimit="10" stroke-linecap="round" stroke-linejoin="round"/>
<path d="M37.0039 15.7346V23.0215" stroke="#617792" stroke-width="2" stroke-miterlimit="10" stroke-linecap="round" stroke-linejoin="round"/>
<path d="M56.0537 32.1145C54.6612 22.8434 46.6628 15.7346 37.0036 15.7346C26.3636 15.7346 17.7383 24.3601 17.7383 34.9999C17.7383 45.6398 26.3636 54.2652 37.0036 54.2652C46.6628 54.2652 54.6612 47.1566 56.0537 37.8854" stroke="#617792" stroke-width="2" stroke-miterlimit="10" stroke-linecap="round" stroke-linejoin="round"/>
<path d="M48.6318 37.8853H61.8412V40.0232C61.8412 40.3819 62.2561 40.5814 62.5363 40.3572L68.8144 35.3337C69.0284 35.1624 69.0284 34.8369 68.8144 34.6657L67.1347 33.3217" stroke="#617792" stroke-width="2" stroke-miterlimit="10" stroke-linecap="round" stroke-linejoin="round"/>
<path d="M63.398 30.3319L62.5363 29.6424C62.2561 29.4183 61.8412 29.6177 61.8412 29.9764V32.1143H48.6318" stroke="#617792" stroke-width="2" stroke-miterlimit="10" stroke-linecap="round" stroke-linejoin="round"/>
<path d="M25.2646 37.3925C26.3733 42.8616 31.2077 46.9784 37.0039 46.9784C43.6194 46.9784 48.9823 41.6155 48.9823 35C48.9823 28.3844 43.6194 23.0215 37.0039 23.0215C31.2077 23.0215 26.3733 27.1384 25.2646 32.6074" stroke="#617792" stroke-width="2" stroke-miterlimit="10" stroke-linecap="round" stroke-linejoin="round"/>
<path d="M31.1562 34.0888L35.7749 38.7076L42.9339 31.5486" stroke="#617792" stroke-width="2" stroke-miterlimit="10" stroke-linecap="round" stroke-linejoin="round"/>
<path d="M7.63205 38.8503H2.11914C1.51512 38.8503 1.02539 38.3606 1.02539 37.7566V32.2437C1.02539 31.6396 1.51512 31.1499 2.11914 31.1499H7.63205C8.23607 31.1499 8.7258 31.6396 8.7258 32.2437V37.7566C8.7258 38.3606 8.23607 38.8503 7.63205 38.8503Z" stroke="#617792" stroke-width="2" stroke-miterlimit="10" stroke-linecap="round" stroke-linejoin="round"/>
<path d="M7.63205 18.494H2.11914C1.51512 18.494 1.02539 18.0043 1.02539 17.4002V11.8873C1.02539 11.2833 1.51512 10.7936 2.11914 10.7936H7.63205C8.23607 10.7936 8.7258 11.2833 8.7258 11.8873V17.4002C8.7258 18.0043 8.23607 18.494 7.63205 18.494Z" stroke="#617792" stroke-width="2" stroke-miterlimit="10" stroke-linecap="round" stroke-linejoin="round"/>
<path d="M7.63205 59.2065H2.11914C1.51512 59.2065 1.02539 58.7168 1.02539 58.1128V52.5999C1.02539 51.9958 1.51512 51.5061 2.11914 51.5061H7.63205C8.23607 51.5061 8.7258 51.9958 8.7258 52.5999V58.1128C8.7258 58.7168 8.23607 59.2065 7.63205 59.2065Z" stroke="#617792" stroke-width="2" stroke-miterlimit="10" stroke-linecap="round" stroke-linejoin="round"/>
</svg>
