<svg width="70" height="70" viewBox="0 0 70 70" fill="none" xmlns="http://www.w3.org/2000/svg">
<path d="M60.3438 50.322C61.3146 49.3186 61.9684 48.0517 62.2238 46.6792C62.4792 45.3067 62.3248 43.8894 61.7799 42.604C61.2351 41.3187 60.3239 40.2222 59.1599 39.4513C57.996 38.6805 56.6308 38.2694 55.2348 38.2693C53.8387 38.2692 52.4735 38.6801 51.3095 39.4509C50.1455 40.2216 49.2341 41.318 48.6891 42.6033C48.1441 43.8885 47.9896 45.3058 48.2448 46.6784C48.5 48.0509 49.1537 49.3179 50.1243 50.3214C49.4403 50.3334 48.7611 50.4389 48.1057 50.6349C46.3089 49.0198 43.9785 48.1258 41.5625 48.125H40.7682C42.1063 46.9519 43.0549 45.3987 43.4875 43.6726C43.9201 41.9464 43.8161 40.1294 43.1894 38.4639C42.5627 36.7984 41.4431 35.3636 39.9799 34.3508C38.5167 33.338 36.7795 32.7954 35 32.7954C33.2205 32.7954 31.4833 33.338 30.0201 34.3508C28.5569 35.3636 27.4373 36.7984 26.8106 38.4639C26.1839 40.1294 26.0799 41.9464 26.5125 43.6726C26.9451 45.3987 27.8937 46.9519 29.2318 48.125H28.4375C26.0215 48.1258 23.6911 49.0198 21.8943 50.6349C21.2389 50.4389 20.5597 50.3334 19.8757 50.3214C20.8463 49.3179 21.5 48.0509 21.7552 46.6784C22.0104 45.3058 21.8559 43.8885 21.3109 42.6033C20.7659 41.318 19.8545 40.2216 18.6905 39.4509C17.5265 38.6801 16.1613 38.2692 14.7652 38.2693C13.3692 38.2694 12.004 38.6805 10.8401 39.4513C9.67613 40.2222 8.7649 41.3187 8.22005 42.604C7.6752 43.8894 7.52084 45.3067 7.77623 46.6792C8.03162 48.0517 8.68544 49.3186 9.65616 50.322C7.66031 50.3721 5.76285 51.1993 4.36785 52.6276C2.97286 54.0558 2.19054 55.9723 2.1875 57.9687V66.7187C2.1875 67.0088 2.30273 67.287 2.50785 67.4921C2.71297 67.6973 2.99117 67.8125 3.28125 67.8125C3.57133 67.8125 3.84953 67.6973 4.05465 67.4921C4.25977 67.287 4.375 67.0088 4.375 66.7187V57.9687C4.3767 56.5189 4.95342 55.1289 5.97864 54.1036C7.00386 53.0784 8.39387 52.5017 9.84375 52.5H19.6875C19.8731 52.5 20.0473 52.5335 20.2272 52.5509C19.1609 54.1565 18.5926 56.0413 18.5938 57.9687V66.7187C18.5938 67.0088 18.709 67.287 18.9141 67.4921C19.1192 67.6973 19.3974 67.8125 19.6875 67.8125C19.9776 67.8125 20.2558 67.6973 20.4609 67.4921C20.666 67.287 20.7812 67.0088 20.7812 66.7187V57.9687C20.7836 55.9389 21.591 53.9929 23.0263 52.5576C24.4616 51.1223 26.4077 50.3149 28.4375 50.3125H30.9605L32.2326 53.7027L30.64 63.2581C30.6113 63.4297 30.6241 63.6057 30.6772 63.7715C30.7304 63.9372 30.8223 64.0878 30.9455 64.2108L34.2267 67.4921C34.3283 67.5937 34.4488 67.6742 34.5815 67.7292C34.7142 67.7842 34.8564 67.8125 35 67.8125C35.1437 67.8125 35.2859 67.7842 35.4186 67.7292C35.5513 67.6742 35.6718 67.5937 35.7733 67.4921L39.0546 64.2108C39.1777 64.0878 39.2697 63.9372 39.3228 63.7715C39.376 63.6057 39.3887 63.4297 39.3601 63.2581L37.7675 53.7027L39.0395 50.3125H41.5625C43.5923 50.3149 45.5384 51.1223 46.9737 52.5576C48.409 53.9929 49.2164 55.9389 49.2188 57.9687V66.7187C49.2188 67.0088 49.334 67.287 49.5391 67.4921C49.7442 67.6973 50.0224 67.8125 50.3125 67.8125C50.6026 67.8125 50.8808 67.6973 51.0859 67.4921C51.291 67.287 51.4062 67.0088 51.4062 66.7187V57.9687C51.4074 56.0413 50.8391 54.1565 49.7728 52.5509C49.9527 52.5335 50.1269 52.5 50.3125 52.5H60.1562C61.6061 52.5017 62.9961 53.0784 64.0214 54.1036C65.0466 55.1289 65.6233 56.5189 65.625 57.9687V66.7187C65.625 67.0088 65.7402 67.287 65.9454 67.4921C66.1505 67.6973 66.4287 67.8125 66.7188 67.8125C67.0088 67.8125 67.287 67.6973 67.4921 67.4921C67.6973 67.287 67.8125 67.0088 67.8125 66.7187V57.9687C67.8095 55.9723 67.0271 54.0558 65.6321 52.6276C64.2372 51.1993 62.3397 50.3721 60.3438 50.322ZM14.7656 40.4687C15.7391 40.4687 16.6907 40.7574 17.5001 41.2982C18.3095 41.8391 18.9403 42.6077 19.3128 43.5071C19.6854 44.4065 19.7828 45.3961 19.5929 46.3508C19.403 47.3056 18.9343 48.1826 18.2459 48.8709C17.5576 49.5593 16.6806 50.028 15.7258 50.2179C14.7711 50.4078 13.7815 50.3104 12.8821 49.9378C11.9827 49.5653 11.2141 48.9345 10.6732 48.1251C10.1324 47.3157 9.84375 46.3641 9.84375 45.3906C9.84517 44.0857 10.3642 42.8346 11.2869 41.9119C12.2096 40.9892 13.4607 40.4702 14.7656 40.4687ZM28.4375 41.5625C28.4375 40.2646 28.8224 38.9958 29.5435 37.9166C30.2646 36.8374 31.2895 35.9962 32.4886 35.4995C33.6878 35.0028 35.0073 34.8729 36.2803 35.1261C37.5533 35.3793 38.7226 36.0043 39.6404 36.9221C40.5582 37.8399 41.1832 39.0092 41.4364 40.2822C41.6896 41.5552 41.5597 42.8747 41.063 44.0739C40.5663 45.273 39.7251 46.2979 38.6459 47.019C37.5667 47.7401 36.2979 48.125 35 48.125C33.2601 48.1231 31.592 47.4311 30.3617 46.2008C29.1314 44.9705 28.4394 43.3024 28.4375 41.5625ZM35 65.1721L32.8899 63.0626L34.2858 54.6875H35.7142L37.11 63.0626L35 65.1721ZM35.8823 52.5H34.1177L33.2974 50.3125H36.7026L35.8823 52.5ZM55.2344 40.4687C56.2078 40.4687 57.1594 40.7574 57.9688 41.2982C58.7782 41.8391 59.4091 42.6077 59.7816 43.5071C60.1541 44.4065 60.2516 45.3961 60.0617 46.3508C59.8718 47.3056 59.403 48.1826 58.7147 48.8709C58.0263 49.5593 57.1493 50.028 56.1946 50.2179C55.2398 50.4078 54.2502 50.3104 53.3509 49.9378C52.4515 49.5653 51.6828 48.9345 51.142 48.1251C50.6012 47.3157 50.3125 46.3641 50.3125 45.3906C50.3139 44.0857 50.8329 42.8346 51.7557 41.9119C52.6784 40.9892 53.9294 40.4702 55.2344 40.4687ZM9.84375 60.1562V66.7187C9.84375 67.0088 9.72852 67.287 9.5234 67.4921C9.31828 67.6973 9.04008 67.8125 8.75 67.8125C8.45992 67.8125 8.18172 67.6973 7.9766 67.4921C7.77148 67.287 7.65625 67.0088 7.65625 66.7187V60.1562C7.65625 59.8662 7.77148 59.588 7.9766 59.3829C8.18172 59.1777 8.45992 59.0625 8.75 59.0625C9.04008 59.0625 9.31828 59.1777 9.5234 59.3829C9.72852 59.588 9.84375 59.8662 9.84375 60.1562ZM62.3438 60.1562V66.7187C62.3438 67.0088 62.2285 67.287 62.0234 67.4921C61.8183 67.6973 61.5401 67.8125 61.25 67.8125C60.9599 67.8125 60.6817 67.6973 60.4766 67.4921C60.2715 67.287 60.1562 67.0088 60.1562 66.7187V60.1562C60.1562 59.8662 60.2715 59.588 60.4766 59.3829C60.6817 59.1777 60.9599 59.0625 61.25 59.0625C61.5401 59.0625 61.8183 59.1777 62.0234 59.3829C62.2285 59.588 62.3438 59.8662 62.3438 60.1562ZM26.25 60.1562V66.7187C26.25 67.0088 26.1348 67.287 25.9296 67.4921C25.7245 67.6973 25.4463 67.8125 25.1562 67.8125C24.8662 67.8125 24.588 67.6973 24.3829 67.4921C24.1777 67.287 24.0625 67.0088 24.0625 66.7187V60.1562C24.0625 59.8662 24.1777 59.588 24.3829 59.3829C24.588 59.1777 24.8662 59.0625 25.1562 59.0625C25.4463 59.0625 25.7245 59.1777 25.9296 59.3829C26.1348 59.588 26.25 59.8662 26.25 60.1562ZM45.9375 60.1562V66.7187C45.9375 67.0088 45.8223 67.287 45.6171 67.4921C45.412 67.6973 45.1338 67.8125 44.8438 67.8125C44.5537 67.8125 44.2755 67.6973 44.0704 67.4921C43.8652 67.287 43.75 67.0088 43.75 66.7187V60.1562C43.75 59.8662 43.8652 59.588 44.0704 59.3829C44.2755 59.1777 44.5537 59.0625 44.8438 59.0625C45.1338 59.0625 45.412 59.1777 45.6171 59.3829C45.8223 59.588 45.9375 59.8662 45.9375 60.1562ZM28.6495 16.2273L27.5248 22.784C27.4903 22.9851 27.5129 23.1919 27.5898 23.381C27.6667 23.57 27.795 23.7338 27.9601 23.8537C28.1252 23.9737 28.3206 24.045 28.5242 24.0598C28.7277 24.0745 28.9314 24.0319 29.112 23.937L35 20.8416L40.888 23.937C41.0686 24.0319 41.2723 24.0745 41.4758 24.0598C41.6794 24.045 41.8748 23.9737 42.0399 23.8537C42.205 23.7338 42.3333 23.57 42.4102 23.381C42.4871 23.1919 42.5097 22.9851 42.4752 22.784L41.3505 16.2273L46.1138 11.5848C46.26 11.4424 46.3635 11.2619 46.4125 11.0637C46.4615 10.8656 46.4541 10.6577 46.3911 10.4635C46.3281 10.2693 46.212 10.0967 46.0559 9.96508C45.8999 9.83347 45.7101 9.74815 45.5081 9.71878L38.9249 8.76228L35.9811 2.7974C35.8804 2.62683 35.7369 2.48547 35.5648 2.38727C35.3928 2.28908 35.1981 2.23743 35 2.23743C34.8019 2.23743 34.6073 2.28908 34.4352 2.38727C34.2632 2.48547 34.1197 2.62683 34.019 2.7974L31.0752 8.76228L24.4919 9.71878C24.2899 9.74815 24.1002 9.83347 23.9441 9.96508C23.7881 10.0967 23.672 10.2693 23.609 10.4635C23.546 10.6577 23.5386 10.8656 23.5876 11.0637C23.6366 11.2619 23.7401 11.4424 23.8863 11.5848L28.6495 16.2273ZM31.9585 10.8445C32.1341 10.819 32.3009 10.7512 32.4445 10.6469C32.588 10.5426 32.7041 10.405 32.7826 10.2459L35 5.75287L37.2174 10.2459C37.2959 10.405 37.412 10.5427 37.5555 10.647C37.6991 10.7513 37.8659 10.8191 38.0415 10.8446L43.0002 11.565L39.4118 15.062C39.2849 15.1859 39.1899 15.3387 39.135 15.5073C39.0801 15.676 39.067 15.8554 39.0968 16.0303L39.9443 20.9692L35.509 18.6375C35.352 18.5551 35.1773 18.512 35 18.512C34.8227 18.512 34.648 18.5551 34.491 18.6375L30.0557 20.9692L30.9032 16.0302C30.933 15.8554 30.9199 15.6759 30.865 15.5073C30.8101 15.3386 30.7151 15.1858 30.5882 15.062L26.9998 11.565L31.9585 10.8445ZM9.0181 25.4665L8.1652 30.4402C8.13075 30.6414 8.15326 30.8482 8.23018 31.0372C8.30711 31.2263 8.43538 31.39 8.6005 31.51C8.76563 31.6299 8.96101 31.7013 9.16458 31.716C9.36814 31.7307 9.57176 31.6882 9.75242 31.5932L14.2188 29.245L18.6851 31.5933C18.8657 31.6882 19.0694 31.7308 19.2729 31.716C19.4765 31.7013 19.6719 31.6299 19.837 31.51C20.0021 31.39 20.1304 31.2263 20.2073 31.0372C20.2842 30.8482 20.3068 30.6414 20.2723 30.4402L19.4194 25.4666L23.0323 21.945C23.1786 21.8026 23.282 21.6221 23.331 21.424C23.38 21.2258 23.3726 21.0179 23.3096 20.8237C23.2466 20.6296 23.1305 20.4569 22.9745 20.3253C22.8184 20.1937 22.6287 20.1084 22.4267 20.079L17.4327 19.3532L15.1998 14.8286C15.0991 14.6581 14.9556 14.5167 14.7836 14.4185C14.6116 14.3203 14.4169 14.2687 14.2188 14.2687C14.0207 14.2687 13.826 14.3203 13.654 14.4185C13.4819 14.5167 13.3385 14.6581 13.2377 14.8286L11.0048 19.3532L6.01086 20.079C5.80884 20.1083 5.61908 20.1936 5.46303 20.3253C5.30699 20.4569 5.19089 20.6295 5.12787 20.8237C5.06484 21.0178 5.05742 21.2258 5.10643 21.4239C5.15544 21.6221 5.25893 21.8026 5.40519 21.945L9.0181 25.4665ZM11.8887 21.4355C12.0642 21.4099 12.2308 21.342 12.3743 21.2377C12.5177 21.1335 12.6337 20.9958 12.7122 20.8368L14.2188 17.7836L15.7253 20.8368C15.8038 20.9958 15.9198 21.1335 16.0632 21.2377C16.2067 21.342 16.3733 21.4099 16.5488 21.4355L19.9188 21.9252L17.4808 24.3012C17.3538 24.4251 17.2588 24.5779 17.2039 24.7465C17.149 24.9152 17.1359 25.0946 17.1657 25.2695L17.7414 28.6255L14.7277 27.0409C14.5707 26.9585 14.3961 26.9154 14.2188 26.9154C14.0414 26.9154 13.8668 26.9585 13.7098 27.0409L10.6961 28.6255L11.2718 25.2695C11.3016 25.0946 11.2885 24.9152 11.2336 24.7465C11.1787 24.5779 11.0837 24.4251 10.9567 24.3012L8.51876 21.9252L11.8887 21.4355ZM50.5806 25.4665L49.7277 30.4402C49.6932 30.6414 49.7158 30.8482 49.7927 31.0372C49.8696 31.2263 49.9979 31.39 50.163 31.51C50.3281 31.6299 50.5235 31.7013 50.7271 31.716C50.9306 31.7307 51.1343 31.6882 51.3149 31.5932L55.7812 29.245L60.2476 31.5933C60.4282 31.6882 60.6319 31.7308 60.8354 31.716C61.039 31.7013 61.2344 31.6299 61.3995 31.51C61.5646 31.39 61.6929 31.2263 61.7698 31.0372C61.8467 30.8482 61.8693 30.6414 61.8348 30.4402L60.9819 25.4666L64.5948 21.945C64.7411 21.8026 64.8445 21.6221 64.8935 21.424C64.9425 21.2258 64.9351 21.0179 64.8721 20.8237C64.8091 20.6296 64.693 20.4569 64.537 20.3253C64.3809 20.1937 64.1912 20.1084 63.9892 20.079L58.9952 19.3532L56.7623 14.8286C56.6616 14.6581 56.5181 14.5167 56.3461 14.4185C56.1741 14.3203 55.9794 14.2687 55.7813 14.2687C55.5832 14.2687 55.3885 14.3203 55.2165 14.4185C55.0444 14.5167 54.901 14.6581 54.8002 14.8286L52.5673 19.3532L47.5734 20.079C47.3714 20.1083 47.1816 20.1937 47.0256 20.3253C46.8695 20.4569 46.7534 20.6295 46.6904 20.8237C46.6274 21.0178 46.62 21.2258 46.669 21.4239C46.718 21.6221 46.8215 21.8026 46.9677 21.945L50.5806 25.4665ZM53.4512 21.4355C53.6267 21.4099 53.7933 21.342 53.9368 21.2377C54.0802 21.1335 54.1962 20.9958 54.2747 20.8368L55.7812 17.7836L57.2878 20.8368C57.3663 20.9958 57.4823 21.1335 57.6257 21.2377C57.7692 21.342 57.9358 21.4099 58.1113 21.4355L61.4813 21.9252L59.0433 24.3012C58.9163 24.4251 58.8213 24.5779 58.7664 24.7465C58.7115 24.9152 58.6984 25.0946 58.7282 25.2695L59.3039 28.6255L56.2902 27.0409C56.1332 26.9585 55.9586 26.9154 55.7813 26.9154C55.604 26.9154 55.4293 26.9585 55.2723 27.0409L52.2586 28.6255L52.8343 25.2695C52.8641 25.0946 52.851 24.9152 52.7961 24.7465C52.7412 24.5779 52.6462 24.4251 52.5192 24.3012L50.0813 21.9252L53.4512 21.4355Z" fill="#617792"/>
</svg>
