<svg width="70" height="70" viewBox="0 0 70 70" fill="none" xmlns="http://www.w3.org/2000/svg">
<path d="M68.9062 39.4353V30.5647C68.9062 30.0274 68.5161 29.5697 67.9855 29.4848L62.5592 28.6162C61.8568 25.569 60.6618 22.6868 58.9993 20.0297L62.2241 15.5757C62.5394 15.1405 62.4915 14.5409 62.1117 14.1609L55.8392 7.88854C55.4594 7.50873 54.8598 7.46088 54.4243 7.77602L49.9703 11.0008C47.3123 9.33803 44.4304 8.14324 41.3838 7.44078L40.5152 2.01469C40.4303 1.48408 39.9725 1.09375 39.4352 1.09375H30.5646C30.0273 1.09375 29.5695 1.48408 29.4846 2.01455L28.6161 7.44064C25.569 8.14311 22.6868 9.33789 20.0294 11.0005L15.5755 7.77588C15.1405 7.46074 14.5407 7.50859 14.1606 7.8884L7.88812 14.1608C7.50832 14.5407 7.46047 15.1404 7.77574 15.5757L11.0005 20.0296C9.33721 22.6885 8.14242 25.5701 7.44051 28.6161L2.01441 29.4846C1.48395 29.5697 1.09375 30.0274 1.09375 30.5647V39.4353C1.09375 39.9726 1.48395 40.4303 2.01455 40.5152L7.44064 41.3838C8.14311 44.4307 9.33803 47.3129 11.0007 49.9703L7.77588 54.4243C7.46061 54.8595 7.50846 55.4591 7.88826 55.8391L14.1608 62.1115C14.541 62.4915 15.1406 62.5388 15.5757 62.224L20.0296 58.9992C22.6885 60.6625 25.5705 61.8574 28.6162 62.5592L29.4848 67.9853C29.5697 68.5158 30.0275 68.9061 30.5647 68.9061H39.4353C39.9726 68.9061 40.4303 68.5158 40.5152 67.9853L41.2945 63.1174C44.1433 66.6453 48.5015 68.9061 53.3786 68.9061C61.9406 68.9062 68.9062 61.9406 68.9062 53.3786C68.9062 48.5015 66.6453 44.1432 63.1174 41.2944L67.9853 40.5152C68.5161 40.4305 68.9062 39.9727 68.9062 39.4353ZM54.5375 37.8942C54.1548 37.8658 53.7685 37.851 53.3786 37.851C51.0305 37.851 48.8033 38.3759 46.8061 39.3128V37.5833C46.8061 34.9989 44.8491 33.0314 41.4366 32.185C40.2474 31.8901 39.0595 31.6787 37.8749 31.5453C39.6863 30.2739 40.9145 27.8422 40.9145 25.0558C40.9145 21.287 38.6482 18.9457 35.0001 18.9457C31.3519 18.9457 29.0857 21.287 29.0857 25.0558C29.0857 27.8362 30.3086 30.2632 32.1136 31.5368C30.9185 31.6699 29.7311 31.8846 28.5545 32.1871C25.0977 33.0757 23.1939 34.9921 23.1939 37.5833V47.3145C23.1939 47.9186 23.6837 48.4083 24.2877 48.4083H38.6668C38.138 49.9695 37.851 51.6411 37.851 53.3786C37.851 53.7683 37.8658 54.1548 37.8942 54.5375C36.9374 54.6781 35.9678 54.7493 35 54.7493C24.1102 54.7493 15.2507 45.8898 15.2507 34.9999C15.2507 24.1099 24.1102 15.2506 35 15.2506C45.8898 15.2506 54.7493 24.1102 54.7493 35C54.7493 35.9678 54.6781 36.9374 54.5375 37.8942ZM40.8445 38.7265C40.2404 38.7265 39.7507 39.2163 39.7507 39.8203V45.9423C39.7003 46.0344 39.651 46.1274 39.6024 46.2206H30.249V39.8203C30.249 39.2163 29.7593 38.7265 29.1553 38.7265C28.5512 38.7265 28.0615 39.2163 28.0615 39.8203V46.2206H25.3813V37.5832C25.3813 35.664 27.4029 34.7416 29.0989 34.3056C32.9443 33.3167 36.9178 33.3175 40.9098 34.3079C42.2949 34.6515 44.6184 35.5338 44.6184 37.5832V40.5649C43.6386 41.237 42.7391 42.018 41.9382 42.8911V39.8202C41.9382 39.2163 41.4485 38.7265 40.8445 38.7265ZM35 30.2976C32.945 30.2976 31.273 27.946 31.273 25.0556C31.273 21.6426 33.6081 21.133 35 21.133C36.3919 21.133 38.7268 21.6427 38.7268 25.0556C38.7268 27.9461 37.0549 30.2976 35 30.2976ZM66.7188 53.3786C66.7188 60.7344 60.7344 66.7188 53.3786 66.7188C46.0228 66.7188 40.0385 60.7344 40.0385 53.3786C40.0385 46.0227 46.0228 40.0385 53.3786 40.0385C60.7344 40.0385 66.7188 46.0228 66.7188 53.3786ZM66.7188 38.5027L61.4754 39.3419C61.2009 39.3859 60.9614 39.5318 60.795 39.7398C59.5269 39.0474 58.1518 38.5276 56.7019 38.2103C56.8578 37.1489 56.9368 36.0734 56.9368 35C56.9368 22.9039 47.0959 13.0632 34.9999 13.0632C22.9038 13.0632 13.0631 22.9041 13.0631 35C13.0631 47.0959 22.9039 56.9369 34.9999 56.9369C36.0734 56.9369 37.1488 56.8579 38.2102 56.702C38.5276 58.152 39.0474 59.5271 39.7398 60.7953C39.5318 60.9615 39.3859 61.2011 39.3419 61.4757L38.5026 66.7188H31.4973L30.6579 61.4756C30.5859 61.0252 30.2419 60.6669 29.795 60.5765C26.5033 59.9104 23.409 58.6276 20.5979 56.7636C20.2181 56.5117 19.7217 56.5219 19.3521 56.7893L15.0482 59.9055L10.0948 54.9519L13.2109 50.6479C13.4783 50.2785 13.4885 49.782 13.2366 49.402C11.3734 46.5929 10.0904 43.4986 9.42361 40.205C9.33311 39.758 8.97477 39.4141 8.52455 39.3421L3.28125 38.5027V31.4973L8.52441 30.6579C8.97477 30.5859 9.33311 30.2419 9.42348 29.795C10.0897 26.5032 11.3725 23.409 13.2364 20.598C13.4885 20.2181 13.4783 19.7215 13.2107 19.3521L10.0946 15.0484L15.0481 10.0948L19.352 13.2109C19.7213 13.4783 20.218 13.4884 20.5979 13.2364C23.4069 11.3734 26.5013 10.0904 29.795 9.42348C30.2419 9.33297 30.5858 8.97463 30.6579 8.52441L31.4973 3.28125H38.5026L39.3419 8.52441C39.414 8.97463 39.758 9.33297 40.2049 9.42348C43.4978 10.0903 46.5921 11.3732 49.402 13.2364C49.7818 13.4883 50.2782 13.4783 50.6477 13.2107L54.9516 10.0946L59.9052 15.0482L56.7891 19.3521C56.5217 19.7215 56.5115 20.218 56.7634 20.598C58.6265 23.4068 59.9093 26.5012 60.5764 29.795C60.6669 30.2419 61.0252 30.5858 61.4754 30.6579L66.7188 31.4973V38.5027ZM57.7819 47.3576L51.2464 53.9882L48.9755 51.7173C48.3678 51.1096 47.5598 50.7747 46.7003 50.7747C45.8407 50.7747 45.0327 51.1094 44.425 51.7171C43.8171 52.3249 43.4823 53.133 43.4823 53.9924C43.4823 54.852 43.817 55.66 44.4248 56.2677L48.98 60.8229C49.6074 61.4502 50.4313 61.7638 51.2553 61.7637C52.0793 61.7637 52.9035 61.45 53.5307 60.8228C55.8538 58.4995 60.5966 53.6446 62.3402 51.8837C62.9452 51.2753 63.277 50.4679 63.2747 49.61C63.2722 48.7521 62.9359 47.9464 62.3276 47.3416C61.072 46.0928 59.0342 46.0984 57.7819 47.3576ZM60.7873 50.3431C59.0368 52.111 54.298 56.9621 51.9837 59.2762C51.5821 59.6779 50.9284 59.6779 50.5269 59.2762L45.9718 54.721H45.9717C45.7771 54.5264 45.6699 54.2678 45.6699 53.9926C45.6699 53.7175 45.7771 53.4587 45.9718 53.2641C46.1664 53.0696 46.4249 52.9624 46.7003 52.9624C46.9755 52.9624 47.234 53.0696 47.4287 53.2641L50.4788 56.314C50.6838 56.5191 50.9621 56.6344 51.252 56.6344H51.256C51.5475 56.6333 51.8264 56.516 52.0309 56.3084L59.3362 48.8969C59.7345 48.4963 60.3844 48.4947 60.7852 48.8929C60.9792 49.0859 61.0863 49.3428 61.0872 49.6163C61.0877 49.8898 60.982 50.1473 60.7873 50.3431Z" fill="#617792"/>
</svg>
