<svg width="70" height="70" viewBox="0 0 70 70" fill="none" xmlns="http://www.w3.org/2000/svg">
<g clip-path="url(#clip0_1599_2517)">
<path d="M31.6129 35.0001C31.6129 26.2839 24.5226 19.1936 15.8065 19.1936C7.09032 19.1936 0 26.2839 0 35.0001C0 43.7162 7.09032 50.8065 15.8065 50.8065C24.5226 50.8065 31.6129 43.7162 31.6129 35.0001ZM2.25806 35.0001C2.25806 27.5292 8.33565 21.4517 15.8065 21.4517C23.2773 21.4517 29.3548 27.5292 29.3548 35.0001C29.3548 42.4709 23.2773 48.5484 15.8065 48.5484C8.33565 48.5484 2.25806 42.4709 2.25806 35.0001Z" fill="#617792"/>
<path d="M27.0972 35C27.0972 28.7746 22.0324 23.7097 15.8069 23.7097C9.58144 23.7097 4.5166 28.7746 4.5166 35C4.5166 41.2255 9.58144 46.2904 15.8069 46.2904C22.0324 46.2904 27.0972 41.2255 27.0972 35ZM6.77467 35C6.77467 30.0199 10.8268 25.9678 15.8069 25.9678C20.7871 25.9678 24.8392 30.0199 24.8392 35C24.8392 39.9802 20.7871 44.0323 15.8069 44.0323C10.8268 44.0323 6.77467 39.9802 6.77467 35Z" fill="#617792"/>
<path d="M20.3223 35C20.3223 32.5094 18.2968 30.4839 15.8062 30.4839C13.3155 30.4839 11.29 32.5094 11.29 35C11.29 37.4907 13.3155 39.5161 15.8062 39.5161C18.2968 39.5161 20.3223 37.4907 20.3223 35ZM13.5481 35C13.5481 33.7547 14.5608 32.742 15.8062 32.742C17.0515 32.742 18.0642 33.7547 18.0642 35C18.0642 36.2453 17.0515 37.2581 15.8062 37.2581C14.5608 37.2581 13.5481 36.2453 13.5481 35Z" fill="#617792"/>
<path d="M66.6132 54.1936H44.0326C42.1652 54.1936 40.6455 55.7133 40.6455 57.5807V66.613C40.6455 68.4804 42.1652 70.0001 44.0326 70.0001H66.6132C68.4807 70.0001 70.0003 68.4804 70.0003 66.613V57.5807C70.0003 55.7133 68.4807 54.1936 66.6132 54.1936ZM67.7423 66.613C67.7423 67.2362 67.2353 67.742 66.6132 67.742H44.0326C43.4105 67.742 42.9036 67.2362 42.9036 66.613V57.5807C42.9036 56.9575 43.4105 56.4517 44.0326 56.4517H66.6132C67.2353 56.4517 67.7423 56.9575 67.7423 57.5807V66.613Z" fill="#617792"/>
<path d="M66.6132 36.129H44.0326C42.1652 36.129 40.6455 37.6487 40.6455 39.5161V48.5484C40.6455 50.4158 42.1652 51.9355 44.0326 51.9355H66.6132C68.4807 51.9355 70.0003 50.4158 70.0003 48.5484V39.5161C70.0003 37.6487 68.4807 36.129 66.6132 36.129ZM67.7423 48.5484C67.7423 49.1716 67.2353 49.6774 66.6132 49.6774H44.0326C43.4105 49.6774 42.9036 49.1716 42.9036 48.5484V39.5161C42.9036 38.8929 43.4105 38.3871 44.0326 38.3871H66.6132C67.2353 38.3871 67.7423 38.8929 67.7423 39.5161V48.5484Z" fill="#617792"/>
<path d="M66.6132 18.0646H44.0326C42.1652 18.0646 40.6455 19.5843 40.6455 21.4517V30.4839C40.6455 32.3513 42.1652 33.871 44.0326 33.871H66.6132C68.4807 33.871 70.0003 32.3513 70.0003 30.4839V21.4517C70.0003 19.5843 68.4807 18.0646 66.6132 18.0646ZM67.7423 30.4839C67.7423 31.1072 67.2353 31.613 66.6132 31.613H44.0326C43.4105 31.613 42.9036 31.1072 42.9036 30.4839V21.4517C42.9036 20.8284 43.4105 20.3226 44.0326 20.3226H66.6132C67.2353 20.3226 67.7423 20.8284 67.7423 21.4517V30.4839Z" fill="#617792"/>
<path d="M66.6132 0H44.0326C42.1652 0 40.6455 1.51968 40.6455 3.3871V12.4194C40.6455 14.2868 42.1652 15.8065 44.0326 15.8065H66.6132C68.4807 15.8065 70.0003 14.2868 70.0003 12.4194V3.3871C70.0003 1.51968 68.4807 0 66.6132 0ZM67.7423 12.4194C67.7423 13.0426 67.2353 13.5484 66.6132 13.5484H44.0326C43.4105 13.5484 42.9036 13.0426 42.9036 12.4194V3.3871C42.9036 2.76387 43.4105 2.25806 44.0326 2.25806H66.6132C67.2353 2.25806 67.7423 2.76387 67.7423 3.3871V12.4194Z" fill="#617792"/>
<path d="M53.0641 26.6294L51.6043 25.1696L50.0078 26.766L53.0641 29.8223L59.5075 23.3789L57.911 21.7825L53.0641 26.6294Z" fill="#617792"/>
<path d="M53.0641 8.56483L51.6043 7.10499L50.0078 8.70144L53.0641 11.7577L59.5075 5.31435L57.911 3.7179L53.0641 8.56483Z" fill="#617792"/>
<path d="M53.0641 62.7584L51.6043 61.2986L50.0078 62.895L53.0641 65.9513L59.5075 59.508L57.911 57.9115L53.0641 62.7584Z" fill="#617792"/>
<path d="M63.2256 42.9032H65.4837V45.1613H63.2256V42.9032Z" fill="#617792"/>
<path d="M58.71 42.9032H60.968V45.1613H58.71V42.9032Z" fill="#617792"/>
<path d="M54.1934 42.9032H56.4514V45.1613H54.1934V42.9032Z" fill="#617792"/>
<path d="M49.6777 42.9032H51.9358V45.1613H49.6777V42.9032Z" fill="#617792"/>
<path d="M45.1611 42.9032H47.4192V45.1613H45.1611V42.9032Z" fill="#617792"/>
<path d="M16.9358 59.8386V53.0645H14.6777V59.8386C14.6777 61.7061 16.1974 63.2257 18.0648 63.2257H38.3874V60.9677H18.0648C17.4427 60.9677 16.9358 60.4619 16.9358 59.8386Z" fill="#617792"/>
<path d="M31.6133 42.9032H38.3875V45.1613H31.6133V42.9032Z" fill="#617792"/>
<path d="M14.6777 10.1613V16.9355H16.9358V10.1613C16.9358 9.53804 17.4427 9.03223 18.0648 9.03223H38.3874V6.77417H18.0648C16.1974 6.77417 14.6777 8.29385 14.6777 10.1613Z" fill="#617792"/>
<path d="M31.6133 24.8387H38.3875V27.0968H31.6133V24.8387Z" fill="#617792"/>
</g>
<defs>
<clipPath id="clip0_1599_2517">
<rect width="70" height="70" fill="white"/>
</clipPath>
</defs>
</svg>
