<svg width="70" height="70" viewBox="0 0 70 70" fill="none" xmlns="http://www.w3.org/2000/svg">
<g clip-path="url(#clip0_1599_2609)">
<path d="M13.0508 57.876C10.7508 57.876 8.52625 57.0557 6.78731 55.5652C4.62882 53.7294 3.38965 51.0488 3.38965 48.2148C3.38965 42.8875 7.72342 38.5535 13.051 38.5535C18.3786 38.5535 22.7124 42.8872 22.7124 48.2148C22.7124 51.0477 21.4732 53.7276 19.3123 55.5676C17.5753 57.0557 15.3507 57.876 13.0508 57.876ZM13.0508 40.9264C9.032 40.9264 5.76233 44.196 5.76233 48.2148C5.76233 50.3519 6.69734 52.3738 8.32754 53.7606C9.64031 54.885 11.3167 55.5031 13.0508 55.5031C14.7849 55.5031 16.4613 54.885 17.7712 53.7635C19.4042 52.3724 20.3393 50.3512 20.3393 48.2148C20.3393 44.196 17.0696 40.9264 13.0508 40.9264Z" fill="#617792"/>
<path d="M26.1017 69.9121H23.7288V63.6057C23.7288 60.2943 21.7509 57.319 18.7467 56.0155C17.1032 57.2204 15.1074 57.8763 13.0508 57.8763C10.9943 57.8763 8.99845 57.2204 7.355 56.0155C4.35057 57.319 2.3729 60.2931 2.3729 63.6046V69.911H0V63.6046C0 59.0697 2.88218 55.0261 7.17131 53.5429C7.56698 53.405 8.01083 53.489 8.33046 53.7637C9.64036 54.8853 11.3168 55.5034 13.0508 55.5034C14.7849 55.5034 16.4613 54.8853 17.7712 53.7637C18.0904 53.4892 18.5336 53.4052 18.9304 53.5429C23.2197 55.0259 26.1017 59.0697 26.1017 63.6057V69.9121Z" fill="#617792"/>
<path d="M56.9492 57.876C54.6493 57.876 52.4247 57.0557 50.6857 55.5652C48.5273 53.7294 47.2881 51.0488 47.2881 48.2148C47.2881 42.8875 51.6219 38.5535 56.9494 38.5535C62.277 38.5535 66.6108 42.8872 66.6108 48.2148C66.6108 51.0477 65.3716 53.7276 63.2107 55.5676C61.4738 57.0557 59.2492 57.876 56.9492 57.876ZM56.9492 40.9264C52.9304 40.9264 49.6608 44.196 49.6608 48.2148C49.6608 50.3519 50.5958 52.3738 52.226 53.7606C53.5387 54.885 55.2151 55.5031 56.9492 55.5031C58.6831 55.5031 60.3597 54.885 61.6696 53.7635C63.3027 52.3724 64.2377 50.3512 64.2377 48.2148C64.2377 44.196 60.968 40.9264 56.9492 40.9264Z" fill="#617792"/>
<path d="M70.0001 69.912H67.6272V63.6057C67.6272 60.2942 65.6493 57.319 62.6445 56.0155C61.0014 57.2193 59.0059 57.8751 56.9493 57.8751C54.8927 57.8751 52.8969 57.2193 51.2534 56.0144C48.249 57.3179 46.2713 60.2931 46.2713 63.6046V69.9109H43.8984V63.6046C43.8984 59.0685 46.7806 55.025 51.0697 53.5418C51.4661 53.405 51.9086 53.4874 52.2289 53.7626C53.5388 54.8842 55.2152 55.5022 56.9493 55.5022C58.6831 55.5022 60.3598 54.8842 61.6697 53.7626C61.9888 53.4874 62.4309 53.4034 62.8295 53.5424C67.1188 55.0267 70.0003 59.071 70.0003 63.6057V69.912H70.0001Z" fill="#617792"/>
<path d="M32.6268 4.81338C31.9716 4.81338 31.4404 4.28221 31.4404 3.62704V1.27447C31.4404 0.619302 31.9716 0.0881348 32.6268 0.0881348C33.2819 0.0881348 33.8131 0.619302 33.8131 1.27447V3.62704C33.8133 4.28221 33.2819 4.81338 32.6268 4.81338Z" fill="#617792"/>
<path d="M32.6268 29.7491C31.9716 29.7491 31.4404 29.218 31.4404 28.5628V15.8594C31.4404 15.2043 31.9716 14.6731 32.6268 14.6731C33.2819 14.6731 33.8131 15.2043 33.8131 15.8594V28.5628C33.8133 29.2177 33.2819 29.7491 32.6268 29.7491Z" fill="#617792"/>
<path d="M50.505 17.0458H32.6268C31.9716 17.0458 31.4404 16.5146 31.4404 15.8595V3.62714C31.4404 2.97196 31.9716 2.4408 32.6268 2.4408H50.505C50.9471 2.4408 51.352 2.68638 51.5565 3.0774C51.7609 3.46909 51.7313 3.94168 51.4789 4.30441L47.6971 9.74363L51.4789 15.1822C51.7315 15.5449 51.7609 16.0175 51.5565 16.4092C51.352 16.8002 50.9471 17.0458 50.505 17.0458ZM33.8133 14.6729H48.2349L45.278 10.4207C44.9946 10.0135 44.9946 9.47351 45.278 9.06635L48.2349 4.81347H33.8133V14.6729Z" fill="#617792"/>
<path d="M15.7797 37.5798L13.8818 36.1558L15.3058 34.2575L17.2037 35.6815L15.7797 37.5798ZM18.6272 33.7829L16.7293 32.359L18.1533 30.4611L20.0512 31.885L18.6272 33.7829ZM21.4745 29.9865L19.5766 28.5625L21.0005 26.6642L22.8984 28.0882L21.4745 29.9865ZM24.3228 26.1896L22.4238 24.7657L23.8471 22.8674L25.7461 24.2913L24.3228 26.1896ZM27.1703 22.3934L25.2713 20.9695L26.6946 19.0712L28.5936 20.4951L27.1703 22.3934Z" fill="#617792"/>
<path d="M55.4302 37.6092L53.9476 35.7567L55.8002 34.2737L57.2827 36.1262L55.4302 37.6092ZM52.4651 33.9028L50.9832 32.0502L52.8358 30.5683L54.3176 32.4209L52.4651 33.9028ZM49.5007 30.1974L48.0181 28.3449L49.8707 26.8619L51.3532 28.7144L49.5007 30.1974ZM46.5358 26.491L45.0539 24.6384L46.9065 23.1565L48.3884 25.0091L46.5358 26.491ZM43.5714 22.7856L42.0889 20.9331L43.9414 19.4501L45.424 21.3026L43.5714 22.7856Z" fill="#617792"/>
</g>
<defs>
<clipPath id="clip0_1599_2609">
<rect width="70" height="70" fill="white"/>
</clipPath>
</defs>
</svg>
