<svg width="70" height="70" viewBox="0 0 70 70" fill="none" xmlns="http://www.w3.org/2000/svg">
<path d="M47.3045 1.36719H22.6953V10.9765H47.3045V1.36719Z" stroke="#617792" stroke-width="2" stroke-miterlimit="22.9256" stroke-linecap="round" stroke-linejoin="round"/>
<path d="M47.3045 20.5859H22.6953V30.1953H47.3045V20.5859Z" stroke="#617792" stroke-width="2" stroke-miterlimit="22.9256" stroke-linecap="round" stroke-linejoin="round"/>
<path d="M47.3045 39.8047H22.6953V49.414H47.3045V39.8047Z" stroke="#617792" stroke-width="2" stroke-miterlimit="22.9256" stroke-linecap="round" stroke-linejoin="round"/>
<path d="M47.3045 59.0234H22.6953V68.6328H47.3045V59.0234Z" stroke="#617792" stroke-width="2" stroke-miterlimit="22.9256" stroke-linecap="round" stroke-linejoin="round"/>
<path d="M22.0118 6.17188H13.086C7.80084 6.17188 3.47656 10.496 3.47656 15.7813C3.47656 21.0664 7.80084 25.3907 13.086 25.3907H15.1759" stroke="#617792" stroke-width="2" stroke-miterlimit="22.9256" stroke-linecap="round" stroke-linejoin="round"/>
<path d="M13.4668 28.4668L16.543 25.3906L13.4668 22.3145" stroke="#617792" stroke-width="2" stroke-miterlimit="22.9256" stroke-linecap="round" stroke-linejoin="round"/>
<path d="M22.0118 44.6094H13.086C7.80084 44.6094 3.47656 48.9335 3.47656 54.2188C3.47656 59.5039 7.80084 63.8282 13.086 63.8282H15.1759" stroke="#617792" stroke-width="2" stroke-miterlimit="22.9256" stroke-linecap="round" stroke-linejoin="round"/>
<path d="M13.4668 66.9043L16.543 63.8281L13.4668 60.752" stroke="#617792" stroke-width="2" stroke-miterlimit="22.9256" stroke-linecap="round" stroke-linejoin="round"/>
<path d="M47.9883 25.3906H56.9141C62.1992 25.3906 66.5235 29.7149 66.5235 35C66.5235 40.2852 62.1992 44.6095 56.9141 44.6095H54.8242" stroke="#617792" stroke-width="2" stroke-miterlimit="22.9256" stroke-linecap="round" stroke-linejoin="round"/>
<path d="M56.5332 47.6855L53.457 44.6094L56.5332 41.5332" stroke="#617792" stroke-width="2" stroke-miterlimit="22.9256" stroke-linecap="round" stroke-linejoin="round"/>
</svg>
