<svg width="70" height="70" viewBox="0 0 70 70" fill="none" xmlns="http://www.w3.org/2000/svg">
<path d="M51.1212 39.1363C50.4848 39.1363 50.0605 38.712 50.0605 38.0757V30.6514C50.0605 30.0151 50.4848 29.5908 51.1212 29.5908C51.7575 29.5908 52.1818 30.0151 52.1818 30.6514V38.0757C52.1818 38.606 51.6515 39.1363 51.1212 39.1363Z" fill="#617792"/>
<path d="M47.0904 68.9392H11.0298C8.27219 68.9392 6.04492 66.712 6.04492 63.9544V16.8635C6.04492 16.2271 6.46916 15.8029 7.10553 15.8029C7.74189 15.8029 8.16613 16.2271 8.16613 16.8635V63.9544C8.16613 65.5453 9.43886 66.818 11.0298 66.818H47.0904C48.6813 66.818 49.954 65.5453 49.954 63.9544V59.0756C49.954 58.4392 50.3783 58.015 51.0146 58.015C51.651 58.015 52.0752 58.4392 52.0752 59.0756V63.9544C52.1813 66.712 49.848 68.9392 47.0904 68.9392Z" fill="#617792"/>
<path d="M50.8029 10.3938C50.3787 10.3938 49.9544 10.0756 49.8484 9.6514C49.4241 8.48473 48.3635 7.74231 47.0908 7.74231H17.1817C16.5453 7.74231 16.1211 7.31806 16.1211 6.6817C16.1211 6.04534 16.5453 5.62109 17.1817 5.62109H47.0908C49.212 5.62109 51.1211 6.99988 51.7575 8.90897C51.9696 9.43928 51.6514 10.0756 51.1211 10.2878C51.1211 10.3938 50.909 10.3938 50.8029 10.3938Z" fill="#617792"/>
<path d="M7.21165 64.2727H6.46922C3.71165 64.2727 1.48438 62.0454 1.48438 59.2878V6.0454C1.48438 3.28782 3.71165 1.06055 6.46922 1.06055H42.5298C45.2874 1.06055 47.5147 3.28782 47.5147 6.0454V6.78782C47.5147 7.42418 47.0904 7.84843 46.4541 7.84843C45.8177 7.84843 45.3935 7.42418 45.3935 6.78782V6.0454C45.3935 4.45449 44.0147 3.18176 42.4238 3.18176H6.36316C4.87831 3.18176 3.60559 4.45449 3.60559 6.0454V59.2878C3.60559 60.8787 4.87831 62.1515 6.46922 62.1515H7.21165C7.84801 62.1515 8.27225 62.5757 8.27225 63.2121C8.27225 63.8484 7.74195 64.2727 7.21165 64.2727Z" fill="#617792"/>
<path d="M14.2114 17.9242H7.21139C6.78715 17.9242 6.3629 17.712 6.25684 17.2878C6.04472 16.8636 6.15078 16.4393 6.46896 16.1211L16.5447 6.04538C16.8629 5.7272 17.2871 5.62114 17.7114 5.83326C18.0296 5.93932 18.2417 6.36356 18.2417 6.7878V13.7878C18.2417 16.0151 16.4387 17.9242 14.2114 17.9242ZM9.75684 15.803H14.2114C15.272 15.803 16.1205 14.9545 16.1205 13.8939V9.33326L9.75684 15.803Z" fill="#617792"/>
<path d="M54.091 55.3635C53.7728 55.3635 53.5607 55.2575 53.3486 55.0454L50.6971 52.3939C50.2728 51.9696 50.2728 51.3332 50.6971 50.909C51.1213 50.4848 51.7577 50.4848 52.1819 50.909L54.8335 53.5605C55.2577 53.9848 55.2577 54.6211 54.8335 55.0454C54.6213 55.2575 54.3031 55.3635 54.091 55.3635Z" fill="#617792"/>
<path d="M51.0149 58.4393C50.6967 58.4393 50.4846 58.3333 50.2724 58.1212L47.6209 55.4697C47.1967 55.0454 47.1967 54.4091 47.6209 53.9848C48.0452 53.5606 48.6815 53.5606 49.1058 53.9848L51.7573 56.6363C52.1815 57.0606 52.1815 57.6969 51.7573 58.1212C51.5452 58.3333 51.333 58.4393 51.0149 58.4393Z" fill="#617792"/>
<path d="M41.8937 57.4848C38.7119 57.4848 35.5301 56.3181 33.1967 53.8787C28.424 49.106 28.424 41.2575 33.1967 36.3787C37.9695 31.606 45.8179 31.606 50.6967 36.3787C55.5755 41.1515 55.4695 49 50.6967 53.8787C48.2573 56.3181 45.0755 57.4848 41.8937 57.4848ZM34.6816 52.3939C38.7119 56.4242 45.1816 56.4242 49.1058 52.3939C53.1361 48.3636 53.1361 41.8939 49.1058 37.9696C45.0755 33.9393 38.6058 33.9393 34.6816 37.9696C30.6513 41.8939 30.6513 48.3636 34.6816 52.3939Z" fill="#617792"/>
<path d="M62.2572 68.9393C61.5148 68.9393 60.6663 68.6212 60.0299 68.0909L49.3178 59.0757C49.1057 58.8636 48.9996 58.6515 48.8936 58.3333C48.8936 58.0151 48.9996 57.6969 49.2117 57.4848L54.1966 52.4999C54.4087 52.2878 54.7269 52.1818 55.0451 52.1818C55.3633 52.1818 55.5754 52.2878 55.7875 52.606L64.8026 63.3181C65.9693 64.6969 65.8633 66.606 64.5905 67.8787C64.0602 68.6212 63.1057 68.9393 62.2572 68.9393ZM51.6511 58.2272L61.5148 66.4999C62.0451 66.9242 62.7875 66.9242 63.2117 66.3939C63.636 65.9696 63.742 65.2272 63.3178 64.6969L55.0451 54.8333L51.6511 58.2272Z" fill="#617792"/>
<path d="M41.8933 46.9848C40.5145 46.9848 39.4539 46.0303 39.3479 44.6515L38.9236 40.197C38.8176 39.3485 39.1358 38.5 39.6661 37.9697C40.8327 36.697 42.9539 36.697 44.0146 37.9697C44.5449 38.606 44.863 39.4545 44.757 40.197L44.3327 44.6515C44.3327 45.9242 43.2721 46.9848 41.8933 46.9848ZM41.8933 39.1364C41.6812 39.1364 41.4691 39.2424 41.257 39.4545C41.0449 39.6667 41.0449 39.8788 41.0449 40.0909L41.4691 44.5454C41.4691 44.7576 41.6812 44.9697 41.8933 44.9697C42.1055 44.9697 42.3176 44.7576 42.3176 44.5454L42.7418 40.0909C42.7418 39.8788 42.6358 39.6667 42.5297 39.4545C42.3176 39.2424 42.1055 39.1364 41.8933 39.1364Z" fill="#617792"/>
<path d="M41.8933 53.3485C40.4085 53.3485 39.1357 52.0758 39.1357 50.591C39.1357 49.1061 40.4085 47.8334 41.8933 47.8334C43.3782 47.8334 44.6509 49.1061 44.6509 50.591C44.6509 52.0758 43.4842 53.3485 41.8933 53.3485ZM41.8933 49.8485C41.5751 49.8485 41.257 50.1667 41.257 50.4849C41.257 50.8031 41.5751 51.1213 41.8933 51.1213C42.2115 51.1213 42.5297 50.8031 42.5297 50.4849C42.5297 50.1667 42.3176 49.8485 41.8933 49.8485Z" fill="#617792"/>
<path d="M58.0143 31.9242C57.59 31.9242 57.1658 31.606 56.9537 31.1818C56.7416 30.4394 56.3173 30.0151 55.8931 30.0151C55.4688 30.0151 55.0446 30.4394 54.8325 31.1818C54.6203 31.7121 54.09 32.0303 53.5597 31.9242C51.8628 31.606 50.1658 30.8636 48.787 29.803C48.3628 29.4848 48.2567 28.8485 48.4688 28.4242C48.787 27.7879 48.8931 27.1515 48.5749 26.8333C48.2567 26.5151 47.6203 26.5151 46.984 26.8333C46.4537 27.0454 45.9234 26.9394 45.6052 26.5151C44.6506 25.0303 44.0143 23.4394 43.6961 21.6363C43.59 21.106 43.9082 20.5757 44.4385 20.4697C45.181 20.2575 45.6052 19.8333 45.6052 19.4091C45.6052 18.9848 45.181 18.5606 44.4385 18.3485C43.9082 18.1363 43.59 17.606 43.6961 17.0757C44.0143 15.3788 44.7567 13.6818 45.8173 12.303C46.1355 11.8788 46.7719 11.7727 47.1961 11.9848C47.8325 12.303 48.4688 12.4091 48.787 12.0909C49.1052 11.7727 49.1052 11.1363 48.787 10.5C48.5749 9.96967 48.6809 9.43937 49.1052 9.12119C50.59 8.16664 52.181 7.53028 53.984 7.21209C54.5143 7.10603 55.0446 7.42421 55.1506 7.95452C55.3628 8.69694 55.787 9.12119 56.2113 9.12119C56.6355 9.12119 57.0597 8.69694 57.2719 7.95452C57.484 7.42421 58.0143 7.10603 58.5446 7.21209C60.2416 7.53028 61.9385 8.2727 63.3173 9.33331C63.7416 9.65149 63.8476 10.2879 63.6355 10.7121C63.3173 11.3485 63.2113 11.9848 63.5294 12.303C63.8476 12.6212 64.484 12.6212 65.1203 12.303C65.6506 12.0909 66.181 12.1969 66.4991 12.6212C67.4537 14.106 68.09 15.6969 68.4082 17.5C68.5143 18.0303 68.1961 18.5606 67.6658 18.6666C66.9234 18.8788 66.4991 19.303 66.4991 19.7272C66.4991 20.1515 66.9234 20.5757 67.6658 20.7879C68.1961 21 68.5143 21.5303 68.4082 22.0606C68.09 23.7575 67.3476 25.4545 66.287 26.8333C65.9688 27.2575 65.3325 27.3636 64.9082 27.1515C64.2719 26.8333 63.6355 26.7272 63.3173 27.0454C62.9991 27.3636 62.9991 28 63.3173 28.6363C63.5294 29.1666 63.4234 29.6969 62.9991 30.0151C61.5143 30.9697 59.9234 31.606 58.1203 31.9242H58.0143ZM55.8931 27.7879C57.0597 27.7879 58.0143 28.5303 58.6506 29.5909C59.4991 29.3788 60.3476 29.0606 61.1961 28.6363C60.8779 27.4697 61.1961 26.303 61.9385 25.4545C62.681 24.7121 63.9537 24.5 65.1203 24.8182C65.5446 24.0757 65.9688 23.2272 66.181 22.3788C65.1203 21.7424 64.484 20.6818 64.484 19.6212C64.484 18.5606 65.2264 17.5 66.287 16.9697C66.0749 16.1212 65.7567 15.2727 65.3325 14.4242C64.1658 14.7424 62.9991 14.4242 62.1506 13.6818C61.4082 12.9394 61.1961 11.6666 61.5143 10.5C60.7719 10.0757 59.9234 9.65149 59.0749 9.43937C58.4385 10.5 57.484 11.1363 56.3173 11.1363C55.2567 11.1363 54.1961 10.3939 53.6658 9.33331C52.8173 9.54543 51.9688 9.86361 51.1203 10.2879C51.4385 11.4545 51.1203 12.6212 50.3779 13.4697C49.6355 14.2121 48.3628 14.4242 47.1961 14.106C46.7719 14.8485 46.3476 15.6969 46.1355 16.5454C47.1961 17.1818 47.8325 18.2424 47.8325 19.303C47.8325 20.3636 47.09 21.4242 46.0294 21.9545C46.2416 22.803 46.5597 23.6515 46.984 24.5C48.1506 24.1818 49.3173 24.5 50.1658 25.2424C50.9082 25.9848 51.1203 27.2575 50.8022 28.4242C51.5446 28.8485 52.3931 29.2727 53.2416 29.4848C53.8779 28.4242 54.8325 27.7879 55.8931 27.7879Z" fill="#617792"/>
<path d="M56.2116 25.2424H56.1056C54.6207 25.2424 53.1359 24.6061 52.0753 23.4394C51.0147 22.2727 50.4844 20.894 50.4844 19.4091C50.5904 16.2273 53.1359 13.7879 56.3177 13.894C57.8026 13.894 59.2874 14.5303 60.348 15.697C61.4086 16.8637 61.9389 18.2424 61.9389 19.7273C61.9389 21.2121 61.3026 22.697 60.1359 23.7576C59.0753 24.7121 57.6965 25.2424 56.2116 25.2424ZM56.2116 16.0152C55.2571 16.0152 54.4086 16.3333 53.7723 16.9697C53.0298 17.6061 52.7117 18.5606 52.7117 19.5152C52.7117 20.4697 53.0298 21.4243 53.6662 22.0606C54.3026 22.697 55.2571 23.1212 56.2116 23.1212C57.1662 23.1212 58.1207 22.803 58.7571 22.1667C59.4995 21.5303 59.8177 20.5758 59.8177 19.6212C59.8177 18.6667 59.4995 17.7121 58.8632 17.0758C58.2268 16.4394 57.2723 16.0152 56.2116 16.0152Z" fill="#617792"/>
<path d="M19.0905 40.6212H12.5147C11.8783 40.6212 11.4541 40.197 11.4541 39.5606V32.7728C11.4541 32.1364 11.8783 31.7122 12.5147 31.7122H19.0905C19.7268 31.7122 20.1511 32.1364 20.1511 32.7728V39.5606C20.1511 40.197 19.6208 40.6212 19.0905 40.6212ZM13.5753 38.5H18.0299V33.8334H13.5753V38.5Z" fill="#617792"/>
<path d="M19.0905 52.0757H12.5147C11.8783 52.0757 11.4541 51.6515 11.4541 51.0151V44.2272C11.4541 43.5909 11.8783 43.1666 12.5147 43.1666H19.0905C19.7268 43.1666 20.1511 43.5909 20.1511 44.2272V51.0151C20.1511 51.6515 19.6208 52.0757 19.0905 52.0757ZM13.5753 49.9545H18.0299V45.2878H13.5753V49.9545Z" fill="#617792"/>
<path d="M19.0905 63.5303H12.5147C11.8783 63.5303 11.4541 63.1061 11.4541 62.4697V55.6818C11.4541 55.0455 11.8783 54.6212 12.5147 54.6212H19.0905C19.7268 54.6212 20.1511 55.0455 20.1511 55.6818V62.4697C20.1511 63.1061 19.6208 63.5303 19.0905 63.5303ZM13.5753 61.4091H18.0299V56.7424H13.5753V61.4091Z" fill="#617792"/>
<path d="M21.4234 28.8484H15.378C14.7416 28.8484 14.3174 28.4242 14.3174 27.7878V23.1212C14.3174 22.4848 14.7416 22.0605 15.378 22.0605H21.4234C22.0598 22.0605 22.4841 22.4848 22.4841 23.1212V27.7878C22.4841 28.3181 22.0598 28.8484 21.4234 28.8484ZM16.4386 26.7272H20.3628V24.1818H16.4386V26.7272Z" fill="#617792"/>
<path d="M27.4693 28.8485H21.4239C20.7875 28.8485 20.3633 28.4242 20.3633 27.7879V14.3182C20.3633 13.6818 20.7875 13.2576 21.4239 13.2576H27.4693C28.1057 13.2576 28.5299 13.6818 28.5299 14.3182V27.6818C28.5299 28.3182 27.9996 28.8485 27.4693 28.8485ZM22.4845 26.7273H26.4087V15.3788H22.4845V26.7273Z" fill="#617792"/>
<path d="M33.5143 28.8485H27.4688C26.8324 28.8485 26.4082 28.4242 26.4082 27.7879V18.4545C26.4082 17.8182 26.8324 17.3939 27.4688 17.3939H33.5143C34.1506 17.3939 34.5749 17.8182 34.5749 18.4545V27.7879C34.5749 28.3182 34.0446 28.8485 33.5143 28.8485ZM28.5294 26.7273H32.4537V19.5151H28.5294V26.7273Z" fill="#617792"/>
<path d="M39.5602 28.8485H33.5147C32.8783 28.8485 32.4541 28.4242 32.4541 27.7879V12.197C32.4541 11.5606 32.8783 11.1364 33.5147 11.1364H39.5602C40.1965 11.1364 40.6208 11.5606 40.6208 12.197V27.7879C40.6208 28.3182 40.0905 28.8485 39.5602 28.8485ZM34.5753 26.7273H38.4996V13.2576H34.5753V26.7273Z" fill="#617792"/>
<path d="M29.3783 34.5758H23.545C22.9086 34.5758 22.4844 34.1516 22.4844 33.5152C22.4844 32.8788 22.9086 32.4546 23.545 32.4546H29.3783C30.0147 32.4546 30.4389 32.8788 30.4389 33.5152C30.4389 34.1516 30.0147 34.5758 29.3783 34.5758Z" fill="#617792"/>
<path d="M27.2571 39.8788H23.545C22.9086 39.8788 22.4844 39.4545 22.4844 38.8182C22.4844 38.1818 22.9086 37.7576 23.545 37.7576H27.2571C27.8935 37.7576 28.3177 38.1818 28.3177 38.8182C28.3177 39.4545 27.8935 39.8788 27.2571 39.8788Z" fill="#617792"/>
<path d="M26.1965 46.0303H23.545C22.9086 46.0303 22.4844 45.606 22.4844 44.9697C22.4844 44.3333 22.9086 43.9091 23.545 43.9091H26.1965C26.8329 43.9091 27.2571 44.3333 27.2571 44.9697C27.2571 45.606 26.8329 46.0303 26.1965 46.0303Z" fill="#617792"/>
<path d="M26.8329 51.3332H23.545C22.9086 51.3332 22.4844 50.909 22.4844 50.2726C22.4844 49.6363 22.9086 49.212 23.545 49.212H26.8329C27.4692 49.212 27.8935 49.6363 27.8935 50.2726C27.8935 50.909 27.3632 51.3332 26.8329 51.3332Z" fill="#617792"/>
<path d="M31.0753 57.4849H23.545C22.9086 57.4849 22.4844 57.0606 22.4844 56.4243C22.4844 55.7879 22.9086 55.3636 23.545 55.3636H31.0753C31.7116 55.3636 32.1359 55.7879 32.1359 56.4243C32.1359 57.0606 31.6056 57.4849 31.0753 57.4849Z" fill="#617792"/>
<path d="M45.7116 62.7878H23.545C22.9086 62.7878 22.4844 62.3636 22.4844 61.7272C22.4844 61.0909 22.9086 60.6666 23.545 60.6666H45.7116C46.348 60.6666 46.7723 61.0909 46.7723 61.7272C46.7723 62.3636 46.348 62.7878 45.7116 62.7878Z" fill="#617792"/>
</svg>
