<svg width="43" height="50" viewBox="0 0 43 50" fill="none" xmlns="http://www.w3.org/2000/svg">
<path fill-rule="evenodd" clip-rule="evenodd" d="M27.8321 39.0624C27.8321 38.9044 29.4225 38.0607 29.57 37.9682L30.5007 37.434C30.8663 37.2427 31.0996 37.0968 31.4454 36.9139C31.7294 37.3382 31.9603 37.804 32.2467 38.2612C32.5322 38.717 32.7611 39.1819 33.008 39.6483L31.6726 40.3638C31.4144 40.4989 31.4288 40.5256 31.186 40.6584C30.8264 40.8551 30.5869 40.9828 30.2541 41.1912C30.0092 41.3447 29.5616 41.6285 29.2972 41.6991C29.1107 41.3467 27.8323 39.264 27.8323 39.0624H27.8321ZM25.4884 38.5742C25.1621 38.0869 24.9155 37.5483 24.5897 37.0316C24.4102 36.7471 23.8053 35.7697 23.7307 35.4492C25.0886 35.3361 28.647 33.2247 29.7131 32.2519C29.9717 32.0158 30.1934 31.825 30.469 31.6405C30.5598 31.9808 31.0634 32.7553 31.2702 33.0855C31.4333 33.3457 31.5312 33.5519 31.6998 33.8278C32.3955 34.9663 32.1817 34.6603 31.4257 35.1364L25.4885 38.5742H25.4884ZM0.00024795 17.1875C0.00024795 21.0586 0.294317 22.6307 1.7266 26.0081C2.51868 27.8759 3.87732 29.6096 5.29807 31.0303L7.015 32.536C8.03668 33.3053 9.13262 34.0981 10.3203 34.6018C11.6545 35.1678 12.9114 35.608 14.3352 35.958C14.578 36.0176 14.9366 36.0961 15.2373 36.1302C16.9528 36.3249 18.8588 36.4096 20.5985 36.2232C21.0815 36.1713 21.687 35.9776 22.1682 35.9375C22.3735 36.3254 22.6082 36.6387 22.82 37.0435C23.2024 37.7746 23.6544 38.6844 24.1449 39.3318C24.3291 39.5749 24.3318 39.599 24.5859 39.7697C25.2034 40.1844 25.8106 39.9961 26.465 39.8437L27.5981 41.8356C27.7493 42.0813 27.8643 42.2971 27.9298 42.5781C27.6283 42.6587 27.484 42.8315 27.3429 43.0653C26.9928 43.6454 26.9837 44.2669 27.309 44.8592L29.1018 47.9492C29.2385 48.2151 29.4012 48.4799 29.5704 48.7501C29.8746 49.2357 30.0488 50 30.7619 50C31.689 50 31.5864 49.1384 31.284 48.5991L29.3358 45.2738C29.1748 45.009 29.1098 44.8574 28.9452 44.5902C28.7939 44.3445 28.6789 44.1288 28.6134 43.8477C28.854 43.7917 28.8263 43.7984 29.0259 43.6743C29.195 43.5693 29.2699 43.5297 29.4529 43.4177C29.7498 43.2359 29.9712 43.1271 30.2536 42.9489L31.931 41.9895C32.1346 41.869 34.9404 40.1367 35.254 40.1367C35.5357 40.1367 36.9312 43.1312 37.3275 43.5319C37.7365 43.9453 38.6719 43.714 38.6719 43.0663C38.6719 42.546 37.0923 40.0222 36.6416 39.3349C35.8306 38.0983 34.8329 38.7232 34.2774 38.7695C34.02 37.8054 33.0403 37.0127 32.8125 36.0351C33.9949 35.7193 33.8087 34.3274 33.262 33.4372C33.0464 33.086 32.8886 32.8094 32.6828 32.4539C32.479 32.102 32.3188 31.7979 32.109 31.4652C31.9898 31.2762 31.9367 31.1348 31.8346 30.9585C31.73 30.7782 31.6536 30.6776 31.543 30.4688C32.4867 29.8369 34.7656 26.2528 34.7656 25.4884C34.7656 24.5885 33.6729 24.4416 33.2015 25.3891C32.6648 26.4679 32.0478 27.4421 31.3312 28.4016C30.1673 29.9598 28.3437 31.6369 26.5944 32.5514C26.3303 32.6895 26.3059 32.7409 26.0431 32.8789C21.6675 35.177 16.0326 35.5614 11.491 33.431L8.90637 32.0117C8.6883 31.8664 8.53729 31.7753 8.32728 31.6143C7.55814 31.0244 6.78032 30.4376 6.12635 29.7136C5.92142 29.4867 5.92526 29.4089 5.68983 29.1736C4.85536 28.3391 4.15354 27.245 3.57966 26.2057C0.497264 20.6242 0.947541 13.4435 4.72754 8.34104C7.10786 5.12798 10.5371 2.77704 14.5119 1.91455C15.7322 1.64974 17.7869 1.34166 19.0631 1.5425C19.4103 1.59717 19.7159 1.53655 20.0784 1.60139C22.1516 1.97219 23.781 2.31994 25.6511 3.25521C27.4958 4.17783 29.3795 5.52991 30.6454 7.14753L33.0069 10.5477C33.6567 11.6559 34.3604 13.8533 34.5704 15.2341C35.268 19.8217 34.3748 20.7921 34.3748 22.3632C34.3748 22.6942 34.7274 23.0468 35.0584 23.0468C36.1467 23.0468 36.1268 21.2675 36.2404 20.4202L36.4296 17.965L36.2095 15.5481C35.76 12.4552 34.3343 9.36049 32.676 7.16762C31.9685 6.23185 31.122 5.17819 30.1756 4.49211C28.763 3.46783 28.325 2.87721 26.2701 1.85479C24.058 0.75414 21.4462 0 18.8476 0C17.0448 0 15.3162 0.127322 13.6325 0.546606C11.9859 0.956715 10.4391 1.55713 9.06208 2.42136L6.52443 4.18056C4.90445 5.45106 3.61685 7.14729 2.51781 8.86533L1.75697 10.2529C1.63535 10.5226 1.57721 10.7082 1.4308 11.0009C1.27694 11.3086 1.26194 11.4476 1.13301 11.7774C0.709137 12.862 0.388166 13.9876 0.205179 15.1464C0.0976923 15.8273 0 16.4165 0 17.1873L0.00024795 17.1875Z" fill="#36D1C2"/>
<path fill-rule="evenodd" clip-rule="evenodd" d="M7.91034 7.51953C7.91034 7.98394 8.44963 8.82734 9.59429 7.73859C9.84646 7.4987 10.1804 7.27406 10.4884 7.07024C13.2312 5.25413 15.1582 4.68757 18.7502 4.68757C22.0362 4.68757 25.4119 6.32007 27.6613 8.56947C27.9431 8.85127 28.1945 9.06835 28.4183 9.37494C29.3569 10.6609 29.3817 10.429 30.3384 12.3376C32.0478 15.7475 32.1158 20.4665 30.4042 23.8611C29.1733 26.3021 27.5045 28.4013 25.0968 29.784C20.4095 32.4757 14.6124 32.3076 10.2542 29.1016C8.3057 27.6682 6.94978 26.0202 5.89091 23.797C4.00389 19.8351 4.35573 14.6088 6.75688 10.9559C6.88891 10.755 7.22687 10.3195 7.22687 10.0587C7.22687 9.65884 6.41917 8.66072 5.60527 9.90196C2.83728 14.1236 2.21319 19.8756 4.49247 24.4141C5.24612 25.9147 5.20211 25.9141 6.21002 27.2864L7.54424 28.7842C7.87947 29.1196 8.06382 29.3362 8.45769 29.6286C10.096 30.8449 9.61574 30.6755 11.8494 31.8033C15.8306 33.8134 21.0601 33.5668 24.9707 31.611C28.0572 30.0674 30.6389 27.264 32.0002 24.0898C33.5023 20.5872 33.6436 16.5819 32.3125 13.0002C31.6871 11.3174 31.119 10.3535 30.0395 8.92553L29.6085 8.37992C28.7574 7.29228 26.8568 5.82107 25.5847 5.07945C25.2147 4.86374 24.7708 4.66513 24.3508 4.45797C19.4683 2.05037 12.801 3.05519 8.71804 6.47169C8.617 6.55624 8.61117 6.5824 8.5141 6.6584C8.28661 6.83643 7.91034 6.96363 7.91034 7.51953V7.51953Z" fill="#36D1C2"/>
<path fill-rule="evenodd" clip-rule="evenodd" d="M9.66821 19.4337C9.84922 19.7757 10.017 20.1173 10.5471 20.1173H20.8986C21.3423 20.1173 21.408 19.9087 21.6798 19.7266V18.9453C21.341 18.7185 21.3084 18.5547 20.7032 18.5547H10.7423C9.98832 18.5547 9.80905 18.8285 9.66809 19.4335L9.66821 19.4337Z" fill="#36D1C2"/>
<path fill-rule="evenodd" clip-rule="evenodd" d="M9.66821 25.5859C9.80917 26.1909 9.98832 26.4648 10.7425 26.4648H19.8245C20.76 26.4648 20.7034 25.7293 20.7034 25.293C20.4315 25.1109 20.3658 24.9023 19.9221 24.9023H10.5471C10.017 24.9023 9.84922 25.2439 9.66821 25.5859V25.5859Z" fill="#36D1C2"/>
<path fill-rule="evenodd" clip-rule="evenodd" d="M11.5236 9.76568C11.5236 10.4298 12.1729 10.8543 12.8665 11.5478C13.3343 12.0157 14.0269 12.8906 14.5509 12.8906C14.8913 12.8906 15.3322 12.4497 15.3322 12.1094C15.3322 11.7001 13.6114 10.1167 13.3791 9.96094C13.7136 9.46132 15.2652 8.23112 15.3322 7.71488C15.3844 7.31197 15.0758 6.93359 14.3556 6.93359C13.986 6.93359 11.5236 9.39586 11.5236 9.76568V9.76568Z" fill="#36D1C2"/>
<path fill-rule="evenodd" clip-rule="evenodd" d="M21.0939 7.61732C21.0939 8.42167 22.3032 8.8986 22.9494 9.86337C22.1252 11.0941 21.0939 11.1039 21.0939 12.3048V12.5001C22.0754 13.1573 21.8909 13.1192 23.4133 11.5968C25.3941 9.61604 25.4036 10.1344 22.7784 7.4952C22.4302 7.1451 22.354 6.93359 21.7776 6.93359C21.3217 6.93359 21.094 7.16134 21.094 7.61719L21.0939 7.61732Z" fill="#36D1C2"/>
<path fill-rule="evenodd" clip-rule="evenodd" d="M16.8947 12.1093C16.8947 12.8483 17.7932 13.1137 18.2812 12.617C18.4279 12.4676 18.4628 12.2296 18.5164 11.9732C18.6961 11.1107 19.4337 8.0966 19.4337 7.5195C19.4337 7.27663 19.1894 7.15229 19.043 6.93359H18.2619C18.1282 7.13307 18.0241 7.16443 17.9327 7.38561L17.1877 10.7421C17.1266 10.987 16.8948 11.9023 16.8948 12.1093H16.8947Z" fill="#36D1C2"/>
<path fill-rule="evenodd" clip-rule="evenodd" d="M14.2581 15.8202V16.6015C14.5969 16.8284 14.6295 16.9921 15.2346 16.9921C16.1147 16.9921 19.2516 17.1229 19.7614 16.8315C20.3937 16.47 20.1683 15.4297 19.3362 15.4297H15.0393C14.5956 15.4297 14.5299 15.6382 14.2581 15.8203V15.8202Z" fill="#36D1C2"/>
<path fill-rule="evenodd" clip-rule="evenodd" d="M9.66821 22.4611C9.66821 22.5771 9.8326 22.9313 9.89769 23.0129C10.0301 23.1786 10.1852 23.2424 10.4495 23.2424H15.0393C16.0486 23.2424 16.0486 21.7775 15.0393 21.7775C14.0712 21.7775 10.2859 21.6066 9.94158 21.9531C9.89422 22.0007 9.66821 22.4266 9.66821 22.4611V22.4611Z" fill="#36D1C2"/>
<path fill-rule="evenodd" clip-rule="evenodd" d="M22.7541 16.9921H25.9767C27.4226 16.9921 27.317 15.4297 26.172 15.4297H22.5587C21.5434 15.4297 21.2928 16.9921 22.754 16.9921H22.7541Z" fill="#36D1C2"/>
<path fill-rule="evenodd" clip-rule="evenodd" d="M41.5039 49.9999C42.0426 49.9999 42.571 49.5345 42.0895 48.7308L41.1521 47.1291C40.9211 46.7513 40.7757 46.4424 40.5471 46.074C40.3465 45.7508 40.1233 45.2148 39.6485 45.2148C39.0238 45.2148 38.6938 45.7503 38.8816 46.2674L40.8165 49.6132C40.9748 49.8416 41.1206 49.9999 41.5041 49.9999H41.5039Z" fill="#36D1C2"/>
<path fill-rule="evenodd" clip-rule="evenodd" d="M22.3635 25.6835C22.3635 26.7946 24.3966 26.4648 25.9768 26.4648C27.4227 26.4648 27.3171 24.9023 26.172 24.9023H23.1447C22.6723 24.9023 22.3635 25.2112 22.3635 25.6835V25.6835Z" fill="#36D1C2"/>
<path fill-rule="evenodd" clip-rule="evenodd" d="M17.3831 22.4609C17.3831 22.9333 17.6919 23.2422 18.1642 23.2422H20.9963C21.9338 23.2422 21.9338 21.7773 20.9963 21.7773H18.1642C17.7463 21.7773 17.3831 22.0784 17.3831 22.4609Z" fill="#36D1C2"/>
<path fill-rule="evenodd" clip-rule="evenodd" d="M23.3401 19.2382C23.3401 20.4102 24.4071 20.1171 26.1722 20.1171C27.3508 20.1171 27.4052 18.5546 25.9769 18.5546C25.3774 18.5546 24.1282 18.4684 23.6963 18.7153C23.5335 18.8084 23.3402 19.0338 23.3402 19.2382H23.3401Z" fill="#36D1C2"/>
<path fill-rule="evenodd" clip-rule="evenodd" d="M23.3401 22.3633C23.3401 23.0719 23.4232 22.783 23.7307 23.2422C25.1315 23.2422 27.051 23.5479 27.051 22.5586C27.051 21.4491 25.4896 21.7773 23.7307 21.7773C23.5843 21.996 23.3401 22.1203 23.3401 22.3632V22.3633Z" fill="#36D1C2"/>
<path fill-rule="evenodd" clip-rule="evenodd" d="M9.66821 16.113C9.91207 17.1596 10.4085 16.9919 11.719 16.9919C12.9057 16.9919 12.8668 15.4294 11.8167 15.4294C10.3616 15.4294 10.1246 15.2505 9.66834 16.113H9.66821Z" fill="#36D1C2"/>
</svg>
