<svg width="70" height="70" viewBox="0 0 70 70" fill="none" xmlns="http://www.w3.org/2000/svg">
<g clip-path="url(#clip0_1599_2494)">
<path d="M15.3956 30.7914C23.8848 30.7914 30.7911 23.8849 30.7911 15.3958C30.7911 6.90662 23.8848 0 15.3956 0C6.90648 0 0 6.90662 0 15.3958C0 23.8849 6.90648 30.7914 15.3956 30.7914ZM23.0065 26.1846L17.3078 16.4903L28.5575 16.4953C28.2267 20.4922 26.1088 23.9898 23.0065 26.1846ZM28.5586 14.3078L16.4894 14.3024V2.23316C22.9037 2.76145 28.0331 7.89264 28.5586 14.3078ZM14.3019 2.23316V15.3958C14.3019 15.5906 14.354 15.782 14.4528 15.95L21.1226 27.2966C19.3893 28.1341 17.4464 28.6039 15.3958 28.6039C8.11275 28.6039 2.18764 22.6788 2.18764 15.3958C2.1875 8.48107 7.52869 2.79111 14.3019 2.23316ZM46.6532 1.80961C46.6532 1.20559 47.1429 0.715859 47.747 0.715859H68.9062C69.5103 0.715859 70 1.20559 70 1.80961C70 2.41363 69.5103 2.90336 68.9062 2.90336H47.747C47.1428 2.90336 46.6532 2.41363 46.6532 1.80961ZM46.6532 6.38887C46.6532 5.78484 47.1429 5.29512 47.747 5.29512H58.3267C58.9307 5.29512 59.4204 5.78484 59.4204 6.38887C59.4204 6.99289 58.9307 7.48262 58.3267 7.48262H47.747C47.1428 7.48262 46.6532 6.99289 46.6532 6.38887ZM36.8487 8.19848H42.8597C43.4637 8.19848 43.9534 7.70875 43.9534 7.10473V1.09375C43.9534 0.489727 43.4637 0 42.8597 0H36.8487C36.2447 0 35.755 0.489727 35.755 1.09375V7.10473C35.755 7.70875 36.2447 8.19848 36.8487 8.19848ZM37.9425 2.1875H41.7659V6.01098H37.9425V2.1875ZM46.6532 13.106C46.6532 12.502 47.1429 12.0122 47.747 12.0122H68.9062C69.5103 12.0122 70 12.502 70 13.106C70 13.71 69.5103 14.1997 68.9062 14.1997H47.747C47.1428 14.1997 46.6532 13.71 46.6532 13.106ZM46.6532 17.6853C46.6532 17.0812 47.1429 16.5915 47.747 16.5915H58.3267C58.9307 16.5915 59.4204 17.0812 59.4204 17.6853C59.4204 18.2893 58.9307 18.779 58.3267 18.779H47.747C47.1428 18.779 46.6532 18.2894 46.6532 17.6853ZM36.8487 19.4949H42.8597C43.4637 19.4949 43.9534 19.0051 43.9534 18.4011V12.3901C43.9534 11.7861 43.4637 11.2964 42.8597 11.2964H36.8487C36.2447 11.2964 35.755 11.7861 35.755 12.3901V18.4011C35.755 19.0053 36.2447 19.4949 36.8487 19.4949ZM37.9425 13.4839H41.7659V17.3074H37.9425V13.4839ZM46.6532 24.4024C46.6532 23.7984 47.1429 23.3086 47.747 23.3086H68.9062C69.5103 23.3086 70 23.7984 70 24.4024C70 25.0064 69.5103 25.4961 68.9062 25.4961H47.747C47.1428 25.4961 46.6532 25.0065 46.6532 24.4024ZM8.36979 42.8408H1.09375C0.489727 42.8408 0 43.3305 0 43.9346V68.9062C0 69.5103 0.489727 70 1.09375 70H8.36979C8.97381 70 9.46354 69.5103 9.46354 68.9062V43.9346C9.46354 43.3304 8.97395 42.8408 8.36979 42.8408ZM7.27604 67.8125H2.1875V45.0283H7.27604V67.8125ZM69.2809 60.312L61.5474 52.8076C61.0933 52.367 60.4922 52.1315 59.8583 52.1391C59.5254 52.1441 59.2048 52.2182 58.9112 52.3517L55.8074 49.3399C57.2225 47.034 58.0396 44.3234 58.0396 41.4252C58.0396 36.9143 56.0606 32.8576 52.9262 30.0754H58.3267C58.9307 30.0754 59.4204 29.5857 59.4204 28.9816C59.4204 28.3776 58.9307 27.8879 58.3267 27.8879H49.7187C47.9648 26.9961 46.0156 26.4354 43.9536 26.2883V23.6865C43.9536 23.0825 43.4638 22.5928 42.8598 22.5928H36.8488C36.2448 22.5928 35.7551 23.0825 35.7551 23.6865V28.0198C30.9596 30.573 27.6869 35.6237 27.6869 41.4251C27.6869 43.2161 27.9997 44.9354 28.572 46.5321H26.9354C26.3313 46.5321 25.8416 47.0218 25.8416 47.6258V68.9062C25.8416 69.5103 26.3313 70 26.9354 70H34.2114C34.8154 70 35.3052 69.5103 35.3052 68.9062V54.5821C36.4648 55.2509 37.7208 55.7706 39.0466 56.1153V68.9062C39.0466 69.5103 39.5363 70 40.1404 70H47.4164C48.0204 70 48.5101 69.5103 48.5101 68.9062V55.5114C49.7399 55.0166 50.8908 54.3661 51.9373 53.5829L54.9136 56.4711C54.7892 56.7688 54.7247 57.0914 54.7297 57.4245C54.7393 58.0597 54.9947 58.6521 55.4486 59.0926L63.1822 66.5969C63.6427 67.0437 64.2392 67.266 64.8352 67.266C65.4551 67.266 66.0743 67.0254 66.5391 66.5465L69.3313 63.669C70.2427 62.7297 70.2201 61.2239 69.2809 60.312ZM57.2694 53.8069L56.3188 54.7866L53.5962 52.1447C53.9179 51.8226 54.2248 51.4855 54.5167 51.1358L57.2694 53.8069ZM37.9425 24.7803H41.7659V26.2887C40.4372 26.3841 39.1554 26.6511 37.9425 27.068V24.7803ZM42.8631 28.4364C50.0253 28.4364 55.8519 34.2632 55.8519 41.4252C55.8519 48.5872 50.0251 54.4141 42.8631 54.4141C35.7011 54.4141 29.8743 48.5872 29.8743 41.4252C29.8743 34.2631 35.7011 28.4364 42.8631 28.4364ZM33.1175 67.8125H28.029V48.7197H29.5585C30.4696 50.3748 31.6805 51.8422 33.1175 53.0492V67.8125ZM46.3225 67.8125H41.234V56.5139C41.7694 56.5713 42.3127 56.6016 42.8631 56.6016C44.0528 56.6016 45.211 56.4636 46.3225 56.2034V67.8125ZM67.7614 62.1455L64.9692 65.023C64.8998 65.0943 64.7768 65.0962 64.7054 65.0269L56.9718 57.5225C56.9274 57.4794 56.9174 57.4275 56.9168 57.3915C56.9163 57.3556 56.9248 57.3033 56.9678 57.2588L59.7599 54.3814C59.8031 54.3368 59.8551 54.3268 59.8912 54.3263H59.8943C59.9301 54.3263 59.9806 54.3354 60.0238 54.3774L67.7571 61.8818C67.8286 61.951 67.8305 62.0743 67.7614 62.1455ZM42.8631 52.6311C49.042 52.6311 54.069 47.6041 54.069 41.4252C54.069 35.2464 49.042 30.2194 42.8631 30.2194C36.6842 30.2194 31.6572 35.2464 31.6572 41.4252C31.6572 47.6041 36.6842 52.6311 42.8631 52.6311ZM42.8631 32.4069C47.8358 32.4069 51.8815 36.4525 51.8815 41.4252C51.8815 46.398 47.8358 50.4436 42.8631 50.4436C37.8904 50.4436 33.8447 46.398 33.8447 41.4252C33.8447 36.4525 37.8904 32.4069 42.8631 32.4069ZM21.0062 36.4555H13.7301C13.1261 36.4555 12.6364 36.9452 12.6364 37.5493V68.9062C12.6364 69.5103 13.1261 70 13.7301 70H21.0062C21.6102 70 22.0999 69.5103 22.0999 68.9062V37.5493C22.0999 36.9452 21.6102 36.4555 21.0062 36.4555ZM19.9124 67.8125H14.8239V38.643H19.9124V67.8125Z" fill="#617792"/>
</g>
<defs>
<clipPath id="clip0_1599_2494">
<rect width="70" height="70" fill="white"/>
</clipPath>
</defs>
</svg>
