<svg width="70" height="70" viewBox="0 0 70 70" fill="none" xmlns="http://www.w3.org/2000/svg">
<path d="M66.4058 41.3015H58.375C57.7414 41.3015 57.2278 41.8152 57.2278 42.4487C57.2278 43.0823 57.7414 43.5959 58.375 43.5959H63.6359L43.4605 63.7715L37.6749 57.9858C37.2389 57.5501 36.5365 57.5365 36.0841 57.9554L29.1501 64.3757L25.0669 60.2924C24.6188 59.8445 23.8924 59.8445 23.4444 60.2924C22.9964 60.7406 22.9964 61.467 23.4444 61.915L28.3083 66.7789C28.5319 67.0025 28.8255 67.1148 29.1198 67.1148C29.3991 67.1148 29.6788 67.0134 29.899 66.8094L36.833 60.3891L42.6492 66.2052C43.0973 66.6531 43.8236 66.6531 44.2717 66.2052L65.2585 45.2185V50.4794C65.2585 51.113 65.7721 51.6266 66.4057 51.6266C67.0392 51.6266 67.5529 51.113 67.5529 50.4794V42.4486C67.553 41.8152 67.0394 41.3015 66.4058 41.3015Z" fill="#617792"/>
<path d="M25.6777 37.286H34.2822H42.8867C43.5203 37.286 44.0339 36.7723 44.0339 36.1388V22.9453C44.0339 21.6801 43.0046 20.6507 41.7394 20.6507H35.4335C35.4442 20.7231 35.4433 20.7974 35.4293 20.8718V18.3563C35.4293 17.0911 34.4 16.0618 33.1348 16.0618H26.8249C25.5597 16.0618 24.5303 17.0911 24.5303 18.3563V26.9608H18.2203C16.9551 26.9608 15.9258 27.9902 15.9258 29.2554V36.1389C15.9258 36.7725 16.4394 37.2861 17.073 37.2861L25.6777 37.286ZM35.4295 22.9453H41.7395V34.9916H35.4295V22.9453ZM26.825 18.3562H33.135V34.9914H26.825V18.3562ZM18.2205 29.2553H24.5304V34.9916H18.2205V29.2553Z" fill="#617792"/>
<path d="M30.2665 48.7589C41.9697 48.7589 51.491 39.2377 51.491 27.5346C51.491 15.8314 41.9697 6.31006 30.2665 6.31006C18.5634 6.31006 9.04199 15.8313 9.04199 27.5346C9.04213 39.2375 18.5634 48.7589 30.2665 48.7589ZM30.2665 8.60461C40.7046 8.60461 49.1964 17.0965 49.1964 27.5346C49.1964 37.9725 40.7046 46.4644 30.2665 46.4644C19.8284 46.4644 11.3365 37.9725 11.3365 27.5346C11.3367 17.0965 19.8286 8.60461 30.2665 8.60461Z" fill="#617792"/>
<path d="M6.46115 68.9255C7.72279 69.6541 9.10133 70.0001 10.463 70C13.2405 69.9997 15.9457 68.5595 17.4315 65.9861L24.1329 54.3791C26.1061 54.8297 28.1591 55.0687 30.2669 55.0687C45.4495 55.0687 57.8014 42.7168 57.8014 27.5343C57.8014 12.3519 45.4495 0 30.2669 0C15.0844 0 2.73256 12.3519 2.73256 27.5343C2.73256 34.8162 5.57521 41.4459 10.2075 46.3749L3.52156 57.9552C1.30754 61.7903 2.62619 66.7115 6.46115 68.9255ZM30.2669 2.29455C44.1843 2.29455 55.5068 13.6171 55.5068 27.5345C55.5068 41.4518 44.1843 52.7743 30.2669 52.7743C16.3496 52.7743 5.02697 41.4518 5.02697 27.5345C5.02711 13.6171 16.3496 2.29455 30.2669 2.29455ZM5.50877 59.1026L11.9015 48.0301C14.7471 50.5827 18.1252 52.5521 21.8465 53.7502L15.4444 64.8389C13.863 67.578 10.3478 68.5202 7.60836 66.9386C4.8692 65.357 3.9272 61.8419 5.50877 59.1026Z" fill="#617792"/>
</svg>
