<svg width="70" height="70" viewBox="0 0 70 70" fill="none" xmlns="http://www.w3.org/2000/svg">
<g clip-path="url(#clip0_1599_2630)">
<path d="M31.7188 55.7812H28.4375V57.9688H31.7188V55.7812Z" fill="#617792"/>
<path d="M64.5312 0H5.46875C2.45328 0 0 2.45328 0 5.46875V52.5C0 55.5155 2.45328 57.9688 5.46875 57.9688H10.9375V55.7812H5.46875C3.65969 55.7812 2.1875 54.3091 2.1875 52.5V10.9375H67.8125V52.5C67.8125 54.3091 66.3403 55.7812 64.5312 55.7812V57.9688C67.5467 57.9688 70 55.5155 70 52.5V5.46875C70 2.45328 67.5467 0 64.5312 0ZM67.8125 8.75H2.1875V5.46875C2.1875 3.65969 3.65969 2.1875 5.46875 2.1875H64.5312C66.3403 2.1875 67.8125 3.65969 67.8125 5.46875V8.75Z" fill="#617792"/>
<path d="M5.46875 6.5625C6.07281 6.5625 6.5625 6.07281 6.5625 5.46875C6.5625 4.86469 6.07281 4.375 5.46875 4.375C4.86469 4.375 4.375 4.86469 4.375 5.46875C4.375 6.07281 4.86469 6.5625 5.46875 6.5625Z" fill="#617792"/>
<path d="M9.84375 6.5625C10.4478 6.5625 10.9375 6.07281 10.9375 5.46875C10.9375 4.86469 10.4478 4.375 9.84375 4.375C9.23969 4.375 8.75 4.86469 8.75 5.46875C8.75 6.07281 9.23969 6.5625 9.84375 6.5625Z" fill="#617792"/>
<path d="M14.2188 6.5625C14.8228 6.5625 15.3125 6.07281 15.3125 5.46875C15.3125 4.86469 14.8228 4.375 14.2188 4.375C13.6147 4.375 13.125 4.86469 13.125 5.46875C13.125 6.07281 13.6147 6.5625 14.2188 6.5625Z" fill="#617792"/>
<path d="M56.875 43.75H50.3125V39.375C50.3125 38.7713 49.8225 38.2812 49.2188 38.2812H35.0667C35.7208 36.5805 36.0938 34.7408 36.0938 32.8125C36.0938 32.2088 35.6037 31.7188 35 31.7188H21.875V18.5938C21.875 17.99 21.385 17.5 20.7812 17.5C12.3375 17.5 5.46875 24.3688 5.46875 32.8125C5.46875 41.2562 12.3375 48.125 20.7812 48.125C26.4338 48.125 31.3698 45.0373 34.0222 40.4688H48.125V43.75H39.375C36.3595 43.75 33.9062 46.2033 33.9062 49.2188V60.1562C33.9062 63.1717 36.3595 65.625 39.375 65.625H56.875C59.8905 65.625 62.3438 63.1717 62.3438 60.1562V49.2188C62.3438 46.2033 59.8905 43.75 56.875 43.75ZM7.65625 32.8125C7.65625 25.9437 12.9609 20.2902 19.6875 19.7334V32.5937L14.7459 44.4544C10.5394 42.2658 7.65625 37.8733 7.65625 32.8125ZM32.6977 38.2812H28.2352C27.7823 37.0114 26.5792 36.0938 25.1552 36.0938C23.3461 36.0938 21.8739 37.5659 21.8739 39.375C21.8739 41.1841 23.3461 42.6562 25.1552 42.6562C26.5792 42.6562 27.7823 41.7386 28.2352 40.4688H31.4245C29.0391 43.7752 25.1606 45.9375 20.7812 45.9375C19.3791 45.9375 18.0294 45.7111 16.7617 45.302L21.5108 33.9062H33.8603C33.7313 35.4583 33.3211 36.9283 32.6977 38.2812ZM26.25 39.375C26.25 39.9777 25.7589 40.4688 25.1562 40.4688C24.5536 40.4688 24.0625 39.9777 24.0625 39.375C24.0625 38.7723 24.5536 38.2812 25.1562 38.2812C25.7589 38.2812 26.25 38.7723 26.25 39.375ZM60.1562 60.1562C60.1562 61.9653 58.6841 63.4375 56.875 63.4375H39.375C37.5659 63.4375 36.0938 61.9653 36.0938 60.1562V49.2188C36.0938 47.4097 37.5659 45.9375 39.375 45.9375H56.875C58.6841 45.9375 60.1562 47.4097 60.1562 49.2188V60.1562Z" fill="#617792"/>
<path d="M40.4688 13.125C40.1789 13.125 39.9 13.2398 39.6955 13.4455L35.7416 17.3994C32.9886 14.7591 29.2633 13.125 25.1562 13.125C24.5525 13.125 24.0625 13.615 24.0625 14.2188V28.4375C24.0625 29.0412 24.5525 29.5312 25.1562 29.5312H39.375C39.9787 29.5312 40.4688 29.0412 40.4688 28.4375C40.4688 24.8883 39.2438 21.6245 37.2094 19.0247L40.9216 15.3125H45.9375V13.125H40.4688ZM38.2353 27.3438H26.25V15.3584C29.3202 15.6133 32.0873 16.9367 34.1961 18.9448L32.0392 21.1017L33.5858 22.6483L35.6508 20.5833C37.0913 22.5017 38.0264 24.8194 38.2353 27.3438Z" fill="#617792"/>
<path d="M65.625 13.125H48.125V15.3125H65.625V13.125Z" fill="#617792"/>
<path d="M65.625 17.5H48.125V19.6875H65.625V17.5Z" fill="#617792"/>
<path d="M65.625 21.875H48.125V24.0625H65.625V21.875Z" fill="#617792"/>
<path d="M26.25 67.8125V56.875C26.25 56.2713 25.76 55.7812 25.1562 55.7812H20.7812V52.5C20.7812 51.8963 20.2912 51.4062 19.6875 51.4062H14.2188C13.615 51.4062 13.125 51.8963 13.125 52.5V61.25H8.75C8.14625 61.25 7.65625 61.74 7.65625 62.3438V67.8125H2.1875V70H8.75H14.2188H19.6875H25.1562H30.625V67.8125H26.25ZM13.125 67.8125H9.84375V63.4375H13.125V67.8125ZM18.5938 56.875V67.8125H15.3125V62.3438V53.5938H18.5938V56.875ZM24.0625 67.8125H20.7812V57.9688H24.0625V67.8125Z" fill="#617792"/>
<path d="M55.8384 49.9658L53.3096 57.5542L47.971 48.6555C47.7599 48.3033 47.3804 48.0987 46.9593 48.1272C46.5491 48.1545 46.1904 48.4094 46.0285 48.7878L43.3838 54.9598L41.2445 52.8205C40.9852 52.5612 40.6134 52.4497 40.2513 52.523C39.8915 52.5962 39.5918 52.8467 39.4551 53.188L37.2676 58.6567L39.2976 59.4694L40.8693 55.5406L42.978 57.6494C43.2351 57.9064 43.6015 58.0191 43.958 57.9502C44.3146 57.8823 44.6143 57.6406 44.7565 57.307L47.1955 51.6162L52.6577 60.7195C52.8557 61.0509 53.2123 61.25 53.594 61.25C53.6334 61.25 53.6738 61.2478 53.7132 61.2434C54.1376 61.1975 54.4963 60.9066 54.632 60.5019L57.9132 50.6581L55.8384 49.9658Z" fill="#617792"/>
<path d="M64.5312 28.4375H53.5938C52.99 28.4375 52.5 28.9275 52.5 29.5312V38.2812C52.5 38.885 52.99 39.375 53.5938 39.375H64.5312C65.135 39.375 65.625 38.885 65.625 38.2812V29.5312C65.625 28.9275 65.135 28.4375 64.5312 28.4375ZM61.413 30.625L59.0625 32.5062L56.7109 30.625H61.413ZM54.6875 31.8062L57.3125 33.9062L54.6875 36.0062V31.8062ZM56.7109 37.1875L59.0625 35.3062L61.4141 37.1875H56.7109ZM63.4375 36.0052L60.8125 33.9062L63.4375 31.8062V36.0052Z" fill="#617792"/>
</g>
<defs>
<clipPath id="clip0_1599_2630">
<rect width="70" height="70" fill="white"/>
</clipPath>
</defs>
</svg>
