<svg width="70" height="70" viewBox="0 0 70 70" fill="none" xmlns="http://www.w3.org/2000/svg">
<g clip-path="url(#clip0_1599_2603)">
<path d="M55.8437 17.1636C58.2247 17.1636 60.1548 15.2335 60.1553 12.8526C60.1553 10.4716 58.2252 8.5415 55.8443 8.5415C53.4633 8.5415 51.5332 10.4716 51.5332 12.8526C51.536 15.2324 53.4644 17.1609 55.8437 17.1636ZM55.8437 10.5191C57.1327 10.5191 58.1772 11.5636 58.1778 12.8526C58.1778 14.141 57.1327 15.1861 55.8443 15.1861C54.5553 15.1861 53.5108 14.1415 53.5108 12.8526C53.5119 11.5647 54.5559 10.5207 55.8437 10.5191Z" fill="#617792"/>
<path d="M59.058 16.4668C58.739 16.4789 58.4444 16.6395 58.2612 16.9005C58.0819 17.1499 57.8656 17.3712 57.6206 17.5566C56.9816 18.0316 56.1793 18.2314 55.3919 18.1117C54.6023 17.9836 53.8961 17.5466 53.4287 16.8966C53.245 16.6362 52.9503 16.4773 52.6319 16.4668C50.4392 16.4668 48.7016 18.3136 48.7016 20.5069V24.7303C48.6939 24.9802 48.7915 25.2219 48.9703 25.3968C49.1496 25.5712 49.3935 25.6628 49.6435 25.6484H62.0459C62.2936 25.6622 62.5353 25.5701 62.7113 25.3952C62.8873 25.2197 62.9806 24.9786 62.9685 24.7303V20.5069C62.9685 18.3136 61.2508 16.4668 59.058 16.4668ZM60.9909 23.6709H50.6792V20.5069C50.6704 19.5706 51.317 18.7556 52.2308 18.5514C53.949 20.3922 56.7731 20.6565 58.8031 19.1656C59.0392 18.9824 59.2577 18.7766 59.4547 18.5514C60.3651 18.7572 61.0063 19.5733 60.9909 20.5069V23.6709Z" fill="#617792"/>
<path d="M55.9127 3.04468C50.6316 3.04192 45.7936 5.99505 43.3812 10.6929C40.9694 15.3908 41.3893 21.0432 44.4694 25.3333L34.9991 28.3196L25.5289 25.3333C29.1811 20.2332 29.0189 13.3321 25.1316 8.4091C21.2443 3.48555 14.5689 1.72813 8.76084 4.09748C2.95279 6.46738 -0.586888 12.3935 0.0791119 18.6308C0.745663 24.8682 5.45787 29.9131 11.6356 31.0023L8.62565 34.0112C5.06225 37.5746 5.24378 43.5598 9.029 47.3521C13.1547 51.4855 17.602 55.9406 21.3089 59.6469C20.9679 60.9756 21.3481 62.386 22.3115 63.3632L22.36 63.4117C23.0884 64.1357 24.0755 64.539 25.1024 64.5324C25.4329 64.5319 25.7623 64.4921 26.0835 64.4127L26.4559 64.784C27.0463 65.3744 27.7951 65.7805 28.6117 65.9532C29.318 66.569 30.2251 66.9056 31.1626 66.8984C31.21 66.8984 31.2581 66.8973 31.3061 66.8957C32.3914 66.8543 33.4199 66.4013 34.183 65.6288L34.9991 64.8127L35.8158 65.6288C36.5789 66.4013 37.6074 66.8543 38.6922 66.8951C38.7402 66.8968 38.7877 66.8979 38.8357 66.8979C39.7726 66.9056 40.6797 66.5696 41.3854 65.9543C42.2021 65.7789 42.9503 65.3722 43.5424 64.7835L43.917 64.4099C45.2463 64.7509 46.6572 64.3724 47.6377 63.4117L47.6873 63.3621C48.6474 62.3832 49.0265 60.9751 48.6877 59.6469C52.4222 55.9136 56.7961 51.533 60.9693 47.3516C64.7545 43.5587 64.936 37.5735 61.3726 34.0106L58.3626 31.0023C65.5551 29.7321 70.5835 23.1764 69.9456 15.9006C69.3083 8.62539 63.2161 3.04413 55.9127 3.04468ZM1.97779 17.13C1.97724 10.443 7.39849 5.02171 14.0855 5.02171C20.7726 5.02171 26.1938 10.443 26.1938 17.13C26.1938 23.817 20.7726 29.2377 14.0855 29.2377C7.4018 29.2306 1.98496 23.8137 1.97779 17.13ZM32.7843 64.2306C32.7766 64.2383 32.7677 64.2455 32.7595 64.2532C32.9929 63.8929 33.1634 63.4951 33.2638 63.0768L33.6009 63.4139L32.7843 64.2306ZM46.2897 61.9639L46.2395 62.0135C45.4642 62.7888 44.135 62.7215 43.2775 61.8634L28.9814 47.5673L27.5832 48.9656L40.0319 61.4148C40.8888 62.2723 40.9556 63.6004 40.1908 64.3658L40.1759 64.3801C39.8002 64.7504 39.2865 64.9457 38.7601 64.9192C38.1757 64.8944 37.6229 64.6483 37.214 64.23L24.7658 51.7824L23.3676 53.1806L30.7052 60.5187C31.1229 60.9276 31.369 61.4805 31.3938 62.0648C31.4203 62.5918 31.2249 63.1055 30.8542 63.4813L30.8078 63.5276C30.0348 64.3007 28.7083 64.2355 27.8508 63.3819C23.8443 59.3948 16.7572 52.2956 10.4289 45.955C7.41283 42.9335 7.23075 38.2025 10.0239 35.4094L14.2191 31.2142C17.9629 31.1805 21.5379 29.6532 24.1506 26.9721L31.7111 29.3564L27.5225 30.6773C27.0783 30.8175 26.7925 31.2484 26.8355 31.7119L26.942 32.8535C26.9966 34.3025 27.6478 35.6649 28.7414 36.6172C29.8626 37.5856 31.3359 38.0442 32.8086 37.8841L33.4017 37.8262L47.0815 51.5247C47.9384 52.3827 48.0046 53.7109 47.2299 54.4856C47.2272 54.4883 47.2249 54.4911 47.2222 54.4939C46.847 54.8591 46.3366 55.0517 45.8135 55.0252C45.2601 55.002 44.7337 54.7791 44.332 54.3978L39.8669 49.9345C36.4641 46.5328 33.5248 43.5956 33.2423 43.3104L31.8391 44.7036C32.1244 44.9911 35.0642 47.9304 38.4687 51.3332L42.8703 55.7326L42.8692 55.7337C42.8973 55.7618 42.9255 55.79 42.9547 55.8176C44.1421 57.0045 45.2424 58.1042 46.1396 59.0025C46.9976 59.861 47.0644 61.1886 46.2897 61.9639ZM59.5694 45.955C55.559 49.9731 51.3639 54.1755 47.7293 57.8095C47.668 57.74 47.6051 57.671 47.5384 57.6048C47.3138 57.3797 47.0765 57.143 46.8277 56.8941C47.5097 56.7302 48.1326 56.3809 48.6276 55.8843C48.6314 55.8805 48.6353 55.8772 48.6392 55.8733C50.1731 54.3267 50.1036 51.7526 48.4802 50.1276L36.3968 38.0265L37.1941 37.2281C37.4888 36.9329 37.5666 36.4837 37.3883 36.1063C37.2096 35.7289 36.8134 35.5043 36.3979 35.5451L32.6154 35.9159C31.684 36.0219 30.7504 35.735 30.0386 35.1252C29.35 34.5216 28.9439 33.6592 28.9163 32.7437C28.9163 32.7272 28.9146 32.7106 28.913 32.6941L28.8788 32.3233L45.8477 26.9721C48.4598 29.6532 52.0348 31.18 55.7781 31.2142L59.9733 35.4094C62.767 38.2025 62.5854 42.9335 59.5694 45.955ZM55.9127 29.2377C49.2257 29.2377 43.805 23.817 43.805 17.13C43.805 10.443 49.2257 5.02226 55.9127 5.02226C62.5998 5.02226 68.0205 10.443 68.0205 17.13C68.0133 23.8137 62.5965 29.2306 55.9127 29.2377Z" fill="#617792"/>
<path d="M14.0171 17.1636C16.3981 17.1636 18.3282 15.2335 18.3282 12.8526C18.3282 10.4716 16.3981 8.5415 14.0171 8.5415C11.6362 8.5415 9.70605 10.4716 9.70605 12.8526C9.70881 15.2324 11.6373 17.1609 14.0171 17.1636ZM14.0171 10.5191C15.3055 10.5191 16.3506 11.5642 16.3506 12.8526C16.3506 14.1415 15.3055 15.1861 14.0171 15.1861C12.7282 15.1861 11.6836 14.1415 11.6836 12.8526C11.6847 11.5647 12.7287 10.5207 14.0171 10.5191Z" fill="#617792"/>
<path d="M21.1564 24.7303V20.5069C21.1564 18.3136 19.4233 16.4668 17.2305 16.4668C16.9115 16.4789 16.6169 16.6395 16.4337 16.9005C16.2544 17.1499 16.0381 17.3712 15.7931 17.5566C14.4517 18.5277 12.5773 18.2308 11.6018 16.8922C11.4175 16.6334 11.1223 16.4756 10.8044 16.4668C8.6111 16.4668 6.88955 18.3136 6.88955 20.5069V24.7303C6.87851 24.9786 6.97231 25.2203 7.14888 25.3952C7.32545 25.5701 7.56769 25.6622 7.81599 25.6484H20.2184C20.4678 25.6628 20.7117 25.5712 20.8899 25.3963C21.0681 25.2219 21.1652 24.9802 21.1564 24.7303ZM19.1788 23.6709H8.86713V20.5069C8.85499 19.5722 9.49892 18.7567 10.411 18.5514C12.1276 20.3922 14.9511 20.6565 16.9794 19.1656C17.2178 18.9824 17.4379 18.7766 17.6366 18.5514C18.5487 18.7567 19.1921 19.5722 19.1788 20.5069V23.6709Z" fill="#617792"/>
</g>
<defs>
<clipPath id="clip0_1599_2603">
<rect width="70" height="70" fill="white"/>
</clipPath>
</defs>
</svg>
