<svg width="40" height="40" viewBox="0 0 40 40" fill="none" xmlns="http://www.w3.org/2000/svg">
<g clip-path="url(#clip0_1599_3313)">
<path fill-rule="evenodd" clip-rule="evenodd" d="M32.8361 37.163V36.7607C34.0782 36.7607 35.5204 36.8742 36.6983 36.5998C36.6983 37.2836 36.7309 37.6865 36.4444 38.1161C35.9898 38.7981 35.19 38.6918 34.3649 38.6918C33.3786 38.6918 32.8361 38.1494 32.8361 37.163V37.163ZM3.22526 36.5998C4.40322 36.8742 5.84535 36.7607 7.08748 36.7607C7.08748 38.6893 6.38211 38.6918 4.75408 38.6918C3.24755 38.6918 3.22526 37.6174 3.22526 36.5998ZM10.7888 34.1859H29.1345C30.4042 34.1859 32.5353 34.6239 33.1576 35.4733H6.76552C7.38783 34.6239 9.51895 34.1859 10.7886 34.1859H10.7888ZM9.6623 20.4264C9.6623 19.7213 10.6575 18.7174 11.1716 18.2343C11.4844 17.9401 11.8626 17.6871 12.2628 17.4748C12.4847 17.3572 12.6637 17.2973 12.8808 17.2077C13.1059 17.1146 13.4112 17.0596 13.6053 16.9665C13.8078 17.2689 14.4324 17.6509 14.7316 17.8519C15.3776 18.2855 16.0795 18.6148 16.8327 18.889C19.7618 19.9557 23.3118 19.2899 25.7246 17.4989C25.8694 17.3915 25.8814 17.3506 26.0295 17.2407C26.2512 17.0764 26.1654 17.1954 26.3187 16.9665C26.7954 17.1952 27.8273 17.3137 28.7539 18.2325C29.079 18.555 29.3889 18.7957 29.651 19.1859C30.2065 20.013 30.5346 20.4772 29.9232 21.0538C29.7279 21.2378 29.5737 21.3113 29.2153 21.3113H10.7085C10.0705 21.3113 9.66253 20.8083 9.66253 20.4262L9.6623 20.4264ZM36.0544 18.7368C36.0544 17.9115 37.3769 18.093 37.9052 18.093C38.8413 18.093 38.8413 19.3805 37.9052 19.3805C37.3769 19.3805 36.0544 19.562 36.0544 18.7368V18.7368ZM1.29391 18.7368C1.29391 17.9115 2.61636 18.093 3.14471 18.093C4.0808 18.093 4.0808 19.3805 3.14471 19.3805C2.61636 19.3805 1.29391 19.562 1.29391 18.7368V18.7368ZM8.37466 20.185C8.37466 21.6017 9.24067 22.599 10.3863 22.599H29.5368C30.5209 22.599 31.5485 21.5714 31.5485 20.5873C31.5485 18.7247 29.7407 17.0393 28.1707 16.2407C27.8726 16.0891 27.6291 16.0914 27.4448 15.84C27.6194 15.5792 27.8326 15.4716 27.9277 15.1157C28.3859 15.2224 29.3364 15.8261 29.699 16.08L31.206 17.3893L32.3706 18.9604C32.4695 19.1156 32.5116 19.2344 32.5956 19.3791C32.6948 19.55 32.7651 19.6044 32.8623 19.8367C33.5176 21.4062 34.1424 20.1602 35.0084 19.7022C35.1404 19.8992 35.21 20.0506 35.4107 20.185C35.1174 20.7393 34.1233 22.2399 34.1233 22.599C34.1233 23.404 34.9447 23.2017 35.6228 23.3524C36.7789 23.6092 37.6849 24.4013 38.2267 25.4154C38.8488 26.5802 38.6292 30.4372 38.6292 32.0133C38.6292 32.5797 38.5346 33.0307 38.3787 33.4525L37.7254 34.489C37.6174 34.6114 37.4203 34.7342 37.2756 34.8437C37.107 34.9711 36.9384 35.0878 36.7252 35.1784C34.8662 35.9691 34.7952 35.0266 34.2191 34.5729C33.0418 33.6455 31.591 32.8985 29.9391 32.8985H9.98404C8.84248 32.8985 7.73027 33.3201 6.9521 33.7288C6.49247 33.9702 6.18143 34.2284 5.79939 34.5072C4.85761 35.1939 5.11723 35.8892 3.31468 35.2228C2.57222 34.9481 1.85571 34.2469 1.56582 33.5117C1.10938 32.354 1.29391 28.9555 1.29391 27.4271C1.29391 25.4239 2.34946 23.8441 4.25304 23.3858C4.55453 23.3132 4.86034 23.2898 5.23237 23.2386C6.50976 23.0627 5.23237 21.4049 4.70698 20.5543L4.51244 20.266C4.64532 20.0676 4.7898 19.8895 4.91472 19.7029C5.11905 19.811 5.07536 19.765 5.25694 19.924C6.80169 21.2758 6.7018 20.3987 7.49182 19.0614C7.96805 18.2553 8.1767 18.081 8.68138 17.4348C9.2409 16.7183 11.1929 15.3037 11.9957 15.1166C12.0906 15.4723 12.304 15.5801 12.4785 15.8409C12.289 16.0996 12.1324 16.0554 11.8066 16.215C11.2305 16.4971 10.4048 17.0646 9.96379 17.5103C9.40541 18.0746 8.37489 19.3297 8.37489 20.1859L8.37466 20.185ZM28.3297 9.72467C28.3297 11.3807 27.7324 13.1125 26.8494 14.4399C26.3963 15.1207 25.4894 16.0737 24.7738 16.5485C23.72 17.248 23.1239 17.5197 21.8768 17.8357C20.0007 18.3113 17.9456 18.0473 16.2595 17.2084C10.6908 14.4374 9.62476 6.36553 15.7935 2.49898C18.1288 1.03523 20.9641 1.16424 23.3305 2.091C23.7103 2.23981 23.9712 2.40978 24.333 2.6173C25.032 3.01799 25.5153 3.49491 26.0568 4.03167C27.1115 5.07698 27.9472 6.82561 28.1691 8.27593C28.2246 8.6384 28.3297 9.34764 28.3297 9.72467V9.72467ZM10.3058 9.24183C10.3058 11.0241 10.3602 11.4801 10.9181 13.1355C11.0414 13.5013 11.1941 13.6583 11.2712 13.9892C10.468 14.1762 8.81904 15.4329 8.27409 15.9808C7.26223 16.9977 6.77939 17.5738 6.12158 18.8171C5.61827 18.6826 5.15546 18.1381 4.88287 17.7224C4.13268 16.5781 3.19431 16.8056 1.77652 16.8056C0.0495107 16.8056 -0.780547 19.41 0.972176 20.4262C1.57947 20.7782 2.29918 20.6681 3.2248 20.6681C3.47304 21.137 3.78136 21.5669 4.02937 22.0361C3.58067 22.2513 2.74538 22.3646 1.87732 23.1025C0.937818 23.9009 0.00627863 25.2935 0.00627863 26.7834V32.4964C0.00627863 33.2958 0.298665 34.0166 0.617445 34.5406C1.01723 35.1973 1.29847 35.5286 1.93739 35.9566C1.93739 37.3919 1.72032 38.6718 3.07827 39.5631C3.95861 40.141 4.83417 39.9799 6.04103 39.9799C7.15551 39.9799 8.37443 38.7608 8.37443 37.6465V36.7614H31.548C31.548 37.7414 31.4841 38.4163 32.2507 39.1967C33.2282 40.192 34.1934 39.9799 35.6517 39.9799C36.3871 39.9799 37.2005 39.4186 37.6005 38.7908C38.1186 37.9776 37.9851 37.2099 37.9851 35.9568C39.0454 35.2469 39.9162 33.9081 39.9162 32.4969V26.7839C39.9162 25.0689 38.5764 23.1751 37.1266 22.4927C36.9718 22.4199 36.8929 22.411 36.7245 22.3316C36.228 22.0977 36.1183 22.1448 35.8931 22.0365C36.1413 21.5675 36.4496 21.1377 36.6977 20.6685C37.6233 20.6685 38.343 20.7787 38.9503 20.4267C40.7032 19.4107 39.8732 16.8061 38.1459 16.8061C36.6724 16.8061 35.8462 16.5815 35.073 17.676C34.7825 18.0871 34.364 18.6674 33.8009 18.8178C33.1053 17.5033 32.4623 16.7442 31.3687 15.698C30.8631 15.2145 29.2244 14.1234 28.6512 13.9899L29.0044 13.1361C30.0754 9.96176 29.808 6.78533 27.8146 4.04441C27.7161 3.90903 27.6794 3.86352 27.5734 3.72245C27.4519 3.56067 27.3809 3.52722 27.268 3.3841C26.5752 2.50467 25.6521 1.77381 24.6541 1.25071C23.4941 0.642497 22.4936 0.231792 21.0822 0.0752456C20.9029 0.0554498 20.7008 0.0832094 20.5234 0.0709223C19.8055 0.020409 20.4999 -0.0542234 19.4728 0.0647788C19.2949 0.0854848 19.0912 0.0572701 18.914 0.0693296C18.6357 0.0882152 18.1893 0.186739 17.8869 0.249084C16.3317 0.569685 14.376 1.59907 13.261 2.70422C12.4442 3.51402 11.8055 4.39573 11.2708 5.46129C10.8041 6.39147 10.3053 7.85749 10.3053 9.2432L10.3058 9.24183Z" fill="#617792"/>
<path fill-rule="evenodd" clip-rule="evenodd" d="M16.3213 5.19943C17.1714 6.45931 17.6677 5.80104 18.4645 5.49204C19.4011 5.12867 19.3176 5.29158 19.3176 3.93136H20.605C20.605 5.766 20.7105 5.02104 21.9722 5.70206C22.2842 5.87044 22.1379 5.94302 22.6969 5.94302C22.975 5.94302 23.4312 5.37372 23.6626 5.21877C23.8902 5.55849 24.353 5.75644 24.4672 6.18444C24.2412 6.24474 23.7429 6.68343 23.7429 7.15011C23.7429 7.43977 23.9532 7.60792 24.1937 8.22819C24.5571 9.16473 24.3941 9.08122 25.7544 9.08122V10.3686C24.0993 10.3686 24.6249 10.3315 23.9723 11.7245C23.8201 12.0492 23.7427 11.8902 23.7427 12.4606C23.7427 12.7387 24.312 13.1949 24.467 13.4263L23.6433 14.2117C22.8155 13.682 22.9989 13.2065 22.0162 13.7112C20.62 14.4279 20.605 13.7514 20.605 15.5185H19.3176C19.3176 14.242 19.4165 14.3087 18.5223 13.9803C17.73 13.6893 17.1944 12.9557 16.3404 14.2311L15.4726 13.4088C15.9543 12.6602 16.5097 12.6863 15.9689 11.7862C15.233 10.5611 16.1013 10.3686 14.1679 10.3686V9.08122C15.4405 9.08122 15.3784 9.18089 15.7065 8.28644C16.0224 7.42566 16.71 6.94419 15.4553 6.10412L16.3211 5.19989L16.3213 5.19943ZM18.0304 4.2531C17.8094 4.30453 17.7034 4.41397 17.5475 4.41397C17.0922 4.41397 17.1063 3.6094 16.1796 3.6094C15.9131 3.6094 15.1666 4.5018 14.9525 4.71591C14.4498 5.21854 13.846 5.58192 13.846 6.10389C13.846 6.66887 14.6505 7.01495 14.6505 7.23043C14.6505 7.52282 14.555 7.51258 14.4897 7.79359C12.574 7.79359 12.8803 7.53056 12.8803 11.0121C12.8803 11.8165 13.7067 11.6558 14.4897 11.6558C14.5411 11.8768 14.6505 11.9828 14.6505 12.1386C14.6505 12.594 13.846 12.5798 13.846 13.5066C13.846 13.7476 15.3327 15.1126 15.5962 15.3774C16.8026 16.5904 17.0151 15.0354 17.467 15.0354C17.7594 15.0354 17.7491 15.131 18.0301 15.1963C18.0301 17.1119 17.7671 16.8057 21.2487 16.8057C22.053 16.8057 21.8924 15.9793 21.8924 15.1963C22.1133 15.1449 22.2193 15.0354 22.3752 15.0354C22.8305 15.0354 22.8164 15.84 23.7432 15.84C23.9593 15.84 26.0766 13.7228 26.0766 13.5066C26.0766 12.6338 25.272 12.4977 25.272 12.2192C25.272 11.9268 25.3676 11.9371 25.4329 11.656C27.3485 11.656 27.0422 11.9191 27.0422 8.43752C27.0422 7.63317 26.2158 7.79382 25.4329 7.79382C25.3814 7.57288 25.272 7.46684 25.272 7.31098C25.272 6.85568 26.0766 6.86979 26.0766 5.94302C26.0766 5.71913 25.1343 4.87997 24.93 4.67564C24.4965 4.24218 24.0137 3.60962 23.5821 3.60962C23.0171 3.60962 22.671 4.4142 22.4555 4.4142C22.1631 4.4142 22.1734 4.31863 21.8924 4.25333C21.8924 2.33769 22.1554 2.64395 18.6738 2.64395C17.8695 2.64395 18.0301 3.47037 18.0301 4.25333L18.0304 4.2531Z" fill="#617792"/>
<path fill-rule="evenodd" clip-rule="evenodd" d="M33.3185 29.6796L34.5249 27.1849C35.195 27.5394 35.6183 28.1101 35.2774 28.9026C34.9286 29.7137 34.1154 29.6796 33.3185 29.6796ZM31.7897 29.6796H30.1L31.336 27.1191L32.9966 27.1048C32.8792 27.6086 32.2678 28.5888 32.0867 29.0111C32.0054 29.2004 32.0268 29.1761 31.9333 29.3406C31.8325 29.5178 31.8393 29.4664 31.7897 29.6798V29.6796ZM28.5712 29.5991C27.8813 29.2341 27.5031 28.7012 27.8196 27.8818C28.1082 27.1348 28.7812 27.1046 29.7783 27.1046C29.7007 27.4379 28.8563 29.0602 28.5714 29.5988L28.5712 29.5991ZM26.3987 28.2311C26.3987 29.075 26.5366 29.6088 27.1013 30.1838C27.4376 30.5263 28.0968 30.967 28.7321 30.967H34.3645C35.479 30.967 36.6979 29.7479 36.6979 28.6336C36.6979 27.7926 36.6172 27.2227 35.9548 26.5605C35.583 26.1887 35.0016 25.8174 34.284 25.8174H28.8124C27.5707 25.8174 26.3984 26.9897 26.3984 28.2313L26.3987 28.2311Z" fill="#617792"/>
<path fill-rule="evenodd" clip-rule="evenodd" d="M5.39737 27.1853C5.68748 27.7335 6.51253 29.2857 6.60423 29.6796C5.80739 29.6796 4.99417 29.7137 4.64536 28.9026C4.30473 28.1103 4.7275 27.5396 5.39714 27.1851L5.39737 27.1853ZM10.1145 27.12C10.618 27.105 11.0326 27.0823 11.4012 27.2163C11.7102 27.3285 11.9771 27.5879 12.1034 27.8818C12.2654 28.2586 12.2417 28.6282 12.077 28.9567C11.9086 29.2926 11.6785 29.4261 11.3516 29.5991L10.1142 27.1198L10.1145 27.12ZM6.89707 27.1194L8.61589 27.105C8.68119 27.3856 8.82135 27.5567 8.97699 27.8705C9.21522 28.3503 9.73947 29.3219 9.82275 29.6801H8.13305L6.89707 27.1196V27.1194ZM3.22484 28.2313C3.22484 29.9046 4.41304 30.967 5.55824 30.967H11.1907C12.3052 30.967 13.5241 29.7479 13.5241 28.6336C13.5241 27.7926 13.4433 27.2227 12.781 26.5605C12.4092 26.1887 11.8276 25.8174 11.1102 25.8174H5.63856C4.39688 25.8174 3.22461 26.9897 3.22461 28.2313H3.22484Z" fill="#617792"/>
<path fill-rule="evenodd" clip-rule="evenodd" d="M18.6741 9.80527C18.6084 9.38114 18.9995 8.52946 19.8971 8.45096C20.4997 8.3984 21.1725 8.93312 21.2355 9.66033C21.322 10.6588 20.0471 11.4809 19.1076 10.6594C19.0327 10.5939 18.8691 10.3605 18.8341 10.2892C18.8204 10.2615 18.6759 9.81551 18.6744 9.80527H18.6741ZM17.3867 9.56385C17.3867 13.2222 22.5364 13.2252 22.5364 9.56385C22.5364 8.23844 21.4203 7.1499 19.8007 7.1499C18.559 7.1499 17.3867 8.32218 17.3867 9.56385V9.56385Z" fill="#617792"/>
</g>
<defs>
<clipPath id="clip0_1599_3313">
<rect width="39.9231" height="40" fill="white"/>
</clipPath>
</defs>
</svg>
