<svg width="43" height="40" viewBox="0 0 43 40" fill="none" xmlns="http://www.w3.org/2000/svg">
<g clip-path="url(#clip0_1599_3273)">
<path fill-rule="evenodd" clip-rule="evenodd" d="M1.24329 38.1469V29.5265L3.89573 30.0238C3.89573 32.13 4.9432 32.0961 6.29948 32.0961C7.16484 32.0961 7.6257 31.3984 7.79147 30.6869C8.52217 30.6869 10.0157 30.9356 11.4385 30.9356L15.9145 30.6869C15.9997 31.0527 16.1324 31.3515 16.3254 31.6023C16.8049 32.225 17.5786 32.0961 18.3182 32.0961C19.4823 32.0961 19.8102 31.0505 19.8102 30.0238C20.2414 29.9234 20.6483 29.8493 21.1168 29.7557C21.4739 29.6843 22.0321 29.5265 22.4626 29.5265C22.4626 30.9745 22.5843 37.6836 22.3798 38.5614C22.1939 38.6047 22.1892 38.6443 21.9653 38.6443H1.40906C1.3229 38.4814 1.24329 38.3999 1.24329 38.147V38.1469ZM18.1525 30.8528L17.2408 30.7699C17.2408 30.3279 17.2416 29.8857 17.2408 29.4437C17.2386 28.3704 17.1542 28.449 18.1525 28.449C18.6738 28.449 18.4841 29.46 18.4841 30.5212C18.4841 30.7152 18.3465 30.8528 18.1525 30.8528ZM5.22195 30.5212C5.22195 28.2434 5.0194 28.449 6.13371 28.449C6.65496 28.449 6.46525 29.46 6.46525 30.5212C6.46525 31.0065 5.22195 31.0065 5.22195 30.5212ZM3.89573 28.6977C3.46764 28.598 3.02863 28.5338 2.57563 28.443C2.2164 28.371 1.62455 28.2089 1.24329 28.2004V22.9785C1.24329 22.6742 1.37175 22.5778 1.49199 22.3982C8.39939 22.3982 15.3067 22.3982 22.2141 22.3982C22.3344 22.5778 22.4628 22.6742 22.4628 22.9785V28.2004L19.8104 28.6977C19.431 27.0696 18.5884 27.2057 17.4066 27.2057C16.0568 27.2057 15.9146 28.4479 15.9146 29.3609C15.5535 29.3609 14.0493 29.6096 12.9307 29.6096H10.7756C10.1557 29.6096 9.80382 29.5348 9.28241 29.5279C8.78144 29.5212 8.28754 29.3609 7.79164 29.3609C7.79164 27.291 7.03298 27.2057 5.3879 27.2057C4.86255 27.2057 4.64592 27.4024 4.37101 27.6808C4.03328 28.0229 4.01545 28.1843 3.89591 28.6977H3.89573ZM11.7701 19.58C12.4012 19.58 12.8629 19.7211 13.3142 20.0252C13.7105 20.2924 13.9729 20.6922 14.1739 21.072H9.53215C9.74169 20.676 9.92162 20.3787 10.3432 20.0596C10.6486 19.8285 11.2472 19.58 11.7701 19.58V19.58ZM8.123 21.072H6.79678C6.86957 20.1972 7.73161 18.8738 8.3495 18.3145C9.07382 17.6589 10.4019 17.0105 11.3557 17.0105C12.536 17.0105 13.3342 16.9989 14.3732 17.6401C14.5337 17.7391 14.5897 17.7573 14.7391 17.8545C15.871 18.5903 16.6031 19.7585 16.9092 21.0721H15.5829C15.1363 20.1413 15.2544 20.0335 14.2789 19.1435C13.7156 18.6296 12.5698 18.2519 11.853 18.2519C10.3896 18.2519 9.01117 19.2055 8.37108 20.4913C8.27321 20.688 8.21537 20.8795 8.123 21.0721V21.072ZM36.8853 15.187L35.9735 15.1041V12.9489C36.4186 12.7134 36.7719 12.7134 37.2168 12.9489C37.2168 14.0416 37.4174 15.1869 36.8853 15.1869V15.187ZM23.9547 14.8555V12.949C24.3573 12.736 24.3152 12.7832 24.8665 12.7832C25.3865 12.7832 25.198 14.1953 25.198 15.1041C24.897 15.1743 23.9547 15.3815 23.9547 14.8555V14.8555ZM22.6285 13.0319C22.241 12.9997 21.7106 12.8568 21.3085 12.7771C20.9469 12.7055 20.3596 12.5432 19.9761 12.5346V7.31268C19.9761 6.92575 20.1693 6.73246 20.5563 6.73246H40.6153C41.0022 6.73246 41.1955 6.92575 41.1955 7.31268V12.5346C40.624 12.5473 39.205 12.9769 38.5431 13.0319C38.1696 11.4286 37.332 11.5399 36.1393 11.5399C35.3199 11.5399 34.6473 12.3005 34.6473 13.1149V13.6951C34.1812 13.7055 32.8308 13.9438 31.7463 13.9438H29.4254C28.3408 13.9438 26.9903 13.7055 26.5243 13.6951V13.1149C26.5243 12.3006 25.8517 11.5399 25.0323 11.5399C23.8396 11.5399 23.0021 11.4286 22.6286 13.0319H22.6285ZM30.5858 3.91425C31.6359 3.91425 32.7122 4.65439 32.9067 5.48916H28.265C28.4594 4.65447 29.5357 3.91425 30.5859 3.91425H30.5858ZM26.8559 5.48916H25.5296C25.6983 3.46274 28.0847 1.34473 30.2543 1.34473C31.5546 1.34473 32.2271 1.42915 33.3718 2.12306C33.6994 2.3216 33.7472 2.43843 34.0171 2.63819C34.6693 3.12072 35.5586 4.48757 35.642 5.48925H34.3158C33.7488 3.05544 30.5463 1.60907 28.1657 3.48353C27.6172 3.91538 27.0371 4.71136 26.8559 5.48925V5.48916ZM24.2034 5.48916H20.1419C19.5787 5.48916 18.7328 6.17783 18.7328 7.06408V21.0722H18.2355C18.1784 20.3859 17.7403 19.4744 17.463 18.9435C17.054 18.1605 16.4611 17.5911 15.8106 17.0317C15.6789 16.9185 15.5285 16.8356 15.368 16.7283C15.044 16.5119 14.7551 16.3806 14.3962 16.2082C12.5613 15.3271 10.041 15.6047 8.38725 16.6945C8.2449 16.7884 8.0704 16.8925 7.94151 16.9948C6.74793 17.9422 5.59281 19.6045 5.47065 21.0721C4.31282 21.0721 1.47984 20.8876 0.742935 21.4006C0.456317 21.6001 0 22.1044 0 22.5641V38.3958C0 39.2532 0.822978 39.9707 1.65775 39.9707H22.0483C22.8776 39.9707 23.706 39.2348 23.706 38.3958V24.3048H35.8078C36.6986 24.3048 36.7715 22.9785 35.5591 22.9785H23.706C23.706 20.7618 21.6538 21.0721 19.9761 21.0721V13.8608L22.6285 14.3581C22.6285 15.7113 23.1734 16.5132 24.5349 16.5132C25.709 16.5132 26.2841 16.0523 26.5243 15.0212C27.0719 15.0212 28.6596 15.2699 29.9228 15.2699L34.6474 15.0212C34.9887 16.4861 36.2462 16.7295 37.4342 16.3988C38.2824 16.1627 38.5432 15.2609 38.5432 14.3582C38.9628 14.2604 39.4273 14.1897 39.8632 14.1033C40.2248 14.0317 40.8121 13.8694 41.1957 13.8609V22.4812C41.1957 22.7341 41.1161 22.8157 41.0299 22.9785C40.422 22.9785 39.8134 22.9812 39.2056 22.9778C37.884 22.9704 37.9232 23.7341 38.2526 24.098C38.5792 24.4588 39.799 24.3048 40.6983 24.3048C41.4094 24.3048 41.9402 24.015 42.2733 23.3931C42.3693 23.2139 42.439 23.0103 42.439 22.7298V7.06399C42.439 6.60793 42.2443 6.25281 42.0064 6.00455C41.8115 5.80121 41.3892 5.48907 41.0299 5.48907H36.9684C36.949 4.61961 36.217 3.14152 35.6209 2.4435C33.1704 -0.425744 29.3148 -0.870177 26.3373 1.65486C26.1473 1.81591 26.0968 1.77519 25.9271 1.99067C25.6003 2.40583 25.2078 2.83331 24.976 3.27748C24.7063 3.79418 24.2191 4.79254 24.2035 5.48899L24.2034 5.48916Z" fill="#36D1C2"/>
<path fill-rule="evenodd" clip-rule="evenodd" d="M32.1605 32.5106C31.4511 32.5106 31.4145 32.102 31.4145 31.5988C31.4145 31.393 34.2919 27.6931 34.4503 27.5891C35.1538 27.127 35.5741 27.9198 35.8678 28.3059C36.2403 28.7955 38.2942 31.2375 38.2942 31.7646C38.2942 32.4506 37.7206 32.6326 37.3702 32.5299C36.8062 32.3646 36.822 31.7646 36.3049 31.7646C35.9283 31.7646 35.8725 31.9416 35.6417 32.0961C35.6417 34.3685 36.0222 36.6732 34.1518 37.9832C33.7433 38.2693 33.0191 38.6443 32.3262 38.6443H28.5133C27.9664 38.6443 27.6096 37.613 28.3425 37.2301C28.9727 36.9008 32.2065 37.5498 33.2557 36.7556C33.6102 36.4873 34.0668 35.9275 34.0668 35.3287V32.3447C34.0668 31.7912 33.7146 31.7645 33.3208 31.7645C32.9363 31.7645 32.7818 32.5105 32.1604 32.5105L32.1605 32.5106ZM30.0883 31.6817C30.0883 32.352 30.2892 32.8094 30.645 33.1972C31.4726 34.0989 32.4086 33.7631 32.8235 33.7539C32.8235 36.1357 33.1829 35.8394 29.1764 35.826C28.354 35.8233 27.799 35.9284 27.3717 36.3421C26.1604 37.5147 26.468 39.1198 27.8754 39.7795C28.5809 40.1102 30.9657 39.9704 31.9947 39.9704C33.7769 39.9704 35.4319 38.933 36.1674 37.6779C36.4865 37.1334 36.4811 37.1881 36.7106 36.4804C36.968 35.687 36.8851 34.6695 36.8851 33.7538C37.4511 33.8009 38.1267 34.0639 38.9808 33.2799C39.2759 33.009 39.6205 32.38 39.6205 31.8474C39.6205 30.7462 38.2755 29.3625 37.4982 28.3332C36.4398 26.9316 36.2582 26.2109 34.6471 26.2109C33.6441 26.2109 33.0859 27.1578 32.5609 27.8546L30.4186 30.6856C30.2476 30.9429 30.0883 31.2582 30.0883 31.6816L30.0883 31.6817Z" fill="#36D1C2"/>
<path fill-rule="evenodd" clip-rule="evenodd" d="M13.9249 0.681277C13.9249 1.43548 14.9459 1.34513 15.2511 1.34443C16.3776 1.34155 16.5774 1.35789 16.5774 2.25619C16.5774 2.98916 15.2324 2.83642 15.0024 2.83642C13.7166 2.83633 11.9052 2.63806 11.1668 3.311C10.8152 3.63143 10.4436 4.10741 10.4436 4.74286V7.8926C10.8334 8.15362 10.5881 8.22414 11.1895 8.22414C11.609 8.22414 11.6519 7.47814 12.4328 7.47814C12.9953 7.47814 13.096 7.87565 13.096 8.30706C13.096 8.64122 12.9557 8.7113 12.7986 8.92146L10.348 12.1072C9.59899 13.1118 8.99255 12.0834 8.68252 11.7259L6.53323 8.90197C6.0147 8.21907 6.06817 7.47823 7.04521 7.47823C7.74288 7.47823 7.60875 8.22423 8.20566 8.22423C8.58229 8.22423 8.63804 8.04719 8.86882 7.89269C8.86882 6.42972 8.657 4.25893 9.38237 3.10136C9.93857 2.21372 10.5953 1.68855 11.6715 1.4118C12.377 1.23039 12.3501 1.10692 12.3501 0.43267C12.1833 0.320994 12.0155 0.101137 11.7699 0.101137C10.614 0.101137 9.245 1.10439 8.551 2.02139C7.51516 3.39017 7.62544 4.57911 7.62544 6.23485C6.8306 6.04969 6.09605 6.14074 5.48742 6.74928C4.52096 7.71574 4.88185 8.9724 5.65642 9.86153L6.76261 11.3249C7.50083 12.3219 8.37239 13.7776 9.44887 13.7776C10.4695 13.7776 10.7438 13.6466 11.4159 12.8435L14.1418 9.26986C14.9635 8.06064 13.9904 6.15192 12.4329 6.15192C12.0164 6.15192 12.0618 6.22646 11.6869 6.23476C11.6869 3.85295 11.3277 4.14927 15.3341 4.16264C16.1155 4.16526 16.6779 4.07176 17.0974 3.68797C18.8612 2.07391 17.4146 0.0181227 15.9142 0.0181227C15.1278 0.0181227 13.9248 -0.172286 13.9248 0.681277H13.9249Z" fill="#36D1C2"/>
</g>
<defs>
<clipPath id="clip0_1599_3273">
<rect width="42.4389" height="40" fill="white"/>
</clipPath>
</defs>
</svg>
