<svg width="70" height="70" viewBox="0 0 70 70" fill="none" xmlns="http://www.w3.org/2000/svg">
<g clip-path="url(#clip0_1599_2448)">
<path d="M32.5391 50.7896C31.9726 50.7896 31.5137 51.2487 31.5137 51.815C31.5137 52.3813 31.9726 52.8404 32.5391 52.8404H37.4609C38.0274 52.8404 38.4863 52.3813 38.4863 51.815C38.4863 51.2487 38.0274 50.7896 37.4609 50.7896H32.5391Z" fill="#617792"/>
<path d="M12.3047 34.8679H19.0827C19.4966 35.9454 20.5397 36.7136 21.7611 36.7136C22.9826 36.7136 24.0256 35.9454 24.4396 34.8679H25.7943C26.3607 34.8679 26.8197 34.4088 26.8197 33.8425C26.8197 33.2762 26.3607 32.8171 25.7943 32.8171H24.4396C24.0256 31.7397 22.9826 30.9714 21.7611 30.9714C20.5397 30.9714 19.4966 31.7397 19.0827 32.8171H12.3047C11.7383 32.8171 11.2793 33.2762 11.2793 33.8425C11.2793 34.4088 11.7383 34.8679 12.3047 34.8679ZM21.7611 33.0222C22.2135 33.0222 22.5814 33.3901 22.5814 33.8425C22.5814 34.2949 22.2135 34.6629 21.7611 34.6629C21.3087 34.6629 20.9408 34.2949 20.9408 33.8425C20.9408 33.3901 21.3087 33.0222 21.7611 33.0222Z" fill="#617792"/>
<path d="M12.3047 28.989H13.6139C14.0279 30.0665 15.0709 30.8347 16.2924 30.8347C17.5138 30.8347 18.5568 30.0665 18.9708 28.989H25.7943C26.3607 28.989 26.8197 28.5299 26.8197 27.9636C26.8197 27.3973 26.3607 26.9382 25.7943 26.9382H18.9708C18.5568 25.8608 17.5138 25.0925 16.2924 25.0925C15.0709 25.0925 14.0279 25.8608 13.6139 26.9382H12.3047C11.7383 26.9382 11.2793 27.3973 11.2793 27.9636C11.2793 28.5299 11.7383 28.989 12.3047 28.989ZM16.2924 27.1433C16.7448 27.1433 17.1127 27.5112 17.1127 27.9636C17.1127 28.416 16.7448 28.7839 16.2924 28.7839C15.84 28.7839 15.4721 28.416 15.4721 27.9636C15.4721 27.5112 15.84 27.1433 16.2924 27.1433Z" fill="#617792"/>
<path d="M25.999 19.5554C26.5653 19.5554 27.0244 19.0963 27.0244 18.53C27.0244 17.9637 26.5653 17.5046 25.999 17.5046C25.4327 17.5046 24.9736 17.9637 24.9736 18.53C24.9736 19.0963 25.4327 19.5554 25.999 19.5554Z" fill="#617792"/>
<path d="M23.1738 19.5554C23.7401 19.5554 24.1992 19.0963 24.1992 18.53C24.1992 17.9637 23.7401 17.5046 23.1738 17.5046C22.6075 17.5046 22.1484 17.9637 22.1484 18.53C22.1484 19.0963 22.6075 19.5554 23.1738 19.5554Z" fill="#617792"/>
<path d="M20.3486 19.5554C20.9149 19.5554 21.374 19.0963 21.374 18.53C21.374 17.9637 20.9149 17.5046 20.3486 17.5046C19.7823 17.5046 19.3232 17.9637 19.3232 18.53C19.3232 19.0963 19.7823 19.5554 20.3486 19.5554Z" fill="#617792"/>
<path d="M66.9238 6.90197H66.5398L66.8262 6.61555C67.6841 5.75764 67.6841 4.3616 66.8262 3.50369L64.5816 1.25904C63.7237 0.401269 62.3278 0.401269 61.4697 1.25904L55.8272 6.90184H3.07617C1.38004 6.90184 0 8.28174 0 9.97801V52.561C0 54.6342 1.68656 56.3207 3.75977 56.3207H28.0472V63.5744H23.1055C21.7863 63.5744 20.7129 64.6477 20.7129 65.9669V66.9915C20.7129 68.3107 21.7863 69.3841 23.1055 69.3841H46.8945C48.2137 69.3841 49.2871 68.3107 49.2871 66.9915V65.9669C49.2871 64.6477 48.2137 63.5744 46.8945 63.5744H41.9528V56.3207H52.9102C53.4766 56.3207 53.9355 55.8616 53.9355 55.2954C53.9355 54.7291 53.4766 54.27 52.9102 54.27H3.75977C2.81736 54.27 2.05078 53.5034 2.05078 52.561V49.5258H67.9492V52.561C67.9492 53.5034 67.1826 54.27 66.2402 54.27H57.6953C57.1289 54.27 56.6699 54.7291 56.6699 55.2954C56.6699 55.8616 57.1289 56.3207 57.6953 56.3207H66.2402C68.3134 56.3207 70 54.6342 70 52.561V9.97814C70 8.28201 68.62 6.90197 66.9238 6.90197ZM46.8945 65.6253C47.0831 65.6253 47.2363 65.7787 47.2363 65.9671V66.9916C47.2363 67.18 47.0831 67.3334 46.8945 67.3334H23.1055C22.9169 67.3334 22.7637 67.18 22.7637 66.9916V65.9671C22.7637 65.7787 22.9169 65.6253 23.1055 65.6253H46.8945ZM30.0979 56.321H39.9022V63.5746H30.0979V56.321ZM62.9199 2.70936C62.9784 2.65098 63.0733 2.65111 63.1315 2.70936L65.376 4.95387C65.4344 5.01225 65.4344 5.10727 65.376 5.16551L63.2343 7.30721L60.7782 4.85105L62.9199 2.70936ZM59.328 6.30123L61.784 8.75738L61.0688 9.47256L58.6128 7.01641L59.328 6.30123ZM57.1627 8.46658L59.6188 10.9227L47.4849 23.0567L45.0287 20.6005L57.1627 8.46658ZM55.6445 17.8412C57.0392 17.8412 58.1738 18.9759 58.1738 20.3705C58.1738 21.7652 57.0392 22.8998 55.6445 22.8998C54.2499 22.8998 53.1152 21.7652 53.1152 20.3705C53.1152 20.3543 53.1174 20.3386 53.1177 20.3223L55.5967 17.8437C55.6127 17.8434 55.6284 17.8412 55.6445 17.8412ZM45.7043 24.1764L42.6695 25.4159L43.909 22.3811L45.7043 24.1764ZM67.9492 47.4753H2.05078V9.97814C2.05078 9.41281 2.5107 8.95275 3.07617 8.95275H53.7765L52.213 10.5163H17.3633C16.7969 10.5163 16.3379 10.9754 16.3379 11.5417C16.3379 12.1079 16.7969 12.5671 17.3633 12.5671H50.1624L42.9298 19.8C42.7254 20.0062 42.5656 20.2468 42.4555 20.5162L40.1651 26.1238C39.955 26.6388 40.0734 27.2258 40.4667 27.619C40.7307 27.883 41.0818 28.023 41.4399 28.023C41.6154 28.023 41.7925 27.9893 41.9619 27.9203L47.5694 25.63C47.8311 25.5231 48.0651 25.3683 48.2675 25.1721L51.3868 22.0531C52.0588 23.7483 53.7131 24.9508 55.6447 24.9508C58.1701 24.9508 60.2247 22.8962 60.2247 20.3707C60.2247 18.4394 59.0226 16.7852 57.3277 16.1131L60.874 12.5672H64.3349V43.8611H63.7915L60.0754 37.4248C59.7924 36.9343 59.1649 36.7663 58.6748 37.0495C58.1844 37.3327 58.0163 37.9598 58.2995 38.4502L61.4235 43.8611H47.0995L45.5632 41.2002L52.7252 28.7953L55.9068 34.3062C56.19 34.7966 56.8172 34.9647 57.3074 34.6814C57.7979 34.3983 57.9659 33.7712 57.6827 33.2808L54.2884 27.4017C53.9621 26.8365 53.3777 26.4991 52.725 26.4991C52.0723 26.4991 51.4879 26.8365 51.1615 27.4017L44.3789 39.1496L35.6762 24.0762C35.3499 23.511 34.7655 23.1736 34.1127 23.1736C33.4601 23.1736 32.8757 23.511 32.5493 24.0762L30.2373 28.0808V17.0896C30.2373 15.7704 29.1639 14.697 27.8447 14.697H10.2539C8.93471 14.697 7.86133 15.7704 7.86133 17.0896V39.5114C7.86133 40.4538 8.62791 41.2204 9.57031 41.2204H22.6514L21.1267 43.8613H5.66521V12.5671H12.5781C13.1446 12.5671 13.6035 12.1079 13.6035 11.5417C13.6035 10.9754 13.1446 10.5163 12.5781 10.5163H5.32342C4.38102 10.5163 3.61443 11.2829 3.61443 12.2253V44.2028C3.61443 45.1452 4.38102 45.9118 5.32342 45.9118H64.6767C65.6191 45.9118 66.3857 45.1452 66.3857 44.2028V12.2253C66.3857 11.2829 65.6191 10.5163 64.6767 10.5163H62.9251L64.4889 8.95275H66.9238C67.4893 8.95275 67.9492 9.41281 67.9492 9.97814V47.4753ZM28.1869 22.7683V39.1694H9.91211V22.7683H28.1869ZM9.91211 20.7175V17.0893C9.91211 16.9009 10.0654 16.7475 10.2539 16.7475H27.8451C28.0336 16.7475 28.1869 16.9009 28.1869 17.0893V20.7175H9.91211ZM25.0195 41.2202H28.5287C29.4711 41.2202 30.2377 40.4536 30.2377 39.5112V37.3391C30.4942 37.4622 30.7798 37.5287 31.0789 37.5287C31.7789 37.5287 32.4056 37.1667 32.7555 36.5606L34.5006 33.5382C34.5533 33.4469 34.634 33.4276 34.6921 33.4276C34.7505 33.4276 34.8312 33.4469 34.8838 33.5382L35.9596 35.4015C36.3096 36.0079 36.9365 36.3698 37.6366 36.3698C38.3366 36.3698 38.9635 36.0079 39.3133 35.4017L39.5805 34.939L44.7315 43.8609H23.4948L25.0195 41.2202ZM30.2377 33.9067V32.1821L34.1132 25.4696L38.3964 32.8882L37.6365 34.2043L36.6598 32.5127C36.2491 31.8013 35.5135 31.3767 34.692 31.3767C33.8706 31.3767 33.135 31.8013 32.7243 32.5127L31.0785 35.3633L30.2377 33.9067Z" fill="#617792"/>
</g>
<defs>
<clipPath id="clip0_1599_2448">
<rect width="70" height="70" fill="white"/>
</clipPath>
</defs>
</svg>
