<svg width="70" height="70" viewBox="0 0 70 70" fill="none" xmlns="http://www.w3.org/2000/svg">
<g clip-path="url(#clip0_1599_2372)">
<path d="M6.49707 56.0889L18.4153 68.0071C19.2699 68.8617 20.6556 68.8617 21.5103 68.0071L49.3279 40.1896" stroke="#617792" stroke-width="2" stroke-miterlimit="10" stroke-linecap="round" stroke-linejoin="round"/>
<path d="M52.6544 36.863L61.1072 28.4102C61.5728 27.9447 61.804 27.2943 61.7368 26.6394L60.1786 11.4486C60.0728 10.4166 59.2568 9.60063 58.2248 9.4948L43.0339 7.93684C42.379 7.86971 41.7286 8.10091 41.263 8.56645L1.66638 48.1631C0.811726 49.0178 0.811726 50.4034 1.66638 51.2581L3.15489 52.7466" stroke="#617792" stroke-width="2" stroke-miterlimit="10" stroke-linecap="round" stroke-linejoin="round"/>
<path d="M52.6098 20.689C54.322 20.689 55.7099 19.3011 55.7099 17.589C55.7099 15.8768 54.322 14.4889 52.6098 14.4889C50.8977 14.4889 49.5098 15.8768 49.5098 17.589C49.5098 19.3011 50.8977 20.689 52.6098 20.689Z" stroke="#617792" stroke-width="2" stroke-miterlimit="10" stroke-linecap="round" stroke-linejoin="round"/>
<path d="M16.9252 49.4266C17.8565 50.3579 17.8565 51.8679 16.9252 52.7991C16.4633 53.261 14.8039 54.9353 14.8039 54.9353C14.8039 54.9353 13.5795 53.7109 13.1102 53.2416C12.7246 52.856 11.4238 51.5552 11.4238 51.5552C11.4238 51.5552 13.0068 49.9722 13.5526 49.4264C14.484 48.4952 15.9939 48.4952 16.9252 49.4266Z" stroke="#617792" stroke-width="2" stroke-miterlimit="10" stroke-linecap="round" stroke-linejoin="round"/>
<path d="M21.2445 52.4293C22.3339 53.5187 22.3339 55.285 21.2445 56.3744C20.7042 56.9148 18.7527 58.8836 18.7527 58.8836C18.7527 58.8836 17.3206 57.4514 16.7715 56.9023C16.3204 56.4513 14.7988 54.9297 14.7988 54.9297C14.7988 54.9297 16.6609 53.0676 17.2994 52.4291C18.3888 51.3398 20.1551 51.3398 21.2445 52.4293Z" stroke="#617792" stroke-width="2" stroke-miterlimit="10" stroke-linecap="round" stroke-linejoin="round"/>
<path d="M20.4121 46.4626L25.9133 51.9639" stroke="#617792" stroke-width="2" stroke-miterlimit="10" stroke-linecap="round" stroke-linejoin="round"/>
<path d="M22.5089 44.5626C21.8524 45.6349 21.6678 47.7181 22.6353 48.6857" stroke="#617792" stroke-width="2" stroke-miterlimit="10" stroke-linecap="round" stroke-linejoin="round"/>
<path d="M31.9238 34.8829L37.4585 40.4178" stroke="#617792" stroke-width="2" stroke-miterlimit="10" stroke-linecap="round" stroke-linejoin="round"/>
<path d="M34.787 37.7463C32.9857 35.9451 32.8732 34.04 34.0318 32.8814C35.1902 31.7229 36.7162 31.8569 38.548 33.7932L41.289 36.5342" stroke="#617792" stroke-width="2" stroke-miterlimit="10" stroke-linecap="round" stroke-linejoin="round"/>
<path d="M29.3801 46.3997C31.303 46.3997 32.8618 44.8409 32.8618 42.9181C32.8618 40.9952 31.303 39.4364 29.3801 39.4364C27.4572 39.4364 25.8984 40.9952 25.8984 42.9181C25.8984 44.8409 27.4572 46.3997 29.3801 46.3997Z" stroke="#617792" stroke-width="2" stroke-miterlimit="10" stroke-linecap="round" stroke-linejoin="round"/>
<path d="M29.0527 37.6667L34.6313 43.2455" stroke="#617792" stroke-width="2" stroke-miterlimit="10" stroke-linecap="round" stroke-linejoin="round"/>
<path d="M41.3232 20.147L49.5264 28.35" stroke="#617792" stroke-width="2" stroke-miterlimit="10" stroke-linecap="round" stroke-linejoin="round"/>
<path d="M46.7751 31.1007C48.2942 29.5816 48.2942 27.1186 46.7751 25.5995C45.256 24.0804 42.7931 24.0804 41.274 25.5995C39.7549 27.1186 39.7549 29.5816 41.274 31.1007C42.7931 32.6198 45.256 32.6198 46.7751 31.1007Z" stroke="#617792" stroke-width="2" stroke-miterlimit="10" stroke-linecap="round" stroke-linejoin="round"/>
<path d="M51.9424 8.85047C52.578 7.56089 53.4723 6.30057 54.6096 5.16331C58.6957 1.07719 64.3706 0.127232 67.2848 3.04136C70.1991 5.95562 69.249 11.6305 65.1629 15.7166C61.0767 19.8027 55.4019 20.7527 52.4876 17.8385" stroke="#617792" stroke-width="2" stroke-miterlimit="10" stroke-linecap="round" stroke-linejoin="round"/>
</g>
<defs>
<clipPath id="clip0_1599_2372">
<rect width="70" height="70" fill="white"/>
</clipPath>
</defs>
</svg>
