<svg width="70" height="70" viewBox="0 0 70 70" fill="none" xmlns="http://www.w3.org/2000/svg">
<path d="M34.7676 19.6875C31.7391 19.6875 28.7785 20.5856 26.2604 22.2681C23.7423 23.9507 21.7796 26.3422 20.6207 29.1402C19.4617 31.9382 19.1585 35.017 19.7493 37.9873C20.3401 40.9577 21.7985 43.6861 23.94 45.8276C26.0815 47.9691 28.8099 49.4274 31.7803 50.0183C34.7506 50.6091 37.8294 50.3059 40.6274 49.1469C43.4254 47.9879 45.8169 46.0253 47.4995 43.5072C49.182 40.989 50.0801 38.0285 50.0801 35C50.0755 30.9403 48.4608 27.0481 45.5901 24.1775C42.7195 21.3068 38.8273 19.6921 34.7676 19.6875ZM37.1003 42.7326V47.9052C35.5575 48.1985 33.9733 48.1983 32.4305 47.9045V42.7326C32.4306 42.5283 32.3734 42.328 32.2654 42.1545C32.1574 41.981 32.003 41.8412 31.8196 41.751C30.7814 41.2458 29.8906 40.4822 29.2328 39.5333C28.5749 38.5845 28.1721 37.4825 28.0632 36.333C27.9542 35.1836 28.1426 34.0255 28.6104 32.97C29.0782 31.9144 29.8096 30.9969 30.7344 30.3056V36.0938C30.7343 36.2374 30.7626 36.3796 30.8176 36.5124C30.8725 36.6451 30.9531 36.7657 31.0547 36.8672C31.1562 36.9688 31.2768 37.0494 31.4095 37.1043C31.5422 37.1593 31.6845 37.1875 31.8281 37.1875H37.7017C37.8453 37.1875 37.9876 37.1593 38.1203 37.1043C38.253 37.0494 38.3736 36.9688 38.4752 36.8672C38.5768 36.7657 38.6573 36.6451 38.7123 36.5124C38.7672 36.3796 38.7955 36.2374 38.7955 36.0938V30.2934C39.7235 30.9838 40.4579 31.9018 40.9279 32.9587C41.3978 34.0156 41.5875 35.1758 41.4785 36.3274C41.3696 37.4789 40.9657 38.5829 40.3058 39.533C39.6459 40.483 38.7524 41.2469 37.7113 41.751C37.5279 41.8412 37.3735 41.981 37.2655 42.1545C37.1575 42.328 37.1003 42.5283 37.1003 42.7326ZM39.2878 47.306V43.3847C40.7257 42.5422 41.8986 41.3136 42.6736 39.8383C43.4485 38.3629 43.7943 36.6999 43.6719 35.0379C43.5494 33.376 42.9636 31.7816 41.9808 30.4357C40.998 29.0899 39.6577 28.0464 38.1119 27.4238C37.9458 27.3567 37.7659 27.3314 37.5878 27.35C37.4097 27.3687 37.2389 27.4308 37.0904 27.5309C36.9419 27.6309 36.8203 27.766 36.7362 27.924C36.652 28.0821 36.608 28.2584 36.608 28.4375V35H32.9219V28.4482C32.9218 28.2691 32.8778 28.0928 32.7937 27.9347C32.7095 27.7766 32.5879 27.6416 32.4394 27.5416C32.2909 27.4415 32.1201 27.3794 31.942 27.3607C31.7639 27.3421 31.584 27.3674 31.418 27.4345C29.875 28.0586 28.5376 29.1021 27.557 30.447C26.5765 31.7918 25.992 33.3843 25.8697 35.0442C25.7474 36.7041 26.0923 38.365 26.8652 39.8391C27.6381 41.3131 28.8082 42.5413 30.243 43.3847V47.3045C27.3493 46.2418 24.922 44.1945 23.3865 41.5214C21.851 38.8484 21.3054 35.7201 21.8454 32.6851C22.3853 29.6501 23.9763 26.9019 26.3394 24.9224C28.7026 22.9429 31.6871 21.8583 34.7698 21.8588C37.8524 21.8594 40.8366 22.9449 43.1991 24.9252C45.5615 26.9056 47.1516 29.6543 47.6905 32.6895C48.2294 35.7247 47.6827 38.8527 46.1464 41.5253C44.61 44.1978 42.1819 46.2443 39.2878 47.306Z" fill="#617792"/>
<path d="M53.8612 41.0632C53.9162 40.8517 54.038 40.6636 54.2085 40.5269C54.379 40.3903 54.5892 40.3124 54.8076 40.3049H56.2282C56.4819 40.3048 56.7277 40.2166 56.9236 40.0553C57.1194 39.8939 57.2531 39.6695 57.3016 39.4205C57.8813 36.502 57.8813 33.4981 57.3016 30.5797C57.2531 30.3306 57.1194 30.1062 56.9236 29.9449C56.7277 29.7835 56.4819 29.6953 56.2282 29.6953H54.8076C54.5892 29.6878 54.3792 29.6099 54.2087 29.4734C54.0381 29.3368 53.9163 29.1488 53.8612 28.9374C53.5158 27.8531 53.0784 26.8002 52.5539 25.7902C52.4427 25.6016 52.3956 25.3819 52.4197 25.1643C52.4438 24.9466 52.5377 24.7426 52.6874 24.5827L53.6978 23.5728C53.8772 23.3933 53.9886 23.157 54.0129 22.9044C54.0373 22.6518 53.9731 22.3985 53.8313 22.188C52.1722 19.7186 50.049 17.5951 47.5797 15.9358C47.3691 15.7945 47.116 15.7306 46.8635 15.755C46.6111 15.7795 46.3749 15.8907 46.1954 16.0699L45.1849 17.0803C45.0249 17.2298 44.8208 17.3236 44.6031 17.3477C44.3854 17.3718 44.1657 17.3248 43.9769 17.2138C42.9672 16.6892 41.9144 16.2518 40.8302 15.9064C40.6188 15.8514 40.4309 15.7296 40.2944 15.559C40.1579 15.3885 40.0802 15.1784 40.0729 14.9601V13.5395C40.073 13.2857 39.9848 13.0398 39.8234 12.844C39.662 12.6481 39.4376 12.5145 39.1885 12.466C36.2694 11.8893 33.2657 11.8893 30.3466 12.466C30.0975 12.5145 29.8731 12.6481 29.7117 12.844C29.5504 13.0398 29.4621 13.2857 29.4622 13.5395V14.9601C29.4549 15.1784 29.3772 15.3885 29.2407 15.559C29.1043 15.7296 28.9163 15.8514 28.7049 15.9064C27.6207 16.2518 26.5679 16.6892 25.5582 17.2138C25.3693 17.3247 25.1497 17.3716 24.932 17.3476C24.7143 17.3235 24.5102 17.2298 24.3502 17.0803L23.3397 16.0699C23.1602 15.8907 22.924 15.7794 22.6716 15.755C22.4191 15.7305 22.166 15.7944 21.9554 15.9358C19.4861 17.5951 17.3629 19.7186 15.7038 22.188C15.562 22.3985 15.4978 22.6518 15.5222 22.9044C15.5465 23.157 15.6579 23.3933 15.8373 23.5728L16.8477 24.5822C16.9974 24.7423 17.0913 24.9465 17.1154 25.1643C17.1394 25.3821 17.0924 25.6019 16.9812 25.7908C16.4568 26.8004 16.0195 27.853 15.6739 28.9369C15.6189 29.1484 15.4971 29.3365 15.3266 29.4732C15.156 29.6099 14.9459 29.6878 14.7275 29.6953H13.307C13.0533 29.6953 12.8074 29.7835 12.6116 29.9449C12.4158 30.1062 12.2821 30.3306 12.2336 30.5797C11.6539 33.4981 11.6539 36.502 12.2336 39.4205C12.2821 39.6695 12.4158 39.8939 12.6116 40.0553C12.8074 40.2166 13.0533 40.3049 13.307 40.3049H14.7276C14.9459 40.3124 15.156 40.3902 15.3265 40.5268C15.497 40.6633 15.6189 40.8513 15.674 41.0627C16.0194 42.1467 16.4567 43.1993 16.9813 44.2088C17.0925 44.3977 17.1396 44.6175 17.1155 44.8353C17.0915 45.0532 16.9975 45.2574 16.8478 45.4174L15.8374 46.4273C15.658 46.6069 15.5466 46.8432 15.5223 47.0958C15.4979 47.3484 15.5621 47.6016 15.7039 47.8121C17.363 50.2816 19.4862 52.405 21.9555 54.0644C22.1659 54.2062 22.4192 54.2705 22.6718 54.246C22.9243 54.2215 23.1605 54.1099 23.3398 53.9303L24.3503 52.9199C24.5105 52.7707 24.7145 52.6771 24.9322 52.6531C25.1498 52.629 25.3693 52.6758 25.5583 52.7864C26.568 53.311 27.6208 53.7484 28.705 54.0937C28.9164 54.1487 29.1044 54.2706 29.2408 54.4411C29.3773 54.6117 29.455 54.8218 29.4623 55.0401V56.4607C29.4623 56.7144 29.5506 56.9603 29.7119 57.1561C29.8732 57.3519 30.0977 57.4856 30.3467 57.5341C33.2655 58.1138 36.2698 58.1138 39.1886 57.5341C39.4376 57.4856 39.662 57.3519 39.8234 57.1561C39.9847 56.9603 40.073 56.7144 40.073 56.4607V55.04C40.0803 54.8217 40.158 54.6116 40.2945 54.4411C40.4309 54.2706 40.6189 54.1487 40.8303 54.0937C41.9145 53.7483 42.9673 53.311 43.977 52.7863C44.1659 52.6757 44.3855 52.6289 44.6031 52.653C44.8208 52.677 45.0248 52.7706 45.185 52.9198L46.1955 53.9303C46.3749 54.1096 46.6111 54.221 46.8636 54.2455C47.1161 54.2699 47.3692 54.2059 47.5798 54.0643C50.0491 52.405 52.1723 50.2816 53.8314 47.8121C53.9732 47.6016 54.0374 47.3484 54.013 47.0958C53.9887 46.8431 53.8773 46.6068 53.6979 46.4273L52.6875 45.4179C52.5377 45.2578 52.4438 45.0534 52.4199 44.8354C52.396 44.6174 52.4434 44.3976 52.555 44.2088C53.0788 43.1992 53.5158 42.1469 53.8612 41.0632ZM51.7763 40.4004C51.469 41.365 51.0803 42.3018 50.6142 43.2005C50.2883 43.8019 50.1636 44.4919 50.2583 45.1694C50.3531 45.8468 50.6623 46.4761 51.1407 46.965L51.5007 47.3239C50.2614 49.0073 48.7749 50.4938 47.0915 51.7331L46.7316 51.3732C46.243 50.8947 45.6141 50.5853 44.9369 50.4904C44.2597 50.3954 43.5699 50.5199 42.9686 50.8455C42.0699 51.3122 41.1329 51.7014 40.168 52.0087C39.5143 52.2049 38.9403 52.6048 38.5297 53.1501C38.1191 53.6954 37.8934 54.3575 37.8854 55.04V55.5409C35.8191 55.8603 33.7161 55.8603 31.6498 55.5409V55.04C31.6418 54.3575 31.4161 53.6954 31.0055 53.1501C30.5949 52.6048 30.0209 52.2049 29.3672 52.0087C28.4023 51.7014 27.4653 51.3122 26.5666 50.8455C25.9653 50.5201 25.2755 50.3957 24.5984 50.4907C23.9212 50.5856 23.2923 50.8949 22.8036 51.3732L22.4437 51.7326C20.7604 50.4933 19.274 49.007 18.0345 47.3239L18.3945 46.9645C18.8725 46.4756 19.1817 45.8467 19.2768 45.1696C19.3719 44.4925 19.248 43.8027 18.9232 43.201C18.4555 42.3024 18.066 41.3653 17.7589 40.3999C17.5626 39.7462 17.1627 39.1723 16.6174 38.7617C16.0722 38.3512 15.4101 38.1254 14.7276 38.1174H14.2267C13.9062 36.0515 13.9062 33.9486 14.2267 31.8828H14.7276C15.4102 31.8747 16.0723 31.6489 16.6176 31.2382C17.1628 30.8275 17.5627 30.2535 17.7589 29.5997C18.0662 28.6344 18.4557 27.6972 18.9232 26.7986C19.248 26.1969 19.3719 25.5071 19.2767 24.83C19.1816 24.1529 18.8725 23.524 18.3945 23.0351L18.0345 22.6762C19.274 20.9931 20.7604 19.5068 22.4437 18.2675L22.8036 18.627C23.2925 19.1049 23.9214 19.4139 24.5985 19.5088C25.2755 19.6037 25.9651 19.4796 26.5666 19.1546C27.4653 18.6879 28.4023 18.2988 29.3672 17.9914C30.0209 17.7952 30.5949 17.3953 31.0055 16.85C31.4161 16.3048 31.6418 15.6426 31.6498 14.9601V14.4592C33.7161 14.1398 35.8191 14.1398 37.8854 14.4592V14.9601C37.8934 15.6426 38.1191 16.3048 38.5297 16.85C38.9403 17.3953 39.5143 17.7952 40.168 17.9914C41.1329 18.2988 42.0699 18.6879 42.9686 19.1546C43.57 19.4799 44.2597 19.6041 44.9368 19.5091C45.6139 19.4142 46.2428 19.1051 46.7316 18.627L47.0915 18.2675C48.7748 19.5068 50.2612 20.9931 51.5007 22.6762L51.1407 23.0356C50.6625 23.5243 50.3532 24.1532 50.2582 24.8303C50.1633 25.5075 50.2876 26.1972 50.6131 26.7986C51.0798 27.6975 51.4689 28.6346 51.7763 29.5997C51.9726 30.2534 52.3725 30.8278 52.9178 31.2384C53.463 31.649 54.1251 31.8747 54.8076 31.8828H55.3085C55.629 33.9486 55.629 36.0515 55.3085 38.1174H54.8076C54.125 38.1254 53.4629 38.3513 52.9176 38.7619C52.3724 39.1726 51.9725 39.7466 51.7763 40.4004Z" fill="#617792"/>
<path d="M63.4375 12.0313C63.4375 10.9496 63.1168 9.89231 62.5159 8.99298C61.9149 8.09365 61.0608 7.3927 60.0616 6.97879C59.0623 6.56487 57.9627 6.45657 56.9019 6.66758C55.841 6.8786 54.8666 7.39944 54.1018 8.16426C53.3369 8.92908 52.8161 9.90352 52.6051 10.9644C52.3941 12.0252 52.5024 13.1248 52.9163 14.1241C53.3302 15.1233 54.0311 15.9774 54.9305 16.5784C55.8298 17.1793 56.8871 17.5 57.9688 17.5C59.4186 17.4983 60.8086 16.9216 61.8339 15.8964C62.8591 14.8711 63.4358 13.4811 63.4375 12.0313ZM54.6875 12.0313C54.6875 11.3823 54.8799 10.7479 55.2405 10.2083C55.601 9.66869 56.1135 9.24812 56.7131 8.99977C57.3126 8.75142 57.9724 8.68644 58.6089 8.81305C59.2454 8.93966 59.8301 9.25217 60.2889 9.71106C60.7478 10.1699 61.0603 10.7546 61.187 11.3911C61.3136 12.0276 61.2486 12.6874 61.0002 13.2869C60.7519 13.8865 60.3313 14.399 59.7917 14.7595C59.2521 15.1201 58.6177 15.3125 57.9688 15.3125C57.0988 15.3116 56.2648 14.9655 55.6496 14.3504C55.0345 13.7352 54.6885 12.9012 54.6875 12.0313Z" fill="#617792"/>
<path d="M17.5 57.9688C17.5 56.8871 17.1793 55.8298 16.5784 54.9305C15.9774 54.0311 15.1233 53.3302 14.1241 52.9163C13.1248 52.5024 12.0252 52.3941 10.9644 52.6051C9.90352 52.8161 8.92908 53.3369 8.16426 54.1018C7.39944 54.8666 6.8786 55.841 6.66758 56.9019C6.45657 57.9627 6.56487 59.0623 6.97879 60.0616C7.3927 61.0608 8.09365 61.9149 8.99298 62.5159C9.89231 63.1168 10.9496 63.4375 12.0313 63.4375C13.4811 63.4358 14.8711 62.8591 15.8964 61.8339C16.9216 60.8086 17.4983 59.4186 17.5 57.9688ZM8.75 57.9688C8.75 57.3198 8.94244 56.6854 9.30299 56.1458C9.66354 55.6062 10.176 55.1856 10.7756 54.9373C11.3751 54.6889 12.0349 54.6239 12.6714 54.7506C13.3079 54.8772 13.8926 55.1897 14.3514 55.6486C14.8103 56.1075 15.1228 56.6921 15.2495 57.3286C15.3761 57.9651 15.3111 58.6249 15.0627 59.2244C14.8144 59.824 14.3938 60.3365 13.8542 60.697C13.3146 61.0576 12.6802 61.25 12.0313 61.25C11.1613 61.2491 10.3273 60.903 9.71211 60.2879C9.09696 59.6727 8.75095 58.8387 8.75 57.9688Z" fill="#617792"/>
<path d="M7.52384 50.8584C4.036 44.8105 2.64043 37.781 3.55342 30.8593C4.46641 23.9377 7.63697 17.5105 12.5737 12.5738C17.5105 7.63715 23.9377 4.46667 30.8593 3.55376C37.781 2.64086 44.8104 4.03652 50.8583 7.52443L51.9543 5.63072C45.4892 1.90143 37.9745 0.408931 30.575 1.38456C23.1755 2.36019 16.3045 5.74946 11.027 11.027C5.74951 16.3046 2.36031 23.1756 1.38476 30.5751C0.409206 37.9746 1.90179 45.4893 5.63114 51.9543L7.52384 50.8584Z" fill="#617792"/>
<path d="M62.4759 19.1418C65.9624 25.1876 67.3582 32.2142 66.4471 39.1335C65.5361 46.0528 62.369 52.4787 57.4364 57.4159C52.5037 62.3531 46.0808 65.5261 39.1623 66.4436C32.2439 67.361 25.216 65.9717 19.167 62.4908L18.0732 64.3856C24.5394 68.1074 32.0525 69.5931 39.4486 68.6126C46.8447 67.6321 53.7111 64.2401 58.9841 58.9619C64.2572 53.6838 67.6426 46.8142 68.6161 39.4172C69.5895 32.0201 68.0966 24.5085 64.3686 18.0459L62.4759 19.1418Z" fill="#617792"/>
</svg>
