<svg width="70" height="70" viewBox="0 0 70 70" fill="none" xmlns="http://www.w3.org/2000/svg">
<path d="M18.5602 15.0711C25.3802 14.8539 25.3786 4.9649 18.5601 4.74878C11.7396 4.96577 11.7412 14.8551 18.5602 15.0711ZM18.5602 6.93629C19.343 6.94531 20.0906 7.26258 20.6409 7.81927C21.1912 8.37597 21.4998 9.12718 21.4998 9.90997C21.4998 10.6927 21.1911 11.444 20.6408 12.0006C20.0905 12.5573 19.3429 12.8746 18.5602 12.8836C17.7774 12.8745 17.0298 12.5573 16.4795 12.0006C15.9292 11.4439 15.6206 10.6927 15.6206 9.90988C15.6206 9.1271 15.9292 8.37589 16.4796 7.81921C17.0299 7.26253 17.7775 6.94529 18.5602 6.93629Z" fill="#617792"/>
<path d="M47.8997 50.9203C48.1289 51.0922 48.4163 51.1673 48.7003 51.1297C48.9842 51.092 49.2421 50.9445 49.4185 50.7189C49.5949 50.4932 49.6758 50.2074 49.6439 49.9227C49.612 49.6381 49.4697 49.3773 49.2476 49.1964L44.25 45.2871V35.0001C44.2444 34.7137 44.1267 34.4409 43.9222 34.2404C43.7177 34.0398 43.4427 33.9275 43.1562 33.9275C42.8698 33.9275 42.5948 34.0399 42.3903 34.2404C42.1857 34.441 42.0681 34.7138 42.0625 35.0002V45.8201C42.0626 45.9862 42.1005 46.1501 42.1732 46.2994C42.2459 46.4487 42.3516 46.5796 42.4823 46.6821L47.8997 50.9203Z" fill="#617792"/>
<path d="M64.5315 63.0636H52.5145C56.183 61.3019 59.28 58.541 61.4497 55.0981C63.6193 51.6552 64.7736 47.67 64.7799 43.6004C65.1128 28.4446 48.4812 17.5257 34.7321 23.6873C34.7546 23.0439 34.5945 22.4073 34.2701 21.8512C33.9457 21.2951 33.4704 20.8423 32.8993 20.5452L25.8711 16.8837C25.3512 16.6054 24.771 16.459 24.1813 16.4575C24.1601 16.4618 13.4371 16.4618 13.4371 16.4618C12.9315 16.4623 12.4314 16.5678 11.9685 16.7715C11.5057 16.9752 11.0901 17.2727 10.7482 17.6452L5.33069 23.5637C4.77182 24.1799 4.43932 24.9679 4.38787 25.7982C4.33643 26.6285 4.56911 27.4516 5.04764 28.132L8.05545 32.3671C8.1288 32.4708 8.16816 32.5947 8.16811 32.7217V34.1231C8.16882 34.8246 8.4478 35.4971 8.94383 35.9932C9.43985 36.4892 10.1124 36.7682 10.8139 36.7689C11.1614 36.779 11.5092 36.7706 11.8558 36.7436L11.8558 63.0637H6.21027C5.92336 63.0685 5.64983 63.1859 5.44863 63.3905C5.24744 63.5951 5.1347 63.8706 5.1347 64.1575C5.13471 64.4445 5.24747 64.7199 5.44868 64.9245C5.64989 65.1291 5.92343 65.2464 6.21034 65.2512H64.5315C64.8195 65.2481 65.0947 65.1314 65.2972 64.9267C65.4998 64.7219 65.6134 64.4455 65.6134 64.1574C65.6134 63.8694 65.4998 63.593 65.2972 63.3882C65.0947 63.1834 64.8195 63.0668 64.5315 63.0636ZM23.9816 55.4629L24.0124 53.6196C26.1805 57.7333 29.6106 61.0434 33.799 63.0636H19.1065L23.7968 56.0525C23.9138 55.8779 23.978 55.6732 23.9816 55.4629ZM62.5923 43.6004C62.5865 48.7532 60.537 53.6933 56.8934 57.3369C53.2498 60.9805 48.3097 63.03 43.1569 63.0358C17.3725 61.968 17.38 25.229 43.1571 24.165C48.3098 24.1709 53.2499 26.2204 56.8934 29.864C60.537 33.5076 62.5865 38.4477 62.5923 43.6004ZM14.0433 60.7574L19.5126 51.0901C19.6054 50.9258 19.6542 50.7404 19.6541 50.5517V36.883C19.6541 36.593 19.5389 36.3148 19.3338 36.1097C19.1286 35.9045 18.8504 35.7893 18.5604 35.7893C18.2703 35.7893 17.9921 35.9045 17.787 36.1097C17.5818 36.3148 17.4666 36.593 17.4666 36.883V50.2633L14.0433 56.3144V35.675C14.0433 35.5295 15.5598 23.4535 15.6242 23.3521C15.6558 23.0668 15.5741 22.7805 15.3966 22.5549C15.2192 22.3293 14.9602 22.1824 14.6754 22.146C14.3907 22.1096 14.1031 22.1865 13.8745 22.3602C13.646 22.5339 13.4949 22.7904 13.4537 23.0745L12.9735 26.8405L11.3853 25.2524C11.1788 25.054 10.9028 24.9446 10.6166 24.9475C10.3303 24.9504 10.0565 25.0654 9.8541 25.2678C9.65166 25.4703 9.53667 25.744 9.5338 26.0303C9.53094 26.3166 9.64043 26.5926 9.83877 26.7991L12.6236 29.5839L12.0374 34.1808C12.0233 34.2913 11.9694 34.3929 11.8859 34.4666C11.8024 34.5403 11.6949 34.5811 11.5835 34.5813H10.8139C10.6923 34.5812 10.5758 34.5329 10.4899 34.447C10.4039 34.3611 10.3556 34.2445 10.3556 34.123V32.7217C10.3565 32.1409 10.176 31.5744 9.83915 31.1014L6.83134 26.8653C6.64013 26.5934 6.54717 26.2645 6.56774 25.9327C6.58832 25.6009 6.72121 25.286 6.94455 25.0398L12.3615 19.1225C12.4982 18.9734 12.6645 18.8544 12.8496 18.773C13.0348 18.6915 13.2348 18.6494 13.4371 18.6493C13.4371 18.6493 24.1598 18.651 24.1813 18.645C24.2514 18.2954 31.6399 22.4475 31.8857 22.4837C32.907 23.011 32.4729 24.1201 32.2303 24.973C29.543 26.5527 27.2265 28.6912 25.4373 31.2439C25.2062 31.2585 24.9749 31.2161 24.7639 31.1205C24.553 31.0249 24.3687 30.879 24.2272 30.6955C23.9985 30.4068 23.8878 30.042 23.9175 29.6749C23.9473 29.3077 24.1152 28.9655 24.3875 28.7174L27.485 25.8687C27.6919 25.6707 27.813 25.3995 27.8222 25.1133C27.8314 24.827 27.728 24.5486 27.5342 24.3377C27.3404 24.1269 27.0716 24.0004 26.7856 23.9855C26.4996 23.9706 26.2192 24.0685 26.0045 24.258L22.9086 27.1056C22.4463 27.5334 22.1027 28.0737 21.9114 28.6738C21.7201 29.2739 21.6876 29.9133 21.817 30.5298C21.9464 31.1462 22.2333 31.7186 22.6498 32.1911C23.0664 32.6636 23.5982 33.0201 24.1935 33.2258C21.7878 37.6183 20.9854 42.7111 21.9242 47.6305L21.7994 55.1041L16.4754 63.0636H14.0433V60.7574Z" fill="#617792"/>
<path d="M43.1561 28.8163C43.4251 28.8111 43.6814 28.7007 43.8698 28.5086C44.0582 28.3166 44.1638 28.0583 44.1638 27.7892C44.1638 27.5202 44.0582 27.2618 43.8698 27.0698C43.6813 26.8778 43.4251 26.7673 43.1561 26.7622C42.8871 26.7673 42.6308 26.8778 42.4424 27.0699C42.254 27.2619 42.1484 27.5202 42.1484 27.7893C42.1484 28.0583 42.254 28.3166 42.4424 28.5087C42.6309 28.7007 42.8871 28.8112 43.1561 28.8163Z" fill="#617792"/>
<path d="M32.7026 33.1464C32.8893 32.9526 32.9924 32.6933 32.9898 32.4242C32.9873 32.1552 32.8793 31.8978 32.689 31.7076C32.4987 31.5173 32.2414 31.4093 31.9723 31.4068C31.7033 31.4043 31.444 31.5074 31.2501 31.694C31.0635 31.8879 30.9604 32.1472 30.9629 32.4163C30.9655 32.6853 31.0735 32.9426 31.2638 33.1329C31.4541 33.3232 31.7114 33.4312 31.9804 33.4337C32.2495 33.4362 32.5088 33.3331 32.7026 33.1464Z" fill="#617792"/>
<path d="M27.3455 42.5735C27.0765 42.5786 26.8203 42.6891 26.6319 42.8811C26.4434 43.0732 26.3379 43.3315 26.3379 43.6006C26.3379 43.8696 26.4435 44.1279 26.6319 44.3199C26.8203 44.512 27.0766 44.6224 27.3456 44.6275C27.6146 44.6224 27.8709 44.512 28.0593 44.3199C28.2477 44.1278 28.3532 43.8695 28.3532 43.6005C28.3532 43.3314 28.2477 43.0731 28.0592 42.8811C27.8708 42.689 27.6145 42.5786 27.3455 42.5735Z" fill="#617792"/>
<path d="M32.7026 55.507C32.8893 55.3132 32.9924 55.0539 32.9898 54.7848C32.9873 54.5157 32.8793 54.2584 32.689 54.0682C32.4987 53.8779 32.2414 53.7699 31.9723 53.7674C31.7033 53.7648 31.444 53.868 31.2501 54.0546C31.0635 54.2485 30.9604 54.5078 30.9629 54.7768C30.9655 55.0459 31.0735 55.3032 31.2638 55.4935C31.4541 55.6837 31.7114 55.7918 31.9804 55.7943C32.2495 55.7968 32.5088 55.6937 32.7026 55.507Z" fill="#617792"/>
<path d="M43.1561 58.3848C42.8871 58.3899 42.6309 58.5003 42.4424 58.6924C42.254 58.8844 42.1484 59.1427 42.1484 59.4118C42.1484 59.6808 42.254 59.9392 42.4424 60.1312C42.6309 60.3233 42.8871 60.4337 43.1561 60.4388C43.4251 60.4337 43.6814 60.3233 43.8698 60.1312C44.0582 59.9392 44.1638 59.6808 44.1638 59.4118C44.1638 59.1427 44.0582 58.8844 43.8698 58.6924C43.6814 58.5003 43.4251 58.3899 43.1561 58.3848Z" fill="#617792"/>
<path d="M55.0632 55.507C55.2495 55.3131 55.3523 55.0539 55.3496 54.785C55.3469 54.5161 55.2389 54.259 55.0488 54.0689C54.8586 53.8788 54.6015 53.7708 54.3327 53.7681C54.0638 53.7654 53.8046 53.8683 53.6107 54.0546C53.4244 54.2485 53.3216 54.5077 53.3243 54.7766C53.327 55.0454 53.435 55.3025 53.6251 55.4927C53.8153 55.6828 54.0724 55.7908 54.3412 55.7935C54.6101 55.7961 54.8693 55.6933 55.0632 55.507Z" fill="#617792"/>
<path d="M58.9677 44.6275C59.2367 44.6224 59.4929 44.512 59.6813 44.3199C59.8698 44.1279 59.9753 43.8695 59.9753 43.6005C59.9753 43.3314 59.8697 43.0731 59.6813 42.8811C59.4929 42.689 59.2366 42.5786 58.9676 42.5735C58.6986 42.5786 58.4423 42.6891 58.2539 42.8811C58.0655 43.0732 57.96 43.3315 57.96 43.6006C57.96 43.8696 58.0655 44.1279 58.254 44.32C58.4424 44.512 58.6987 44.6224 58.9677 44.6275Z" fill="#617792"/>
<path d="M55.0632 33.1464C55.2495 32.9525 55.3523 32.6933 55.3496 32.4244C55.3469 32.1555 55.2389 31.8984 55.0488 31.7083C54.8586 31.5182 54.6015 31.4102 54.3327 31.4075C54.0638 31.4048 53.8046 31.5077 53.6107 31.694C53.4244 31.8879 53.3216 32.1471 53.3243 32.416C53.327 32.6849 53.435 32.9419 53.6251 33.1321C53.8153 33.3222 54.0724 33.4302 54.3412 33.4329C54.6101 33.4355 54.8693 33.3327 55.0632 33.1464Z" fill="#617792"/>
</svg>
