<svg width="70" height="70" viewBox="0 0 70 70" fill="none" xmlns="http://www.w3.org/2000/svg">
<path d="M13.1693 47.3558C13.1693 46.8273 13.5978 46.3988 14.1263 46.3988H37.2638C37.7923 46.3988 38.2208 46.8273 38.2208 47.3558C38.2208 47.8844 37.7923 48.3129 37.2638 48.3129H14.1263C13.5978 48.3129 13.1693 47.8844 13.1693 47.3558ZM14.1263 41.2177H31.0289C31.5574 41.2177 31.9859 40.7892 31.9859 40.2607C31.9859 39.7321 31.5574 39.3036 31.0289 39.3036H14.1263C13.5978 39.3036 13.1693 39.7321 13.1693 40.2607C13.1693 40.7892 13.5978 41.2177 14.1263 41.2177ZM53.2991 55.1968V66.5526C53.2991 67.7752 52.3046 68.7697 51.0821 68.7697H35.8287C34.6061 68.7697 33.6116 67.7752 33.6116 66.5526V59.6183C31.0722 60.2082 28.4154 60.5076 25.6951 60.5076C24.5674 60.5076 23.434 60.4548 22.3206 60.3507L10.5001 68.5977C10.3357 68.7124 10.1441 68.7698 9.95258 68.7698C9.76541 68.7698 9.57838 68.7151 9.41623 68.6053C9.08824 68.3833 8.93074 67.9822 9.02029 67.5964L11.3933 57.3736C5.01348 54.2439 1.23047 49.2167 1.23047 43.8082C1.23047 40.0991 2.95859 36.5931 6.22795 33.6693C9.3558 30.8722 13.6121 28.8537 18.5369 27.8321C19.0544 27.7251 19.561 28.0573 19.6684 28.5748C19.7757 29.0924 19.4432 29.5989 18.9257 29.7063C14.3962 30.6458 10.3398 32.56 7.50395 35.096C4.65199 37.6465 3.14453 40.6591 3.14453 43.8082C3.14453 48.643 6.79014 53.1884 12.8965 55.9669C13.3113 56.1556 13.5354 56.6106 13.4323 57.0544L11.4481 65.6022L21.5153 58.5784C21.7038 58.4469 21.9331 58.3879 22.1618 58.4113C23.3238 58.532 24.5124 58.5933 25.6951 58.5933C28.4251 58.5933 31.0841 58.2753 33.6116 57.6494V55.1966C33.6116 53.9741 34.6061 52.9796 35.8287 52.9796H43.3515C46.5101 50.3705 48.2456 47.1245 48.2456 43.8081C48.2456 40.2646 46.2822 36.8294 42.717 34.1354C42.2953 33.8167 42.2118 33.2166 42.5303 32.7949C42.849 32.3732 43.4491 32.2897 43.8709 32.6084C47.9262 35.6728 50.1596 39.6502 50.1596 43.8081C50.1596 47.0885 48.7562 50.2763 46.1632 52.9796H51.082C52.3045 52.9796 53.2991 53.9742 53.2991 55.1968ZM51.3851 55.1968C51.3851 55.0326 51.2463 54.8938 51.0821 54.8938H35.8287C35.6645 54.8938 35.5257 55.0326 35.5257 55.1968V66.5526C35.5257 66.7168 35.6645 66.8556 35.8287 66.8556H51.0821C51.2463 66.8556 51.3851 66.7168 51.3851 66.5526V55.1968ZM47.1429 60.8746C47.1429 61.2165 46.9606 61.5325 46.6644 61.7034L41.2033 64.8562C41.0553 64.9417 40.89 64.9845 40.7248 64.9845C40.5597 64.9845 40.3944 64.9418 40.2463 64.8562C39.9502 64.6853 39.7678 64.3694 39.7678 64.0274V57.7216C39.7678 57.3796 39.9502 57.0637 40.2463 56.8928C40.5424 56.7217 40.9072 56.7217 41.2033 56.8928L46.6644 60.0458C46.9606 60.2168 47.1429 60.5326 47.1429 60.8746ZM44.2719 60.8746L41.6819 59.3793V62.3699L44.2719 60.8746ZM62.5235 11.2332C62.686 11.2332 62.8504 11.1919 63.0012 11.1048L66.6974 8.97094C67.1552 8.70666 67.312 8.12137 67.0477 7.66364C66.7836 7.2059 66.1984 7.04909 65.7404 7.31336L62.0442 9.44727C61.5865 9.71155 61.4296 10.2968 61.6939 10.7546C61.8711 11.0615 62.1928 11.2332 62.5235 11.2332ZM56.3629 6.91537C56.5137 7.00246 56.6781 7.04375 56.8405 7.04375C57.1713 7.04375 57.493 6.87217 57.6702 6.5651L59.9212 2.66616C60.1855 2.20842 60.0287 1.62313 59.571 1.35885C59.1132 1.09457 58.5279 1.25139 58.2637 1.70912L56.0126 5.60807C55.7483 6.0658 55.9051 6.6511 56.3629 6.91537ZM62.3533 17.291C62.3533 17.8195 62.7818 18.248 63.3104 18.248H67.8125C68.3411 18.248 68.7695 17.8195 68.7695 17.291C68.7695 16.7624 68.3411 16.3339 67.8125 16.3339H63.3104C62.7818 16.3339 62.3533 16.7624 62.3533 17.291ZM21.8073 27.794C22.3162 25.8945 23.5285 24.3105 25.2211 23.3334L30.2269 20.4433C30.4466 20.3163 30.708 20.2818 30.9531 20.3476C31.0499 20.3736 31.1407 20.4147 31.2234 20.4679C36.3679 16.6178 40.4243 12.1605 42.7481 7.79776L42.6601 7.64532C41.5756 5.76707 42.2215 3.35672 44.0997 2.27213C45.9782 1.18782 48.3885 1.83368 49.4729 3.71178L53.3781 10.4758C55.4524 9.4027 58.0336 10.1433 59.2132 12.1867C60.3928 14.23 59.7436 16.8351 57.7773 18.0954L61.6826 24.8594C62.2063 25.7666 62.3446 26.8261 62.0721 27.8433C61.7995 28.8604 61.1499 29.709 60.2428 30.2328C59.6397 30.581 58.9693 30.7589 58.2887 30.7589C57.9455 30.7589 57.5999 30.7136 57.259 30.6223C56.242 30.3498 55.3934 29.7001 54.8697 28.7931L54.7817 28.6407C49.885 28.4731 44.0553 29.7337 38.2003 32.2205L45.1104 41.5218C45.8 42.4501 45.679 43.7318 44.8288 44.5032L43.3087 45.8827C42.8969 46.2562 42.36 46.4614 41.8091 46.4614C41.7383 46.4614 41.6674 46.458 41.5964 46.4512C40.9802 46.3917 40.4149 46.074 40.0455 45.5793L32.8163 35.9059L32.5641 36.0515C31.4392 36.7009 30.188 37.0327 28.9178 37.0327C28.2769 37.0327 27.6311 36.9482 26.9942 36.7776C25.0947 36.2688 23.5107 35.0563 22.5336 33.3639C21.5563 31.6713 21.2985 29.6933 21.8073 27.794ZM43.5738 42.6631L36.8315 33.5876L34.4855 34.942L41.5788 44.4336C41.6406 44.5164 41.7225 44.5404 41.7803 44.546C41.8321 44.5509 41.9321 44.5471 42.0224 44.465L43.5425 43.0857C43.662 42.9773 43.6752 42.7995 43.5738 42.6631ZM54.3378 12.138L56.8177 16.4333C57.8704 15.7037 58.2073 14.2726 57.5556 13.1437C56.9038 12.015 55.4961 11.5912 54.3378 12.138ZM44.3177 6.68828L56.5272 27.8359C56.7953 28.3002 57.231 28.6331 57.7544 28.7733C58.2776 28.9133 58.8213 28.8431 59.2858 28.575C59.7501 28.3071 60.083 27.8712 60.2232 27.348C60.3634 26.8248 60.293 26.2809 60.025 25.8166L47.8153 4.66895C47.4418 4.02186 46.7615 3.65969 46.0631 3.65969C45.7208 3.65969 45.3741 3.74664 45.0569 3.92985C44.5926 4.19782 44.2597 4.63368 44.1196 5.1569C43.9794 5.68012 44.0497 6.22399 44.3177 6.68828ZM32.273 22.0731L37.1812 30.5746C42.9215 28.1016 48.6798 26.757 53.6692 26.7139L43.8605 9.72426C41.3286 14.0237 37.2848 18.3384 32.273 22.0731ZM24.191 32.4067C24.9125 33.6565 26.0839 34.5521 27.4894 34.9286C28.8947 35.3053 30.357 35.1153 31.6068 34.3938L35.7838 31.9822L30.355 22.5792L26.178 24.9908C24.9282 25.7123 24.0327 26.8837 23.656 28.2892C23.2794 29.6946 23.4696 31.1571 24.191 32.4067ZM6.48088 12.294C6.48088 9.08879 9.08852 6.48102 12.2939 6.48102C15.4993 6.48102 18.1069 9.08866 18.1069 12.294C18.1069 15.4993 15.4993 18.1069 12.2939 18.1069C9.08852 18.1069 6.48088 15.4993 6.48088 12.294ZM8.39494 12.294C8.39494 14.4439 10.144 16.1928 12.2939 16.1928C14.4438 16.1928 16.1928 14.4439 16.1928 12.294C16.1928 10.1441 14.4438 8.39508 12.2939 8.39508C10.144 8.39508 8.39494 10.1441 8.39494 12.294ZM1.23047 13.3047V11.2834C1.23047 10.3895 1.95754 9.66247 2.85127 9.66247C3.64287 9.66247 3.95514 9.05735 4.03184 8.87182C4.10867 8.68629 4.31594 8.03756 3.75607 7.47784C3.44996 7.17186 3.28125 6.76485 3.28125 6.33172C3.28125 5.89873 3.44982 5.49159 3.75607 5.18547L5.1852 3.75621C5.81711 3.12416 6.84551 3.12416 7.47756 3.75621C8.03742 4.31608 8.68615 4.10881 8.87154 4.03198C9.05707 3.95514 9.66219 3.64301 9.66219 2.85141C9.66219 1.95754 10.3893 1.23047 11.283 1.23047H13.3042C14.198 1.23047 14.925 1.95754 14.925 2.85141C14.925 3.64301 15.5302 3.95514 15.7157 4.03198C15.9011 4.10881 16.5501 4.3158 17.1097 3.75621C17.7417 3.12416 18.77 3.12416 19.402 3.75621L20.8313 5.18547C21.1374 5.49159 21.306 5.8986 21.306 6.33159C21.306 6.76457 21.1374 7.17172 20.8312 7.47784C20.2714 8.03756 20.4787 8.68629 20.5555 8.87182C20.6324 9.05721 20.9445 9.66247 21.7361 9.66247C22.6298 9.66247 23.3569 10.3895 23.3569 11.2834V13.3047C23.3569 14.1984 22.6298 14.9255 21.7361 14.9255C20.9445 14.9255 20.6322 15.5306 20.5555 15.7161C20.4787 15.9015 20.2714 16.5504 20.8313 17.1101C21.4633 17.7421 21.4633 18.7705 20.8313 19.4024L19.402 20.8317C19.0961 21.1378 18.6889 21.3065 18.2559 21.3065C17.8229 21.3065 17.4158 21.138 17.1097 20.8317C16.5499 20.2721 15.9013 20.4791 15.7157 20.5561C15.5303 20.6329 14.925 20.945 14.925 21.7368C14.925 22.6305 14.198 23.3576 13.3042 23.3576H11.2833C10.3895 23.3576 9.66246 22.6305 9.66246 21.7368C9.66246 20.9434 9.05775 20.6313 8.8725 20.5546C8.68697 20.4777 8.03879 20.2707 7.47783 20.8318C7.17186 21.138 6.76471 21.3067 6.33172 21.3067C5.89873 21.3067 5.49145 21.1381 5.18547 20.8318L3.75635 19.4027C3.45023 19.0967 3.28152 18.6896 3.28152 18.2565C3.28152 17.8235 3.4501 17.4163 3.75635 17.1102C4.31607 16.5505 4.10881 15.9018 4.03197 15.7164C3.95514 15.5308 3.64301 14.9257 2.85141 14.9257C1.95754 14.9255 1.23047 14.1984 1.23047 13.3047ZM3.14453 13.0241C4.33275 13.1276 5.33436 13.8585 5.80029 14.9837C6.26637 16.1089 6.07496 17.334 5.30783 18.2474L6.34047 19.2801C7.25457 18.5121 8.47998 18.3203 9.60477 18.7861C10.7297 19.2521 11.4603 20.2542 11.5637 21.4437H13.0238C13.1273 20.2554 13.8582 19.2538 14.9834 18.7878C16.1085 18.322 17.3336 18.5131 18.2472 19.2801L19.2798 18.2474C18.5127 17.334 18.3214 16.1089 18.7873 14.9837C19.2534 13.8586 20.2549 13.1276 21.4431 13.0241V11.5639C20.2549 11.4605 19.2533 10.7296 18.7873 9.60436C18.3214 8.47916 18.5127 7.25416 19.2797 6.34061L18.247 5.30797C17.3333 6.07496 16.1083 6.26623 14.9833 5.8003C13.8582 5.33422 13.1273 4.33276 13.0238 3.14453H11.5637C11.4602 4.33276 10.7293 5.33436 9.60422 5.8003C8.47902 6.26637 7.25389 6.07496 6.34047 5.30784L5.30783 6.34047C6.07482 7.25416 6.26623 8.47916 5.80016 9.60422C5.33436 10.7296 4.33275 11.4605 3.14453 11.5639V13.0241ZM68.6943 38.4688C68.3565 41.3027 66.9938 43.9987 66.2115 45.3534C65.4292 46.7082 63.776 49.2363 61.4908 50.9458C60.0091 52.0542 58.5171 52.6117 57.0715 52.6117C56.0619 52.6117 55.0748 52.3399 54.1294 51.794L53.7857 51.5955C53.2194 51.2686 52.8143 50.7399 52.6445 50.1065C52.4748 49.4732 52.5614 48.8127 52.8883 48.2465L54.2624 45.8664C54.9382 44.6957 56.4406 44.2932 57.6114 44.969L58.4175 45.4344C58.6459 45.5665 58.9163 45.5217 59.0905 45.3234C59.8421 44.4664 60.5343 43.493 61.148 42.43C61.7617 41.367 62.2587 40.2806 62.625 39.2015C62.7097 38.9516 62.6132 38.695 62.3848 38.563L61.5787 38.0978C61.0124 37.7709 60.6073 37.2421 60.4375 36.6088C60.2678 35.9755 60.3544 35.3149 60.6812 34.7487L62.0554 32.3686C62.7311 31.198 64.2335 30.7955 65.4043 31.4712L65.7482 31.6697C68.0477 32.9972 69.0663 35.3482 68.6943 38.4688ZM64.7912 33.3273L64.4474 33.1287C64.1908 32.9805 63.8612 33.0689 63.7131 33.3255L62.339 35.7056C62.2677 35.8291 62.249 35.9737 62.2865 36.1132C62.3238 36.2526 62.4124 36.3687 62.5358 36.4399L63.3419 36.9052C64.3677 37.4976 64.8184 38.6947 64.4376 39.8165C64.0311 41.0141 63.4821 42.2153 62.8057 43.3869C62.1295 44.5581 61.3636 45.6343 60.5296 46.5854C59.7484 47.4763 58.4865 47.6844 57.4606 47.0921L56.6545 46.6268C56.5701 46.5782 56.4778 46.5549 56.3866 46.5549C56.2007 46.5549 56.0196 46.6513 55.92 46.8236L54.5459 49.2037C54.4746 49.3272 54.4559 49.4718 54.4934 49.6113C54.5307 49.7507 54.6193 49.8668 54.7427 49.938L55.0864 50.1365C56.7163 51.0774 58.4361 50.8408 60.3442 49.4132C62.4308 47.8522 63.9833 45.3849 64.5541 44.3964C65.1247 43.4081 66.4854 40.8297 66.7938 38.2423C67.0759 35.8758 66.4208 34.2681 64.7912 33.3273Z" fill="#617792"/>
</svg>
