<svg width="70" height="70" viewBox="0 0 70 70" fill="none" xmlns="http://www.w3.org/2000/svg">
<g clip-path="url(#clip0_1599_2312)">
<path d="M69.3934 50.9305L62.2184 47.343L57.652 35.4649C57.5982 35.3245 57.5161 35.1966 57.4107 35.0893C57.3053 34.9821 57.179 34.8977 57.0395 34.8415L28.7059 23.5157C28.5078 23.4368 28.291 23.4176 28.0821 23.4603C27.8732 23.5031 27.6813 23.606 27.5301 23.7563L23.7512 27.5352C23.6029 27.6865 23.5017 27.8777 23.4599 28.0855C23.4182 28.2932 23.4377 28.5086 23.5161 28.7055L34.8418 57.0391C34.8981 57.1786 34.9825 57.305 35.0897 57.4103C35.197 57.5157 35.3248 57.5979 35.4653 57.6516L47.3434 62.218L50.9309 69.393C51.0064 69.5512 51.1189 69.689 51.2588 69.7946C51.3987 69.9002 51.562 69.9707 51.7348 70.0001C51.793 70.0055 51.8516 70.0055 51.9098 70.0001C52.1994 69.9988 52.4767 69.8828 52.6809 69.6774L69.6778 52.6805C69.8029 52.5598 69.8974 52.411 69.9535 52.2465C70.0096 52.082 70.0257 51.9064 70.0004 51.7344C69.9711 51.5616 69.9006 51.3983 69.795 51.2584C69.6893 51.1185 69.5516 51.0061 69.3934 50.9305ZM25.8075 28.5633L26.4145 27.9618L40.5184 42.0657C39.5889 43.3828 39.1875 45.0007 39.3935 46.5996C39.5995 48.1984 40.3979 49.6617 41.6309 50.7002C42.8639 51.7387 44.4417 52.2767 46.0523 52.2079C47.6628 52.139 49.189 51.4684 50.3289 50.3285C51.4688 49.1886 52.1394 47.6625 52.2083 46.0519C52.2771 44.4413 51.7391 42.8635 50.7006 41.6305C49.6621 40.3975 48.1988 39.5991 46.5999 39.3931C45.0011 39.1871 43.3832 39.5885 42.0661 40.518L27.9622 26.4141L28.5637 25.8071L55.7817 36.6954L60.0747 47.8626L47.8629 60.0743L36.6957 55.7813L25.8075 28.5633ZM45.7739 41.5243C46.7569 41.5257 47.709 41.868 48.4679 42.4927C49.2269 43.1174 49.7458 43.9859 49.9363 44.9503C50.1267 45.9146 49.9769 46.9152 49.5124 47.7815C49.0478 48.6478 48.2973 49.3263 47.3887 49.7013C46.48 50.0763 45.4695 50.1247 44.5291 49.8382C43.5888 49.5517 42.7769 48.9481 42.2317 48.1301C41.6865 47.3122 41.4418 46.3305 41.5393 45.3523C41.6367 44.3742 42.0702 43.46 42.7661 42.7657C43.5646 41.9697 44.6464 41.5232 45.7739 41.5243ZM52.2106 67.0579L49.4762 61.5891L61.5786 49.4868L67.0473 52.2211L52.2106 67.0579Z" fill="#617792"/>
<path d="M20.9175 58.5156C20.7084 58.3179 20.4315 58.2078 20.1437 58.2078C19.8559 58.2078 19.579 58.3179 19.3699 58.5156L17.9808 59.9047C14.274 54.8737 12.2291 48.8116 12.131 42.5633C12.033 36.3149 13.8868 30.1917 17.434 25.0469C18.4967 25.6317 19.7203 25.8563 20.9215 25.6871C22.1226 25.5179 23.2366 24.9641 24.0965 24.1085C24.9564 23.2529 25.5158 22.1418 25.691 20.9415C25.8662 19.7412 25.6478 18.5165 25.0683 17.4508C30.2131 13.9036 36.3364 12.0498 42.5847 12.1479C48.8331 12.2459 54.8952 14.2908 59.9261 17.9977L58.5152 19.3703C58.3118 19.5754 58.1978 19.8526 58.198 20.1414C58.1972 20.2854 58.2248 20.428 58.2792 20.5613C58.3336 20.6946 58.4138 20.8158 58.5152 20.918L63.3386 25.7031C63.5436 25.9068 63.8208 26.0212 64.1097 26.0212C64.3987 26.0212 64.6759 25.9068 64.8808 25.7031L69.6769 20.907C69.7786 20.8055 69.8593 20.6848 69.9143 20.552C69.9694 20.4193 69.9977 20.2769 69.9977 20.1332C69.9977 19.9895 69.9694 19.8471 69.9143 19.7144C69.8593 19.5816 69.7786 19.461 69.6769 19.3594L64.8808 14.5633C64.6759 14.3596 64.3987 14.2452 64.1097 14.2452C63.8208 14.2452 63.5436 14.3596 63.3386 14.5633L61.4847 16.4063C56.9156 12.968 51.5137 10.8079 45.8337 10.1476C40.1538 9.48735 34.4004 10.3508 29.1644 12.6492L35.4699 6.36016C36.1848 6.70178 36.9977 6.77911 37.7642 6.57843C38.5308 6.37774 39.2015 5.91203 39.6573 5.26389C40.1131 4.61576 40.3246 3.82711 40.2543 3.03786C40.184 2.24861 39.8364 1.50978 39.2731 0.952451C38.7099 0.395118 37.9674 0.0553107 37.1775 -0.00668627C36.3875 -0.0686832 35.6012 0.151138 34.9579 0.613779C34.3146 1.07642 33.856 1.75197 33.6634 2.52059C33.4708 3.28921 33.5567 4.10119 33.9058 4.8125L23.2636 15.4711C22.1831 14.7463 20.8844 14.4191 19.5894 14.5455C18.2945 14.6718 17.0835 15.2439 16.1635 16.1639C15.2435 17.084 14.6714 18.2949 14.545 19.5899C14.4187 20.8848 14.7459 22.1835 15.4707 23.2641L4.81208 33.9063C4.09799 33.5583 3.28365 33.4748 2.51379 33.6705C1.74392 33.8663 1.06838 34.3286 0.607212 34.9754C0.146042 35.6222 -0.0708908 36.4115 -0.00503877 37.2031C0.0608133 37.9948 0.405186 38.7374 0.966884 39.2991C1.52858 39.8608 2.27123 40.2052 3.06286 40.271C3.85448 40.3369 4.64382 40.1199 5.29061 39.6588C5.93739 39.1976 6.39974 38.5221 6.59548 37.7522C6.79123 36.9823 6.7077 36.168 6.35974 35.4539L12.6652 29.1648C10.3645 34.3994 9.49831 40.152 10.1557 45.8319C10.8131 51.5119 12.9703 56.9145 16.4058 61.4852L14.5574 63.3391C14.3537 63.544 14.2393 63.8212 14.2393 64.1102C14.2393 64.3991 14.3537 64.6763 14.5574 64.8813L19.3535 69.6774C19.5577 69.8828 19.835 69.9988 20.1246 70C20.2689 70.0001 20.4118 69.9717 20.5451 69.9163C20.6784 69.8609 20.7994 69.7797 20.9011 69.6774L25.7027 64.8813C25.9064 64.6763 26.0208 64.3991 26.0208 64.1102C26.0208 63.8212 25.9064 63.544 25.7027 63.3391L20.9175 58.5156ZM64.1207 16.8711L67.3691 20.1195L64.1207 23.368L60.8722 20.1195L64.1207 16.8711ZM36.0933 2.53204C36.2559 2.36818 36.4634 2.2563 36.6896 2.21058C36.9158 2.16487 37.1505 2.18738 37.3639 2.27527C37.5773 2.36315 37.7598 2.51245 37.8882 2.70421C38.0166 2.89597 38.0852 3.12156 38.0852 3.35235C38.0852 3.58314 38.0166 3.80872 37.8882 4.00048C37.7598 4.19225 37.5773 4.34154 37.3639 4.42943C37.1505 4.51731 36.9158 4.53983 36.6896 4.49411C36.4634 4.4484 36.2559 4.33651 36.0933 4.17266C35.9855 4.06498 35.9 3.93711 35.8416 3.79635C35.7833 3.6556 35.7532 3.50472 35.7532 3.35235C35.7532 3.19997 35.7833 3.0491 35.8416 2.90834C35.9 2.76758 35.9855 2.63971 36.0933 2.53204ZM17.7183 17.7188C18.0359 17.3996 18.4134 17.1464 18.8292 16.9736C19.245 16.8008 19.6908 16.7119 20.141 16.7119C20.5912 16.7119 21.037 16.8008 21.4528 16.9736C21.8685 17.1464 22.246 17.3996 22.5636 17.7188C23.0437 18.1981 23.3709 18.809 23.5036 19.4743C23.6364 20.1396 23.5688 20.8293 23.3094 21.4562C23.05 22.0831 22.6106 22.6189 22.0466 22.996C21.4826 23.373 20.8194 23.5742 20.141 23.5742C19.4626 23.5742 18.7994 23.373 18.2354 22.996C17.6714 22.6189 17.2319 22.0831 16.9726 21.4562C16.7132 20.8293 16.6456 20.1396 16.7784 19.4743C16.9111 18.809 17.2382 18.1981 17.7183 17.7188ZM4.1777 37.7344C3.95441 37.9206 3.66955 38.0166 3.3791 38.0034C3.08864 37.9903 2.8136 37.869 2.60801 37.6635C2.40241 37.4579 2.28114 37.1828 2.26802 36.8924C2.25489 36.6019 2.35087 36.317 2.53708 36.0938C2.75594 35.8787 3.05053 35.7581 3.35739 35.7581C3.66426 35.7581 3.95884 35.8787 4.1777 36.0938C4.28552 36.2014 4.37104 36.3293 4.4294 36.4701C4.48775 36.6108 4.51779 36.7617 4.51779 36.9141C4.51779 37.0664 4.48775 37.2173 4.4294 37.3581C4.37104 37.4988 4.28552 37.6267 4.1777 37.7344ZM20.141 67.3367L16.8925 64.0883L20.141 60.8398L23.3894 64.0883L20.141 67.3367Z" fill="#617792"/>
</g>
<defs>
<clipPath id="clip0_1599_2312">
<rect width="70" height="70" fill="white"/>
</clipPath>
</defs>
</svg>
