<svg width="70" height="70" viewBox="0 0 70 70" fill="none" xmlns="http://www.w3.org/2000/svg">
<path d="M43.75 30.625H49.2188C49.5088 30.625 49.787 30.5098 49.9921 30.3046C50.1973 30.0995 50.3125 29.8213 50.3125 29.5312C50.3125 29.2412 50.1973 28.963 49.9921 28.7579C49.787 28.5527 49.5088 28.4375 49.2188 28.4375H43.75C43.4599 28.4375 43.1817 28.5527 42.9766 28.7579C42.7715 28.963 42.6562 29.2412 42.6562 29.5312C42.6562 29.8213 42.7715 30.0995 42.9766 30.3046C43.1817 30.5098 43.4599 30.625 43.75 30.625Z" fill="#617792"/>
<path d="M66.7188 28.4375C66.4287 28.4375 66.1505 28.5527 65.9454 28.7579C65.7402 28.963 65.625 29.2412 65.625 29.5312V65.625H9.84375C8.76213 65.625 7.70481 65.3043 6.80548 64.7034C5.90614 64.1024 5.2052 63.2483 4.79128 62.2491C4.37737 61.2498 4.26907 60.1502 4.48008 59.0893C4.69109 58.0285 5.21194 57.0541 5.97676 56.2893C6.74158 55.5244 7.71602 55.0036 8.77685 54.7926C9.83768 54.5816 10.9373 54.6899 11.9365 55.1038C12.9358 55.5177 13.7899 56.2186 14.3908 57.118C14.9918 58.0173 15.3125 59.0746 15.3125 60.1562C15.3125 60.4463 15.4277 60.7245 15.6329 60.9296C15.838 61.1348 16.1162 61.25 16.4062 61.25C16.6963 61.25 16.9745 61.1348 17.1796 60.9296C17.3848 60.7245 17.5 60.4463 17.5 60.1562V30.625H20.7812C21.0713 30.625 21.3495 30.5098 21.5546 30.3046C21.7598 30.0995 21.875 29.8213 21.875 29.5312C21.875 29.2412 21.7598 28.963 21.5546 28.7579C21.3495 28.5527 21.0713 28.4375 20.7812 28.4375H17.5V25.1562C17.5 23.1257 16.6934 21.1783 15.2575 19.7425C13.8217 18.3066 11.8743 17.5 9.84375 17.5C7.81319 17.5 5.86579 18.3066 4.42996 19.7425C2.99414 21.1783 2.1875 23.1257 2.1875 25.1562V60.1562C2.18982 62.1861 2.9972 64.1322 4.43252 65.5675C5.86785 67.0028 7.8139 67.8102 9.84375 67.8125H66.7188C67.0088 67.8125 67.287 67.6973 67.4921 67.4921C67.6973 67.287 67.8125 67.0088 67.8125 66.7188V29.5312C67.8125 29.2412 67.6973 28.963 67.4921 28.7579C67.287 28.5527 67.0088 28.4375 66.7188 28.4375ZM4.375 25.1562C4.375 23.7058 4.95117 22.3148 5.97676 21.2893C7.00235 20.2637 8.39335 19.6875 9.84375 19.6875C11.2942 19.6875 12.6852 20.2637 13.7107 21.2893C14.7363 22.3148 15.3125 23.7058 15.3125 25.1562V54.7969C14.6003 54.0681 13.7497 53.489 12.8105 53.0937C11.8714 52.6983 10.8627 52.4947 9.84375 52.4947C8.82478 52.4947 7.8161 52.6983 6.87696 53.0937C5.93782 53.489 5.08717 54.0681 4.375 54.7969V25.1562Z" fill="#617792"/>
<path d="M52.5777 41.9694L54.3277 46.3444L56.9527 52.9069C57.0337 53.1102 57.1738 53.2845 57.3549 53.4074C57.5361 53.5302 57.7499 53.5958 57.9688 53.5958C58.1876 53.5958 58.4014 53.5302 58.5826 53.4074C58.7637 53.2845 58.9038 53.1102 58.9848 52.9069L61.6098 46.3444L63.3598 41.9694C63.4037 41.8525 63.4271 41.7289 63.4288 41.6041C63.4288 41.5898 63.4375 41.5778 63.4375 41.5625V22.9688C63.4375 22.6787 63.3223 22.4005 63.1171 22.1954C62.912 21.9902 62.6338 21.875 62.3438 21.875C62.0537 21.875 61.7755 21.9902 61.5704 22.1954C61.3652 22.4005 61.25 22.6787 61.25 22.9688V40.4688H59.0625V15.3125H61.25V18.5938C61.25 18.8838 61.3652 19.162 61.5704 19.3671C61.7755 19.5723 62.0537 19.6875 62.3438 19.6875C62.6338 19.6875 62.912 19.5723 63.1171 19.3671C63.3223 19.162 63.4375 18.8838 63.4375 18.5938V7.65625C63.4375 6.20585 62.8613 4.81485 61.8357 3.78926C60.8102 2.76367 59.4192 2.1875 57.9688 2.1875C56.5183 2.1875 55.1273 2.76367 54.1018 3.78926C53.0762 4.81485 52.5 6.20585 52.5 7.65625V41.5625C52.5 41.5778 52.5077 41.5898 52.5087 41.6052C52.5105 41.7296 52.5339 41.8529 52.5777 41.9694ZM56.9592 47.0312H58.9783L57.9688 49.5556L56.9592 47.0312ZM59.8533 44.8438H56.0842L55.2092 42.6562H60.7283L59.8533 44.8438ZM56.875 40.4688H54.6875V15.3125H56.875V40.4688ZM54.6875 13.125V10.9375H61.25V13.125H54.6875ZM54.6875 7.65625C54.6875 6.78601 55.0332 5.95141 55.6486 5.33606C56.2639 4.7207 57.0985 4.375 57.9688 4.375C58.839 4.375 59.6736 4.7207 60.2889 5.33606C60.9043 5.95141 61.25 6.78601 61.25 7.65625V8.75H54.6875V7.65625Z" fill="#617792"/>
<path d="M26.2498 23.7344V24.2605C25.6105 24.4832 25.0563 24.8994 24.6641 25.4513C24.272 26.0032 24.0613 26.6634 24.0613 27.3405C24.0613 28.0175 24.272 28.6778 24.6641 29.2297C25.0563 29.7815 25.6105 30.1977 26.2498 30.4205V30.625C26.2519 32.0083 26.6905 33.3557 27.5031 34.4752C28.3158 35.5946 29.4611 36.429 30.7758 36.8594C29.6075 38.0335 28.1404 38.8656 26.5331 39.2656L24.8651 39.6834C23.5849 39.9998 22.4649 40.7743 21.7169 41.8604C20.969 42.9466 20.6449 44.2691 20.806 45.578C20.9671 46.8869 21.6022 48.0914 22.5912 48.9638C23.5801 49.8362 24.8545 50.316 26.1733 50.3125H28.4373C28.7274 50.3125 29.0056 50.1973 29.2107 49.9921C29.4158 49.787 29.5311 49.5088 29.5311 49.2187C29.5311 48.9287 29.4158 48.6505 29.2107 48.4453C29.0056 48.2402 28.7274 48.125 28.4373 48.125H26.1733C25.3913 48.1242 24.6366 47.8377 24.0512 47.3194C23.4657 46.801 23.09 46.0866 22.9945 45.3105C22.8991 44.5344 23.0906 43.7502 23.533 43.1054C23.9754 42.4607 24.6382 41.9999 25.3967 41.8097L27.0647 41.393C29.5988 40.7573 31.8332 39.2606 33.3854 37.1591C35.0194 37.0146 36.5401 36.2639 37.6485 35.0547C38.7569 33.8455 39.3727 32.2653 39.3748 30.625V30.4238C40.0142 30.201 40.5684 29.7848 40.9605 29.2329C41.3527 28.681 41.5634 28.0208 41.5634 27.3438C41.5634 26.6667 41.3527 26.0065 40.9605 25.4546C40.5684 24.9027 40.0142 24.4865 39.3748 24.2638V23.7344C41.0728 22.22 42.1918 20.1626 42.5403 17.9143C42.8889 15.6659 42.4453 13.3663 41.2856 11.4089C41.1381 11.159 40.8974 10.9779 40.6163 10.9055C40.3353 10.8331 40.0371 10.8753 39.7872 11.0228C39.5373 11.1703 39.3562 11.4111 39.2838 11.6921C39.2114 11.9731 39.2536 12.2713 39.4011 12.5212C40.3406 14.1048 40.6754 15.9748 40.3437 17.7859C40.0119 19.5971 39.0361 21.2271 37.5964 22.3748C37.4687 22.4774 37.3656 22.6072 37.2948 22.7549C37.224 22.9025 37.1873 23.0642 37.1873 23.228V24.0625H36.2215L37.1808 15.4328C37.201 15.2504 37.175 15.0659 37.1052 14.8961C37.0354 14.7264 36.924 14.577 36.7813 14.4616C36.6386 14.3462 36.4691 14.2686 36.2885 14.2359C36.108 14.2033 35.9221 14.2165 35.7479 14.2745L32.8123 15.2534L29.8767 14.2745C29.7026 14.2165 29.5167 14.2033 29.3361 14.2359C29.1555 14.2686 28.9861 14.3462 28.8434 14.4616C28.7006 14.577 28.5892 14.7264 28.5194 14.8961C28.4496 15.0659 28.4236 15.2504 28.4439 15.4328L29.4031 24.0625H28.4373V23.2312C28.4374 23.0675 28.4006 22.9058 28.3298 22.7582C28.259 22.6105 28.156 22.4806 28.0283 22.3781C26.5132 21.1708 25.5128 19.4335 25.229 17.5171C24.9452 15.6007 25.3991 13.648 26.4992 12.0534C27.5993 10.4587 29.2635 9.34093 31.1558 8.92572C33.048 8.51052 35.0274 8.82884 36.694 9.81641C36.9439 9.96391 37.2422 10.0061 37.5232 9.9337C37.8042 9.86129 38.045 9.68022 38.1925 9.43031C38.34 9.18041 38.3822 8.88214 38.3098 8.60113C38.2374 8.32012 38.0563 8.07938 37.8064 7.93187C35.7037 6.69395 33.2159 6.28169 30.8262 6.77515C28.4366 7.26862 26.3156 8.63258 24.8753 10.6022C23.4349 12.5717 22.7779 15.0063 23.0319 17.4332C23.2859 19.86 24.4328 22.1058 26.2498 23.7344ZM32.8123 35C31.652 35 30.5392 34.5391 29.7187 33.7186C28.8983 32.8981 28.4373 31.7853 28.4373 30.625H37.1873C37.1873 31.7853 36.7264 32.8981 35.9059 33.7186C35.0854 34.5391 33.9726 35 32.8123 35ZM30.8075 16.8908L32.4667 17.4442C32.6911 17.5189 32.9336 17.5189 33.1579 17.4442L34.8172 16.8908L34.0209 24.0625H31.6092L30.8075 16.8908ZM30.6248 26.25H38.2811C38.5712 26.25 38.8494 26.3652 39.0545 26.5704C39.2596 26.7755 39.3748 27.0537 39.3748 27.3438C39.3748 27.6338 39.2596 27.912 39.0545 28.1171C38.8494 28.3223 38.5712 28.4375 38.2811 28.4375H27.3436C27.0535 28.4375 26.7753 28.3223 26.5702 28.1171C26.3651 27.912 26.2498 27.6338 26.2498 27.3438C26.2498 27.0537 26.3651 26.7755 26.5702 26.5704C26.7753 26.3652 27.0535 26.25 27.3436 26.25H30.6248Z" fill="#617792"/>
<path d="M19.6875 17.5C20.2916 17.5 20.7812 17.0103 20.7812 16.4062C20.7812 15.8022 20.2916 15.3125 19.6875 15.3125C19.0834 15.3125 18.5938 15.8022 18.5938 16.4062C18.5938 17.0103 19.0834 17.5 19.6875 17.5Z" fill="#617792"/>
<path d="M45.9375 17.5C46.5416 17.5 47.0312 17.0103 47.0312 16.4062C47.0312 15.8022 46.5416 15.3125 45.9375 15.3125C45.3334 15.3125 44.8438 15.8022 44.8438 16.4062C44.8438 17.0103 45.3334 17.5 45.9375 17.5Z" fill="#617792"/>
<path d="M32.8125 4.375C33.4166 4.375 33.9062 3.88531 33.9062 3.28125C33.9062 2.67719 33.4166 2.1875 32.8125 2.1875C32.2084 2.1875 31.7188 2.67719 31.7188 3.28125C31.7188 3.88531 32.2084 4.375 32.8125 4.375Z" fill="#617792"/>
<path d="M20.8994 10.7909C21.0867 10.8991 21.3019 10.9493 21.5178 10.9352C21.7337 10.921 21.9405 10.8432 22.1121 10.7115C22.2837 10.5798 22.4125 10.4002 22.482 10.1953C22.5515 9.99049 22.5588 9.76963 22.5028 9.56067C22.4468 9.35172 22.3301 9.16406 22.1675 9.02142C22.0048 8.87879 21.8035 8.78759 21.5891 8.75935C21.3746 8.73111 21.1565 8.76711 20.9625 8.86279C20.7685 8.95847 20.6072 9.10953 20.4991 9.29687C20.354 9.54809 20.3147 9.84662 20.3898 10.1268C20.4649 10.407 20.6482 10.6459 20.8994 10.7909Z" fill="#617792"/>
<path d="M43.6318 23.9159C43.8191 24.0241 44.0344 24.0743 44.2502 24.0602C44.4661 24.046 44.6729 23.9682 44.8445 23.8365C45.0162 23.7048 45.1449 23.5252 45.2144 23.3203C45.284 23.1155 45.2912 22.8946 45.2352 22.6857C45.1792 22.4767 45.0625 22.2891 44.8999 22.1464C44.7372 22.0038 44.536 21.9126 44.3215 21.8843C44.107 21.8561 43.889 21.8921 43.695 21.9878C43.5009 22.0835 43.3397 22.2345 43.2315 22.4219C43.0865 22.6731 43.0472 22.9716 43.1222 23.2518C43.1973 23.532 43.3806 23.7709 43.6318 23.9159Z" fill="#617792"/>
<path d="M39.6578 6.09703C40.2413 5.94069 40.5875 5.34094 40.4312 4.75746C40.2749 4.17399 39.6751 3.82772 39.0916 3.98407C38.5082 4.14041 38.1619 4.74015 38.3182 5.32363C38.4746 5.90711 39.0743 6.25337 39.6578 6.09703Z" fill="#617792"/>
<path d="M44.7256 10.7909C44.9129 10.6828 45.064 10.5215 45.1597 10.3275C45.2553 10.1335 45.2913 9.91543 45.2631 9.70095C45.2349 9.48648 45.1437 9.28519 45.001 9.12255C44.8584 8.95991 44.6707 8.84322 44.4618 8.78723C44.2528 8.73125 44.032 8.73848 43.8271 8.80802C43.6223 8.87756 43.4427 9.00628 43.311 9.17791C43.1793 9.34953 43.1014 9.55635 43.0873 9.77221C43.0732 9.98808 43.1233 10.2033 43.2315 10.3906C43.3766 10.6418 43.6155 10.8251 43.8956 10.9002C44.1758 10.9753 44.4744 10.936 44.7256 10.7909Z" fill="#617792"/>
<path d="M22.3935 22.4219C22.2854 22.2345 22.1241 22.0835 21.93 21.9878C21.736 21.8921 21.518 21.8561 21.3035 21.8843C21.089 21.9126 20.8878 22.0038 20.7251 22.1464C20.5625 22.2891 20.4458 22.4767 20.3898 22.6857C20.3338 22.8946 20.3411 23.1155 20.4106 23.3203C20.4801 23.5252 20.6089 23.7048 20.7805 23.8365C20.9521 23.9682 21.1589 24.046 21.3748 24.0602C21.5907 24.0743 21.8059 24.0241 21.9932 23.9159C22.2444 23.7709 22.4277 23.532 22.5028 23.2518C22.5778 22.9716 22.5385 22.6731 22.3935 22.4219Z" fill="#617792"/>
<path d="M26.7969 5.98719C26.9842 5.87903 27.1353 5.71774 27.231 5.52372C27.3266 5.32971 27.3626 5.11168 27.3344 4.8972C27.3062 4.68273 27.215 4.48144 27.0723 4.3188C26.9297 4.15616 26.742 4.03947 26.5331 3.98348C26.3241 3.9275 26.1032 3.93473 25.8984 4.00427C25.6936 4.07381 25.5139 4.20253 25.3823 4.37415C25.2506 4.54578 25.1727 4.7526 25.1586 4.96846C25.1444 5.18433 25.1946 5.39954 25.3028 5.58687C25.4478 5.83808 25.6867 6.02138 25.9669 6.09645C26.2471 6.17153 26.5457 6.13222 26.7969 5.98719Z" fill="#617792"/>
<path d="M38.281 59.0625H42.656C42.9461 59.0625 43.2243 58.9473 43.4294 58.7421C43.6346 58.537 43.7498 58.2588 43.7498 57.9688V56.1302C44.1211 55.9551 44.4774 55.7498 44.8151 55.5166L46.4054 56.4353C46.6566 56.5803 46.9552 56.6196 47.2354 56.5446C47.5155 56.4695 47.7544 56.2862 47.8995 56.035L50.087 52.2463C50.232 51.995 50.2713 51.6965 50.1962 51.4163C50.1212 51.1361 49.9379 50.8972 49.6867 50.7522L48.0986 49.8345C48.1161 49.6278 48.1248 49.4233 48.1248 49.2188C48.1248 49.0142 48.1161 48.8097 48.0986 48.603L49.6867 47.6853C49.9379 47.5403 50.1212 47.3014 50.1962 47.0212C50.2713 46.741 50.232 46.4425 50.087 46.1912L47.8995 42.4025C47.7544 42.1513 47.5155 41.968 47.2354 41.8929C46.9552 41.8179 46.6566 41.8572 46.4054 42.0022L44.8151 42.9209C44.4774 42.6877 44.1211 42.4824 43.7498 42.3073V40.4688C43.7498 40.1787 43.6346 39.9005 43.4294 39.6954C43.2243 39.4902 42.9461 39.375 42.656 39.375H38.281C37.991 39.375 37.7128 39.4902 37.5077 39.6954C37.3025 39.9005 37.1873 40.1787 37.1873 40.4688V42.3073C36.816 42.4824 36.4597 42.6877 36.122 42.9209L34.5317 42.0022C34.2805 41.8572 33.9819 41.8179 33.7017 41.8929C33.4215 41.968 33.1827 42.1513 33.0376 42.4025L30.8501 46.1912C30.7051 46.4425 30.6658 46.741 30.7408 47.0212C30.8159 47.3014 30.9992 47.5403 31.2504 47.6853L32.8385 48.603C32.821 48.8097 32.8123 49.0142 32.8123 49.2188C32.8123 49.4233 32.821 49.6278 32.8385 49.8345L31.2504 50.7522C31.125 50.8235 31.015 50.9189 30.9266 51.0329C30.8382 51.1469 30.7733 51.2772 30.7355 51.4164C30.6977 51.5556 30.6878 51.7009 30.7064 51.844C30.725 51.987 30.7717 52.125 30.8438 52.2499C30.9159 52.3748 31.0121 52.4842 31.1266 52.5718C31.2412 52.6595 31.372 52.7236 31.5115 52.7604C31.6509 52.7973 31.7963 52.8062 31.9392 52.7867C32.0821 52.7671 32.2197 52.7195 32.3442 52.6466L34.5623 51.3625C34.758 51.2497 34.9139 51.079 35.0087 50.8739C35.1035 50.6689 35.1325 50.4395 35.0917 50.2173C34.9633 49.5578 34.9633 48.8797 35.0917 48.2202C35.1325 47.998 35.1035 47.7686 35.0087 47.5636C34.9139 47.3585 34.758 47.1878 34.5623 47.075L33.287 46.3378L34.3807 44.4434L35.656 45.1806C35.852 45.2937 36.0781 45.3433 36.3034 45.3226C36.5287 45.3018 36.7419 45.2117 36.9139 45.0647C37.4239 44.6293 38.0097 44.2915 38.642 44.0683C38.8558 43.9935 39.0411 43.8543 39.1723 43.6697C39.3036 43.4852 39.3744 43.2644 39.3748 43.038V41.5625H41.5623V43.038C41.5624 43.2639 41.6325 43.4843 41.763 43.6688C41.8934 43.8533 42.0778 43.9928 42.2907 44.0683C42.9231 44.2915 43.5089 44.6293 44.0189 45.0647C44.1908 45.2117 44.4041 45.3018 44.6293 45.3226C44.8546 45.3433 45.0808 45.2937 45.2767 45.1806L46.552 44.4434L47.6457 46.3378L46.3748 47.075C46.1791 47.1878 46.0232 47.3585 45.9284 47.5636C45.8336 47.7686 45.8046 47.998 45.8454 48.2202C45.9738 48.8797 45.9738 49.5578 45.8454 50.2173C45.8046 50.4395 45.8336 50.6689 45.9284 50.8739C46.0232 51.079 46.1791 51.2497 46.3748 51.3625L47.6501 52.0997L46.5564 53.9941L45.2811 53.2569C45.0851 53.1438 44.859 53.0942 44.6337 53.1149C44.4084 53.1357 44.1952 53.2258 44.0232 53.3728C43.5132 53.8082 42.9274 54.146 42.2951 54.3692C42.0821 54.4447 41.8978 54.5842 41.7673 54.7687C41.6369 54.9532 41.5668 55.1736 41.5667 55.3995V56.875H39.3748V55.3995C39.3747 55.1736 39.3046 54.9532 39.1741 54.7687C39.0437 54.5842 38.8593 54.4447 38.6464 54.3692C38.014 54.146 37.4282 53.8082 36.9182 53.3728C36.7463 53.2258 36.533 53.1357 36.3078 53.1149C36.0825 53.0942 35.8563 53.1438 35.6604 53.2569L33.4379 54.5409C33.3125 54.6122 33.2025 54.7076 33.1141 54.8216C33.0257 54.9356 32.9608 55.066 32.923 55.2052C32.8852 55.3444 32.8753 55.4897 32.8939 55.6327C32.9125 55.7758 32.9592 55.9137 33.0313 56.0386C33.1034 56.1636 33.1996 56.273 33.3141 56.3606C33.4287 56.4482 33.5595 56.5123 33.699 56.5492C33.8384 56.586 33.9838 56.595 34.1267 56.5754C34.2696 56.5559 34.4072 56.5083 34.5317 56.4353L36.122 55.5166C36.4597 55.7498 36.816 55.9551 37.1873 56.1302V57.9688C37.1873 58.2588 37.3025 58.537 37.5077 58.7421C37.7128 58.9473 37.991 59.0625 38.281 59.0625Z" fill="#617792"/>
<path d="M43.75 49.2188C43.75 48.5698 43.5576 47.9354 43.197 47.3958C42.8365 46.8562 42.324 46.4356 41.7244 46.1873C41.1249 45.9389 40.4651 45.8739 39.8286 46.0005C39.1921 46.1272 38.6074 46.4397 38.1486 46.8986C37.6897 47.3574 37.3772 47.9421 37.2505 48.5786C37.1239 49.2151 37.1889 49.8749 37.4373 50.4744C37.6856 51.074 38.1062 51.5865 38.6458 51.947C39.1854 52.3076 39.8198 52.5 40.4688 52.5C41.339 52.5 42.1736 52.1543 42.7889 51.5389C43.4043 50.9236 43.75 50.089 43.75 49.2188ZM39.375 49.2188C39.375 49.0024 39.4391 48.791 39.5593 48.6111C39.6795 48.4312 39.8503 48.291 40.0502 48.2083C40.25 48.1255 40.47 48.1038 40.6821 48.146C40.8943 48.1882 41.0892 48.2924 41.2422 48.4454C41.3951 48.5983 41.4993 48.7932 41.5415 49.0054C41.5837 49.2175 41.562 49.4375 41.4792 49.6373C41.3965 49.8372 41.2563 50.008 41.0764 50.1282C40.8965 50.2484 40.6851 50.3125 40.4688 50.3125C40.1787 50.3125 39.9005 50.1973 39.6954 49.9922C39.4902 49.787 39.375 49.5088 39.375 49.2188Z" fill="#617792"/>
<path d="M41.5625 63.4375H54.6875C55.8478 63.4375 56.9606 62.9766 57.7811 62.1561C58.6016 61.3356 59.0625 60.2228 59.0625 59.0625V56.875C59.0625 56.5849 58.9473 56.3067 58.7421 56.1016C58.537 55.8965 58.2588 55.7812 57.9688 55.7812C57.6787 55.7812 57.4005 55.8965 57.1954 56.1016C56.9902 56.3067 56.875 56.5849 56.875 56.875V59.0625C56.875 59.6427 56.6445 60.1991 56.2343 60.6093C55.8241 61.0195 55.2677 61.25 54.6875 61.25H41.5625C41.2724 61.25 40.9942 61.3652 40.7891 61.5704C40.584 61.7755 40.4688 62.0537 40.4688 62.3438C40.4688 62.6338 40.584 62.912 40.7891 63.1171C40.9942 63.3223 41.2724 63.4375 41.5625 63.4375Z" fill="#617792"/>
<path d="M21.875 59.0625C21.875 59.7115 22.0674 60.3459 22.428 60.8855C22.7885 61.4251 23.301 61.8456 23.9006 62.094C24.5001 62.3423 25.1599 62.4073 25.7964 62.2807C26.4329 62.1541 27.0176 61.8416 27.4764 61.3827C27.9353 60.9238 28.2478 60.3391 28.3745 59.7026C28.5011 59.0661 28.4361 58.4064 28.1877 57.8068C27.9394 57.2073 27.5188 56.6948 26.9792 56.3342C26.4396 55.9737 25.8052 55.7812 25.1562 55.7812C24.286 55.7812 23.4514 56.127 22.8361 56.7423C22.2207 57.3577 21.875 58.1923 21.875 59.0625ZM26.25 59.0625C26.25 59.2788 26.1859 59.4903 26.0657 59.6702C25.9455 59.85 25.7747 59.9902 25.5748 60.073C25.375 60.1558 25.155 60.1774 24.9429 60.1352C24.7307 60.093 24.5358 59.9889 24.3829 59.8359C24.2299 59.6829 24.1257 59.488 24.0835 59.2759C24.0413 59.0637 24.063 58.8438 24.1458 58.6439C24.2285 58.4441 24.3687 58.2733 24.5486 58.1531C24.7285 58.0329 24.9399 57.9688 25.1562 57.9688C25.4463 57.9688 25.7245 58.084 25.9296 58.2891C26.1348 58.4942 26.25 58.7724 26.25 59.0625Z" fill="#617792"/>
</svg>
