<svg width="70" height="70" viewBox="0 0 70 70" fill="none" xmlns="http://www.w3.org/2000/svg">
<g clip-path="url(#clip0_1599_2440)">
<path d="M41.837 44.112C42.7034 44.112 43.5138 43.7705 44.1187 43.1504L49.4933 37.64C50.7199 36.3822 50.6945 34.361 49.4365 33.1342C48.1786 31.9077 46.1569 31.9331 44.9303 33.1908L41.7774 36.4231L41.2251 35.8861C39.9654 34.6616 37.9438 34.6896 36.7187 35.9492C35.494 37.2088 35.5223 39.2301 36.782 40.4549L39.6156 43.2101C40.2138 43.7917 41.0028 44.112 41.837 44.112ZM38.1923 37.3818C38.6276 36.9342 39.3457 36.9249 39.7927 37.3595L41.0804 38.6117C41.4868 39.007 42.1364 38.9981 42.5324 38.5924L46.4015 34.6257C46.8374 34.1787 47.5553 34.1701 48.0018 34.6054C48.4486 35.0412 48.4575 35.7589 48.0221 36.2056L42.6475 41.7158C42.2322 42.16 41.4755 42.1694 41.0483 41.7371L38.2147 38.9819C37.7675 38.5469 37.7572 37.829 38.1923 37.3818Z" fill="#617792"/>
<path d="M33.8951 44.8113C33.5533 44.3584 32.9092 44.2682 32.4558 44.61C32.0027 44.9518 31.9128 45.596 32.2544 46.0489C32.6286 46.5448 33.0426 47.0203 33.4845 47.4622C36.0109 49.9883 39.37 51.3795 42.9428 51.3795C46.5157 51.3795 49.8746 49.9883 52.401 47.4622C54.9276 44.9362 56.3189 41.5775 56.3189 38.0052C56.3189 34.4328 54.9275 31.0743 52.401 28.5482C47.1856 23.3337 38.6999 23.3338 33.4845 28.5482C29.9289 32.1033 28.6706 37.2895 30.2009 42.0829C30.3735 42.6234 30.9521 42.9215 31.4922 42.7492C32.0328 42.5767 32.3313 41.9985 32.1586 41.458C30.8632 37.4005 31.9281 33.0105 34.9378 30.0013C39.3517 25.5879 46.534 25.5879 50.9479 30.0013C53.0861 32.1393 54.2638 34.9818 54.2638 38.0054C54.2638 41.0289 53.0861 43.8714 50.9479 46.0094C48.8097 48.1473 45.9668 49.3248 42.9428 49.3248C39.919 49.3248 37.076 48.1474 34.9377 46.0094C34.5628 45.6343 34.212 45.2313 33.8951 44.8113Z" fill="#617792"/>
<path d="M68.5865 56.7753L62.1039 50.2936C61.7025 49.8925 61.052 49.8924 60.6506 50.2936L60.611 50.3333L58.1163 47.839C59.7933 45.2536 60.7924 42.2665 60.989 39.1489C61.0247 38.5826 60.5944 38.0946 60.0281 38.0588C59.4623 38.0244 58.9739 38.4534 58.938 39.0195C58.6925 42.9118 57.0367 46.5758 54.2756 49.3366C51.1551 52.4568 47.0572 54.0187 42.9581 54.0226C42.9529 54.0225 42.9479 54.0218 42.9425 54.0218H42.8609C38.784 54.0013 34.7133 52.44 31.6095 49.3366C28.5823 46.3099 26.9151 42.2856 26.9151 38.0051C26.9151 33.7246 28.5823 29.7002 31.6095 26.6736C37.8585 20.4252 48.0266 20.4252 54.2756 26.6736C56.6031 29.0008 58.139 31.9363 58.7174 35.163C58.8176 35.7215 59.3519 36.0925 59.9102 35.993C60.4688 35.8929 60.8404 35.359 60.7403 34.8004C60.0873 31.1586 58.3544 27.8459 55.7287 25.2205C54.4277 23.9196 52.9758 22.8596 51.4291 22.0389V13.7584C51.4283 13.488 51.319 13.2233 51.1282 13.0319L38.3955 0.300918C38.204 0.110332 37.9395 0.000683594 37.6688 0H3.08273C1.38305 0 0.000136719 1.38264 0.000136719 3.08219V11.7178C0.000136719 12.2851 0.460059 12.7452 1.02771 12.7452C1.59523 12.7452 2.05529 12.2853 2.05529 11.7178V3.08219C2.05529 2.51563 2.51617 2.05475 3.08287 2.05475H36.6416V11.7037C36.6416 13.4032 38.0245 14.7859 39.7242 14.7859H49.3743V21.1084C47.3695 20.3488 45.2558 19.9586 43.1387 19.9358C43.1286 19.9344 43.1188 19.9324 43.1082 19.9324H20.1668C19.5993 19.9324 19.1393 20.3924 19.1393 20.9598C19.1393 21.5272 19.5993 21.9872 20.1668 21.9872H34.5532C33.0874 22.7537 31.7058 23.7348 30.4545 24.9301H20.1668C19.5993 24.9301 19.1393 25.3902 19.1393 25.9576C19.1393 26.5249 19.5993 26.985 20.1668 26.985H28.6051C26.9279 29.1576 25.7816 31.6598 25.2329 34.3309H20.167C19.5995 34.3309 19.1394 34.791 19.1394 35.3583C19.1394 35.9257 19.5995 36.3858 20.167 36.3858H24.9329C24.8855 36.9213 24.8605 37.4613 24.8605 38.0054C24.8605 38.4516 24.8768 38.8954 24.9087 39.336H20.1671C19.5996 39.336 19.1395 39.7961 19.1395 40.3635C19.1395 40.9309 19.5996 41.3909 20.1671 41.3909H25.1765C25.7005 44.1719 26.8689 46.7778 28.6083 49.0294H20.1671C19.5996 49.0294 19.1395 49.4893 19.1395 50.0568C19.1395 50.6244 19.5996 51.0843 20.1671 51.0843H30.4586C31.7081 52.2774 33.0876 53.2569 34.5507 54.0224H20.1666C19.599 54.0224 19.139 54.4824 19.139 55.0498C19.139 55.6172 19.599 56.0772 20.1666 56.0772H42.9425C45.1248 56.077 47.3073 55.685 49.3741 54.902V66.9184C49.3741 67.4848 48.9132 67.9458 48.3465 67.9458H3.08273C2.51617 67.9458 2.05516 67.4849 2.05516 66.9184V15.8279C2.05516 15.2605 1.5951 14.8005 1.02758 14.8005C0.460059 14.8005 0 15.2604 0 15.8279V66.9184C0.000136719 68.6174 1.38305 70 3.08273 70H48.3466C50.0463 70 51.4292 68.6174 51.4292 66.9178V53.971C51.8878 53.7276 52.3379 53.4629 52.7782 53.1774L55.2724 55.6712C54.8408 56.048 54.8177 56.766 55.2326 57.1639L61.7153 63.6457C63.5236 65.5304 66.7781 65.5303 68.5863 63.6457C70.4714 61.8375 70.4713 58.5834 68.5865 56.7753ZM39.724 12.7311C39.1575 12.7311 38.6965 12.2702 38.6965 11.7037V3.50779L47.921 12.7311H39.724ZM54.4544 51.9474C54.8929 51.5849 55.3186 51.1997 55.7287 50.7896C56.1364 50.382 56.5223 49.9563 56.8865 49.5154L59.1577 51.7862L56.7254 54.218L54.4544 51.9474ZM67.1333 62.1927C66.0898 63.2803 64.212 63.28 63.1684 62.1927L57.4123 56.4374L61.3773 52.4729L67.1334 58.2282C68.2209 59.2718 68.221 61.1492 67.1333 62.1927Z" fill="#617792"/>
<path d="M9.32475 28.0004H13.8201C15.0874 28.0004 16.1186 26.9696 16.1186 25.7024V21.2077C16.1186 19.9404 15.0876 18.9096 13.8201 18.9096H9.32475C8.0575 18.9096 7.02637 19.9404 7.02637 21.2077V25.7024C7.02637 26.9696 8.0575 28.0004 9.32475 28.0004ZM9.08152 21.2077C9.08152 21.0736 9.19076 20.9645 9.32475 20.9645H13.8201C13.9543 20.9645 14.0634 21.0736 14.0634 21.2077V25.7024C14.0634 25.8366 13.9542 25.9457 13.8201 25.9457H9.32475C9.19063 25.9457 9.08152 25.8366 9.08152 25.7024V21.2077Z" fill="#617792"/>
<path d="M7.02637 40.1081C7.02637 41.3752 8.05736 42.4061 9.32475 42.4061H13.8201C15.0874 42.4061 16.1186 41.3752 16.1186 40.1081V35.6133C16.1186 34.3462 15.0876 33.3153 13.8201 33.3153H9.32475C8.0575 33.3153 7.02637 34.3462 7.02637 35.6133V40.1081ZM9.08152 35.6133C9.08152 35.4792 9.19076 35.3701 9.32475 35.3701H13.8201C13.9543 35.3701 14.0634 35.4792 14.0634 35.6133V40.1081C14.0634 40.2422 13.9542 40.3513 13.8201 40.3513H9.32475C9.19063 40.3513 9.08152 40.2422 9.08152 40.1081V35.6133Z" fill="#617792"/>
<path d="M7.02637 54.8064C7.02637 56.0736 8.05736 57.1044 9.32475 57.1044H13.8201C15.0874 57.1044 16.1186 56.0736 16.1186 54.8064V50.3117C16.1186 49.0444 15.0876 48.0136 13.8201 48.0136H9.32475C8.0575 48.0136 7.02637 49.0444 7.02637 50.3117V54.8064ZM9.08152 50.3117C9.08152 50.1776 9.19076 50.0685 9.32475 50.0685H13.8201C13.9543 50.0685 14.0634 50.1776 14.0634 50.3117V54.8064C14.0634 54.9406 13.9542 55.0497 13.8201 55.0497H9.32475C9.19063 55.0497 9.08152 54.9406 9.08152 54.8064V50.3117Z" fill="#617792"/>
</g>
<defs>
<clipPath id="clip0_1599_2440">
<rect width="70" height="70" fill="white"/>
</clipPath>
</defs>
</svg>
