<svg width="36" height="50" viewBox="0 0 36 50" fill="none" xmlns="http://www.w3.org/2000/svg">
<g clip-path="url(#clip0_1599_3419)">
<path fill-rule="evenodd" clip-rule="evenodd" d="M1.3687e-05 4.10159V34.3749C1.3687e-05 35.107 0.777926 35.45 1.3344 35.0259C1.7455 34.7126 1.5625 33.4637 1.5625 32.8124V8.39844C1.5625 6.06044 1.16037 3.10363 2.51984 2.03158C2.99171 1.65946 3.57889 1.46486 4.39453 1.46486H31.4452C33.4038 1.46486 34.2772 2.62751 34.2772 4.58985V45.41C34.2772 47.2774 33.501 48.3437 31.8297 48.5289C30.3539 48.6924 27.7673 48.535 26.1718 48.535C25.4111 48.7662 25.5842 49.9998 26.2694 49.9998H32.0311C33.1687 49.9998 33.9703 49.4693 34.6924 48.7549C35.3453 48.109 35.8397 47.1538 35.8397 45.8983V4.10154C35.8397 2.90879 35.3589 1.90512 34.7418 1.29319C33.999 0.556635 33.2062 0 32.0311 0H3.80858C1.79407 0 0 1.91539 0 4.10154L1.3687e-05 4.10159Z" fill="#36D1C2"/>
<path fill-rule="evenodd" clip-rule="evenodd" d="M4.6875 7.61701V14.5506C4.6875 15.0298 4.8311 15.4953 4.97925 15.8213C5.50278 16.9734 6.61817 17.6756 8.00779 17.6756H27.6366C28.8167 17.6756 29.4475 17.2825 30.0544 16.6754C30.6714 16.0583 30.9569 15.257 30.9569 14.0623V8.10529C30.9569 5.98594 29.6799 4.492 27.832 4.492C26.97 4.492 23.4991 4.31448 22.9445 4.68267C22.5277 4.9593 22.5065 5.6546 23.1525 5.94878C23.4139 6.06783 23.7395 6.05687 24.1207 6.05485C24.8102 6.05119 27.9439 5.96647 28.3572 6.11523C28.7896 6.27088 29.2968 6.78888 29.2968 7.32404V14.8435C29.2968 15.426 28.6471 16.1131 27.832 16.1131H7.61719C6.78644 16.1131 6.25 15.2007 6.25 14.2576V7.90998C6.25 5.87498 7.71994 6.0545 8.69139 6.05453C9.87757 6.05456 20.0763 6.1846 20.5976 5.94904C21.4722 5.55378 21.0469 4.49201 20.2148 4.49201H7.81248C6.10714 4.49201 4.68751 5.91167 4.68751 7.61701H4.6875Z" fill="#36D1C2"/>
<path fill-rule="evenodd" clip-rule="evenodd" d="M20.3124 42.9685V37.2068C20.3124 36.3063 20.9687 35.5467 21.8749 35.5467H27.7343C28.5792 35.5467 29.2968 36.1628 29.2968 37.0115V43.1638C29.2968 44.0126 28.5792 44.6287 27.7343 44.6287H21.8749C20.9687 44.6287 20.3124 43.8691 20.3124 42.9685V42.9685ZM18.7499 37.0115V43.1638C18.7499 44.2253 19.3505 44.975 19.9465 45.4829C21.1554 46.5132 24.945 46.1912 26.953 46.1912C29.4223 46.1912 30.9569 45.2029 30.9569 42.5779V37.5974C30.9569 36.3651 30.5716 35.4339 29.9091 34.8367C29.1806 34.1801 28.2954 33.9842 26.953 33.9842C24.945 33.9842 21.1554 33.6621 19.9465 34.6924C19.3505 35.2004 18.75 35.95 18.75 37.0115L18.7499 37.0115Z" fill="#36D1C2"/>
<path fill-rule="evenodd" clip-rule="evenodd" d="M20.3124 28.8086V23.1445C20.3124 22.0644 21.0664 21.4844 22.1679 21.4844H27.539C28.5702 21.4844 29.2968 22.1414 29.2968 22.8516V29.1015C29.2968 29.9353 28.6657 30.5664 27.8319 30.5664H21.6796C20.9695 30.5664 20.3124 29.8398 20.3124 28.8085V28.8086ZM18.7499 23.0469C18.7499 24.5971 18.526 29.4035 19.0429 30.3711C19.4245 31.0854 19.9404 31.5533 20.6706 31.8684C21.7182 32.3204 26.0502 32.1289 27.539 32.1289C29.6355 32.1289 30.9569 30.767 30.9569 28.5156V23.7305C30.9569 22.546 30.7629 21.8879 30.2757 21.1891C29.9277 20.6899 28.96 20.0195 28.1249 20.0195H21.6796C20.0932 20.0195 18.7499 21.4538 18.7499 23.0469V23.0469Z" fill="#36D1C2"/>
<path fill-rule="evenodd" clip-rule="evenodd" d="M13.6718 44.6289H7.91014C6.82999 44.6289 6.24998 43.875 6.24998 42.7735V37.4024C6.24998 36.3008 6.82999 35.5469 7.91014 35.5469H13.6718C14.2301 35.5469 14.7094 35.7965 14.9454 36.1288C15.2303 36.5302 15.332 36.9092 15.332 37.5977V42.5781C15.332 43.2666 15.2303 43.6456 14.9454 44.047C14.7094 44.3793 14.2301 44.6289 13.6718 44.6289V44.6289ZM4.6875 37.3047V42.8711C4.6875 44.1213 5.1323 44.7579 5.7837 45.3881C6.41812 46.0019 7.46769 46.1914 8.69137 46.1914C9.82593 46.1914 13.5473 46.2725 14.5164 46.0594C15.8222 45.7722 16.8945 44.5107 16.8945 42.8711V37.3047C16.8945 34.8758 15.1481 33.9844 12.8906 33.9844C11.756 33.9844 8.03467 33.9033 7.06557 34.1164C6.72149 34.1921 6.0519 34.5384 5.83262 34.7389C5.16311 35.3511 4.6875 36.0595 4.6875 37.3047V37.3047Z" fill="#36D1C2"/>
<path fill-rule="evenodd" clip-rule="evenodd" d="M6.24999 28.7109V23.3398C6.24999 22.1426 6.90821 21.4844 8.10544 21.4844C9.14961 21.4844 13.6077 21.3615 14.3179 21.6195C15.1173 21.9099 15.332 22.6629 15.332 23.5351V28.7109C15.332 29.7542 14.8067 30.5664 13.7695 30.5664H7.81247C6.77531 30.5664 6.24998 29.7542 6.24998 28.7109H6.24999ZM4.6875 23.2422V29.0039C4.6875 30.7935 6.18725 32.1289 8.00779 32.1289H13.3789C14.5638 32.1289 15.2875 31.8369 15.8942 31.2263C16.5569 30.5595 16.8945 29.9596 16.8945 28.8085V23.2422C16.8945 21.3832 15.4583 20.0195 14.0625 20.0195H7.51951C6.72086 20.0195 5.90475 20.584 5.49091 21.0183C5.00157 21.5317 4.6875 22.2685 4.6875 23.2422V23.2422Z" fill="#36D1C2"/>
<path fill-rule="evenodd" clip-rule="evenodd" d="M0 37.8907V45.8985C0 47.6149 0.91381 48.8251 2.18544 49.5724C2.51384 49.7654 3.31777 50 3.80858 50H23.2421C23.66 50 24.0233 49.699 24.0233 49.3164C24.0233 48.205 22.2328 48.5352 20.41 48.5352C15.983 48.5352 11.5559 48.5352 7.12886 48.5352C5.88523 48.5352 3.84405 48.6805 2.99398 48.2756C1.80263 47.708 1.55796 46.506 1.56239 45.215L1.56218 37.5004C1.46392 36.7103 0 36.5483 0 37.8907L0 37.8907Z" fill="#36D1C2"/>
<path fill-rule="evenodd" clip-rule="evenodd" d="M9.96088 24.0234V25.2929C8.63303 25.2929 7.71478 25.058 7.71478 26.1718C7.71478 26.3891 7.96983 26.6303 8.14798 26.7152C8.54387 26.9038 9.47935 26.8554 9.96087 26.8554C9.96087 27.5226 9.77344 29.1015 10.7421 29.1015C11.8186 29.1015 11.621 27.7803 11.621 26.8554C12.3507 26.8554 13.8671 27.0262 13.8671 26.0741C13.8671 25.0629 12.7302 25.2929 11.621 25.2929C11.621 24.2272 11.8299 23.0429 10.8233 23.001C10.2612 22.9776 9.96087 23.3632 9.96087 24.0234L9.96088 24.0234Z" fill="#36D1C2"/>
<path fill-rule="evenodd" clip-rule="evenodd" d="M8.39839 38.4766C8.39839 38.9289 8.66201 39.0848 8.91093 39.3312C9.17593 39.5936 9.37272 39.8414 9.66792 40.0391C9.35508 40.5063 8.39838 41.0588 8.39838 41.6992C8.39838 42.1171 8.69943 42.4805 9.08199 42.4805C9.81208 42.4805 10.335 41.5489 10.8398 41.2109C11.9121 42.8123 13.1835 42.7604 13.1835 41.6992C13.1835 41.2469 12.9199 41.091 12.671 40.8446C12.406 40.5822 12.2092 40.3344 11.914 40.1367C12.2268 39.6695 13.1835 39.117 13.1835 38.4766C13.1835 37.416 11.9101 37.3665 10.8398 38.9648C10.4141 38.6798 9.73808 37.6953 9.17964 37.6953C8.70728 37.6953 8.39839 38.0042 8.39839 38.4765V38.4766Z" fill="#36D1C2"/>
<path fill-rule="evenodd" clip-rule="evenodd" d="M21.0937 13.3789C21.0937 13.8098 21.0277 14.5508 21.9726 14.5508H26.5624C28.0084 14.5508 27.9027 12.9883 26.7578 12.9883H21.875C21.4312 12.9883 21.3656 13.1968 21.0937 13.3789L21.0937 13.3789Z" fill="#36D1C2"/>
<path fill-rule="evenodd" clip-rule="evenodd" d="M21.7773 25.6836C21.7773 26.4295 21.7672 26.8554 23.0468 26.8554C23.8597 26.8554 26.8048 26.938 27.4233 26.7397C28.1752 26.4987 28.0892 25.293 27.1484 25.293H22.5585C22.1148 25.293 22.0491 25.5015 21.7773 25.6836V25.6836Z" fill="#36D1C2"/>
<path fill-rule="evenodd" clip-rule="evenodd" d="M21.7773 41.4062C21.7773 41.9883 22.1714 42.1875 22.7538 42.1875H27.0507C28.1312 42.1875 28.2695 40.625 27.0507 40.625H22.7538C22.1714 40.625 21.7773 40.8242 21.7773 41.4062V41.4062Z" fill="#36D1C2"/>
<path fill-rule="evenodd" clip-rule="evenodd" d="M21.7773 38.7695C21.7773 39.3516 22.1714 39.5508 22.7538 39.5508H27.0507C28.2695 39.5508 28.1312 37.9883 27.0507 37.9883H22.7538C22.1714 37.9883 21.7773 38.1875 21.7773 38.7695V38.7695Z" fill="#36D1C2"/>
</g>
<defs>
<clipPath id="clip0_1599_3419">
<rect width="35.8397" height="50" fill="white"/>
</clipPath>
</defs>
</svg>
