<svg width="70" height="70" viewBox="0 0 70 70" fill="none" xmlns="http://www.w3.org/2000/svg">
<g clip-path="url(#clip0_1599_2140)">
<path d="M1.02539 6.33391V2.11914C1.02539 1.51512 1.51512 1.02539 2.11914 1.02539H19.0723C19.6763 1.02539 20.166 1.51512 20.166 2.11914V17.7051C20.166 18.3091 19.6763 18.7988 19.0723 18.7988H2.11914C1.51512 18.7988 1.02539 18.3091 1.02539 17.7051V11.2176" stroke="#617792" stroke-width="2" stroke-miterlimit="10" stroke-linecap="round" stroke-linejoin="round"/>
<path d="M5.81055 5.53711H11.2793" stroke="#617792" stroke-width="2" stroke-miterlimit="10" stroke-linecap="round" stroke-linejoin="round"/>
<path d="M5.81055 9.91211H15.3809" stroke="#617792" stroke-width="2" stroke-miterlimit="10" stroke-linecap="round" stroke-linejoin="round"/>
<path d="M5.81055 14.2871H15.3809" stroke="#617792" stroke-width="2" stroke-miterlimit="10" stroke-linecap="round" stroke-linejoin="round"/>
<path d="M43.4766 18.7988H26.5234C25.9194 18.7988 25.4297 18.3091 25.4297 17.7051V2.11914C25.4297 1.51512 25.9194 1.02539 26.5234 1.02539H43.4766C44.0806 1.02539 44.5703 1.51512 44.5703 2.11914V17.7051C44.5703 18.3091 44.0806 18.7988 43.4766 18.7988Z" stroke="#617792" stroke-width="2" stroke-miterlimit="10" stroke-linecap="round" stroke-linejoin="round"/>
<path d="M30.2148 5.53711H35.6836" stroke="#617792" stroke-width="2" stroke-miterlimit="10" stroke-linecap="round" stroke-linejoin="round"/>
<path d="M30.2148 9.91211H39.7852" stroke="#617792" stroke-width="2" stroke-miterlimit="10" stroke-linecap="round" stroke-linejoin="round"/>
<path d="M30.2148 14.2871H39.7852" stroke="#617792" stroke-width="2" stroke-miterlimit="10" stroke-linecap="round" stroke-linejoin="round"/>
<path d="M67.8809 18.7988H50.9277C50.3237 18.7988 49.834 18.3091 49.834 17.7051V2.11914C49.834 1.51512 50.3237 1.02539 50.9277 1.02539H67.8809C68.4849 1.02539 68.9746 1.51512 68.9746 2.11914V17.7051C68.9746 18.3091 68.4849 18.7988 67.8809 18.7988Z" stroke="#617792" stroke-width="2" stroke-miterlimit="10" stroke-linecap="round" stroke-linejoin="round"/>
<path d="M54.6191 5.53711H60.0879" stroke="#617792" stroke-width="2" stroke-miterlimit="10" stroke-linecap="round" stroke-linejoin="round"/>
<path d="M54.6191 9.91211H64.1895" stroke="#617792" stroke-width="2" stroke-miterlimit="10" stroke-linecap="round" stroke-linejoin="round"/>
<path d="M54.6191 14.2871H64.1895" stroke="#617792" stroke-width="2" stroke-miterlimit="10" stroke-linecap="round" stroke-linejoin="round"/>
<path d="M32.2656 36.7234L35 38.7742L37.7344 36.7234" stroke="#617792" stroke-width="2" stroke-miterlimit="10" stroke-linecap="round" stroke-linejoin="round"/>
<path d="M35 38.3544V24.4727" stroke="#617792" stroke-width="2" stroke-miterlimit="10" stroke-linecap="round" stroke-linejoin="round"/>
<path d="M25.5576 36.7234L22.8232 38.7742L20.0889 36.7234" stroke="#617792" stroke-width="2" stroke-miterlimit="10" stroke-linecap="round" stroke-linejoin="round"/>
<path d="M22.8232 38.1827C22.8232 38.1827 23.5244 32.0605 17.9189 30.5566C13.8885 29.4753 11.7666 26.8652 11.083 23.9941" stroke="#617792" stroke-width="2" stroke-miterlimit="10" stroke-linecap="round" stroke-linejoin="round"/>
<path d="M44.4424 36.7234L47.1768 38.7742L49.9111 36.7234" stroke="#617792" stroke-width="2" stroke-miterlimit="10" stroke-linecap="round" stroke-linejoin="round"/>
<path d="M47.1765 38.1827C47.1765 38.1827 46.4753 32.0605 52.0808 30.5566C56.1112 29.4753 58.2331 26.8652 58.9167 23.9941" stroke="#617792" stroke-width="2" stroke-miterlimit="10" stroke-linecap="round" stroke-linejoin="round"/>
<path d="M39.1028 57.3535H30.8972L21.1914 48.0566H48.8086L39.1028 57.3535Z" stroke="#617792" stroke-width="2" stroke-miterlimit="10" stroke-linecap="round" stroke-linejoin="round"/>
<path d="M37.8777 68.9746H32.1223C31.4464 68.9746 30.8984 68.4266 30.8984 67.7507V57.3535H39.1016V67.7507C39.1016 68.4266 38.5536 68.9746 37.8777 68.9746Z" stroke="#617792" stroke-width="2" stroke-miterlimit="10" stroke-linecap="round" stroke-linejoin="round"/>
<path d="M45.4549 43.9551H51.1328C52.2654 43.9551 53.1836 44.8733 53.1836 46.0059C53.1836 47.1384 52.2654 48.0566 51.1328 48.0566H18.8672C17.7346 48.0566 16.8164 47.1384 16.8164 46.0059C16.8164 44.8733 17.7346 43.9551 18.8672 43.9551H40.5203" stroke="#617792" stroke-width="2" stroke-miterlimit="10" stroke-linecap="round" stroke-linejoin="round"/>
</g>
<defs>
<clipPath id="clip0_1599_2140">
<rect width="70" height="70" fill="white"/>
</clipPath>
</defs>
</svg>
