<svg width="70" height="70" viewBox="0 0 70 70" fill="none" xmlns="http://www.w3.org/2000/svg">
<path d="M54.8757 12.4304C56.5621 12.4304 57.9409 11.0516 57.9409 9.3652C57.9409 7.67884 56.5621 6.30005 54.8757 6.30005C53.1893 6.30005 51.8105 7.67884 51.8105 9.3652C51.8105 11.0516 53.1893 12.4304 54.8757 12.4304ZM54.8757 8.08187C55.5757 8.08187 56.1484 8.65459 56.1484 9.35459C56.1484 10.0546 55.5757 10.6273 54.8757 10.6273C54.1757 10.6273 53.603 10.0546 53.603 9.35459C53.603 8.65459 54.1757 8.08187 54.8757 8.08187Z" fill="#617792"/>
<path d="M47.4519 12.4304C49.1382 12.4304 50.517 11.0516 50.517 9.3652C50.517 7.67884 49.1382 6.30005 47.4519 6.30005C45.7655 6.30005 44.3867 7.67884 44.3867 9.3652C44.3867 11.0516 45.7549 12.4304 47.4519 12.4304ZM47.4519 8.08187C48.1519 8.08187 48.7246 8.65459 48.7246 9.35459C48.7246 10.0546 48.1519 10.6273 47.4519 10.6273C46.7519 10.6273 46.1791 10.0546 46.1791 9.35459C46.1791 8.65459 46.7413 8.08187 47.4519 8.08187Z" fill="#617792"/>
<path d="M40.0173 12.4304C41.7037 12.4304 43.0825 11.0516 43.0825 9.3652C43.0825 7.67884 41.7037 6.30005 40.0173 6.30005C38.3309 6.30005 36.9521 7.67884 36.9521 9.3652C36.9521 11.0516 38.3309 12.4304 40.0173 12.4304ZM40.0173 8.08187C40.7173 8.08187 41.29 8.65459 41.29 9.35459C41.29 10.0546 40.7173 10.6273 40.0173 10.6273C39.3173 10.6273 38.7446 10.0546 38.7446 9.35459C38.7446 8.65459 39.3173 8.08187 40.0173 8.08187Z" fill="#617792"/>
<path d="M8.75028 10.2561H31.8397C32.3382 10.2561 32.7306 9.85303 32.7306 9.36515C32.7306 8.86667 32.3276 8.47424 31.8397 8.47424H8.75028C8.2518 8.47424 7.85938 8.87727 7.85938 9.36515C7.85938 9.85303 8.2518 10.2561 8.75028 10.2561Z" fill="#617792"/>
<path d="M33.6955 30.588H55.3319C56.1697 30.588 56.8485 29.9092 56.8485 29.0713V21.1168C56.8485 20.2789 56.1697 19.5895 55.3319 19.5895H33.6955C32.8576 19.5895 32.1788 20.2683 32.1788 21.1168V29.0713C32.1682 29.9092 32.847 30.588 33.6955 30.588ZM33.9607 21.3713H55.0667V28.7955H33.9607V21.3713Z" fill="#617792"/>
<path d="M51.7682 33.7804H38.7864C38.2879 33.7804 37.8955 34.1834 37.8955 34.6713C37.8955 35.1592 38.2985 35.5622 38.7864 35.5622H51.7788C52.2773 35.5622 52.6698 35.1592 52.6698 34.6713C52.6698 34.1834 52.2667 33.7804 51.7682 33.7804Z" fill="#617792"/>
<path d="M46.7947 38.6697H33.0599C32.5614 38.6697 32.1689 39.0727 32.1689 39.5606C32.1689 40.0485 32.572 40.4515 33.0599 40.4515H46.7947C47.2932 40.4515 47.6856 40.0485 47.6856 39.5606C47.6856 39.0727 47.2932 38.6697 46.7947 38.6697Z" fill="#617792"/>
<path d="M33.0599 45.3515H45.8614C46.3599 45.3515 46.7523 44.9485 46.7523 44.4606C46.7523 43.9727 46.3493 43.5697 45.8614 43.5697H33.0599C32.5614 43.5697 32.1689 43.9727 32.1689 44.4606C32.1689 44.9485 32.572 45.3515 33.0599 45.3515Z" fill="#617792"/>
<path d="M46.1796 48.4485H33.0599C32.5614 48.4485 32.1689 48.8515 32.1689 49.3394C32.1689 49.8273 32.572 50.2303 33.0599 50.2303H46.1689C46.6674 50.2303 47.0599 49.8273 47.0599 49.3394C47.0599 48.8515 46.6674 48.4485 46.1796 48.4485Z" fill="#617792"/>
<path d="M23.1428 53.9212L17.967 50.2091C17.4155 49.8061 16.6837 49.7531 16.0791 50.0712C15.4746 50.3788 15.0928 51.0046 15.0928 51.6834V59.1076C15.0928 59.797 15.4746 60.4121 16.0791 60.7197C16.3443 60.8576 16.6307 60.9212 16.9064 60.9212C17.2776 60.9212 17.6488 60.8046 17.967 60.5818L23.1428 56.8697C23.62 56.5303 23.8958 55.9788 23.8958 55.3955C23.8958 54.8121 23.62 54.2606 23.1428 53.9212ZM22.1034 55.4167L16.8852 59.1076L16.9276 51.6621L22.114 55.3955C22.114 55.4061 22.1034 55.4061 22.1034 55.4167Z" fill="#617792"/>
<path d="M68.6216 30.344C68.4307 29.1773 67.805 28.1697 66.8716 27.4803C66.161 26.9606 65.3338 26.6743 64.4747 26.6425V5.96064C64.4747 4.21064 63.0534 2.78943 61.3034 2.78943H4.49738C2.74738 2.78943 1.32617 4.21064 1.32617 5.96064V52.9985C1.32617 54.7485 2.74738 56.1697 4.49738 56.1697H7.12769C7.53072 62.3212 12.6428 67.2106 18.9004 67.2106C25.1474 67.2106 30.2701 62.3212 30.6625 56.1697H61.3034C63.0534 56.1697 64.4747 54.7485 64.4747 52.9985V38.2243L67.8368 33.6212C68.5156 32.6773 68.8019 31.5212 68.6216 30.344ZM66.8504 30.6197C66.9565 31.3197 66.7868 32.0091 66.3838 32.5606L65.8428 33.2925L61.6216 30.2167L62.1625 29.4849C62.5762 28.9228 63.1807 28.5622 63.8595 28.4455C63.9974 28.4243 64.1353 28.4137 64.2731 28.4137C64.8247 28.4137 65.355 28.5834 65.811 28.9122C66.3731 29.3364 66.7444 29.9409 66.8504 30.6197ZM57.008 45.4258L52.7974 42.35L60.5822 31.6697L64.7928 34.7455L57.008 45.4258ZM51.6307 44.6834C51.6625 44.397 51.7368 44.1212 51.8428 43.8561L55.8625 46.7834C55.6398 46.9637 55.4065 47.1122 55.1413 47.2288L51.111 49.0743L51.6307 44.6834ZM4.49738 4.58185H61.3034C62.0671 4.58185 62.6822 5.197 62.6822 5.96064V14.1379H3.1186V5.96064C3.1186 5.20761 3.73375 4.58185 4.49738 4.58185ZM18.9004 65.4182C13.3747 65.4182 8.87769 60.9213 8.87769 55.4061C8.87769 49.8803 13.3747 45.3834 18.9004 45.3834C24.4262 45.3834 28.9125 49.8803 28.9125 55.4061C28.9125 60.9213 24.4262 65.4182 18.9004 65.4182ZM62.6822 52.9985C62.6822 53.7622 62.0671 54.3773 61.3034 54.3773H30.6519C30.1322 48.3425 25.0625 43.5909 18.9004 43.5909C12.7277 43.5909 7.65799 48.3425 7.13829 54.3773H4.49738C3.73375 54.3773 3.1186 53.7622 3.1186 52.9985V15.9303H62.6822V26.9394C61.908 27.2364 61.2186 27.7455 60.7201 28.4349L50.8141 42.0212C50.8034 42.0425 50.7928 42.0637 50.7716 42.0849C50.7716 42.0849 50.7716 42.0849 50.761 42.0955V42.1061C50.2625 42.8167 49.9444 43.6334 49.8383 44.4925L49.2231 49.6364C49.1595 50.1243 49.3822 50.6122 49.7747 50.9091C50.0186 51.0788 50.2944 51.1743 50.5807 51.1743C50.7716 51.1743 50.9731 51.1319 51.1534 51.047L55.8625 48.894C56.6686 48.5228 57.3792 47.95 57.8989 47.2288L62.661 40.7061V52.9985H62.6822Z" fill="#617792"/>
<path d="M26.8228 31.5955L25.8682 30.9804C25.9425 30.1001 25.8894 29.2304 25.7197 28.3713L26.5894 27.6607C27.0985 27.247 27.247 26.547 26.9712 25.9637L26.3455 24.6804C26.0591 24.097 25.4122 23.7895 24.7864 23.9273L23.6834 24.1713C23.1212 23.5031 22.4637 22.9198 21.7318 22.4319L21.8379 21.297C21.9015 20.6501 21.5197 20.0455 20.9046 19.8334L19.547 19.3561C18.9318 19.144 18.2531 19.3773 17.9031 19.9289L17.2985 20.8834C16.4182 20.8092 15.5485 20.8622 14.6894 21.0319L13.9682 20.1516C13.5546 19.6531 12.8546 19.494 12.2712 19.7804L10.9773 20.4061C10.394 20.6925 10.0758 21.3289 10.2137 21.9652L10.4576 23.0683C9.78942 23.6304 9.20609 24.288 8.71821 25.0198L7.59397 24.9031C6.947 24.8395 6.34246 25.2213 6.13033 25.8364L5.66367 27.194C5.45155 27.8092 5.68488 28.4773 6.22579 28.8273L7.18033 29.4425C7.10609 30.3228 7.15912 31.1925 7.32882 32.0516L6.45912 32.7622C5.95003 33.1758 5.80155 33.8758 6.0773 34.4592L6.70306 35.7425C6.98942 36.3258 7.62579 36.644 8.26215 36.5061L9.36518 36.2622C9.9273 36.9304 10.5849 37.5137 11.3167 38.0016L11.2106 39.1364C11.147 39.7834 11.5288 40.3773 12.144 40.6001L13.5015 41.0667C13.65 41.1198 13.8091 41.141 13.9682 41.141C14.4349 41.141 14.8803 40.9077 15.1455 40.494L15.75 39.5395C16.6197 39.6137 17.5 39.5607 18.3591 39.391L19.0803 40.2713C19.494 40.7698 20.194 40.9289 20.7773 40.6425L22.0712 40.0167C22.6546 39.7304 22.9728 39.094 22.8349 38.4576L22.5909 37.3546C23.2591 36.7925 23.8425 36.1349 24.3197 35.4031L25.4546 35.5198C26.1122 35.5728 26.7061 35.2016 26.9182 34.5864L27.3849 33.2289C27.597 32.6137 27.3637 31.9455 26.8228 31.5955ZM25.3273 33.7061L23.9485 33.5683C23.5985 33.5364 23.2591 33.7061 23.0788 34.0137C22.5591 34.9046 21.8803 35.6789 21.0637 36.2834C20.7773 36.4955 20.65 36.8455 20.7243 37.1955L21.0212 38.5531L20.2788 38.9137L19.3985 37.8425C19.1758 37.5667 18.8152 37.4501 18.4758 37.5455C17.4894 37.8107 16.4712 37.8743 15.4425 37.7152C15.0925 37.6622 14.7425 37.8213 14.5622 38.1183L13.8197 39.2849L13.0455 39.0092L13.1834 37.6304C13.2152 37.2804 13.0455 36.941 12.7379 36.7713C11.8364 36.2516 11.0728 35.5728 10.4682 34.7455C10.2561 34.4592 9.89549 34.3319 9.55609 34.4061L8.20912 34.7031L7.84852 33.9713L8.91973 33.1016C9.19549 32.8789 9.31215 32.5183 9.2167 32.1789C8.95155 31.1819 8.88791 30.1637 9.047 29.1455C9.10003 28.7955 8.94094 28.4561 8.64397 28.2652L7.4773 27.5122L7.74246 26.738L9.12124 26.8758C9.48185 26.9183 9.81064 26.738 9.99094 26.4304C10.5106 25.5395 11.1894 24.7758 12.0061 24.1607C12.2925 23.9486 12.4197 23.5986 12.3455 23.2486L12.0485 21.891L12.7909 21.5304L13.6712 22.6016C13.894 22.8773 14.2546 22.994 14.594 22.8986C15.5803 22.6334 16.6091 22.5698 17.6273 22.7289C17.9773 22.7819 18.3273 22.6228 18.5076 22.3258L19.25 21.1592L20.0243 21.4349L19.8864 22.8137C19.8546 23.1637 20.0243 23.5031 20.3318 23.6728C21.2334 24.1925 21.997 24.8713 22.6015 25.6986C22.8137 25.9849 23.1637 26.1122 23.5137 26.038L24.8606 25.741L25.2106 26.4728L24.1394 27.3425C23.8637 27.5652 23.747 27.9258 23.8425 28.2652C24.1076 29.2622 24.1712 30.2804 24.0122 31.2986C23.9591 31.6486 24.1182 31.988 24.4152 32.1789L25.5818 32.9319L25.3273 33.7061Z" fill="#617792"/>
<path d="M18.0097 25.9425C16.8748 25.5501 15.6445 25.6137 14.5627 26.144C13.4809 26.6637 12.6642 27.5864 12.2612 28.7213C11.8688 29.8561 11.9324 31.0864 12.4627 32.1682C13.237 33.7804 14.8491 34.7137 16.5354 34.7137C17.193 34.7137 17.8612 34.5652 18.487 34.2682C20.7248 33.1864 21.6688 30.4819 20.587 28.244C20.0673 27.1516 19.1445 26.3455 18.0097 25.9425ZM17.7127 32.6561C16.3657 33.3137 14.7324 32.741 14.0748 31.394C13.7567 30.7364 13.7142 30.0046 13.9582 29.3152C14.2021 28.6258 14.69 28.0743 15.3476 27.7561C15.7188 27.5758 16.1218 27.4804 16.5354 27.4804C16.8324 27.4804 17.14 27.5334 17.4264 27.6288C18.1157 27.8622 18.6673 28.3607 18.9748 29.0076C19.6324 30.3652 19.0597 31.9985 17.7127 32.6561Z" fill="#617792"/>
</svg>
