<svg width="70" height="70" viewBox="0 0 70 70" fill="none" xmlns="http://www.w3.org/2000/svg">
<g clip-path="url(#clip0_1599_2078)">
<path d="M38.4216 24.0295C31.4475 16.358 19.7078 15.8932 12.1526 22.7509C11.8041 23.0999 11.3393 23.4484 10.9902 23.9132L10.5254 24.7271L11.1066 25.4246L11.2229 25.5404C18.0806 33.0956 29.8203 33.561 37.3756 26.7027C37.724 26.3542 38.1889 26.0057 38.5379 25.5404L39.1191 24.7271L38.4216 24.0295ZM22.3815 24.7271C22.3815 23.4484 23.4275 22.4024 24.7062 22.4024C25.9843 22.4024 27.0308 23.4484 27.0308 24.7271C27.0308 26.0057 25.9843 27.0517 24.7062 27.0517C23.4275 27.0517 22.3815 26.0057 22.3815 24.7271ZM23.1948 20.3098C20.7538 21.1237 19.4756 23.6811 20.1726 26.1215C20.638 27.5166 21.684 28.6789 23.1948 29.1437C19.5914 28.7953 16.1044 27.2839 13.4312 24.7271C16.2207 22.1697 19.5914 20.6589 23.1948 20.3098ZM26.217 29.1437C28.658 28.3304 29.9367 25.7731 29.2392 23.332C28.7744 21.9376 27.7278 20.7752 26.217 20.3098C29.8203 20.6589 33.3074 22.1697 35.9805 24.7271C33.191 27.2839 29.8203 28.7953 26.217 29.1437Z" fill="#617792"/>
<path d="M24.7061 4.96729C13.7796 4.96729 4.94629 13.8012 4.94629 24.7271C4.94629 35.6529 13.7796 44.4868 24.7061 44.4868C35.632 44.4868 44.4659 35.6529 44.4659 24.7271C44.4659 13.8012 35.632 4.96729 24.7061 4.96729ZM24.7061 42.1622C15.0583 42.1622 7.27097 34.3743 7.27097 24.7271C7.27097 15.0793 15.0583 7.29197 24.7061 7.29197C34.3533 7.29197 42.1412 15.0793 42.1412 24.7271C42.1412 34.3743 34.3533 42.1622 24.7061 42.1622Z" fill="#617792"/>
<path d="M64.2254 50.2986V11.9413C64.2254 8.68645 61.668 6.12964 58.4137 6.12964H45.6279V8.45432H58.4137C60.3893 8.45432 61.9007 9.96513 61.9007 11.9413V50.2986H64.2254Z" fill="#617792"/>
<path d="M6.1084 46.8115V58.4349C6.1084 61.6893 8.66521 64.2466 11.9201 64.2466H52.602V61.9219H11.9201C9.94389 61.9219 8.43308 60.4106 8.43308 58.4349V46.8115H6.1084Z" fill="#617792"/>
<path d="M49.1152 11.9412H59.5763V14.2658H49.1152V11.9412Z" fill="#617792"/>
<path d="M51.4395 17.7529H59.5758V20.0776H51.4395V17.7529Z" fill="#617792"/>
<path d="M51.4395 23.5647H59.5758V25.8894H51.4395V23.5647Z" fill="#617792"/>
<path d="M51.4395 29.3762H59.5758V31.7009H51.4395V29.3762Z" fill="#617792"/>
<path d="M51.4395 35.188H59.5758V37.5127H51.4395V35.188Z" fill="#617792"/>
<path d="M52.6016 40.9998H59.5756V43.3244H52.6016V40.9998Z" fill="#617792"/>
<path d="M10.7578 51.4607H42.141V53.7854H10.7578V51.4607Z" fill="#617792"/>
<path d="M10.7578 56.1101H46.7904V58.4348H10.7578V56.1101Z" fill="#617792"/>
<path d="M16.5693 34.0256H32.8421V36.3503H16.5693V34.0256Z" fill="#617792"/>
<path d="M16.5693 13.1035H32.8421V15.4282H16.5693V13.1035Z" fill="#617792"/>
<path d="M56.4374 49.0198C55.7399 48.3223 54.9266 47.9738 53.9964 47.9738H53.1831L44.814 38.5588C52.4856 27.4002 49.8118 12.1734 38.6538 4.38608C27.4952 -3.40183 12.1521 -0.49598 4.48057 10.5463C-3.19042 21.5885 -0.517269 36.9316 10.6413 44.7189C19.4752 50.8797 31.3307 50.5306 39.8162 43.7893L47.9525 52.9717V53.9019C47.9525 54.8315 48.301 55.7612 48.9985 56.3423L61.0868 68.4311C63.1787 70.5231 66.4336 70.5231 68.5256 68.4311C70.6182 66.3386 70.6182 63.0843 68.5256 60.9917L56.4374 49.0198ZM2.62128 24.727C2.62128 12.5225 12.5012 2.64256 24.7057 2.64256C36.9103 2.64256 46.7902 12.5225 46.7902 24.727C46.7902 36.9316 36.9103 46.8115 24.7057 46.8115C12.5012 46.8115 2.62128 36.9316 2.62128 24.727ZM41.5597 42.3943C42.1408 41.8131 42.8378 41.1161 43.3032 40.535L50.9742 49.1362L49.1149 50.8797L41.5597 42.3943ZM64.8065 67.7336C63.9926 67.7336 63.2951 67.3846 62.7139 66.9197L50.6257 54.8315C50.393 54.5988 50.2772 54.3667 50.2772 54.0177V53.088L53.0667 50.2985H53.9964C54.3454 50.2985 54.5775 50.4149 54.8102 50.647L66.8985 62.7352C68.0608 63.8976 68.0608 65.7574 66.8985 66.9197C66.3173 67.3846 65.5034 67.7336 64.8065 67.7336Z" fill="#617792"/>
</g>
<defs>
<clipPath id="clip0_1599_2078">
<rect width="70" height="70" fill="white"/>
</clipPath>
</defs>
</svg>
