<svg width="70" height="70" viewBox="0 0 70 70" fill="none" xmlns="http://www.w3.org/2000/svg">
<path d="M42.9998 28.9005C43.0801 28.9229 43.1629 28.9334 43.2441 28.9334C43.5311 28.9334 43.8092 28.8004 43.988 28.5638L45.3742 26.734L45.8432 26.569C45.9771 27.1472 46.1318 27.7196 46.3122 28.284C46.4352 28.6709 46.7952 28.9334 47.201 28.9334H48.0666V58.8001C48.0666 59.3155 48.4841 59.7334 49 59.7334C49.5159 59.7334 49.9333 59.3155 49.9333 58.8001V28.9334H53.6666V58.8001C53.6666 59.3155 54.0841 59.7334 54.6 59.7334C55.1159 59.7334 55.5333 59.3155 55.5333 58.8001V28.9334H56.3992C56.8047 28.9334 57.1648 28.6709 57.288 28.284C57.4683 27.7198 57.623 27.1472 57.757 26.569L58.226 26.734L59.6122 28.5638C59.7909 28.8004 60.0688 28.9334 60.3561 28.9334C60.4373 28.9334 60.5201 28.9229 60.6004 28.9005C60.9686 28.8006 61.2383 28.4875 61.2831 28.1097L62.0606 21.5391C62.1098 21.1184 61.8711 20.7175 61.4772 20.5616L58.2232 19.2734C57.7469 14.3396 55.7011 9.87519 52.4416 6.78912C52.0825 6.44822 51.5174 6.44822 51.1583 6.78912C47.8989 9.87519 45.853 14.3396 45.3768 19.2734L42.1229 20.5616C41.7291 20.7175 41.4904 21.1186 41.5396 21.5391L42.3171 28.1097C42.3619 28.4877 42.6316 28.8009 42.9998 28.9005ZM60.1225 22.0328L59.7013 25.5907L59.5436 25.3828C59.4332 25.2369 59.282 25.1266 59.1098 25.0661L58.0986 24.7103C58.2495 23.6549 58.3333 22.5849 58.3333 21.5029C58.3333 21.4418 58.3254 21.3823 58.3249 21.3211L60.1225 22.0328ZM51.8 8.79066C54.7759 11.9757 56.4666 16.5532 56.4666 21.5027C56.4666 23.4071 56.2104 25.2757 55.7055 27.0667H52.7333V24.2667C52.7333 23.7513 52.3159 23.3334 51.8 23.3334C51.2841 23.3334 50.8666 23.7513 50.8666 24.2667V27.0667H47.8944C47.3895 25.2757 47.1333 23.4071 47.1333 21.5027C47.1333 16.553 48.824 11.9757 51.8 8.79066ZM45.275 21.3211C45.2746 21.3823 45.2666 21.4415 45.2666 21.5029C45.2666 22.5849 45.3504 23.6552 45.5014 24.7103L44.4901 25.0661C44.3179 25.1268 44.1665 25.2369 44.0563 25.3828L43.8986 25.5907L43.4774 22.0328L45.275 21.3211Z" fill="#617792"/>
<path d="M51.7997 21.4667C53.8587 21.4667 55.5331 19.7918 55.5331 17.7333C55.5331 15.6749 53.8587 14 51.7997 14C49.7408 14 48.0664 15.6749 48.0664 17.7333C48.0664 19.7918 49.7408 21.4667 51.7997 21.4667ZM51.7997 15.8667C52.8287 15.8667 53.6664 16.7039 53.6664 17.7333C53.6664 18.7628 52.8287 19.6 51.7997 19.6C50.7707 19.6 49.9331 18.7628 49.9331 17.7333C49.9331 16.7039 50.7707 15.8667 51.7997 15.8667Z" fill="#617792"/>
<path d="M26.4874 25.313C26.6696 25.4952 26.9086 25.5865 27.1473 25.5865C27.386 25.5865 27.6249 25.4952 27.8071 25.313L28.467 24.6531L29.1269 25.313C29.3091 25.4952 29.548 25.5865 29.7867 25.5865C30.0254 25.5865 30.2644 25.4952 30.4466 25.313C30.8111 24.9485 30.8111 24.3577 30.4466 23.9933L29.7867 23.3334L30.4466 22.6735C30.8111 22.3091 30.8111 21.7183 30.4466 21.3538C30.0821 20.9893 29.4913 20.9893 29.1269 21.3538L28.467 22.0137L27.8071 21.3538C27.4427 20.9893 26.8519 20.9893 26.4874 21.3538C26.1229 21.7183 26.1229 22.3091 26.4874 22.6735L27.1473 23.3334L26.4874 23.9933C26.1227 24.358 26.1227 24.9485 26.4874 25.313Z" fill="#617792"/>
<path d="M17.2663 32.6667C17.7818 32.6667 18.1997 32.2488 18.1997 31.7334C18.1997 31.2179 17.7818 30.8 17.2663 30.8C16.7509 30.8 16.333 31.2179 16.333 31.7334C16.333 32.2488 16.7509 32.6667 17.2663 32.6667Z" fill="#617792"/>
<path d="M14.4665 40.1334C14.982 40.1334 15.3999 39.7155 15.3999 39.2001C15.3999 38.6846 14.982 38.2667 14.4665 38.2667C13.9511 38.2667 13.5332 38.6846 13.5332 39.2001C13.5332 39.7155 13.9511 40.1334 14.4665 40.1334Z" fill="#617792"/>
<path d="M27.5332 39.2001V58.8001C27.5332 59.3155 27.9506 59.7334 28.4665 59.7334C28.9824 59.7334 29.3999 59.3155 29.3999 58.8001V40.1334H33.1332V58.8001C33.1332 59.3155 33.5506 59.7334 34.0665 59.7334C34.5824 59.7334 34.9999 59.3155 34.9999 58.8001V39.2001C34.9999 38.6846 34.5824 38.2667 34.0665 38.2667H28.4665C27.9506 38.2667 27.5332 38.6846 27.5332 39.2001Z" fill="#617792"/>
<path d="M17.2666 44.8V58.8C17.2666 59.3155 17.684 59.7334 18.1999 59.7334C18.7158 59.7334 19.1333 59.3155 19.1333 58.8V45.7334H22.8666V58.8C22.8666 59.3155 23.284 59.7334 23.7999 59.7334C24.3158 59.7334 24.7333 59.3155 24.7333 58.8V44.8C24.7333 44.2846 24.3158 43.8667 23.7999 43.8667H18.1999C17.684 43.8667 17.2666 44.2846 17.2666 44.8Z" fill="#617792"/>
<path d="M38.7331 59.7334C39.249 59.7334 39.6665 59.3155 39.6665 58.8001V34.5334H43.3998V58.8001C43.3998 59.3155 43.8172 59.7334 44.3331 59.7334C44.849 59.7334 45.2665 59.3155 45.2665 58.8001V33.6001C45.2665 33.0846 44.849 32.6667 44.3331 32.6667H38.7331C38.2172 32.6667 37.7998 33.0846 37.7998 33.6001V58.8001C37.7998 59.3155 38.2172 59.7334 38.7331 59.7334Z" fill="#617792"/>
<path d="M62.0667 61.6001H7.93333C7.41743 61.6001 7 62.018 7 62.5334C7 63.0489 7.41743 63.4668 7.93333 63.4668H62.0667C62.5826 63.4668 63 63.0489 63 62.5334C63 62.018 62.5826 61.6001 62.0667 61.6001Z" fill="#617792"/>
<path d="M17.7335 19.6001C19.5346 19.6001 21.0001 18.1345 21.0001 16.3334C21.0001 14.5323 19.5346 13.0668 17.7335 13.0668C15.9324 13.0668 14.4668 14.5323 14.4668 16.3334C14.4668 18.1345 15.9324 19.6001 17.7335 19.6001ZM17.7335 14.9334C18.5056 14.9334 19.1335 15.5613 19.1335 16.3334C19.1335 17.1055 18.5056 17.7334 17.7335 17.7334C16.9614 17.7334 16.3335 17.1055 16.3335 16.3334C16.3335 15.5613 16.9614 14.9334 17.7335 14.9334Z" fill="#617792"/>
</svg>
