<svg width="70" height="70" viewBox="0 0 70 70" fill="none" xmlns="http://www.w3.org/2000/svg">
<path d="M35 53.5938C33.2694 53.5938 31.5777 53.0806 30.1388 52.1191C28.6998 51.1576 27.5783 49.7911 26.9161 48.1922C26.2538 46.5934 26.0805 44.834 26.4181 43.1367C26.7558 41.4394 27.5891 39.8803 28.8128 38.6566C30.0365 37.4329 31.5956 36.5995 33.293 36.2619C34.9903 35.9243 36.7496 36.0975 38.3485 36.7598C39.9473 37.4221 41.3139 38.5436 42.2754 39.9825C43.2368 41.4214 43.75 43.1132 43.75 44.8438C43.7474 47.1636 42.8247 49.3877 41.1843 51.0281C39.5439 52.6684 37.3198 53.5911 35 53.5938ZM35 38.2813C33.7021 38.2813 32.4333 38.6661 31.3541 39.3872C30.2749 40.1083 29.4337 41.1333 28.937 42.3324C28.4403 43.5315 28.3104 44.851 28.5636 46.124C28.8168 47.397 29.4418 48.5664 30.3596 49.4841C31.2774 50.4019 32.4467 51.0269 33.7197 51.2802C34.9927 51.5334 36.3122 51.4034 37.5114 50.9067C38.7105 50.41 39.7354 49.5689 40.4565 48.4897C41.1776 47.4105 41.5625 46.1417 41.5625 44.8438C41.5608 43.1038 40.8688 41.4356 39.6385 40.2053C38.4081 38.975 36.74 38.283 35 38.2813Z" fill="#617792"/>
<path d="M48.125 67.8125C47.8349 67.8125 47.5567 67.6973 47.3516 67.4921C47.1465 67.287 47.0312 67.0088 47.0312 66.7188V60.1562C47.0312 59.0428 42.7842 56.875 35 56.875C27.2158 56.875 22.9688 59.0428 22.9688 60.1562V66.7188C22.9688 67.0088 22.8535 67.287 22.6484 67.4921C22.4433 67.6973 22.1651 67.8125 21.875 67.8125C21.5849 67.8125 21.3067 67.6973 21.1016 67.4921C20.8965 67.287 20.7812 67.0088 20.7812 66.7188V60.1562C20.7812 56.5655 27.9344 54.6875 35 54.6875C42.0656 54.6875 49.2188 56.5655 49.2188 60.1562V66.7188C49.2188 67.0088 49.1035 67.287 48.8984 67.4921C48.6933 67.6973 48.4151 67.8125 48.125 67.8125Z" fill="#617792"/>
<path d="M53.5938 48.125C51.8632 48.125 50.1714 47.6118 48.7325 46.6504C47.2936 45.6889 46.1721 44.3223 45.5098 42.7235C44.8475 41.1246 44.6743 39.3653 45.0119 37.668C45.3495 35.9706 46.1829 34.4115 47.4066 33.1878C48.6303 31.9641 50.1894 31.1307 51.8867 30.7931C53.584 30.4555 55.3434 30.6288 56.9422 31.2911C58.5411 31.9533 59.9077 33.0748 60.8691 34.5138C61.8306 35.9527 62.3438 37.6444 62.3438 39.375C62.3411 41.6948 61.4184 43.9189 59.7781 45.5593C58.1377 47.1997 55.9136 48.1224 53.5938 48.125ZM53.5938 32.8125C52.2958 32.8125 51.027 33.1974 49.9478 33.9185C48.8686 34.6396 48.0275 35.6645 47.5308 36.8636C47.0341 38.0628 46.9041 39.3823 47.1574 40.6553C47.4106 41.9283 48.0356 43.0976 48.9534 44.0154C49.8711 44.9332 51.0405 45.5582 52.3135 45.8114C53.5865 46.0646 54.906 45.9347 56.1051 45.438C57.3043 44.9413 58.3292 44.1001 59.0503 43.0209C59.7714 41.9417 60.1563 40.6729 60.1563 39.375C60.1545 37.6351 59.4626 35.9669 58.2322 34.7365C57.0019 33.5062 55.3337 32.8142 53.5938 32.8125Z" fill="#617792"/>
<path d="M66.7192 62.3438C66.4291 62.3438 66.1509 62.2285 65.9458 62.0234C65.7407 61.8183 65.6254 61.5401 65.6254 61.25V54.6875C65.6254 53.5741 61.3784 51.4062 53.5942 51.4062C49.1098 51.4062 44.9535 52.1883 42.766 53.4472C42.6416 53.5201 42.504 53.5678 42.3611 53.5873C42.2181 53.6068 42.0728 53.5979 41.9333 53.561C41.7939 53.5242 41.6631 53.4601 41.5485 53.3725C41.4339 53.2849 41.3378 53.1754 41.2657 53.0505C41.1936 52.9256 41.1469 52.7876 41.1283 52.6446C41.1097 52.5016 41.1196 52.3563 41.1573 52.2171C41.1951 52.0778 41.2601 51.9475 41.3485 51.8335C41.4369 51.7195 41.5469 51.6241 41.6723 51.5528C44.2153 50.0937 48.6723 49.2188 53.5942 49.2188C60.6598 49.2188 67.8129 51.0967 67.8129 54.6875V61.25C67.8129 61.5401 67.6977 61.8183 67.4926 62.0234C67.2875 62.2285 67.0093 62.3438 66.7192 62.3438Z" fill="#617792"/>
<path d="M16.4063 48.125C14.6757 48.125 12.9839 47.6118 11.545 46.6504C10.1061 45.6889 8.98457 44.3223 8.32231 42.7235C7.66004 41.1246 7.48676 39.3653 7.82438 37.668C8.162 35.9706 8.99536 34.4115 10.2191 33.1878C11.4428 31.9641 13.0019 31.1307 14.6992 30.7931C16.3965 30.4555 18.1559 30.6288 19.7547 31.2911C21.3536 31.9533 22.7202 33.0748 23.6816 34.5138C24.6431 35.9527 25.1563 37.6444 25.1563 39.375C25.1536 41.6948 24.2309 43.9189 22.5906 45.5593C20.9502 47.1997 18.7261 48.1224 16.4063 48.125ZM16.4063 32.8125C15.1083 32.8125 13.8395 33.1974 12.7603 33.9185C11.6811 34.6396 10.84 35.6645 10.3433 36.8636C9.84659 38.0628 9.71664 39.3823 9.96985 40.6553C10.2231 41.9283 10.8481 43.0976 11.7659 44.0154C12.6836 44.9332 13.853 45.5582 15.126 45.8114C16.399 46.0646 17.7185 45.9347 18.9176 45.438C20.1168 44.9413 21.1417 44.1001 21.8628 43.0209C22.5839 41.9417 22.9688 40.6729 22.9688 39.375C22.967 37.6351 22.2751 35.9669 21.0447 34.7365C19.8144 33.5062 18.1462 32.8142 16.4063 32.8125Z" fill="#617792"/>
<path d="M3.28125 62.3438C2.99117 62.3438 2.71297 62.2285 2.50785 62.0234C2.30273 61.8183 2.1875 61.5401 2.1875 61.25V54.6875C2.1875 51.0967 9.34062 49.2188 16.4062 49.2188C21.3281 49.2188 25.7852 50.0937 28.3216 51.5528C28.447 51.6241 28.557 51.7195 28.6454 51.8335C28.7338 51.9475 28.7987 52.0778 28.8365 52.2171C28.8743 52.3563 28.8842 52.5016 28.8656 52.6446C28.847 52.7876 28.8003 52.9256 28.7282 53.0505C28.6561 53.1754 28.5599 53.2849 28.4454 53.3725C28.3308 53.4601 28.2 53.5242 28.0605 53.561C27.9211 53.5979 27.7757 53.6068 27.6328 53.5873C27.4899 53.5678 27.3522 53.5201 27.2278 53.4472C25.0469 52.1883 20.8961 51.4062 16.4062 51.4062C8.62203 51.4062 4.375 53.5741 4.375 54.6875V61.25C4.375 61.5401 4.25977 61.8183 4.05465 62.0234C3.84953 62.2285 3.57133 62.3438 3.28125 62.3438Z" fill="#617792"/>
<path d="M17.597 29.5313C17.3748 29.5311 17.158 29.4633 16.9753 29.3369C16.7926 29.2105 16.6527 29.0315 16.5743 28.8236C14.7314 23.9369 14.9053 18.5183 17.0576 13.7597C19.2099 9.0012 23.1643 5.29257 28.051 3.44969C32.9377 1.60681 38.3564 1.78064 43.1149 3.93294C47.8734 6.08524 51.5821 10.0397 53.4249 14.9264C53.4782 15.0613 53.5041 15.2054 53.5011 15.3505C53.4982 15.4955 53.4664 15.6384 53.4076 15.771C53.3489 15.9036 53.2644 16.0232 53.159 16.1229C53.0536 16.2225 52.9294 16.3002 52.7937 16.3514C52.658 16.4026 52.5135 16.4263 52.3686 16.4211C52.2236 16.4159 52.0812 16.382 51.9495 16.3212C51.8178 16.2605 51.6995 16.1742 51.6015 16.0673C51.5035 15.9604 51.4277 15.835 51.3785 15.6986C49.7404 11.3546 46.4438 7.83933 42.2139 5.92599C37.9839 4.01265 33.1672 3.85801 28.8232 5.49609C24.4793 7.13418 20.964 10.4308 19.0506 14.6607C17.1373 18.8907 16.9826 23.7075 18.6207 28.0514C18.6715 28.1858 18.6952 28.329 18.6907 28.4726C18.6861 28.6162 18.6532 28.7575 18.594 28.8885C18.5348 29.0194 18.4504 29.1374 18.3455 29.2356C18.2407 29.3339 18.1175 29.4106 17.9831 29.4613C17.8596 29.5074 17.7288 29.5311 17.597 29.5313Z" fill="#617792"/>
<path d="M35 35C32.4041 35 29.8665 34.2302 27.7081 32.788C25.5498 31.3458 23.8675 29.296 22.8741 26.8977C21.8807 24.4994 21.6208 21.8604 22.1272 19.3144C22.6336 16.7684 23.8837 14.4298 25.7192 12.5942C27.5548 10.7587 29.8934 9.50862 32.4394 9.00219C34.9854 8.49576 37.6244 8.75568 40.0227 9.74908C42.421 10.7425 44.4708 12.4247 45.913 14.5831C47.3552 16.7415 48.125 19.2791 48.125 21.875C48.1212 25.3548 46.7372 28.691 44.2766 31.1516C41.816 33.6122 38.4798 34.9962 35 35ZM35 10.9375C32.8368 10.9375 30.7221 11.579 28.9235 12.7808C27.1248 13.9826 25.7229 15.6908 24.8951 17.6894C24.0672 19.688 23.8506 21.8871 24.2727 24.0088C24.6947 26.1305 25.7364 28.0793 27.266 29.609C28.7957 31.1386 30.7445 32.1803 32.8662 32.6023C34.9879 33.0244 37.187 32.8078 39.1856 31.9799C41.1842 31.1521 42.8924 29.7502 44.0942 27.9515C45.296 26.1529 45.9375 24.0382 45.9375 21.875C45.9343 18.9752 44.781 16.195 42.7305 14.1445C40.68 12.094 37.8998 10.9407 35 10.9375Z" fill="#617792"/>
<path d="M35 28.4375C33.7021 28.4375 32.4333 28.0526 31.3541 27.3315C30.2749 26.6104 29.4337 25.5855 28.937 24.3864C28.4403 23.1872 28.3104 21.8677 28.5636 20.5947C28.8168 19.3217 29.4418 18.1524 30.3596 17.2346C31.2774 16.3168 32.4467 15.6918 33.7197 15.4386C34.9927 15.1854 36.3122 15.3153 37.5114 15.812C38.7105 16.3087 39.7354 17.1499 40.4565 18.2291C41.1776 19.3083 41.5625 20.5771 41.5625 21.875C41.5608 23.615 40.8688 25.2831 39.6385 26.5135C38.4081 27.7438 36.74 28.4358 35 28.4375ZM35 17.5C34.1347 17.5 33.2888 17.7566 32.5694 18.2373C31.8499 18.7181 31.2892 19.4013 30.958 20.2008C30.6269 21.0002 30.5403 21.8799 30.7091 22.7285C30.8779 23.5772 31.2946 24.3567 31.9064 24.9686C32.5183 25.5804 33.2978 25.9971 34.1465 26.1659C34.9952 26.3347 35.8748 26.2481 36.6742 25.917C37.4737 25.5858 38.157 25.0251 38.6377 24.3056C39.1184 23.5862 39.375 22.7403 39.375 21.875C39.375 20.7147 38.9141 19.6019 38.0936 18.7814C37.2731 17.9609 36.1603 17.5 35 17.5Z" fill="#617792"/>
<path d="M63.4375 27.3438H54.3506C54.0683 27.3432 53.7971 27.2335 53.5938 27.0375L49.3664 22.9688H35C34.7099 22.9688 34.4317 22.8535 34.2266 22.6484C34.0215 22.4433 33.9062 22.1651 33.9062 21.875C33.9062 21.5849 34.0215 21.3067 34.2266 21.1016C34.4317 20.8965 34.7099 20.7812 35 20.7812H49.3664L53.5938 16.7125C53.7973 16.5163 54.069 16.4065 54.3517 16.4063H63.4375C63.6555 16.4062 63.8686 16.4714 64.0493 16.5934C64.2301 16.7153 64.3702 16.8885 64.4518 17.0907C64.5334 17.2929 64.5527 17.5149 64.5072 17.7282C64.4617 17.9414 64.3536 18.1362 64.1966 18.2875L60.4712 21.875L64.1966 25.4625C64.3536 25.6138 64.4617 25.8086 64.5072 26.0218C64.5527 26.2351 64.5334 26.4571 64.4518 26.6593C64.3702 26.8615 64.2301 27.0347 64.0493 27.1566C63.8686 27.2786 63.6555 27.3438 63.4375 27.3438ZM54.7969 25.1562H60.725L58.4533 22.9688H52.5208L54.7969 25.1562ZM52.5252 20.7812H58.4577L60.7294 18.5938H54.7969L52.5252 20.7812Z" fill="#617792"/>
</svg>
