<svg width="70" height="70" viewBox="0 0 70 70" fill="none" xmlns="http://www.w3.org/2000/svg">
<g clip-path="url(#clip0_1599_2094)">
<path d="M68.4385 1.62484C67.4198 0.58921 66.0585 0.0122388 64.6058 0.000194266L64.5602 0C61.5863 0 59.1467 2.41978 59.1223 5.394C59.1104 6.84672 59.6646 8.21727 60.6836 9.25291C61.7025 10.2885 63.0635 10.8655 64.5163 10.8776L64.5619 10.8778C67.5357 10.8778 69.9753 8.45797 69.9998 5.48375C70.0117 4.03103 69.4572 2.66048 68.4385 1.62484ZM64.5617 8.86845L64.5328 8.86826C63.6168 8.86068 62.7585 8.49682 62.1163 7.84389C61.4738 7.19077 61.1242 6.32667 61.1317 5.41071C61.1471 3.53526 62.6851 2.00949 64.5602 2.00949L64.5891 2.00969C65.5051 2.01726 66.3633 2.38112 67.0056 3.03405C67.648 3.68718 67.9977 4.55127 67.9901 5.46724C67.9748 7.34269 66.4368 8.86845 64.5617 8.86845Z" fill="#617792"/>
<path d="M5.48374 29.5612L5.43809 29.561C2.46407 29.561 0.0246646 31.9808 0.000187015 34.9552C-0.0244848 37.9539 2.3951 40.4139 5.39399 40.4388H5.43945C8.41348 40.4388 10.8531 38.019 10.8775 35.0448C10.9022 32.0459 8.48263 29.5859 5.48374 29.5612ZM5.43945 38.4293L5.41051 38.4291C3.51952 38.4136 1.99375 36.8625 2.00929 34.9715C2.02483 33.0961 3.56284 31.5703 5.4379 31.5703H5.46684C7.35783 31.5859 8.8836 33.1371 8.86806 35.0281C8.85271 36.9035 7.3147 38.4293 5.43945 38.4293Z" fill="#617792"/>
<path d="M25.9515 9.09394L25.9059 9.09375C22.9318 9.09375 20.4922 11.5135 20.468 14.4878C20.4433 17.4866 22.8629 19.9466 25.8618 19.9713L25.9074 19.9715C28.8812 19.9715 31.3208 17.5517 31.3453 14.5775C31.37 11.5784 28.9504 9.11842 25.9515 9.09394ZM25.9072 17.9622L25.8783 17.962C23.9873 17.9465 22.4615 16.3953 22.4771 14.5045C22.4926 12.629 24.0306 11.1032 25.9057 11.1032L25.9346 11.1034C27.8256 11.119 29.3514 12.6702 29.3358 14.561C29.3205 16.4364 27.7825 17.9622 25.9072 17.9622Z" fill="#617792"/>
<path d="M40.7318 23.8745L40.6861 23.8743C37.7121 23.8743 35.2727 26.294 35.2482 29.2683C35.2236 32.2672 37.6433 34.7272 40.6422 34.7518L40.6877 34.752C43.6615 34.752 46.1011 32.3322 46.1256 29.358C46.1503 26.3589 43.7305 23.8991 40.7318 23.8745ZM40.6875 32.7427L40.6586 32.7425C38.7676 32.727 37.2418 31.1758 37.2573 29.285C37.2727 27.4095 38.8107 25.8838 40.6858 25.8838L40.7147 25.884C42.6057 25.8995 44.1313 27.4507 44.1157 29.3415C44.1006 31.217 42.5626 32.7427 40.6875 32.7427Z" fill="#617792"/>
<path d="M60.6863 7.84037L43.1055 25.4661L44.5281 26.885L62.1089 9.25934L60.6863 7.84037Z" fill="#617792"/>
<path d="M29.7518 16.9591L28.3311 18.3799L36.8469 26.8957L38.2677 25.475L29.7518 16.9591Z" fill="#617792"/>
<path d="M22.0609 16.9574L7.86426 31.1541L9.28503 32.5748L23.4816 18.3782L22.0609 16.9574Z" fill="#617792"/>
<path d="M57.6445 20.6929V70H70.0003V20.6929H57.6445ZM59.654 67.9905L59.6538 22.7022H67.991V67.9905H59.654Z" fill="#617792"/>
<path d="M38.4297 41.3855V70H50.7854V41.3855H38.4297ZM48.7763 67.9905H40.4392V43.395H48.7763V67.9905Z" fill="#617792"/>
<path d="M19.2148 39.9075V69.9999H31.5706V39.9075H19.2148ZM29.5615 67.9904H21.2243V41.917H29.5615V67.9904Z" fill="#617792"/>
<path d="M0 47.2979V70H12.3557L12.3559 47.2979H0ZM10.3464 67.9905H2.0093V49.307H10.3464V67.9905Z" fill="#617792"/>
</g>
<defs>
<clipPath id="clip0_1599_2094">
<rect width="70" height="70" fill="white"/>
</clipPath>
</defs>
</svg>
