<svg width="70" height="70" viewBox="0 0 70 70" fill="none" xmlns="http://www.w3.org/2000/svg">
<path d="M58.8397 1.09375H11.1609C6.9899 1.09375 3.59668 4.48697 3.59668 8.65799V65.6865C3.59668 67.4618 5.04111 68.9062 6.81654 68.9062H50.2431C52.0185 68.9062 53.4629 67.4618 53.4629 65.6864V37.0642L55.2657 33.9418C56.3708 32.0279 55.7128 29.5717 53.7988 28.4668L53.4631 28.2729V23.0066H63.1842C64.9596 23.0066 66.4042 21.5622 66.4042 19.7868V8.65799C66.4039 4.48697 63.0107 1.09375 58.8397 1.09375ZM53.3713 32.848L39.1135 57.5434L34.9505 55.1399L49.2084 30.4445C49.4505 30.0252 49.8434 29.7248 50.3146 29.5985C50.7856 29.4723 51.2763 29.536 51.6954 29.7782L52.7051 30.361C53.5742 30.863 53.8732 31.9787 53.3713 32.848ZM34.5502 57.4347L37.3263 59.0375L34.5502 60.6402V57.4347ZM51.2754 27.3767C50.7712 27.3152 50.2546 27.35 49.7483 27.4858C48.7128 27.7632 47.8483 28.4256 47.314 29.3509L32.5093 54.9935C32.4133 55.1597 32.3627 55.3484 32.3627 55.5404V61.4409H14.9494C13.9969 61.4409 13.222 60.6659 13.222 59.7134C13.222 58.7609 13.9969 57.986 14.9494 57.986H18.7988C20.9575 57.986 22.7137 56.2298 22.7137 54.0712C22.7137 51.9125 20.9575 50.1562 18.7988 50.1562H18.3484C17.3958 50.1562 16.6209 49.3813 16.6209 48.4288C16.6209 46.3918 16.6263 44.3316 16.6319 42.3203H18.4711C19.7391 42.3203 20.7706 41.2888 20.7706 40.0209V37.2091C20.7706 35.9412 19.7391 34.9095 18.4711 34.9095H16.6466C16.6466 33.8223 16.6454 32.8249 16.6427 31.8738H18.4713C19.7392 31.8738 20.7707 30.8422 20.7707 29.5743V26.7626C20.7707 25.4946 19.7392 24.4631 18.4713 24.4631H16.6211V22.636H38.1429V25.0302H36.519C35.9149 25.0302 35.4252 25.5199 35.4252 26.1239C35.4252 26.728 35.9149 27.2177 36.519 27.2177H38.1429V29.6119H36.519C35.9149 29.6119 35.4252 30.1016 35.4252 30.7057C35.4252 31.3097 35.9149 31.7994 36.519 31.7994H38.1429V34.1936H36.7004C36.0964 34.1936 35.6066 34.6834 35.6066 35.2874C35.6066 35.8914 36.0964 36.3811 36.7004 36.3811H39.2367C39.8407 36.3811 40.3304 35.8914 40.3304 35.2874V21.5421C40.3304 20.9381 39.8407 20.4483 39.2367 20.4483H27.1086V16.6604H34.125C35.3264 16.6604 36.3038 15.683 36.3038 14.4815V11.2306C36.3038 10.0293 35.3265 9.05188 34.125 9.05188H17.9046C16.7032 9.05188 15.7257 10.0293 15.7257 11.2306V14.4817C15.7257 15.6831 16.7031 16.6605 17.9046 16.6605H24.921V20.4485H15.5272C14.9231 20.4485 14.4334 20.9382 14.4334 21.5422V24.4631H12.5832C11.3153 24.4631 10.2837 25.4946 10.2837 26.7626V29.5743C10.2837 30.8422 11.3153 31.8738 12.5832 31.8738H14.4552C14.458 32.8248 14.4593 33.822 14.4591 34.9095H12.5832C11.3153 34.9095 10.2837 35.941 10.2837 37.2091V40.0209C10.2837 41.2888 11.3153 42.3203 12.5832 42.3203H14.4444C14.4386 44.3312 14.4334 46.391 14.4334 48.4288C14.4334 50.5874 16.1897 52.3437 18.3484 52.3437H18.7988C19.7514 52.3437 20.5262 53.1187 20.5262 54.0712C20.5262 55.0237 19.7514 55.7985 18.7988 55.7985H14.9494C12.7907 55.7985 11.0345 57.5548 11.0345 59.7134C11.0345 61.8721 12.7907 63.6284 14.9494 63.6284H33.4565C33.6484 63.6284 33.8371 63.5778 34.0033 63.4818L40.0608 59.9847C40.2271 59.8887 40.3651 59.7506 40.4611 59.5844L51.2756 40.8532V65.6865C51.2756 66.2558 50.8125 66.7189 50.2432 66.7189H6.81654C6.24725 66.7189 5.78404 66.2558 5.78404 65.6865V8.65799C5.78418 5.69324 8.19604 3.28125 11.1609 3.28125H53.5254C52.1373 4.65336 51.2754 6.55662 51.2754 8.65799V27.3767ZM18.4713 37.097C18.531 37.097 18.5832 37.1494 18.5832 37.2091V40.0209C18.5832 40.0806 18.5309 40.1328 18.4713 40.1328H12.5832C12.5235 40.1328 12.4712 40.0805 12.4712 40.0209V37.2091C12.4712 37.1494 12.5236 37.097 12.5832 37.097H18.4713ZM18.4713 26.6504C18.531 26.6504 18.5832 26.7028 18.5832 26.7624V29.5742C18.5832 29.6339 18.5309 29.6862 18.4713 29.6862H12.5832C12.5235 29.6862 12.4712 29.6338 12.4712 29.5742V26.7624C12.4712 26.7027 12.5236 26.6504 12.5832 26.6504H18.4713ZM17.9133 14.4815L17.9047 11.2392H34.1163L34.125 14.4728L17.9133 14.4815ZM64.2164 19.7868C64.2164 20.3561 63.7532 20.8191 63.1839 20.8191H53.4628V8.65799C53.4628 5.69324 55.8748 3.28125 58.8395 3.28125C61.8043 3.28125 64.2163 5.69324 64.2163 8.65799V19.7868H64.2164ZM31.7646 30.7824C31.7646 31.3864 31.2748 31.8761 30.6708 31.8761H24.4158C23.8118 31.8761 23.3221 31.3864 23.3221 30.7824C23.3221 30.1783 23.8118 29.6886 24.4158 29.6886H30.6708C31.2748 29.6886 31.7646 30.1782 31.7646 30.7824ZM31.7646 35.2871C31.7646 35.8911 31.2748 36.3809 30.6708 36.3809H24.4158C23.8118 36.3809 23.3221 35.8911 23.3221 35.2871C23.3221 34.6831 23.8118 34.1934 24.4158 34.1934H30.6708C31.2748 34.1934 31.7646 34.6831 31.7646 35.2871ZM31.7646 26.1238C31.7646 26.7278 31.2748 27.2176 30.6708 27.2176H24.4158C23.8118 27.2176 23.3221 26.7278 23.3221 26.1238C23.3221 25.5198 23.8118 25.0301 24.4158 25.0301H30.6708C31.2748 25.0301 31.7646 25.5198 31.7646 26.1238Z" fill="#617792"/>
</svg>
