<svg width="70" height="70" viewBox="0 0 70 70" fill="none" xmlns="http://www.w3.org/2000/svg">
<path d="M61.5046 38.262V35.0209C61.5046 34.4534 61.0445 33.9935 60.4771 33.9935C59.9097 33.9935 59.4497 34.4534 59.4497 35.0209V37.4154C57.9452 36.9206 56.3392 36.6518 54.6714 36.6518C54.5517 36.6518 54.4312 36.6544 54.3106 36.6573V22.2538C54.3106 21.6863 53.8505 21.2264 53.2831 21.2264H52.8765L56.8801 16.9701L60.8836 21.2264H60.477C59.9096 21.2264 59.4495 21.6863 59.4495 22.2538V31.0114C59.4495 31.5789 59.9095 32.0388 60.477 32.0388C61.0445 32.0388 61.5044 31.5789 61.5044 31.0114V23.2813H63.2604C64.1337 23.3103 64.628 22.1661 64.0088 21.55L57.6285 14.7669C57.243 14.3393 56.5171 14.3393 56.1318 14.7669L49.7514 21.55C49.1321 22.1662 49.6267 23.3103 50.4998 23.2813H52.2558V30.9894C50.9328 28.7602 49.0474 26.9082 46.8018 25.6233V13.1409H48.5578C49.4311 13.1698 49.9255 12.0255 49.3063 11.4096L42.9259 4.62656C42.5404 4.19904 41.8145 4.19904 41.4292 4.62656L35.0488 11.4096C34.4293 12.0256 34.9241 13.17 35.7972 13.1409H37.5532V23.7724C35.5986 24.0133 33.7541 24.6319 32.0994 25.5581V20.3807H33.8554C34.7286 20.4096 35.223 19.2653 34.6038 18.6493L28.2234 11.8662C27.838 11.4387 27.112 11.4387 26.7267 11.8662L20.3463 18.6493C19.727 19.2655 20.2217 20.4095 21.0947 20.3807H22.8508V34.469C22.3628 34.4147 21.8708 34.386 21.3754 34.386C19.9898 34.386 18.6534 34.6005 17.3968 34.9964V11.5262H19.1528C20.026 11.5552 20.5204 10.411 19.9012 9.79494L13.5205 3.01164C13.1353 2.58412 12.4091 2.58412 12.0239 3.01164L5.64334 9.7948C5.02387 10.411 5.51865 11.5551 6.39174 11.5261H8.14775V19.9533C8.14775 20.5208 8.60781 20.9807 9.1752 20.9807C9.74258 20.9807 10.2026 20.5208 10.2026 19.9533V10.4988C10.2026 9.93125 9.74271 9.47133 9.1752 9.47133H8.76859L12.7721 5.215L16.7757 9.47133H16.3691C15.8017 9.47133 15.3416 9.93125 15.3416 10.4988V35.8401C13.2438 36.9164 11.4688 38.5354 10.2024 40.5107V24.063C10.2024 23.4955 9.74244 23.0356 9.17492 23.0356C8.60754 23.0356 8.14748 23.4955 8.14748 24.063V46.6945C8.1442 46.7411 8.1401 46.7878 8.13723 46.8345C3.44094 47.8614 0 52.064 0 56.9509C0 62.6623 4.64666 67.309 10.3581 67.309H41.9524C42.5198 67.309 42.9799 66.849 42.9799 66.2815C42.9799 65.714 42.5199 65.2541 41.9524 65.2541H10.3581C5.77965 65.2541 2.05475 61.5292 2.05475 56.9507C2.05475 52.795 5.15854 49.2566 9.27432 48.7203C9.78756 48.6534 10.1709 48.2151 10.169 47.6976C10.1689 47.6792 10.1685 47.6608 10.1676 47.6387C10.1726 41.463 15.1983 36.4405 21.3752 36.4405C22.7371 36.4405 24.0719 36.6844 25.3419 37.1652C25.9226 37.4016 26.6261 36.9995 26.7181 36.3796C27.7884 30.1988 33.1237 25.7127 39.4044 25.7127C46.2048 25.7127 51.8506 31.0256 52.2579 37.8081C52.3615 39.086 53.8006 38.7003 54.6716 38.7067C61.9909 38.7067 67.9454 44.6614 67.9454 51.9805C67.9454 59.2996 61.9909 65.2542 54.6716 65.2542H46.0619C45.4945 65.2542 45.0345 65.7141 45.0345 66.2817C45.0345 66.8492 45.4945 67.3091 46.0619 67.3091H54.6714C63.1236 67.3091 70 60.4327 70 51.9805C70 45.9822 66.5364 40.7786 61.5046 38.262ZM42.1775 6.82992L46.181 11.0861H45.7745C45.2072 11.0861 44.7471 11.546 44.7471 12.1136V24.6468C43.145 24.0311 41.4128 23.6849 39.608 23.6605V12.1134C39.608 11.5459 39.1479 11.086 38.5805 11.086H38.1739L42.1775 6.82992ZM24.9404 34.8729C24.9288 34.8696 24.9169 34.8668 24.9052 34.8637V19.3531C24.9052 18.7856 24.4452 18.3256 23.8778 18.3256H23.4713L27.4749 14.0695L31.4784 18.3256H31.0719C30.5046 18.3256 30.0445 18.7856 30.0445 19.3531V26.9445C27.5867 28.9187 25.7578 31.6664 24.9404 34.8729Z" fill="#617792"/>
<path d="M38.7154 46.6199C39.2828 46.6199 39.7428 46.1599 39.7428 45.5924C39.7428 45.0249 39.2828 44.565 38.7154 44.565H33.9044C33.337 44.565 32.877 45.0249 32.877 45.5924V57.0105C32.877 57.578 33.337 58.0379 33.9044 58.0379H38.7154C39.2828 58.0379 39.7428 57.578 39.7428 57.0105C39.7428 56.443 39.2828 55.9831 38.7154 55.9831H34.9317V52.3288H38.3606C38.928 52.3288 39.388 51.8689 39.388 51.3014C39.388 50.7339 38.9281 50.2739 38.3606 50.2739H34.9317V46.6197H38.7154V46.6199Z" fill="#617792"/>
<path d="M26.5371 56.0357C25.2771 56.0357 24.0606 55.5233 23.2829 54.6651C22.9019 54.2447 22.2522 54.2128 21.8316 54.5936C21.4112 54.9746 21.3792 55.6243 21.7601 56.0448C22.9209 57.3258 24.7066 58.0906 26.5369 58.0906C28.7291 58.0906 30.6389 56.6528 30.9793 54.7463C31.372 52.547 29.6427 51.0738 27.8932 50.4286C26.4103 49.8816 25.0348 49.2844 24.6876 49.1319C24.3194 48.8621 24.1407 48.4311 24.2077 47.9649C24.2919 47.378 24.7428 46.907 25.4139 46.7049C27.2627 46.1476 28.9332 47.4873 28.9662 47.5143C29.4005 47.8762 30.046 47.819 30.4101 47.3859C30.7751 46.9515 30.719 46.3034 30.2847 45.9383C30.1827 45.8527 27.7578 43.8531 24.8211 44.7374C23.386 45.1698 22.3715 46.2946 22.1736 47.673C21.9894 48.9565 22.5452 50.1905 23.624 50.894C23.6694 50.9236 23.7171 50.9496 23.7666 50.9716C23.8328 51.001 25.4075 51.702 27.1818 52.3564C28.4558 52.8264 29.1026 53.5659 28.9563 54.3854C28.8137 55.1852 27.9173 56.0357 26.5371 56.0357Z" fill="#617792"/>
<path d="M54.3328 51.3014C54.3328 47.5579 51.2873 44.5125 47.5439 44.5125C43.8004 44.5125 40.7549 47.558 40.7549 51.3014C40.7549 55.0449 43.8004 58.0903 47.5439 58.0903C51.2873 58.0904 54.3328 55.0449 54.3328 51.3014ZM42.8096 51.3014C42.8096 48.6909 44.9334 46.5672 47.5438 46.5672C50.1542 46.5672 52.2779 48.6909 52.2779 51.3014C52.2779 53.9119 50.1542 56.0355 47.5438 56.0355C44.9334 56.0357 42.8096 53.9119 42.8096 51.3014Z" fill="#617792"/>
</svg>
