<svg width="70" height="70" viewBox="0 0 70 70" fill="none" xmlns="http://www.w3.org/2000/svg">
<path d="M60.3438 50.3221C61.3146 49.3188 61.9684 48.0518 62.2238 46.6793C62.4792 45.3068 62.3248 43.8895 61.7799 42.6041C61.2351 41.3188 60.3239 40.2223 59.1599 39.4515C57.996 38.6806 56.6308 38.2695 55.2348 38.2694C53.8387 38.2693 52.4735 38.6803 51.3095 39.451C50.1455 40.2217 49.2341 41.3181 48.6891 42.6034C48.1441 43.8887 47.9896 45.306 48.2448 46.6785C48.5 48.051 49.1537 49.318 50.1243 50.3215C49.4403 50.3335 48.7611 50.439 48.1057 50.6351C46.3089 49.0199 43.9785 48.1259 41.5625 48.1251H40.7682C42.1063 46.952 43.0549 45.3988 43.4875 43.6727C43.9201 41.9466 43.8161 40.1296 43.1894 38.464C42.5627 36.7985 41.4431 35.3637 39.9799 34.3509C38.5167 33.3381 36.7795 32.7955 35 32.7955C33.2205 32.7955 31.4833 33.3381 30.0201 34.3509C28.5569 35.3637 27.4373 36.7985 26.8106 38.464C26.1839 40.1296 26.0799 41.9466 26.5125 43.6727C26.9451 45.3988 27.8937 46.952 29.2318 48.1251H28.4375C26.0215 48.1259 23.6911 49.0199 21.8943 50.6351C21.2389 50.439 20.5597 50.3335 19.8757 50.3215C20.8463 49.318 21.5 48.051 21.7552 46.6785C22.0104 45.306 21.8559 43.8887 21.3109 42.6034C20.7659 41.3181 19.8545 40.2217 18.6905 39.451C17.5265 38.6803 16.1613 38.2693 14.7652 38.2694C13.3692 38.2695 12.004 38.6806 10.8401 39.4515C9.67613 40.2223 8.7649 41.3188 8.22005 42.6041C7.6752 43.8895 7.52084 45.3068 7.77623 46.6793C8.03162 48.0518 8.68544 49.3188 9.65616 50.3221C7.66031 50.3722 5.76285 51.1994 4.36785 52.6277C2.97286 54.056 2.19054 55.9724 2.1875 57.9689V66.7189C2.1875 67.0089 2.30273 67.2871 2.50785 67.4923C2.71297 67.6974 2.99117 67.8126 3.28125 67.8126C3.57133 67.8126 3.84953 67.6974 4.05465 67.4923C4.25977 67.2871 4.375 67.0089 4.375 66.7189V57.9689C4.3767 56.519 4.95342 55.129 5.97864 54.1038C7.00386 53.0785 8.39387 52.5018 9.84375 52.5001H19.6875C19.8731 52.5001 20.0473 52.5336 20.2272 52.551C19.1609 54.1566 18.5926 56.0414 18.5938 57.9689V66.7189C18.5938 67.0089 18.709 67.2871 18.9141 67.4923C19.1192 67.6974 19.3974 67.8126 19.6875 67.8126C19.9776 67.8126 20.2558 67.6974 20.4609 67.4923C20.666 67.2871 20.7812 67.0089 20.7812 66.7189V57.9689C20.7836 55.939 21.591 53.993 23.0263 52.5577C24.4616 51.1224 26.4077 50.315 28.4375 50.3126H30.9605L32.2326 53.7028L30.64 63.2582C30.6113 63.4298 30.6241 63.6059 30.6772 63.7716C30.7304 63.9373 30.8223 64.0879 30.9455 64.2109L34.2267 67.4922C34.3283 67.5938 34.4488 67.6744 34.5815 67.7293C34.7142 67.7843 34.8564 67.8126 35 67.8126C35.1437 67.8126 35.2859 67.7843 35.4186 67.7293C35.5513 67.6744 35.6718 67.5938 35.7733 67.4922L39.0546 64.2109C39.1777 64.0879 39.2697 63.9373 39.3228 63.7716C39.376 63.6059 39.3887 63.4298 39.3601 63.2582L37.7675 53.7028L39.0395 50.3126H41.5625C43.5923 50.315 45.5384 51.1224 46.9737 52.5577C48.409 53.993 49.2164 55.939 49.2188 57.9689V66.7189C49.2188 67.0089 49.334 67.2871 49.5391 67.4923C49.7442 67.6974 50.0224 67.8126 50.3125 67.8126C50.6026 67.8126 50.8808 67.6974 51.0859 67.4923C51.291 67.2871 51.4062 67.0089 51.4062 66.7189V57.9689C51.4074 56.0414 50.8391 54.1566 49.7728 52.551C49.9527 52.5336 50.1269 52.5001 50.3125 52.5001H60.1562C61.6061 52.5018 62.9961 53.0785 64.0214 54.1038C65.0466 55.129 65.6233 56.519 65.625 57.9689V66.7189C65.625 67.0089 65.7402 67.2871 65.9454 67.4923C66.1505 67.6974 66.4287 67.8126 66.7188 67.8126C67.0088 67.8126 67.287 67.6974 67.4921 67.4923C67.6973 67.2871 67.8125 67.0089 67.8125 66.7189V57.9689C67.8095 55.9724 67.0271 54.056 65.6321 52.6277C64.2372 51.1994 62.3397 50.3722 60.3438 50.3221ZM14.7656 40.4689C15.7391 40.4689 16.6907 40.7575 17.5001 41.2984C18.3095 41.8392 18.9403 42.6079 19.3128 43.5072C19.6854 44.4066 19.7828 45.3962 19.5929 46.351C19.403 47.3057 18.9343 48.1827 18.2459 48.871C17.5576 49.5594 16.6806 50.0281 15.7258 50.218C14.7711 50.408 13.7815 50.3105 12.8821 49.938C11.9827 49.5654 11.2141 48.9346 10.6732 48.1252C10.1324 47.3158 9.84375 46.3642 9.84375 45.3907C9.84517 44.0858 10.3642 42.8347 11.2869 41.912C12.2096 40.9893 13.4607 40.4703 14.7656 40.4689ZM28.4375 41.5626C28.4375 40.2647 28.8224 38.9959 29.5435 37.9167C30.2646 36.8375 31.2895 35.9964 32.4886 35.4997C33.6878 35.003 35.0073 34.873 36.2803 35.1262C37.5533 35.3794 38.7226 36.0044 39.6404 36.9222C40.5582 37.84 41.1832 39.0093 41.4364 40.2823C41.6896 41.5553 41.5597 42.8748 41.063 44.074C40.5663 45.2731 39.7251 46.298 38.6459 47.0191C37.5667 47.7402 36.2979 48.1251 35 48.1251C33.2601 48.1232 31.592 47.4312 30.3617 46.2009C29.1314 44.9706 28.4394 43.3025 28.4375 41.5626ZM35 65.1722L32.8899 63.0627L34.2858 54.6876H35.7142L37.11 63.0627L35 65.1722ZM35.8823 52.5001H34.1177L33.2974 50.3126H36.7026L35.8823 52.5001ZM55.2344 40.4689C56.2078 40.4689 57.1594 40.7575 57.9688 41.2984C58.7782 41.8392 59.4091 42.6079 59.7816 43.5072C60.1541 44.4066 60.2516 45.3962 60.0617 46.351C59.8718 47.3057 59.403 48.1827 58.7147 48.871C58.0263 49.5594 57.1493 50.0281 56.1946 50.218C55.2398 50.408 54.2502 50.3105 53.3509 49.938C52.4515 49.5654 51.6828 48.9346 51.142 48.1252C50.6012 47.3158 50.3125 46.3642 50.3125 45.3907C50.3139 44.0858 50.8329 42.8347 51.7557 41.912C52.6784 40.9893 53.9294 40.4703 55.2344 40.4689ZM9.84375 60.1564V66.7189C9.84375 67.0089 9.72852 67.2871 9.5234 67.4923C9.31828 67.6974 9.04008 67.8126 8.75 67.8126C8.45992 67.8126 8.18172 67.6974 7.9766 67.4923C7.77148 67.2871 7.65625 67.0089 7.65625 66.7189V60.1564C7.65625 59.8663 7.77148 59.5881 7.9766 59.383C8.18172 59.1779 8.45992 59.0626 8.75 59.0626C9.04008 59.0626 9.31828 59.1779 9.5234 59.383C9.72852 59.5881 9.84375 59.8663 9.84375 60.1564ZM62.3438 60.1564V66.7189C62.3438 67.0089 62.2285 67.2871 62.0234 67.4923C61.8183 67.6974 61.5401 67.8126 61.25 67.8126C60.9599 67.8126 60.6817 67.6974 60.4766 67.4923C60.2715 67.2871 60.1562 67.0089 60.1562 66.7189V60.1564C60.1562 59.8663 60.2715 59.5881 60.4766 59.383C60.6817 59.1779 60.9599 59.0626 61.25 59.0626C61.5401 59.0626 61.8183 59.1779 62.0234 59.383C62.2285 59.5881 62.3438 59.8663 62.3438 60.1564ZM26.25 60.1564V66.7189C26.25 67.0089 26.1348 67.2871 25.9296 67.4923C25.7245 67.6974 25.4463 67.8126 25.1562 67.8126C24.8662 67.8126 24.588 67.6974 24.3829 67.4923C24.1777 67.2871 24.0625 67.0089 24.0625 66.7189V60.1564C24.0625 59.8663 24.1777 59.5881 24.3829 59.383C24.588 59.1779 24.8662 59.0626 25.1562 59.0626C25.4463 59.0626 25.7245 59.1779 25.9296 59.383C26.1348 59.5881 26.25 59.8663 26.25 60.1564ZM45.9375 60.1564V66.7189C45.9375 67.0089 45.8223 67.2871 45.6171 67.4923C45.412 67.6974 45.1338 67.8126 44.8438 67.8126C44.5537 67.8126 44.2755 67.6974 44.0704 67.4923C43.8652 67.2871 43.75 67.0089 43.75 66.7189V60.1564C43.75 59.8663 43.8652 59.5881 44.0704 59.383C44.2755 59.1779 44.5537 59.0626 44.8438 59.0626C45.1338 59.0626 45.412 59.1779 45.6171 59.383C45.8223 59.5881 45.9375 59.8663 45.9375 60.1564ZM28.6495 16.2275L27.5248 22.7841C27.4903 22.9852 27.5129 23.192 27.5898 23.3811C27.6667 23.5701 27.795 23.7339 27.9601 23.8538C28.1252 23.9738 28.3206 24.0452 28.5242 24.0599C28.7277 24.0746 28.9314 24.0321 29.112 23.9371L35 20.8417L40.888 23.9371C41.0686 24.0321 41.2723 24.0746 41.4758 24.0599C41.6794 24.0452 41.8748 23.9738 42.0399 23.8538C42.205 23.7339 42.3333 23.5701 42.4102 23.3811C42.4871 23.192 42.5097 22.9852 42.4752 22.7841L41.3505 16.2275L46.1138 11.5849C46.26 11.4425 46.3635 11.262 46.4125 11.0639C46.4615 10.8657 46.4541 10.6578 46.3911 10.4636C46.3281 10.2695 46.212 10.0968 46.0559 9.9652C45.8999 9.83359 45.7101 9.74827 45.5081 9.7189L38.9249 8.7624L35.9811 2.79752C35.8804 2.62695 35.7369 2.48559 35.5648 2.38739C35.3928 2.2892 35.1981 2.23755 35 2.23755C34.8019 2.23755 34.6073 2.2892 34.4352 2.38739C34.2632 2.48559 34.1197 2.62695 34.019 2.79752L31.0752 8.7624L24.4919 9.7189C24.2899 9.74827 24.1002 9.83359 23.9441 9.9652C23.7881 10.0968 23.672 10.2695 23.609 10.4636C23.546 10.6578 23.5386 10.8657 23.5876 11.0639C23.6366 11.262 23.7401 11.4425 23.8863 11.5849L28.6495 16.2275ZM31.9585 10.8446C32.1341 10.8192 32.3009 10.7513 32.4445 10.647C32.588 10.5427 32.7041 10.4051 32.7826 10.246L35 5.75299L37.2174 10.246C37.2959 10.4051 37.412 10.5428 37.5555 10.6471C37.6991 10.7514 37.8659 10.8192 38.0415 10.8447L43.0002 11.5651L39.4118 15.0621C39.2849 15.186 39.1899 15.3388 39.135 15.5074C39.0801 15.6761 39.067 15.8556 39.0968 16.0304L39.9443 20.9694L35.509 18.6376C35.352 18.5552 35.1773 18.5121 35 18.5121C34.8227 18.5121 34.648 18.5552 34.491 18.6376L30.0557 20.9693L30.9032 16.0303C30.933 15.8555 30.9199 15.6761 30.865 15.5074C30.8101 15.3387 30.7151 15.1859 30.5882 15.0621L26.9998 11.5651L31.9585 10.8446ZM9.0181 25.4667L8.1652 30.4403C8.13075 30.6415 8.15326 30.8483 8.23018 31.0373C8.30711 31.2264 8.43538 31.3901 8.6005 31.5101C8.76563 31.63 8.96101 31.7014 9.16458 31.7161C9.36814 31.7308 9.57176 31.6883 9.75242 31.5934L14.2188 29.2451L18.6851 31.5934C18.8657 31.6883 19.0694 31.7309 19.2729 31.7162C19.4765 31.7014 19.6719 31.6301 19.837 31.5101C20.0021 31.3902 20.1304 31.2264 20.2073 31.0374C20.2842 30.8483 20.3068 30.6415 20.2723 30.4404L19.4194 25.4667L23.0323 21.9451C23.1786 21.8027 23.282 21.6222 23.331 21.4241C23.38 21.2259 23.3726 21.018 23.3096 20.8238C23.2466 20.6297 23.1305 20.457 22.9745 20.3254C22.8184 20.1938 22.6287 20.1085 22.4267 20.0791L17.4327 19.3533L15.1998 14.8288C15.0991 14.6582 14.9556 14.5168 14.7836 14.4186C14.6116 14.3204 14.4169 14.2688 14.2188 14.2688C14.0207 14.2688 13.826 14.3204 13.654 14.4186C13.4819 14.5168 13.3385 14.6582 13.2377 14.8288L11.0048 19.3533L6.01086 20.0791C5.80884 20.1084 5.61908 20.1938 5.46303 20.3254C5.30699 20.457 5.19089 20.6296 5.12787 20.8238C5.06484 21.018 5.05742 21.2259 5.10643 21.4241C5.15544 21.6222 5.25893 21.8027 5.40519 21.9451L9.0181 25.4667ZM11.8887 21.4356C12.0642 21.41 12.2308 21.3422 12.3743 21.2379C12.5177 21.1336 12.6337 20.996 12.7122 20.8369L14.2188 17.7837L15.7253 20.8369C15.8038 20.996 15.9198 21.1336 16.0632 21.2379C16.2067 21.3422 16.3733 21.41 16.5488 21.4356L19.9188 21.9253L17.4808 24.3013C17.3538 24.4252 17.2588 24.578 17.2039 24.7466C17.149 24.9153 17.1359 25.0948 17.1657 25.2696L17.7414 28.6256L14.7277 27.0411C14.5707 26.9586 14.3961 26.9156 14.2188 26.9156C14.0414 26.9156 13.8668 26.9586 13.7098 27.0411L10.6961 28.6256L11.2718 25.2696C11.3016 25.0948 11.2885 24.9153 11.2336 24.7466C11.1787 24.578 11.0837 24.4252 10.9567 24.3013L8.51876 21.9253L11.8887 21.4356ZM50.5806 25.4667L49.7277 30.4403C49.6932 30.6415 49.7158 30.8483 49.7927 31.0373C49.8696 31.2264 49.9979 31.3901 50.163 31.5101C50.3281 31.63 50.5235 31.7014 50.7271 31.7161C50.9306 31.7308 51.1343 31.6883 51.3149 31.5934L55.7812 29.2451L60.2476 31.5934C60.4282 31.6883 60.6319 31.7309 60.8354 31.7162C61.039 31.7014 61.2344 31.6301 61.3995 31.5101C61.5646 31.3902 61.6929 31.2264 61.7698 31.0374C61.8467 30.8483 61.8693 30.6415 61.8348 30.4404L60.9819 25.4667L64.5948 21.9451C64.7411 21.8027 64.8445 21.6222 64.8935 21.4241C64.9425 21.2259 64.9351 21.018 64.8721 20.8238C64.8091 20.6297 64.693 20.457 64.537 20.3254C64.3809 20.1938 64.1912 20.1085 63.9892 20.0791L58.9952 19.3533L56.7623 14.8288C56.6616 14.6582 56.5181 14.5168 56.3461 14.4186C56.1741 14.3204 55.9794 14.2688 55.7813 14.2688C55.5832 14.2688 55.3885 14.3204 55.2165 14.4186C55.0444 14.5168 54.901 14.6582 54.8002 14.8288L52.5673 19.3533L47.5734 20.0791C47.3714 20.1085 47.1816 20.1938 47.0256 20.3254C46.8695 20.457 46.7534 20.6296 46.6904 20.8238C46.6274 21.018 46.62 21.2259 46.669 21.424C46.718 21.6222 46.8215 21.8027 46.9677 21.9451L50.5806 25.4667ZM53.4512 21.4356C53.6267 21.41 53.7933 21.3422 53.9368 21.2379C54.0802 21.1336 54.1962 20.996 54.2747 20.8369L55.7812 17.7837L57.2878 20.8369C57.3663 20.996 57.4823 21.1336 57.6257 21.2379C57.7692 21.3422 57.9358 21.41 58.1113 21.4356L61.4813 21.9253L59.0433 24.3013C58.9163 24.4252 58.8213 24.578 58.7664 24.7466C58.7115 24.9153 58.6984 25.0948 58.7282 25.2696L59.3039 28.6256L56.2902 27.0411C56.1332 26.9586 55.9586 26.9156 55.7813 26.9156C55.604 26.9156 55.4293 26.9586 55.2723 27.0411L52.2586 28.6256L52.8343 25.2696C52.8641 25.0948 52.851 24.9153 52.7961 24.7466C52.7412 24.578 52.6462 24.4252 52.5192 24.3013L50.0813 21.9253L53.4512 21.4356Z" fill="#617792"/>
</svg>
