<svg width="40" height="40" viewBox="0 0 40 40" fill="none" xmlns="http://www.w3.org/2000/svg">
<path fill-rule="evenodd" clip-rule="evenodd" d="M30.8984 3.4375C31.1016 3.4375 31.6328 3.9375 34.9844 7.28906C37.3125 9.61719 38.8516 11.2109 38.8828 11.3281C38.9063 11.4375 38.8828 11.6094 38.7031 11.9141L35.1953 11.9922L35.1562 14.6719C35.1172 17.2422 35.1094 17.3594 34.9609 17.4688C34.875 17.5313 34.7109 17.5781 34.5937 17.5781C34.4479 17.5781 34.3229 17.5078 34.2188 17.3672C34.0625 17.1563 34.0547 17.0469 34.0625 14.2813C34.0625 12.2734 34.0859 11.3516 34.1484 11.2344C34.2031 11.1328 34.2812 11.0313 34.3281 11C34.375 10.9688 34.9844 10.9375 35.6875 10.9375C36.3828 10.9375 36.9531 10.9141 36.9531 10.8828C36.9531 10.8438 35.5937 9.46094 30.8984 4.76562L27.8672 7.78906C26.2031 9.46094 24.8672 10.8438 24.8984 10.8828C24.9297 10.9141 25.5156 10.9375 26.1953 10.9375C27.3203 10.9375 27.4375 10.9531 27.5781 11.0938C27.7344 11.25 27.7344 11.3516 27.7344 35.4688H34.0625L34.0859 33.3984C34.1016 31.5781 34.1172 31.3203 34.2344 31.2031C34.3047 31.125 34.4844 31.0703 34.625 31.0703C34.8047 31.0703 34.9297 31.1328 35.0234 31.2578C35.1484 31.4297 35.1641 31.6406 35.1562 35.4688H36.7969C38.3359 35.4688 38.4453 35.4766 38.5938 35.625C38.6797 35.7109 38.75 35.8828 38.75 36.0156C38.75 36.1484 38.6797 36.3203 38.5938 36.4062C38.4375 36.5625 38.3359 36.5625 1.44531 36.5625L1.26563 36.3828C1.16406 36.2891 1.09375 36.1172 1.09375 36C1.09375 35.8516 1.16406 35.7266 1.3125 35.625C1.50781 35.4766 1.63281 35.4609 4.375 35.4688V30.7812C4.375 26.1953 4.375 26.0938 4.53125 25.9375C4.67969 25.7891 4.78906 25.7812 11.7969 25.7812V21.9531L12.1797 21.5625H19.2188V17.5781L19.6016 17.1875H26.6406V11.9531H24.9219C23.2422 11.9531 23.2031 11.9531 23.0391 11.7813C22.9062 11.6406 22.8828 11.5469 22.9219 11.3672C22.9609 11.1953 23.9531 10.1563 26.8203 7.28906C30.1797 3.92188 30.6953 3.4375 30.8984 3.4375V3.4375ZM20.3125 35.4688H26.6406V18.2812H20.3125V35.4688ZM12.8906 35.4688H19.2188V22.6562H12.8906V35.4688ZM5.46875 35.4688H11.7969V26.875H5.46875V35.4688ZM34.6172 20.3125C34.7422 20.3125 34.9141 20.3828 35 20.4688C35.1406 20.6094 35.1562 20.7266 35.1562 21.625C35.1562 22.5469 35.1406 22.6328 34.9766 22.7969C34.8828 22.8906 34.7266 22.9688 34.625 22.9688C34.5313 22.9688 34.3672 22.8828 34.2578 22.7734C34.0703 22.5859 34.0625 22.5313 34.0547 21.6484C34.0469 20.8125 34.0625 20.7031 34.2188 20.5156C34.3281 20.3802 34.4609 20.3125 34.6172 20.3125ZM34.625 25.7031C34.75 25.7031 34.9141 25.7734 35 25.8594C35.1406 26 35.1562 26.1172 35.1562 28.0469L34.9375 28.2031C34.8203 28.2969 34.6641 28.3672 34.5859 28.3594C34.5156 28.3594 34.3672 28.2734 34.2578 28.1641C34.0703 27.9766 34.0625 27.9219 34.0625 27.0703C34.0625 26.5469 34.1016 26.1016 34.1484 26C34.2031 25.8984 34.2812 25.7969 34.3281 25.7656C34.375 25.7344 34.5078 25.7031 34.625 25.7031V25.7031Z" fill="#36D1C2"/>
</svg>
