<svg width="70" height="70" viewBox="0 0 70 70" fill="none" xmlns="http://www.w3.org/2000/svg">
<g clip-path="url(#clip0_1599_3184)">
<path fill-rule="evenodd" clip-rule="evenodd" d="M28.2434 59.4149C28.7603 57.4999 28.5768 57.1976 29.3237 56.9857H40.6944C41.4051 57.1898 41.4568 58.2313 41.7721 59.4149L43.7955 67.4519H26.1166L28.2434 59.4149ZM2.4473 48.8426H67.5708C67.5992 51.4528 67.7413 51.8637 67.3744 54.3471C65.307 55.1224 39.6969 54.6598 35.009 54.6598C30.3212 54.6598 4.74212 55.1302 2.61269 54.3523L2.44471 52.719V48.8426H2.4473ZM28.1685 46.5168C29.3547 38.8855 40.6479 38.8777 41.8909 46.5168H28.1685ZM25.1888 36.2159C28.2486 37.0222 27.3803 38.0249 30.6468 36.7328C31.9105 36.234 32.1974 36.3581 32.6935 35.1641C33.0528 34.2726 33.4068 33.5386 33.7531 32.5799L36.265 32.6083C37.6734 36.3994 37.4744 35.9239 39.5651 36.8C42.6275 38.0921 42.1494 36.8206 44.8577 36.1927L46.5219 37.9526C45.5425 40.5911 44.7517 40.436 45.9017 43.1211C47.1215 45.9638 45.9844 44.4132 49.9461 46.5065L44.2039 46.5323C43.2864 39.3274 34.593 35.513 28.6569 40.9477C26.3983 43.0151 26.9591 43.5811 25.7031 46.5297L20.072 46.4341C24.0156 44.3202 22.7415 46.3204 24.1138 43.1211C25.2638 40.436 24.4704 40.5988 23.4729 37.937L25.1862 36.2263L25.1888 36.2159ZM2.5119 3.15024C2.88662 1.8426 5.18662 2.32586 6.3237 2.32586H63.9528C65.599 2.32586 67.3899 1.80901 67.5708 3.60249C67.8576 6.44518 67.5708 41.0252 67.5708 46.5246L52.4606 46.3928V45.2247C52.0083 43.9325 48.9434 44.483 48.0389 42.2683C47.2946 40.4438 48.9512 39.1672 49.2225 37.1566L45.7415 33.4818C43.4932 33.8358 42.0486 35.513 40.069 34.4974C38.9061 33.9004 38.7924 32.3214 38.1282 31.019C37.5933 29.9646 38.0688 30.5357 37.353 30.2437H32.7013C31.9467 30.3936 31.8562 31.1327 31.329 32.4791C30.9362 33.4766 30.8561 34.1123 29.8017 34.5853C27.8894 35.4458 26.5146 33.81 24.3748 33.5515L20.7982 37.1023C21.1987 39.2705 22.7725 40.5161 21.9094 42.4569C21.3538 43.7051 21.1341 43.3898 19.8058 43.9868C17.2887 45.1136 17.573 44.6329 17.573 46.5168H2.44471L2.5119 3.15024ZM26.3595 56.9857L23.6589 67.4494H21.054V69.7752H48.9641V67.4494H46.3488L43.5345 57.0141L65.5008 56.9857C68.0308 56.9857 69.6356 56.1096 69.8656 53.7528C70.124 51.1116 69.9587 3.22519 69.7442 2.49125C68.9689 -0.178292 66.3846 -0.00256191 64.7255 2.23533e-05H5.54583C-1.0027 2.23533e-05 0.121458 2.77811 0.121458 9.30338V38.764C0.121458 43.4157 -0.157642 48.9744 0.121458 53.4943C0.418649 58.146 5.73965 56.9727 11.4922 56.9727L26.3595 56.9857Z" fill="#617792"/>
<path fill-rule="evenodd" clip-rule="evenodd" d="M10.2001 25.5843C8.19471 25.5843 8.24639 25.2147 8.25414 23.2584V11.6292H31.5125V19.6404C31.5125 24.7547 32.0862 25.5843 29.7036 25.5843H10.2001ZM8.26965 9.30339C8.26965 7.33935 8.17662 6.97755 10.275 6.97755H29.5924C31.6185 6.97755 31.528 7.34451 31.5306 9.30339H8.26965ZM8.47381 4.84811C5.01606 5.92575 5.94381 10.1614 5.94381 15.2472V21.4494C5.94381 29.1376 7.04729 27.9101 18.7359 27.9101C20.917 27.9101 30.055 28.1685 31.4712 27.7214C34.7429 26.6877 33.8513 21.9327 33.8513 17.3146V11.1124C33.8513 3.41902 32.7504 4.65171 21.0618 4.65171C18.785 4.65171 9.94942 4.39328 8.47122 4.8507L8.47381 4.84811Z" fill="#617792"/>
<path fill-rule="evenodd" clip-rule="evenodd" d="M40.6944 11.1124C41.3715 11.4303 47.6719 17.6532 47.8012 18.3484V27.8016C46.0504 27.6357 44.3725 27.0194 42.9305 26.0127C41.4886 25.0059 40.3319 23.6431 39.5729 22.0568C37.8104 18.4233 38.2807 13.8853 40.6944 11.1124V11.1124ZM42.5784 9.30342C43.3123 8.28264 45.6795 7.37556 47.2998 7.11713C49.3683 6.76996 51.4936 7.07241 53.3832 7.98286C56.3602 9.36286 58.823 12.0918 59.3554 16.2835H49.7394C48.8917 15.839 43.4673 10.2854 42.5784 9.30601V9.30342ZM50.1347 30.236V18.7386L61.7639 18.6068C61.7639 13.0739 59.6759 8.36017 54.6081 5.99298C43.1055 0.62029 32.3292 12.5441 37.4899 23.1008C38.6348 25.4422 40.1698 26.9204 42.1416 28.2693C44.3925 29.7941 46.8786 30.2386 50.1167 30.2437L50.1347 30.236Z" fill="#617792"/>
<path fill-rule="evenodd" clip-rule="evenodd" d="M54.7451 23.2585H61.6787C61.0714 26.9514 58.5052 29.6752 54.7761 30.1171L54.7451 23.2585ZM52.4606 32.5618C57.3862 32.5618 61.2471 30.7916 63.1439 26.5896C64.0407 24.5919 64.0898 23.2585 64.0898 20.9326H52.4192L52.4528 32.5618H52.4606Z" fill="#617792"/>
<path fill-rule="evenodd" clip-rule="evenodd" d="M5.93606 33.7273H19.7619L19.8885 31.4041H6.06527L5.93606 33.7273Z" fill="#617792"/>
<path fill-rule="evenodd" clip-rule="evenodd" d="M52.4528 43.0306H64.082L64.0794 40.7074H52.4528V43.0306Z" fill="#617792"/>
<path fill-rule="evenodd" clip-rule="evenodd" d="M52.4528 38.3789H64.082L64.0794 36.0557H52.4528V38.3789Z" fill="#617792"/>
<path fill-rule="evenodd" clip-rule="evenodd" d="M5.93606 38.3789H16.4023L16.3997 36.0557H5.93606V38.3789Z" fill="#617792"/>
<path fill-rule="evenodd" clip-rule="evenodd" d="M5.93606 43.0306H16.4023L16.3997 40.7074H5.93606V43.0306Z" fill="#617792"/>
<path fill-rule="evenodd" clip-rule="evenodd" d="M10.2027 18.5629C10.9495 19.55 13.6966 22.3953 14.7303 22.8501L15.9527 21.5296C15.3841 20.1703 14.2626 19.7542 13.5441 18.6094L15.9397 16.0251L14.3892 14.3763L10.2027 18.5629Z" fill="#617792"/>
<path fill-rule="evenodd" clip-rule="evenodd" d="M23.8063 15.9734L26.3285 18.5344C25.5377 19.7594 24.4239 20.1728 23.7882 21.5709L25.1191 22.7985C26.2122 22.3436 26.6257 21.6071 27.4139 20.837C28.1556 20.1134 28.9644 19.3769 29.533 18.6094L25.4576 14.4229L23.8063 15.9734Z" fill="#617792"/>
<path fill-rule="evenodd" clip-rule="evenodd" d="M17.6014 21.7285L19.8187 22.4831L22.0567 16.8235L20.0461 15.9216L17.6014 21.7285Z" fill="#617792"/>
</g>
<defs>
<clipPath id="clip0_1599_3184">
<rect width="70" height="69.7778" fill="white"/>
</clipPath>
</defs>
</svg>
