<svg width="70" height="70" viewBox="0 0 70 70" fill="none" xmlns="http://www.w3.org/2000/svg">
<g clip-path="url(#clip0_1599_3122)">
<path fill-rule="evenodd" clip-rule="evenodd" d="M2.28683 7.389C2.28683 5.73587 2.57738 5.63568 4.16789 5.63568H31.9705C33.556 5.63568 33.8491 5.74088 33.8491 7.389V33.1878C33.8491 34.8335 33.556 34.9412 31.9705 34.9412H4.16789C2.57988 34.9412 2.28683 34.836 2.28683 33.1878V7.389ZM2.4847 3.57177C-0.27051 4.4309 0.0350683 6.70771 0.0350683 9.89374V27.4269C0.0350683 38.816 -1.55795 37.1954 16.4411 37.1954C35.4972 37.1954 36.1008 39.0439 36.1008 30.6831C36.1008 26.2372 36.5592 6.25185 35.5222 4.83416C34.082 2.86794 31.4295 3.38141 28.4639 3.38141C24.1282 3.38141 3.91742 3.13094 2.4847 3.57177V3.57177Z" fill="#617792"/>
<path fill-rule="evenodd" clip-rule="evenodd" d="M42.7409 2.25427L42.9914 2.13153L67.7883 2.25427V36.0683L67.5378 36.191L42.7409 36.0683V2.25427ZM40.6119 1.87856V36.444C40.6119 37.9293 41.0026 38.32 42.4904 38.32H68.0388C69.5216 38.32 69.9148 37.9268 69.9148 36.444V1.87605C69.9148 0.39074 69.5241 0 68.0388 0H42.4904C40.92 0 40.6119 0.308083 40.6119 1.87605V1.87856Z" fill="#617792"/>
<path fill-rule="evenodd" clip-rule="evenodd" d="M36.1008 45.7116C36.1008 44.0584 36.3914 43.9582 38.1046 43.9582H65.782C67.3675 43.9582 67.6606 44.0634 67.6606 45.7116C67.6606 50.0999 68.0238 63.8434 67.4627 67.1947C66.9642 67.5175 66.3744 67.6695 65.782 67.628L36.2436 67.2022C35.8954 63.6956 36.0983 50.17 36.0983 45.7116H36.1008ZM34.0019 67.5028C34.7032 70.0075 37.0226 69.8798 39.7352 69.8798H63.7807C66.4558 69.8798 68.8954 70.1303 69.7095 67.6631C70.1328 66.3807 70.0476 45.0303 69.7545 43.9983C69.0833 41.6363 66.6787 41.704 64.0312 41.704H39.9857C37.2154 41.704 34.9762 41.5963 34.087 43.818C33.5861 45.0428 33.7238 66.5134 34.0019 67.5028Z" fill="#617792"/>
<path fill-rule="evenodd" clip-rule="evenodd" d="M5.61313 59.7055C3.94247 58.0624 1.87606 55.6754 2.35697 51.9633C3.83977 40.4415 26.2071 39.7152 29.1001 51.0842C31.0337 58.6961 22.0417 63.8709 13.9264 63.0268C12.3083 62.859 10.7779 62.1752 9.37525 62.2478C8.19552 63.4776 6.84296 64.6048 5.69328 65.9198L5.61313 59.7055ZM10.1793 64.7375C11.905 64.7225 13.8788 65.4038 16.1907 65.3662C21.4832 65.2785 26.1194 63.2071 29.2278 59.4976C33.6312 54.2376 31.5798 46.3928 25.0073 42.9037C14.262 37.2004 1.17222 42.816 0.112719 51.7104C-0.113817 53.5799 0.180909 55.4757 0.964331 57.1882C3.15598 62.1226 3.41647 57.1156 3.41647 65.499L3.46406 68.9705C4.08273 71.5654 7.27628 67.7056 7.32387 67.658C8.32577 66.6562 9.26003 65.8196 10.1793 64.7375V64.7375Z" fill="#617792"/>
<path fill-rule="evenodd" clip-rule="evenodd" d="M21.4506 25.3405C13.2751 18.1043 14.798 16.2809 11.2713 19.765L5.00948 26.0093C3.9099 27.3368 4.96189 29.4959 7.31886 27.0788C8.32075 26.0544 12.8067 21.3179 13.6809 20.9197C15.5369 22.9886 17.5758 24.8296 19.5445 26.8233C21.0148 28.3262 21.3955 28.8271 23.0987 27.0738C24.038 26.1145 25.0023 25.085 25.9541 24.246C26.7907 24.9648 27.5997 25.854 28.4338 26.6931C29.3455 27.6073 29.9216 28.6668 31.4771 27.73C31.695 25.8966 30.4 25.2879 29.4908 24.3862C26.1796 21.0975 26.3674 20.4488 23.9278 22.8834C23.0912 23.72 22.2822 24.6091 21.4456 25.328L21.4506 25.3405Z" fill="#617792"/>
<path fill-rule="evenodd" clip-rule="evenodd" d="M48.5469 48.5119C49.4135 48.7248 55.48 52.1913 56.3116 52.9728C56.0091 53.2802 55.6621 53.5402 55.2822 53.7443C54.9415 53.9547 54.681 54.0924 54.3329 54.2828C52.9152 55.0643 49.5889 57.1983 48.5093 57.4413L48.5469 48.5119ZM46.2475 49.4687V56.4819C46.2475 61.8346 50.5056 59.1119 52.294 58.0249C53.4362 57.3386 54.5282 56.7349 55.8006 56.0211C62.4432 52.3616 56.1989 50.2051 52.4368 48.0184C51.0592 47.2169 46.2425 43.7604 46.2425 49.4587L46.2475 49.4687Z" fill="#617792"/>
<path fill-rule="evenodd" clip-rule="evenodd" d="M58.2703 61.9923H43.4923C42.1924 61.9923 39.625 61.5164 39.5098 63.0118C39.377 64.72 41.9269 64.2441 43.2419 64.2441H58.2703C59.1244 64.745 58.7713 65.3261 59.7731 65.3261C60.775 65.3261 60.4219 64.7375 61.276 64.2441C62.4933 64.2441 64.1514 64.5472 64.2541 63.2247C64.3769 61.6717 62.5008 61.9923 61.276 61.9923C60.4194 61.4914 60.775 60.9103 59.7731 60.9103C58.7713 60.9103 59.1244 61.4964 58.2703 61.9923V61.9923Z" fill="#617792"/>
<path fill-rule="evenodd" clip-rule="evenodd" d="M24.7143 14.5276C24.033 15.1788 23.3692 16.1832 21.7712 15.6246C21.2147 15.4024 20.7668 14.972 20.5226 14.4247C20.2785 13.8775 20.2574 13.2566 20.4637 12.6941C21.1125 10.7153 25.1902 10.3446 24.7143 14.5276ZM21.1525 9.29515C15.3591 11.3641 18.5677 19.6923 24.0731 17.7837C26.0092 17.1099 27.7726 14.753 26.8283 12.0353C26.142 10.0466 23.795 8.35086 21.1525 9.29515Z" fill="#617792"/>
<path fill-rule="evenodd" clip-rule="evenodd" d="M48.0009 18.0342H62.5284C64.983 18.0342 64.983 15.7799 62.5284 15.7799H48.0009C45.5412 15.7799 45.5437 18.0342 48.0009 18.0342Z" fill="#617792"/>
<path fill-rule="evenodd" clip-rule="evenodd" d="M48.0009 28.1758H62.5284C64.963 28.1758 64.9605 25.9215 62.5284 25.9215H48.0009C45.5613 25.924 45.5663 28.1758 48.0009 28.1758Z" fill="#617792"/>
<path fill-rule="evenodd" clip-rule="evenodd" d="M48.0009 7.88745H58.0198C60.4544 7.88745 60.4519 5.63318 58.0198 5.63318H48.1261C45.5612 5.63568 45.5663 7.88745 48.0009 7.88745Z" fill="#617792"/>
<path fill-rule="evenodd" clip-rule="evenodd" d="M42.9914 2.37455H67.5378V35.9381H42.9914V2.37455V2.37455ZM42.7409 36.0683L67.5378 36.1911L67.7883 36.0683V2.25432L42.9914 2.13159L42.7409 2.25432V36.0683Z" fill="#617792"/>
<path fill-rule="evenodd" clip-rule="evenodd" d="M48.0009 23.6672H54.5132C55.5827 23.6672 56.279 23.7299 56.3567 22.6654C56.4519 21.3929 55.6303 21.413 54.5132 21.413H48.0635C45.5587 21.413 45.5587 23.6672 48.0009 23.6672Z" fill="#617792"/>
<path fill-rule="evenodd" clip-rule="evenodd" d="M56.016 13.5256H62.5284C64.983 13.5256 64.983 11.2714 62.5284 11.2714H56.0311C53.3961 11.2714 53.4011 13.5256 56.016 13.5256Z" fill="#617792"/>
<path fill-rule="evenodd" clip-rule="evenodd" d="M48.0009 32.6844C50.9865 32.6844 53.9872 33.2229 54.1024 31.6825C54.2402 29.844 51.3973 30.4302 48.0009 30.4302C45.5613 30.4302 45.5663 32.6844 48.0009 32.6844Z" fill="#617792"/>
<path fill-rule="evenodd" clip-rule="evenodd" d="M48.0009 13.5256C49.5889 13.5256 50.726 13.7761 50.726 12.3985C50.726 11.0209 49.5939 11.2714 47.9959 11.2714C45.5437 11.2714 45.5412 13.5256 47.9959 13.5256H48.0009Z" fill="#617792"/>
<path fill-rule="evenodd" clip-rule="evenodd" d="M15.4017 51.3747C13.1724 52.0259 14.0791 55.1894 16.3109 54.5958C18.2846 54.0773 17.6559 50.7184 15.4017 51.3747Z" fill="#617792"/>
<path fill-rule="evenodd" clip-rule="evenodd" d="M61.5265 23.6674H62.5284C64.963 23.6674 64.9605 21.4131 62.5284 21.4131H61.5265C59.0869 21.4156 59.0919 23.6674 61.5265 23.6674Z" fill="#617792"/>
<path fill-rule="evenodd" clip-rule="evenodd" d="M23.264 51.4423C20.7342 52.4442 22.5126 55.217 24.2659 54.5507C26.1821 53.8268 25.2578 50.6458 23.264 51.4423Z" fill="#617792"/>
<path fill-rule="evenodd" clip-rule="evenodd" d="M7.48417 51.4423C4.95438 52.4442 6.72022 55.217 8.48607 54.5507C10.4022 53.8268 9.47794 50.6458 7.48417 51.4423Z" fill="#617792"/>
</g>
<defs>
<clipPath id="clip0_1599_3122">
<rect width="70" height="69.8873" fill="white"/>
</clipPath>
</defs>
</svg>
