<svg width="70" height="70" viewBox="0 0 70 70" fill="none" xmlns="http://www.w3.org/2000/svg">
<path fill-rule="evenodd" clip-rule="evenodd" d="M33.856 0.270702L33.4956 0.554035V2.59534C33.4956 4.45424 33.5201 4.661 33.7691 4.91001C34.1815 5.32242 34.9082 5.2747 35.273 4.811C35.5469 4.46272 35.5631 4.31079 35.5222 2.47392C35.4805 0.599981 35.4635 0.497423 35.1556 0.248276C34.7373 -0.0900278 34.305 -0.0826437 33.856 0.270702ZM10.1747 6.33966C9.59612 6.91809 9.71564 7.20812 11.3429 9.17613C12.8677 11.0203 13.3488 11.3996 13.8992 11.1915C14.3165 11.0337 14.6716 10.4474 14.5774 10.0718C14.4825 9.69412 11.5964 6.21468 11.276 6.09174C10.848 5.92752 10.5108 6.00341 10.1747 6.33966ZM57.3837 6.31163C57.0737 6.59988 55.3913 8.59757 54.7195 9.47519C54.0693 10.3244 54.4773 11.2561 55.4638 11.1751C55.9559 11.1346 56.0895 11.0122 57.5268 9.2858C59.2115 7.26213 59.3675 6.8813 58.7503 6.30124C58.3428 5.91849 57.802 5.92259 57.3837 6.31163ZM17.4194 13.9916C16.8958 14.2197 16.9672 14.1052 12.3149 22.1697C7.89435 29.8321 8.01755 29.5099 9.0527 30.7011C11.0202 32.9653 32.4546 56.9586 33.1348 57.6582C34.0474 58.5969 34.5706 58.8047 35.2812 58.5103C35.5309 58.4069 36.8211 57.0821 38.5389 55.1655L41.3829 51.992L41.983 53.3002C42.9456 55.3985 44.7064 57.5154 46.5369 58.7747C47.5177 59.4495 49.2329 60.2547 50.5403 60.6538C51.6473 60.9919 51.9499 61.0241 54.0756 61.0303C55.9191 61.0356 56.5841 60.9856 57.289 60.7888C60.6413 59.8527 63.2424 58.0732 65.1127 55.4368C66.918 52.8917 67.6481 50.3364 67.5049 47.0644C67.3612 43.7797 66.6457 42.5361 65.4437 43.4817C65.0166 43.8177 64.9922 44.1595 65.3017 45.4802C65.5735 46.6412 65.4991 49.4317 65.1638 50.6508C64.1209 54.4417 61.0295 57.5757 57.2657 58.6581C55.8264 59.0719 53.4446 59.1644 51.9481 58.8647C49.7288 58.4201 47.7988 57.3742 46.1373 55.7158C41.0102 50.5976 41.9167 42.149 48.0196 38.1718C50.029 36.8624 52.3894 36.254 54.8703 36.4063C57.9457 36.595 60.3634 37.7547 62.5801 40.1045C63.6547 41.2438 63.9575 41.3584 64.5864 40.8636C64.8566 40.6511 64.9467 40.4569 64.9467 40.0872C64.9467 39.6428 64.8088 39.4588 63.5451 38.2169C61.8725 36.5734 60.3868 35.6432 58.3901 34.9892L57.0258 34.5424L57.3283 34.1835C57.4947 33.9862 58.3078 33.0673 59.1351 32.1414C60.8818 30.1867 60.9722 30.0475 60.9689 29.3188C60.9668 28.8518 60.3525 27.7137 56.7689 21.5368C53.1186 15.245 52.5093 14.2689 52.095 14.0501C51.6395 13.8094 50.873 13.7986 34.7285 13.8037C20.9542 13.8081 17.7612 13.8428 17.4194 13.9916ZM29.6203 21.5886C27.8033 24.7452 26.2858 27.3275 26.2482 27.3272C26.2106 27.3269 24.6933 24.7444 22.8764 21.5881L19.5729 15.8495H26.2484H32.9239L29.6203 21.5886ZM46.5763 21.5881C44.7593 24.7444 43.242 27.3269 43.2044 27.3272C43.1668 27.3275 41.6494 24.7452 39.8323 21.5886L36.5287 15.8495H43.2043H49.8797L46.5763 21.5881ZM21.1333 22.6525L24.4264 28.3615L21.0982 28.3981C19.2677 28.4183 16.2726 28.4183 14.4423 28.3981L11.1144 28.3615L14.4081 22.6537C16.2196 19.5145 17.7329 16.9454 17.7711 16.9447C17.8092 16.944 19.3223 19.5125 21.1333 22.6525ZM38.09 22.6537L41.3853 28.3615L36.471 28.4299L31.5567 28.4983L31.2956 28.8211C30.9402 29.2601 30.9674 29.7428 31.37 30.1454L31.7055 30.4811H36.786C40.9197 30.4811 41.8534 30.5144 41.7975 30.6603C41.7596 30.7589 40.1742 36.1278 38.2744 42.5912C36.3745 49.0546 34.7836 54.3858 34.739 54.4382C34.6945 54.4907 33.0151 48.9223 31.0073 42.0641L27.3567 29.5946L31.0073 23.2702C33.0151 19.7917 34.6887 16.9458 34.7263 16.9459C34.7639 16.9459 36.2775 19.5145 38.09 22.6537ZM55.0445 22.6537L58.3383 28.3615L55.0103 28.3981C53.18 28.4183 50.1849 28.4183 48.3545 28.3981L45.0263 28.3615L48.3193 22.6525C50.1304 19.5125 51.6434 16.944 51.6816 16.9447C51.7197 16.9454 53.2331 19.5145 55.0445 22.6537ZM0.689597 26.1121C-0.0194187 26.4073 -0.222346 27.1895 0.272256 27.7204C0.541777 28.0097 0.645429 28.0197 3.39617 28.0197C6.07361 28.0197 6.25589 28.0034 6.4904 27.7444C6.83171 27.3673 6.80778 26.7054 6.43967 26.3369C6.15483 26.0519 6.01193 26.0354 3.5794 26.006C2.10079 25.9881 0.879808 26.0329 0.689597 26.1121ZM63.4909 26.0632C62.7777 26.2026 62.4655 27.1955 62.9623 27.7444C63.1968 28.0034 63.3791 28.0197 66.0565 28.0197C68.8072 28.0197 68.9109 28.0097 69.1804 27.7204C69.6903 27.1731 69.4682 26.3946 68.7212 26.1106C68.3673 25.9761 64.1326 25.9376 63.4909 26.0632ZM28.8029 41.8308C30.6222 48.0355 32.1424 53.2306 32.1813 53.3753C32.2718 53.7129 33.413 54.9704 22.0766 42.241C16.7518 36.2619 12.2072 31.1693 11.9778 30.9243L11.5606 30.4785L18.5278 30.514L25.495 30.5494L28.8029 41.8308ZM57.4764 30.9255C57.2491 31.1699 56.484 32.016 55.7761 32.8057L54.4892 34.2415L53.247 34.3349C48.3073 34.7063 44.0855 37.6335 41.9661 42.1561C41.1287 43.9429 40.8496 45.252 40.8028 47.6101L40.7629 49.6292L39.032 51.5415C38.08 52.5935 37.2774 53.454 37.2487 53.454C37.2199 53.454 37.2231 53.3772 37.256 53.2831C37.2888 53.1891 38.8003 48.0663 40.6151 41.8992C42.4299 35.732 43.9431 30.64 43.9779 30.5836C44.0126 30.5273 47.157 30.4811 50.9653 30.4811H57.8896L57.4764 30.9255ZM53.6653 39.2506C53.2208 39.499 53.05 39.8006 53.05 40.3367C53.05 40.814 53.0083 40.862 52.2827 41.2168C51.044 41.823 50.342 43.0013 50.3285 44.4973C50.3159 45.8976 50.918 46.7909 52.4024 47.5738L53.05 47.9155V50.2744C53.05 51.572 53.0087 52.6336 52.9584 52.6336C52.9079 52.6336 52.4498 52.4414 51.9403 52.2066C50.8939 51.7242 50.455 51.7459 50.0932 52.2981C49.5558 53.1184 50.6229 54.2002 52.3161 54.5518C53.0488 54.7039 53.05 54.7049 53.05 55.2262C53.05 55.8666 53.3823 56.2965 53.964 56.4089C54.6007 56.5318 55.1003 56.0033 55.1035 55.2037C55.1058 54.6228 55.1141 54.6128 55.8598 54.2899C57.4147 53.6167 58.4665 51.8765 58.3487 50.1722C58.2412 48.6182 57.4695 47.5517 55.9558 46.865L55.1011 46.4774V44.6931V42.909L55.7664 43.2829C56.366 43.62 56.4728 43.6399 56.8486 43.4842C57.3188 43.2894 57.6346 42.6834 57.495 42.2435C57.37 41.8497 56.4699 41.2181 55.717 40.9957C55.1319 40.823 55.1011 40.7888 55.1011 40.3119C55.1011 39.465 54.3176 38.8859 53.6653 39.2506ZM53.05 44.3563C53.05 45.3388 53.0183 45.5021 52.841 45.4341C52.3369 45.2406 52.2087 44.2594 52.6009 43.5953C52.7299 43.377 52.8837 43.1982 52.9428 43.1982C53.0017 43.1982 53.05 43.7194 53.05 44.3563ZM55.8618 49.224C56.2125 49.5899 56.2635 49.7446 56.2635 50.442C56.2635 51.1291 56.2051 51.313 55.8452 51.7574C55.1385 52.6307 55.1011 52.5723 55.1011 50.5937C55.1011 48.6044 55.1625 48.4939 55.8618 49.224ZM27.6157 60.6558C24.1581 61.2686 21.4539 64.4571 21.6203 67.7249C21.6787 68.8698 21.9311 69.3088 22.7703 69.7245C23.243 69.9587 23.597 70 25.1353 70C26.8737 70 26.9575 69.9869 27.28 69.6643C27.7078 69.2366 27.7078 68.7123 27.28 68.2846C26.9604 67.9648 26.8649 67.9488 25.2783 67.9488H23.6121L23.6844 67.1518C23.8347 65.4939 25.0043 63.9048 26.6585 63.1109L27.5473 62.6842H34.7263H41.9054L42.7942 63.1109C44.4484 63.9048 45.618 65.4939 45.7682 67.1518L45.8406 67.9488H38.3875C31.0545 67.9488 30.9285 67.9534 30.5741 68.2323C30.0739 68.6257 30.0758 69.3246 30.5782 69.7198C30.9399 70.0042 31.0027 70.0062 38.7045 69.9691C46.3364 69.9323 46.4729 69.9268 46.8523 69.6456C47.5705 69.1134 47.8537 68.5392 47.8537 67.6155C47.8537 64.696 45.9165 62.052 42.9586 60.9346C42.1998 60.648 41.9874 60.6395 35.0682 60.6176C31.1573 60.6053 27.8037 60.6225 27.6157 60.6558Z" fill="#090B04"/>
</svg>
