<svg width="75" height="75" viewBox="0 0 75 75" fill="none" xmlns="http://www.w3.org/2000/svg">
<path fill-rule="evenodd" clip-rule="evenodd" d="M34.4379 0.0984111C25.9896 1.14853 18.8072 5.91359 14.6022 13.2579C12.6844 16.6074 11.5606 20.4392 11.2773 24.5944L11.1736 26.1137H9.51516C6.83726 26.1137 5.18127 26.7066 3.57189 28.2417C2.5749 29.1927 1.83877 30.4507 1.48519 31.808C0.466704 35.7183 2.93767 39.792 6.96441 40.8407C7.63712 41.016 8.7904 41.0732 11.6491 41.0732H15.4411L15.8235 40.6906L16.2061 40.3082V33.5934V26.8787L15.8235 26.4963C15.507 26.1796 15.2881 26.1137 14.554 26.1137H13.6669L13.7721 24.6165C14.0703 20.3732 15.4201 16.4139 17.7804 12.8584C19.0877 10.8892 22.171 7.80487 24.1365 6.49997C28.2282 3.78389 32.4717 2.50579 37.3987 2.50579C42.3651 2.50579 46.5345 3.76068 50.654 6.49545C52.6212 7.80145 55.7077 10.8861 57.0099 12.8478C59.3601 16.3882 60.7289 20.4001 61.0253 24.6165L61.1305 26.1137H60.2433C59.5092 26.1137 59.2903 26.1796 58.9738 26.4963L58.5913 26.8787V33.5934V40.3082L58.9738 40.6906C59.2878 41.0048 59.5106 41.0732 60.2204 41.0732H61.0845V43.1839C61.0845 45.2173 61.0705 45.3087 60.7019 45.6771L60.3195 46.0597H55.5786H50.8377L50.6419 45.5869C50.3759 44.9449 49.2394 43.9734 48.4925 43.7497C47.6919 43.5099 44.547 43.5139 43.7278 43.7559C42.8718 44.0088 41.5809 45.2997 41.328 46.1557C40.8967 47.6158 41.2006 48.7801 42.302 49.886C43.3396 50.9282 43.9612 51.0973 46.4619 51.0179C48.0515 50.9675 48.495 50.8987 49.0226 50.6211C49.7131 50.2577 50.5547 49.3913 50.7187 48.8748C50.819 48.5587 50.9072 48.5529 55.5839 48.5529C58.8682 48.5529 60.5463 48.494 60.9885 48.3634C61.8445 48.1105 63.1353 46.8196 63.3883 45.9637C63.4964 45.5976 63.5777 44.4104 63.5777 43.1977V41.0732H65.2591C67.962 41.0732 69.6112 40.4849 71.2255 38.9452C74.2953 36.0172 74.2953 31.1697 71.2255 28.2417C69.6161 26.7066 67.9601 26.1137 65.2822 26.1137H63.6237L63.5201 24.5944C63.0666 17.9435 60.5301 12.3208 55.8691 7.63502C51.9923 3.73746 47.2746 1.27709 41.8398 0.31844C40.1465 0.0197179 36.0501 -0.101983 34.4379 0.0984111ZM32.7947 5.30368C32.4194 5.67892 32.4122 5.73439 32.4122 8.26924C32.4122 10.4697 32.376 10.8663 32.1683 10.9461C31.9997 11.0106 31.3566 10.4789 30.0891 9.22696C28.476 7.63378 28.1902 7.41437 27.7274 7.41437C27.2513 7.41437 26.9129 7.70234 24.1966 10.4184C21.4806 13.1347 21.1926 13.4731 21.1926 13.9492C21.1926 14.412 21.412 14.6978 23.0052 16.3109C24.2571 17.5784 24.7888 18.2215 24.7243 18.3901C24.6445 18.5978 24.2479 18.634 22.0475 18.634C19.5126 18.634 19.4571 18.6411 19.0819 19.0165L18.6993 19.3989V23.6205V27.842L19.0819 28.2244C19.4571 28.5998 19.5126 28.6069 22.0475 28.6069C24.2479 28.6069 24.6445 28.6431 24.7243 28.8508C24.7888 29.0194 24.2571 29.6625 23.0052 30.93C21.412 32.5432 21.1926 32.8289 21.1926 33.2918C21.1926 33.7678 21.4806 34.1063 24.1966 36.8225C26.9129 39.5386 27.2513 39.8266 27.7274 39.8266C28.1902 39.8266 28.476 39.6071 30.0891 38.014C31.3566 36.762 31.9997 36.2304 32.1683 36.2949C32.376 36.3747 32.4122 36.7712 32.4122 38.9717C32.4122 41.5065 32.4194 41.562 32.7947 41.9372L33.1771 42.3198H37.3987H41.6202L42.0026 41.9372C42.378 41.562 42.3852 41.5065 42.3852 38.9717C42.3852 36.7712 42.4213 36.3747 42.629 36.2949C42.7976 36.2304 43.4407 36.762 44.7082 38.014C46.3214 39.6071 46.6072 39.8266 47.07 39.8266C47.546 39.8266 47.8845 39.5386 50.6007 36.8225C53.3168 34.1063 53.6048 33.7678 53.6048 33.2918C53.6048 32.8289 53.3854 32.5432 51.7922 30.93C50.5403 29.6625 50.0086 29.0194 50.0731 28.8508C50.1529 28.6431 50.5495 28.6069 52.7499 28.6069C55.2847 28.6069 55.3402 28.5998 55.7155 28.2244L56.098 27.842V23.6205V19.3989L55.7155 19.0165C55.3402 18.6411 55.2847 18.634 52.7499 18.634C50.5495 18.634 50.1529 18.5978 50.0731 18.3901C50.0086 18.2215 50.5403 17.5784 51.7922 16.3109C53.3854 14.6978 53.6048 14.412 53.6048 13.9492C53.6048 13.4731 53.3168 13.1347 50.6007 10.4184C47.8845 7.70234 47.546 7.41437 47.07 7.41437C46.6072 7.41437 46.3214 7.63378 44.7082 9.22696C43.4407 10.4789 42.7976 11.0106 42.629 10.9461C42.4213 10.8663 42.3852 10.4697 42.3852 8.26924C42.3852 5.73439 42.378 5.67892 42.0026 5.30368L41.6202 4.92113H37.3987H33.1771L32.7947 5.30368ZM39.8919 9.74306C39.8919 12.4853 39.9343 12.5726 41.606 13.2643C43.4993 14.048 43.4015 14.0777 45.3961 12.1098L47.1487 10.3807L48.8924 12.131L50.6362 13.8812L48.9081 15.6271C46.9409 17.6145 46.9704 17.5178 47.7548 19.4131C48.4466 21.0848 48.5338 21.1272 51.2761 21.1272H53.6048V23.6205V26.1137H51.2761C48.5338 26.1137 48.4466 26.1561 47.7548 27.8278C46.9704 29.7231 46.9409 29.6264 48.9081 31.6138L50.6362 33.3597L48.8924 35.11L47.1487 36.8602L45.3961 35.1311C43.4015 33.1632 43.4993 33.193 41.606 33.9766C39.9343 34.6683 39.8919 34.7556 39.8919 37.4979V39.8266H37.3987H34.9054V37.4979C34.9054 34.7556 34.863 34.6683 33.1913 33.9766C31.296 33.1922 31.3928 33.1627 29.4053 35.1299L27.6594 36.858L25.9092 35.1142L24.1589 33.3704L25.888 31.6179C27.8559 29.6233 27.8262 29.7211 27.0425 27.8278C26.3508 26.1561 26.2635 26.1137 23.5213 26.1137H21.1926V23.6205V21.1272H23.5213C26.2635 21.1272 26.3508 21.0848 27.0425 19.4131C27.8262 17.5198 27.8559 17.6177 25.888 15.6231L24.1589 13.8705L25.9092 12.1268L27.6594 10.3829L29.4053 12.111C31.3928 14.0782 31.296 14.0487 33.1913 13.2643C34.863 12.5726 34.9054 12.4853 34.9054 9.74306V7.41437H37.3987H39.8919V9.74306ZM35.5462 16.3871C31.5952 17.4497 29.1507 21.5406 30.1575 25.4059C31.1222 29.1098 34.6901 31.53 38.3978 30.9958C41.7131 30.5183 44.295 27.9456 44.7703 24.6463C45.5171 19.462 40.5732 15.0351 35.5462 16.3871ZM39.5023 19.1139C43.1995 20.8682 43.3346 25.9914 39.7361 27.9709C38.7966 28.4876 38.6272 28.5278 37.3987 28.5256C36.1904 28.5234 35.9877 28.4765 35.0885 27.9917C31.2129 25.9019 31.6676 20.4009 35.8412 18.8844C36.8246 18.5271 38.4851 18.6312 39.5023 19.1139ZM8.72636 33.6112V38.6153L7.98618 38.5059C7.01023 38.3618 5.54373 37.5705 4.97589 36.8816C4.10388 35.8236 3.83368 35.0458 3.83368 33.5934C3.83368 32.5095 3.90224 32.1274 4.21156 31.4898C4.99272 29.8793 6.70745 28.6987 8.37574 28.6228L8.72636 28.6069V33.6112ZM13.7128 33.5934V38.5799H12.4662H11.2196V33.5934V28.6069H12.4662H13.7128V33.5934ZM63.5777 33.5934V38.5799H62.3311H61.0845V33.5934V28.6069H62.3311H63.5777V33.5934ZM68.1728 29.0899C69.1908 29.5684 69.8732 30.228 70.4423 31.2833C70.928 32.1841 70.9738 32.3828 70.9738 33.5934C70.9738 34.8031 70.9278 35.0032 70.4443 35.8998C70.1531 36.4399 69.706 37.0575 69.4511 37.2721C68.7551 37.8575 67.6319 38.3812 66.8063 38.505L66.071 38.6153V33.5934V28.5716L66.8045 28.6816C67.2081 28.7421 67.8237 28.9258 68.1728 29.0899ZM48.2357 46.4422C48.4769 46.6833 48.6183 47.0027 48.6183 47.3063C48.6183 47.6098 48.4769 47.9293 48.2357 48.1704C47.8756 48.5305 47.7522 48.5529 46.125 48.5529C44.4979 48.5529 44.3745 48.5305 44.0143 48.1704C43.7731 47.9293 43.6318 47.6098 43.6318 47.3063C43.6318 47.0027 43.7731 46.6833 44.0143 46.4422C44.3745 46.0821 44.4979 46.0597 46.125 46.0597C47.7522 46.0597 47.8756 46.0821 48.2357 46.4422ZM10.3555 50.1821C10.0414 50.4961 9.97298 50.7189 9.97298 51.4287V52.2928H5.36905H0.764959L0.382557 52.6753L0 53.0577V62.2658V71.4738L0.382557 71.8562L0.764959 72.2387H5.36905H9.97298V73.1028C9.97298 73.8126 10.0414 74.0354 10.3555 74.3494L10.7379 74.732H16.2061H21.6742L22.0566 74.3494C22.3906 74.0156 22.4392 73.8271 22.4392 72.8672V71.7674L23.5478 72.3257C25.8705 73.4953 25.7552 73.4857 37.3067 73.483C48.4886 73.4805 48.6738 73.4682 50.3743 72.6077C50.8226 72.3808 54.5904 70.2314 58.7471 67.831C62.9038 65.4306 67.6371 62.6983 69.2655 61.7592C73.6399 59.2365 74.2535 58.5123 74.2499 55.8768C74.2477 54.2799 74.0458 53.6843 73.1426 52.6108C71.9091 51.1448 69.3643 50.5047 67.6741 51.2352C67.4351 51.3385 64.451 53.0294 61.0424 54.9928L54.8452 58.5628L54.0936 57.8597C53.6803 57.4731 53.1382 57.0519 52.889 56.9237C52.6399 56.7956 48.0534 55.5147 42.6968 54.0775C30.5354 50.8143 31.5048 50.9207 26.1401 52.261L22.4392 53.1857V51.8752C22.4392 50.6913 22.4021 50.5274 22.0566 50.1821L21.6742 49.7995H16.2061H10.7379L10.3555 50.1821ZM19.946 62.2658V72.2387H16.2061H12.4662V62.2658V52.2928H16.2061H19.946V62.2658ZM70.6674 53.8324C70.9242 53.9804 71.2985 54.3433 71.4992 54.6386C71.8003 55.0815 71.8536 55.3275 71.8036 56.0428C71.7649 56.5949 71.6244 57.0764 71.4168 57.3673C71.1899 57.6857 67.8097 59.7194 60.2971 64.0578C54.3605 67.486 49.1816 70.4311 48.7881 70.6025C48.1008 70.902 47.6716 70.9161 37.7882 70.9637C30.2515 71.0001 27.2745 70.9637 26.6466 70.8277C26.1752 70.7256 25.0358 70.2645 24.1144 69.803L22.4392 68.9637V62.3617V55.7598L26.2548 54.8055C29.0304 54.1111 30.3549 53.8511 31.1149 53.8511C31.9715 53.8511 33.8453 54.3012 41.5186 56.3501C46.6662 57.7246 51.177 58.958 51.5427 59.0909C52.4627 59.4256 53.0195 60.1922 53.093 61.2251C53.1963 62.6799 52.152 63.8254 50.7244 63.8229C50.3802 63.8225 46.7049 62.9109 42.5569 61.7972C38.4089 60.6836 34.8947 59.7725 34.7476 59.7725C34.6003 59.7725 34.2952 59.9179 34.0694 60.0955C33.5514 60.5029 33.4946 61.4455 33.9624 61.8689C34.3039 62.1779 34.3731 62.198 43.3918 64.6074C49.4602 66.2285 50.0093 66.3489 51.0274 66.2821C53.4837 66.1209 55.3466 64.3012 55.6162 61.7992L55.7084 60.9431L57.9679 59.6397C66.5098 54.7128 68.5315 53.5659 68.8028 53.4928C69.2631 53.3691 70.1414 53.529 70.6674 53.8324ZM9.97298 62.2658V69.7455H6.23311H2.49324V62.2658V54.786H6.23311H9.97298V62.2658ZM15.342 67.6348C15.0078 67.9689 14.9595 68.1568 14.9595 69.1222C14.9595 70.0875 15.0078 70.2755 15.342 70.6096C15.5831 70.8508 15.9025 70.9921 16.2061 70.9921C16.5096 70.9921 16.8291 70.8508 17.0702 70.6096C17.4044 70.2755 17.4527 70.0875 17.4527 69.1222C17.4527 68.1568 17.4044 67.9689 17.0702 67.6348C16.8291 67.3936 16.5096 67.2522 16.2061 67.2522C15.9025 67.2522 15.5831 67.3936 15.342 67.6348Z" fill="#090B04"/>
</svg>
