<svg width="71" height="70" viewBox="0 0 71 70" fill="none" xmlns="http://www.w3.org/2000/svg">
<g clip-path="url(#clip0_1599_3167)">
<path fill-rule="evenodd" clip-rule="evenodd" d="M14.6328 67.7955C15.248 66.6921 15.4921 67.2023 16.4491 65.3128C17.0057 64.2167 17.1814 63.6039 17.4109 62.2759H68.1422C67.2316 67.92 62.2369 67.798 58.6898 67.798L14.6328 67.7955ZM60.5988 60.152C46.9816 60.3815 32.2805 60.1935 18.4094 60.152C17.4329 60.152 15.8412 59.7883 15.4335 60.8551C15.0868 61.7632 15.4164 64.2045 13.1436 66.1575C12.3555 66.8325 11.4212 67.315 10.4145 67.5667C9.40776 67.8183 8.3563 67.8323 7.34324 67.6076C1.65516 66.3332 2.21665 60.8258 2.21665 57.2714C2.21665 51.2269 1.9359 14.5986 2.30209 11.9303H60.6257L60.5939 60.1496L60.5988 60.152ZM2.05308 2.30694H59.6663L60.6427 2.32403L60.5182 9.78933H2.34115L2.22153 8.93002L2.05308 2.30694ZM69.8804 60.4084C68.9039 59.8347 64.3217 60.152 62.8008 60.152C62.4419 54.9839 62.7569 48.6392 62.7569 43.3417C62.7569 39.6481 62.9131 1.3866 62.6543 0.78361C62.1075 -0.488274 56.4926 0.17086 54.7838 0.17086H3.51782C2.47786 0.17086 0.539516 -0.24415 0.170889 0.927643L0.102535 47.7457C0.102535 51.2269 -0.351535 61.7803 0.654254 64.2875C2.92216 69.9463 7.48971 69.9194 12.0621 69.9194C13.8003 69.9194 60.7257 70.1635 63.0986 69.7803C64.9841 69.4711 66.716 68.5519 68.0288 67.1637C69.3416 65.7755 70.1627 63.995 70.3662 62.0953C70.5175 60.4865 70.1221 60.6305 69.8779 60.4181L69.8804 60.4084Z" fill="#617792"/>
<path fill-rule="evenodd" clip-rule="evenodd" d="M53.2751 20.0181V26.1579L20.5064 26.1823L53.2751 20.0181ZM9.69171 25.9479L9.62824 19.8204L41.0762 20.0645L25.633 22.994C20.4283 23.9241 14.767 24.8542 9.69171 25.9479ZM54.984 28.1597C55.8457 26.9976 55.4332 23.2015 55.4332 21.3804C55.4332 17.367 55.8408 17.655 51.8543 17.6575C46.1955 17.6575 10.302 17.3474 7.95599 17.782C7.16015 18.9757 7.24071 26.9781 7.90473 28.1963C10.8342 28.6455 16.6346 28.311 19.8668 28.311C24.405 28.311 53.0456 28.5796 54.9766 28.1597H54.984Z" fill="#617792"/>
<path fill-rule="evenodd" clip-rule="evenodd" d="M10.8977 53.1188C11.2468 52.2302 12.5895 50.4334 13.2413 49.413C14.4375 47.5088 19.7569 39.1598 20.5162 38.4982V53.0919L10.8952 53.1188H10.8977ZM9.89922 35.808H19.4811L9.87724 50.4749L9.89922 35.808V35.808ZM22.4936 34.1235C21.1216 33.0958 15.724 33.6353 13.5269 33.6353C7.07471 33.6353 7.72652 32.9981 7.7314 37.0066V46.5275C7.7314 48.5952 7.20897 54.0074 8.25626 55.2134C9.9041 55.4966 21.2119 55.4575 22.3886 55.1255C22.8109 53.8243 22.8329 36.1937 22.4936 34.1235Z" fill="#617792"/>
<path fill-rule="evenodd" clip-rule="evenodd" d="M47.5431 53.0944C48.0313 51.615 52.6501 40.9127 53.2946 40.1046V53.1774L47.5406 53.0944H47.5431ZM46.9254 35.8056L52.6843 35.8325L46.9108 48.6856L46.9254 35.8056ZM45.3118 55.0572C46.3493 55.7432 49.186 55.3013 50.6337 55.3013C51.8543 55.3013 54.8106 55.853 55.3111 54.6251C55.6065 53.8927 55.4331 45.3484 55.4331 43.8324C55.4331 31.8703 56.7441 33.6353 49.4131 33.6353C47.8824 33.6353 45.2849 33.3082 44.8504 34.3116C44.555 37.4852 44.7894 41.7647 44.7894 45.053C44.7894 46.0979 44.3255 55.0499 45.3118 55.0499V55.0572Z" fill="#617792"/>
<path fill-rule="evenodd" clip-rule="evenodd" d="M40.5929 34.2603C39.5798 33.3302 39.2258 33.628 37.6951 33.6329C35.2807 33.6329 28.6137 33.4791 27.0733 33.7745L26.7779 34.8072C27.3589 36.2304 28.2134 35.8105 29.8832 35.8056H34.0333C38.2273 35.8056 40.649 36.4574 40.5904 34.2603H40.5929Z" fill="#617792"/>
<path fill-rule="evenodd" clip-rule="evenodd" d="M28.4184 48.8247H38.9157C41.3082 48.8247 41.2789 46.7228 38.9157 46.7228H28.6626C25.9259 46.7228 26.2433 48.8247 28.4184 48.8247Z" fill="#617792"/>
<path fill-rule="evenodd" clip-rule="evenodd" d="M27.3248 40.3292C26.5533 40.732 26.7022 41.8477 27.376 42.1846C28.0083 42.5019 32.7321 42.3433 33.7892 42.3433C35.5859 42.3433 38.801 42.6142 36.8846 40.2682C36.1303 40.1901 27.9204 40.0168 27.3248 40.3292Z" fill="#617792"/>
<path fill-rule="evenodd" clip-rule="evenodd" d="M34.0723 53.5362C32.8127 52.9772 31.4895 53.1798 29.8832 53.1774C28.9067 53.1774 25.5378 52.738 27.293 55.3037L33.7037 55.2207L34.0723 53.5362Z" fill="#617792"/>
<path fill-rule="evenodd" clip-rule="evenodd" d="M55.4893 6.96239C57.4716 7.26511 57.5448 6.17875 56.6928 5.08752L55.7603 5.05823C54.9596 5.87848 54.9156 5.95172 55.4893 6.96239Z" fill="#617792"/>
<path fill-rule="evenodd" clip-rule="evenodd" d="M49.6084 6.96235C52.0667 7.23089 51.9812 5.02889 49.9013 5.08504C49.0469 5.83694 49.0689 5.96389 49.6084 6.96235Z" fill="#617792"/>
<path fill-rule="evenodd" clip-rule="evenodd" d="M43.9545 5.14859C43.2221 5.85899 43.3661 6.274 43.7763 6.95754C46.3322 7.37744 45.9221 4.73114 43.9545 5.14859Z" fill="#617792"/>
</g>
<defs>
<clipPath id="clip0_1599_3167">
<rect width="70.4004" height="70" fill="white"/>
</clipPath>
</defs>
</svg>
