<svg width="70" height="70" viewBox="0 0 70 70" fill="none" xmlns="http://www.w3.org/2000/svg">
<path fill-rule="evenodd" clip-rule="evenodd" d="M6.95142 0.168982C5.55929 0.430748 3.75787 1.42405 2.60485 2.56567C1.40776 3.7512 0.443206 5.53793 0.164092 7.08759C-0.0536038 8.29624 -0.0536038 16.6828 0.164092 17.8914C0.624801 20.4496 2.50671 22.8995 4.88886 24.0429C6.53572 24.8333 7.47214 24.9918 10.4936 24.9918H12.9627L14.8018 28.6253C16.3555 31.6954 16.7073 32.2816 17.0705 32.4061C18.0522 32.7427 18.2133 32.548 20.1987 28.6253L22.0378 24.9918H26.8757H31.7136L32.9287 27.375C33.9234 29.326 34.2219 29.785 34.5736 29.9057C35.4966 30.2221 35.7645 29.9514 37.0782 27.375L38.2932 24.9918H43.1311H47.9691L49.8081 28.6253C51.7935 32.548 51.9546 32.7427 52.9364 32.4061C53.2996 32.2816 53.6513 31.6954 55.2051 28.6253L57.0441 24.9918H59.5132C62.5262 24.9918 63.4717 24.8329 65.0955 24.0536C67.4721 22.9133 69.3856 20.4294 69.8427 17.8914C70.0604 16.6828 70.0604 8.29624 69.8427 7.08759C69.2418 3.75151 66.2455 0.755183 62.9094 0.154292C61.7159 -0.0607471 8.09866 -0.046526 6.95142 0.168982ZM63.9401 3.14953C65.3624 3.85247 66.2483 4.75748 66.9366 6.21024L67.4312 7.25418V12.4895V17.7248L66.9366 18.7688C66.2485 20.2212 65.3624 21.1266 63.9406 21.8295L62.76 22.4132L59.1869 22.4913C55.6703 22.5682 55.6092 22.5753 55.3393 22.9336C55.1883 23.134 54.5087 24.4173 53.8287 25.7857C53.1489 27.1541 52.5538 28.2736 52.5066 28.2736C52.4594 28.2736 51.8598 27.1412 51.1743 25.7572C50.4889 24.3732 49.7731 23.0722 49.5839 22.8661L49.2396 22.4913H43.3038C39.8365 22.4913 37.2016 22.5545 36.9681 22.6434C36.675 22.7548 36.3712 23.1922 35.8287 24.2843C35.4219 25.1032 35.0506 25.7732 35.0034 25.7732C34.9562 25.7732 34.5849 25.1032 34.1781 24.2843C33.6357 23.1922 33.3319 22.7548 33.0387 22.6434C32.8052 22.5545 30.1703 22.4913 26.703 22.4913H20.7672L20.4229 22.8661C20.2337 23.0722 19.5179 24.3732 18.8325 25.7572C18.1471 27.1412 17.5474 28.2736 17.5002 28.2736C17.453 28.2736 16.8579 27.1541 16.1781 25.7857C15.4981 24.4173 14.8185 23.134 14.6675 22.9336C14.3976 22.5753 14.3361 22.5682 10.8287 22.4913L7.26398 22.4132L6.22004 21.9186C4.76712 21.2303 3.86227 20.3444 3.15933 18.9219L2.57563 17.7411V12.4976V7.25418L3.07025 6.21024C3.34217 5.63623 3.85195 4.85484 4.2028 4.47414C4.89308 3.72526 6.31099 2.89026 7.28242 2.66037C7.64092 2.57567 19.1105 2.52691 35.3241 2.54145L62.7591 2.56583L63.9401 3.14953ZM16.586 6.21493C16.4269 6.37402 15.9951 7.0704 15.6263 7.76271L14.9557 9.02122L13.5322 9.29252C11.8875 9.60602 11.6527 9.70478 11.31 10.2278C10.9332 10.8028 11.1308 11.2598 12.3204 12.5647L13.3856 13.7332L13.2582 14.6351C13.0103 16.3905 13.0521 17.1749 13.4124 17.5353C13.8774 18.0002 14.5428 17.9314 15.9851 17.2691C16.656 16.9611 17.2978 16.709 17.4113 16.709C17.5246 16.709 18.1653 16.9588 18.835 17.2638C20.2967 17.93 20.9818 17.94 21.4558 17.3024C21.7541 16.9011 21.7602 16.8005 21.5783 15.2996L21.3869 13.7194L22.491 12.557C23.474 11.5221 23.5951 11.3273 23.5951 10.7814C23.5951 9.92279 23.175 9.64555 21.3544 9.30268L19.8547 9.02028L19.2119 7.8246C18.8584 7.16713 18.4218 6.47076 18.2419 6.27744C17.8337 5.83892 16.9937 5.8072 16.586 6.21493ZM51.5924 7.46516C51.4333 7.62425 51.0015 8.32062 50.6327 9.01294L49.9621 10.2714L48.5385 10.5427C46.8939 10.8562 46.6591 10.955 46.3164 11.4781C45.9396 12.053 46.1372 12.51 47.3268 13.8149L48.3919 14.9834L48.2646 15.8853C48.0167 17.6408 48.0584 18.4251 48.4188 18.7855C48.8853 19.2521 49.5529 19.1839 51.0024 18.5215C51.6793 18.2123 52.3209 17.9593 52.4285 17.9593C52.536 17.9593 53.1717 18.209 53.8414 18.514C55.303 19.1803 55.9882 19.1903 56.4622 18.5526C56.7605 18.1513 56.7666 18.0507 56.5847 16.5498L56.3932 14.9696L57.4974 13.8072C58.4803 12.7724 58.6015 12.5775 58.6015 12.0316C58.6015 11.173 58.1814 10.8958 56.3607 10.5529L54.8611 10.2705L54.2183 9.07482C53.8648 8.41736 53.4282 7.72098 53.2483 7.52767C52.8401 7.08915 52.0001 7.05743 51.5924 7.46516ZM31.5439 7.43687C31.3171 7.47485 30.7611 7.73067 30.3082 8.00525C28.7105 8.97371 28.0953 10.9517 28.8646 12.6458C29.2383 13.4686 34.4624 18.7406 34.904 18.7406C35.4632 18.7406 36.0836 18.2313 38.4589 15.8228C41.2231 13.0201 41.4987 12.56 41.3818 10.9442C41.1716 8.03682 37.8244 6.49107 35.4999 8.2278L34.9808 8.61568L34.6404 8.30484C33.8991 7.62769 32.5922 7.26121 31.5439 7.43687ZM17.8334 10.521C18.1893 11.1079 18.3523 11.2251 19.0433 11.3909L19.8419 11.5825L19.3743 12.1498C18.9738 12.6356 18.9067 12.8472 18.9067 13.6246C18.9067 14.5035 18.8961 14.5264 18.5724 14.3531C17.7796 13.929 17.3119 13.8955 16.5958 14.2123C16.2119 14.3822 15.889 14.5213 15.8785 14.5213C15.8679 14.5214 15.8829 14.1439 15.9117 13.6824C15.9592 12.9218 15.9163 12.7888 15.4544 12.2628C14.9129 11.6461 14.9877 11.4032 15.721 11.3979C16.1737 11.3946 16.7923 10.8787 17.0292 10.3069C17.1372 10.0461 17.2699 9.83496 17.3238 9.83778C17.3779 9.84043 17.6071 10.1478 17.8334 10.521ZM33.6454 10.7704C34.2861 11.3562 34.6216 11.5518 34.9847 11.5518C35.3466 11.5518 35.687 11.3545 36.3318 10.7704C36.9683 10.1939 37.319 9.98905 37.6689 9.98905C38.3125 9.98905 38.9104 10.6007 38.9104 11.259C38.9104 11.6936 38.6453 12.0286 36.9569 13.7275L35.0034 15.6932L33.0499 13.7275C31.3615 12.0286 31.0965 11.6936 31.0965 11.259C31.0965 10.6065 31.6948 9.98905 32.327 9.98905C32.6649 9.98905 33.022 10.2007 33.6454 10.7704ZM52.8398 11.7713C53.1956 12.3581 53.3586 12.4753 54.0497 12.6411L54.8483 12.8327L54.3807 13.4C53.9802 13.8859 53.9131 14.0975 53.9131 14.8748C53.9131 15.7537 53.9025 15.7767 53.5788 15.6034C52.786 15.1792 52.3183 15.1458 51.6022 15.4626C51.2182 15.6324 50.8954 15.7715 50.8849 15.7715C50.8743 15.7717 50.8893 15.3941 50.918 14.9326C50.9655 14.172 50.9227 14.039 50.4608 13.513C49.9193 12.8963 49.9941 12.6534 50.7274 12.6481C51.1801 12.6449 51.7987 12.129 52.0356 11.5572C52.1436 11.2963 52.2762 11.0852 52.3302 11.088C52.3842 11.0907 52.6135 11.3981 52.8398 11.7713ZM32.8454 32.8096C32.217 32.9742 31.3379 33.3031 30.8919 33.5407C29.7403 34.1536 27.9595 35.9649 27.3809 37.1115C26.4978 38.8617 26.3412 39.6623 26.3431 42.4168C26.3457 46.2322 26.8807 47.8064 28.8478 49.7868L29.9591 50.9056L28.9792 51.3221C27.56 51.9253 25.7752 53.1469 24.5546 54.3506L23.491 55.3995L22.8673 55.0696L22.2436 54.7399L22.9917 53.9263C24.4863 52.3007 24.9983 50.6007 25.0003 47.2552C25.0022 44.3344 24.4506 42.736 22.8674 41.0763C19.931 37.9976 15.0695 37.9976 12.133 41.0763C10.5346 42.7521 9.99745 44.3291 10.0015 47.3334C10.006 50.6138 10.4983 52.1977 12.0075 53.7872C12.4773 54.2821 12.8328 54.7102 12.7976 54.7385C12.7625 54.7667 12.3469 55.0098 11.8742 55.2784C8.31417 57.3017 6.50103 60.4358 5.45943 66.3665L5.26049 67.4995H3.01227C0.833745 67.4995 0.752325 67.5114 0.380694 67.8832C-0.126898 68.3906 -0.126898 69.1089 0.380694 69.6163L0.764202 70H35.0034H69.2426L69.6261 69.6163C70.1337 69.1089 70.1337 68.3906 69.6261 67.8832C69.2545 67.5114 69.1731 67.4995 66.9946 67.4995H64.7463L64.548 66.3665C63.5203 60.4964 61.66 57.2602 58.1898 55.3061C57.6857 55.0223 57.2445 54.7671 57.2096 54.7391C57.1748 54.7111 57.5017 54.3125 57.9362 53.853C59.4724 52.2288 60.0008 50.5636 60.0053 47.3334C60.0094 44.3291 59.4722 42.7521 57.8738 41.0763C54.9374 37.9976 50.0758 37.9976 47.1394 41.0763C45.541 42.7521 45.0038 44.3291 45.0079 47.3334C45.0124 50.5938 45.4841 52.1272 46.9789 53.7417C47.4405 54.2404 47.8182 54.681 47.8182 54.721C47.8182 54.7608 47.5416 54.9182 47.2034 55.0707L46.5888 55.3479L45.5635 54.3226C44.3856 53.1447 42.6059 51.9264 41.1747 51.3182L40.1859 50.8979L41.2302 49.8537C43.1518 47.9321 43.7491 46.1328 43.7505 42.2606C43.7517 38.6888 43.1638 37.0396 41.1889 35.0747C38.9354 32.8328 35.9012 32.009 32.8454 32.8096ZM37.5709 35.5906C38.981 36.2506 39.8934 37.1479 40.5927 38.563L41.1764 39.7439V42.495V45.2461L40.5927 46.4269C39.8898 47.8494 38.9849 48.7353 37.532 49.4236C36.5879 49.8709 36.346 49.9182 35.0034 49.9182C33.6608 49.9182 33.4189 49.8709 32.4748 49.4236C31.0219 48.7353 30.1171 47.8494 29.4141 46.4269L28.8304 45.2461V42.5031V39.7601L29.325 38.7162C29.953 37.3906 30.847 36.4203 32.0132 35.7988C33.2442 35.1427 33.9177 34.9942 35.3549 35.0627C36.2929 35.1074 36.7925 35.2263 37.5709 35.5906ZM19.5542 41.7037C20.6275 42.2084 21.304 42.8535 21.8871 43.9288L22.423 44.9173V47.4959V50.0745L21.889 51.0592C21.294 52.1566 20.8032 52.6301 19.6267 53.2415C18.9485 53.5939 18.629 53.6567 17.5002 53.6597C16.2828 53.6628 16.0893 53.6186 15.1834 53.13C14.1163 52.5546 13.4856 51.8975 12.9302 50.7826C12.607 50.1337 12.5774 49.859 12.5774 47.4959C12.5774 45.0665 12.5998 44.8721 12.9644 44.1359C13.6305 42.791 14.8915 41.7578 16.3281 41.3804C17.0948 41.1788 18.8016 41.3499 19.5542 41.7037ZM54.5606 41.7037C55.6339 42.2084 56.3104 42.8535 56.8935 43.9288L57.4294 44.9173V47.4959V50.0745L56.8954 51.0592C56.3004 52.1566 55.8095 52.6301 54.6331 53.2415C53.9548 53.5939 53.6354 53.6567 52.5066 53.6597C51.2892 53.6628 51.0957 53.6186 50.1898 53.13C49.1227 52.5546 48.492 51.8975 47.9365 50.7826C47.6134 50.1337 47.5838 49.859 47.5838 47.4959C47.5838 45.0665 47.6062 44.8721 47.9708 44.1359C48.6368 42.791 49.8978 41.7578 51.3345 41.3804C52.1012 41.1788 53.8079 41.3499 54.5606 41.7037ZM36.8788 52.6595C41.804 53.4365 45.9018 57.042 47.1831 61.7261C47.4547 62.7188 48.4434 67.1862 48.4434 67.4206C48.4434 67.4641 47.6421 67.4995 46.6629 67.4995H44.8824L44.2285 64.7256C43.6928 62.4527 43.5048 61.8882 43.1872 61.6C42.7312 61.186 42.2436 61.1517 41.7482 61.4986C41.0805 61.9663 41.0769 62.2989 41.7106 64.9846L42.304 67.4995H35.0594C31.0747 67.4995 27.8146 67.4561 27.8146 67.403C27.8146 67.35 28.0256 66.292 28.2834 65.0521C28.5413 63.812 28.7523 62.6216 28.7523 62.4066C28.7523 61.8562 28.0961 61.2484 27.502 61.2484C26.5644 61.2484 26.3476 61.684 25.7661 64.7373L25.2399 67.4995H23.4016C22.3906 67.4995 21.5635 67.4741 21.5635 67.443C21.5635 67.2279 22.4125 63.2799 22.6771 62.2642C23.3746 59.5876 24.9786 57.0183 26.9598 55.4044C29.7232 53.1533 33.4581 52.1197 36.8788 52.6595ZM20.5477 56.8682C21.9371 57.3925 21.9412 57.4021 21.3287 58.6698C20.6642 60.0455 20.177 61.7308 19.5103 64.96L18.9861 67.4995H15.9098H12.8334L13.2879 65.8195C13.5379 64.8955 13.7441 63.943 13.7459 63.7028C13.7508 63.1081 13.1197 62.4986 12.4993 62.4986C11.6395 62.4986 11.3432 62.9942 10.7865 65.3629L10.2845 67.4995H9.04774C8.36746 67.4995 7.81096 67.4488 7.81096 67.3866C7.81096 67.3245 8.02568 66.2521 8.28792 65.0033C8.93819 61.9084 9.60988 60.4922 11.1381 58.9928C12.3246 57.829 13.612 57.0781 15.1673 56.6432C16.4482 56.285 19.3202 56.405 20.5477 56.8682ZM54.8495 56.6358C56.3292 57.0297 57.6654 57.8134 58.8687 58.9933C60.416 60.5106 61.0779 61.9151 61.7209 65.045C61.9821 66.3165 62.1959 67.3891 62.1959 67.4283C62.1959 67.4675 61.6386 67.4995 60.9577 67.4995H59.7193L59.2971 65.6633C58.749 63.2792 58.5894 62.9089 58.0073 62.6677C57.4081 62.4196 56.7475 62.6905 56.4529 63.305C56.2832 63.6593 56.3189 63.9872 56.7038 65.6087L57.1524 67.4995H54.0866H51.0207L50.4894 64.96C49.8117 61.7216 49.329 60.0491 48.6761 58.6781C48.3896 58.0767 48.1897 57.529 48.2318 57.4607C48.3379 57.2892 49.3051 56.8929 50.2406 56.6376C51.2861 56.3522 53.7803 56.3514 54.8495 56.6358Z" fill="#090B04"/>
</svg>
