<svg width="70" height="71" viewBox="0 0 70 71" fill="none" xmlns="http://www.w3.org/2000/svg">
<g clip-path="url(#clip0_1599_3155)">
<path fill-rule="evenodd" clip-rule="evenodd" d="M54.9799 45.1334C61.7873 44.246 67.0169 49.0793 67.8484 54.9167C68.8209 61.7047 63.7906 67.0339 58.1064 67.846C51.2601 68.8185 45.9624 63.8515 45.1164 58.1429C44.1025 51.299 49.1109 45.8992 54.9799 45.1334ZM44.4307 62.7258C43.6357 63.1197 42.3472 63.2509 41.7758 63.9049C41.0173 64.7729 41.3139 65.9229 40.8033 66.837C39.8309 68.5851 36.4733 67.9627 34.5113 67.9675C31.6254 67.9675 29.6124 68.6045 29.0702 65.6919C28.584 63.0662 27.1544 63.3895 24.7718 62.49C22.5594 61.6561 20.4539 60.1925 19.2043 60.2873C17.4003 60.421 16.7099 63.2048 14.1327 60.7371C12.7567 59.4145 11.5921 58.2061 10.2136 56.8738C7.29369 54.0317 8.57009 53.5479 9.4818 52.0284C10.5637 50.1904 8.54335 47.871 7.92338 46.2955C7.15511 44.3506 6.9047 41.9461 5.33169 41.3504C4.00181 40.8496 3.41102 41.2823 2.56738 40.2175C1.62893 39.031 1.86719 30.8402 2.51633 30.0063C3.99694 28.0783 5.72798 30.4342 6.91199 26.6293C7.45455 24.7792 8.19382 22.9926 9.11712 21.3001C10.9721 17.8963 8.08627 18.1395 8.3221 15.8565C8.44853 14.6239 10.943 12.4844 11.7039 11.7234C12.6327 10.785 14.3783 8.29054 16.282 8.52394C18.7132 8.82541 17.2715 11.1691 21.7522 8.88133C23.7823 7.84563 25.2581 7.54902 27.3441 6.69322C29.7023 5.72073 28.0345 3.04638 30.4098 2.22219C31.1976 1.95232 36.6386 2.052 37.9466 2.05443C41.8366 2.05443 40.2417 4.40786 41.5084 5.92738C42.2378 6.8002 45.6585 7.59035 46.986 8.23705C48.8677 9.12688 50.2754 10.6002 52.2715 8.9956C54.445 7.24754 55.9767 9.36271 57.0926 10.4835C58.3082 11.6991 59.7937 12.9585 60.8853 14.23C63.0734 16.7828 59.4582 17.7043 60.1365 19.8219C60.3286 20.4224 61.143 21.6477 61.4834 22.382C61.8529 23.177 62.2128 23.9841 62.5604 24.9396C64.1383 29.2721 63.0734 28.0492 66.3094 28.973C68.3978 29.5687 67.9505 32.4691 67.9602 34.7594C67.9699 37.0496 68.5364 40.0132 66.516 40.7402C65.2324 41.2021 64.503 40.8569 63.7493 41.878C63.2509 42.5514 63.0637 43.7427 62.7209 44.4332C50.1733 39.0967 39.0991 50.1758 44.4332 62.7209L44.4307 62.7258ZM62.2638 19.2068C62.9932 17.697 64.4373 16.5178 63.1269 13.9432C62.5118 12.7275 60.5814 11.0476 59.6381 10.1286C55.4637 6.05867 55.1476 5.02297 50.5599 7.66571C49.4391 7.31319 48.2551 6.53762 46.9835 6.00761C45.6318 5.446 44.2897 5.06187 43.0085 4.64369C42.6973 -0.243079 39.3081 -0.0194058 34.7666 4.40741e-05C29.2817 0.041375 27.9592 -0.413265 26.6268 4.74581C25.2822 5.13523 23.9614 5.60282 22.6712 6.1462C21.3462 6.7224 20.4223 7.40314 19.2067 7.75567C17.7188 7.00928 16.5324 5.54568 13.9382 6.87556C12.7956 7.46392 7.25236 13.1117 6.75639 14.0428C5.4727 16.4522 6.84392 17.9206 7.66081 19.4426C7.26695 20.7433 6.46951 21.8957 5.93707 23.1964C5.40463 24.4971 5.03751 25.7857 4.6315 26.9867C-0.243122 27.3295 1.27824e-06 30.6797 1.27824e-06 35.2529C0.0218824 40.6332 -0.401152 42.0141 4.73847 43.3829C5.12423 44.7288 5.59189 46.0498 6.13886 47.3385C6.71263 48.6611 7.4031 49.5996 7.74104 50.8128C6.99465 52.308 5.55293 53.5041 6.87066 56.0764C7.48576 57.292 9.41616 58.9623 10.3595 59.891C14.6068 64.0435 14.8864 64.9285 19.4498 62.3441C20.5512 62.6942 21.7668 63.4941 23.0286 64.0022C24.4023 64.5589 25.703 64.9455 27.0037 65.3685C27.3027 70.2675 30.6943 70.0244 35.2528 69.9879C37.2537 69.9757 39.4929 70.231 41.1267 69.312C42.865 68.3249 42.8286 67.2552 43.3804 65.2348L45.8117 64.5541C48.1068 69.1734 58.724 73.2895 66.0104 65.9958C73.2967 58.7021 69.2415 48.119 64.5103 45.7777L65.3734 42.9988C70.2358 42.6973 70.0195 39.2863 69.9927 34.7496C69.9708 29.3499 70.3914 27.9422 65.2542 26.6196C64.1845 23.0214 62.524 20.1914 62.2638 19.2068Z" fill="#617792"/>
<path fill-rule="evenodd" clip-rule="evenodd" d="M40.3925 59.8691C40.7912 57.6153 39.4443 58.1672 37.6744 58.3423C27.6747 59.3294 19.7586 54.9726 14.5777 46.6602C8.90317 37.5164 11.5094 23.6656 19.3866 17.4393C24.006 13.7803 27.1666 12.1295 33.6191 11.5071C43.7597 10.5346 54.2456 17.731 57.4305 27.8814C58.2426 30.4634 58.792 33.816 58.4516 36.77C58.3033 38.0415 57.5497 40.4168 59.0886 40.5141C60.3942 40.5992 60.4112 38.4645 60.4817 37.193C61.5101 18.3364 44.81 5.98573 28.494 10.2598C5.83495 16.1945 2.53091 47.3726 23.5586 57.8633C27.5775 59.8691 35.4546 61.7655 40.3925 59.8594V59.8691Z" fill="#617792"/>
<path fill-rule="evenodd" clip-rule="evenodd" d="M40.339 55.2157C40.5311 53.1492 39.3908 53.6208 37.8445 53.8591C36.5801 54.0325 35.3019 54.0846 34.0275 54.0147C16.7974 53.0009 10.3741 32.5615 21.4848 21.4873C26.8554 16.1385 37.3024 13.4642 45.2598 18.9077C48.3134 20.9986 50.9173 23.5976 52.5851 27.6285C56.3486 36.7262 51.2941 40.7207 55.2351 40.3609C57.2579 36.8332 55.6314 29.2137 54.0609 25.9048C47.6521 12.3993 29.9309 10.1699 20.0504 20.0528C10.0167 30.0865 12.5792 47.8783 26.0725 54.1387C29.2769 55.6266 37.0617 57.2725 40.339 55.2157Z" fill="#617792"/>
<path fill-rule="evenodd" clip-rule="evenodd" d="M37.1468 37.6453C37.5698 36.3859 42.5247 27.8644 43.2662 27.4341L43.1811 37.6453L37.1468 37.6574V37.6453ZM45.2428 37.6453C45.1188 35.3672 45.6512 27.4827 44.8854 26.0969C42.9404 22.5741 39.9281 28.375 39.0991 29.858C31.8175 42.8894 32.79 38.8268 43.1908 39.6972C43.2249 41.1754 42.532 45.3401 44.3894 44.849C44.7736 44.7493 44.8757 44.5013 45.1674 44.2412L45.2258 39.6486C46.5313 39.6486 46.5508 39.8455 47.4382 39.1307L47.3118 38.0099C46.7672 37.6817 46.0961 37.6453 45.2428 37.6453V37.6453Z" fill="#617792"/>
<path fill-rule="evenodd" clip-rule="evenodd" d="M23.9817 30.5193C25.1803 29.2575 24.6162 27.93 26.69 27.1885C28.6034 26.5053 30.0938 27.4024 30.9423 28.5986C32.7657 31.1392 29.0362 35.4474 27.9421 36.9353C21.9808 45.0459 20.8916 45.1067 28.4284 45.1115C30.1667 45.1115 32.6441 45.2598 34.1953 44.8344L34.0664 43.2395C32.0971 42.5101 28.4916 43.2881 26.0944 42.9283C27.5823 40.9687 29.0775 38.7952 30.6165 36.7068C31.8467 35.0365 34.2415 31.8443 33.3103 28.9049C32.4934 26.3376 29.8482 24.164 26.3472 25.1608C23.0627 26.0969 20.8673 30.8985 23.9719 30.5095L23.9817 30.5193Z" fill="#617792"/>
<path fill-rule="evenodd" clip-rule="evenodd" d="M52.0526 50.0834C51.7658 52.4149 53.1929 51.688 58.3422 51.7391C57.9265 53.5139 56.3973 56.2611 55.6533 58.0603C55.2497 59.0595 54.7124 60.3116 54.2505 61.2841C53.6184 62.6188 53.1273 63.161 53.6257 64.4617L54.6905 64.5881C55.6193 63.8344 56.5918 61.0701 57.1363 59.8083C57.8657 58.1065 58.634 56.266 59.4266 54.5496C60.2021 52.8696 61.7241 50.1126 58.9889 49.7017C57.3868 49.4586 53.0689 49.4075 52.0526 50.0712V50.0834Z" fill="#617792"/>
</g>
<defs>
<clipPath id="clip0_1599_3155">
<rect width="70" height="70.0243" fill="white"/>
</clipPath>
</defs>
</svg>
