<svg width="70" height="70" viewBox="0 0 70 70" fill="none" xmlns="http://www.w3.org/2000/svg">
<path d="M26.0605 48.3206L28.0394 47.4418C29.0161 47.9894 30.0498 48.418 31.1253 48.7211L31.9025 50.7404C32.0649 51.1626 32.4707 51.4413 32.9232 51.4413H37.0773C37.5298 51.4413 37.9355 51.1626 38.098 50.7403L38.875 48.7218C39.951 48.4185 40.9854 47.9898 41.962 47.4421L43.94 48.3206C44.3536 48.5045 44.8375 48.4144 45.1574 48.0945L48.0948 45.1571C48.4147 44.837 48.5047 44.3532 48.3211 43.9398L47.4422 41.9609C47.9897 40.9843 48.4184 39.9503 48.7216 38.875L50.7408 38.0978C51.1632 37.9354 51.4417 37.5296 51.4417 37.077V32.923C51.4417 32.4704 51.163 32.0648 50.7408 31.9022L48.7223 31.1253C48.4191 30.049 47.9903 29.0146 47.4426 28.0381L48.3212 26.0602C48.5049 25.6467 48.415 25.1628 48.0951 24.8429L45.1577 21.9055C44.8377 21.5856 44.3537 21.4956 43.9403 21.6794L41.9614 22.5582C40.9849 22.0106 39.951 21.5819 38.8756 21.2788L38.0983 19.2596C37.9358 18.8374 37.5301 18.5588 37.0776 18.5588H32.9237C32.4711 18.5588 32.0655 18.8374 31.9029 19.2596L31.1257 21.2788C30.0502 21.582 29.0162 22.0108 28.0398 22.5582L26.0609 21.6794C25.6472 21.4956 25.1635 21.5857 24.8436 21.9055L21.9063 24.8429C21.5864 25.1628 21.4964 25.6467 21.68 26.0602L22.5587 28.0388C22.0112 29.0154 21.5823 30.0494 21.2792 31.1251L19.2603 31.9022C18.8379 32.0646 18.5594 32.4704 18.5594 32.923V37.0772C18.5594 37.5297 18.8381 37.9354 19.2603 38.0979L21.2788 38.8749C21.5821 39.9511 22.0109 40.9855 22.5585 41.9619L21.68 43.9399C21.4963 44.3533 21.5863 44.8372 21.9062 45.1572L24.8436 48.0945C25.1632 48.4143 25.6469 48.5041 26.0605 48.3206ZM24.717 41.3187C24.0457 40.2287 23.5553 39.0458 23.2594 37.8026C23.1759 37.4519 22.9249 37.1647 22.5883 37.0352L20.7464 36.3262V33.6741L22.5885 32.9649C22.9251 32.8355 23.1762 32.5482 23.2597 32.1974C23.5553 30.9552 24.0457 29.7726 24.7171 28.6821C24.9062 28.3749 24.9318 27.9943 24.7855 27.6646L23.9835 25.8588L25.8588 23.9835L27.6648 24.7856C27.9944 24.932 28.375 24.9066 28.6821 24.7174C29.7727 24.046 30.9553 23.5555 32.1973 23.26C32.5481 23.1764 32.8353 22.9254 32.9648 22.5888L33.6741 20.7463H36.3262L37.0355 22.5888C37.1649 22.9253 37.4521 23.1764 37.803 23.26C39.0448 23.5555 40.2276 24.046 41.318 24.7174C41.6251 24.9065 42.0057 24.9319 42.3355 24.7856L44.1414 23.9835L46.0168 25.8588L45.2151 27.6639C45.0687 27.9936 45.0942 28.3742 45.2834 28.6814C45.9549 29.7716 46.4453 30.9545 46.741 32.1975C46.8245 32.5484 47.0755 32.8356 47.4121 32.9651L49.254 33.6741V36.326L47.4116 37.0353C47.075 37.1648 46.824 37.4521 46.7405 37.8027C46.4449 39.0447 45.9546 40.2273 45.2832 41.3179C45.0941 41.625 45.0685 42.0056 45.2148 42.3352L46.0169 44.1413L44.1416 46.0167L42.3363 45.2149C42.0067 45.0685 41.6259 45.0941 41.3189 45.2833C40.2284 45.9549 39.0455 46.4451 37.8029 46.7407C37.4521 46.8243 37.1648 47.0753 37.0353 47.412L36.3263 49.2539H33.6742L32.9651 47.4113C32.8356 47.0749 32.5485 46.8237 32.1977 46.7403C30.9559 46.4447 29.7731 45.9543 28.6824 45.2829C28.3753 45.0938 27.9947 45.0684 27.665 45.2147L25.8591 46.0167L23.9838 44.1414L24.7855 42.3362C24.9318 42.0066 24.9062 41.6259 24.717 41.3187ZM35.0001 43.3385C39.598 43.3385 43.3386 39.598 43.3386 35.0001C43.3386 30.4023 39.598 26.6618 35.0001 26.6618C30.4024 26.6618 26.6618 30.4023 26.6618 35.0001C26.6618 39.598 30.4023 43.3385 35.0001 43.3385ZM35.0001 28.8492C38.3919 28.8492 41.1511 31.6084 41.1511 35C41.1511 38.3916 38.3917 41.151 35.0001 41.151C31.6086 41.151 28.8493 38.3917 28.8493 35.0001C28.8493 31.6086 31.6086 28.8492 35.0001 28.8492ZM55.6783 42.1596L55.5389 41.5569C55.4025 40.9683 54.8156 40.6014 54.2266 40.7379C53.6382 40.8741 53.2715 41.4616 53.4077 42.0502L54.2972 45.8933C54.3793 46.2481 54.6325 46.5388 54.9727 46.6685C55.099 46.7169 55.2311 46.7404 55.3626 46.7404C55.5852 46.7404 55.8059 46.6725 55.9929 46.5406L59.5561 44.0281C60.0497 43.68 60.1677 42.9976 59.8196 42.5039C59.4716 42.0104 58.7891 41.8921 58.2955 42.2404L57.8543 42.5514C60.5544 34.3567 58.6474 25.2107 52.7729 18.7738L58.5445 13.0022C59.6179 13.767 60.9287 14.2188 62.3439 14.2188C65.9624 14.2188 68.9064 11.2748 68.9064 7.65625C68.9064 4.03771 65.9624 1.09375 62.3439 1.09375C58.7254 1.09375 55.7814 4.03771 55.7814 7.65625C55.7814 9.07143 56.2332 10.3823 56.998 11.4554L50.4707 17.9828C50.0436 18.4099 50.0436 19.1023 50.4707 19.5295C56.4208 25.4799 58.3841 34.3254 55.6783 42.1596ZM62.3439 3.28125C64.7563 3.28125 66.7189 5.24385 66.7189 7.65625C66.7189 10.0687 64.7563 12.0312 62.3439 12.0312C59.9315 12.0312 57.9689 10.0687 57.9689 7.65625C57.9689 5.24385 59.9315 3.28125 62.3439 3.28125ZM14.3216 27.8385L14.4616 28.4431C14.5786 28.9487 15.0285 29.2905 15.5262 29.2905C15.6078 29.2905 15.6908 29.2813 15.7738 29.2621C16.3622 29.1259 16.7289 28.5383 16.5927 27.9498L15.7031 24.1065C15.6209 23.7517 15.3677 23.4612 15.0276 23.3313C14.6876 23.2016 14.305 23.2496 14.0072 23.4593L10.4441 25.9721C9.95039 26.3201 9.8324 27.0026 10.1805 27.4962C10.5286 27.9899 11.2109 28.108 11.7046 27.7598L12.1439 27.45C9.43879 35.6472 11.3385 44.7774 17.227 51.2263L11.4553 56.9978C10.3821 56.233 9.07143 55.7812 7.65625 55.7812C4.03771 55.7812 1.09375 58.7252 1.09375 62.3438C1.09375 65.9623 4.03785 68.9062 7.65639 68.9062C11.2749 68.9062 14.2189 65.9624 14.2189 62.3439C14.2189 60.9287 13.767 59.6179 13.0022 58.5447L19.5297 52.0174C19.9568 51.5903 19.9568 50.8978 19.5297 50.4705C13.5647 44.5055 11.6095 35.6757 14.3216 27.8385ZM7.65639 66.7188C5.24398 66.7188 3.28139 64.7563 3.28139 62.3439C3.28139 59.9315 5.24398 57.9689 7.65639 57.9689C10.0688 57.9689 12.0314 59.9315 12.0314 62.3439C12.0314 64.7563 10.0688 66.7188 7.65639 66.7188ZM7.65639 14.2188C9.07156 14.2188 10.3824 13.767 11.4554 13.0021L17.9828 19.5295C18.1963 19.743 18.4762 19.8498 18.7562 19.8498C19.0362 19.8498 19.316 19.743 19.5296 19.5295C25.4814 13.5779 34.3252 11.6155 42.1596 14.3218L41.5569 14.4613C40.9683 14.5975 40.6018 15.1849 40.7379 15.7735C40.855 16.2791 41.3049 16.6209 41.8026 16.6209C41.8842 16.6209 41.9672 16.6117 42.0502 16.5925L45.8933 15.703C46.2481 15.6208 46.5388 15.3676 46.6685 15.0274C46.7983 14.6873 46.7504 14.3047 46.5406 14.0072L44.0282 10.4439C43.6801 9.95025 42.9976 9.83227 42.5041 10.1804C42.0104 10.5284 41.8924 11.2108 42.2405 11.7045L42.5515 12.1455C34.3567 9.44508 25.2119 11.3515 18.7739 17.227L13.0022 11.4554C13.767 10.3823 14.2189 9.07143 14.2189 7.65625C14.2189 4.03771 11.2749 1.09375 7.65639 1.09375C4.03785 1.09375 1.09389 4.03771 1.09389 7.65625C1.09389 11.2748 4.03785 14.2188 7.65639 14.2188ZM7.65639 3.28125C10.0688 3.28125 12.0314 5.24385 12.0314 7.65625C12.0314 10.0687 10.0688 12.0312 7.65639 12.0312C5.24398 12.0312 3.28139 10.0687 3.28139 7.65625C3.28139 5.24385 5.24398 3.28125 7.65639 3.28125ZM62.3439 55.7814C60.9287 55.7814 59.618 56.2331 58.5449 56.9979L52.0174 50.4704C51.5903 50.0434 50.8978 50.0434 50.4707 50.4704C44.5393 56.4015 35.6703 58.3774 27.8409 55.678L28.4434 55.5386C29.0318 55.4024 29.3985 54.8148 29.2623 54.2263C29.126 53.6378 28.5387 53.2711 27.9501 53.4074L24.1069 54.297C23.7522 54.3792 23.4616 54.6324 23.3317 54.9726C23.2019 55.3127 23.2498 55.6953 23.4597 55.9929L25.9722 59.5561C26.1852 59.8582 26.5234 60.0197 26.867 60.0197C27.0848 60.0197 27.3048 59.9547 27.4965 59.8196C27.9902 59.4716 28.1081 58.7892 27.7601 58.2955L27.4512 57.8575C31.1903 59.0939 35.1717 59.3928 39.1058 58.7152C43.6579 57.9312 47.8263 55.8843 51.227 52.7736L56.9983 58.5449C56.2335 59.618 55.7817 60.9288 55.7817 62.344C55.7814 65.9624 58.7254 68.9062 62.3439 68.9062C65.9624 68.9062 68.9064 65.9624 68.9064 62.3439C68.9064 58.7254 65.9624 55.7814 62.3439 55.7814ZM62.3439 66.7188C59.9315 66.7188 57.9689 64.7563 57.9689 62.3439C57.9689 59.9315 59.9315 57.9689 62.3439 57.9689C64.7563 57.9689 66.7189 59.9315 66.7189 62.3439C66.7189 64.7563 64.7563 66.7188 62.3439 66.7188Z" fill="#617792"/>
</svg>
