<svg width="70" height="70" viewBox="0 0 70 70" fill="none" xmlns="http://www.w3.org/2000/svg">
<path fill-rule="evenodd" clip-rule="evenodd" d="M22.2553 14.4466C21.6791 14.4466 21.2079 14.9165 21.2079 15.4943L21.2081 62.7685C21.2081 63.3461 21.6791 63.8169 22.2553 63.8169H67.4241C68.0019 63.8169 68.4713 63.3462 68.4713 62.7685V15.4943C68.4713 14.9163 68.0017 14.4466 67.424 14.4466H22.2553ZM67.4241 65.3434H22.2553C20.8356 65.3434 19.6797 64.1895 19.6797 62.7685L19.6798 15.4943C19.6798 14.0739 20.8354 12.9185 22.2553 12.9185L67.4241 12.9183C68.8438 12.9183 69.9996 14.0739 69.9996 15.4943V62.7685C69.9996 64.1895 68.8438 65.3436 67.4241 65.3434Z" fill="#617792"/>
<path fill-rule="evenodd" clip-rule="evenodd" d="M33.3235 14.4466C32.9954 14.4466 32.6912 14.2334 32.5909 13.9029C32.4699 13.4986 32.6991 13.0726 33.1034 12.951L55.5032 6.20647C56.0161 6.05242 56.5617 6.11992 57.0424 6.39669C57.6094 6.72288 58.0294 7.30873 58.1949 8.00374L59.5066 13.5052C59.6054 13.9157 59.3521 14.3279 58.9414 14.4258C58.5309 14.5236 58.1185 14.2701 58.0213 13.8598L56.7098 8.35802C56.6413 8.07479 56.4805 7.83693 56.2799 7.72131C56.1654 7.65462 56.0524 7.6375 55.944 7.6698L33.543 14.414C33.4695 14.4363 33.3964 14.4468 33.3235 14.4466Z" fill="#617792"/>
<path fill-rule="evenodd" clip-rule="evenodd" d="M20.4443 60.5645C20.1065 60.5645 19.7994 60.3402 19.707 59.9996L9.5866 22.5695C9.24265 21.2972 9.91117 19.9332 11.0477 19.5914L20.2244 16.8281C20.6287 16.7062 21.0537 16.9355 21.1763 17.3397C21.2974 17.7436 21.0679 18.17 20.6652 18.2916L11.4872 21.0544C11.1767 21.1482 10.9219 21.6564 11.062 22.1708L21.1828 59.6006C21.2924 60.008 21.0505 60.4277 20.6445 60.5378C20.5778 60.5556 20.5092 60.5645 20.4443 60.5645Z" fill="#617792"/>
<path fill-rule="evenodd" clip-rule="evenodd" d="M27.4756 14.4466C27.2127 14.4466 26.9579 14.3111 26.8146 14.0681C26.6031 13.7038 26.7255 13.2358 27.0885 13.0228L40.942 4.92466C41.4019 4.65563 41.9509 4.5862 42.4843 4.72959C43.0767 4.888 43.5968 5.298 43.9137 5.85397L46.0851 9.66149C46.295 10.028 46.166 10.4947 45.7999 10.7037C45.434 10.9125 44.9675 10.7849 44.7572 10.4185L42.5863 6.61066C42.4699 6.40687 42.2885 6.25928 42.0878 6.20551C41.9925 6.17951 41.8475 6.16514 41.7138 6.24394L27.8605 14.3421C27.7394 14.413 27.6057 14.4466 27.4756 14.4466Z" fill="#617792"/>
<path fill-rule="evenodd" clip-rule="evenodd" d="M20.446 63.4546C20.1881 63.4546 19.9366 63.3246 19.7932 63.0895L0.345075 31.3327C0.0187253 30.8008 -0.0818763 30.1532 0.067815 29.5558C0.207818 28.9983 0.545309 28.5397 1.01812 28.2638L10.2523 22.8658C10.6168 22.6527 11.0846 22.7757 11.2977 23.1399C11.5098 23.504 11.387 23.9721 11.0224 24.1851L1.7887 29.5829C1.67405 29.6499 1.58943 29.7726 1.55133 29.9283C1.50046 30.1297 1.53534 30.3509 1.64837 30.5347L21.0971 62.2913C21.3167 62.6511 21.2035 63.1215 20.8437 63.3419C20.7201 63.418 20.5812 63.4546 20.446 63.4546Z" fill="#617792"/>
<path fill-rule="evenodd" clip-rule="evenodd" d="M57.9655 29.1973H31.7155C31.2917 29.1973 30.9512 28.8553 30.9512 28.4333C30.9512 28.0112 31.2917 27.6692 31.7151 27.6692H57.9655C58.3875 27.6692 58.7295 28.0112 58.7295 28.4333C58.7295 28.8551 58.3873 29.1973 57.9655 29.1973Z" fill="#617792"/>
<path fill-rule="evenodd" clip-rule="evenodd" d="M50.9507 19.6698H38.7291C38.3072 19.6698 37.9648 19.3277 37.9648 18.9057C37.9652 18.4838 38.3072 18.1418 38.729 18.1418L50.9507 18.1416C51.3726 18.1416 51.7148 18.4838 51.7148 18.9057C51.715 19.3275 51.3725 19.6698 50.9507 19.6698Z" fill="#617792"/>
<path fill-rule="evenodd" clip-rule="evenodd" d="M50.9507 23.7189H38.7291C38.3072 23.7189 37.9648 23.3769 37.9648 22.9549C37.9652 22.5328 38.3072 22.1908 38.729 22.1908H50.9507C51.3726 22.1908 51.7148 22.533 51.7148 22.9549C51.715 23.3767 51.3725 23.7189 50.9507 23.7189Z" fill="#617792"/>
<path fill-rule="evenodd" clip-rule="evenodd" d="M40.9249 45.7718H48.7563V35.6285H40.9249V45.7718ZM49.5206 47.3H40.1606C39.739 47.3 39.3965 46.958 39.3965 46.5361L39.3966 34.8643C39.3966 34.4424 39.7387 34.1004 40.1606 34.1004L49.5206 34.1002C49.9424 34.1002 50.2844 34.4426 50.2844 34.8645L50.2846 46.5359C50.2846 46.958 49.9422 47.3 49.5206 47.3Z" fill="#617792"/>
<path fill-rule="evenodd" clip-rule="evenodd" d="M35.6158 35.6284H24.9887C24.5673 35.6284 24.2246 35.2864 24.2246 34.8646C24.2248 34.4425 24.5669 34.1005 24.9887 34.1005H35.6158C36.0375 34.1005 36.3796 34.4426 36.3796 34.8646C36.3798 35.2864 36.0375 35.6285 35.6158 35.6284Z" fill="#617792"/>
<path fill-rule="evenodd" clip-rule="evenodd" d="M35.6158 41.7514H24.9887C24.5673 41.7514 24.2246 41.4096 24.2246 40.9875C24.2248 40.5655 24.5669 40.2235 24.9887 40.2235H35.6158C36.0375 40.2235 36.3796 40.5655 36.3796 40.9875C36.3798 41.4094 36.0375 41.7516 35.6158 41.7514Z" fill="#617792"/>
<path fill-rule="evenodd" clip-rule="evenodd" d="M35.6158 47.8746H24.9887C24.5673 47.8746 24.2246 47.5326 24.2246 47.1108C24.2248 46.6889 24.5669 46.3467 24.9887 46.3467H35.6158C36.0375 46.3467 36.3796 46.6889 36.3796 47.1108C36.3798 47.5326 36.0375 47.8748 35.6158 47.8746Z" fill="#617792"/>
<path fill-rule="evenodd" clip-rule="evenodd" d="M35.6158 53.9981H24.9887C24.5673 53.9981 24.2246 53.6561 24.2246 53.234C24.2248 52.812 24.5669 52.47 24.9887 52.47L35.6158 52.4698C36.0375 52.4698 36.3796 52.812 36.3796 53.234C36.3798 53.6558 36.0375 53.9981 35.6158 53.9981Z" fill="#617792"/>
<path fill-rule="evenodd" clip-rule="evenodd" d="M35.6158 60.1213H24.9887C24.5673 60.1213 24.2246 59.7792 24.2246 59.3571C24.2248 58.935 24.5669 58.5932 24.9887 58.5932L35.6158 58.593C36.0375 58.593 36.3796 58.9352 36.3796 59.3571C36.3798 59.7791 36.0375 60.1213 35.6158 60.1213Z" fill="#617792"/>
<path fill-rule="evenodd" clip-rule="evenodd" d="M50.1528 53.9981H39.526C39.1042 53.9981 38.7617 53.6561 38.7617 53.234C38.7617 52.812 39.1039 52.47 39.5257 52.47L50.1528 52.4698C50.5744 52.4698 50.9166 52.812 50.9166 53.234C50.9168 53.6558 50.5744 53.9981 50.1528 53.9981Z" fill="#617792"/>
<path fill-rule="evenodd" clip-rule="evenodd" d="M50.1528 60.1213H39.526C39.1042 60.1213 38.7617 59.7792 38.7617 59.3571C38.7617 58.935 39.1039 58.5932 39.5257 58.5932L50.1528 58.593C50.5744 58.593 50.9166 58.9352 50.9166 59.3571C50.9168 59.7791 50.5744 60.1213 50.1528 60.1213Z" fill="#617792"/>
<path fill-rule="evenodd" clip-rule="evenodd" d="M64.6919 35.6284H54.0651C53.6433 35.6284 53.3008 35.2864 53.3008 34.8646C53.3008 34.4425 53.643 34.1005 54.0647 34.1005H64.6919C65.1138 34.1005 65.4557 34.4426 65.4557 34.8646C65.4558 35.2864 65.1135 35.6285 64.6919 35.6284Z" fill="#617792"/>
<path fill-rule="evenodd" clip-rule="evenodd" d="M64.6919 41.7514H54.0651C53.6433 41.7514 53.3008 41.4096 53.3008 40.9875C53.3008 40.5655 53.643 40.2235 54.0647 40.2235H64.6919C65.1138 40.2235 65.4557 40.5655 65.4557 40.9875C65.4558 41.4094 65.1135 41.7516 64.6919 41.7514Z" fill="#617792"/>
<path fill-rule="evenodd" clip-rule="evenodd" d="M64.6919 47.8746H54.0651C53.6433 47.8746 53.3008 47.5326 53.3008 47.1108C53.3008 46.6889 53.643 46.3467 54.0647 46.3467H64.6919C65.1138 46.3467 65.4557 46.6889 65.4557 47.1108C65.4558 47.5326 65.1135 47.8748 64.6919 47.8746Z" fill="#617792"/>
<path fill-rule="evenodd" clip-rule="evenodd" d="M64.6919 53.9981H54.0651C53.6433 53.9981 53.3008 53.6561 53.3008 53.234C53.3008 52.812 53.643 52.47 54.0647 52.47L64.6919 52.4698C65.1138 52.4698 65.4557 52.812 65.4557 53.234C65.4558 53.6558 65.1135 53.9981 64.6919 53.9981Z" fill="#617792"/>
<path fill-rule="evenodd" clip-rule="evenodd" d="M64.6919 60.1213H54.0651C53.6433 60.1213 53.3008 59.7792 53.3008 59.3571C53.3008 58.935 53.643 58.5932 54.0647 58.5932L64.6919 58.593C65.1138 58.593 65.4557 58.9352 65.4557 59.3571C65.4558 59.7791 65.1135 60.1213 64.6919 60.1213Z" fill="#617792"/>
</svg>
