<svg width="70" height="70" viewBox="0 0 70 70" fill="none" xmlns="http://www.w3.org/2000/svg">
<path d="M29.5294 56.8073C32.0877 56.8073 34.1624 54.7331 34.1624 52.1743C34.1624 49.6155 32.0882 47.5414 29.5294 47.5414C26.9706 47.5414 24.8965 49.6161 24.8965 52.1743C24.8998 54.732 26.9717 56.8039 29.5294 56.8073ZM29.5294 49.5408C30.9839 49.5402 32.1635 50.7198 32.1635 52.1743C32.1635 53.6288 30.9839 54.8084 29.5294 54.8084C28.0749 54.8084 26.8953 53.6294 26.8953 52.1743C26.897 50.7204 28.0755 49.5425 29.5294 49.5408Z" fill="#617792"/>
<path d="M21.7422 60.5444V66.9632C21.7422 67.5153 22.1945 67.904 22.7466 67.904H36.3103C36.5685 67.9174 36.8206 67.8243 37.0085 67.6464C37.1965 67.4684 37.3035 67.2219 37.3047 66.9632V60.5444C37.3019 59.4201 36.8501 58.3431 36.0498 57.5534C35.2495 56.7637 34.1664 56.327 33.042 56.3392C32.7292 56.327 32.4291 56.467 32.2367 56.7151C32.0348 56.9845 31.7928 57.221 31.5189 57.4173C30.0226 58.4976 27.9378 58.1875 26.8202 56.719C26.6289 56.4698 26.3288 56.3286 26.0148 56.3392C24.8894 56.3264 23.8052 56.7626 23.0032 57.5523C22.2006 58.342 21.7466 59.4189 21.7422 60.5444ZM23.741 60.5444C23.7438 59.4597 24.5118 58.5277 25.5759 58.3175C26.5904 59.4251 28.0232 60.0564 29.5257 60.0564C31.0276 60.0564 32.4604 59.4251 33.4748 58.3175C34.5384 58.5277 35.3047 59.4602 35.3058 60.5444V65.9052H23.741V60.5444Z" fill="#617792"/>
<path d="M45.9025 56.8073C48.4613 56.8073 50.5354 54.7331 50.5354 52.1743C50.5354 49.6155 48.4613 47.5414 45.9025 47.5414C43.3437 47.5414 41.2695 49.6161 41.2695 52.1743C41.2729 54.732 43.3448 56.8039 45.9025 56.8073ZM45.9025 49.5408C47.357 49.5402 48.5366 50.7198 48.5366 52.1743C48.5366 53.6288 47.357 54.8084 45.9025 54.8084C44.4479 54.8084 43.2684 53.6294 43.2684 52.1743C43.2701 50.7204 44.4485 49.5425 45.9025 49.5408Z" fill="#617792"/>
<path d="M38.1625 60.5444V66.9632C38.1552 67.218 38.2545 67.464 38.4363 67.6425C38.6181 67.8209 38.8663 67.9157 39.1206 67.904H52.6843C53.2364 67.904 53.7244 67.5153 53.7244 66.9632V60.5444C53.725 58.1914 51.7702 56.3392 49.4172 56.3392C49.1037 56.327 48.8037 56.467 48.6118 56.7151C48.4099 56.9845 48.1673 57.2216 47.8929 57.4173C46.3971 58.4976 44.3124 58.1875 43.1953 56.719C43.0034 56.4698 42.7034 56.3286 42.3894 56.3392C41.2684 56.3281 40.1903 56.767 39.3956 57.5573C38.6008 58.3476 38.1569 59.424 38.1625 60.5444ZM40.1613 60.5444C40.1541 59.4641 40.9137 58.5299 41.9733 58.3175C43.8166 60.3325 46.8829 60.6325 49.0814 59.0124C49.3675 58.8066 49.6336 58.574 49.8751 58.3169C50.9425 58.5255 51.7166 59.4563 51.7261 60.5444V65.9052H40.1613V60.5444Z" fill="#617792"/>
<path d="M62.2755 56.8073C64.8338 56.8073 66.9079 54.7331 66.9079 52.1743C66.9079 49.6155 64.8338 47.5414 62.275 47.5414C59.7167 47.5414 57.6426 49.6161 57.6426 52.1743C57.6454 54.732 59.7178 56.8045 62.2755 56.8073ZM62.2755 49.5408C63.73 49.5408 64.909 50.7198 64.909 52.1743C64.909 53.6288 63.73 54.8084 62.2755 54.8084C60.8204 54.8084 59.6414 53.6288 59.6414 52.1743C59.6431 50.7204 60.8216 49.5425 62.2755 49.5408Z" fill="#617792"/>
<path d="M65.7881 56.3392C65.4747 56.327 65.1746 56.467 64.9828 56.7151C64.7809 56.9845 64.5383 57.221 64.2644 57.4173C62.7753 58.5216 60.6728 58.2109 59.5662 56.723C59.375 56.4731 59.0755 56.3303 58.7615 56.3392C56.4079 56.3392 54.4375 58.1914 54.4375 60.5444V66.9632C54.4375 67.5153 54.9406 67.904 55.4927 67.904H69.0563C69.3095 67.9152 69.5549 67.8198 69.7345 67.6408C69.9135 67.4618 70.0095 67.2164 69.9989 66.9632V60.5444C70.0078 59.4256 69.5672 58.3498 68.7752 57.5595C67.9838 56.7687 66.9074 56.3292 65.7887 56.3392H65.7881ZM66.1952 58.3163C67.2543 58.5294 68.0117 59.4647 68.0011 60.5444V65.9052H56.4364V60.5444C56.4503 59.4546 57.2272 58.5244 58.2974 58.3163C59.3125 59.4223 60.7453 60.052 62.2466 60.052C63.748 60.052 65.1808 59.4223 66.1958 58.3163H66.1952Z" fill="#617792"/>
<path d="M12.3916 15.335C15.5092 15.3306 18.0334 12.8008 18.0312 9.68315V7.8215C18.0312 4.70666 15.5064 2.18188 12.3916 2.18188C9.27673 2.18188 6.75196 4.70666 6.75196 7.8215V9.68315C6.74917 12.8008 9.27394 15.3306 12.3916 15.335ZM8.75081 7.8215C8.75081 5.81094 10.3804 4.18073 12.3916 4.18073C14.4021 4.18073 16.0323 5.81094 16.0323 7.8215V9.68315C16.0323 11.6937 14.4021 13.3239 12.3916 13.3239C10.3804 13.3239 8.75081 11.6937 8.75081 9.68315V7.8215Z" fill="#617792"/>
<path d="M0.0407676 35.9984C0.0363059 36.9331 0.408859 37.8305 1.07366 38.4874C1.73845 39.145 2.63972 39.507 3.57445 39.4919H3.57612L3.61572 39.5276C4.22753 39.5259 4.82819 39.3631 5.35635 39.0541L5.99159 60.4385C6.04457 61.9717 7.0189 63.3208 8.4578 63.8529C9.89671 64.3855 11.5146 63.9957 12.5531 62.8663C13.5905 63.9979 15.2095 64.3894 16.649 63.8568C18.089 63.3247 19.0633 61.9745 19.1152 60.4402L19.7499 39.1015C20.2758 39.4049 20.8731 39.565 21.481 39.5644C22.4247 39.5622 23.3287 39.1851 23.9941 38.5153C24.6589 37.8461 25.0303 36.9398 25.0264 35.9961V21.7432C25.3404 18.5609 23.0214 15.7238 19.8402 15.3981C19.6489 15.3769 19.4565 15.3651 19.2641 15.3629H16.8135C16.5592 15.3651 16.3143 15.4639 16.1297 15.639L12.5531 18.9981L9.11535 15.6501C8.92907 15.4678 8.67921 15.3646 8.41876 15.3629H5.81814C4.27104 15.3624 2.78696 15.9786 1.69551 17.0751C0.603502 18.171 -0.0066381 19.6573 5.4482e-05 21.2044C5.4482e-05 21.3829 0.0407676 21.5653 0.0407676 21.7432V35.9984ZM15.3618 62.0933C14.8916 62.0916 14.4415 61.9026 14.1119 61.5679C13.7817 61.2333 13.5988 60.7804 13.6044 60.3103V39.29C13.6044 38.7379 13.1565 38.2906 12.605 38.2906C12.0528 38.2906 11.6055 38.7379 11.6055 39.29V60.3103C11.5938 61.2863 10.8075 62.076 9.83145 62.0911C8.85545 62.1067 8.04453 61.3426 8.00215 60.3677L7.25871 35.7797H17.8475L17.1308 60.3616C17.1063 61.322 16.3227 62.0894 15.3618 62.0933ZM3.10653 18.49C3.82375 17.7672 4.80031 17.3612 5.81814 17.3618H8.01274L11.8437 21.094C11.8504 21.1001 11.8571 21.1085 11.8638 21.1141C11.8772 21.1269 11.8911 21.1403 11.905 21.152C11.9167 21.162 11.929 21.1721 11.9413 21.1816C11.9536 21.1905 11.9697 21.2027 11.9848 21.2128C11.9998 21.2223 12.011 21.2301 12.0244 21.2379C12.0378 21.2463 12.0534 21.2557 12.069 21.2635C12.0846 21.2713 12.0974 21.278 12.1119 21.2853C12.1259 21.2931 12.1404 21.2987 12.1555 21.3048C12.1711 21.3109 12.1867 21.3176 12.2023 21.3232C12.2179 21.3288 12.2307 21.3333 12.2464 21.3372C12.262 21.3416 12.2787 21.3466 12.2949 21.3511C12.3111 21.355 12.3244 21.3578 12.3395 21.3611C12.3546 21.3639 12.3724 21.3673 12.3891 21.3701C12.4059 21.3723 12.4198 21.374 12.4349 21.3756C12.4499 21.3773 12.4678 21.379 12.4839 21.3795C12.5001 21.3807 12.5152 21.3812 12.5308 21.3812H12.5788C12.5949 21.3812 12.6111 21.3795 12.6273 21.3784C12.6435 21.3768 12.6585 21.3751 12.6736 21.3729C12.6892 21.3706 12.7065 21.3684 12.7232 21.365C12.7394 21.3623 12.7528 21.3595 12.7678 21.3556C12.7829 21.3522 12.8007 21.3478 12.8169 21.3433C12.8331 21.3383 12.8465 21.3344 12.861 21.3288C12.8755 21.3232 12.8927 21.3176 12.9084 21.3115C12.924 21.3048 12.9368 21.2992 12.9519 21.2931C12.9669 21.2864 12.982 21.2786 12.997 21.2713C13.0115 21.2635 13.0255 21.2557 13.04 21.2479C13.0539 21.2396 13.0684 21.2312 13.0824 21.2217C13.0969 21.2128 13.1114 21.2033 13.1242 21.1933C13.137 21.1832 13.151 21.1737 13.1638 21.1632C13.1766 21.1526 13.19 21.1414 13.2023 21.1302C13.2095 21.1241 13.2173 21.113 13.2246 21.1063L17.2095 17.3618H19.2635C20.413 17.3796 21.4977 17.8977 22.2345 18.7806C22.8736 19.5703 23.1692 20.5837 23.0554 21.5931C23.0521 21.6266 23.027 21.6617 23.027 21.6952V35.9961C23.027 36.8634 22.3243 37.5667 21.4565 37.5667C20.5892 37.5667 19.8859 36.8634 19.8859 35.9961V32.8835L19.9004 32.386C19.9021 32.3163 19.8859 32.2483 19.8859 32.1819V26.4241C19.8859 25.8719 19.4386 25.4246 18.8865 25.4246C18.3349 25.4246 17.8871 25.8719 17.8871 26.4241V32.8529L17.9066 33.7809H7.1996L7.17506 32.313C7.17338 32.2661 7.17952 32.2338 7.17952 32.1886V26.4241C7.17952 25.8719 6.73167 25.4246 6.18009 25.4246C5.62796 25.4246 5.18067 25.8719 5.18067 26.4241V35.9259C5.179 36.3441 5.01112 36.7446 4.71386 37.0385C4.41604 37.3324 4.01393 37.4964 3.59564 37.493H3.57445C3.16788 37.5075 2.77357 37.3542 2.48244 37.0697C2.19299 36.7892 2.03293 36.401 2.03962 35.9978V21.6952C2.03962 21.6612 2.02177 21.6277 2.01842 21.5943C2.0056 21.4654 1.9911 21.3333 1.9911 21.2044C1.98496 20.1871 2.38707 19.2095 3.10653 18.49Z" fill="#617792"/>
<path d="M27.1641 11.2224H28.7379V31.6392C28.7402 32.7039 29.1663 33.7234 29.9214 34.4735C30.6771 35.2237 31.6994 35.6419 32.7641 35.6369H45.3378L38.4059 41.827C38.0958 42.1042 37.9888 42.5442 38.136 42.933C38.2832 43.3222 38.6552 43.5805 39.0713 43.5827C39.3161 43.5838 39.5526 43.4946 39.7355 43.3317L47.3957 36.5081L55.056 43.3328C55.4675 43.6998 56.0994 43.6636 56.467 43.2514C56.8339 42.8342 56.7977 42.1996 56.3855 41.8265L49.4537 35.6369H62.0274C63.0865 35.6403 64.1026 35.2192 64.8494 34.4685C65.5962 33.7173 66.0111 32.6983 66.0022 31.6392V11.2224H67.6782C68.2426 11.2129 68.6993 10.7606 68.7149 10.1962V3.33464C68.6938 2.7825 68.2303 2.35139 67.6782 2.37035H27.1641C26.9031 2.36255 26.6499 2.4607 26.4625 2.64196C26.2751 2.82378 26.1686 3.07363 26.168 3.33464V10.1962C26.1641 10.7528 26.6075 11.2096 27.1641 11.2224ZM64.0034 31.6392C64.0134 32.1685 63.8087 32.6794 63.4367 33.0553C63.0647 33.4317 62.5567 33.642 62.0274 33.6381H32.7641C32.2298 33.6442 31.715 33.4362 31.3341 33.0608C30.9537 32.6855 30.7385 32.1741 30.7368 31.6392V11.2224H64.0034V31.6392ZM28.1668 4.3692H66.7161V9.22355H28.1668V4.3692Z" fill="#617792"/>
<path d="M35.3061 19.075H53.724C54.2756 19.075 54.7235 18.6277 54.7235 18.0756C54.7235 17.524 54.2756 17.0762 53.724 17.0762H35.3061C34.7539 17.0762 34.3066 17.524 34.3066 18.0756C34.3066 18.6277 34.7539 19.075 35.3061 19.075Z" fill="#617792"/>
<path d="M35.3061 23.0727H59.5778C60.1294 23.0727 60.5772 22.6254 60.5772 22.0733C60.5772 21.5217 60.1294 21.0739 59.5778 21.0739H35.3061C34.7539 21.0739 34.3066 21.5217 34.3066 22.0733C34.3066 22.6254 34.7539 23.0727 35.3061 23.0727Z" fill="#617792"/>
<path d="M35.3061 26.9277H59.5778C60.1294 26.9277 60.5772 26.4804 60.5772 25.9283C60.5772 25.3767 60.1294 24.9288 59.5778 24.9288H35.3061C34.7539 24.9288 34.3066 25.3767 34.3066 25.9283C34.3066 26.4804 34.7539 26.9277 35.3061 26.9277Z" fill="#617792"/>
</svg>
