<svg width="70" height="70" viewBox="0 0 70 70" fill="none" xmlns="http://www.w3.org/2000/svg">
<g clip-path="url(#clip0_1599_1721)">
<path d="M15.6146 1.02539H66.7638C67.5867 1.02539 68.2538 1.69244 68.2538 2.51535V6.43877C68.2538 6.83717 67.9307 7.16023 67.5323 7.16023H2.46951C2.07111 7.16023 1.74805 6.83717 1.74805 6.43877V2.51535C1.74805 1.69244 2.4151 1.02539 3.23801 1.02539H10.556" stroke="#617792" stroke-width="2" stroke-miterlimit="10" stroke-linecap="round" stroke-linejoin="round"/>
<path d="M54.4808 57.6893H64.3192C65.5524 57.6893 66.5521 56.6896 66.5521 55.4564V7.16023H3.45117V55.4565C3.45117 56.6897 4.45086 57.6894 5.68406 57.6894H49.559" stroke="#617792" stroke-width="2" stroke-miterlimit="10" stroke-linecap="round" stroke-linejoin="round"/>
<path d="M35.0008 68.9746C36.7573 68.9746 38.1813 67.5507 38.1813 65.7941C38.1813 64.0376 36.7573 62.6136 35.0008 62.6136C33.2443 62.6136 31.8203 64.0376 31.8203 65.7941C31.8203 67.5507 33.2443 68.9746 35.0008 68.9746Z" stroke="#617792" stroke-width="2" stroke-miterlimit="10" stroke-linecap="round" stroke-linejoin="round"/>
<path d="M35 62.6136V58.2326" stroke="#617792" stroke-width="2" stroke-miterlimit="10" stroke-linecap="round" stroke-linejoin="round"/>
<path d="M9.31055 14.8483H20.9608" stroke="#617792" stroke-width="2" stroke-miterlimit="10" stroke-linecap="round" stroke-linejoin="round"/>
<path d="M9.31055 18.8215H20.9608" stroke="#617792" stroke-width="2" stroke-miterlimit="10" stroke-linecap="round" stroke-linejoin="round"/>
<path d="M9.31055 22.7947H14.3788" stroke="#617792" stroke-width="2" stroke-miterlimit="10" stroke-linecap="round" stroke-linejoin="round"/>
<path d="M60.0662 50.4608H48.416" stroke="#617792" stroke-width="2" stroke-miterlimit="10" stroke-linecap="round" stroke-linejoin="round"/>
<path d="M60.0662 46.4877H48.416" stroke="#617792" stroke-width="2" stroke-miterlimit="10" stroke-linecap="round" stroke-linejoin="round"/>
<path d="M60.0644 42.5145H54.9961" stroke="#617792" stroke-width="2" stroke-miterlimit="10" stroke-linecap="round" stroke-linejoin="round"/>
<path d="M50.189 22.1691H33.9195C33.1183 22.1691 32.4688 21.5195 32.4688 20.7184V15.8394C32.4688 15.0382 33.1183 14.3887 33.9195 14.3887H50.189C50.9902 14.3887 51.6397 15.0382 51.6397 15.8394V20.7184C51.6397 21.5195 50.9903 22.1691 50.189 22.1691Z" stroke="#617792" stroke-width="2" stroke-miterlimit="10" stroke-linecap="round" stroke-linejoin="round"/>
<path d="M16.1653 36.347H10.1115C9.61086 36.347 9.20508 35.9412 9.20508 35.4405V30.8347C9.20508 30.3341 9.61086 29.9283 10.1115 29.9283H16.1653C16.666 29.9283 17.0717 30.3341 17.0717 30.8347V35.4405C17.0717 35.9412 16.6658 36.347 16.1653 36.347Z" stroke="#617792" stroke-width="2" stroke-miterlimit="10" stroke-linecap="round" stroke-linejoin="round"/>
<path d="M30.6223 36.347H24.5686C24.0679 36.347 23.6621 35.9412 23.6621 35.4405V30.8347C23.6621 30.3341 24.0679 29.9283 24.5686 29.9283H30.6223C31.123 29.9283 31.5288 30.3341 31.5288 30.8347V35.4405C31.5288 35.9412 31.123 36.347 30.6223 36.347Z" stroke="#617792" stroke-width="2" stroke-miterlimit="10" stroke-linecap="round" stroke-linejoin="round"/>
<path d="M16.1653 49.6539H10.1115C9.61086 49.6539 9.20508 49.2481 9.20508 48.7475V44.1417C9.20508 43.641 9.61086 43.2353 10.1115 43.2353H16.1653C16.666 43.2353 17.0717 43.641 17.0717 44.1417V48.7475C17.0717 49.248 16.6658 49.6539 16.1653 49.6539Z" stroke="#617792" stroke-width="2" stroke-miterlimit="10" stroke-linecap="round" stroke-linejoin="round"/>
<path d="M30.6223 49.6539H24.5686C24.0679 49.6539 23.6621 49.2481 23.6621 48.7475V44.1417C23.6621 43.641 24.0679 43.2353 24.5686 43.2353H30.6223C31.123 43.2353 31.5288 43.641 31.5288 44.1417V48.7475C31.5288 49.248 31.123 49.6539 30.6223 49.6539Z" stroke="#617792" stroke-width="2" stroke-miterlimit="10" stroke-linecap="round" stroke-linejoin="round"/>
<path d="M42.0527 22.4587V29.6386" stroke="#617792" stroke-width="2" stroke-miterlimit="10" stroke-linecap="round" stroke-linejoin="round"/>
<path d="M13.1387 36.6365V42.2514" stroke="#617792" stroke-width="2" stroke-miterlimit="10" stroke-linecap="round" stroke-linejoin="round"/>
<path d="M27.5957 36.6365V42.2514" stroke="#617792" stroke-width="2" stroke-miterlimit="10" stroke-linecap="round" stroke-linejoin="round"/>
<path d="M16.1653 49.6539H10.1115C9.61086 49.6539 9.20508 49.2481 9.20508 48.7475V44.1417C9.20508 43.641 9.61086 43.2353 10.1115 43.2353H16.1653C16.666 43.2353 17.0717 43.641 17.0717 44.1417V48.7475C17.0717 49.248 16.6658 49.6539 16.1653 49.6539Z" stroke="#617792" stroke-width="2" stroke-miterlimit="10" stroke-linecap="round" stroke-linejoin="round"/>
<path d="M30.6223 49.6539H24.5686C24.0679 49.6539 23.6621 49.2481 23.6621 48.7475V44.1417C23.6621 43.641 24.0679 43.2353 24.5686 43.2353H30.6223C31.123 43.2353 31.5288 43.641 31.5288 44.1417V48.7475C31.5288 49.248 31.123 49.6539 30.6223 49.6539Z" stroke="#617792" stroke-width="2" stroke-miterlimit="10" stroke-linecap="round" stroke-linejoin="round"/>
<path d="M45.0813 36.347H39.0275C38.5269 36.347 38.1211 35.9412 38.1211 35.4405V30.8347C38.1211 30.3341 38.5269 29.9283 39.0275 29.9283H45.0813C45.582 29.9283 45.9878 30.3341 45.9878 30.8347V35.4405C45.9878 35.9412 45.5818 36.347 45.0813 36.347Z" stroke="#617792" stroke-width="2" stroke-miterlimit="10" stroke-linecap="round" stroke-linejoin="round"/>
<path d="M59.8899 36.347H53.8361C53.3355 36.347 52.9297 35.9412 52.9297 35.4405V30.8347C52.9297 30.3341 53.3355 29.9283 53.8361 29.9283H59.8899C60.3906 29.9283 60.7963 30.3341 60.7963 30.8347V35.4405C60.7963 35.9412 60.3906 36.347 59.8899 36.347Z" stroke="#617792" stroke-width="2" stroke-miterlimit="10" stroke-linecap="round" stroke-linejoin="round"/>
</g>
<defs>
<clipPath id="clip0_1599_1721">
<rect width="70" height="70" fill="white"/>
</clipPath>
</defs>
</svg>
