<svg width="70" height="70" viewBox="0 0 70 70" fill="none" xmlns="http://www.w3.org/2000/svg">
<path d="M13.125 67.8125H4.375C4.08492 67.8125 3.80672 67.6973 3.6016 67.4921C3.39648 67.287 3.28125 67.0088 3.28125 66.7188V56.875C3.28125 56.5849 3.39648 56.3067 3.6016 56.1016C3.80672 55.8965 4.08492 55.7812 4.375 55.7812H13.125C13.4151 55.7812 13.6933 55.8965 13.8984 56.1016C14.1035 56.3067 14.2188 56.5849 14.2188 56.875V66.7188C14.2188 67.0088 14.1035 67.287 13.8984 67.4921C13.6933 67.6973 13.4151 67.8125 13.125 67.8125ZM5.46875 65.625H12.0312V57.9688H5.46875V65.625Z" fill="#617792"/>
<path d="M26.25 67.8125H17.5C17.2099 67.8125 16.9317 67.6973 16.7266 67.4921C16.5215 67.287 16.4062 67.0088 16.4062 66.7188V48.125C16.4062 47.8349 16.5215 47.5567 16.7266 47.3516C16.9317 47.1465 17.2099 47.0312 17.5 47.0312H26.25C26.5401 47.0312 26.8183 47.1465 27.0234 47.3516C27.2285 47.5567 27.3438 47.8349 27.3438 48.125V66.7188C27.3438 67.0088 27.2285 67.287 27.0234 67.4921C26.8183 67.6973 26.5401 67.8125 26.25 67.8125ZM18.5938 65.625H25.1562V49.2188H18.5938V65.625Z" fill="#617792"/>
<path d="M39.375 67.8125H30.625C30.3349 67.8125 30.0567 67.6973 29.8516 67.4921C29.6465 67.287 29.5312 67.0088 29.5312 66.7188V37.1875C29.5312 36.8974 29.6465 36.6192 29.8516 36.4141C30.0567 36.209 30.3349 36.0938 30.625 36.0938H39.375C39.6651 36.0938 39.9433 36.209 40.1484 36.4141C40.3535 36.6192 40.4688 36.8974 40.4688 37.1875V66.7188C40.4688 67.0088 40.3535 67.287 40.1484 67.4921C39.9433 67.6973 39.6651 67.8125 39.375 67.8125ZM31.7188 65.625H38.2812V38.2812H31.7188V65.625Z" fill="#617792"/>
<path d="M52.5 67.8125H43.75C43.4599 67.8125 43.1817 67.6973 42.9766 67.4921C42.7715 67.287 42.6562 67.0088 42.6562 66.7188V26.25C42.6562 25.9599 42.7715 25.6817 42.9766 25.4766C43.1817 25.2715 43.4599 25.1562 43.75 25.1562H52.5C52.7901 25.1562 53.0683 25.2715 53.2734 25.4766C53.4785 25.6817 53.5938 25.9599 53.5938 26.25V66.7188C53.5938 67.0088 53.4785 67.287 53.2734 67.4921C53.0683 67.6973 52.7901 67.8125 52.5 67.8125ZM44.8438 65.625H51.4062V27.3438H44.8438V65.625Z" fill="#617792"/>
<path d="M50.6211 18.831C50.331 18.831 50.0528 18.7158 49.8477 18.5107C49.6426 18.3056 49.5273 18.0274 49.5273 17.7373C49.5273 17.466 49.5973 11.0326 53.4342 7.19572C57.1945 3.42993 64.8005 2.02556 65.1231 1.96868C65.2965 1.93796 65.4747 1.94955 65.6426 2.00246C65.8106 2.05537 65.9633 2.14804 66.0877 2.27259C66.2122 2.39714 66.3047 2.5499 66.3575 2.71788C66.4102 2.88586 66.4217 3.06409 66.3908 3.23743C66.3317 3.559 64.9262 11.1649 61.1659 14.9252C57.3127 18.7774 50.8278 18.7982 50.6211 18.831ZM63.8686 4.49306C61.5345 5.08915 57.2875 6.43118 54.9808 8.7379C52.6741 11.0446 51.9937 14.6977 51.7958 16.5626C53.6617 16.3646 57.3116 15.6876 59.6216 13.3787C61.9316 11.0698 63.2736 6.82493 63.8686 4.49306Z" fill="#617792"/>
<path d="M48.125 27.3438C47.8349 27.3438 47.5567 27.2285 47.3516 27.0234C47.1465 26.8183 47.0312 26.5401 47.0312 26.25C47.0312 15.8496 56 11.2438 56.3861 11.0524C56.6456 10.9218 56.9463 10.8997 57.2221 10.9909C57.4978 11.0821 57.7261 11.2791 57.8566 11.5385C57.9872 11.798 58.0093 12.0987 57.9181 12.3745C57.8269 12.6503 57.6299 12.8786 57.3705 13.0091C57.0336 13.1764 49.2188 17.2255 49.2188 26.25C49.2188 26.5401 49.1035 26.8183 48.8984 27.0234C48.6933 27.2285 48.4151 27.3438 48.125 27.3438Z" fill="#617792"/>
<path d="M43.1664 15.6275C41.8933 15.6275 37.9383 15.4219 35.5233 13.0025C32.7539 10.2342 31.9982 4.44391 31.9675 4.2C31.9467 4.0346 31.964 3.86663 32.018 3.70892C32.0721 3.55122 32.1615 3.40796 32.2793 3.29008C32.3972 3.1722 32.5405 3.08283 32.6982 3.02879C32.8559 2.97475 33.0239 2.95747 33.1893 2.97828C33.4332 3.00891 39.2224 3.76469 41.9918 6.53406C44.8355 9.37781 44.6168 14.3675 44.6036 14.5786C44.5897 14.8488 44.476 15.1042 44.2847 15.2955C44.0934 15.4868 43.838 15.6004 43.5679 15.6144C43.5318 15.6198 43.3939 15.6275 43.1664 15.6275ZM34.4055 5.41734C34.7774 7.15203 35.5802 9.97062 37.0699 11.4603C38.5734 12.6947 40.4513 13.3826 42.3964 13.4116C42.3672 11.4665 41.6793 9.58874 40.4452 8.085C39.0364 6.67734 36.2933 5.82859 34.4055 5.41734Z" fill="#617792"/>
<path d="M48.124 27.3437C47.834 27.3437 47.5558 27.2285 47.3506 27.0234C47.1455 26.8182 47.0303 26.54 47.0303 26.25C47.0303 17.1226 37.7662 10.816 37.6722 10.7537C37.4308 10.5926 37.2634 10.3422 37.2067 10.0575C37.1499 9.77295 37.2086 9.47747 37.3697 9.23613C37.5309 8.99478 37.7813 8.82733 38.0659 8.77062C38.3505 8.7139 38.646 8.77257 38.8873 8.93371C39.3084 9.2148 49.2178 15.9392 49.2178 26.25C49.2178 26.54 49.1026 26.8182 48.8974 27.0234C48.6923 27.2285 48.4141 27.3437 48.124 27.3437Z" fill="#617792"/>
</svg>
