<svg width="70" height="70" viewBox="0 0 70 70" fill="none" xmlns="http://www.w3.org/2000/svg">
<path d="M46.376 68.9746H10.6049C9.44566 68.9746 8.50586 68.0348 8.50586 66.8756V3.12443C8.50586 1.9652 9.44566 1.02539 10.6049 1.02539H18.943" stroke="#617792" stroke-width="2" stroke-miterlimit="10" stroke-linecap="round" stroke-linejoin="round"/>
<path d="M24.002 1.02539H59.3937C60.5529 1.02539 61.4927 1.9652 61.4927 3.12443V66.8756C61.4927 68.0348 60.5529 68.9746 59.3937 68.9746H51.8451" stroke="#617792" stroke-width="2" stroke-miterlimit="10" stroke-linecap="round" stroke-linejoin="round"/>
<path d="M28.6602 23.1495H38.1586" stroke="#617792" stroke-width="2" stroke-miterlimit="10" stroke-linecap="round" stroke-linejoin="round"/>
<path d="M28.6602 18.0842H52.7097" stroke="#617792" stroke-width="2" stroke-miterlimit="10" stroke-linecap="round" stroke-linejoin="round"/>
<path d="M51.7211 11.2075H18.2789C17.7323 11.2075 17.2891 10.7644 17.2891 10.2177V7.14011C17.2891 6.59351 17.7322 6.15027 18.2789 6.15027H51.7211C52.2677 6.15027 52.711 6.59337 52.711 7.14011V10.2177C52.711 10.7643 52.2677 11.2075 51.7211 11.2075Z" stroke="#617792" stroke-width="2" stroke-miterlimit="10" stroke-linecap="round" stroke-linejoin="round"/>
<path d="M19.8072 25.1409C22.3058 25.1409 24.3313 23.1155 24.3313 20.6169C24.3313 18.1184 22.3058 16.0929 19.8072 16.0929C17.3087 16.0929 15.2832 18.1184 15.2832 20.6169C15.2832 23.1155 17.3087 25.1409 19.8072 25.1409Z" stroke="#617792" stroke-width="2" stroke-miterlimit="10" stroke-linecap="round" stroke-linejoin="round"/>
<path d="M18.5625 20.7141L19.2461 21.5199L21.0523 19.7137" stroke="#617792" stroke-width="2" stroke-miterlimit="10" stroke-linecap="round" stroke-linejoin="round"/>
<path d="M28.6602 36.0872H38.1586" stroke="#617792" stroke-width="2" stroke-miterlimit="10" stroke-linecap="round" stroke-linejoin="round"/>
<path d="M28.6602 31.022H52.7097" stroke="#617792" stroke-width="2" stroke-miterlimit="10" stroke-linecap="round" stroke-linejoin="round"/>
<path d="M19.8072 38.0787C22.3058 38.0787 24.3313 36.0532 24.3313 33.5547C24.3313 31.0561 22.3058 29.0306 19.8072 29.0306C17.3087 29.0306 15.2832 31.0561 15.2832 33.5547C15.2832 36.0532 17.3087 38.0787 19.8072 38.0787Z" stroke="#617792" stroke-width="2" stroke-miterlimit="10" stroke-linecap="round" stroke-linejoin="round"/>
<path d="M18.5625 33.6519L19.2461 34.4577L21.0523 32.6515" stroke="#617792" stroke-width="2" stroke-miterlimit="10" stroke-linecap="round" stroke-linejoin="round"/>
<path d="M28.6602 49.0249H38.1586" stroke="#617792" stroke-width="2" stroke-miterlimit="10" stroke-linecap="round" stroke-linejoin="round"/>
<path d="M28.6602 43.9597H52.7097" stroke="#617792" stroke-width="2" stroke-miterlimit="10" stroke-linecap="round" stroke-linejoin="round"/>
<path d="M19.8072 51.0163C22.3058 51.0163 24.3313 48.9908 24.3313 46.4923C24.3313 43.9937 22.3058 41.9683 19.8072 41.9683C17.3087 41.9683 15.2832 43.9937 15.2832 46.4923C15.2832 48.9908 17.3087 51.0163 19.8072 51.0163Z" stroke="#617792" stroke-width="2" stroke-miterlimit="10" stroke-linecap="round" stroke-linejoin="round"/>
<path d="M18.5625 46.5895L19.2461 47.3954L21.0523 45.5892" stroke="#617792" stroke-width="2" stroke-miterlimit="10" stroke-linecap="round" stroke-linejoin="round"/>
<path d="M28.6602 61.9628H38.1586" stroke="#617792" stroke-width="2" stroke-miterlimit="10" stroke-linecap="round" stroke-linejoin="round"/>
<path d="M28.6602 56.8975H52.7097" stroke="#617792" stroke-width="2" stroke-miterlimit="10" stroke-linecap="round" stroke-linejoin="round"/>
<path d="M19.8072 63.9541C22.3058 63.9541 24.3313 61.9286 24.3313 59.43C24.3313 56.9315 22.3058 54.906 19.8072 54.906C17.3087 54.906 15.2832 56.9315 15.2832 59.43C15.2832 61.9286 17.3087 63.9541 19.8072 63.9541Z" stroke="#617792" stroke-width="2" stroke-miterlimit="10" stroke-linecap="round" stroke-linejoin="round"/>
<path d="M18.5625 59.5272L19.2461 60.3332L21.0523 58.527" stroke="#617792" stroke-width="2" stroke-miterlimit="10" stroke-linecap="round" stroke-linejoin="round"/>
</svg>
