<svg width="70" height="70" viewBox="0 0 70 70" fill="none" xmlns="http://www.w3.org/2000/svg">
<path d="M69.7266 11.1097C69.7266 7.92587 67.1364 5.33569 63.9526 5.33569H61.2049C59.848 5.33569 58.7439 6.43972 58.7439 7.79663V10.7397H3.55469C1.74537 10.7397 0.273438 12.2117 0.273438 14.0209V61.3832C0.273438 63.1924 1.74537 64.6644 3.55469 64.6644H63.9526C67.076 64.6644 69.6658 62.1246 69.7254 59.0027C69.7259 58.9762 69.7248 58.9499 69.7249 58.9233C69.7252 58.9123 69.7266 58.9015 69.7266 58.8905V11.1097ZM60.9314 7.79663C60.9314 7.64589 61.0541 7.52319 61.2049 7.52319H63.9526C65.9302 7.52319 67.5391 9.13204 67.5391 11.1097V54.4112C66.498 53.5827 65.1924 53.1165 63.8602 53.1165H61.2049C61.0541 53.1165 60.9314 52.9938 60.9314 52.8431V7.79663ZM63.9526 62.4769H3.55469C2.9516 62.4769 2.46094 61.9863 2.46094 61.3832V14.0209C2.46094 13.4179 2.9516 12.9272 3.55469 12.9272H58.7439V52.8431C58.7439 54.2 59.848 55.304 61.2049 55.304H63.8602C64.8483 55.304 65.8153 55.7119 66.513 56.4231C67.1922 57.1155 67.5564 58.0167 67.5383 58.9608C67.5013 60.8996 65.8927 62.4769 63.9526 62.4769Z" fill="#617792"/>
<path d="M33.4406 33.0288H31.0699V25.979C31.0699 25.3759 31.5606 24.8853 32.1637 24.8853H45.3094C45.9125 24.8853 46.4032 25.3759 46.4032 25.979V26.5681C45.9762 26.3613 45.4475 26.45 45.1141 26.8205C44.7099 27.2694 44.7464 27.961 45.1954 28.3652L46.7653 29.7782C46.9731 29.9653 47.2351 30.0589 47.4969 30.0589C47.7587 30.0589 48.0207 29.9653 48.2286 29.7782L49.7984 28.3652C50.2474 27.961 50.2839 27.2694 49.8797 26.8205C49.5465 26.45 49.0177 26.3613 48.5907 26.5681V25.979C48.5907 24.1698 47.1187 22.6978 45.3094 22.6978H32.1637C30.3544 22.6978 28.8824 24.1698 28.8824 25.979V33.0288H26.5117C24.7024 33.0288 23.2305 34.5008 23.2305 36.3101V39.0943C23.2305 40.9035 24.7024 42.3755 26.5117 42.3755H33.4406C35.2498 42.3755 36.7218 40.9035 36.7218 39.0943V36.3101C36.7218 34.5008 35.2498 33.0288 33.4406 33.0288ZM34.5343 39.0943C34.5343 39.6973 34.0437 40.188 33.4406 40.188H26.5117C25.9086 40.188 25.418 39.6973 25.418 39.0943V36.3101C25.418 35.707 25.9086 35.2163 26.5117 35.2163H33.4406C34.0437 35.2163 34.5343 35.707 34.5343 36.3101V39.0943Z" fill="#617792"/>
<path d="M50.9621 33.0288H44.0332C42.2239 33.0288 40.752 34.5008 40.752 36.3101V39.0942C40.752 40.9035 42.2239 42.3755 44.0332 42.3755H50.9621C52.7713 42.3755 54.2433 40.9035 54.2433 39.0942V36.3101C54.2433 34.5008 52.7713 33.0288 50.9621 33.0288ZM52.0558 39.0942C52.0558 39.6973 51.5652 40.188 50.9621 40.188H44.0332C43.4301 40.188 42.9395 39.6973 42.9395 39.0942V36.3101C42.9395 35.707 43.4301 35.2163 44.0332 35.2163H50.9621C51.5652 35.2163 52.0558 35.707 52.0558 36.3101V39.0942Z" fill="#617792"/>
<path d="M32.279 46.9023L30.7091 45.4893C30.2931 45.1149 29.6617 45.1149 29.2457 45.4893L27.6758 46.9023C27.2269 47.3064 27.1905 47.998 27.5945 48.4469C27.928 48.8174 28.4566 48.9062 28.8836 48.6994V49.4253C28.8836 50.0284 28.393 50.5191 27.7899 50.5191H14.6441C14.041 50.5191 13.5504 50.0284 13.5504 49.4253V42.3755H15.921C17.7303 42.3755 19.2022 40.9035 19.2022 39.0942V36.3101C19.2022 34.5008 17.7303 33.0288 15.921 33.0288H8.99219C7.18287 33.0288 5.71094 34.5008 5.71094 36.3101V39.0942C5.71094 40.9035 7.18287 42.3755 8.99219 42.3755H11.3629V49.4253C11.3629 51.2346 12.8348 52.7066 14.6441 52.7066H27.7899C29.5991 52.7066 31.0711 51.2346 31.0711 49.4253V48.7002C31.2214 48.773 31.3843 48.809 31.5469 48.809C31.8462 48.809 32.1443 48.687 32.3602 48.4469C32.7643 47.998 32.7279 47.3064 32.279 46.9023ZM7.89844 39.0942V36.3101C7.89844 35.707 8.3891 35.2163 8.99219 35.2163H15.921C16.5241 35.2163 17.0147 35.707 17.0147 36.3101V39.0942C17.0147 39.6973 16.5241 40.188 15.921 40.188H8.99219C8.3891 40.188 7.89844 39.6973 7.89844 39.0942Z" fill="#617792"/>
<path d="M6.80469 24.8853H18.1085C18.7126 24.8853 19.2022 24.3955 19.2022 23.7915C19.2022 23.1875 18.7126 22.6978 18.1085 22.6978H6.80469C6.2006 22.6978 5.71094 23.1875 5.71094 23.7915C5.71094 24.3955 6.2006 24.8853 6.80469 24.8853Z" fill="#617792"/>
<path d="M6.80469 29.6028H13.7283C14.3324 29.6028 14.822 29.1131 14.822 28.509C14.822 27.905 14.3324 27.4153 13.7283 27.4153H6.80469C6.2006 27.4153 5.71094 27.905 5.71094 28.509C5.71094 29.1131 6.2006 29.6028 6.80469 29.6028Z" fill="#617792"/>
</svg>
