<svg width="70" height="70" viewBox="0 0 70 70" fill="none" xmlns="http://www.w3.org/2000/svg">
<path d="M68.3364 51.6579L54.1177 43.8846C53.3947 43.4854 52.5 44.0125 52.5 44.8438V60.3904C52.5 61.2479 53.445 61.7729 54.1778 61.3157L57.342 59.3185L60.8705 65.1011C61.1636 65.5824 61.7717 65.7574 62.2716 65.52L67.7447 62.929C68.3309 62.6522 68.5486 61.9271 68.2106 61.3715L64.6975 55.6096L68.3463 53.5719C69.0955 53.1552 69.0911 52.0713 68.3364 51.6579ZM62.6391 54.2544C62.0944 54.5585 61.9172 55.253 62.2388 55.7791L65.7103 61.4732L62.2256 63.1226L58.6316 57.2316C58.3122 56.7077 57.6286 56.5513 57.1134 56.8761L54.6875 58.4063V46.689L65.5517 52.628L62.6391 54.2544Z" fill="#617792"/>
<path d="M49.2188 55.7812H5.46875C4.26234 55.7812 3.28125 54.8002 3.28125 53.5938V8.75C3.28125 7.54359 4.26234 6.5625 5.46875 6.5625H60.1562C61.3627 6.5625 62.3438 7.54359 62.3438 8.75V10.9375H6.5625C5.95766 10.9375 5.46875 11.4275 5.46875 12.0312C5.46875 12.635 5.95766 13.125 6.5625 13.125H62.3438V44.8438C62.3438 46.2908 64.5312 46.2919 64.5312 44.8438V8.75C64.5312 6.33719 62.5691 4.375 60.1562 4.375H5.46875C3.05594 4.375 1.09375 6.33719 1.09375 8.75V53.5938C1.09375 56.0066 3.05594 57.9688 5.46875 57.9688H49.2188C50.6669 57.9688 50.6658 55.7812 49.2188 55.7812Z" fill="#617792"/>
<path d="M8.75 9.84375C9.35406 9.84375 9.84375 9.35406 9.84375 8.75C9.84375 8.14594 9.35406 7.65625 8.75 7.65625C8.14594 7.65625 7.65625 8.14594 7.65625 8.75C7.65625 9.35406 8.14594 9.84375 8.75 9.84375Z" fill="#617792"/>
<path d="M13.125 9.84375C13.7291 9.84375 14.2188 9.35406 14.2188 8.75C14.2188 8.14594 13.7291 7.65625 13.125 7.65625C12.5209 7.65625 12.0312 8.14594 12.0312 8.75C12.0312 9.35406 12.5209 9.84375 13.125 9.84375Z" fill="#617792"/>
<path d="M17.5 9.84375C18.1041 9.84375 18.5938 9.35406 18.5938 8.75C18.5938 8.14594 18.1041 7.65625 17.5 7.65625C16.8959 7.65625 16.4062 8.14594 16.4062 8.75C16.4062 9.35406 16.8959 9.84375 17.5 9.84375Z" fill="#617792"/>
<path d="M13.125 28.4375V21.4485L17.6564 28.9997C18.2241 29.9491 19.6875 29.5433 19.6875 28.4375V17.5C19.6875 16.053 17.5 16.0519 17.5 17.5V24.4891L12.9686 16.9378C12.4031 15.9917 10.9375 16.3921 10.9375 17.5V28.4375C10.9375 29.8846 13.125 29.8856 13.125 28.4375Z" fill="#617792"/>
<path d="M28.4375 18.5938C29.8856 18.5938 29.8845 16.4062 28.4375 16.4062H22.9688C22.3639 16.4062 21.875 16.8963 21.875 17.5V28.4375C21.875 29.0412 22.3639 29.5312 22.9688 29.5312H28.4375C29.8856 29.5312 29.8845 27.3438 28.4375 27.3438H24.0625V24.0625H28.4375C29.8856 24.0625 29.8845 21.875 28.4375 21.875H24.0625V18.5938H28.4375Z" fill="#617792"/>
<path d="M34.8015 29.0643L37.7338 24.8752L40.6662 29.0643C41.2459 29.8922 42.5485 29.5565 42.6502 28.5458L43.744 17.6083C43.8873 16.1657 41.7129 15.9535 41.5674 17.3907L40.7679 25.3936L38.6307 22.341C38.2205 21.7558 37.2482 21.7558 36.838 22.341L34.7009 25.3936L33.9002 17.3907C33.7569 15.9568 31.5793 16.1646 31.7237 17.6083L32.8174 28.5458C32.9191 29.5587 34.2218 29.889 34.8015 29.0643Z" fill="#617792"/>
<path d="M50.8594 27.3438H49.2188C48.615 27.3438 48.125 26.8527 48.125 26.25C48.125 24.803 45.9375 24.8019 45.9375 26.25C45.9375 28.0591 47.4097 29.5312 49.2188 29.5312H50.8594C52.9703 29.5312 54.6875 27.8141 54.6875 25.7031C54.6875 23.5922 52.9703 21.875 50.8594 21.875H49.7656C48.8611 21.875 48.125 21.1389 48.125 20.2344C48.125 19.3298 48.8611 18.5938 49.7656 18.5938H51.4062C52.01 18.5938 52.5 19.0848 52.5 19.6875C52.5 21.1345 54.6875 21.1356 54.6875 19.6875C54.6875 17.8784 53.2153 16.4062 51.4062 16.4062H49.7656C47.6547 16.4062 45.9375 18.1234 45.9375 20.2344C45.9375 22.3453 47.6547 24.0625 49.7656 24.0625H50.8594C51.7639 24.0625 52.5 24.7986 52.5 25.7031C52.5 26.6077 51.7639 27.3438 50.8594 27.3438Z" fill="#617792"/>
<path d="M30.6247 33.9062H7.656C6.20787 33.9062 6.20896 36.0938 7.656 36.0938H30.6247C32.0729 36.0938 32.0718 33.9062 30.6247 33.9062Z" fill="#617792"/>
<path d="M34.9997 36.0938H57.9685C59.4166 36.0938 59.4155 33.9062 57.9685 33.9062H34.9997C33.5516 33.9062 33.5527 36.0938 34.9997 36.0938Z" fill="#617792"/>
<path d="M49.2188 50.3125H36.0938V41.5625H56.875V42.6562C56.875 44.1033 59.0625 44.1044 59.0625 42.6562V40.4688C59.0625 39.865 58.5736 39.375 57.9688 39.375H35C34.3952 39.375 33.9062 39.865 33.9062 40.4688V51.4062C33.9062 52.01 34.3952 52.5 35 52.5H49.2188C50.6669 52.5 50.6658 50.3125 49.2188 50.3125Z" fill="#617792"/>
<path d="M30.6247 39.375H7.656C6.20787 39.375 6.20896 41.5625 7.656 41.5625H30.6247C32.0729 41.5625 32.0718 39.375 30.6247 39.375Z" fill="#617792"/>
<path d="M30.6247 44.8438H7.656C6.20787 44.8438 6.20896 47.0312 7.656 47.0312H30.6247C32.0729 47.0312 32.0718 44.8438 30.6247 44.8438Z" fill="#617792"/>
<path d="M30.6247 50.3125H7.656C6.20787 50.3125 6.20896 52.5 7.656 52.5H30.6247C32.0729 52.5 32.0718 50.3125 30.6247 50.3125Z" fill="#617792"/>
</svg>
