<svg width="70" height="70" viewBox="0 0 70 70" fill="none" xmlns="http://www.w3.org/2000/svg">
<g clip-path="url(#clip0_1599_1748)">
<mask id="mask0_1599_1748" style="mask-type:luminance" maskUnits="userSpaceOnUse" x="0" y="0" width="70" height="70">
<path d="M0 7.62939e-06H70V70H0V7.62939e-06Z" fill="white"/>
</mask>
<g mask="url(#mask0_1599_1748)">
<path d="M63.2721 44.2411C63.1735 44.2411 63.0735 44.2268 62.9743 44.1968C62.4358 44.0335 62.13 43.4671 62.2875 42.928C62.4395 42.3859 63.0017 42.0659 63.5455 42.2148C64.0915 42.3641 64.4137 42.926 64.2647 43.472L64.2531 43.5128C64.1188 43.9556 63.7121 44.2411 63.2721 44.2411Z" fill="#617792"/>
<path d="M64.1322 40.1912C64.0922 40.1912 64.0519 40.1887 64.0111 40.1839C63.4486 40.1179 63.0464 39.6082 63.1126 39.0459L63.1183 39.0029C63.2006 38.4425 63.7232 38.0544 64.2819 38.1375C64.8413 38.2198 65.2283 38.7391 65.1478 39.2983C65.0807 39.8134 64.6407 40.191 64.1322 40.1912Z" fill="#617792"/>
<path d="M64.418 36.0616C63.8515 36.0616 63.3926 35.6026 63.3926 35.0362V35.0224C63.3926 35.0143 63.3927 35.0062 63.3929 34.9983C63.3927 34.9902 63.3926 34.9822 63.3926 34.9741V34.9603C63.3926 34.394 63.8515 33.9349 64.418 33.9349C64.9844 33.9349 65.4434 34.394 65.4434 34.9603V34.9741C65.4434 34.9822 65.4432 34.9902 65.4431 34.9983C65.4432 35.0062 65.4434 35.0143 65.4434 35.0224V35.0362C65.4434 35.6026 64.9844 36.0616 64.418 36.0616Z" fill="#617792"/>
<path d="M64.1233 31.8703C63.6143 31.8703 63.1741 31.4917 63.1076 30.9757C63.0298 30.4179 63.4166 29.8998 63.9745 29.8181C64.5351 29.735 65.0549 30.1219 65.1372 30.6821L65.1429 30.725C65.2091 31.2873 64.8069 31.797 64.2444 31.863C64.2038 31.8678 64.1633 31.8703 64.1233 31.8703Z" fill="#617792"/>
<path d="M63.2624 27.8219C62.815 27.8219 62.4047 27.5268 62.2768 27.0767C62.1169 26.5364 62.4229 25.9662 62.9631 25.8029C63.5054 25.6394 64.0764 25.944 64.2404 26.4857L64.2522 26.5263C64.4012 27.0728 64.0793 27.6365 63.5329 27.7854C63.4424 27.8101 63.3516 27.8219 63.2624 27.8219Z" fill="#617792"/>
<path d="M6.72818 44.2411C6.82676 44.2411 6.92684 44.2268 7.02596 44.1968C7.56449 44.0335 7.87033 43.4671 7.71283 42.928C7.5608 42.3859 6.99861 42.0659 6.45475 42.2148C5.90883 42.3641 5.58658 42.926 5.73561 43.472L5.74723 43.5128C5.88149 43.9556 6.28822 44.2411 6.72818 44.2411Z" fill="#617792"/>
<path d="M5.86794 40.1912C5.908 40.1912 5.94833 40.1887 5.98907 40.1839C6.55154 40.1179 6.95376 39.6082 6.88759 39.0459L6.88185 39.0029C6.79954 38.4425 6.277 38.0544 5.71823 38.1375C5.15892 38.2198 4.77187 38.7391 4.8524 39.2983C4.91952 39.8134 5.35948 40.191 5.86794 40.1912Z" fill="#617792"/>
<path d="M5.58203 36.0616C6.14846 36.0616 6.60742 35.6026 6.60742 35.0362V35.0224C6.60742 35.0143 6.60729 35.0062 6.60715 34.9983C6.60729 34.9902 6.60742 34.9822 6.60742 34.9741V34.9603C6.60742 34.394 6.14846 33.9349 5.58203 33.9349C5.01561 33.9349 4.55664 34.394 4.55664 34.9603V34.9741C4.55664 34.9822 4.55678 34.9902 4.55691 34.9983C4.55678 35.0062 4.55664 35.0143 4.55664 35.0224V35.0362C4.55664 35.6026 5.01561 36.0616 5.58203 36.0616Z" fill="#617792"/>
<path d="M5.87638 31.8703C6.38539 31.8703 6.82562 31.4917 6.89207 30.9757C6.96986 30.4179 6.58308 29.8998 6.02513 29.8181C5.46458 29.735 4.94478 30.1219 4.86248 30.6821L4.85673 30.725C4.79056 31.2873 5.19279 31.797 5.75525 31.863C5.79585 31.8678 5.83632 31.8703 5.87638 31.8703Z" fill="#617792"/>
<path d="M6.73914 27.8219C7.18648 27.8219 7.59678 27.5268 7.72475 27.0767C7.88457 26.5364 7.57859 25.9662 7.03842 25.8029C6.49605 25.6394 5.92512 25.944 5.76105 26.4857L5.7493 26.5263C5.60027 27.0728 5.92225 27.6365 6.46857 27.7854C6.55908 27.8101 6.64986 27.8219 6.73914 27.8219Z" fill="#617792"/>
<path d="M25.7598 63.2723C25.7598 63.1738 25.774 63.0737 25.8041 62.9746C25.9673 62.436 26.5337 62.1302 27.0728 62.2877C27.6149 62.4397 27.935 63.0019 27.7861 63.5458C27.6368 64.0917 27.0749 64.4139 26.5288 64.2649L26.4881 64.2533C26.0452 64.119 25.7598 63.7123 25.7598 63.2723Z" fill="#617792"/>
<path d="M29.8086 64.1316C29.8086 64.0916 29.8111 64.0512 29.8158 64.0105C29.8819 63.448 30.3916 63.0458 30.9539 63.112L30.9968 63.1177C31.5572 63.2 31.9454 63.7226 31.8622 64.2813C31.7799 64.8407 31.2607 65.2277 30.7015 65.1472C30.1863 65.08 29.8087 64.6401 29.8086 64.1316Z" fill="#617792"/>
<path d="M33.9375 64.4171C33.9375 63.8507 34.3965 63.3917 34.9629 63.3917H34.9767C34.9848 63.3917 34.9928 63.3918 35.0008 63.392C35.0088 63.3918 35.0169 63.3917 35.025 63.3917H35.0388C35.6051 63.3917 36.0642 63.8507 36.0642 64.4171C36.0642 64.9835 35.6051 65.4425 35.0388 65.4425H35.025C35.0169 65.4425 35.0088 65.4423 35.0008 65.4422C34.9928 65.4423 34.9848 65.4425 34.9767 65.4425H34.9629C34.3965 65.4425 33.9375 64.9835 33.9375 64.4171Z" fill="#617792"/>
<path d="M38.1289 64.1239C38.1289 63.6149 38.5075 63.1747 39.0235 63.1082C39.5813 63.0304 40.0994 63.4172 40.1811 63.9751C40.2642 64.5357 39.8773 65.0555 39.3171 65.1378L39.2742 65.1435C38.7119 65.2097 38.2022 64.8075 38.1362 64.245C38.1314 64.2044 38.1289 64.164 38.1289 64.1239Z" fill="#617792"/>
<path d="M42.1777 63.2617C42.1777 62.8143 42.4728 62.404 42.9229 62.2761C43.4632 62.1162 44.0334 62.4222 44.1967 62.9624C44.3602 63.5047 44.0556 64.0757 43.5139 64.2397L43.4733 64.2515C42.9268 64.4005 42.3631 64.0786 42.2142 63.5322C42.1895 63.4417 42.1777 63.3509 42.1777 63.2617Z" fill="#617792"/>
<path d="M25.7598 6.72765C25.7598 6.82623 25.774 6.92631 25.8041 7.02543C25.9673 7.56396 26.5337 7.8698 27.0728 7.7123C27.6149 7.56027 27.935 6.99808 27.7861 6.45422C27.6368 5.9083 27.0749 5.58605 26.5288 5.73508L26.4881 5.7467C26.0452 5.88095 25.7598 6.28769 25.7598 6.72765Z" fill="#617792"/>
<path d="M29.8086 5.86836C29.8086 5.90842 29.8111 5.94875 29.8158 5.98949C29.8819 6.55196 30.3916 6.95418 30.9539 6.88801L30.9968 6.88227C31.5572 6.79996 31.9454 6.27742 31.8622 5.71865C31.7799 5.15934 31.2607 4.77229 30.7015 4.85282C30.1863 4.91994 29.8087 5.3599 29.8086 5.86836Z" fill="#617792"/>
<path d="M33.9375 5.5829C33.9375 6.14933 34.3965 6.6083 34.9629 6.6083H34.9767C34.9848 6.6083 34.9928 6.60816 35.0008 6.60802C35.0088 6.60816 35.0169 6.6083 35.025 6.6083H35.0388C35.6051 6.6083 36.0642 6.14933 36.0642 5.5829C36.0642 5.01648 35.6051 4.55751 35.0388 4.55751H35.025C35.0169 4.55751 35.0088 4.55765 35.0008 4.55779C34.9928 4.55765 34.9848 4.55751 34.9767 4.55751H34.9629C34.3965 4.55751 33.9375 5.01648 33.9375 5.5829Z" fill="#617792"/>
<path d="M38.1289 5.8761C38.1289 6.3851 38.5075 6.82533 39.0235 6.89178C39.5813 6.96957 40.0994 6.5828 40.1811 6.02485C40.2642 5.4643 39.8773 4.9445 39.3171 4.86219L39.2742 4.85645C38.7119 4.79028 38.2022 5.1925 38.1362 5.75496C38.1314 5.79557 38.1289 5.83604 38.1289 5.8761Z" fill="#617792"/>
<path d="M42.1777 6.73833C42.1777 7.18567 42.4728 7.59597 42.9229 7.72394C43.4632 7.88376 44.0334 7.57778 44.1967 7.03761C44.3602 6.49524 44.0556 5.92431 43.5139 5.76024L43.4733 5.74849C42.9268 5.59946 42.3631 5.92144 42.2142 6.46776C42.1895 6.55827 42.1777 6.64905 42.1777 6.73833Z" fill="#617792"/>
<path d="M35.8161 44.0979H24.7832C23.0723 44.0979 21.6855 42.7111 21.6855 41.0003V28.9997C21.6855 27.2889 23.0723 25.902 24.7832 25.902H45.2168C46.9275 25.902 48.3144 27.2889 48.3144 28.9997V41.0003C48.3144 42.7111 46.9275 44.0979 45.2168 44.0979H40.6013" stroke="#617792" stroke-width="2" stroke-miterlimit="10" stroke-linecap="round" stroke-linejoin="round"/>
<path d="M38.0705 35.5226L32.6325 39.1808C32.2144 39.4617 31.6523 39.162 31.6523 38.6581V31.342C31.6523 30.8379 32.2144 30.5382 32.6325 30.8193L38.0705 34.4774C38.4414 34.7269 38.4414 35.2732 38.0705 35.5226Z" stroke="#617792" stroke-width="2" stroke-miterlimit="10" stroke-linecap="round" stroke-linejoin="round"/>
<path d="M24.628 57.1733C24.628 63.6911 19.3443 68.9745 12.8268 68.9745C6.30902 68.9745 1.02539 63.6911 1.02539 57.1733C1.02539 50.6556 6.30902 45.3721 12.8268 45.3721C19.3443 45.3721 24.628 50.6556 24.628 57.1733Z" stroke="#617792" stroke-width="2" stroke-miterlimit="10" stroke-linecap="round" stroke-linejoin="round"/>
<path d="M10.4102 62.0261H12.8278C14.1628 62.0261 15.2451 60.9439 15.2451 59.6085C15.2451 58.2735 14.1628 57.1911 12.8278 57.1911C11.4924 57.1911 10.4102 56.1088 10.4102 54.7736C10.4102 53.4384 11.4924 52.3561 12.8278 52.3561H15.2451" stroke="#617792" stroke-width="2" stroke-miterlimit="10" stroke-linecap="round" stroke-linejoin="round"/>
<path d="M13.2559 52.3561V50.3422" stroke="#617792" stroke-width="2" stroke-miterlimit="10" stroke-linecap="round" stroke-linejoin="round"/>
<path d="M13.2559 64.0045V61.9907" stroke="#617792" stroke-width="2" stroke-miterlimit="10" stroke-linecap="round" stroke-linejoin="round"/>
<path d="M68.9756 57.1733C68.9756 63.6911 63.692 68.9745 57.1743 68.9745C50.6567 68.9745 45.373 63.6911 45.373 57.1733C45.373 50.6556 50.6567 45.3721 57.1743 45.3721C63.692 45.3721 68.9756 50.6556 68.9756 57.1733Z" stroke="#617792" stroke-width="2" stroke-miterlimit="10" stroke-linecap="round" stroke-linejoin="round"/>
<path d="M54.7559 62.0261H57.1733C58.5085 62.0261 59.5908 60.9439 59.5908 59.6085C59.5908 58.2735 58.5085 57.1911 57.1733 57.1911C55.8381 57.1911 54.7559 56.1088 54.7559 54.7736C54.7559 53.4384 55.8381 52.3561 57.1733 52.3561H59.5908" stroke="#617792" stroke-width="2" stroke-miterlimit="10" stroke-linecap="round" stroke-linejoin="round"/>
<path d="M57.6035 52.3561V50.3422" stroke="#617792" stroke-width="2" stroke-miterlimit="10" stroke-linecap="round" stroke-linejoin="round"/>
<path d="M57.6035 64.0045V61.9907" stroke="#617792" stroke-width="2" stroke-miterlimit="10" stroke-linecap="round" stroke-linejoin="round"/>
<path d="M7.30652 2.39325C8.95371 1.52003 10.8324 1.02538 12.8267 1.02538C19.3443 1.02538 24.6278 6.30901 24.6278 12.8267C24.6278 19.3443 19.3443 24.628 12.8267 24.628C6.30889 24.628 1.02539 19.3443 1.02539 12.8267C1.02539 10.0197 2.00539 7.44173 3.64178 5.41596" stroke="#617792" stroke-width="2" stroke-miterlimit="10" stroke-linecap="round" stroke-linejoin="round"/>
<path d="M10.4102 17.6794H12.8278C14.1628 17.6794 15.2451 16.5972 15.2451 15.2618C15.2451 13.9268 14.1628 12.8444 12.8278 12.8444C11.4924 12.8444 10.4102 11.7621 10.4102 10.4269C10.4102 9.09173 11.4924 8.00946 12.8278 8.00946H15.2451" stroke="#617792" stroke-width="2" stroke-miterlimit="10" stroke-linecap="round" stroke-linejoin="round"/>
<path d="M13.2559 8.0094V5.99553" stroke="#617792" stroke-width="2" stroke-miterlimit="10" stroke-linecap="round" stroke-linejoin="round"/>
<path d="M13.2559 19.6579V17.644" stroke="#617792" stroke-width="2" stroke-miterlimit="10" stroke-linecap="round" stroke-linejoin="round"/>
<path d="M68.9756 12.8267C68.9756 19.3444 63.692 24.6279 57.1743 24.6279C50.6567 24.6279 45.373 19.3444 45.373 12.8267C45.373 6.30894 50.6567 1.02544 57.1743 1.02544C63.692 1.02544 68.9756 6.30894 68.9756 12.8267Z" stroke="#617792" stroke-width="2" stroke-miterlimit="10" stroke-linecap="round" stroke-linejoin="round"/>
<path d="M54.7559 17.6794H57.1733C58.5085 17.6794 59.5908 16.5972 59.5908 15.2618C59.5908 13.9268 58.5085 12.8444 57.1733 12.8444C55.8381 12.8444 54.7559 11.7621 54.7559 10.4269C54.7559 9.09173 55.8381 8.00946 57.1733 8.00946H59.5908" stroke="#617792" stroke-width="2" stroke-miterlimit="10" stroke-linecap="round" stroke-linejoin="round"/>
<path d="M57.6035 8.0094V5.99553" stroke="#617792" stroke-width="2" stroke-miterlimit="10" stroke-linecap="round" stroke-linejoin="round"/>
<path d="M57.6035 19.6579V17.644" stroke="#617792" stroke-width="2" stroke-miterlimit="10" stroke-linecap="round" stroke-linejoin="round"/>
</g>
</g>
<defs>
<clipPath id="clip0_1599_1748">
<rect width="70" height="70" fill="white"/>
</clipPath>
</defs>
</svg>
