<svg width="70" height="70" viewBox="0 0 70 70" fill="none" xmlns="http://www.w3.org/2000/svg">
<path d="M47.6477 37.1935C47.2121 37.1935 46.8699 36.8513 46.8699 36.4157V31.5313C46.8699 26.6935 42.9344 22.7579 38.0966 22.7579H37.9255C37.4899 22.7579 37.1477 22.4157 37.1477 21.9802C37.1477 21.5446 37.4899 21.2024 37.9255 21.2024H38.0966C43.7899 21.2024 48.4255 25.8379 48.4255 31.5313V36.4157C48.4255 36.8513 48.0677 37.1935 47.6477 37.1935ZM22.4477 37.1935C22.0121 37.1935 21.6699 36.8513 21.6699 36.4157V31.5313C21.6699 25.8379 26.3055 21.2024 31.9988 21.2024C32.4344 21.2024 32.7766 21.5446 32.7766 21.9802C32.7766 22.4157 32.4344 22.7579 31.9988 22.7579C27.161 22.7579 23.2255 26.6935 23.2255 31.5313V36.4157C23.2255 36.8513 22.8677 37.1935 22.4477 37.1935Z" fill="#617792"/>
<path d="M38.1283 37.1935H34.8461C34.5972 37.1935 34.3794 37.0846 34.2239 36.8824C34.0683 36.6802 34.0217 36.4313 34.0994 36.1979C35.8572 29.9135 37.1483 21.9335 37.1639 21.8557C37.2261 21.4824 37.5528 21.2024 37.9261 21.2024H38.0972C39.7772 21.2024 41.4417 21.6224 42.9194 22.4002C43.215 22.5557 43.3706 22.8824 43.3239 23.2091L42.2972 29.7891C42.2661 29.9913 42.1572 30.1779 41.9861 30.3024C41.815 30.4268 41.6128 30.4735 41.4106 30.4424L40.6483 30.3179L41.5817 31.6713C41.7372 31.8891 41.7528 32.1535 41.6594 32.4024C41.2239 33.4913 40.2439 35.0002 38.735 36.8979C38.5794 37.0846 38.3617 37.1935 38.1283 37.1935ZM35.8572 35.6379H37.755C38.8594 34.2379 39.6372 33.0557 40.0572 32.2002L38.3306 29.6957C38.1594 29.4468 38.1439 29.1046 38.315 28.8402C38.4861 28.5757 38.7817 28.4357 39.0928 28.4824L40.8817 28.7779L41.6906 23.5357C40.7106 23.0846 39.6528 22.8357 38.5639 22.7735C38.2372 24.7179 37.2106 30.5513 35.8572 35.6379Z" fill="#617792"/>
<path d="M34.8296 37.1935H31.9518C31.7184 37.1935 31.4851 37.0846 31.3451 36.8979C29.8362 35.0002 28.8562 33.4913 28.4207 32.4024C28.3273 32.1535 28.3584 31.8891 28.4984 31.6713L29.4318 30.3179L28.6696 30.4424C28.4673 30.4735 28.2496 30.4268 28.094 30.3024C27.9384 30.1779 27.814 29.9913 27.7829 29.7891L26.7562 23.2091C26.7096 22.8824 26.8651 22.5557 27.1607 22.4002C28.6384 21.6068 30.3029 21.2024 31.9829 21.2024H32.154C32.5429 21.2024 32.8696 21.4824 32.9162 21.8557C32.9318 21.9335 34.114 29.3068 35.7784 35.4513C35.8096 35.5913 35.8096 35.7313 35.7784 35.8557C35.7162 36.1046 35.6384 36.3691 35.5762 36.6179C35.4829 36.9602 35.1873 37.1935 34.8296 37.1935ZM32.3407 35.6379H34.2229C32.8696 30.5513 31.8429 24.7179 31.5162 22.7735C30.4429 22.8357 29.3696 23.1002 28.3896 23.5357L29.1984 28.7779L30.9873 28.4824C31.2984 28.4357 31.6096 28.5757 31.7651 28.8402C31.9362 29.1046 31.9207 29.4468 31.7496 29.6957L30.0384 32.2002C30.4429 33.0557 31.2362 34.2379 32.3407 35.6379Z" fill="#617792"/>
<path d="M37.9104 22.7733C37.4748 22.7733 37.1326 22.4311 37.1326 21.9956V20.1911C37.1326 19.7556 37.4748 19.4133 37.9104 19.4133C38.3459 19.4133 38.6881 19.7556 38.6881 20.1911V21.9956C38.6881 22.4156 38.3459 22.7733 37.9104 22.7733ZM32.1704 22.7733C31.7348 22.7733 31.3926 22.4311 31.3926 21.9956V20.1911C31.3926 19.7556 31.7348 19.4133 32.1704 19.4133C32.6059 19.4133 32.9481 19.7556 32.9481 20.1911V21.9956C32.9481 22.4156 32.6059 22.7733 32.1704 22.7733Z" fill="#617792"/>
<path d="M35.0478 21.5444C30.5834 21.5444 26.9434 17.9044 26.9434 13.44V9.28666C26.9434 7.52888 27.5034 5.84888 28.5611 4.44888C28.8256 4.10666 29.3078 4.02888 29.65 4.29332C29.9922 4.55777 30.07 5.03999 29.8056 5.38221C28.95 6.51777 28.4989 7.8711 28.4989 9.28666V13.4555C28.4989 17.0644 31.4389 20.0044 35.0478 20.0044C38.6567 20.0044 41.5967 17.0644 41.5967 13.4555V9.28666C41.5967 8.64888 41.5034 8.0111 41.3167 7.38888C41.1923 6.98443 41.4256 6.54888 41.83 6.42443C42.2345 6.29999 42.67 6.53332 42.7945 6.93777C43.0278 7.69999 43.1367 8.49332 43.1367 9.28666V13.4555C43.1367 17.9044 39.5122 21.5444 35.0478 21.5444Z" fill="#617792"/>
<path d="M27.7209 12.8023C27.4409 12.8023 27.1609 12.6467 27.0364 12.3823C26.8342 12.0089 26.9898 11.5267 27.3631 11.34C29.0276 10.4689 30.132 8.85115 30.3187 7.00004C30.3653 6.56449 30.7387 6.25338 31.1742 6.30004C31.6098 6.34671 31.9053 6.72004 31.8742 7.1556C31.6253 9.5356 30.2098 11.6045 28.0787 12.7089C27.9698 12.7867 27.8453 12.8023 27.7209 12.8023Z" fill="#617792"/>
<path d="M42.359 12.8023C42.2346 12.8023 42.1101 12.7712 42.0012 12.709C39.9479 11.6512 38.5479 9.64456 38.2368 7.35789C38.1746 6.93789 38.4701 6.53345 38.9057 6.48678C39.3257 6.42456 39.7301 6.72011 39.7768 7.15567C40.0101 8.929 41.1146 10.5001 42.7168 11.3246C43.1057 11.5268 43.2457 11.9934 43.0434 12.3668C42.919 12.6468 42.639 12.8023 42.359 12.8023Z" fill="#617792"/>
<path d="M34.8138 8.63341C33.1027 8.63341 31.1583 8.30674 29.7894 7.12452C28.4827 6.00452 27.9383 4.34008 28.156 2.17785C28.1872 1.8823 28.3738 1.63341 28.6538 1.52452C28.9338 1.41563 29.2449 1.47785 29.4627 1.69563C29.5872 1.78897 30.2094 2.03785 33.2583 1.08897C33.3672 1.05785 33.476 1.02674 33.5538 0.995633C35.7472 0.326744 38.4694 0.964521 40.5072 2.61341C42.1094 3.90452 42.9649 5.58452 42.8249 7.21786C42.8094 7.45119 42.6849 7.65341 42.4983 7.79341C42.3116 7.93341 42.0783 7.98008 41.8605 7.91786C40.8027 7.65341 39.6205 7.9023 38.6094 8.16674C38.2983 8.24452 36.696 8.63341 34.8138 8.63341ZM29.6649 3.32897C29.7116 4.46452 30.0849 5.33563 30.8005 5.9423C32.6516 7.52897 36.4627 7.10897 38.2205 6.65785C39.1849 6.40897 40.196 6.20674 41.2072 6.25341C41.0049 5.39786 40.4294 4.5423 39.5272 3.82674C37.8938 2.52008 35.6849 1.97563 33.9894 2.48897C33.9116 2.52008 33.8183 2.53563 33.7094 2.5823C32.3249 3.0023 30.816 3.4223 29.6649 3.32897Z" fill="#617792"/>
<path d="M26.4614 37.1934C26.0258 37.1934 25.6836 36.8512 25.6836 36.4156V32.9467C25.6836 32.5112 26.0258 32.1689 26.4614 32.1689C26.8969 32.1689 27.2391 32.5112 27.2391 32.9467V36.4156C27.2391 36.8512 26.8969 37.1934 26.4614 37.1934Z" fill="#617792"/>
<path d="M43.6196 37.1934C43.184 37.1934 42.8418 36.8512 42.8418 36.4156V32.9467C42.8418 32.5112 43.184 32.1689 43.6196 32.1689C44.0551 32.1689 44.3974 32.5112 44.3974 32.9467V36.4156C44.3974 36.8512 44.0551 37.1934 43.6196 37.1934Z" fill="#617792"/>
<path d="M35.0943 24.0489C33.5543 24.0489 32.1854 23.24 31.4543 22.5556C31.1432 22.26 31.1277 21.7623 31.4232 21.4512C31.7188 21.14 32.2166 21.1245 32.5277 21.42C32.7921 21.6689 35.1099 23.6912 37.3654 21.4356C37.6766 21.14 38.1588 21.14 38.4699 21.4356C38.781 21.7312 38.781 22.2289 38.4699 22.54C37.3499 23.66 36.1677 24.0489 35.0943 24.0489Z" fill="#617792"/>
<path d="M58.3342 44.7379H11.7453C9.24083 44.7379 7.1875 42.7001 7.1875 40.1801C7.1875 37.6756 9.22528 35.6223 11.7453 35.6223H58.3342C60.8386 35.6223 62.8919 37.6601 62.8919 40.1801C62.8919 42.7001 60.8542 44.7379 58.3342 44.7379ZM11.7453 37.1934C10.0964 37.1934 8.74306 38.5312 8.74306 40.1956C8.74306 41.8601 10.0808 43.1979 11.7453 43.1979H58.3342C59.9831 43.1979 61.3364 41.8601 61.3364 40.1956C61.3364 38.5312 59.9986 37.1934 58.3342 37.1934H11.7453Z" fill="#617792"/>
<path d="M55.1446 51.1468H14.949C12.7557 51.1468 10.9668 49.3579 10.9668 47.1646V43.9602C10.9668 43.5246 11.309 43.1824 11.7446 43.1824C12.1801 43.1824 12.5224 43.5246 12.5224 43.9602V47.1646C12.5224 48.5024 13.6112 49.5913 14.949 49.5913H55.1446C56.4823 49.5913 57.5712 48.5024 57.5712 47.1646V43.9602C57.5712 43.5246 57.9135 43.1824 58.349 43.1824C58.7846 43.1824 59.1268 43.5246 59.1268 43.9602V47.1646C59.1112 49.3579 57.3379 51.1468 55.1446 51.1468Z" fill="#617792"/>
<path d="M53.3255 69.4868H16.77C16.3344 69.4868 15.9922 69.1446 15.9922 68.709V50.3535C15.9922 49.9179 16.3344 49.5757 16.77 49.5757C17.2055 49.5757 17.5477 49.9179 17.5477 50.3535V67.9312H52.5477V50.3535C52.5477 49.9179 52.89 49.5757 53.3255 49.5757C53.7611 49.5757 54.1033 49.9179 54.1033 50.3535V68.709C54.1033 69.1446 53.7455 69.4868 53.3255 69.4868Z" fill="#617792"/>
<path d="M13.2856 37.1933C12.85 37.1933 12.5078 36.8511 12.5078 36.4155V28.9488C12.5078 28.7466 12.5856 28.5444 12.7411 28.4044L15.1211 26.0244C15.4167 25.7288 15.9145 25.7288 16.2256 26.0244C16.5367 26.32 16.5211 26.8177 16.2256 27.1288L14.0789 29.2755V36.4155C14.0634 36.8511 13.7211 37.1933 13.2856 37.1933Z" fill="#617792"/>
<path d="M17.9838 28.3112C15.7438 28.3112 13.9238 26.4912 13.9238 24.2512C13.9238 22.0112 15.7438 20.1912 17.9838 20.1912C20.2238 20.1912 22.0438 22.0112 22.0438 24.2512C22.0438 26.4912 20.2238 28.3112 17.9838 28.3112ZM17.9838 21.7312C16.5994 21.7312 15.4794 22.8512 15.4794 24.2356C15.4794 25.6201 16.5994 26.74 17.9838 26.74C19.3683 26.74 20.4883 25.6201 20.4883 24.2356C20.4883 22.8512 19.3683 21.7312 17.9838 21.7312Z" fill="#617792"/>
<path d="M56.7945 37.1933C56.3589 37.1933 56.0167 36.8511 56.0167 36.4155V29.2755L53.8701 27.1288C53.5589 26.8333 53.5589 26.3355 53.8701 26.0244C54.1812 25.7288 54.6634 25.7288 54.9745 26.0244L57.3545 28.4044C57.4945 28.5444 57.5878 28.7466 57.5878 28.9488V36.4155C57.5723 36.8511 57.2301 37.1933 56.7945 37.1933Z" fill="#617792"/>
<path d="M52.0971 28.3112C49.8571 28.3112 48.0371 26.4912 48.0371 24.2512C48.0371 22.0112 49.8571 20.1912 52.0971 20.1912C54.3371 20.1912 56.1571 22.0112 56.1571 24.2512C56.1571 26.4912 54.3371 28.3112 52.0971 28.3112ZM52.0971 21.7312C50.7127 21.7312 49.5927 22.8512 49.5927 24.2356C49.5927 25.6201 50.7127 26.7556 52.0971 26.7556C53.4816 26.7556 54.6016 25.6356 54.6016 24.2512C54.6016 22.8667 53.4816 21.7312 52.0971 21.7312Z" fill="#617792"/>
<path d="M47.7405 64.7423H22.3383C21.9028 64.7423 21.5605 64.4001 21.5605 63.9645C21.5605 63.529 21.9028 63.1868 22.3383 63.1868H47.725C48.1605 63.1868 48.5028 63.529 48.5028 63.9645C48.5028 64.4001 48.1605 64.7423 47.7405 64.7423Z" fill="#617792"/>
<path d="M45.0342 60.3246H25.0454C24.6098 60.3246 24.2676 59.9824 24.2676 59.5468C24.2676 59.1113 24.6098 58.769 25.0454 58.769H45.0498C45.4854 58.769 45.8276 59.1113 45.8276 59.5468C45.8276 59.9824 45.4698 60.3246 45.0342 60.3246Z" fill="#617792"/>
<path d="M47.7405 55.8912H22.3383C21.9028 55.8912 21.5605 55.549 21.5605 55.1135C21.5605 54.6779 21.9028 54.3357 22.3383 54.3357H47.725C48.1605 54.3357 48.5028 54.6779 48.5028 55.1135C48.5028 55.549 48.1605 55.8912 47.7405 55.8912Z" fill="#617792"/>
</svg>
