<svg width="70" height="70" viewBox="0 0 70 70" fill="none" xmlns="http://www.w3.org/2000/svg">
<path d="M59.9533 52.1554C59.5525 51.7549 58.9033 51.7549 58.5025 52.1554C58.1019 52.5561 58.1019 53.2054 58.5025 53.6061L61.8727 56.9762C62.1643 57.2814 62.3375 57.9103 61.8727 58.4267L58.6558 61.6437C58.2556 62.0436 57.6048 62.0436 57.2052 61.6437L47.5814 52.02C48.4738 51.3747 49.318 50.6582 50.1025 49.8737C50.8965 49.0797 51.612 48.2366 52.2513 47.355L55.2272 50.3309C55.4275 50.531 55.6901 50.6312 55.9525 50.6312C56.215 50.6312 56.4775 50.531 56.6777 50.3309C57.0783 49.9301 57.0783 49.2809 56.6777 48.8801L53.3949 45.5972C58.0406 37.5996 56.9439 27.1565 50.1024 20.3148C41.953 12.1653 28.6931 12.1655 20.5437 20.3148C16.6744 24.1842 14.501 29.3277 14.424 34.7981C14.347 40.2571 16.3631 45.4489 20.1006 49.4169C20.4893 49.8291 21.1381 49.8482 21.5506 49.4602C21.9629 49.0717 21.9824 48.4227 21.5939 48.0102C14.5645 40.5473 14.7404 29.019 21.9944 21.7654C29.344 14.4157 41.3025 14.4157 48.6517 21.7654C56.0011 29.1148 56.0011 41.0734 48.6517 48.4227C42.4646 54.6099 32.6191 55.7047 25.2413 51.0261C24.7631 50.7228 24.1294 50.8645 23.8257 51.343C23.5225 51.8214 23.6643 52.4551 24.1427 52.7586C27.4791 54.8743 31.3879 55.9939 35.341 55.9939C36.0633 55.9939 36.7872 55.9564 37.5092 55.8811C40.4499 55.5735 43.2863 54.6357 45.8228 53.1627L55.7542 63.094C56.3541 63.6937 57.142 63.9937 57.93 63.9936C58.7179 63.9936 59.5061 63.6936 60.106 63.094L63.323 59.877C64.5227 58.6771 64.5227 56.7251 63.323 55.5252L59.9533 52.1554Z" fill="#617792"/>
<path d="M42.207 29.2249C42.435 28.7063 42.1996 28.1012 41.681 27.873C39.5331 26.9284 37.3992 26.4493 35.3386 26.4493C29.3594 26.4493 24.2483 30.4537 21.7339 32.8408C21.0924 33.4498 20.7246 34.3067 20.7246 35.192C20.7246 36.0772 21.0924 36.934 21.7339 37.5431C24.2483 39.9301 29.3594 43.9346 35.3386 43.9346C41.318 43.9346 46.429 39.9302 48.9435 37.5431C49.585 36.9342 49.9528 36.0772 49.9528 35.192C49.9528 34.3067 49.585 33.4499 48.9434 32.8408C48.0433 31.9863 47.0922 31.1898 46.1164 30.473C45.6602 30.1377 45.018 30.2359 44.6825 30.6925C44.3471 31.149 44.4455 31.7911 44.9021 32.1265C45.8087 32.7924 46.6932 33.5333 47.5311 34.3286C47.77 34.5553 47.9014 34.8619 47.9014 35.1918C47.9014 35.5217 47.77 35.8285 47.5311 36.0551C45.2384 38.2316 40.6057 41.8828 35.3386 41.8828C30.0718 41.8828 25.4389 38.2316 23.1463 36.0551C22.9075 35.8284 22.7759 35.5217 22.7759 35.1918C22.7759 34.8619 22.9075 34.5551 23.1463 34.3286C25.4389 32.152 30.0717 28.5008 35.3386 28.5008C37.1132 28.5008 38.9692 28.9214 40.8551 29.7508C41.3737 29.9791 41.979 29.7436 42.207 29.2249Z" fill="#617792"/>
<path d="M30.3066 35.1918C30.3066 37.9672 32.5647 40.2252 35.3401 40.2252C38.1156 40.2252 40.3736 37.9672 40.3736 35.1918C40.3736 32.4163 38.1156 30.1582 35.3401 30.1582C32.5647 30.1582 30.3066 32.4163 30.3066 35.1918ZM38.3223 35.1918C38.3223 36.8361 36.9845 38.1737 35.3402 38.1737C33.6959 38.1737 32.3582 36.8361 32.3582 35.1918C32.3582 33.5475 33.6959 32.2097 35.3402 32.2097C36.9844 32.2097 38.3223 33.5475 38.3223 35.1918Z" fill="#617792"/>
<path d="M53.0786 16.7331C53.3411 16.7331 53.6036 16.6328 53.8039 16.4327L58.2795 11.9569L60.2119 13.8893C60.8081 14.4851 61.7782 14.4851 62.3751 13.8892L67.8028 8.46144V9.83847C67.8028 10.405 68.2619 10.8641 68.8285 10.8641C69.395 10.8641 69.8541 10.405 69.8541 9.83847V6.03824C69.8541 5.47167 69.395 5.01257 68.8285 5.01257H65.0282C64.4617 5.01257 64.0026 5.47167 64.0026 6.03824C64.0026 6.6048 64.4617 7.0639 65.0282 7.0639H66.2988L61.2934 12.0696L59.361 10.1372C58.7645 9.54097 57.7942 9.54111 57.1978 10.1373L52.3532 14.982C51.9526 15.3827 51.9526 16.032 52.3532 16.4327C52.5536 16.6328 52.8161 16.7331 53.0786 16.7331Z" fill="#617792"/>
<path d="M5.4109 13.9323C8.32328 13.9323 10.6929 11.5628 10.6929 8.65028C10.6929 5.73776 8.32328 3.36829 5.4109 3.36829C2.49852 3.36829 0.128906 5.73776 0.128906 8.65028C0.128906 11.5628 2.49838 13.9323 5.4109 13.9323ZM5.4109 5.41975C7.19221 5.41975 8.64143 6.86897 8.64143 8.65028C8.64143 10.4316 7.19221 11.8808 5.4109 11.8808C3.62959 11.8808 2.18023 10.4316 2.18023 8.65028C2.18023 6.86897 3.62945 5.41975 5.4109 5.41975Z" fill="#617792"/>
<path d="M5.56715 17.4485C2.65477 17.4485 0.285156 19.818 0.285156 22.7305C0.285156 25.643 2.65463 28.0125 5.56715 28.0125C8.47967 28.0125 10.8491 25.643 10.8491 22.7305C10.8491 19.818 8.47967 17.4485 5.56715 17.4485ZM5.56715 25.961C3.78584 25.961 2.33662 24.5118 2.33662 22.7305C2.33662 20.9492 3.78584 19.5 5.56715 19.5C7.34846 19.5 8.79768 20.9492 8.79768 22.7305C8.79781 24.5118 7.34859 25.961 5.56715 25.961Z" fill="#617792"/>
<path d="M5.56715 31.364C2.65477 31.364 0.285156 33.7335 0.285156 36.646C0.285156 39.5585 2.65463 41.928 5.56715 41.928C8.47967 41.928 10.8491 39.5585 10.8491 36.646C10.8491 33.7335 8.47967 31.364 5.56715 31.364ZM5.56715 39.8765C3.78584 39.8765 2.33662 38.4273 2.33662 36.646C2.33662 34.8647 3.78584 33.4155 5.56715 33.4155C7.34846 33.4155 8.79768 34.8647 8.79768 36.646C8.79781 38.4273 7.34859 39.8765 5.56715 39.8765Z" fill="#617792"/>
<path d="M14.8596 7.0567H23.9371C24.5037 7.0567 24.9628 6.5976 24.9628 6.03104C24.9628 5.46447 24.5037 5.00537 23.9371 5.00537H14.8596C14.2931 5.00537 13.834 5.46447 13.834 6.03104C13.834 6.5976 14.2932 7.0567 14.8596 7.0567Z" fill="#617792"/>
<path d="M14.8596 11.4277H19.3984C19.965 11.4277 20.4241 10.9686 20.4241 10.402C20.4241 9.83544 19.965 9.37634 19.3984 9.37634H14.8596C14.2931 9.37634 13.834 9.83544 13.834 10.402C13.834 10.9684 14.2932 11.4277 14.8596 11.4277Z" fill="#617792"/>
<path d="M68.9739 19.52H63.9651C63.3986 19.52 62.9395 19.9791 62.9395 20.5457C62.9395 21.1122 63.3986 21.5713 63.9651 21.5713H68.9739C69.5405 21.5713 69.9996 21.1122 69.9996 20.5457C69.9996 19.9791 69.5405 19.52 68.9739 19.52Z" fill="#617792"/>
<path d="M60.1627 21.7115C60.7919 21.7115 61.302 21.2015 61.302 20.5723C61.302 19.9431 60.7919 19.433 60.1627 19.433C59.5335 19.433 59.0234 19.9431 59.0234 20.5723C59.0234 21.2015 59.5335 21.7115 60.1627 21.7115Z" fill="#617792"/>
<path d="M68.9739 23.7009H63.9651C63.3986 23.7009 62.9395 24.16 62.9395 24.7266C62.9395 25.2932 63.3986 25.7523 63.9651 25.7523H68.9739C69.5405 25.7523 69.9996 25.2932 69.9996 24.7266C69.9996 24.16 69.5405 23.7009 68.9739 23.7009Z" fill="#617792"/>
<path d="M60.1627 25.8926C60.7919 25.8926 61.302 25.3825 61.302 24.7533C61.302 24.1241 60.7919 23.614 60.1627 23.614C59.5335 23.614 59.0234 24.1241 59.0234 24.7533C59.0234 25.3825 59.5335 25.8926 60.1627 25.8926Z" fill="#617792"/>
<path d="M41.8607 60.2589H36.8518C36.2853 60.2589 35.8262 60.718 35.8262 61.2846C35.8262 61.8511 36.2853 62.3102 36.8518 62.3102H41.8607C42.4272 62.3102 42.8863 61.8511 42.8863 61.2846C42.8863 60.7181 42.4272 60.2589 41.8607 60.2589Z" fill="#617792"/>
<path d="M33.0494 60.1719C32.4203 60.1719 31.9102 60.682 31.9102 61.3112C31.9102 61.9403 32.4203 62.4504 33.0494 62.4504C33.6786 62.4504 34.1887 61.9403 34.1887 61.3112C34.1887 60.682 33.6786 60.1719 33.0494 60.1719Z" fill="#617792"/>
<path d="M41.8607 64.4401H36.8518C36.2853 64.4401 35.8262 64.8992 35.8262 65.4657C35.8262 66.0323 36.2853 66.4914 36.8518 66.4914H41.8607C42.4272 66.4914 42.8863 66.0323 42.8863 65.4657C42.8863 64.8992 42.4272 64.4401 41.8607 64.4401Z" fill="#617792"/>
<path d="M33.0494 66.6316C33.6786 66.6316 34.1887 66.1215 34.1887 65.4923C34.1887 64.8631 33.6786 64.353 33.0494 64.353C32.4202 64.353 31.9102 64.8631 31.9102 65.4923C31.9102 66.1215 32.4202 66.6316 33.0494 66.6316Z" fill="#617792"/>
<path d="M68.9739 27.8907H63.9651C63.3986 27.8907 62.9395 28.3498 62.9395 28.9164C62.9395 29.483 63.3986 29.9421 63.9651 29.9421H68.9739C69.5405 29.9421 69.9996 29.483 69.9996 28.9164C69.9996 28.3498 69.5405 27.8907 68.9739 27.8907Z" fill="#617792"/>
<path d="M68.9739 32.0719H63.9651C63.3986 32.0719 62.9395 32.531 62.9395 33.0976C62.9395 33.6641 63.3986 34.1232 63.9651 34.1232H68.9739C69.5405 34.1232 69.9996 33.6641 69.9996 33.0976C69.9996 32.531 69.5405 32.0719 68.9739 32.0719Z" fill="#617792"/>
<path d="M60.1627 34.2634C60.7919 34.2634 61.302 33.7533 61.302 33.1241C61.302 32.4949 60.7919 31.9849 60.1627 31.9849C59.5335 31.9849 59.0234 32.4949 59.0234 33.1241C59.0234 33.7533 59.5335 34.2634 60.1627 34.2634Z" fill="#617792"/>
<path d="M68.9739 36.2529H63.9651C63.3986 36.2529 62.9395 36.712 62.9395 37.2786C62.9395 37.8452 63.3986 38.3043 63.9651 38.3043H68.9739C69.5405 38.3043 69.9996 37.8452 69.9996 37.2786C69.9996 36.712 69.5405 36.2529 68.9739 36.2529Z" fill="#617792"/>
<path d="M68.9739 40.434H63.9651C63.3986 40.434 62.9395 40.8931 62.9395 41.4596C62.9395 42.0262 63.3986 42.4853 63.9651 42.4853H68.9739C69.5405 42.4853 69.9996 42.0262 69.9996 41.4596C69.9996 40.8932 69.5405 40.434 68.9739 40.434Z" fill="#617792"/>
<path d="M60.1627 40.347C59.5335 40.347 59.0234 40.8571 59.0234 41.4863C59.0234 42.1155 59.5335 42.6256 60.1627 42.6256C60.7919 42.6256 61.302 42.1155 61.302 41.4863C61.302 40.8571 60.7919 40.347 60.1627 40.347Z" fill="#617792"/>
<path d="M27.6812 64.4476H23.8433V58.5832C23.8433 57.7159 23.1377 57.0103 22.2705 57.0103H18.5504C17.6832 57.0103 16.9776 57.7159 16.9776 58.5832V64.4476H15.5151V54.9114C15.5151 54.0442 14.8095 53.3386 13.9423 53.3386H10.2222C9.35498 53.3386 8.64937 54.0442 8.64937 54.9114V64.4476H7.38637V61.206C7.38637 60.3388 6.68076 59.6332 5.81355 59.6332H2.09344C1.22623 59.6332 0.520625 60.3388 0.520625 61.206V64.5811C0.21 64.7572 0 65.0904 0 65.4732C0 66.0398 0.459102 66.4989 1.02566 66.4989H27.6812C28.2477 66.4989 28.7068 66.0398 28.7068 65.4732C28.7068 64.9067 28.2477 64.4476 27.6812 64.4476ZM19.0291 59.0618H21.7919V64.4476H19.0291V59.0618ZM10.701 55.3901H13.4638V64.4476H10.701V55.3901ZM2.57209 61.6845H5.33504V64.4474H2.57209V61.6845Z" fill="#617792"/>
</svg>
