<svg width="40" height="40" viewBox="0 0 40 40" fill="none" xmlns="http://www.w3.org/2000/svg">
<g clip-path="url(#clip0_1599_3241)">
<path fill-rule="evenodd" clip-rule="evenodd" d="M34.6875 27.9688C34.3326 27.9688 34.28 27.8019 34.0624 27.6563V27.0312C34.388 26.8132 34.2367 26.7187 34.6875 26.7187C35.5463 26.7187 35.5023 27.9688 34.6875 27.9688V27.9688ZM27.9687 27.9688C27.2573 27.9688 27.0115 26.7187 28.0469 26.7187C28.86 26.7187 28.8284 27.9688 27.9687 27.9688ZM36.7968 23.2813H23.4374L23.1069 21.0337C22.9969 20.3183 22.8632 19.452 22.7524 18.732L22.1094 14.0626H38.5156L36.7968 23.2813ZM16.6406 10.0002C21.0738 10.0002 19.819 9.31156 20.7358 14.4989C21.2823 17.592 21.6873 21.454 22.2185 24.5785C22.4352 25.8526 22.3806 28.047 24.6093 28.047H26.1718C26.2302 28.7485 27.2958 29.3751 27.9687 29.3751C28.8293 29.3751 29.6816 28.7422 29.8437 28.047H32.8124C33.0122 28.9045 34.3014 29.7302 35.4455 29.1956C35.6369 29.1061 35.9328 28.9367 36.0755 28.81C37.3156 27.7108 36.632 25.3126 34.6875 25.3126C33.7925 25.3126 32.9786 25.9277 32.8124 26.6407H29.8437C29.7666 25.7135 27.4054 24.1618 26.0938 26.6407C24.614 26.6407 23.9671 26.8639 23.8262 25.9395C23.7669 25.5505 23.6719 25.1198 23.6719 24.6876H37.3438C37.9224 24.6876 38.0009 24.2335 38.094 23.7189L39.4863 16.2833C40.2284 12.4689 40.4087 12.6563 38.2811 12.6563C32.8124 12.6563 27.3436 12.6563 21.8749 12.6563C21.7926 12.3034 21.7096 11.7255 21.6584 11.3884C21.5824 10.8872 21.5732 10.4969 21.4372 10.0471C21.2399 9.39408 20.488 8.67188 19.6875 8.67188H16.6406V9.99994V10.0002Z" fill="#617792"/>
<path fill-rule="evenodd" clip-rule="evenodd" d="M9.37506 3.28116C9.37506 2.04103 10.3924 1.32807 11.6407 1.32807H28.2812C29.0961 1.32807 29.7445 1.49808 30.2562 2.00924C30.7863 2.53866 30.6248 2.78263 30.6248 3.98443H9.37483V3.28139L9.37506 3.28116ZM7.96875 3.35918V9.2967C7.96875 10.197 9.37506 10.3458 9.37506 9.14044V5.39051H30.625V10.625C30.625 11.0173 30.8485 11.0782 31.0156 11.328H31.6406C31.8079 11.0782 32.0311 11.0171 32.0311 10.625V2.65613C32.0311 1.26042 30.1601 0 28.9062 0H11.0939C9.53988 0 7.96898 1.54498 7.96898 3.3594L7.96875 3.35918Z" fill="#617792"/>
<path fill-rule="evenodd" clip-rule="evenodd" d="M9.37483 36.7185V34.6872H30.6248C30.6248 36.1239 30.8839 37.44 29.9558 38.1586C29.5213 38.4951 29.0925 38.6714 28.3592 38.6714H11.6404C10.4064 38.6714 9.37483 37.9724 9.37483 36.7183V36.7185ZM30.6248 30.0779V33.2811H9.37483V30.8592C9.37483 30.305 9.19197 30.3102 8.9843 29.9999H8.35928C8.19197 30.2498 7.96875 30.3109 7.96875 30.703V36.6405C7.96875 37.6161 8.38002 38.4247 8.88667 38.9257C9.45555 39.4885 10.1863 39.9999 11.0939 39.9999H28.9062C29.7863 39.9999 30.4972 39.5383 31.0744 38.965C31.6077 38.4353 32.0313 37.6675 32.0313 36.6405V30.1562C32.0313 28.9542 30.625 29.1104 30.625 30.0779H30.6248Z" fill="#617792"/>
<path fill-rule="evenodd" clip-rule="evenodd" d="M15.9375 19.3748C15.9375 21.1204 15.9467 21.7646 15.1562 23.3592C14.6877 24.3046 13.9578 25.1464 13.1402 25.7962C11.9873 26.7128 9.82341 27.5026 8.42297 27.2834C7.97787 27.2138 7.66942 27.3193 6.82771 27.0783C6.34068 26.9389 5.93887 26.7996 5.52061 26.5885C3.74768 25.6945 2.78105 24.6298 1.97835 22.9434C1.61397 22.1782 1.32243 20.8266 1.32243 19.9996C1.32243 19.6235 1.39571 19.6145 1.40631 19.2183C1.42344 18.5847 1.71612 17.6316 1.95264 17.1083C2.20856 16.5419 2.53866 15.9247 2.94971 15.4492C4.20878 13.9928 5.51588 13.1344 7.48069 12.7928C7.76953 12.7426 8.01553 12.7685 8.35487 12.7279C9.61936 12.5766 11.4701 13.0853 12.5319 13.796C12.7314 13.9295 12.8755 14.0179 13.0487 14.1385C13.2511 14.2797 13.3285 14.3886 13.5627 14.562C13.7127 14.6729 13.8823 14.8424 14.0054 14.9789C14.3736 15.3872 14.8888 16.1004 15.1303 16.5883C15.5488 17.4334 15.9377 18.3872 15.9377 19.3748H15.9375ZM0 19.6091C0 21.239 0.131003 22.3028 0.80631 23.7247C1.02187 24.1786 1.29763 24.6244 1.56144 25.0009L2.25095 25.874C2.54204 26.2465 2.86177 26.4334 3.06718 26.6203L4.2444 27.4744C6.70776 28.8956 9.78982 29.1317 12.3174 27.8643C12.8275 27.6086 13.2311 27.4223 13.659 27.0965C14.7005 26.3033 14.9454 26.0884 15.7355 25.0323C16.078 24.5743 16.2444 24.2266 16.5109 23.6983C17.7526 21.2363 17.5212 18.7876 16.5533 16.3376C16.3986 15.9459 15.6665 14.7734 15.3727 14.4713L13.7636 12.9554C13.5875 12.8228 13.3549 12.6618 13.1519 12.5516C11.0744 11.4235 8.84394 10.9457 6.49874 11.5771C5.73887 11.7816 4.96458 12.1022 4.29469 12.4981C3.01374 13.2555 1.94407 14.2787 1.19752 15.5728C0.535286 16.7205 0 18.0602 0 19.6097L0 19.6091Z" fill="#617792"/>
<path fill-rule="evenodd" clip-rule="evenodd" d="M7.96856 15.3904C7.51106 15.61 7.01681 15.7589 6.66957 16.2008C5.86529 17.2251 5.75323 18.5924 6.50407 19.5891C6.71084 19.8635 6.691 19.8614 6.96563 20.065C7.18682 20.229 7.32279 20.3613 7.58569 20.4605C8.64522 20.8603 8.76292 20.5845 9.19651 20.8028C9.51038 20.9609 9.77171 21.1796 9.89121 21.5144C10.0804 22.0441 9.98478 22.4414 9.65897 22.8623C9.27498 23.3584 8.42222 23.4177 7.88693 23.0499C7.05424 22.4774 7.70227 21.3279 6.64026 21.3279C5.64478 21.3279 5.93609 22.8619 6.66935 23.7987C6.77826 23.9381 7.06777 24.1388 7.23237 24.2513C7.54127 24.4625 7.66191 24.4621 7.96833 24.6091C7.96833 24.9748 7.79381 26.0154 8.67137 26.0154C9.39313 26.0154 9.37441 25.3451 9.37441 24.6091C9.65175 24.4623 9.83146 24.4434 10.1106 24.2515C10.6308 23.8937 10.8457 23.633 11.1212 23.0745C11.4998 22.3072 11.3742 20.9945 10.8021 20.369C9.21928 18.6382 8.31467 19.8145 7.622 18.7834C6.45492 17.0463 9.1778 15.8639 9.87001 17.4729C10.1214 18.0574 9.8141 18.6716 10.7027 18.6716C11.6989 18.6716 11.3171 17.1834 10.9377 16.5616C10.8436 16.4076 10.8019 16.4033 10.6896 16.2626C10.254 15.7169 9.95209 15.6959 9.37441 15.3902C9.37441 14.6542 9.39313 13.9839 8.67137 13.9839C7.82696 13.9839 7.96833 14.9494 7.96833 15.3902L7.96856 15.3904Z" fill="#617792"/>
<path fill-rule="evenodd" clip-rule="evenodd" d="M23.2812 15.3904C23.4445 15.6989 23.5065 16.0155 23.9843 16.0155H33.3592C34.0454 16.0155 33.9843 15.4031 33.9843 14.9999C33.6979 14.808 33.7089 14.6094 32.9687 14.6094H24.375C23.6542 14.6094 23.4183 14.8028 23.2812 15.3907V15.3904Z" fill="#617792"/>
<path fill-rule="evenodd" clip-rule="evenodd" d="M17.9688 36.6405C17.9688 37.0267 18.2858 37.3435 18.6718 37.3435H21.3282C22.1031 37.3435 22.2145 36.3753 21.7234 36.0887C21.325 35.8563 18.76 35.8691 18.3295 36.0635C18.1559 36.142 17.9688 36.4405 17.9688 36.6403V36.6405Z" fill="#617792"/>
<path fill-rule="evenodd" clip-rule="evenodd" d="M16.6406 2.6559C16.6406 3.56593 17.8 3.35894 18.672 3.35894C19.58 3.35894 19.6154 1.95263 18.5939 1.95263C17.8623 1.95263 16.6409 1.76706 16.6409 2.65567L16.6406 2.6559Z" fill="#617792"/>
<path fill-rule="evenodd" clip-rule="evenodd" d="M20.625 2.57826C20.625 3.57668 21.6401 3.35954 22.6563 3.35954C23.577 3.35954 23.6142 1.95323 22.5783 1.95323C22.0266 1.95323 21.2234 1.86101 20.8877 2.13767C20.8173 2.19562 20.6252 2.51197 20.6252 2.57826H20.625Z" fill="#617792"/>
<path fill-rule="evenodd" clip-rule="evenodd" d="M35.3123 16.0153C36.3017 16.0153 37.3436 16.2318 37.3436 15.3123C37.3436 14.4925 36.289 14.6093 35.703 14.6093C34.1871 14.6093 34.5319 16.0156 35.3125 16.0156L35.3123 16.0153Z" fill="#617792"/>
</g>
<defs>
<clipPath id="clip0_1599_3241">
<rect width="39.9953" height="40" fill="white"/>
</clipPath>
</defs>
</svg>
