<svg width="38" height="40" viewBox="0 0 38 40" fill="none" xmlns="http://www.w3.org/2000/svg">
<g clip-path="url(#clip0_1599_3286)">
<path fill-rule="evenodd" clip-rule="evenodd" d="M28.6946 37.8124V38.828C26.7094 38.828 27.132 39.3156 27.132 36.5624C27.132 35.7936 27.8673 34.9188 28.3799 34.6853C29.0079 34.3991 29.2785 34.453 29.9445 34.453C30.0753 34.7004 30.0848 34.7733 30.334 34.9228C30.9202 35.2741 31.3866 35.1562 32.2882 35.1562C32.8228 35.1562 33.2695 34.8739 33.3818 34.453C34.5794 34.453 34.9674 34.49 35.6703 35.2895C35.8361 35.478 35.8075 35.4061 35.9358 35.649C36.3341 36.4039 36.1943 37.524 36.1943 38.5936C36.1943 38.9666 35.6712 38.828 34.71 38.828C34.71 38.2182 34.8615 37.1874 34.085 37.1874C33.3084 37.1874 33.4601 38.2181 33.4601 38.828H30.1008C29.793 38.828 29.8613 38.5755 29.8644 38.2832C29.8671 38.022 29.8664 37.7611 29.8664 37.4999C29.6767 37.3729 29.512 37.1594 29.1908 37.2116C28.8736 37.2631 28.6944 37.4721 28.6944 37.8124H28.6946ZM2.75715 38.2031V38.828C0.922472 38.828 1.19473 39.0972 1.19473 37.3437C1.19473 36.9534 1.25092 36.3434 1.33688 36.0796C1.56963 35.3663 2.05011 34.8798 2.73122 34.5833C3.16061 34.3964 3.51884 34.453 4.08528 34.453C4.32359 35.3453 5.59599 35.1562 6.50708 35.1562C6.9857 35.1562 7.33221 34.8129 7.52267 34.453H8.1476C9.32432 34.453 10.3351 35.5387 10.3351 36.7186V38.5936C10.3351 38.9666 9.81204 38.828 8.85079 38.828C8.85079 38.3046 8.96717 37.1874 8.22586 37.1874C8.13309 37.1874 7.84957 37.3189 7.78428 37.3709C7.50214 37.5959 7.60076 38.2707 7.60076 38.828H4.00703C4.00703 38.2898 4.19425 37.2826 3.46019 37.1874C2.89128 37.3199 2.757 37.5155 2.757 38.2029L2.75715 38.2031ZM20.6477 32.6563V32.5001C20.8746 32.3482 21.0211 32.2697 21.2157 32.0523C22.3966 30.7338 22.1322 29.1187 22.1322 27.2657C22.5874 27.2279 22.9195 27.1095 23.4603 27.1095C23.7553 28.2143 26.1127 27.9857 26.5674 27.6384C26.7722 27.4821 26.861 27.3268 26.976 27.1095C27.7369 27.1095 27.8267 27.255 28.3041 27.2657C28.3041 29.209 28.0036 30.8469 29.222 32.051C29.7736 32.5961 29.7103 32.36 29.7103 33.2031C28.4983 33.2031 27.7915 33.47 26.9806 34.2233L26.9025 34.3014C26.7917 34.4207 26.5809 34.6412 26.5066 34.7648C26.2529 35.1875 26.0511 35.5848 25.9669 36.1C25.8275 36.9523 25.8824 37.9416 25.8824 38.828H21.7419C21.7419 37.9947 21.888 37.3794 21.3055 37.2266C20.9487 37.1329 20.7785 37.3604 20.5701 37.5001C20.5701 38.2225 20.7005 38.8282 20.3356 38.8282H16.9764C16.9764 38.2184 17.1279 37.1875 16.3514 37.1875C15.5748 37.1875 15.7265 38.2182 15.7265 38.8282C13.7609 38.8282 14.1641 39.2736 14.1641 36.7969C14.1641 35.559 15.223 34.4532 16.2735 34.4532H16.9767L17.3861 34.9031C17.8946 35.2945 18.5272 35.1564 19.4766 35.1564C19.7745 35.1564 20.1114 34.9119 20.2949 34.7247C20.3715 34.6466 20.4426 34.5272 20.4922 34.4532C21.4259 34.4532 22.2523 34.4644 22.9312 35.5297C23.4199 36.2963 23.1433 36.7814 23.4242 37.1461C23.7608 37.5832 24.3264 37.4027 24.4673 37.0163C24.6225 36.5904 24.4191 35.8325 24.2137 35.3413C24.0817 35.0256 23.5871 34.3556 23.3256 34.1199C23.1847 33.9929 23.1634 33.9994 23.014 33.8846C22.352 33.3757 21.5778 33.2033 20.6483 33.2033V32.6564L20.6477 32.6563ZM7.75727 32.4218C8.37649 32.2565 9.16349 30.8729 9.16349 29.9219V27.3438C9.41507 27.3228 9.86483 27.1093 10.6478 27.1093C11.1571 28.0718 11.841 27.8906 12.9915 27.8906C13.533 27.8906 14.0525 27.5245 14.1635 27.1093C15.9893 27.1093 15.1435 27.2601 15.3343 29.9229C15.348 30.1144 15.4399 30.6112 15.4993 30.7735C15.7813 31.543 16.1517 32.0527 16.8195 32.4999V33.2031C16.1043 33.2031 16.2367 33.1752 15.5535 33.3433L14.5842 33.7802C14.4717 33.8551 14.4249 33.9063 14.319 33.9838C12.7305 35.1469 12.9133 37.0994 12.9133 38.828H11.5851C11.5851 37.353 11.773 36.0873 10.9772 34.8267L10.5859 34.2805C10.1135 33.7373 8.96979 33.2031 8.06966 33.2031H7.75711V32.4218H7.75727ZM29.6321 30.3907C29.8782 30.521 30.0736 30.6721 30.3331 30.7835C30.9438 31.0454 31.3459 31.0158 31.9758 31.0158C32.7575 31.0158 33.1902 30.6577 33.6945 30.3908C33.6127 30.7421 33.5084 30.9218 33.2862 31.1544C33.1758 31.27 33.0946 31.3544 32.9606 31.4538C32.8339 31.5478 32.6992 31.6298 32.6029 31.7211C32.5391 31.7816 32.5592 31.7469 32.493 31.8457C32.4867 31.8551 32.3945 32.0565 32.3937 32.059C32.3431 32.2431 32.3649 32.4603 32.366 32.6563C32.3683 33.0729 32.3663 33.4899 32.3663 33.9065C31.8475 34.0273 31.4788 34.0273 30.96 33.9065C30.96 33.246 31.1332 32.029 30.7432 31.7014C30.6697 31.6396 30.4901 31.5404 30.4115 31.4862C29.8815 31.1213 29.8054 30.7792 29.6319 30.3908L29.6321 30.3907ZM7.75727 30.4688C7.73674 30.7148 7.73211 30.7021 7.6199 30.8783C7.52714 31.0238 7.4654 31.111 7.34934 31.2326C6.3299 32.3016 6.50724 30.9695 6.50724 33.9062C6.00917 34.0222 5.59908 34.0222 5.10102 33.9062L5.08898 32.1213C5.0808 32.079 5.0382 31.9584 5.00301 31.8948C4.8624 31.6413 4.76177 31.6733 4.53874 31.4996C4.18483 31.2238 3.88078 30.8539 3.77289 30.3905C4.61915 30.8383 5.47468 31.3246 6.82966 30.8693C7.00407 30.8107 7.1453 30.7728 7.29022 30.7049C7.5097 30.6021 7.5205 30.5319 7.75711 30.4688H7.75727ZM16.6635 30.3907C17.0946 30.5058 18.6332 31.7921 20.726 30.3907C20.6587 31.1985 19.7331 31.5927 19.5701 31.813C19.1347 32.4015 19.722 33.9844 19.1634 33.9844C17.747 33.9844 17.9915 34.2939 17.9915 31.875C17.2531 31.3806 17.1018 31.2194 16.6634 30.3907H16.6635ZM7.75727 30.4688V30.3907L7.84848 30.4558L7.75727 30.4688ZM16.5854 27.8125C16.5854 27.0862 16.515 25.7031 17.9916 25.7031C18.9067 25.7031 19.8763 25.558 20.4361 26.0711C21.3714 26.9283 20.9952 29.7475 18.7671 29.84C17.8217 29.8792 16.5854 28.9971 16.5854 27.8125ZM3.61669 27.4219C3.61669 25.4267 5.03527 25.7031 6.42914 25.7031C6.88939 25.7031 7.18064 25.7933 7.42728 26.0331C8.04821 26.6369 7.91362 26.8019 7.91362 27.8906C7.91362 28.4066 7.56881 28.978 7.1987 29.285C7.0104 29.4412 6.78058 29.6185 6.52175 29.7017C5.0791 30.1657 3.61685 29.2478 3.61685 27.4217L3.61669 27.4219ZM29.4759 27.4219C29.4759 25.3886 31.1317 25.7031 32.4447 25.7031C33.0282 25.7031 33.622 26.1263 33.7584 26.655C33.9876 27.542 33.831 28.3527 33.3058 29.0643C32.9864 29.4967 32.2514 29.8196 31.7358 29.84C31.1905 29.8616 30.6527 29.6184 30.2701 29.2839C30.019 29.0644 29.7447 28.7502 29.6444 28.4253C29.5859 28.2362 29.4759 27.6323 29.4759 27.4219ZM23.2259 23.125C23.8548 23.4577 24.182 23.751 25.1785 23.751C26.2612 23.751 26.5268 23.4866 27.2103 23.125C27.1723 23.5814 26.6778 24.0587 26.3509 24.2969C26.1868 24.4165 26.1246 24.4992 25.9602 24.6093C25.9602 25.2787 26.0093 26.0944 25.8821 26.6406C24.7202 26.6406 24.5014 26.7903 24.4693 26.3347C24.4341 25.8349 24.4758 25.133 24.4758 24.6094C24.3135 24.5008 24.298 24.4519 24.1322 24.3281C23.7568 24.0478 23.2689 23.6431 23.2259 23.1251V23.125ZM10.4135 23.125C11.0982 23.4872 11.3606 23.7502 12.4448 23.7505C12.9514 23.7507 13.1878 23.6963 13.5851 23.5622C13.7385 23.5104 13.9117 23.413 14.061 23.3349C14.3019 23.2086 14.2865 23.1737 14.476 23.0469C14.3166 23.7312 13.7021 24.2382 13.1479 24.6094C13.1479 27.0343 13.5365 26.6408 11.7416 26.6408C11.7416 24.0858 11.8387 24.9215 10.8614 23.9272C10.6583 23.7206 10.4425 23.4736 10.4135 23.1251V23.125ZM27.2103 23.125V23.0469L27.3015 23.112L27.2103 23.125ZM23.2259 23.125H23.1478L23.2129 23.0337L23.2259 23.125ZM10.4135 23.125H10.3354L10.4006 23.0337L10.4135 23.125V23.125ZM23.0697 20.5468C23.0697 19.8419 22.9984 18.4374 24.3978 18.4374C25.4649 18.4374 27.3665 18.1543 27.3665 19.7655C27.3665 20.793 27.3353 21.7752 26.1184 22.3457C24.7023 23.0094 23.0695 21.8789 23.0695 20.5468H23.0697ZM10.2573 20.3906C10.2573 19.7536 10.1781 19.3547 10.6651 18.8452C11.2275 18.2567 12.0506 18.4374 13.2261 18.4374C15.2608 18.4374 15.0364 22.5948 12.3814 22.5314C11.7775 22.5168 11.3241 22.3068 10.9005 21.9348C10.7447 21.7981 10.5682 21.4902 10.4634 21.2782C10.3308 21.0101 10.2573 20.7615 10.2573 20.3906V20.3906ZM10.4918 15.1562C10.4918 15.6036 10.8786 15.7811 11.195 15.7811H17.6792V24.531C16.7334 24.531 15.9728 25.2538 15.5698 26.0154L14.3198 25.9373V25.2341C14.4627 25.1384 14.7677 24.9198 14.8887 24.7874C16.0924 23.4691 15.8041 21.7971 15.8041 19.9216C15.8041 18.3047 14.6052 17.1872 12.9917 17.1872C11.4092 17.1872 10.0013 17.0787 9.21582 18.8801C8.91037 19.5803 9.00745 21.3968 9.00745 22.2654C9.00745 23.0016 9.1763 23.594 9.44918 24.0895C9.60661 24.3753 9.74599 24.5295 9.96438 24.746C10.5555 25.3321 10.4918 25.0836 10.4918 25.9373C9.39177 25.9373 9.33651 26.0845 8.9292 26.0935C8.82795 25.6587 8.51417 25.3176 8.17029 25.0555L7.44488 24.6091V15.781C8.0357 15.781 8.8511 15.8799 8.8511 15.0778C8.8511 14.8193 8.50769 14.531 8.14791 14.531H5.17911V13.6716H19.9447C20.206 14.793 20.018 14.531 17.6791 14.531H12.5228C11.6453 14.531 10.4916 14.2974 10.4916 15.1559L10.4918 15.1562ZM9.86684 12.0312V12.5H8.61681C8.61681 11.3907 8.47373 10.3296 9.1425 9.58826C9.72484 8.94279 10.2958 8.90622 11.0386 8.90622C12.0848 10.8832 14.0761 9.9522 14.3198 8.90622C14.7648 8.90622 15.0191 8.9377 15.3257 9.07229C15.4602 9.1314 15.9126 9.42743 16.0205 9.54921C16.7047 10.3217 16.5854 11.455 16.5854 12.5H15.3354C15.3354 11.4168 15.3815 11.7856 15.0228 11.2499C14.1337 11.2499 14.0854 11.4557 14.0854 12.5H11.1166C11.1166 11.9542 11.2031 11.2499 10.4916 11.2499C10.026 11.2499 9.86668 11.5652 9.86668 12.0312H9.86684ZM12.1324 8.04683V7.73428H13.2261V8.28112C13.2261 8.59676 13.056 8.82796 12.7574 8.82796C12.2917 8.82796 12.1324 8.51264 12.1324 8.04668V8.04683ZM10.8043 4.4531C10.8043 3.82106 11.0372 3.75114 11.195 3.51561H13.8512C14.2062 3.51561 14.2587 3.68246 14.4762 3.82816C14.4762 4.69418 14.6438 5.77057 13.5288 6.31834C13.5143 6.32544 13.197 6.45308 13.1951 6.45354C12.7537 6.57624 12.1054 6.51621 11.7705 6.29935C11.1314 5.8854 10.8042 5.26031 10.8042 4.4531H10.8043ZM12.7574 2.26558L10.8043 2.34368C10.8043 0.901495 11.4681 1.17175 13.6168 1.17175C14.6217 1.17175 14.4762 1.82169 14.4762 2.34368C14.0262 2.30618 13.9804 2.22329 13.6949 1.79684C13.103 1.79684 13.0247 1.76026 12.7574 2.26558ZM9.63239 1.71874V4.92184C9.63239 5.6951 10.1164 6.51605 10.6284 6.97275C10.9213 7.2339 10.9605 7.1007 10.9605 7.65619C8.46879 7.65619 7.36678 9.34687 7.36678 11.5625V12.5C4.70065 12.5 3.92924 12.1624 3.92924 14.453C3.92924 15.9146 5.53163 15.7811 6.27295 15.7811V24.4529C5.58565 24.4529 4.67873 24.4204 4.0592 24.6611C2.22251 25.3747 2.36667 27.2219 2.36667 28.9842C2.36667 29.8983 2.44816 30.5308 2.73153 31.1973C3.07294 32.0003 3.85099 32.3062 3.85099 32.656V33.2028C2.30493 33.2028 1.06431 33.8305 0.386129 35.2067C-0.136324 36.2669 0.0228039 37.4136 0.0228039 38.7496C0.0228039 39.43 0.592486 39.9997 1.27283 39.9997H36.2727C36.8293 39.9997 37.4446 39.3843 37.4446 38.8277V36.7183C37.4446 34.7497 35.8618 33.2027 33.6164 33.2027C33.6164 32.3584 33.5566 32.597 34.0657 32.0894C34.6189 31.5379 35.0227 30.8014 35.0227 29.9994V26.7963C35.0227 26.1592 34.472 25.3543 34.1006 25.0621C32.8728 24.0959 29.007 24.0817 28.5384 26.0931C27.7182 25.9021 28.0002 25.9369 27.1322 25.9369V25.2338C28.9479 24.018 28.6165 22.0322 28.6165 19.9994C28.6165 18.3899 27.4847 17.1869 25.8821 17.1869C25.1149 17.1869 24.1271 17.1256 23.4336 17.3946C23.2484 17.4664 23.1232 17.561 22.9902 17.6543C22.903 17.7154 22.9064 17.7135 22.8122 17.7888L22.6054 17.9725C21.5526 19.108 21.8197 20.509 21.8197 22.4212C21.8197 23.7189 22.5221 24.7101 23.304 25.2336V25.9368C22.436 25.9368 22.7179 25.9019 21.8978 26.093C21.2376 24.8456 20.5048 24.4523 18.929 24.4523V15.7805C19.5704 15.7805 20.2322 15.8583 20.7292 15.4714C21.3495 14.9886 21.4699 13.2701 20.619 12.6842C20.221 12.4101 19.7073 12.4992 19.0853 12.4992L20.179 8.82735C20.179 8.45244 18.029 6.14501 17.6224 5.68074C17.0433 5.01923 16.4289 5.21663 16.4289 6.0149C16.4289 6.22048 17.3665 7.23359 17.5859 7.51419L18.2056 8.22263C19.0223 9.03957 18.9081 8.96394 18.6274 9.85419C18.5308 10.1604 18.4607 10.4302 18.3531 10.7519C18.2364 11.101 17.9708 12.2533 17.757 12.4995C17.757 10.3839 17.9393 9.23975 16.0699 8.09282C15.5982 7.80343 15.1062 7.7082 14.4757 7.65572V7.10888C14.8856 6.99945 15.1026 6.56467 15.3209 6.2353C15.9325 5.31263 15.7256 3.15182 15.7256 1.79638C15.7256 0.902113 14.8935 -0.000488281 14.0068 -0.000488281H11.3505C10.4912 -0.000488281 9.63177 0.858742 9.63177 1.71828L9.63239 1.71874Z" fill="#36D1C2"/>
<path fill-rule="evenodd" clip-rule="evenodd" d="M22.3662 2.42198V7.57829C22.3662 8.34568 23.0001 9.06261 23.7724 9.06261H24.3193C24.3193 9.77521 24.1833 10.7814 25.1787 10.7814C25.61 10.7814 25.9971 10.2364 26.2529 9.98064C27.4291 8.80439 26.757 9.06261 29.163 9.06261C29.381 8.7371 29.4756 8.88835 29.4756 8.43767C29.4756 7.63014 28.3087 7.81273 27.4444 7.81273C26.2935 7.81273 26.2211 8.47008 25.5695 8.90641C25.176 7.21789 23.6164 8.1989 23.6164 7.57829V2.42198C23.6164 2.24201 23.6707 2.18753 23.8508 2.18753H35.9602C36.1401 2.18753 36.1946 2.24186 36.1946 2.42198V7.81258H32.054C30.9881 7.81258 30.8886 8.48706 31.2332 8.86767C31.301 8.94253 31.4677 9.06245 31.5853 9.06245H36.0384C36.7962 9.06245 37.4446 8.41406 37.4446 7.65623V2.26563C37.4446 1.89983 37.0997 1.45285 36.8796 1.2681C36.6191 1.04955 36.0381 0.9375 35.5697 0.9375H24.2416C23.2383 0.9375 22.3667 1.38988 22.3667 2.42182L22.3662 2.42198Z" fill="#36D1C2"/>
<path fill-rule="evenodd" clip-rule="evenodd" d="M24.9443 3.74999C24.9443 4.3169 25.0109 4.08569 25.2569 4.45318C28.2777 4.45318 31.2985 4.45318 34.3193 4.45318C35.0926 4.45318 35.0926 3.28125 34.3193 3.28125H25.2569C25.1397 3.45628 24.9443 3.55567 24.9443 3.74999V3.74999Z" fill="#36D1C2"/>
<path fill-rule="evenodd" clip-rule="evenodd" d="M24.9443 5.93749C24.9443 6.5044 25.0109 6.27319 25.2569 6.64068H30.0225C30.4789 5.95895 30.4643 6.12841 30.0225 5.46875H25.2569C25.1397 5.64378 24.9443 5.74317 24.9443 5.93749Z" fill="#36D1C2"/>
</g>
<defs>
<clipPath id="clip0_1599_3286">
<rect width="37.4445" height="40" fill="white"/>
</clipPath>
</defs>
</svg>
