<svg width="40" height="40" viewBox="0 0 40 40" fill="none" xmlns="http://www.w3.org/2000/svg">
<g clip-path="url(#clip0_1599_3329)">
<path fill-rule="evenodd" clip-rule="evenodd" d="M8.60803 20.9282H31.3928V21.6878H8.60803V20.9282V20.9282ZM18.5658 15.443H21.435V19.6624H18.5658V15.443V15.443ZM17.3844 14.8523V19.6624H9.62069V10.5485C10.1815 10.5485 10.2408 10.5741 10.748 10.3257C10.8907 10.2557 10.9592 10.2305 11.0727 10.1439C11.4397 9.86385 11.3105 9.71209 11.7111 10.0616C11.8908 10.2184 11.8493 10.1882 12.066 10.2974C12.6601 10.5967 12.7309 10.5485 13.4182 10.5485C14.1003 10.5485 14.4408 10.1494 14.8528 9.87351C15.7182 10.453 15.6692 10.5485 16.7937 10.5485C17.455 10.5485 17.9067 10.1454 18.3127 9.87351C19.1485 10.4332 18.9868 10.5485 20.2536 10.5485C20.6016 10.5485 20.7861 10.4517 21.0433 10.3257C21.4302 10.1361 21.4031 10.0644 21.6882 9.87351C22.5537 10.4531 22.5485 10.5485 23.6291 10.5485C24.3225 10.5485 24.7288 10.1543 25.1481 9.87351C26.0647 10.4873 25.8388 10.5485 27.089 10.5485C27.4574 10.5485 27.9669 10.3244 28.2034 10.1439C28.8839 9.62469 28.3784 9.88507 29.1967 10.2974C29.7287 10.5653 29.7762 10.5485 30.3802 10.5485V19.6624H22.6165V14.8523C22.6165 14.4584 22.4198 14.2616 22.0258 14.2616H17.9751C17.5812 14.2616 17.3845 14.4584 17.3845 14.8523H17.3844ZM18.9033 8.1857V7.51055H21.0974C21.0974 8.09911 21.1931 9.36712 20.0004 9.36712C19.4091 9.36712 18.9033 8.88075 18.9033 8.1857V8.1857ZM25.7387 8.10132V7.51055H27.9328V8.1857C27.9328 9.68996 25.7387 9.73693 25.7387 8.10132ZM12.0678 8.1857V7.51055H14.2619V8.10132C14.2619 9.71782 12.0678 9.71822 12.0678 8.1857ZM8.60793 8.10132V7.51055H10.802V8.35446C10.802 9.57199 8.60793 9.77444 8.60793 8.10132V8.10132ZM29.1986 8.35446V7.51055H31.3927V7.93246C31.3927 9.93304 29.1986 9.49646 29.1986 8.35436V8.35446ZM22.3632 8.35446V7.51055C23.6017 7.51055 24.5573 7.31786 24.5573 7.7637C24.5573 8.56154 24.3709 9.14727 23.7078 9.28335C22.9578 9.43722 22.3632 8.96031 22.3632 8.35446ZM15.4434 7.7637C15.4434 7.31786 16.3991 7.51055 17.6375 7.51055C17.6375 8.10232 17.778 9.52945 16.3661 9.29481C15.6337 9.17312 15.4434 8.59463 15.4434 7.7637ZM10.8021 1.18143H29.1987C29.2916 1.37483 29.3369 1.5631 29.4191 1.80498L30.8357 5.62039C30.9446 5.89808 31.027 5.99 31.0552 6.32913H8.94555C8.97129 6.01977 9.03707 5.93217 9.14056 5.68024C9.23238 5.45666 9.28478 5.26326 9.36745 5.06332C9.54084 4.64374 9.68154 4.234 9.84095 3.76463L10.802 1.18143H10.8021ZM7.4266 7.00417C7.4266 7.75444 7.25683 9.81075 8.43927 10.1265V19.6624C7.12368 19.6624 7.4266 20.2262 7.4266 22.616C7.67723 22.8403 7.72279 22.9405 7.93288 22.9536H32.2366C32.7912 22.3337 32.5742 22.4254 32.5742 20.3375C32.5742 19.7642 32.1298 19.6624 31.5615 19.6624V10.1265C32.1063 9.98102 32.5742 9.07717 32.5742 8.35436C32.5742 6.11551 32.65 7.07779 31.9715 5.15957C31.7518 4.53823 31.534 3.94053 31.298 3.30149C31.0916 2.74291 30.8651 2.07984 30.6333 1.51895C30.2939 0.697772 30.246 0 29.6206 0H10.3802C9.75325 0 9.72639 0.644268 9.3938 1.46092C8.79569 2.92948 8.26477 4.64645 7.70609 6.01786C7.585 6.31505 7.4267 6.63095 7.4267 7.00427L7.4266 7.00417Z" fill="#617792"/>
<path fill-rule="evenodd" clip-rule="evenodd" d="M19.0714 35.9492H20.928V38.8184H19.0714V35.9492ZM17.89 35.3585V38.8184H16.371V33.4176H23.6283V38.8184H22.1094V35.3585C22.1094 34.9646 21.9127 34.7679 21.5187 34.7679H18.4807C18.0868 34.7679 17.8901 34.9647 17.8901 35.3585H17.89ZM16.7086 29.8733H23.2908L24.1347 32.1518H15.8647L16.7087 29.8733H16.7086ZM14.3457 32.7426V33.0801C14.6158 33.2609 14.6405 33.4072 15.1052 33.4176V39.3247C15.1052 39.7081 15.2855 39.7649 15.4427 39.9999H24.5566C24.7139 39.7649 24.8941 39.7082 24.8941 39.3247V33.4176C25.3589 33.4072 25.3835 33.2609 25.6537 33.0801C25.6537 32.3323 24.7385 30.0627 24.3574 29.1443C24.2456 28.8746 24.1895 28.8999 24.0502 28.6919H15.949C15.4528 29.433 15.8302 28.724 15.4935 29.5866C15.3529 29.9469 15.2159 30.272 15.0935 30.6211C14.9774 30.9519 14.8564 31.311 14.7096 31.6718C14.6213 31.8886 14.3457 32.5399 14.3457 32.7426V32.7426Z" fill="#617792"/>
<path fill-rule="evenodd" clip-rule="evenodd" d="M33.4181 35.9492H35.2747V38.8184H33.4181V35.9492ZM32.2367 35.3585V38.8184H30.7177V33.4176H37.9751V38.8184H36.4562V35.3585C36.4562 34.9646 36.2594 34.7679 35.8654 34.7679H32.8274C32.4335 34.7679 32.2368 34.9647 32.2368 35.3585H32.2367ZM31.0552 29.8733H37.6375C37.7983 30.2085 37.915 30.619 38.0592 30.9706C38.2123 31.3437 38.383 31.7298 38.4814 32.1518H30.2113L30.8137 30.4756C30.8792 30.3091 30.9739 30.0429 31.0552 29.8733ZM28.6924 32.7426V33.0801C28.9625 33.2609 28.9871 33.4072 29.4519 33.4176V39.3247C29.4519 39.7081 29.6321 39.7649 29.7894 39.9999C32.8274 39.9999 35.8653 39.9999 38.9033 39.9999C39.0606 39.7649 39.2408 39.7082 39.2408 39.3247V33.4176C39.7056 33.4072 39.7302 33.2609 40.0004 33.0801C40.0004 32.2002 39.6307 31.7358 39.2731 30.6849L38.7041 29.1443C38.5922 28.8746 38.5362 28.8999 38.3969 28.6919H30.2957C29.8575 29.3462 29.7449 29.7523 29.4401 30.6211L28.6924 32.7426V32.7426Z" fill="#617792"/>
<path fill-rule="evenodd" clip-rule="evenodd" d="M4.7257 35.9492H6.58227V38.8184H4.7257V35.9492ZM3.54428 35.3585V38.8184H2.02533V33.4176H9.28274V38.8184H7.7638V35.3585C7.7638 34.9646 7.56697 34.7679 7.17313 34.7679H4.13514C3.7412 34.7679 3.54438 34.9647 3.54438 35.3585H3.54428ZM2.36285 29.8733H8.94512C9.10594 30.2085 9.2226 30.619 9.36682 30.9706C9.51989 31.3437 9.69066 31.7298 9.78892 32.1518H1.51885C1.61731 31.7291 1.76686 31.4388 1.90846 31.0225C1.99325 30.7734 2.03257 30.7007 2.12117 30.4756C2.18675 30.3091 2.28139 30.0429 2.36275 29.8733H2.36285ZM0 32.7426V33.0801C0.270138 33.2609 0.294778 33.4072 0.759524 33.4176V39.3247C0.759524 39.7081 0.93975 39.7649 1.09704 39.9999C4.13504 39.9999 7.17293 39.9999 10.2109 39.9999C10.3682 39.7649 10.5484 39.7082 10.5484 39.3247V33.4176C11.0132 33.4072 11.0378 33.2609 11.308 33.0801C11.308 32.283 10.541 30.5218 10.1847 29.6464C9.85409 28.8343 10.2488 29.5047 9.70464 28.6919H1.60343C1.16523 29.3462 1.05259 29.7523 0.747857 30.6211L0.000100573 32.7426H0Z" fill="#617792"/>
<path fill-rule="evenodd" clip-rule="evenodd" d="M5.06348 12.996V27.2575C5.06348 28.0682 6.2449 28.0682 6.2449 27.2575V13.5866C6.97013 13.5866 7.59509 13.7207 7.59509 12.996C7.59509 12.2079 6.79393 12.4053 5.65414 12.4053C5.2602 12.4053 5.06348 12.6021 5.06348 12.996V12.996Z" fill="#617792"/>
<path fill-rule="evenodd" clip-rule="evenodd" d="M32.4054 12.996C32.4054 13.7207 33.0303 13.5866 33.7556 13.5866V27.2575C33.7556 28.0682 34.937 28.0682 34.937 27.2575V12.996C34.937 12.2079 34.1358 12.4053 32.996 12.4053C32.6021 12.4053 32.4053 12.6021 32.4053 12.996H32.4054Z" fill="#617792"/>
<path fill-rule="evenodd" clip-rule="evenodd" d="M25.0633 15.4431H27.9325V17.2997H25.0633V15.4431ZM23.8818 14.8525V17.8905C23.8818 18.2844 24.0787 18.4811 24.4726 18.4811H28.5233C28.9172 18.4811 29.1139 18.2843 29.1139 17.8905V14.8525C29.1139 14.4585 28.9171 14.2617 28.5233 14.2617H24.4726C24.0787 14.2617 23.8818 14.4585 23.8818 14.8525Z" fill="#617792"/>
<path fill-rule="evenodd" clip-rule="evenodd" d="M12.0672 15.4431H14.9364V17.2997H12.0672V15.4431ZM10.8857 14.8525V17.8905C10.8857 18.2844 11.0826 18.4811 11.4764 18.4811H15.5271C15.921 18.4811 16.1178 18.2843 16.1178 17.8905V14.8525C16.1178 14.4585 15.921 14.2617 15.5271 14.2617H11.4764C11.0825 14.2617 10.8857 14.4585 10.8857 14.8525Z" fill="#617792"/>
<path fill-rule="evenodd" clip-rule="evenodd" d="M14.9365 12.4052C14.9365 12.7992 15.1333 12.9959 15.5272 12.9959H24.4723C25.2829 12.9959 25.2829 11.8145 24.4723 11.8145H15.5272C15.1332 11.8145 14.9365 12.0113 14.9365 12.4052Z" fill="#617792"/>
<path fill-rule="evenodd" clip-rule="evenodd" d="M19.4092 24.388V27.2573C19.4092 28.0679 20.5906 28.0679 20.5906 27.2573V24.388C20.5906 24.0783 20.4599 23.9801 20.3375 23.7974H19.6624C19.54 23.9802 19.4093 24.0783 19.4093 24.388H19.4092Z" fill="#617792"/>
<path fill-rule="evenodd" clip-rule="evenodd" d="M13.5869 2.61589C13.5869 3.46442 14.6406 3.20655 16.203 3.20655C17.0136 3.20655 17.0136 2.02513 16.203 2.02513C14.6407 2.02513 13.5869 1.76726 13.5869 2.61589V2.61589Z" fill="#617792"/>
</g>
<defs>
<clipPath id="clip0_1599_3329">
<rect width="40" height="40" fill="white"/>
</clipPath>
</defs>
</svg>
