<svg width="70" height="64" viewBox="0 0 70 64" fill="none" xmlns="http://www.w3.org/2000/svg">
<path d="M68.9726 61.2409H64.2507V42.0145C64.2507 41.4471 63.7907 40.9871 63.2233 40.9871C62.6559 40.9871 62.1959 41.4471 62.1959 42.0145V61.2409H54.1942V27.4231C54.1942 27.2344 54.3478 27.0807 54.5367 27.0807H61.8534C62.0422 27.0807 62.1959 27.2344 62.1959 27.4231V37.9049C62.1959 38.4723 62.6559 38.9323 63.2233 38.9323C63.7907 38.9323 64.2507 38.4723 64.2507 37.9049V27.4231C64.2507 26.1014 63.1753 25.0259 61.8534 25.0259H54.5367C53.2149 25.0259 52.1395 26.1014 52.1395 27.4231V61.2411H48.7873V34.9001C48.7873 33.5783 47.7118 32.5029 46.39 32.5029H39.0733C37.7514 32.5029 36.676 33.5783 36.676 34.9001V61.2411H33.3238V42.3771C33.3238 41.0553 32.2485 39.9799 30.9266 39.9799H23.6099C22.2881 39.9799 21.2126 41.0553 21.2126 42.3771V51.3609C21.2126 51.9283 21.6726 52.3883 22.24 52.3883C22.8074 52.3883 23.2674 51.9283 23.2674 51.3609V42.3771C23.2674 42.1882 23.4211 42.0346 23.6099 42.0346H30.9266C31.1155 42.0346 31.269 42.1882 31.269 42.3771V61.2409H23.2674V55.4705C23.2674 54.9031 22.8074 54.4431 22.24 54.4431C21.6726 54.4431 21.2126 54.9031 21.2126 55.4705V61.2409H17.8604V49.8541C17.8604 48.5323 16.7851 47.4568 15.4632 47.4568H8.14658C6.82479 47.4568 5.74932 48.5323 5.74932 49.8541V61.2409H1.0274C0.46 61.2409 0 61.7009 0 62.2683C0 62.8357 0.46 63.2957 1.0274 63.2957H68.9726C69.54 63.2957 70 62.8357 70 62.2683C70 61.7009 69.54 61.2409 68.9726 61.2409ZM38.7308 34.9001C38.7308 34.7114 38.8845 34.5577 39.0733 34.5577H46.39C46.5788 34.5577 46.7325 34.7114 46.7325 34.9001V61.2411H38.7308V34.9001ZM7.80411 49.8541C7.80411 49.6653 7.95781 49.5116 8.14658 49.5116H15.4633C15.6522 49.5116 15.8058 49.6653 15.8058 49.8541V61.2409H7.80411V49.8541Z" fill="white"/>
<path d="M10.9711 35.1915C11.0274 35.1915 11.0842 35.1894 11.1412 35.1856C18.7182 34.6593 25.8433 33.0057 32.3187 30.2708C41.0382 26.588 48.2567 21.0368 53.7885 13.7627L57.2512 16.1704C57.9334 16.679 58.9729 16.0676 58.86 15.2242L57.4248 0.927218C57.3781 0.31667 56.7324 -0.132508 56.1435 0.0355743L42.2287 3.65968C41.3981 3.84708 41.1865 5.03475 41.9011 5.49749L45.3955 7.92708C44.7002 9.01941 43.1685 11.1853 40.4976 13.8346C40.0948 14.2343 40.0922 14.8848 40.4918 15.2875C40.8913 15.6904 41.5419 15.693 41.9446 15.2934C46.062 11.2091 47.6166 8.22283 47.6807 8.09777C47.9153 7.63996 47.7753 7.07914 47.353 6.78544L44.9078 5.0853L55.5003 2.32653L56.5929 13.2097L54.1456 11.5082C53.6872 11.1895 53.0589 11.295 52.7296 11.7454C47.3463 19.1112 40.21 24.7072 31.5193 28.3778C23.7142 31.6742 16.0522 32.7845 10.999 33.1356C10.7038 33.2112 10.6144 32.6691 10.9083 32.6376C22.1652 29.1638 31.5661 24.2802 38.8501 18.1227C39.2835 17.7564 39.3378 17.1082 38.9715 16.6749C38.6053 16.2416 37.9568 16.1871 37.5237 16.5535C30.4522 22.5315 21.2937 27.2823 10.3026 30.6742C9.16121 31.0264 8.49148 32.1334 8.71011 33.3063C8.91792 34.4216 9.8545 35.1915 10.9711 35.1915Z" fill="white"/>
</svg>
