<svg width="40" height="40" viewBox="0 0 40 40" fill="none" xmlns="http://www.w3.org/2000/svg">
<g clip-path="url(#clip0_1599_3537)">
<path fill-rule="evenodd" clip-rule="evenodd" d="M16.7187 0.625L17.0391 0.804688C17.2187 0.898438 17.4922 1.11719 17.6484 1.29688C17.8047 1.46875 17.9766 1.75 18.0234 1.92188C18.0937 2.125 18.125 2.79687 18.125 5.625H26.875L26.9141 3L27.2031 2.41406C27.3828 2.03906 27.6172 1.71094 27.8672 1.48438C28.0703 1.29687 28.5 1.02344 29.375 0.625H33.125L33.6953 0.882813C34 1.02344 34.4297 1.29687 34.6328 1.48438C34.8828 1.71094 35.1172 2.03906 35.5859 3L35.625 13.125H36.1953C36.5312 13.125 36.9609 13.1797 37.2656 13.2734C37.5469 13.3594 37.9297 13.5469 38.125 13.6875C38.3203 13.8359 38.6094 14.125 38.7656 14.3438C38.9297 14.5547 39.1328 14.9375 39.2187 15.1953C39.3047 15.4531 39.375 15.8125 39.375 16C39.375 16.1797 38.8672 20.4141 38.2422 25.4141C37.6172 30.4062 37.0547 34.6484 36.9922 34.8438C36.9297 35.0391 36.7422 35.3906 36.5781 35.625C36.4063 35.8594 36.1328 36.1484 35.9687 36.2656C35.7969 36.3828 35.4922 36.5547 34.8828 36.8359L15 36.875V37.4844C15 37.9922 14.9687 38.1562 14.7891 38.5078C14.625 38.8125 14.4687 38.9844 14.2031 39.1484C13.9062 39.3281 13.7344 39.375 12.9297 39.375L9.25781 36.9141L5.11719 36.8359L4.59375 36.5859C4.28125 36.4375 3.91406 36.1719 3.70313 35.9609C3.50781 35.75 3.25 35.3906 3.14063 35.1562C2.95313 34.7656 2.84375 33.9922 1.80469 25.8594C1.05469 19.9453 0.679688 16.7344 0.671875 16.2109C0.671875 15.5625 0.703125 15.3516 0.851562 14.9609C0.984375 14.625 1.17187 14.3594 1.51562 14.0156C1.84375 13.6953 2.14062 13.4844 2.92969 13.1641L10.625 13.125V11.875H8.30469C6.72656 11.875 5.875 11.8438 5.66406 11.7813C5.47656 11.7188 5.19531 11.5312 4.96094 11.2891C4.71875 11.0547 4.53125 10.7734 4.46875 10.5859C4.40625 10.3594 4.375 9.15625 4.375 6.25C4.375 3.28125 4.40625 2.14844 4.47656 1.92188C4.52344 1.75 4.71094 1.46094 4.88281 1.27344C5.05469 1.09375 5.32031 0.875 5.46875 0.789063C5.73438 0.640625 5.92187 0.632813 16.7187 0.625V0.625ZM5.63281 2.25781L5.625 10.2344L6.01563 10.625H16.4922L16.875 10.2344V2.26562L16.4844 1.875H6.00781L5.63281 2.25781ZM28.7109 2.45312C28.4687 2.69531 28.2812 2.97656 28.2266 3.16406C28.1641 3.36719 28.125 4.08594 28.125 5.17187V6.875H34.375C34.375 4.08594 34.3437 3.36719 34.2812 3.16406C34.2266 2.96875 34.0312 2.69531 33.7969 2.46094C33.5547 2.21875 33.2812 2.03125 33.0859 1.96875C32.8828 1.90625 32.2187 1.88281 31.2109 1.88281C30.3125 1.89063 29.5312 1.92969 29.375 1.97656C29.2266 2.02344 28.9297 2.24219 28.7109 2.45312ZM18.125 8.57031C18.125 9.66406 18.0937 10.3828 18.0312 10.5859C17.9766 10.7734 17.7812 11.0469 17.5469 11.2891C17.3047 11.5312 17.0312 11.7188 16.8359 11.7813C16.625 11.8438 15.7812 11.875 14.2031 11.875H11.875V13.125H26.875V6.875H18.125V8.57031ZM28.125 9.36719H34.375V8.11719H28.125V9.36719ZM28.125 19.3672H30.625V10.6172H28.125V19.3672ZM31.875 19.3672H34.375V10.6172H31.875V19.3672ZM2.39062 14.8828C2.27344 15.0078 2.10156 15.25 2.02344 15.4219C1.94531 15.5937 1.88281 15.8516 1.88281 15.9922C1.875 16.1328 2.39062 20.3203 3.00781 25.3047C3.88281 32.2812 4.17969 34.4375 4.28906 34.6641C4.36719 34.8281 4.55469 35.0625 4.71094 35.1875C4.85937 35.3203 5.11719 35.4688 5.28906 35.5234C5.49219 35.5859 6.21875 35.6172 7.57813 35.6172L9.57031 35.625C13.25 38.0859 13.375 38.1563 13.5625 38.0625C13.75 37.9609 13.75 37.9609 13.75 36.7891V35.6172C32.0547 35.6172 34.4844 35.5938 34.7187 35.5234C34.8906 35.4688 35.1484 35.3203 35.3047 35.1875C35.4609 35.0547 35.6484 34.7969 35.7266 34.6172C35.8203 34.3906 36.2109 31.5 37.0078 25.1328C38 17.1484 38.1406 15.9297 38.0625 15.6406C38.0078 15.4609 37.8359 15.1641 37.6797 14.9844C37.5156 14.8047 37.2422 14.5938 37.0703 14.5156C36.862 14.4219 36.5703 14.375 36.1953 14.375L35.625 14.3672V20.1484C32.9375 25.5312 32.5391 26.2656 32.3203 26.4609C32.1641 26.6016 31.8984 26.75 31.7422 26.7891C31.5781 26.8359 30.3203 26.8672 28.8516 26.8672H26.25V25.6172H29.6094L26.875 20.1484V14.3672C3.76563 14.375 3.23437 14.3828 2.92969 14.5156C2.75781 14.5938 2.51563 14.7656 2.39062 14.8828V14.8828ZM29.75 23.0625C30.4219 24.3984 31.0391 25.5312 31.1172 25.5781C31.2109 25.6328 31.2969 25.6328 31.3906 25.5781C31.4609 25.5312 32.0781 24.3984 32.7578 23.0625L33.9844 20.6172H28.5156L29.75 23.0625ZM9.85156 3.15625C10.2031 3.17969 10.5781 3.33594 12 4.04687C13.2578 4.67187 13.7812 4.97656 13.9687 5.1875C14.1094 5.34375 14.2578 5.60156 14.3047 5.76563C14.3438 5.92188 14.3828 6.14844 14.3828 6.25C14.3828 6.35937 14.3438 6.57813 14.3047 6.74219C14.2578 6.89844 14.1094 7.16406 13.9687 7.32031C13.7812 7.52344 13.2578 7.82813 12 8.46094C10.8672 9.02344 10.1563 9.32813 9.92969 9.35938C9.72656 9.38281 9.4375 9.35156 9.26562 9.29688C9.09375 9.23437 8.82812 9.08594 8.6875 8.95312C8.53906 8.82031 8.35156 8.57031 8.27344 8.39844C8.14844 8.125 8.13281 7.85938 8.13281 6.27344C8.13281 4.80469 8.15625 4.39844 8.25 4.16406C8.32031 4 8.46875 3.76563 8.58594 3.64844C8.70313 3.52344 8.9375 3.35156 9.10938 3.27344C9.33594 3.16406 9.53125 3.13281 9.85156 3.15625V3.15625ZM9.375 6.24219C9.375 7.67969 9.39063 7.86719 9.51563 7.99219C9.59375 8.0625 9.70313 8.125 9.77344 8.125C9.83594 8.11719 10.5859 7.75781 11.4453 7.32031C12.3047 6.88281 13.0391 6.46094 13.0859 6.39063C13.1406 6.29688 13.1406 6.21094 13.0859 6.11719C13.0391 6.03906 12.3047 5.61719 11.4453 5.17969C10.5859 4.74219 9.82813 4.38281 9.75781 4.38281C9.6875 4.38281 9.57031 4.42969 9.5 4.5C9.38281 4.60937 9.36719 4.83594 9.375 6.24219V6.24219ZM19.9688 15.6406C20.1406 15.6328 20.4219 15.6719 20.5938 15.7266C20.7813 15.7813 21.0547 15.9688 21.2969 16.2109C21.5391 16.4531 21.7266 16.7266 21.7812 16.9141C21.8437 17.125 21.875 17.9141 21.875 19.2813C21.8828 20.8672 21.8984 21.3281 21.9766 21.3281C22.0312 21.3281 22.3203 21.4453 22.625 21.5937C22.9609 21.7656 23.2969 22.0078 23.5156 22.2422C23.7109 22.4531 23.9687 22.8516 24.1016 23.125C24.3125 23.5781 24.3438 23.7109 24.3438 24.375C24.3438 25.0391 24.3125 25.1719 24.1016 25.625C23.9687 25.9062 23.7109 26.3047 23.5156 26.5156C23.2969 26.75 22.9609 26.9922 22.625 27.1563C22.3203 27.3047 22.0312 27.4297 21.9766 27.4297C21.8984 27.4219 21.8828 27.8828 21.875 29.4766C21.875 30.8437 21.8437 31.6328 21.7812 31.8359C21.7266 32.0312 21.5391 32.3047 21.2969 32.5469C21.0547 32.7813 20.7813 32.9766 20.5938 33.0312C20.4219 33.0859 20.1562 33.125 20.0078 33.125C19.8516 33.125 19.5938 33.0859 19.4219 33.0312C19.2266 32.9766 18.9453 32.7813 18.7109 32.5469C18.4609 32.2969 18.2891 32.0547 18.2578 31.8984C18.2266 31.7266 18.1016 31.5547 17.875 31.375C17.6953 31.2344 17.2812 30.9453 16.9609 30.7344C16.6328 30.5312 16.0234 30.1953 15.5938 29.9922C15.1641 29.7969 14.4687 29.5234 14.0469 29.3828C13.6328 29.25 13.25 29.1406 13.2109 29.1406C13.1563 29.1406 13.1328 30.0703 13.1328 34.375H9.5L8.25 28.7656L7.50781 28.7344C6.89062 28.7109 6.67188 28.6641 6.25781 28.4687C5.97656 28.3437 5.57812 28.0781 5.36719 27.8906C5.125 27.6641 4.89062 27.3359 4.42188 26.375V22.375L4.70312 21.7969C4.89062 21.4219 5.125 21.0938 5.36719 20.8672C5.57812 20.6719 5.97656 20.4141 6.76562 20.0391L9.1875 19.9922C10.5156 19.9609 11.8359 19.8984 12.1172 19.8516C12.3906 19.7969 12.8828 19.6953 13.2109 19.6094C13.5312 19.5312 14.1094 19.3516 14.5 19.2188C14.8828 19.0781 15.4844 18.8281 15.8281 18.6563C16.1719 18.4844 16.6953 18.1875 17 17.9922C17.2969 17.7969 17.6953 17.5234 17.875 17.375C18.1016 17.1953 18.2266 17.0313 18.2578 16.8594C18.2891 16.6953 18.4609 16.4609 18.7109 16.2109C18.9297 15.9922 19.2266 15.7734 19.3828 15.7266C19.5312 15.6797 19.7969 15.6406 19.9688 15.6406V15.6406ZM19.3906 17.2578L19.3828 31.4844C19.6953 31.8047 19.8594 31.875 20.0078 31.875C20.1562 31.875 20.3203 31.8047 20.4375 31.6797L20.6328 31.4844V17.2656C20.3125 16.9531 20.1484 16.875 20 16.875C19.8516 16.875 19.6953 16.9453 19.5781 17.0703L19.3906 17.2578ZM16.7266 19.5938C16.3125 19.8047 15.6641 20.1094 15.2812 20.2578C14.8906 20.4141 14.1719 20.6406 13.6797 20.7734C13.1797 20.8984 12.4453 21.0391 12.0391 21.0938C11.625 21.1406 11.1484 21.1953 10.9609 21.2109L10.6328 21.25V27.5C11.0859 27.5547 11.4609 27.5937 11.7656 27.6172C12.0625 27.6406 12.7109 27.7578 13.2109 27.8672C13.7031 27.9766 14.4063 28.1641 14.7734 28.2969C15.1328 28.4219 15.8203 28.7109 16.2969 28.9453C16.7656 29.1719 17.375 29.5 17.6406 29.6797L18.1328 30C18.1328 21.2813 18.125 18.75 18.1094 18.75C18.1016 18.75 17.9531 18.8516 17.7812 18.9766C17.6094 19.1016 17.1328 19.375 16.7266 19.5938V19.5938ZM6.375 21.6563C6.21875 21.7734 6.03125 21.9844 5.94531 22.125C5.85937 22.2656 5.78906 22.4063 5.78906 22.4375C5.78906 22.4688 6.3125 22.5 6.96094 22.5H8.13281V23.75H5.63281V25H8.13281V26.25C6.3125 26.25 5.78906 26.2656 5.78906 26.2891C5.78906 26.3125 5.83594 26.4219 5.89063 26.5391C5.95313 26.6563 6.14063 26.8828 6.3125 27.0312C6.48438 27.1797 6.75781 27.3438 6.92969 27.3984C7.10937 27.4531 7.67188 27.5 8.30469 27.5H9.38281V21.25C7.625 21.2578 7.04688 21.2969 6.89844 21.3516C6.75781 21.3984 6.52344 21.5391 6.375 21.6563V21.6563ZM21.9219 26.0938C21.9375 26.0938 22.0547 26.0469 22.1719 25.9844C22.2891 25.9297 22.5078 25.7422 22.6641 25.5703C22.8125 25.3984 22.9766 25.1172 23.0312 24.9531C23.0859 24.7812 23.125 24.5234 23.125 24.375C23.125 24.2266 23.0859 23.9609 23.0312 23.7969C22.9766 23.625 22.8125 23.3516 22.6641 23.1797C22.5078 23.0078 22.2891 22.8203 22.1719 22.7578C22.0547 22.7031 21.9375 22.6562 21.9219 22.6562C21.8984 22.6562 21.8828 23.4297 21.8828 24.375C21.8828 25.3203 21.8984 26.0938 21.9219 26.0938V26.0938ZM10.0625 31.0703L10.5156 33.125H11.8828C11.8828 29.0703 11.8672 28.8984 11.7422 28.8594C11.6719 28.8359 11.1406 28.7969 10.5781 28.7734C9.59375 28.7266 9.54687 28.7266 9.57812 28.875C9.59375 28.9531 9.8125 29.9453 10.0625 31.0703ZM26.2578 28.125H35.0078V29.375H26.2578V28.125ZM26.2578 30.625H35.0078V31.875H26.2578V30.625ZM26.2578 33.125H27.5078V34.375H26.2578V33.125ZM28.7578 33.125H30.0078V34.375H28.7578V33.125ZM31.2578 33.125H32.5078V34.375H31.2578V33.125ZM33.7578 33.125H35.0078V34.375H33.7578V33.125Z" fill="#36D1C2"/>
</g>
<defs>
<clipPath id="clip0_1599_3537">
<rect width="40" height="40" fill="white"/>
</clipPath>
</defs>
</svg>
