<svg width="40" height="40" viewBox="0 0 40 40" fill="none" xmlns="http://www.w3.org/2000/svg">
<g clip-path="url(#clip0_1599_3539)">
<path fill-rule="evenodd" clip-rule="evenodd" d="M34.2969 0.632575C35.0391 0.624763 35.1875 0.6482 35.8594 0.882575C36.2656 1.0232 36.7969 1.26539 37.0312 1.41383C37.2656 1.57008 37.6484 1.88258 37.875 2.11695C38.1094 2.35133 38.4219 2.73414 38.5781 2.96851C38.7344 3.20289 38.9609 3.67945 39.0781 4.0232C39.2109 4.41383 39.3125 4.8982 39.3438 5.31226C39.3828 5.80445 39.3594 6.1482 39.2578 6.64039C39.1875 7.00758 39.0469 7.48414 38.9531 7.69508C38.8594 7.91383 38.6641 8.26539 38.5156 8.47633C38.375 8.69508 36.5547 10.5701 30.6953 16.4451L30.8906 17.2654C31 17.7185 31.1172 18.367 31.2109 19.3357L32.5 19.3748V20.117C32.5 20.5545 32.5391 20.9607 32.6016 21.1169C32.6641 21.2498 32.8203 21.4607 32.9531 21.5779C33.1016 21.7107 33.3359 21.8201 33.5313 21.8435C33.7891 21.8826 33.9531 21.8591 34.2188 21.7341C34.4141 21.6404 34.7812 21.3513 35.5078 20.6248L38.1172 23.242L37.5703 23.8045C37.2344 24.1638 37 24.4841 36.9453 24.6638C36.8984 24.8279 36.875 25.0935 36.9062 25.2498C36.9297 25.4138 37.0469 25.656 37.1641 25.7966C37.2891 25.9295 37.5 26.0857 37.6328 26.1482C37.7891 26.2107 38.1953 26.2498 39.375 26.2498V29.9998H38.6328C38.1953 29.9998 37.7891 30.0388 37.6328 30.1013C37.5 30.1638 37.2891 30.3201 37.1641 30.4529C37.0469 30.5935 36.9297 30.8357 36.9062 30.992C36.875 31.156 36.8984 31.4216 36.9453 31.5779C37 31.7654 37.2344 32.0857 38.1172 33.0076L35.5078 35.6169L34.9375 35.0701C34.5859 34.7341 34.2656 34.4998 34.0781 34.4451C33.9219 34.3982 33.6563 34.3748 33.4922 34.406C33.3359 34.4294 33.0937 34.5466 32.9531 34.6638C32.8203 34.7888 32.6641 34.9998 32.6016 35.1326C32.5391 35.2888 32.5 35.6951 32.5 36.8748H28.75V36.1326C28.75 35.6951 28.7109 35.2888 28.6484 35.1326C28.5859 34.9998 28.4297 34.7888 28.2969 34.6638C28.1563 34.5466 27.9141 34.4294 27.75 34.406C27.5938 34.3748 27.3281 34.3982 27.1641 34.4451C26.9844 34.4998 26.6641 34.7341 25.7422 35.6169L25.3672 35.2498C25.0234 34.906 25 34.8904 25 35.0779C25 35.1873 24.9531 35.4138 24.8984 35.5779C24.8516 35.7498 24.6797 36.031 24.5234 36.2029C24.3672 36.3826 24.1094 36.5857 23.9375 36.6638C23.7109 36.7654 23.5859 36.8904 23.4531 37.1716C23.3516 37.3748 23.1328 37.7107 22.9688 37.9295C22.8047 38.1404 22.4844 38.4529 22.2578 38.6169C22.0234 38.7732 21.5781 39.0154 21.2656 39.1404C20.7891 39.3357 20.6016 39.3748 20.0156 39.3748C19.4688 39.3748 19.2344 39.3357 18.8281 39.1795C18.5469 39.0701 18.1797 38.8982 18.0078 38.7966C17.8359 38.6951 17.5078 38.4294 17.2812 38.1951C17.0547 37.9607 16.75 37.5544 16.6172 37.2888C16.4219 36.906 16.3047 36.7732 16.0625 36.6638C15.8906 36.5857 15.6328 36.3826 15.4766 36.2029C15.3203 36.031 15.1484 35.7498 15.1016 35.5779C15.0469 35.4138 15 35.1482 15 34.9998C15 34.8513 15.0391 34.6013 15.0859 34.4529C15.1406 34.3045 15.2422 34.0857 15.3281 33.9607C15.4609 33.7576 15.4609 33.742 15.3281 33.531C15.2422 33.4138 15.1406 33.1951 15.0859 33.0466C15.0391 32.8982 15 32.6326 15 32.1482L10.9766 36.1638L6.99219 37.6873C4.79687 38.531 2.94531 39.2498 2.86719 39.2966C2.79688 39.3357 2.53906 39.3748 2.30469 39.3748C2.01562 39.3748 1.77344 39.3201 1.57813 39.2185C1.42188 39.1248 1.17969 38.9373 1.05469 38.7966C0.921875 38.656 0.773438 38.3669 0.710938 38.156C0.648438 37.9451 0.617187 37.6482 0.640625 37.4998C0.664062 37.3513 1.39062 35.3826 3.83594 29.0232L9.39062 23.4763L9.19531 22.8513C9.08594 22.5076 8.95313 22.0154 8.89844 21.7576C8.84375 21.4998 8.79687 20.781 8.79687 20.156C8.78906 19.531 8.8125 18.8201 8.90625 18.1248H6.42187C4.46875 18.1248 3.85156 18.1013 3.49219 18.0076C3.25 17.9451 2.85938 17.7966 2.63281 17.6795C2.41406 17.5701 2.03125 17.2888 1.79688 17.0701C1.5625 16.8435 1.25781 16.4529 1.11719 16.2029C0.984375 15.9451 0.8125 15.531 0.75 15.2732C0.679688 15.0154 0.625 14.6091 0.625 14.3748C0.625 14.1404 0.679688 13.7341 0.75 13.4763C0.8125 13.2185 0.984375 12.8045 1.11719 12.5466C1.25781 12.2966 1.5625 11.906 1.79688 11.6795C2.04688 11.4373 2.44531 11.1638 3.28125 10.781L3.21875 10.4451C3.1875 10.2654 3.16406 9.72633 3.17187 9.25758C3.17187 8.72633 3.21875 8.21851 3.29688 7.92945C3.36719 7.67164 3.5 7.26539 3.58594 7.03101C3.67188 6.79664 3.92188 6.32789 4.14062 5.99195C4.35156 5.66382 4.72656 5.19508 4.96094 4.9607C5.19531 4.72633 5.66406 4.35133 5.99219 4.14039C6.32812 3.92164 6.79688 3.67164 7.03125 3.5857C7.26562 3.49976 7.65625 3.37476 7.89062 3.31226C8.125 3.24976 8.61719 3.17164 8.98438 3.1482C9.39062 3.11695 9.89062 3.14039 10.2734 3.20289C10.6172 3.25758 11.1484 3.38258 11.4453 3.49195C11.7422 3.59351 12.2422 3.82008 12.5391 3.99976C12.8359 4.17945 13.3437 4.57789 13.6641 4.88258C13.9766 5.17945 14.3828 5.6482 14.5625 5.92164C14.8437 6.35914 14.9062 6.41382 15.0781 6.37476C15.1875 6.34351 15.5937 6.30445 15.9766 6.28101C16.4609 6.24976 16.8516 6.2732 17.2266 6.35133C17.5234 6.41383 18 6.57007 18.2812 6.69507C18.5625 6.82789 19.0078 7.09351 19.2734 7.29664C19.5469 7.49195 19.8984 7.82789 20.0547 8.03101C20.2188 8.23414 20.4062 8.48414 20.4688 8.5857C20.5703 8.73414 20.6875 8.7732 21.25 8.8357C21.6172 8.87476 22.2813 8.99976 23.5547 9.30445L27.3438 5.5232C29.8125 3.05445 31.2969 1.62476 31.6016 1.42945C31.8594 1.26539 32.2266 1.07008 32.4219 0.999763C32.6172 0.92945 32.9297 0.820075 33.125 0.757575C33.3281 0.695075 33.8125 0.640388 34.2969 0.632575V0.632575ZM32.3984 2.42164C32.1484 2.57008 31.7109 2.92945 31.4219 3.22632L30.8984 3.74976L36.25 9.10133C37.0703 8.28883 37.4297 7.85133 37.5781 7.60133C37.7266 7.35133 37.9141 6.92164 37.9844 6.64039C38.0547 6.35914 38.1172 5.94507 38.1172 5.71851C38.125 5.49976 38.0859 5.12476 38.0391 4.8982C37.9922 4.67945 37.8516 4.2732 37.7266 3.99976C37.5859 3.69508 37.3203 3.3357 37.0078 3.0232C36.6849 2.68987 36.3542 2.44507 36.0156 2.28882C35.7344 2.15601 35.3203 2.00758 35.0938 1.9607C34.875 1.91383 34.5 1.87476 34.2734 1.88258C34.0547 1.88258 33.6406 1.94507 33.3594 2.01539C33.0781 2.0857 32.6484 2.2732 32.3984 2.42164V2.42164ZM7.10938 4.93726C6.60937 5.18726 6.29687 5.41383 5.85938 5.85914C5.41406 6.29664 5.1875 6.60914 4.9375 7.10914C4.75781 7.47633 4.54688 8.03883 4.48438 8.35914C4.39844 8.75758 4.375 9.16383 4.39844 9.6482C4.42187 10.031 4.46094 10.406 4.48438 10.4685C4.50781 10.5388 4.72656 10.6248 5.01562 10.6873C5.28906 10.7341 5.73438 10.8904 6.01562 11.0232C6.29687 11.156 6.71875 11.4529 6.95312 11.6795C7.1875 11.906 7.49219 12.2966 7.63281 12.5466C7.76562 12.8045 7.9375 13.2185 8 13.4763C8.07031 13.7341 8.125 14.0388 8.125 14.156V14.3748H6.875C6.80469 13.7966 6.67187 13.4216 6.53906 13.1716C6.39844 12.9216 6.17969 12.6248 6.05469 12.5154C5.92187 12.4138 5.64063 12.2341 5.42969 12.1248C5.10156 11.9529 4.9375 11.9216 4.375 11.9216C3.83594 11.9216 3.64062 11.9529 3.32031 12.1091C3.10156 12.2185 2.78906 12.4451 2.61719 12.617C2.44531 12.7888 2.21875 13.1013 2.10938 13.3201C1.96094 13.6404 1.92188 13.8357 1.92188 14.3748C1.91406 14.9841 1.9375 15.0779 2.1875 15.5388C2.33594 15.8123 2.5625 16.1248 2.69531 16.2341C2.82031 16.3357 3.10156 16.5154 3.32031 16.6326L3.71094 16.8357C19.4297 16.8748 21.5234 16.8591 21.7969 16.781C22.0391 16.7185 22.2656 16.5701 22.5391 16.2966C22.7812 16.0545 22.9687 15.7732 23.0312 15.5857C23.0781 15.4138 23.125 15.1482 23.125 14.9998C23.125 14.8513 23.0781 14.5857 23.0312 14.4138C22.9687 14.2263 22.7812 13.9451 22.5391 13.7107C22.3047 13.4685 22.0234 13.281 21.8359 13.2185C21.6641 13.1716 21.3984 13.1248 21.25 13.1248C21.1016 13.1248 20.8359 13.1716 20.6641 13.2185C20.4766 13.281 20.1953 13.4685 19.9609 13.7107C19.7188 13.9451 19.5312 14.2263 19.4687 14.4138C19.4219 14.5857 19.375 14.7888 19.375 14.8591C19.375 14.9841 19.2891 14.9998 18.7266 14.9998H18.0859C18.1797 14.367 18.2969 13.9841 18.4063 13.7498C18.5156 13.5154 18.7187 13.1795 18.8594 13.0076C19 12.8357 19.2734 12.5857 19.4766 12.4607C19.6719 12.3279 19.8594 12.1716 19.8828 12.1091C19.9141 12.0466 19.9531 11.7654 19.9766 11.4841C20 11.1951 19.9766 10.7732 19.9219 10.5076C19.8672 10.2498 19.7031 9.81226 19.5625 9.53101C19.4062 9.21851 19.1328 8.85133 18.8516 8.5857C18.6016 8.34351 18.2109 8.05445 17.9844 7.94507C17.7656 7.82789 17.375 7.67945 17.125 7.61695C16.8828 7.55445 16.4844 7.49976 16.25 7.49976C16.0156 7.49976 15.6094 7.55445 15.3516 7.62476C15.0938 7.68726 14.6797 7.85914 14.4219 7.99195C14.1719 8.13258 13.7813 8.43726 13.5547 8.67164C13.3125 8.92945 13.0391 9.32789 12.8828 9.6482C12.7422 9.94508 12.6172 10.3201 12.6016 10.4685C12.5703 10.7263 12.5859 10.7498 12.9062 10.8748C13.0937 10.9451 13.3906 11.1482 13.5703 11.3279C13.7578 11.4998 13.9922 11.8123 14.1016 12.031C14.2109 12.242 14.3203 12.5779 14.3516 12.7732L14.4141 13.1248H13.1641C13.0156 12.5857 12.8828 12.3669 12.7031 12.2029C12.5391 12.0544 12.2969 11.9294 12.125 11.906C11.9687 11.8826 11.7187 11.8826 11.5781 11.906C11.4453 11.9294 11.2031 12.0701 11.0469 12.2029C10.8672 12.3669 10.7344 12.5857 10.6719 12.7966L10.5859 13.1248H9.33594C9.42969 12.5779 9.53906 12.242 9.64844 12.031C9.75781 11.8123 9.96875 11.5154 10.1172 11.367C10.2656 11.2185 10.5937 10.9998 10.8359 10.8748L11.2734 10.6638C11.4375 9.87476 11.6094 9.3982 11.7578 9.10133C11.9062 8.79664 12.1875 8.35132 12.3828 8.10132C12.5781 7.85914 12.9609 7.49195 13.2344 7.28101L13.7422 6.91383C13.2344 6.20289 12.9219 5.85132 12.7188 5.67164C12.5156 5.49195 12.1641 5.23414 11.9375 5.10133C11.7109 4.9607 11.2578 4.74976 10.9375 4.64039C10.5 4.48414 10.1562 4.42945 9.57031 4.40601C9.07031 4.39039 8.60937 4.41383 8.28125 4.49195C8 4.55445 7.47656 4.75758 7.10938 4.93726V4.93726ZM29.0234 5.62476L34.375 10.9763L35.3516 9.99976C31.2344 5.88257 30.0234 4.68726 30 4.68726C29.9766 4.68726 29.7422 4.8982 29.4922 5.15601L29.0234 5.62476ZM24.8828 9.89039C24.9219 9.90601 25.2422 10.0779 25.5859 10.2732C25.9297 10.4685 26.4922 10.8513 26.8359 11.1248L27.4609 11.6248L30.3516 8.74976C28.6562 7.05445 28.1406 6.56226 28.125 6.56226C28.1016 6.56226 27.3438 7.30445 26.4453 8.2107C25.5391 9.11695 24.8359 9.87476 24.8828 9.89039V9.89039ZM28.375 12.5388C29.1484 13.5076 29.5312 14.0701 29.7266 14.4138C29.9141 14.7576 30.0859 15.0701 30.1094 15.117C30.125 15.156 30.8906 14.4451 31.8047 13.531L33.4766 11.8748C31.7812 10.1794 31.2656 9.68726 31.25 9.68726C31.2266 9.68726 30.5703 10.3279 29.7891 11.1091L28.375 12.5388ZM21.1641 10.3279C21.1875 10.4685 21.2109 10.8748 21.2109 11.2263V11.8591C21.8906 11.9373 22.2969 12.0623 22.6172 12.2185C22.9609 12.3904 23.2969 12.6326 23.5078 12.8669C23.7031 13.0779 23.9687 13.4763 24.0937 13.7498C24.3125 14.2107 24.3359 14.3357 24.3359 15.0076C24.3359 15.7107 24.3203 15.7888 24.0469 16.3357C23.8672 16.7107 23.6328 17.0388 23.3828 17.2654C23.1797 17.4529 22.7812 17.7185 22.5 17.8513L21.9922 18.0857L18.125 18.1248C18.125 20.2029 18.1328 20.242 18.3203 20.4295L18.5156 20.6248C23.1797 20.6326 24.1172 20.656 24.3359 20.7263C24.5234 20.781 24.8047 20.9685 25.0391 21.2107C25.2812 21.4529 25.4687 21.7263 25.5312 21.9138C25.5781 22.0857 25.625 22.3513 25.625 22.4998C25.625 22.656 25.5781 22.9138 25.5312 23.0857C25.4687 23.281 25.2812 23.5545 25.0391 23.7966C24.8047 24.031 24.5234 24.2263 24.3359 24.281C24.1172 24.3513 23.0391 24.3748 20.6406 24.3748H17.2578C16.9453 24.6951 16.875 24.8591 16.875 24.9998C16.875 25.1482 16.9453 25.3123 17.0703 25.4295C17.2578 25.617 17.3125 25.6248 18.1406 25.6326C18.625 25.6326 19.1641 25.6716 19.3359 25.7263C19.5234 25.781 19.8047 25.9685 20.0391 26.2107C20.2812 26.4529 20.4687 26.7263 20.5312 26.9138C20.5859 27.117 20.625 27.8357 20.625 28.9294V30.6248H23.5156C23.7344 30.1091 23.9687 29.7029 24.1719 29.3748C24.3828 29.0545 24.6953 28.617 24.8672 28.3982C25.0469 28.1873 25.8984 27.2888 26.7578 26.406C27.8125 25.3279 28.4688 24.5935 28.7656 24.1404C29.0078 23.781 29.2969 23.2498 29.4141 22.9685C29.5312 22.6951 29.6953 22.2029 29.7734 21.8748C29.8594 21.5545 29.9453 20.8904 29.9766 20.3904C30.0078 19.7576 29.9844 19.242 29.8906 18.6326C29.8203 18.1638 29.6641 17.4451 29.5312 17.031C29.4062 16.6248 29.1328 15.9607 28.9297 15.5466C28.7187 15.1404 28.375 14.5623 28.1641 14.2654C27.9453 13.9685 27.5078 13.4451 27.1875 13.1013C26.8672 12.7654 26.3516 12.2966 26.0547 12.0779C25.75 11.8513 25.2578 11.5232 24.9609 11.3435C24.6562 11.1716 24.1172 10.8982 23.75 10.7576C23.3828 10.6091 22.8047 10.4138 22.4609 10.3279C22.1172 10.2419 21.6719 10.1482 21.4766 10.117L21.1172 10.0623L21.1641 10.3279ZM10.0781 18.9295C10.0156 19.406 10 20.0545 10.0312 20.5154C10.0547 20.9451 10.1406 21.5545 10.2266 21.8826C10.3047 22.2029 10.4688 22.6951 10.5859 22.9763C10.6953 23.2498 10.9922 23.781 11.2344 24.1482C11.5234 24.5857 12.2031 25.3513 13.2422 26.4138C14.1016 27.2888 14.9531 28.1873 15.1328 28.406C15.3047 28.617 15.6172 29.0545 15.8281 29.3826C16.0313 29.7029 16.2656 30.1169 16.3437 30.2966L16.4844 30.6326H19.375V27.2732C19 26.8904 18.9375 26.8826 18.1094 26.8826C17.625 26.8748 17.0859 26.8357 16.9141 26.781C16.7266 26.7263 16.4531 26.5388 16.2109 26.2966C15.9688 26.0545 15.7813 25.781 15.7266 25.5935C15.6719 25.4216 15.6328 25.156 15.6328 25.0076C15.6328 24.8513 15.6719 24.5935 15.7266 24.4216C15.7813 24.2263 15.9688 23.9529 16.2109 23.7107C16.4531 23.4763 16.7266 23.281 16.9141 23.2263C17.1406 23.1638 18.2109 23.1326 20.6094 23.1326H23.9922C24.3047 22.8123 24.375 22.6482 24.375 22.5076C24.375 22.3591 24.3047 22.1951 24.1797 22.0779L23.9844 21.8826C19.3203 21.8748 18.3828 21.8513 18.1641 21.781C17.9766 21.7263 17.7031 21.5388 17.4609 21.2966C17.2188 21.0545 17.0313 20.781 16.9766 20.5935C16.9219 20.4138 16.875 19.8123 16.875 19.2029V18.1326H10.1719L10.0781 18.9295ZM30.7969 22.8513C30.6797 23.1951 30.5547 23.5388 30.5234 23.6169C30.4844 23.7263 30.5156 23.7498 30.7266 23.7498C30.8672 23.7498 31.1953 23.7888 31.4531 23.8357C31.7109 23.8826 32.2031 24.0545 32.5469 24.2185C33.0078 24.4373 33.3125 24.656 33.7031 25.0545C34.1016 25.4451 34.3203 25.7498 34.5391 26.2107C34.7109 26.5623 34.8828 27.0779 34.9297 27.3826C34.9844 27.7029 35.0078 28.1716 34.9766 28.4998C34.9453 28.8123 34.8437 29.281 34.75 29.5544C34.6484 29.8201 34.4766 30.1951 34.3672 30.3904C34.2578 30.5857 33.9609 30.9529 33.7031 31.2029C33.4531 31.4529 33.0391 31.7732 32.7813 31.9138C32.5234 32.0545 32.1172 32.2341 31.8828 32.3123C31.5703 32.4216 31.2188 32.4607 30.6328 32.4607C30.0391 32.4607 29.6875 32.4216 29.3828 32.3123C29.1406 32.2341 28.7578 32.0701 28.5234 31.9451C28.2813 31.8201 27.9062 31.5466 27.6797 31.3279C27.4531 31.117 27.1328 30.7185 26.9531 30.4529C26.7812 30.1794 26.5703 29.7498 26.4844 29.492C26.3984 29.2341 26.3281 28.9607 26.3359 28.8904C26.3359 28.8123 26.2891 28.7654 26.2344 28.781C26.1797 28.7966 25.9375 29.0623 25.6953 29.3826C25.4453 29.7029 25.0937 30.2498 24.9141 30.6013L24.5781 31.2419C24.9922 32.1482 25.0156 32.2966 24.9844 32.617C24.9375 33.0076 24.9375 33.0154 25.3437 33.4294L25.75 33.8435C26.2891 33.4607 26.6406 33.2966 26.8828 33.2263C27.1719 33.1482 27.4531 33.1248 27.7578 33.156C28.0078 33.1794 28.3594 33.2732 28.5391 33.3591C28.7187 33.4451 29.0156 33.6326 29.1875 33.7732C29.3594 33.9138 29.5937 34.2263 29.7109 34.4607C29.8281 34.6951 29.9531 35.0544 29.9844 35.2576L30.0469 35.6326H31.2188C31.3047 35.0545 31.4297 34.6951 31.5469 34.4607C31.6641 34.2263 31.9063 33.9138 32.0781 33.7732C32.25 33.6326 32.5391 33.4451 32.7187 33.3591C32.8984 33.2732 33.25 33.1794 33.5 33.156C33.8047 33.1248 34.0859 33.1482 34.3828 33.2263C34.6172 33.2966 34.9688 33.4607 35.1641 33.6013L35.5156 33.8435L36.3516 33.0076C35.9687 32.4607 35.7969 32.1091 35.7344 31.8748C35.6484 31.5857 35.625 31.3044 35.6562 30.9998C35.6875 30.7498 35.7734 30.3982 35.8594 30.2185C35.9453 30.031 36.1328 29.742 36.2734 29.5701C36.4219 29.3982 36.7266 29.1638 36.9609 29.0466C37.1953 28.9216 37.5547 28.8044 37.7578 28.7732L38.1328 28.7107V27.5388C37.375 27.3904 36.9922 27.2498 36.8047 27.1248C36.6094 27.0076 36.3203 26.7341 36.1641 26.5232C36 26.3123 35.8203 25.9373 35.75 25.7029C35.6875 25.4685 35.6328 25.1482 35.6328 24.9998C35.6328 24.8513 35.6797 24.5545 35.7422 24.3357C35.8047 24.1248 35.9688 23.7888 36.1016 23.5935L36.3516 23.242L35.5156 22.406C34.9688 22.7888 34.6172 22.9529 34.3828 23.0232C34.0938 23.1013 33.8047 23.1326 33.5234 23.1013C33.2813 23.0779 32.9688 23.0076 32.8203 22.9451C32.6641 22.8748 32.3906 22.7185 32.2109 22.5857C32.0312 22.4529 31.7734 22.1794 31.6406 21.9763C31.5156 21.7732 31.3906 21.4919 31.375 21.3513C31.3594 21.2107 31.3125 21.0935 31.2734 21.0935C31.2344 21.0935 31.1641 21.3513 31.1094 21.6638C31.0547 21.9763 30.9141 22.5076 30.7969 22.8513V22.8513ZM5.28125 29.3748L7.50781 31.6013L12.0781 27.0466C11.0313 25.9138 10.5703 25.3748 10.375 25.1091L10.0156 24.6248L5.28125 29.3748ZM29.1875 25.6795C28.9297 25.9763 28.4531 26.4841 28.1328 26.8201L27.5469 27.4373C27.5469 28.8279 27.5625 28.9138 27.8281 29.4607C28.0156 29.8357 28.25 30.1638 28.4922 30.3904C28.7031 30.5779 29.1016 30.8435 29.3828 30.9763C29.8359 31.1873 29.9688 31.2107 30.6328 31.2107C31.2969 31.2107 31.4297 31.1873 31.8828 30.9763C32.1563 30.8435 32.5547 30.5779 32.7656 30.3904C33.0078 30.1638 33.2422 29.8357 33.4297 29.4607C33.7031 28.9138 33.7188 28.8279 33.7188 28.1248C33.7188 27.4216 33.7031 27.3435 33.4297 26.7966C33.2422 26.4138 33.0078 26.0857 32.7656 25.867C32.5547 25.6716 32.1563 25.4138 31.8828 25.281C31.4922 25.1091 31.2344 25.0466 30.7891 25.031C30.4609 25.0154 30.0781 25.0388 29.9297 25.0779C29.7344 25.1326 29.5156 25.3123 29.1875 25.6795ZM8.40625 32.4998L10.6328 34.7263L15 30.3513C14.4297 29.5076 13.9922 28.9685 13.6563 28.6169C13.3281 28.2576 13.0234 27.9685 12.9922 27.9685C12.9609 27.9685 11.9141 28.992 10.6719 30.2341L8.40625 32.4998ZM3.78906 32.656L3.03125 34.6482L5.35937 36.9685C8.44531 35.7966 9.36719 35.4295 9.39844 35.406C9.42969 35.3748 8.36719 34.2654 7.04687 32.9295C5.71875 31.6013 4.61719 30.5466 4.59375 30.5857C4.57031 30.6326 4.21094 31.5623 3.78906 32.656V32.656ZM16.4531 32.0701C16.3359 32.1795 16.2578 32.3513 16.2578 32.4998C16.2578 32.6482 16.3281 32.8045 16.4531 32.9295L16.6484 33.1248H23.375C23.6797 32.8123 23.7578 32.6404 23.7578 32.4998C23.7578 32.3513 23.6797 32.1951 23.5625 32.0701L23.3672 31.8748H16.6406L16.4531 32.0701ZM16.4531 34.5701C16.3359 34.6873 16.2578 34.8591 16.2578 34.9998C16.2578 35.156 16.3281 35.3045 16.4531 35.4373L16.6484 35.6326H23.375C23.6797 35.3123 23.7578 35.1482 23.7578 35.0076C23.7578 34.8591 23.6797 34.6951 23.5625 34.5779L23.3672 34.3826H16.6406L16.4531 34.5701ZM2.21094 36.7732C2.03125 37.2341 1.88281 37.6716 1.875 37.7341C1.875 37.7966 1.9375 37.9138 2.01562 37.9841C2.09375 38.0623 2.21094 38.1248 2.27344 38.1248C2.33594 38.1248 2.75781 37.9841 3.21094 37.8044C3.66406 37.6326 4.03906 37.4841 4.04687 37.4763C4.05469 37.4685 3.71875 37.117 3.30469 36.6951L2.54687 35.9294L2.21094 36.7732ZM17.9531 37.0935C18.0391 37.2107 18.2266 37.406 18.3672 37.531C18.5156 37.656 18.7969 37.8279 18.9844 37.9216C19.25 38.0388 19.5 38.0779 20 38.0779C20.5078 38.0779 20.75 38.0388 21.0156 37.9216C21.2109 37.8279 21.4922 37.656 21.6328 37.531C21.7812 37.406 21.9609 37.2107 22.0469 37.0935L22.1875 36.8748H17.7969L17.9531 37.0935ZM30.5859 26.2576C30.7578 26.2576 31.0781 26.3123 31.2891 26.3904C31.5443 26.4841 31.7786 26.6482 31.9922 26.8826C32.1641 27.0779 32.3516 27.3748 32.4062 27.5466C32.4609 27.7185 32.5 27.9763 32.5 28.1326C32.5 28.281 32.4609 28.5466 32.4062 28.7185C32.3516 28.906 32.1641 29.1795 31.9219 29.4216C31.6797 29.6638 31.4062 29.8513 31.2109 29.906C31.0391 29.9607 30.7812 29.9998 30.625 29.9998C30.4766 29.9998 30.2109 29.9607 30.0391 29.906C29.8516 29.8513 29.5781 29.6638 29.3359 29.4216C29.0938 29.1795 28.9062 28.906 28.8516 28.7185C28.7969 28.5466 28.7578 28.281 28.7578 28.1326C28.7578 27.9763 28.7969 27.7185 28.8516 27.5466C28.9062 27.3513 29.0938 27.0779 29.3359 26.8357C29.5547 26.617 29.8516 26.406 30 26.3591C30.1562 26.3123 30.4141 26.2654 30.5859 26.2576V26.2576ZM30.0078 28.1248C30.0078 28.281 30.0703 28.4295 30.1953 28.5623C30.3203 28.6795 30.4844 28.7576 30.6328 28.7576C30.7813 28.7576 30.9375 28.6795 31.0625 28.5623C31.1797 28.4373 31.25 28.2732 31.25 28.1326C31.25 27.9841 31.1797 27.8201 31.0547 27.7029C30.9375 27.5779 30.7734 27.5076 30.625 27.5076C30.4766 27.5076 30.3203 27.5779 30.1953 27.6951C30.0859 27.8123 30.0078 27.9841 30.0078 28.1248Z" fill="#617792"/>
</g>
<defs>
<clipPath id="clip0_1599_3539">
<rect width="40" height="40" fill="white"/>
</clipPath>
</defs>
</svg>
