<svg width="70" height="70" viewBox="0 0 70 70" fill="none" xmlns="http://www.w3.org/2000/svg">
<g clip-path="url(#clip0_1599_218)">
<mask id="mask0_1599_218" style="mask-type:luminance" maskUnits="userSpaceOnUse" x="0" y="0" width="70" height="70">
<path d="M0 7.62939e-06H70V70H0V7.62939e-06Z" fill="white"/>
</mask>
<g mask="url(#mask0_1599_218)">
<path d="M18.4546 56.8371H9.93629C9.53365 56.8371 9.20703 57.1636 9.20703 57.5664V68.9724H19.1838V57.5664C19.1838 57.1636 18.8572 56.8371 18.4546 56.8371Z" stroke="#617792" stroke-width="2" stroke-miterlimit="10" stroke-linecap="round" stroke-linejoin="round"/>
<path d="M28.4349 51.9654H19.9168C19.514 51.9654 19.1875 52.2919 19.1875 52.6947V68.9724H29.1643V52.6947C29.1643 52.2919 28.8377 51.9654 28.4349 51.9654Z" stroke="#617792" stroke-width="2" stroke-miterlimit="10" stroke-linecap="round" stroke-linejoin="round"/>
<path d="M38.4116 44.6579H29.8933C29.4905 44.6579 29.1641 44.9844 29.1641 45.3872V68.9724H39.1407V45.3871C39.1407 44.9844 38.8142 44.6579 38.4116 44.6579Z" stroke="#617792" stroke-width="2" stroke-miterlimit="10" stroke-linecap="round" stroke-linejoin="round"/>
<path d="M48.3881 34.9145H39.87C39.4672 34.9145 39.1406 35.2412 39.1406 35.6438V68.9724H49.1174V35.6438C49.1174 35.241 48.7909 34.9145 48.3881 34.9145Z" stroke="#617792" stroke-width="2" stroke-miterlimit="10" stroke-linecap="round" stroke-linejoin="round"/>
<path d="M7.37109 68.9724H60.9302" stroke="#617792" stroke-width="2" stroke-miterlimit="10" stroke-linecap="round" stroke-linejoin="round"/>
</g>
<path d="M54.1193 13.8447C54.0167 13.8447 53.9287 13.8154 53.8553 13.7567C53.782 13.7054 53.7453 13.643 53.7453 13.5697V13.2617C53.298 13.2544 52.8983 13.181 52.5463 13.0417C52.1943 12.895 51.9157 12.719 51.7103 12.5137C51.505 12.3084 51.4023 12.103 51.4023 11.8977C51.4023 11.795 51.4317 11.685 51.4903 11.5677C51.549 11.443 51.626 11.3404 51.7213 11.2597C51.8167 11.1717 51.9193 11.1277 52.0293 11.1277C52.132 11.1277 52.2347 11.1644 52.3373 11.2377C52.44 11.311 52.5537 11.399 52.6783 11.5017C52.803 11.6044 52.9497 11.6997 53.1183 11.7877C53.2943 11.8684 53.5033 11.9234 53.7453 11.9527V9.76371C53.496 9.66837 53.243 9.56571 52.9863 9.45571C52.737 9.34571 52.506 9.21004 52.2933 9.04871C52.088 8.88737 51.9193 8.68571 51.7873 8.44371C51.6627 8.20171 51.6003 7.90471 51.6003 7.55271C51.6003 7.20071 51.659 6.90004 51.7763 6.65071C51.8937 6.39404 52.0513 6.18137 52.2493 6.01271C52.4547 5.84404 52.6857 5.71204 52.9423 5.61671C53.199 5.51404 53.4667 5.44437 53.7453 5.40771V5.09971C53.7453 5.02637 53.782 4.96404 53.8553 4.91271C53.9287 4.85404 54.0167 4.82471 54.1193 4.82471C54.2073 4.82471 54.288 4.85404 54.3613 4.91271C54.442 4.96404 54.4823 5.02637 54.4823 5.09971V5.38571C54.6657 5.39304 54.8637 5.41504 55.0763 5.45171C55.2963 5.48104 55.5017 5.52871 55.6923 5.59471C55.8903 5.66071 56.0517 5.74871 56.1763 5.85871C56.3083 5.96137 56.3743 6.09337 56.3743 6.25471C56.3743 6.33537 56.3523 6.43804 56.3083 6.56271C56.2643 6.68004 56.202 6.78637 56.1213 6.88171C56.0407 6.96971 55.9307 7.01371 55.7913 7.01371C55.6887 7.01371 55.5823 6.98437 55.4723 6.92571C55.3697 6.86704 55.2413 6.80471 55.0873 6.73871C54.9407 6.66537 54.739 6.62137 54.4823 6.60671V8.54271C54.7317 8.63071 54.9773 8.73337 55.2193 8.85071C55.4687 8.96804 55.6923 9.11471 55.8903 9.29071C56.0957 9.46671 56.2607 9.68671 56.3853 9.95071C56.51 10.2074 56.5723 10.5227 56.5723 10.8967C56.5723 11.5714 56.378 12.1067 55.9893 12.5027C55.608 12.8914 55.1057 13.1334 54.4823 13.2287V13.5697C54.4823 13.643 54.442 13.7054 54.3613 13.7567C54.288 13.8154 54.2073 13.8447 54.1193 13.8447ZM54.4053 11.9417C54.6473 11.8904 54.8417 11.7914 54.9883 11.6447C55.1423 11.498 55.2193 11.2964 55.2193 11.0397C55.2193 10.8564 55.1827 10.706 55.1093 10.5887C55.0433 10.464 54.948 10.3577 54.8233 10.2697C54.6987 10.1744 54.5593 10.0937 54.4053 10.0277V11.9417ZM53.8333 8.30071V6.63971C53.65 6.66171 53.4923 6.70937 53.3603 6.78271C53.2283 6.84871 53.1257 6.93671 53.0523 7.04671C52.9863 7.14937 52.9533 7.27037 52.9533 7.40971C52.9533 7.56371 52.99 7.69571 53.0633 7.80571C53.1367 7.91571 53.2393 8.01104 53.3713 8.09171C53.5107 8.16504 53.6647 8.23471 53.8333 8.30071Z" fill="#617792"/>
<mask id="mask1_1599_218" style="mask-type:luminance" maskUnits="userSpaceOnUse" x="0" y="0" width="70" height="70">
<path d="M0 7.62939e-06H70V70H0V7.62939e-06Z" fill="white"/>
</mask>
<g mask="url(#mask1_1599_218)">
<path d="M41.1383 7.41087L37.4454 2.21446C37.33 2.05218 37.089 2.05218 36.9736 2.21446L33.2806 7.41087C33.1444 7.60255 33.2814 7.86792 33.5165 7.86792H40.9024C41.1375 7.86792 41.2745 7.60255 41.1383 7.41087Z" stroke="#617792" stroke-width="2" stroke-miterlimit="10" stroke-linecap="round" stroke-linejoin="round"/>
<path d="M37.2109 7.86791V17.0156" stroke="#617792" stroke-width="2" stroke-miterlimit="10" stroke-linecap="round" stroke-linejoin="round"/>
<path d="M56.4935 17.7383C60.0376 16.7039 62.6277 13.4325 62.6277 9.5543C62.6277 4.84502 58.8101 1.02742 54.101 1.02742C49.3918 1.02742 45.5742 4.84502 45.5742 9.5543C45.5742 13.4325 48.1642 16.7039 51.7084 17.7383" stroke="#617792" stroke-width="2" stroke-miterlimit="10" stroke-linecap="round" stroke-linejoin="round"/>
<path d="M59.0901 44.6169V23.4645C59.0901 23.0617 58.7634 22.7352 58.3607 22.7352H49.8425C49.4399 22.7352 49.1133 23.0617 49.1133 23.4645V68.9724H59.0901V49.4021" stroke="#617792" stroke-width="2" stroke-miterlimit="10" stroke-linecap="round" stroke-linejoin="round"/>
</g>
</g>
<defs>
<clipPath id="clip0_1599_218">
<rect width="70" height="70" fill="white"/>
</clipPath>
</defs>
</svg>
