<svg width="70" height="70" viewBox="0 0 70 70" fill="none" xmlns="http://www.w3.org/2000/svg">
<path d="M33.9062 19.6875C33.9062 11.8475 27.5275 5.46875 19.6875 5.46875C11.8475 5.46875 5.46875 11.8475 5.46875 19.6875C5.46875 27.5275 11.8475 33.9062 19.6875 33.9062C27.5275 33.9062 33.9062 27.5275 33.9062 19.6875ZM19.6875 20.7812C20.6992 20.7812 21.6705 20.9606 22.5783 21.2789C22.0205 22.3311 20.9202 23.0377 19.6875 23.0377C18.4548 23.0377 17.3545 22.3311 16.7967 21.2789C17.7045 20.9606 18.6758 20.7812 19.6875 20.7812ZM16.4062 15.3125C16.4062 13.5034 17.8784 12.0312 19.6875 12.0312C21.4966 12.0312 22.9688 13.5034 22.9688 15.3125C22.9688 17.1216 21.4966 18.5938 19.6875 18.5938C17.8784 18.5938 16.4062 17.1216 16.4062 15.3125ZM20.7812 31.663V25.1016C22.3978 24.7658 23.7738 23.7059 24.5284 22.2491C26.4863 23.5506 27.8906 25.6222 28.3019 28.0689C26.3539 30.0705 23.7202 31.3972 20.7812 31.663ZM19.6875 7.65625C26.3211 7.65625 31.7188 13.0539 31.7188 19.6875C31.7188 21.9527 31.0778 24.0658 29.9852 25.877C28.8958 22.7916 26.4819 20.3744 23.4467 19.2653C24.4945 18.2678 25.1562 16.8689 25.1562 15.3125C25.1562 12.297 22.703 9.84375 19.6875 9.84375C16.672 9.84375 14.2188 12.297 14.2188 15.3125C14.2188 16.8689 14.8805 18.2678 15.9283 19.2642C12.8931 20.3744 10.4803 22.7905 9.38984 25.8759C8.29719 24.0658 7.65625 21.9527 7.65625 19.6875C7.65625 13.0539 13.0539 7.65625 19.6875 7.65625ZM11.0731 28.0689C11.4844 25.6233 12.8888 23.5517 14.8466 22.2491C15.6013 23.7059 16.9772 24.7658 18.5938 25.1016V31.663C15.6548 31.3972 13.0211 30.0705 11.0731 28.0689Z" fill="#617792"/>
<path d="M54.6875 1.09375H56.875V5.46875H54.6875V1.09375Z" fill="#617792"/>
<path d="M42.9717 6.2469L44.5185 4.70011L47.8 7.98163L46.2532 9.52843L42.9717 6.2469Z" fill="#617792"/>
<path d="M63.7507 7.98278L67.0323 4.70126L68.5791 6.24805L65.2975 9.52958L63.7507 7.98278Z" fill="#617792"/>
<path d="M60.1562 36.0938V66.7188H57.9688V40.4688H49.2188V66.7188H47.0312V51.4062H38.2812V66.7188H36.0938V49.2188H27.3438V66.7188H24.0341C24.7286 65.8022 25.1562 64.6734 25.1562 63.4375V45.9375C25.1562 44.7727 24.5416 43.7533 23.6239 43.1714C23.8952 42.6934 24.0625 42.1498 24.0625 41.5625V37.7398C26.7706 37.0836 29.2513 35.8455 31.3534 34.1458L37.1613 40.5344C36.4984 41.4389 36.0938 42.5447 36.0938 43.75C36.0938 46.7655 38.547 49.2188 41.5625 49.2188C44.578 49.2188 47.0312 46.7655 47.0312 43.75C47.0312 42.5655 46.643 41.475 45.9998 40.5781L52.7767 33.2806C53.3159 33.67 53.9733 33.9062 54.6875 33.9062H56.875C58.6841 33.9062 60.1562 32.4341 60.1562 30.625V27.5713C60.1562 26.8395 60.5172 26.1527 61.098 25.7786C63.933 23.9575 65.625 20.8622 65.625 17.5C65.625 14.7 64.4262 12.0236 62.3372 10.1566C60.2492 8.29172 57.4438 7.40141 54.6383 7.72078C50.2075 8.22172 46.5828 11.7928 46.0195 16.2116C45.5306 20.0484 47.2423 23.7202 50.4864 25.7939C51.0541 26.1559 51.4052 26.8548 51.4052 27.6172V30.625C51.4052 30.9017 51.45 31.1664 51.5145 31.4234L44.3909 39.0939C43.5641 38.5886 42.6016 38.2812 41.5625 38.2812C40.5442 38.2812 39.6003 38.5798 38.7833 39.0666L32.9711 32.6736C36.2502 29.3191 38.2812 24.7384 38.2812 19.6875C38.2812 9.43469 29.9403 1.09375 19.6875 1.09375C9.43469 1.09375 1.09375 9.43469 1.09375 19.6875C1.09375 28.4309 7.16734 35.7645 15.3125 37.7398V41.5625C15.3125 42.1498 15.4798 42.6934 15.7511 43.1714C14.8334 43.7533 14.2188 44.7727 14.2188 45.9375V63.4375C14.2188 66.453 16.672 68.9062 19.6875 68.9062H68.9062V36.0938H60.1562ZM51.4062 42.6562H55.7812V66.7188H51.4062V42.6562ZM40.4688 53.5938H44.8438V66.7188H40.4688V53.5938ZM29.5312 51.4062H33.9062V66.7188H29.5312V51.4062ZM56.875 31.7188H54.6875C54.0848 31.7188 53.5938 31.2277 53.5938 30.625V29.5312H57.9688V30.625C57.9688 31.2277 57.4777 31.7188 56.875 31.7188ZM54.6875 17.5C54.6875 16.8973 55.1786 16.4062 55.7812 16.4062C56.3839 16.4062 56.875 16.8973 56.875 17.5C56.875 18.1027 56.3839 18.5938 55.7812 18.5938C55.1786 18.5938 54.6875 18.1027 54.6875 17.5ZM48.1906 16.4883C48.6281 13.0572 51.4434 10.2834 54.8844 9.89406C55.1884 9.86016 55.4903 9.84375 55.7911 9.84375C57.6778 9.84375 59.4584 10.5186 60.8792 11.7884C62.5045 13.2398 63.4375 15.3223 63.4375 17.5C63.4375 20.1141 62.1206 22.5214 59.9156 23.9389C58.7595 24.6827 58.0541 25.9438 57.983 27.3438H56.875V20.58C58.1448 20.1272 59.0625 18.9241 59.0625 17.5C59.0625 15.6909 57.5903 14.2188 55.7812 14.2188C53.9722 14.2188 52.5 15.6909 52.5 17.5C52.5 18.9241 53.4177 20.1272 54.6875 20.58V27.3438H53.5773C53.4964 25.9317 52.7997 24.6761 51.6655 23.9509C49.14 22.3377 47.8089 19.4786 48.1906 16.4883ZM44.8438 43.75C44.8438 45.5591 43.3716 47.0312 41.5625 47.0312C39.7534 47.0312 38.2812 45.5591 38.2812 43.75C38.2812 41.9409 39.7534 40.4688 41.5625 40.4688C43.3716 40.4688 44.8438 41.9409 44.8438 43.75ZM3.28125 19.6875C3.28125 10.6411 10.6411 3.28125 19.6875 3.28125C28.7339 3.28125 36.0938 10.6411 36.0938 19.6875C36.0938 28.7339 28.7339 36.0938 19.6875 36.0938C10.6411 36.0938 3.28125 28.7339 3.28125 19.6875ZM19.6875 38.2812C20.4291 38.2812 21.1564 38.2255 21.875 38.1413V41.5625C21.875 42.1652 21.3839 42.6562 20.7812 42.6562H18.5938C17.9911 42.6562 17.5 42.1652 17.5 41.5625V38.1413C18.2186 38.2255 18.9459 38.2812 19.6875 38.2812ZM16.4062 63.4375V45.9375C16.4062 45.3348 16.8973 44.8438 17.5 44.8438H18.5938H20.7812H21.875C22.4777 44.8438 22.9688 45.3348 22.9688 45.9375V63.4375C22.9688 65.2466 21.4966 66.7188 19.6875 66.7188C17.8784 66.7188 16.4062 65.2466 16.4062 63.4375ZM66.7188 66.7188H62.3438V38.2812H66.7188V66.7188Z" fill="#617792"/>
</svg>
