<svg width="70" height="70" viewBox="0 0 70 70" fill="none" xmlns="http://www.w3.org/2000/svg">
<path d="M33.9062 19.6875H30.8908L33.0236 17.5547L28.3828 12.915L26.25 15.0478V12.0312H19.6875V15.0478L17.5547 12.915L12.9139 17.5547L15.0467 19.6875H12.0312V26.25H15.0467L12.9139 28.3817L17.5547 33.0225L19.6875 30.8897V33.9062H26.25V30.8897L28.3828 33.0225L33.0236 28.3817L30.8908 26.25H33.9062V19.6875ZM31.7188 24.0625H30.8908C30.0027 24.0625 29.2097 24.5919 28.8695 25.4122C28.5294 26.2325 28.7153 27.1677 29.3442 27.7966L29.9305 28.3817L28.3828 29.9294L27.7966 29.3431C27.1687 28.7153 26.2336 28.5283 25.4133 28.8684C24.593 29.2086 24.0625 30.0027 24.0625 30.8897V31.7188H21.875V30.8897C21.875 30.0016 21.3445 29.2086 20.5242 28.8684C19.705 28.5261 18.7677 28.7142 18.1409 29.3431L17.5547 29.9294L16.007 28.3817L16.5933 27.7966C17.2211 27.1687 17.407 26.2325 17.068 25.4122C16.7289 24.5919 15.9348 24.0625 15.0467 24.0625H14.2188V21.875H15.0467C15.9348 21.875 16.7278 21.3456 17.068 20.5253C17.4081 19.705 17.2222 18.7698 16.5933 18.1409L16.007 17.5547L17.5547 16.0081L18.1409 16.5944C18.7688 17.2222 19.7061 17.4114 20.5242 17.0691C21.3445 16.7289 21.875 15.9348 21.875 15.0478V14.2188H24.0625V15.0478C24.0625 15.9359 24.593 16.7289 25.4133 17.0691C26.2336 17.4114 27.1687 17.2233 27.7966 16.5944L28.3828 16.0081L29.9305 17.5547L29.3442 18.1409C28.7164 18.7688 28.5305 19.705 28.8695 20.5253C29.2086 21.3456 30.0027 21.875 30.8908 21.875H31.7188V24.0625Z" fill="#617792"/>
<path d="M22.9688 18.5938C20.5559 18.5938 18.5938 20.5559 18.5938 22.9688C18.5938 25.3816 20.5559 27.3438 22.9688 27.3438C25.3816 27.3438 27.3438 25.3816 27.3438 22.9688C27.3438 20.5559 25.3816 18.5938 22.9688 18.5938ZM22.9688 25.1562C21.7623 25.1562 20.7812 24.1752 20.7812 22.9688C20.7812 21.7623 21.7623 20.7812 22.9688 20.7812C24.1752 20.7812 25.1562 21.7623 25.1562 22.9688C25.1562 24.1752 24.1752 25.1562 22.9688 25.1562Z" fill="#617792"/>
<path d="M66.7188 1.09375H55.7812C54.5748 1.09375 53.5938 2.07484 53.5938 3.28125V5.46875H47.0312V16.4062H43.8222C40.9763 7.35328 32.5303 1.09375 22.9688 1.09375C10.9069 1.09375 1.09375 10.9069 1.09375 22.9688C1.09375 32.7447 7.54141 41.0408 16.4062 43.8353V65.625C16.4062 67.4341 17.8784 68.9062 19.6875 68.9062H26.25C28.0591 68.9062 29.5312 67.4341 29.5312 65.625V60.1562H47.0312V64.5312H53.5938V66.7188C53.5938 67.9252 54.5748 68.9062 55.7812 68.9062H66.7188C67.9252 68.9062 68.9062 67.9252 68.9062 66.7188V60.1562C68.9062 58.9498 67.9252 57.9688 66.7188 57.9688H55.7812C54.5748 57.9688 53.5938 58.9498 53.5938 60.1562V62.3438H49.2188V57.9688H29.5312V53.5938H38.2812V49.2188H40.4688V53.5938C40.4688 54.8002 41.4498 55.7812 42.6562 55.7812H53.5938C54.8002 55.7812 55.7812 54.8002 55.7812 53.5938V47.0312C55.7812 45.8248 54.8002 44.8438 53.5938 44.8438H42.6562C41.4498 44.8438 40.4688 45.8248 40.4688 47.0312H36.0938V51.4062H29.5312V43.8342C37.0037 41.5122 42.7722 35.3183 44.3844 27.3438H47.0312V38.2812H53.5938V40.4688C53.5938 41.6752 54.5748 42.6562 55.7812 42.6562H66.7188C67.9252 42.6562 68.9062 41.6752 68.9062 40.4688V33.9062C68.9062 32.6998 67.9252 31.7188 66.7188 31.7188H55.7812C54.5748 31.7188 53.5938 32.6998 53.5938 33.9062V36.0938H49.2188V25.1562H36.0938V27.3438H37.6469C35.7383 33.7553 29.7686 38.2812 22.9688 38.2812C14.525 38.2812 7.65625 31.4125 7.65625 22.9688C7.65625 14.525 14.525 7.65625 22.9688 7.65625C28.9166 7.65625 34.2858 11.1169 36.797 16.4062H36.0938V18.5938H49.2188V7.65625H53.5938V9.84375C53.5938 11.0502 54.5748 12.0312 55.7812 12.0312H66.7188C67.9252 12.0312 68.9062 11.0502 68.9062 9.84375V3.28125C68.9062 2.07484 67.9252 1.09375 66.7188 1.09375ZM55.7812 60.1562H66.7188L66.7198 66.7188H55.7812V60.1562ZM42.6562 47.0312H53.5938L53.5948 53.5938H42.6562V47.0312ZM55.7812 33.9062H66.7188L66.7198 40.4688H55.7812V33.9062ZM26.25 66.7188H19.6875C19.0848 66.7188 18.5938 66.2287 18.5938 65.625V51.4062H27.3438V65.625C27.3438 66.2287 26.8527 66.7188 26.25 66.7188ZM27.3438 49.2188H18.5938V44.403C20.008 44.6906 21.4703 44.8438 22.9688 44.8438C24.4672 44.8438 25.9273 44.6819 27.3438 44.3975V49.2188ZM22.9688 5.46875C13.3197 5.46875 5.46875 13.3197 5.46875 22.9688C5.46875 32.6178 13.3197 40.4688 22.9688 40.4688C30.9553 40.4688 37.9269 34.9967 39.9 27.3438H42.1531C40.1395 36.2873 32.2766 42.6562 22.9688 42.6562C12.1133 42.6562 3.28125 33.8242 3.28125 22.9688C3.28125 12.1133 12.1133 3.28125 22.9688 3.28125C31.3447 3.28125 38.7756 8.61219 41.5286 16.4062H39.1814C36.5214 9.83609 30.1098 5.46875 22.9688 5.46875ZM55.7812 9.84375V3.28125H66.7188L66.7198 9.84375H55.7812Z" fill="#617792"/>
<path d="M57.9688 5.46875H60.1562V7.65625H57.9688V5.46875Z" fill="#617792"/>
<path d="M62.3438 5.46875H64.5312V7.65625H62.3438V5.46875Z" fill="#617792"/>
<path d="M66.7188 16.4062H55.7812C54.5748 16.4062 53.5938 17.3873 53.5938 18.5938V20.7812H36.0938V22.9688H53.5938V25.1562C53.5938 26.3627 54.5748 27.3438 55.7812 27.3438H66.7188C67.9252 27.3438 68.9062 26.3627 68.9062 25.1562V18.5938C68.9062 17.3873 67.9252 16.4062 66.7188 16.4062ZM55.7812 25.1562V18.5938H66.7188L66.7198 25.1562H55.7812Z" fill="#617792"/>
<path d="M57.9688 20.7812H60.1562V22.9688H57.9688V20.7812Z" fill="#617792"/>
<path d="M62.3438 20.7812H64.5312V22.9688H62.3438V20.7812Z" fill="#617792"/>
<path d="M57.9688 36.0938H60.1562V38.2812H57.9688V36.0938Z" fill="#617792"/>
<path d="M62.3438 36.0938H64.5312V38.2812H62.3438V36.0938Z" fill="#617792"/>
<path d="M44.8438 49.2188H47.0312V51.4062H44.8438V49.2188Z" fill="#617792"/>
<path d="M49.2188 49.2188H51.4062V51.4062H49.2188V49.2188Z" fill="#617792"/>
<path d="M57.9688 62.3438H60.1562V64.5312H57.9688V62.3438Z" fill="#617792"/>
<path d="M62.3438 62.3438H64.5312V64.5312H62.3438V62.3438Z" fill="#617792"/>
</svg>
