<svg width="70" height="70" viewBox="0 0 70 70" fill="none" xmlns="http://www.w3.org/2000/svg">
<path d="M29.5312 13.125H40.4688V15.3125H29.5312V13.125Z" fill="#617792"/>
<path d="M29.5312 17.5H40.4688V19.6875H29.5312V17.5Z" fill="#617792"/>
<path d="M62.3438 59.0625V50.3125C62.3438 49.8269 62.0233 49.3992 61.5562 49.2625L36.0938 41.8359V28.4375H43.75C44.3548 28.4375 44.8438 27.9475 44.8438 27.3438V9.84375C44.8438 9.55391 44.7289 9.275 44.5233 9.07047L37.9608 2.50797C37.7563 2.30234 37.4784 2.1875 37.1875 2.1875H26.25C25.6452 2.1875 25.1562 2.6775 25.1562 3.28125V27.3438C25.1562 27.9475 25.6452 28.4375 26.25 28.4375H33.9062V41.8359L8.44375 49.2625C7.97672 49.3992 7.65625 49.8269 7.65625 50.3125V59.0625C7.65625 59.5481 7.97672 59.9758 8.44375 60.1125L34.6937 67.7687C34.7944 67.7983 34.8961 67.8125 35 67.8125C35.1039 67.8125 35.2056 67.7983 35.3062 67.7687L61.5562 60.1125C62.0233 59.9758 62.3438 59.5481 62.3438 59.0625ZM38.2812 5.92156L41.1097 8.75H38.2812V5.92156ZM27.3438 4.375H36.0938V9.84375C36.0938 10.4475 36.5827 10.9375 37.1875 10.9375H42.6562V26.25H27.3438V4.375ZM33.9062 44.1142V49.8597L31.3983 47.3517L29.8517 48.8983L34.2267 53.2733C34.44 53.4866 34.72 53.5938 35 53.5938C35.28 53.5938 35.56 53.4866 35.7733 53.2733L40.1483 48.8983L38.6017 47.3517L36.0938 49.8597V44.1142L57.3442 50.3125L35 56.8291L12.6558 50.3125L33.9062 44.1142ZM9.84375 51.7705L33.9062 58.7891V65.2608L9.84375 58.2422V51.7705ZM36.0938 65.2608V58.7891L60.1562 51.7705V58.2422L36.0938 65.2608Z" fill="#617792"/>
<path d="M29.5312 8.75H33.9062V10.9375H29.5312V8.75Z" fill="#617792"/>
<path d="M3.28125 28.4375H10.9375C10.9375 31.453 13.3908 33.9062 16.4062 33.9062H19.6875C21.4966 33.9062 22.9688 35.3784 22.9688 37.1875V38.9222L20.4608 36.4142L18.9142 37.9608L23.2892 42.3358C23.5025 42.5491 23.7825 42.6562 24.0625 42.6562C24.3425 42.6562 24.6225 42.5491 24.8358 42.3358L29.2108 37.9608L27.6642 36.4142L25.1562 38.9222V37.1875C25.1562 34.172 22.703 31.7188 19.6875 31.7188H16.4062C14.5972 31.7188 13.125 30.2466 13.125 28.4375H20.7812C21.3861 28.4375 21.875 27.9475 21.875 27.3438V9.84375C21.875 9.55391 21.7602 9.275 21.5545 9.07047L14.992 2.50797C14.7875 2.30234 14.5097 2.1875 14.2188 2.1875H3.28125C2.67641 2.1875 2.1875 2.6775 2.1875 3.28125V27.3438C2.1875 27.9475 2.67641 28.4375 3.28125 28.4375ZM15.3125 5.92156L18.1409 8.75H15.3125V5.92156ZM4.375 4.375H13.125V9.84375C13.125 10.4475 13.6139 10.9375 14.2188 10.9375H19.6875V26.25H4.375V4.375Z" fill="#617792"/>
<path d="M6.5625 13.125H17.5V15.3125H6.5625V13.125Z" fill="#617792"/>
<path d="M6.5625 17.5H17.5V19.6875H6.5625V17.5Z" fill="#617792"/>
<path d="M6.5625 21.875H17.5V24.0625H6.5625V21.875Z" fill="#617792"/>
<path d="M6.5625 8.75H10.9375V10.9375H6.5625V8.75Z" fill="#617792"/>
<path d="M67.8126 27.3438V9.84375C67.8126 9.55391 67.6977 9.275 67.4921 9.07047L60.9296 2.50797C60.7251 2.30234 60.4473 2.1875 60.1563 2.1875H49.2188C48.614 2.1875 48.1251 2.6775 48.1251 3.28125V27.3438C48.1251 27.9475 48.614 28.4375 49.2188 28.4375H56.8751C56.8751 30.2466 55.4029 31.7188 53.5938 31.7188H50.3126C47.2971 31.7188 44.8438 34.172 44.8438 37.1875V38.9222L42.3359 36.4142L40.7893 37.9608L45.1643 42.3358C45.3776 42.5491 45.6576 42.6562 45.9376 42.6562C46.2176 42.6562 46.4976 42.5491 46.7109 42.3358L51.0859 37.9608L49.5393 36.4142L47.0313 38.9222V37.1875C47.0313 35.3784 48.5035 33.9062 50.3126 33.9062H53.5938C56.6093 33.9062 59.0626 31.453 59.0626 28.4375H66.7188C67.3237 28.4375 67.8126 27.9475 67.8126 27.3438ZM61.2501 5.92156L64.0785 8.75H61.2501V5.92156ZM50.3126 26.25V4.375H59.0626V9.84375C59.0626 10.4475 59.5515 10.9375 60.1563 10.9375H65.6251V26.25H50.3126Z" fill="#617792"/>
<path d="M52.5 13.125H63.4375V15.3125H52.5V13.125Z" fill="#617792"/>
<path d="M52.5 17.5H63.4375V19.6875H52.5V17.5Z" fill="#617792"/>
<path d="M52.5 21.875H63.4375V24.0625H52.5V21.875Z" fill="#617792"/>
<path d="M52.5 8.75H56.875V10.9375H52.5V8.75Z" fill="#617792"/>
<path d="M29.5312 21.875H31.7188V24.0625H29.5312V21.875Z" fill="#617792"/>
<path d="M33.9062 21.875H36.0938V24.0625H33.9062V21.875Z" fill="#617792"/>
<path d="M38.2812 21.875H40.4688V24.0625H38.2812V21.875Z" fill="#617792"/>
</svg>
