<svg width="71" height="70" viewBox="0 0 71 70" fill="none" xmlns="http://www.w3.org/2000/svg">
<path fill-rule="evenodd" clip-rule="evenodd" d="M33.4536 0.138645C33.0776 0.209339 32.2744 0.506062 31.6686 0.797999C29.5872 1.80139 27.9146 3.97334 27.5149 6.1922C27.2888 7.44746 27.3305 12.7216 27.5747 13.7574C27.9649 15.4129 29.0877 17.1614 30.3796 18.1259L31.0607 18.6345V19.7379V20.8413L27.463 22.0376C25.0069 22.8543 23.651 23.3783 23.1899 23.6893C22.5144 24.1446 21.6179 25.0431 21.1971 25.6865L20.9734 26.0283L20.0982 25.1904C17.7292 22.9224 14.2953 22.4328 11.3129 23.9377C9.63704 24.7833 8.06933 26.7297 7.4886 28.6854C7.17656 29.7367 7.16836 35.9117 7.47752 37.0984C7.89389 38.6966 9.0883 40.425 10.4093 41.3404L10.9705 41.7292L10.9311 42.8238L10.8917 43.9184L7.29101 45.1192C3.41023 46.4134 2.73734 46.7468 1.71809 47.8807C0.521084 49.2118 0.0210307 50.653 0.0210307 52.771C0.0210307 53.8996 0.062189 54.1436 0.30449 54.4515C0.664249 54.9089 1.36285 54.9442 1.74325 54.5242C1.95479 54.2907 2.02015 53.9372 2.09139 52.6441C2.14308 51.7039 2.2645 50.8554 2.3877 50.5729C2.7409 49.763 3.4209 48.9378 4.07902 48.5205C4.61668 48.1794 10.6135 46.0605 11.0408 46.0605C11.1227 46.0605 11.2583 46.2111 11.3422 46.395C11.426 46.579 11.728 46.9886 12.0136 47.3053C13.4992 48.9532 16.2151 48.9532 17.7008 47.3053C17.9863 46.9886 18.2884 46.579 18.3722 46.395C18.456 46.2111 18.5916 46.0605 18.6735 46.0605C19.1039 46.0605 25.0997 48.1808 25.6422 48.5248C25.9915 48.7463 26.4768 49.2102 26.7205 49.5556C27.4921 50.6487 27.514 50.6042 25.9536 51.113C24.132 51.7071 23.1061 52.2339 22.2978 52.99C20.9735 54.2287 20.365 55.5924 20.1886 57.7175L20.0892 58.914H13.9522H7.81513V57.4198C7.81513 55.9685 7.80474 55.9175 7.45482 55.6422C7.04228 55.3176 6.86986 55.2969 6.39264 55.5144C5.92349 55.7281 5.76405 56.2832 5.76405 57.7037V58.914H3.91808H2.07211V58.5873C2.07211 57.7049 0.830797 57.2605 0.276869 57.9446C-0.105316 58.4165 -0.0878133 60.1062 0.30449 60.6047L0.587812 60.965H10.3548H20.1216V64.9216C20.1216 68.9227 20.1778 69.4524 20.6397 69.8034C20.9848 70.0655 49.0674 70.0655 49.4125 69.8034C50.1073 69.2755 50.1073 67.2856 49.4125 66.7577C48.8133 66.3025 47.8795 66.7752 47.8795 67.5338V67.9387H45.9652H44.0509V64.7253C44.0509 61.6943 44.0354 61.4965 43.7774 61.2385C43.3702 60.8313 42.6384 60.8738 42.2832 61.3253C42.0152 61.666 41.9998 61.8562 41.9998 64.8122V67.9387H35.0261H28.0524V64.8122C28.0524 61.8562 28.037 61.666 27.769 61.3253C27.4139 60.8738 26.682 60.8313 26.2748 61.2385C26.0168 61.4965 26.0014 61.6943 26.0014 64.7253V67.9387H24.0773H22.1534L22.2074 62.435C22.2658 56.4964 22.2781 56.3895 23.031 55.2707C23.8004 54.1273 24.3247 53.8434 27.8055 52.6861C29.5582 52.1034 31.0653 51.5997 31.1546 51.567C31.2439 51.5342 31.4385 51.7432 31.5871 52.0315C31.9293 52.6955 32.5971 53.3264 33.3852 53.7302C33.8663 53.9766 34.2244 54.0454 35.0261 54.0454C35.8278 54.0454 36.1859 53.9766 36.667 53.7302C37.4551 53.3264 38.123 52.6955 38.4651 52.0315C38.6137 51.7432 38.8083 51.5342 38.8976 51.567C38.9869 51.5997 40.494 52.1034 42.2467 52.6861C44.5352 53.447 45.595 53.8683 46.007 54.1808C46.6611 54.6768 47.3877 55.6892 47.6201 56.4285C47.7112 56.7181 47.8058 58.2799 47.8433 60.1119L47.9084 63.2925L48.2542 63.5646C48.8578 64.0392 49.5058 63.8424 49.7885 63.0986C49.8666 62.893 49.9306 62.3289 49.9306 61.8449V60.965H59.6974H69.4644L69.7477 60.6047C70.14 60.1062 70.1575 58.4165 69.7754 57.9446C69.2214 57.2605 67.9801 57.7049 67.9801 58.5873V58.914H66.1341H64.2882V57.7037C64.2882 56.2832 64.1287 55.7281 63.6596 55.5144C63.1824 55.2969 63.0099 55.3176 62.5974 55.6422C62.2475 55.9175 62.2371 55.9685 62.2371 57.4198V58.914H56.1H49.963L49.8636 57.7175C49.6872 55.5924 49.0787 54.2287 47.7544 52.99C46.9462 52.2339 45.9202 51.7071 44.0986 51.113C42.5383 50.6042 42.5601 50.6487 43.3318 49.5556C43.5754 49.2102 44.0607 48.7463 44.4101 48.5248C44.9525 48.1808 50.9484 46.0605 51.3787 46.0605C51.4606 46.0605 51.5962 46.2111 51.6801 46.395C51.959 47.0073 52.862 47.8771 53.5542 48.2001C54.504 48.6434 55.8861 48.6434 56.8359 48.2001C57.5281 47.8771 58.4311 47.0073 58.7101 46.395C58.7939 46.2111 58.9221 46.0605 58.995 46.0605C59.4192 46.0605 65.4351 48.1793 65.9649 48.5151C66.6305 48.9372 67.31 49.76 67.6645 50.5729C67.7877 50.8554 67.9091 51.7039 67.9608 52.6441C68.0321 53.9372 68.0974 54.2907 68.309 54.5242C68.6894 54.9442 69.388 54.9089 69.7477 54.4515C69.99 54.1436 70.0312 53.8996 70.0312 52.771C70.0312 50.653 69.5311 49.2118 68.3341 47.8807C67.3149 46.7468 66.642 46.4134 62.7612 45.1192L59.1605 43.9184L59.1211 42.8238L59.0817 41.7292L59.6429 41.3404C60.9639 40.425 62.1583 38.6966 62.5747 37.0984C62.8706 35.9624 62.8747 29.9209 62.5804 28.7909C62.0741 26.8468 60.458 24.8049 58.7393 23.9377C55.7569 22.4328 52.323 22.9224 49.954 25.1904L49.0789 26.0283L48.8552 25.6865C48.4357 25.045 47.5387 24.1452 46.8686 23.6935C46.4178 23.3895 45.0233 22.8491 42.5956 22.0373L38.9917 20.8323L38.9915 19.7333V18.6345L39.6726 18.1259C40.9876 17.1443 42.0926 15.4044 42.4918 13.6877C42.6647 12.9431 42.6961 12.1172 42.6533 9.41458C42.6028 6.23021 42.5831 6.01977 42.2551 5.15928C41.7543 3.84618 41.2898 3.12023 40.3469 2.17728C38.6033 0.433727 35.9923 -0.338436 33.4536 0.138645ZM36.4455 2.23731C38.4018 2.7468 40.0279 4.42731 40.4853 6.41208C40.7172 7.41861 40.6703 12.4933 40.4202 13.4538C39.9959 15.0831 38.9096 16.3908 37.3782 17.1165C36.5298 17.5183 36.3553 17.5505 35.0261 17.5505C33.6969 17.5505 33.5224 17.5183 32.6741 17.1165C31.6659 16.6388 30.7428 15.8023 30.198 14.8725C29.5542 13.7737 29.4198 12.9022 29.4198 9.8248C29.4198 6.06859 29.6333 5.24857 30.9792 3.83551C32.4591 2.28175 34.4176 1.70909 36.4455 2.23731ZM36.9152 20.9006C36.8565 22.3044 36.6878 22.727 36.008 23.1734C35.5304 23.4868 34.5218 23.4868 34.0442 23.1734C33.3645 22.727 33.1957 22.3044 33.1371 20.9006L33.0826 19.6016H35.0261H36.9696L36.9152 20.9006ZM31.7676 23.7038C32.6549 25.036 34.2658 25.7269 35.7611 25.4166C36.974 25.1648 37.8107 24.515 38.6497 23.1735C38.7704 22.9804 39.1547 23.0756 41.9314 23.9864C43.6612 24.5537 45.3295 25.166 45.6388 25.347C46.3027 25.7354 46.9378 26.4273 47.3659 27.2286C47.6439 27.7488 47.6677 27.9413 47.6069 29.1733C47.5697 29.9254 47.5389 31.756 47.5385 33.2413L47.5377 35.9419H45.1262H42.7145L42.6234 35.2924C42.3702 33.4856 41.5123 31.8776 40.112 30.585C35.6174 26.4359 28.2889 29.1559 27.4288 35.2924L27.3377 35.9419H24.9118H22.486L22.5532 33.9593C22.5903 32.8689 22.5446 31.1186 22.4516 30.0696C22.283 28.1664 22.2833 28.1609 22.6175 27.431C23.0151 26.5626 23.6429 25.8149 24.3359 25.3844C24.7908 25.1018 31.0019 22.9502 31.2207 22.9994C31.2711 23.0108 31.5173 23.3277 31.7676 23.7038ZM17.1473 25.602C19.0416 26.5121 20.1435 28.0861 20.4131 30.2672C20.6459 32.1504 20.4965 35.9478 20.1513 36.922C19.595 38.4922 18.409 39.7278 16.8743 40.3358C15.7782 40.7702 13.9458 40.7752 12.8745 40.3468C11.3066 39.7197 10.0128 38.3643 9.5364 36.85C9.33525 36.2104 9.30804 35.6126 9.34482 32.6389C9.38708 29.2231 9.39282 29.1622 9.74793 28.4048C10.3834 27.0496 11.6148 25.9311 13.0504 25.4053C14.1482 25.0032 16.0956 25.0967 17.1473 25.602ZM56.949 25.4048C58.4163 25.9096 59.6254 26.9962 60.3057 28.4212L60.6646 29.1733V32.9336V36.6939L60.259 37.5144C59.7891 38.465 58.7068 39.6128 57.8851 40.032C54.7595 41.6265 51.0594 40.1924 49.9072 36.9399C49.6812 36.302 49.6127 35.6923 49.5566 33.8224C49.4192 29.2333 49.9777 27.5225 52.0873 26.0711C53.4522 25.132 55.3857 24.867 56.949 25.4048ZM36.1475 30.7607C37.8503 31.1169 39.3365 32.3251 40.1285 33.997L40.564 34.9163L40.6093 38.0148C40.6603 41.5134 40.5428 42.2947 39.7727 43.5805C39.2139 44.5135 38.4741 45.1612 37.3507 45.7015C36.529 46.0966 36.3536 46.1289 35.0261 46.1289C33.6987 46.1289 33.5232 46.0966 32.7016 45.7015C31.5781 45.1612 30.8384 44.5135 30.2795 43.5805C29.5094 42.2947 29.3919 41.5134 29.4429 38.0148L29.4882 34.9163L29.9237 33.997C31.0945 31.5256 33.5932 30.2262 36.1475 30.7607ZM27.3708 39.7364C27.3731 41.7367 27.5868 42.844 28.2074 44.0698C28.7453 45.1323 29.4239 45.9596 30.3347 46.663L31.0596 47.2228L31.0601 48.3383L31.0607 49.4538L30.2165 49.7389C29.7522 49.8958 29.3597 50.0091 29.3442 49.9908C29.3286 49.9725 29.1602 49.6472 28.9696 49.2677C28.522 48.3763 27.5476 47.2977 26.6968 46.7517C26.285 46.4876 24.6276 45.8543 22.4233 45.1192L18.8226 43.9184L18.7832 42.8238L18.7438 41.7292L19.305 41.3404C20.1101 40.7824 21.1002 39.6535 21.5658 38.7625L21.9676 37.9936L24.6682 37.9932L27.3688 37.9929L27.3708 39.7364ZM48.4864 38.7625C48.952 39.6535 49.9421 40.7824 50.7472 41.3404L51.3084 41.7292L51.269 42.8238L51.2296 43.9184L47.6289 45.1192C45.4247 45.8543 43.7673 46.4876 43.3554 46.7517C42.5046 47.2977 41.5302 48.3763 41.0827 49.2677C40.8921 49.6472 40.7236 49.9725 40.708 49.9908C40.6926 50.0091 40.3 49.8958 39.8358 49.7389L38.9915 49.4538L38.9921 48.3383L38.9926 47.2228L39.7175 46.663C40.6283 45.9596 41.3069 45.1323 41.8449 44.0698C42.4654 42.844 42.6791 41.7367 42.6814 39.7364L42.6835 37.9929L45.3841 37.9932L48.0846 37.9936L48.4864 38.7625ZM14.8572 42.7722C15.3084 42.7722 15.9084 42.7186 16.1904 42.6531L16.7031 42.5342L16.7026 43.8529C16.702 45.3403 16.49 45.8809 15.7588 46.2589C14.8878 46.7094 13.7715 46.417 13.2792 45.6094C13.0633 45.2554 13.0122 44.9196 13.0117 43.8529L13.0112 42.5342L13.524 42.6531C13.8061 42.7186 14.4059 42.7722 14.8572 42.7722ZM55.1951 42.7722C55.6463 42.7722 56.2463 42.7186 56.5283 42.6531L57.041 42.5342L57.0405 43.8529C57.0399 45.3403 56.8279 45.8809 56.0967 46.2589C55.2257 46.7094 54.1094 46.417 53.6171 45.6094C53.4012 45.2554 53.35 44.9196 53.3496 43.8529L53.3491 42.5342L53.8619 42.6531C54.1439 42.7186 54.7438 42.7722 55.1951 42.7722ZM36.9168 49.491C36.8789 50.4356 36.7978 50.9033 36.6269 51.1642C35.8846 52.2973 34.2794 52.3249 33.468 51.2187C33.2447 50.9142 33.1789 50.5752 33.1361 49.5095L33.0826 48.18H35.0261H36.9696L36.9168 49.491Z" fill="#617792"/>
</svg>
