<svg width="70" height="70" viewBox="0 0 70 70" fill="none" xmlns="http://www.w3.org/2000/svg">
<path fill-rule="evenodd" clip-rule="evenodd" d="M33.9062 1.62969V3.25951L32.9834 3.34441C30.9534 3.53131 29.6646 3.7208 28.1641 4.05289C16.1417 6.7148 6.7148 16.1417 4.05289 28.1641C3.7208 29.6646 3.53131 30.9534 3.34441 32.9834L3.25951 33.9062H1.62969H0V35V36.0938H1.62969H3.25951L3.34441 37.0166C3.53131 39.0466 3.7208 40.3354 4.05289 41.8359C6.7148 53.8583 16.1417 63.2852 28.1641 65.9471C29.6646 66.2792 30.9534 66.4687 32.9834 66.6556L33.9062 66.7405V68.3703V70H35H36.0938V68.3703V66.7405L37.0166 66.6567C45.2919 65.9054 51.7895 62.9377 57.3636 57.3636C62.9377 51.7895 65.9054 45.2919 66.6567 37.0166L66.7405 36.0938H68.3703H70V35V33.9062H68.3703H66.7405L66.6556 32.9834C66.4687 30.9534 66.2792 29.6646 65.9471 28.1641C63.2852 16.1417 53.8583 6.7148 41.8359 4.05289C40.3354 3.7208 39.0466 3.53131 37.0166 3.34441L36.0938 3.25951V1.62969V0H35H33.9062V1.62969ZM1.05437 1.06422C0.700137 1.42406 0.410156 1.77734 0.410156 1.84939C0.410156 1.92145 1.93238 3.50355 3.79285 5.36525L7.17568 8.75H5.77527H4.375V9.84375V10.9375H7.29586H10.2166L10.5771 10.5771L10.9375 10.2166V7.29586V4.375H9.84375H8.75V5.77527V7.17568L5.36525 3.79285C3.50355 1.93238 1.91707 0.410156 1.83955 0.410156C1.76203 0.410156 1.40875 0.704512 1.05437 1.06422ZM64.6334 3.79354L61.25 7.17705V5.77596V4.375H60.1562H59.0625V7.29586V10.2166L59.4229 10.5771L59.7834 10.9375H62.7041H65.625V9.84375V8.75H64.2247H62.8243L66.2071 5.36525C68.0676 3.50355 69.5898 1.91707 69.5898 1.83955C69.5898 1.66223 68.3279 0.410156 68.1492 0.410156C68.0765 0.410156 66.4944 1.93266 64.6334 3.79354ZM37.7541 5.61039C41.1705 5.95219 44.4339 6.84045 47.4972 8.26219C53.5145 11.0551 58.9449 16.4855 61.7378 22.5028C68.8596 37.8473 61.8297 55.808 46.1474 62.3349C40.0857 64.8576 33.1421 65.1983 26.5784 63.295C17.2266 60.5832 9.41678 52.7734 6.70496 43.4216C2.44344 28.7254 9.7233 13.5457 23.8526 7.66514C28.0701 5.9098 33.1874 5.15348 37.7541 5.61039ZM32.7564 11.0821C31.5757 11.2798 30.1792 11.8077 29.0598 12.4794C28.461 12.8386 27.5685 13.2791 27.0763 13.458C22.084 15.2742 17.6963 18.9788 15.0834 23.584C13.7892 25.8651 12.9477 28.1386 12.4146 30.7952C12.1602 32.063 12.1059 32.7794 12.1069 34.8633C12.1075 36.2681 12.1866 37.8789 12.2846 38.4863C13.651 46.9502 19.4601 53.8878 27.5488 56.7157C31.347 58.0435 35.9018 58.3037 39.9219 57.4224C48.2386 55.5991 54.905 49.2681 57.1312 41.0787C58.7759 35.0284 57.9303 28.6727 54.7695 23.3263C52.0989 18.8092 47.9814 15.3753 42.9543 13.4725C42.4039 13.2642 41.5118 12.8248 40.9719 12.4961C39.8471 11.8113 38.4393 11.2868 37.174 11.0816C36.1636 10.9177 33.7366 10.9179 32.7564 11.0821ZM37.666 13.4585C38.1172 13.5833 38.9323 13.9085 39.4775 14.1814L40.4688 14.6774V17.1098C40.4688 19.3674 40.4515 19.5362 40.2295 19.4578C39.8133 19.3108 39.4081 18.8619 39.3273 18.4579C39.2844 18.2433 39.1122 17.9401 38.9446 17.784C38.6519 17.5112 38.4956 17.5 34.9929 17.5H31.3459L30.9854 17.8604C30.7871 18.0586 30.625 18.3556 30.625 18.5202C30.625 18.8304 30.1874 19.3107 29.7705 19.4578C29.5485 19.5362 29.5312 19.3674 29.5312 17.1098V14.6774L30.5238 14.1802C31.0697 13.9068 31.8849 13.5922 32.3354 13.4812C32.7857 13.3703 33.2773 13.2482 33.4277 13.2102C33.9877 13.0683 36.8647 13.2368 37.666 13.4585ZM27.3801 20.3369C27.4288 24.1772 27.4783 25.0887 27.6749 25.7715C28.0633 27.1199 28.7786 28.4534 29.6002 29.3601L30.374 30.2143L30.0854 31.0816L29.7968 31.949L26.6904 33.2891C21.7227 35.4324 22.2554 35.0879 21.4636 36.6696L20.7812 38.0326L20.7759 44.0701L20.7704 50.1074L19.6846 48.974C17.8418 47.0504 16.2151 44.3096 15.3269 41.6309C13.7495 36.875 13.9047 31.7923 15.7671 27.2069C17.6498 22.5713 21.2383 18.6822 25.6946 16.4474C26.4888 16.0491 27.1798 15.7231 27.2301 15.7229C27.2805 15.7228 27.348 17.7991 27.3801 20.3369ZM43.8169 16.2135C49.6687 18.9172 54.1023 24.5909 55.3797 31.0103C56.3307 35.7894 55.4717 40.9987 53.0254 45.2875C52.2536 46.6405 50.7873 48.5788 49.8489 49.4864L49.2188 50.0959V44.0643V38.0326L48.5324 36.6617C47.737 35.0727 48.2917 35.4312 43.3096 33.2864L40.2032 31.949L39.9146 31.0816L39.626 30.2143L40.3998 29.3601C41.2214 28.4534 41.9367 27.1199 42.3251 25.7715C42.5217 25.0887 42.5712 24.1772 42.6199 20.3369C42.652 17.7991 42.6955 15.7227 42.7164 15.7227C42.7373 15.7227 43.2325 15.9436 43.8169 16.2135ZM37.7344 20.1914C38.1437 20.7929 39.0886 21.4212 39.8877 21.6236L40.4688 21.7707L40.4664 22.8141C40.4571 26.8651 38.289 29.528 35 29.528C31.711 29.528 29.5429 26.8651 29.5336 22.8141L29.5312 21.7707L30.1123 21.6236C30.9114 21.4212 31.8563 20.7929 32.2656 20.1914L32.6074 19.6894H35H37.3926L37.7344 20.1914ZM34.0088 31.6039C34.9597 31.7611 35.7902 31.7007 37.3412 31.3616C37.667 31.2905 37.7192 31.3396 37.908 31.8935L38.116 32.5038L36.5579 34.0572L35 35.6107L33.4421 34.0572L31.884 32.5038L32.092 31.8935C32.2808 31.3396 32.333 31.2905 32.6588 31.3616C32.8561 31.4048 33.4636 31.5138 34.0088 31.6039ZM32.1612 35.9209L33.9062 37.6621V40.7061V43.75H35H36.0938V40.7099V37.6698L37.835 35.9248C38.7926 34.965 39.6434 34.1797 39.7257 34.1797C39.808 34.1797 41.2854 34.7888 43.0088 35.5333L46.1426 36.887L46.5831 37.6867L47.0236 38.4863L47.0274 45.2155L47.0312 51.9448L46.3135 52.3998C45.9188 52.6501 45.1804 53.0816 44.6729 53.3585L43.75 53.862V50.9935V48.125H42.6587H41.5674L41.5308 51.4404L41.4941 54.7559L40.0337 55.1232C36.5922 55.9892 32.9969 55.9654 29.668 55.0549L28.5059 54.737L28.4692 51.431L28.4326 48.125H27.3413H26.25V50.9935V53.862L25.3271 53.3585C24.8195 53.0816 24.0812 52.6501 23.6865 52.3998L22.9688 51.9448L22.9726 45.2155L22.9764 38.4863L23.4169 37.6864L23.8574 36.8864L26.9336 35.5448C28.6255 34.8068 30.1012 34.1979 30.2129 34.1914C30.3246 34.1849 31.2014 34.9632 32.1612 35.9209ZM4.375 60.1562V61.25H5.77527H7.17568L3.79285 64.6347C1.93238 66.4964 0.410156 68.0829 0.410156 68.1605C0.410156 68.337 1.67166 69.5898 1.84939 69.5898C1.92145 69.5898 3.50355 68.0676 5.36525 66.2071L8.75 62.8243V64.2247V65.625H9.84375H10.9375V62.7041V59.7834L10.5771 59.4229L10.2166 59.0625H7.29586H4.375V60.1562ZM59.4229 59.4229L59.0625 59.7834V62.7041V65.625H60.1562H61.25V64.2247V62.8243L64.6677 66.24L68.0855 69.6557L68.8706 68.8706L69.6557 68.0855L66.24 64.6677L62.8243 61.25H64.2247H65.625V60.1562V59.0625H62.7041H59.7834L59.4229 59.4229Z" fill="#617792"/>
</svg>
