<svg width="70" height="70" viewBox="0 0 70 70" fill="none" xmlns="http://www.w3.org/2000/svg">
<g clip-path="url(#clip0_1599_77)">
<path d="M50.9077 36.7624H34.6792V34.4473H50.9077C56.5501 34.4473 61.1399 29.8569 61.1399 24.2145C61.1399 21.4784 60.0763 18.9078 58.1455 16.9766C56.2143 15.0459 53.6437 13.9823 50.9077 13.9823H43.0712V11.667H50.9077C54.2622 11.667 57.4142 12.9715 59.7823 15.3396C62.1505 17.7077 63.455 20.8599 63.455 24.2143C63.455 31.1336 57.8261 36.7624 50.9077 36.7624Z" fill="#617792"/>
<path d="M26.5767 57.2156H55.561V59.5306H26.5767V57.2156Z" fill="#617792"/>
<path d="M18.2773 59.5305H14.9439C8.02482 59.5305 2.396 53.9017 2.396 46.9826C2.396 43.6413 3.69985 40.4903 6.06688 38.1101C8.42939 35.747 11.5814 34.447 14.9439 34.447H26.3801V36.7621H14.9439C12.1999 36.7621 9.62929 37.8212 7.70608 39.7446C5.77532 41.6861 4.71106 44.2572 4.71106 46.9824C4.71106 52.6248 9.3015 57.2153 14.9439 57.2153H18.2775L18.2773 59.5305Z" fill="#617792"/>
<path d="M9.50317 11.667H34.7719V13.9821H9.50317V11.667Z" fill="#617792"/>
<path d="M5.35343 17.5761C2.40154 17.5761 0 15.1746 0 12.2227C0 9.2708 2.40154 6.86926 5.35343 6.86926C8.30532 6.86926 10.7069 9.2708 10.7069 12.2227C10.7069 15.1746 8.30553 17.5761 5.35343 17.5761ZM5.35343 9.18411C3.67822 9.18411 2.31484 10.5473 2.31484 12.2227C2.31484 13.8981 3.678 15.2613 5.35343 15.2613C7.02885 15.2613 8.39201 13.8981 8.39201 12.2227C8.39201 10.5473 7.02885 9.18411 5.35343 9.18411Z" fill="#617792"/>
<path d="M38.9162 17.5705C36.274 17.5705 33.9995 15.6007 33.6266 12.9885C33.5858 12.7646 33.5684 12.5018 33.5684 12.2227C33.5684 9.27404 35.9675 6.87488 38.9162 6.87488C41.8711 6.87488 44.2754 9.27404 44.2754 12.2227C44.2754 12.502 44.258 12.7646 44.211 13.0275C43.8441 15.6007 41.5651 17.5705 38.9162 17.5705ZM38.9162 9.18972C37.2438 9.18972 35.8834 10.5501 35.8834 12.2225C35.8834 12.3603 35.8886 12.491 35.9117 12.6214C36.1293 14.1397 37.4185 15.2552 38.9162 15.2552C40.4208 15.2552 41.7145 14.1394 41.9259 12.6605C41.9552 12.491 41.9604 12.3603 41.9604 12.2225C41.9602 10.5503 40.5946 9.18972 38.9162 9.18972Z" fill="#617792"/>
<path d="M30.5238 40.3502C27.881 40.3502 25.6071 38.3804 25.2343 35.7688C25.1935 35.5439 25.176 35.281 25.176 35.003C25.176 32.0477 27.5752 29.6433 30.5238 29.6433C33.4788 29.6433 35.8831 32.0477 35.8831 35.003C35.8831 35.281 35.8656 35.5439 35.8186 35.8072C35.4518 38.3804 33.173 40.3502 30.5238 40.3502ZM30.5238 31.9582C28.8514 31.9582 27.4911 33.3243 27.4911 35.0028C27.4911 35.1406 27.4963 35.2713 27.5193 35.4024C27.7369 36.92 29.0261 38.0351 30.5238 38.0351C32.0285 38.0351 33.3222 36.92 33.5335 35.4408C33.5629 35.2713 33.568 35.1406 33.568 35.0028C33.568 33.3241 32.2025 31.9582 30.5238 31.9582Z" fill="#617792"/>
<path d="M22.4327 63.131C19.7672 63.131 17.4878 61.1528 17.1306 58.5291C17.0905 58.3121 17.0735 58.0475 17.0735 57.7831C17.0735 54.8282 19.4778 52.4235 22.4327 52.4235C25.3814 52.4235 27.7806 54.8284 27.7806 57.7831C27.7806 58.0477 27.7635 58.3121 27.7161 58.5768C27.3663 61.1528 25.0913 63.131 22.4327 63.131ZM22.4327 54.7379C20.7541 54.7379 19.3885 56.1045 19.3885 57.7831C19.3885 57.9121 19.3942 58.0408 19.4168 58.1698C19.626 59.6992 20.9197 60.8161 22.4327 60.8161C23.9395 60.8161 25.2283 59.6992 25.4299 58.2173C25.4599 58.0408 25.4655 57.9121 25.4655 57.7831C25.4655 56.1045 24.1051 54.7379 22.4327 54.7379Z" fill="#617792"/>
<path d="M58.1037 61.9735C56.0634 61.9735 54.4033 60.313 54.4033 58.2726C54.4033 56.2323 56.0632 54.5718 58.1037 54.5718C60.1447 54.5718 61.8046 56.2323 61.8046 58.2726C61.8046 60.313 60.1447 61.9735 58.1037 61.9735ZM58.1037 56.8866C57.3401 56.8866 56.7184 57.5084 56.7184 58.2724C56.7184 59.0365 57.3401 59.6582 58.1037 59.6582C58.8678 59.6582 59.4896 59.0365 59.4896 58.2724C59.4896 57.5084 58.8678 56.8866 58.1037 56.8866Z" fill="#617792"/>
<path d="M58.1037 41.9096C57.4645 41.9096 56.9463 41.3914 56.9463 40.7522V39.3386C56.9463 38.6994 57.4645 38.1812 58.1037 38.1812C58.7429 38.1812 59.2611 38.6994 59.2611 39.3386V40.7522C59.2613 41.3912 58.7429 41.9096 58.1037 41.9096Z" fill="#617792"/>
<path d="M58.1037 56.8866C57.4645 56.8866 56.9463 56.3688 56.9463 55.7292V48.0991C56.9463 47.4599 57.4645 46.9417 58.1037 46.9417C58.7429 46.9417 59.2611 47.4599 59.2611 48.0991V55.7292C59.2613 56.3688 58.7429 56.8866 58.1037 56.8866Z" fill="#617792"/>
<path d="M68.8425 49.2565H58.1037C57.4645 49.2565 56.9463 48.7383 56.9463 48.0991V40.7521C56.9463 40.1129 57.4645 39.5947 58.1037 39.5947H68.8425C69.2738 39.5947 69.6689 39.8343 69.8684 40.2165C70.0678 40.598 70.0392 41.0592 69.7927 41.4129L67.698 44.4248L69.7931 47.4383C70.0389 47.7922 70.0678 48.2533 69.8684 48.6354C69.6687 49.0169 69.2731 49.2565 68.8425 49.2565ZM59.2613 46.9415H66.6281L65.3372 45.0853C65.0614 44.6881 65.0614 44.1606 65.3379 43.7638L66.6277 41.9094H59.2616V46.9415H59.2613Z" fill="#617792"/>
</g>
<defs>
<clipPath id="clip0_1599_77">
<rect width="70" height="70" fill="white"/>
</clipPath>
</defs>
</svg>
