<svg width="70" height="71" viewBox="0 0 70 71" fill="none" xmlns="http://www.w3.org/2000/svg">
<g clip-path="url(#clip0_1599_49)">
<path fill-rule="evenodd" clip-rule="evenodd" d="M54.9799 45.1334C61.7873 44.246 67.0169 49.0793 67.8484 54.9167C68.8209 61.7047 63.7907 67.0339 58.1065 67.846C51.2601 68.8185 45.9625 63.8515 45.1164 58.1429C44.1026 51.299 49.1109 45.8992 54.9799 45.1334ZM44.4308 62.7258C43.6358 63.1197 42.3472 63.2509 41.7759 63.9049C41.0173 64.7729 41.314 65.9229 40.8034 66.837C39.8309 68.5851 36.4734 67.9627 34.5114 67.9675C31.6255 67.9675 29.6124 68.6045 29.0703 65.6919C28.584 63.0662 27.1545 63.3895 24.7719 62.49C22.5594 61.6561 20.454 60.1925 19.2043 60.2873C17.4004 60.421 16.7099 63.2048 14.1328 60.7371C12.7567 59.4145 11.5922 58.2061 10.2136 56.8738C7.29374 54.0317 8.57014 53.5479 9.48185 52.0284C10.5637 50.1904 8.54339 47.871 7.92343 46.2955C7.15516 44.3506 6.90474 41.9461 5.33174 41.3504C4.00185 40.8496 3.41106 41.2823 2.56743 40.2175C1.62897 39.031 1.86723 30.8402 2.51637 30.0063C3.99699 28.0783 5.72803 30.4342 6.91204 26.6293C7.4546 24.7792 8.19386 22.9926 9.11716 21.3001C10.9722 17.8963 8.08632 18.1395 8.32215 15.8565C8.44857 14.6239 10.943 12.4844 11.704 11.7234C12.6327 10.785 14.3783 8.29054 16.282 8.52394C18.7132 8.82541 17.2715 11.1691 21.7523 8.88133C23.7823 7.84563 25.2581 7.54902 27.3441 6.69322C29.7024 5.72073 28.0346 3.04638 30.4099 2.22219C31.1976 1.95232 36.6387 2.052 37.9467 2.05443C41.8367 2.05443 40.2418 4.40786 41.5084 5.92738C42.2378 6.8002 45.6586 7.59035 46.986 8.23705C48.8678 9.12688 50.2755 10.6002 52.2715 8.9956C54.445 7.24754 55.9767 9.36271 57.0926 10.4835C58.3083 11.6991 59.7937 12.9585 60.8854 14.23C63.0735 16.7828 59.4582 17.7043 60.1365 19.8219C60.3286 20.4224 61.1431 21.6477 61.4834 22.382C61.853 23.177 62.2128 23.9841 62.5605 24.9396C64.1383 29.2721 63.0735 28.0492 66.3094 28.973C68.3979 29.5687 67.9505 32.4691 67.9602 34.7594C67.97 37.0496 68.5364 40.0132 66.5161 40.7402C65.2324 41.2021 64.503 40.8569 63.7493 41.878C63.2509 42.5514 63.0637 43.7427 62.7209 44.4332C50.1734 39.0967 39.0991 50.1758 44.4332 62.7209L44.4308 62.7258ZM62.2639 19.2068C62.9932 17.697 64.4374 16.5178 63.127 13.9432C62.5119 12.7275 60.5815 11.0476 59.6381 10.1286C55.4637 6.05867 55.1477 5.02297 50.5599 7.66571C49.4391 7.31319 48.2551 6.53762 46.9836 6.00761C45.6318 5.446 44.2898 5.06187 43.0085 4.64369C42.6973 -0.243079 39.3082 -0.0194058 34.7666 4.40741e-05C29.2818 0.041375 27.9592 -0.413265 26.6269 4.74581C25.2822 5.13523 23.9614 5.60282 22.6713 6.1462C21.3463 6.7224 20.4224 7.40314 19.2068 7.75567C17.7189 7.00928 16.5324 5.54568 13.9383 6.87556C12.7956 7.46392 7.25241 13.1117 6.75644 14.0428C5.47275 16.4522 6.84396 17.9206 7.66085 19.4426C7.267 20.7433 6.46955 21.8957 5.93711 23.1964C5.40467 24.4971 5.03756 25.7857 4.63154 26.9867C-0.243076 27.3295 4.70546e-05 30.6797 4.70546e-05 35.2529C0.0219281 40.6332 -0.401106 42.0141 4.73852 43.3829C5.12427 44.7288 5.59194 46.0498 6.1389 47.3385C6.71267 48.6611 7.40314 49.5996 7.74109 50.8128C6.9947 52.308 5.55298 53.5041 6.8707 56.0764C7.48581 57.292 9.4162 58.9623 10.3595 59.891C14.6069 64.0435 14.8865 64.9285 19.4499 62.3441C20.5512 62.6942 21.7669 63.4941 23.0287 64.0022C24.4023 64.5589 25.703 64.9455 27.0037 65.3685C27.3028 70.2675 30.6943 70.0244 35.2529 69.9879C37.2538 69.9757 39.493 70.231 41.1267 69.312C42.8651 68.3249 42.8286 67.2552 43.3805 65.2348L45.8117 64.5541C48.1068 69.1734 58.724 73.2895 66.0104 65.9958C73.2968 58.7021 69.2415 48.119 64.5103 45.7777L65.3734 42.9988C70.2359 42.6973 70.0195 39.2863 69.9928 34.7496C69.9709 29.3499 70.3915 27.9422 65.2543 26.6196C64.1845 23.0214 62.524 20.1914 62.2639 19.2068Z" fill="#617792"/>
<path fill-rule="evenodd" clip-rule="evenodd" d="M40.3926 59.8691C40.7914 57.6153 39.4445 58.1672 37.6745 58.3423C27.6749 59.3294 19.7588 54.9726 14.5778 46.6602C8.90333 37.5164 11.5096 23.6656 19.3868 17.4393C24.0061 13.7803 27.1667 12.1295 33.6192 11.5071C43.7599 10.5346 54.2458 17.731 57.4307 27.8814C58.2427 30.4634 58.7922 33.816 58.4518 36.77C58.3035 38.0415 57.5498 40.4168 59.0888 40.5141C60.3944 40.5992 60.4114 38.4645 60.4819 37.193C61.5103 18.3364 44.8102 5.98573 28.4942 10.2598C5.83512 16.1945 2.53108 47.3726 23.5588 57.8633C27.5776 59.8691 35.4548 61.7655 40.3926 59.8594V59.8691Z" fill="#617792"/>
<path fill-rule="evenodd" clip-rule="evenodd" d="M40.3391 55.2157C40.5312 53.1492 39.3909 53.6208 37.8447 53.8591C36.5802 54.0325 35.302 54.0846 34.0276 54.0147C16.7975 53.0009 10.3742 32.5615 21.4849 21.4873C26.8555 16.1385 37.3025 13.4642 45.2599 18.9077C48.3136 20.9986 50.9174 23.5976 52.5852 27.6285C56.3488 36.7262 51.2942 40.7207 55.2353 40.3609C57.2581 36.8332 55.6316 29.2137 54.061 25.9048C47.6523 12.3993 29.931 10.1699 20.0505 20.0528C10.0168 30.0865 12.5793 47.8783 26.0727 54.1387C29.277 55.6266 37.0618 57.2725 40.3391 55.2157Z" fill="#617792"/>
<path fill-rule="evenodd" clip-rule="evenodd" d="M37.1468 37.6453C37.5698 36.3859 42.5247 27.8644 43.2662 27.4341L43.1811 37.6453L37.1468 37.6574V37.6453ZM45.2428 37.6453C45.1188 35.3672 45.6513 27.4827 44.8854 26.0969C42.9404 22.5741 39.9281 28.375 39.0991 29.858C31.8176 42.8894 32.79 38.8268 43.1909 39.6972C43.2249 41.1754 42.532 45.3401 44.3895 44.849C44.7736 44.7493 44.8757 44.5013 45.1674 44.2412L45.2258 39.6486C46.5314 39.6486 46.5508 39.8455 47.4382 39.1307L47.3118 38.0099C46.7672 37.6817 46.0962 37.6453 45.2428 37.6453V37.6453Z" fill="#617792"/>
<path fill-rule="evenodd" clip-rule="evenodd" d="M23.9818 30.5193C25.1803 29.2575 24.6163 27.93 26.6901 27.1885C28.6035 26.5053 30.0939 27.4024 30.9424 28.5986C32.7658 31.1392 29.0363 35.4474 27.9422 36.9353C21.9808 45.0459 20.8917 45.1067 28.4285 45.1115C30.1668 45.1115 32.6442 45.2598 34.1953 44.8344L34.0665 43.2395C32.0972 42.5101 28.4917 43.2881 26.0945 42.9283C27.5824 40.9687 29.0776 38.7952 30.6166 36.7068C31.8468 35.0365 34.2415 31.8443 33.3104 28.9049C32.4935 26.3376 29.8483 24.164 26.3473 25.1608C23.0627 26.0969 20.8673 30.8985 23.972 30.5095L23.9818 30.5193Z" fill="#617792"/>
<path fill-rule="evenodd" clip-rule="evenodd" d="M52.0527 50.0834C51.7659 52.4149 53.193 51.688 58.3423 51.7391C57.9266 53.5139 56.3973 56.2611 55.6534 58.0603C55.2498 59.0595 54.7125 60.3116 54.2506 61.2841C53.6184 62.6188 53.1273 63.161 53.6257 64.4617L54.6906 64.5881C55.6194 63.8344 56.5918 61.0701 57.1364 59.8083C57.8658 58.1065 58.6341 56.266 59.4267 54.5496C60.2022 52.8696 61.7242 50.1126 58.989 49.7017C57.3869 49.4586 53.069 49.4075 52.0527 50.0712V50.0834Z" fill="#617792"/>
</g>
<defs>
<clipPath id="clip0_1599_49">
<rect width="70" height="70.0243" fill="white"/>
</clipPath>
</defs>
</svg>
