<svg width="70" height="70" viewBox="0 0 70 70" fill="none" xmlns="http://www.w3.org/2000/svg">
<g clip-path="url(#clip0_1599_99)">
<path d="M22.1762 36.1705C22.1762 36.8147 22.6985 37.337 23.3427 37.337H32.6744C33.3185 37.337 33.8408 36.8147 33.8408 36.1705V26.8389C33.8306 24.2052 32.0558 21.9053 29.511 21.227C32.2011 18.4789 32.1697 14.0745 29.4404 11.3651C26.7116 8.65566 22.3072 8.65566 19.5785 11.3651C16.8491 14.0745 16.8178 18.4789 19.5079 21.227C16.9625 21.9053 15.1883 24.2052 15.1775 26.8389V30.8491C15.1775 31.4933 15.6998 32.0156 16.3439 32.0156C16.9881 32.0156 17.5104 31.4933 17.5104 30.8491V26.8389C17.5104 24.9063 19.0773 23.3395 21.0098 23.3395H28.0085C29.9416 23.3395 31.5079 24.9063 31.5079 26.8389V35.0041H23.3427C22.6985 35.0041 22.1762 35.5264 22.1762 36.1705ZM24.5092 11.6749C27.0864 11.6749 29.175 13.764 29.175 16.3407C29.175 18.9174 27.0864 21.0066 24.5092 21.0066C21.9325 21.0066 19.8433 18.9174 19.8433 16.3407C19.8433 13.764 21.9325 11.6749 24.5092 11.6749Z" fill="#617792"/>
<path d="M28.0087 29.1718C28.6528 29.1718 29.1751 28.6495 29.1751 28.0053C29.1751 27.3612 28.6528 26.8389 28.0087 26.8389H25.6757C25.0316 26.8389 24.5093 27.3612 24.5093 28.0053C24.5093 28.6495 25.0316 29.1718 25.6757 29.1718H28.0087Z" fill="#617792"/>
<path d="M68.976 59.0753L54.954 45.0534C53.8912 44.0435 52.3215 43.781 50.9881 44.3904L44.8061 38.2084C52.211 27.2472 49.5762 12.3868 38.8537 4.64022C28.1311 -3.10693 13.195 -0.941462 5.11408 9.53161C-2.96627 20.0047 -1.2724 35.0018 8.94095 43.4085C9.43818 43.818 10.1735 43.7473 10.583 43.2496C10.9931 42.7523 10.9219 42.017 10.4247 41.6075C1.02919 33.9122 -0.434575 20.0935 7.14114 10.6012C14.7163 1.10895 28.515 -0.52967 38.103 6.92473C47.6904 14.3791 49.5039 28.1562 42.1719 37.8376C41.8923 38.2084 41.6075 38.5735 41.3051 38.9243C41.2794 38.9562 41.2504 38.9841 41.2236 39.0154C40.5453 39.7963 39.8128 40.5288 39.0319 41.2071C38.9955 41.239 38.9619 41.2738 38.9249 41.3051C38.5746 41.603 38.2175 41.8883 37.8524 42.1606C34.0181 45.083 29.3306 46.6669 24.5093 46.6686C24.1397 46.6686 23.7723 46.6498 23.4072 46.6305C22.763 46.5946 22.2123 47.0884 22.1764 47.7326C22.1411 48.3767 22.6349 48.9275 23.2791 48.9634C23.6886 48.985 24.0952 49.005 24.5093 49.005C29.3933 49.0101 34.1662 47.5475 38.2084 44.8056L45.0567 51.654C45.5124 52.1096 46.2505 52.1096 46.7062 51.654L51.6551 46.7051C52.1176 46.2654 52.8432 46.2654 53.3057 46.7051L67.3265 60.7282C67.781 61.1833 67.781 61.9209 67.3265 62.3759L62.3788 67.3254C62.1601 67.5447 61.8627 67.6677 61.5535 67.6677C61.2436 67.6677 60.9469 67.5447 60.7282 67.3254L51.5389 58.1361C51.081 57.6942 50.3537 57.7004 49.9037 58.1504C49.4537 58.6003 49.4475 59.3277 49.8895 59.7856L59.0787 68.9749C60.4451 70.3418 62.6613 70.3418 64.0282 68.9749L68.976 64.0265C70.3429 62.6602 70.3429 60.444 68.976 59.0776V59.0753ZM43.3931 40.0908L49.1804 45.8781L45.8815 49.1775L40.0936 43.3897C41.2948 42.3969 42.3997 41.292 43.3931 40.0908Z" fill="#617792"/>
<path d="M24.5092 42.0029C23.8651 42.0029 23.3428 42.5251 23.3428 43.1693C23.3428 43.8135 23.8651 44.3358 24.5092 44.3358C30.6485 44.3557 36.4483 41.5221 40.2052 36.6666C43.9626 31.8117 45.2503 25.4862 43.6909 19.5485C43.5297 18.9249 42.8935 18.5495 42.2693 18.7107C41.6456 18.8713 41.2702 19.5081 41.4314 20.1318C42.8115 25.3706 41.6775 30.954 38.3621 35.2388C35.0467 39.5241 29.9275 42.0234 24.5092 42.0029Z" fill="#617792"/>
<path d="M34.1034 7.15485C25.2838 2.26575 14.1984 4.77978 8.35076 12.9957C2.50309 21.211 3.75783 32.5082 11.2652 39.2404C11.5745 39.5269 12.0136 39.6243 12.4146 39.4956C12.815 39.3669 13.1157 39.0325 13.2006 38.6202C13.2854 38.2073 13.1413 37.7812 12.8235 37.505C6.20523 31.5633 5.10199 21.6006 10.2594 14.3547C15.4167 7.10814 25.1921 4.88857 32.9734 9.19615C33.5367 9.50827 34.2469 9.30437 34.5591 8.7405C34.8712 8.17721 34.6673 7.46697 34.1034 7.15485Z" fill="#617792"/>
<path d="M10.5117 61.8325C9.8675 61.8325 9.34521 62.3548 9.34521 62.999C9.34521 63.6432 9.8675 64.1654 10.5117 64.1654H17.5104C18.1546 64.1654 18.6769 63.6432 18.6769 62.999C18.6769 62.3548 18.1546 61.8325 17.5104 61.8325H10.5117Z" fill="#617792"/>
<path d="M32.6744 51.3345H19.8434V36.1705C19.8456 35.6408 19.4902 35.1766 18.9788 35.0399C18.4673 34.9027 17.9274 35.1276 17.6648 35.5873L8.6686 51.3345H7.01232C5.0798 51.3345 3.51294 52.9013 3.51294 54.8338V66.4984C3.51294 68.4309 5.0798 69.9978 7.01232 69.9978H32.6744C34.6075 69.9978 36.1738 68.4309 36.1738 66.4984V64.1655C36.1738 63.5213 35.6515 62.9991 35.0073 62.9991C34.3632 62.9991 33.8409 63.5213 33.8409 64.1655V66.4984C33.8409 67.1426 33.3186 67.6649 32.6744 67.6649H7.01232C6.36814 67.6649 5.84586 67.1426 5.84586 66.4984V54.8338C5.84586 54.1897 6.36814 53.6674 7.01232 53.6674H9.34523C9.76272 53.6685 10.1489 53.4458 10.3579 53.0842L17.5104 40.5635V52.5009C17.5104 53.1451 18.0327 53.6674 18.6769 53.6674H32.6744C33.3186 53.6674 33.8409 54.1897 33.8409 54.8338V57.1668C33.8409 57.8109 34.3632 58.3332 35.0073 58.3332C35.6515 58.3332 36.1738 57.8109 36.1738 57.1668V54.8338C36.1738 52.9013 34.6075 51.3345 32.6744 51.3345Z" fill="#617792"/>
<path d="M22.1764 58.3332C22.1764 57.689 21.6541 57.1667 21.0099 57.1667H12.8447C12.2005 57.1667 11.6782 57.689 11.6782 58.3332C11.6782 58.9774 12.2005 59.4997 12.8447 59.4997H21.0099C21.6541 59.4997 22.1764 58.9774 22.1764 58.3332Z" fill="#617792"/>
<path d="M31.508 58.3332C31.508 57.689 30.9857 57.1667 30.3416 57.1667H25.6757C25.0316 57.1667 24.5093 57.689 24.5093 58.3332C24.5093 58.9774 25.0316 59.4997 25.6757 59.4997H30.3416C30.9857 59.4997 31.508 58.9774 31.508 58.3332Z" fill="#617792"/>
<path d="M22.1765 64.1654H26.8423C27.4865 64.1654 28.0088 63.6432 28.0088 62.999C28.0088 62.3548 27.4865 61.8325 26.8423 61.8325H22.1765C21.5323 61.8325 21.01 62.3548 21.01 62.999C21.01 63.6432 21.5323 64.1654 22.1765 64.1654Z" fill="#617792"/>
<path d="M51.3378 9.34195H61.836C62.4801 9.34195 63.0024 8.81966 63.0024 8.17549C63.0024 7.53132 62.4801 7.00903 61.836 7.00903H51.3378C50.6937 7.00903 50.1714 7.53132 50.1714 8.17549C50.1714 8.81966 50.6937 9.34195 51.3378 9.34195Z" fill="#617792"/>
<path d="M51.3378 15.1742H61.836C62.4801 15.1742 63.0024 14.6519 63.0024 14.0078C63.0024 13.3636 62.4801 12.8413 61.836 12.8413H51.3378C50.6937 12.8413 50.1714 13.3636 50.1714 14.0078C50.1714 14.6519 50.6937 15.1742 51.3378 15.1742Z" fill="#617792"/>
<path d="M61.8359 18.6736H56.0036C55.3594 18.6736 54.8372 19.1959 54.8372 19.84C54.8372 20.4842 55.3594 21.0065 56.0036 21.0065H61.8359C62.4801 21.0065 63.0024 20.4842 63.0024 19.84C63.0024 19.1959 62.4801 18.6736 61.8359 18.6736Z" fill="#617792"/>
<path d="M61.8359 24.5059H56.0036C55.3594 24.5059 54.8372 25.0281 54.8372 25.6723C54.8372 26.3165 55.3594 26.8388 56.0036 26.8388H61.8359C62.4801 26.8388 63.0024 26.3165 63.0024 25.6723C63.0024 25.0281 62.4801 24.5059 61.8359 24.5059Z" fill="#617792"/>
<path d="M53.6709 33.8375C53.0267 33.8375 52.5044 34.3598 52.5044 35.0039C52.5044 35.6481 53.0267 36.1704 53.6709 36.1704H60.6696C61.9579 36.1704 63.0025 35.1258 63.0025 33.8375V31.5045C63.0025 30.2162 61.9579 29.1716 60.6696 29.1716H53.6709C53.0267 29.1716 52.5044 29.6939 52.5044 30.3381C52.5044 30.9823 53.0267 31.5045 53.6709 31.5045H60.6696V33.8375H53.6709Z" fill="#617792"/>
</g>
<defs>
<clipPath id="clip0_1599_99">
<rect width="70" height="70" fill="white"/>
</clipPath>
</defs>
</svg>
