<svg width="70" height="70" viewBox="0 0 70 70" fill="none" xmlns="http://www.w3.org/2000/svg">
<g clip-path="url(#clip0_1599_92)">
<path d="M46.6532 24.4024C46.6532 23.7984 47.1429 23.3086 47.747 23.3086H68.9062C69.5103 23.3086 70 23.7984 70 24.4024C70 25.0064 69.5103 25.4961 68.9062 25.4961H47.747C47.1429 25.4961 46.6532 25.0065 46.6532 24.4024ZM0 15.3958C0 6.90662 6.90648 0 15.3956 0C23.8848 0 30.7913 6.90662 30.7913 15.3958C30.7913 23.8849 23.8848 30.7914 15.3956 30.7914C6.90648 30.7914 0 23.8849 0 15.3958ZM28.5575 16.4953L17.3078 16.4903L23.0063 26.1846C26.1088 23.9898 28.2267 20.4922 28.5575 16.4953ZM16.4894 2.23316V14.3024L28.5585 14.3078C28.0331 7.89264 22.9037 2.76158 16.4894 2.23316ZM2.1875 15.3958C2.1875 22.6788 8.11262 28.6039 15.3956 28.6039C17.4463 28.6039 19.3892 28.1341 21.1225 27.2966L14.4527 15.95C14.3538 15.782 14.3017 15.5906 14.3017 15.3958V2.23316C7.52869 2.79111 2.1875 8.48107 2.1875 15.3958ZM47.747 2.90336H68.9062C69.5103 2.90336 70 2.41363 70 1.80961C70 1.20559 69.5103 0.715859 68.9062 0.715859H47.747C47.1429 0.715859 46.6532 1.20559 46.6532 1.80961C46.6532 2.41363 47.1429 2.90336 47.747 2.90336ZM47.747 7.48262H58.3265C58.9306 7.48262 59.4203 6.99289 59.4203 6.38887C59.4203 5.78484 58.9306 5.29512 58.3265 5.29512H47.747C47.1429 5.29512 46.6532 5.78484 46.6532 6.38887C46.6532 6.99289 47.1429 7.48262 47.747 7.48262ZM35.755 7.10473V1.09375C35.755 0.489727 36.2447 0 36.8487 0H42.8597C43.4637 0 43.9534 0.489727 43.9534 1.09375V7.10473C43.9534 7.70875 43.4637 8.19848 42.8597 8.19848H36.8487C36.2447 8.19848 35.755 7.70875 35.755 7.10473ZM37.9425 6.01098H41.7659V2.1875H37.9425V6.01098ZM47.747 14.1997H68.9062C69.5103 14.1997 70 13.71 70 13.106C70 12.502 69.5103 12.0122 68.9062 12.0122H47.747C47.1429 12.0122 46.6532 12.502 46.6532 13.106C46.6532 13.71 47.1429 14.1997 47.747 14.1997ZM47.747 18.779H58.3265C58.9306 18.779 59.4203 18.2893 59.4203 17.6853C59.4203 17.0812 58.9306 16.5915 58.3265 16.5915H47.747C47.1429 16.5915 46.6532 17.0812 46.6532 17.6853C46.6532 18.2893 47.1429 18.779 47.747 18.779ZM35.755 18.4011V12.3901C35.755 11.7861 36.2447 11.2964 36.8487 11.2964H42.8597C43.4637 11.2964 43.9534 11.7861 43.9534 12.3901V18.4011C43.9534 19.0051 43.4637 19.4949 42.8597 19.4949H36.8487C36.2447 19.4949 35.755 19.0053 35.755 18.4011ZM37.9425 17.3074H41.7659V13.4839H37.9425V17.3074ZM9.46367 43.9346V68.9062C9.46367 69.5103 8.97395 70 8.36992 70H1.09375C0.489727 70 0 69.5103 0 68.9062V43.9346C0 43.3305 0.489727 42.8408 1.09375 42.8408H8.36992C8.97395 42.8408 9.46367 43.3304 9.46367 43.9346ZM7.27617 45.0283H2.1875V67.8125H7.27617V45.0283ZM69.3312 63.6688L66.5391 66.5462C66.0744 67.0251 65.4549 67.2658 64.835 67.2658C64.2391 67.2658 63.6426 67.0435 63.182 66.5965L55.4486 59.0922C54.9946 58.6518 54.7392 58.0594 54.7296 57.4241C54.7246 57.091 54.7891 56.7685 54.9135 56.4709L51.9371 53.5827C50.8905 54.3658 49.7396 55.0163 48.51 55.5111V68.9062C48.51 69.5103 48.0203 70 47.4163 70H40.1402C39.5362 70 39.0465 69.5103 39.0465 68.9062V56.1153C37.7206 55.7706 36.4645 55.2508 35.3049 54.582V68.9062C35.3049 69.5103 34.8152 70 34.2111 70H26.9351C26.3311 70 25.8413 69.5103 25.8413 68.9062V47.626C25.8413 47.022 26.3311 46.5322 26.9351 46.5322H28.5718C27.9995 44.9355 27.6866 43.2164 27.6866 41.4252C27.6866 35.6238 30.9593 30.573 35.755 28.02V23.6865C35.755 23.0825 36.2447 22.5928 36.8487 22.5928H42.8597C43.4637 22.5928 43.9534 23.0825 43.9534 23.6865V26.2883C46.0154 26.4354 47.9648 26.9959 49.7187 27.8879H58.3265C58.9306 27.8879 59.4203 28.3776 59.4203 28.9816C59.4203 29.5857 58.9306 30.0754 58.3265 30.0754H52.9262C56.0606 32.8576 58.0394 36.9143 58.0394 41.4252C58.0394 44.3234 57.2224 47.034 55.8072 49.3399L58.911 52.3517C59.2048 52.2184 59.5253 52.1441 59.8582 52.1392C60.496 52.1296 61.0932 52.3671 61.5472 52.8078L69.2806 60.3121C70.22 61.2238 70.2427 62.7296 69.3312 63.6688ZM54.5167 51.1357C54.2248 51.4855 53.9179 51.8224 53.5961 52.1445L56.3187 54.7865L57.2694 53.8068L54.5167 51.1357ZM37.9425 27.0681C39.1554 26.6513 40.4372 26.3841 41.7659 26.2888V24.7803H37.9425V27.0681ZM29.8743 41.4252C29.8743 48.5872 35.7011 54.4141 42.8632 54.4141C50.0254 54.4141 55.8521 48.5872 55.8521 41.4252C55.8521 34.2631 50.0254 28.4364 42.8632 28.4364C35.7011 28.4364 29.8743 34.2631 29.8743 41.4252ZM33.1174 53.0491C31.6803 51.8422 30.4694 50.3747 29.5583 48.7197H28.0288V67.8125H33.1174V53.0491ZM46.3225 56.2034C45.211 56.4636 44.0528 56.6016 42.8631 56.6016C42.3127 56.6016 41.7694 56.5713 41.234 56.5139V67.8125H46.3225V56.2034ZM67.7573 61.8818L60.0239 54.3774C59.9807 54.3354 59.9303 54.3263 59.8946 54.3263C59.8935 54.3263 59.8924 54.3263 59.8914 54.3263C59.8553 54.3268 59.8034 54.3368 59.7603 54.3813L56.9681 57.2588C56.925 57.3032 56.9166 57.3554 56.9171 57.3914C56.9177 57.4273 56.9276 57.4792 56.9719 57.5224L64.7056 65.0269C64.7771 65.0962 64.9003 65.0943 64.9694 65.023L67.7615 62.1455C67.8305 62.0743 67.8286 61.951 67.7573 61.8818ZM22.1 37.5493V68.9062C22.1 69.5103 21.6103 70 21.0063 70H13.7301C13.1261 70 12.6364 69.5103 12.6364 68.9062V37.5493C12.6364 36.9452 13.1261 36.4555 13.7301 36.4555H21.0063C21.6102 36.4555 22.1 36.9452 22.1 37.5493ZM19.9125 38.643H14.8239V67.8125H19.9125V38.643ZM31.5156 41.4252C31.5156 35.1682 36.606 30.0776 42.8632 30.0776C49.1205 30.0776 54.2109 35.1682 54.2109 41.4252C54.2109 47.6823 49.1205 52.7729 42.8632 52.7729C36.606 52.7729 31.5156 47.6823 31.5156 41.4252ZM42.8632 50.5854C45.1328 50.5854 47.2106 49.7539 48.8126 48.3819C48.256 45.5681 45.7881 43.5079 42.8632 43.5079C39.9384 43.5079 37.4706 45.5681 36.9139 48.382C38.5159 49.7539 40.5937 50.5854 42.8632 50.5854ZM42.8632 41.3204C44.2564 41.3204 45.3898 40.1868 45.3898 38.7937C45.3898 37.4005 44.2564 36.2671 42.8632 36.2671C41.4701 36.2671 40.3367 37.4005 40.3367 38.7937C40.3367 40.1868 41.4699 41.3204 42.8632 41.3204ZM33.7031 41.4252C33.7031 43.283 34.2605 45.0123 35.2148 46.4577C36.0138 44.4865 37.5449 42.9138 39.4595 42.0502C38.6488 41.2031 38.1492 40.056 38.1492 38.7937C38.1492 36.1942 40.2639 34.0796 42.8632 34.0796C45.4625 34.0796 47.5773 36.1944 47.5773 38.7937C47.5773 40.056 47.0776 41.2031 46.267 42.0502C48.1816 42.9138 49.7129 44.4865 50.5117 46.4577C51.4659 45.0123 52.0234 43.2831 52.0234 41.4252C52.0234 36.3743 47.9142 32.2651 42.8632 32.2651C37.8123 32.2651 33.7031 36.3743 33.7031 41.4252Z" fill="#617792"/>
</g>
<defs>
<clipPath id="clip0_1599_92">
<rect width="70" height="70" fill="white"/>
</clipPath>
</defs>
</svg>
