<svg width="70" height="70" viewBox="0 0 70 70" fill="none" xmlns="http://www.w3.org/2000/svg">
<path fill-rule="evenodd" clip-rule="evenodd" d="M7.87755 8.7775H62.125C62.49 8.7775 62.8201 8.6275 63.0601 8.3875C63.3001 8.1475 63.4501 7.815 63.4501 7.4525C63.4501 7.09 63.3001 6.7575 63.0601 6.5175C62.8201 6.2775 62.4875 6.1275 62.125 6.1275H7.87755C7.51255 6.1275 7.18255 6.2775 6.94255 6.5175C6.70255 6.7575 6.55255 7.09 6.55255 7.4525C6.55255 7.8175 6.70255 8.1475 6.94255 8.3875C7.18005 8.6275 7.51255 8.7775 7.87755 8.7775ZM36 54.32C36.495 54.48 36.94 54.755 37.3 55.115C37.8875 55.7025 38.2525 56.5175 38.2525 57.415C38.2525 58.3125 37.8875 59.1275 37.3 59.715C36.7125 60.3025 35.8975 60.6675 35 60.6675C34.1025 60.6675 33.2876 60.3025 32.7001 59.715C32.1126 59.1275 31.7475 58.3125 31.7475 57.415C31.7475 56.5175 32.1126 55.7025 32.7001 55.115C33.0601 54.755 33.505 54.48 34 54.32V51.4625H26.8326L18.4 65.39C18.2125 65.7 17.885 65.87 17.5475 65.87L12.895 65.875C12.3425 65.875 11.895 65.4275 11.895 64.875C11.895 64.7175 11.9325 64.5675 11.9975 64.4325L17.2325 51.4625H7.87755C7.32505 51.4625 6.87755 51.015 6.87755 50.4625V10.625C6.36255 10.4625 5.90005 10.175 5.52755 9.8025C4.92505 9.2 4.55005 8.3675 4.55005 7.4525C4.55005 6.5375 4.92505 5.705 5.52755 5.1025C6.13005 4.5 6.96255 4.125 7.87755 4.125H62.125C63.04 4.125 63.8725 4.5 64.475 5.1025C65.0775 5.705 65.4525 6.5375 65.4525 7.4525C65.4525 8.3675 65.0775 9.2 64.475 9.8025C64.1025 10.175 63.64 10.4625 63.125 10.625V50.465C63.125 51.0175 62.6775 51.465 62.125 51.465H52.7676L58 64.4325C58.065 64.565 58.1026 64.715 58.1026 64.875C58.1026 65.4275 57.6551 65.875 57.1026 65.875L52.4501 65.87C52.1126 65.87 51.785 65.7 51.5975 65.39L43.1651 51.4625H36V54.32ZM35.885 56.53C35.6575 56.3025 35.345 56.1625 35 56.1625C34.655 56.1625 34.3401 56.3025 34.1151 56.53C33.8876 56.7575 33.7476 57.07 33.7476 57.415C33.7476 57.76 33.8876 58.075 34.1151 58.3C34.3426 58.5275 34.655 58.6675 35 58.6675C35.345 58.6675 35.66 58.5275 35.885 58.3C36.1125 58.0725 36.2525 57.76 36.2525 57.415C36.2525 57.07 36.1125 56.7575 35.885 56.53ZM17.9675 15.8H23.0025C23.555 15.8 24.0025 15.3525 24.0025 14.8C24.0025 14.2475 23.555 13.8 23.0025 13.8H17.9675C17.415 13.8 16.9675 14.2475 16.9675 14.8C16.9675 15.3525 17.415 15.8 17.9675 15.8ZM17.9675 23.3H29.705C30.2575 23.3 30.705 22.8525 30.705 22.3C30.705 21.7475 30.2575 21.3 29.705 21.3H17.9675C17.415 21.3 16.9675 21.7475 16.9675 22.3C16.9675 22.8525 17.415 23.3 17.9675 23.3ZM17.9675 19.55H29.705C30.2575 19.55 30.705 19.1025 30.705 18.55C30.705 17.9975 30.2575 17.55 29.705 17.55H17.9675C17.415 17.55 16.9675 17.9975 16.9675 18.55C16.9675 19.1025 17.415 19.55 17.9675 19.55ZM48.4351 17.0525L49.4875 17.5L17.5775 31.1C17.07 31.315 16.835 31.9025 17.05 32.4075C17.265 32.915 17.8525 33.15 18.3575 32.935L50.1426 19.385L49.75 20.315C49.535 20.8225 49.77 21.4075 50.2775 21.6225C50.785 21.8375 51.37 21.6025 51.585 21.095L52.9501 17.8875C53.1651 17.38 52.9301 16.795 52.4226 16.58L49.215 15.215C48.7075 15 48.1226 15.235 47.9076 15.7425C47.6901 16.25 47.9276 16.835 48.4351 17.0525ZM44.515 43.1075H51.03V27.64H44.515V43.1075ZM52.0326 45.1075C52.5851 45.1075 53.0326 44.66 53.0326 44.1075V26.64C53.0326 26.0875 52.5851 25.64 52.0326 25.64H43.5176C42.9651 25.64 42.5176 26.0875 42.5176 26.64V44.1075C42.5176 44.66 42.9651 45.1075 43.5176 45.1075H52.0326ZM31.7425 43.1075H38.2575V33.0875H31.7425V43.1075ZM39.2575 45.1075C39.81 45.1075 40.2575 44.66 40.2575 44.1075V32.0875C40.2575 31.535 39.81 31.0875 39.2575 31.0875H30.7425C30.19 31.0875 29.7425 31.535 29.7425 32.0875V44.1075C29.7425 44.66 30.19 45.1075 30.7425 45.1075H39.2575ZM18.9675 43.1075H25.4825V38.5325H18.9675V43.1075ZM26.4851 45.1075C27.0376 45.1075 27.4851 44.66 27.4851 44.1075V37.5325C27.4851 36.98 27.0376 36.5325 26.4851 36.5325H17.9675C17.415 36.5325 16.9675 36.98 16.9675 37.5325V44.1075C16.9675 44.66 17.415 45.1075 17.9675 45.1075H26.4851ZM50.6151 51.4625H45.495L53.01 63.875H55.625L50.6151 51.4625ZM24.505 51.4625H19.385L14.3775 63.875H16.9925L24.505 51.4625ZM61.1226 10.7775H8.87755V49.4625H61.125V10.7775H61.1226Z" fill="#617792"/>
</svg>
