<svg width="70" height="70" viewBox="0 0 70 70" fill="none" xmlns="http://www.w3.org/2000/svg">
<path d="M68.9062 35C68.9062 30.1448 66.0089 25.9612 61.8581 24.0625C66.0089 22.1638 68.9062 17.9802 68.9062 13.125C68.9062 6.49141 63.5086 1.09375 56.875 1.09375C53.1475 1.09375 49.8105 2.79891 47.6011 5.46875H6.5625C3.54703 5.46875 1.09375 7.92203 1.09375 10.9375C1.09375 12.3616 2.01141 13.5647 3.28125 14.0175V51.4062H28.4375V58.0792C25.9448 58.5878 24.0625 60.7961 24.0625 63.4375C24.0625 66.453 26.5158 68.9062 29.5312 68.9062C32.5467 68.9062 35 66.453 35 63.4375C35 60.7972 33.1177 58.5878 30.625 58.0792V51.4062H46.1716C45.3294 53.0491 44.8438 54.9052 44.8438 56.875C44.8438 63.5086 50.2414 68.9062 56.875 68.9062C63.5086 68.9062 68.9062 63.5086 68.9062 56.875C68.9062 52.0198 66.0089 47.8362 61.8581 45.9375C66.0089 44.0388 68.9062 39.8552 68.9062 35ZM56.875 22.9688C54.3014 22.9688 51.963 21.968 50.2064 20.3448C51.5495 17.9375 54.0848 16.4062 56.875 16.4062C59.6652 16.4062 62.2005 17.9375 63.5436 20.3448C61.787 21.968 59.4486 22.9688 56.875 22.9688ZM53.5938 10.9375C53.5938 9.12844 55.0659 7.65625 56.875 7.65625C58.6841 7.65625 60.1562 9.12844 60.1562 10.9375C60.1562 12.7466 58.6841 14.2188 56.875 14.2188C55.0659 14.2188 53.5938 12.7466 53.5938 10.9375ZM56.875 3.28125C62.3033 3.28125 66.7188 7.69781 66.7188 13.125C66.7188 15.1528 66.1019 17.0395 65.0464 18.6069C63.9406 16.9509 62.37 15.6931 60.5522 14.957C61.6459 13.9573 62.3438 12.5322 62.3438 10.9375C62.3438 7.92203 59.8905 5.46875 56.875 5.46875C53.8595 5.46875 51.4062 7.92203 51.4062 10.9375C51.4062 12.5322 52.1041 13.9573 53.1978 14.9581C51.3811 15.6931 49.8094 16.952 48.7036 18.608C47.6481 17.0395 47.0312 15.1528 47.0312 13.125C47.0312 7.69781 51.4467 3.28125 56.875 3.28125ZM3.28125 10.9375C3.28125 9.12844 4.75344 7.65625 6.5625 7.65625H46.1716C45.4869 8.99172 45.0406 10.4672 44.8984 12.0312H4.375C3.77125 12.0312 3.28125 11.5402 3.28125 10.9375ZM32.8125 63.4375C32.8125 65.2466 31.3403 66.7188 29.5312 66.7188C27.7222 66.7188 26.25 65.2466 26.25 63.4375C26.25 61.6284 27.7222 60.1562 29.5312 60.1562C31.3403 60.1562 32.8125 61.6284 32.8125 63.4375ZM5.46875 49.2188V14.2188H44.8995C45.2966 18.6036 48.0572 22.3081 51.893 24.0625C47.7411 25.9612 44.8438 30.1448 44.8438 35C44.8438 39.8552 47.7411 44.0388 51.8919 45.9375C50.225 46.6998 48.7561 47.822 47.6011 49.2188H5.46875ZM56.875 66.7188C54.3014 66.7188 51.963 65.718 50.2064 64.0948C51.5495 61.6875 54.0848 60.1562 56.875 60.1562C59.6652 60.1562 62.2005 61.6875 63.5436 64.0948C61.787 65.718 59.4486 66.7188 56.875 66.7188ZM53.5938 54.6875C53.5938 52.8784 55.0659 51.4062 56.875 51.4062C58.6841 51.4062 60.1562 52.8784 60.1562 54.6875C60.1562 56.4966 58.6841 57.9688 56.875 57.9688C55.0659 57.9688 53.5938 56.4966 53.5938 54.6875ZM66.7188 56.875C66.7188 58.9028 66.1019 60.7895 65.0464 62.3569C63.9406 60.7009 62.37 59.4431 60.5522 58.707C61.6459 57.7073 62.3438 56.2822 62.3438 54.6875C62.3438 51.672 59.8905 49.2188 56.875 49.2188C53.8595 49.2188 51.4062 51.672 51.4062 54.6875C51.4062 56.2822 52.1041 57.7073 53.1978 58.7081C51.3811 59.4431 49.8094 60.702 48.7036 62.358C47.6481 60.7895 47.0312 58.9028 47.0312 56.875C47.0312 51.4478 51.4467 47.0312 56.875 47.0312C62.3033 47.0312 66.7188 51.4478 66.7188 56.875ZM56.875 44.8438C54.3014 44.8438 51.963 43.843 50.2064 42.2198C51.5495 39.8125 54.0848 38.2812 56.875 38.2812C59.6652 38.2812 62.2005 39.8125 63.5436 42.2198C61.787 43.843 59.4486 44.8438 56.875 44.8438ZM53.5938 32.8125C53.5938 31.0034 55.0659 29.5312 56.875 29.5312C58.6841 29.5312 60.1562 31.0034 60.1562 32.8125C60.1562 34.6216 58.6841 36.0938 56.875 36.0938C55.0659 36.0938 53.5938 34.6216 53.5938 32.8125ZM60.5522 36.8331C61.6459 35.8323 62.3438 34.4072 62.3438 32.8125C62.3438 29.797 59.8905 27.3438 56.875 27.3438C53.8595 27.3438 51.4062 29.797 51.4062 32.8125C51.4062 34.4072 52.1041 35.8323 53.1978 36.8331C51.3811 37.5681 49.8094 38.827 48.7036 40.483C47.6481 38.9145 47.0312 37.0278 47.0312 35C47.0312 29.5728 51.4467 25.1562 56.875 25.1562C62.3033 25.1562 66.7188 29.5728 66.7188 35C66.7188 37.0278 66.1019 38.9145 65.0464 40.4819C63.9406 38.827 62.3689 37.5681 60.5522 36.8331Z" fill="#617792"/>
<path d="M7.65625 47.0312H16.4062V33.9062H7.65625V47.0312ZM9.84375 36.0938H14.2188V44.8438H9.84375V36.0938Z" fill="#617792"/>
<path d="M18.5938 47.0312H27.3438V31.7188H18.5938V47.0312ZM20.7812 33.9062H25.1562V44.8438H20.7812V33.9062Z" fill="#617792"/>
<path d="M29.5312 47.0312H38.2812V29.5312H29.5312V47.0312ZM31.7188 31.7188H36.0938V44.8438H31.7188V31.7188Z" fill="#617792"/>
<path d="M7.65625 16.4062H12.0312V18.5938H7.65625V16.4062Z" fill="#617792"/>
<path d="M14.2188 16.4062H27.3438V18.5938H14.2188V16.4062Z" fill="#617792"/>
<path d="M7.65625 20.7812H27.3438V22.9688H7.65625V20.7812Z" fill="#617792"/>
<path d="M7.65625 25.1562H27.3438V27.3438H7.65625V25.1562Z" fill="#617792"/>
</svg>
