<svg width="70" height="70" viewBox="0 0 70 70" fill="none" xmlns="http://www.w3.org/2000/svg">
<path d="M60.3433 17.5H59.9681C57.6592 17.5 55.7812 19.378 55.7812 21.688V22.9688H57.9688V21.688C57.9688 20.5844 58.8656 19.6875 59.9692 19.6875H60.3444C61.4469 19.6875 62.3438 20.5844 62.3438 21.688C62.3438 22.2217 62.1359 22.7237 61.7575 23.1022L59.0625 25.7972V28.4375H61.25V26.7028L63.3041 24.6487C64.0959 23.858 64.5312 22.8058 64.5312 21.688C64.5312 19.378 62.6533 17.5 60.3433 17.5Z" fill="#617792"/>
<path d="M63.4375 13.125H60.1562V4.375C60.1562 2.56594 58.6841 1.09375 56.875 1.09375H4.375C2.56594 1.09375 1.09375 2.56594 1.09375 4.375V53.7808C1.09375 54.6569 1.435 55.4816 2.05516 56.1017L13.8983 67.9448C14.5173 68.565 15.342 68.9062 16.2192 68.9062H56.875C58.6841 68.9062 60.1562 67.4341 60.1562 65.625V37.1875H63.4375C66.453 37.1875 68.9062 34.7342 68.9062 31.7188V18.5938C68.9062 15.5783 66.453 13.125 63.4375 13.125ZM4.82781 55.7812H13.125C13.7277 55.7812 14.2188 56.2723 14.2188 56.875V65.1722L4.82781 55.7812ZM57.9688 65.625C57.9688 66.2277 57.4777 66.7188 56.875 66.7188H16.4062V56.875C16.4062 55.0659 14.9341 53.5938 13.125 53.5938H3.28125V4.375C3.28125 3.77234 3.77234 3.28125 4.375 3.28125H56.875C57.4777 3.28125 57.9688 3.77234 57.9688 4.375V13.125H35C31.9845 13.125 29.5312 15.5783 29.5312 18.5938V31.7188C29.5312 34.7342 31.9845 37.1875 35 37.1875H36.0938V38.2812C36.0938 40.0903 37.5659 41.5625 39.375 41.5625C40.402 41.5625 41.3831 41.0725 42 40.25L44.2969 37.1875H57.9688V65.625ZM66.7188 31.7188C66.7188 33.5278 65.2466 35 63.4375 35H43.2031L40.25 38.9375C40.0444 39.212 39.7173 39.375 39.375 39.375C38.7723 39.375 38.2812 38.8839 38.2812 38.2812V35H35C33.1909 35 31.7188 33.5278 31.7188 31.7188V18.5938C31.7188 16.7847 33.1909 15.3125 35 15.3125H63.4375C65.2466 15.3125 66.7188 16.7847 66.7188 18.5938V31.7188Z" fill="#617792"/>
<path d="M59.0625 30.625H61.25V32.8125H59.0625V30.625Z" fill="#617792"/>
<path d="M49.4058 17.5H49.0306C46.7217 17.5 44.8438 19.378 44.8438 21.688V22.9688H47.0312V21.688C47.0312 20.5844 47.9281 19.6875 49.0317 19.6875H49.4069C50.5094 19.6875 51.4062 20.5844 51.4062 21.688C51.4062 22.2217 51.1984 22.7237 50.82 23.1022L48.125 25.7972V28.4375H50.3125V26.7028L52.3666 24.6487C53.1584 23.858 53.5938 22.8058 53.5938 21.688C53.5938 19.378 51.7158 17.5 49.4058 17.5Z" fill="#617792"/>
<path d="M48.125 30.625H50.3125V32.8125H48.125V30.625Z" fill="#617792"/>
<path d="M38.4683 17.5H38.0931C35.7842 17.5 33.9062 19.378 33.9062 21.688V22.9688H36.0938V21.688C36.0938 20.5844 36.9906 19.6875 38.0942 19.6875H38.4694C39.5719 19.6875 40.4688 20.5844 40.4688 21.688C40.4688 22.2217 40.2609 22.7237 39.8825 23.1022L37.1875 25.7972V28.4375H39.375V26.7028L41.4291 24.6487C42.2209 23.858 42.6562 22.8058 42.6562 21.688C42.6562 19.378 40.7783 17.5 38.4683 17.5Z" fill="#617792"/>
<path d="M37.1875 30.625H39.375V32.8125H37.1875V30.625Z" fill="#617792"/>
<path d="M33.9062 53.5938C33.9062 59.6247 38.8128 64.5312 44.8438 64.5312C50.8747 64.5312 55.7812 59.6247 55.7812 53.5938C55.7812 47.5628 50.8747 42.6562 44.8438 42.6562C38.8128 42.6562 33.9062 47.5628 33.9062 53.5938ZM40.6448 54.7542L36.7784 56.9866C36.3377 55.9431 36.0938 54.7958 36.0938 53.5938C36.0938 52.3917 36.3377 51.2444 36.7784 50.2009L40.6448 52.4333C40.542 52.8052 40.4688 53.1891 40.4688 53.5938C40.4688 53.9984 40.542 54.3823 40.6448 54.7542ZM37.8842 58.8755L41.7277 56.6562C42.2745 57.213 42.9723 57.6111 43.75 57.8134V62.2683C41.3612 61.9675 39.2744 60.7031 37.8842 58.8755ZM44.8438 51.4062C46.0502 51.4062 47.0312 52.3873 47.0312 53.5938C47.0312 54.8002 46.0502 55.7812 44.8438 55.7812C43.6373 55.7812 42.6562 54.8002 42.6562 53.5938C42.6562 52.3873 43.6373 51.4062 44.8438 51.4062ZM45.9375 62.2683V57.8134C46.7152 57.6111 47.413 57.213 47.9598 56.6562L51.8033 58.8755C50.4131 60.7031 48.3263 61.9675 45.9375 62.2683ZM53.5938 53.5938C53.5938 54.7958 53.3498 55.9431 52.9091 56.9866L49.0427 54.7542C49.1455 54.3823 49.2188 53.9984 49.2188 53.5938C49.2188 53.1891 49.1455 52.8052 49.0427 52.4333L52.9091 50.2009C53.3498 51.2444 53.5938 52.3917 53.5938 53.5938ZM51.8033 48.312L47.9598 50.5313C47.413 49.9745 46.7152 49.5764 45.9375 49.3741V44.9192C48.3263 45.22 50.4131 46.4844 51.8033 48.312ZM43.75 44.9192V49.3741C42.9723 49.5764 42.2745 49.9745 41.7277 50.5313L37.8842 48.312C39.2744 46.4844 41.3612 45.22 43.75 44.9192Z" fill="#617792"/>
<path d="M27.3438 5.46875H5.46875V18.5938H27.3438V5.46875ZM25.1562 16.4062H7.65625V7.65625H25.1562V16.4062Z" fill="#617792"/>
<path d="M5.46875 20.7812H27.3438V22.9688H5.46875V20.7812Z" fill="#617792"/>
<path d="M22.9688 25.1562H27.3438V27.3438H22.9688V25.1562Z" fill="#617792"/>
<path d="M5.46875 25.1562H20.7812V27.3438H5.46875V25.1562Z" fill="#617792"/>
<path d="M5.46875 29.5312H27.3438V31.7188H5.46875V29.5312Z" fill="#617792"/>
<path d="M5.46875 33.9062H7.65625V36.0938H5.46875V33.9062Z" fill="#617792"/>
<path d="M9.84375 33.9062H27.3438V36.0938H9.84375V33.9062Z" fill="#617792"/>
<path d="M5.46875 38.2812H27.3438V40.4688H5.46875V38.2812Z" fill="#617792"/>
<path d="M5.46875 42.6562H27.3438V44.8438H5.46875V42.6562Z" fill="#617792"/>
<path d="M18.5938 62.3438H31.7188V64.5312H18.5938V62.3438Z" fill="#617792"/>
<path d="M18.5938 57.9688H31.7188V60.1562H18.5938V57.9688Z" fill="#617792"/>
<path d="M18.5938 53.5938H31.7188V55.7812H18.5938V53.5938Z" fill="#617792"/>
</svg>
