<svg width="70" height="70" viewBox="0 0 70 70" fill="none" xmlns="http://www.w3.org/2000/svg">
<g clip-path="url(#clip0_1599_581)">
<path d="M53.7076 61.4319H50.7012" stroke="#617792" stroke-width="2" stroke-miterlimit="10" stroke-linecap="round" stroke-linejoin="round"/>
<path d="M45.916 61.4319H42.9219" stroke="#617792" stroke-width="2" stroke-miterlimit="10" stroke-linecap="round" stroke-linejoin="round"/>
<path d="M16.4043 61.4314H27.365" stroke="#617792" stroke-width="2" stroke-miterlimit="10" stroke-linecap="round" stroke-linejoin="round"/>
<path d="M8.56836 42.8453V53.6665" stroke="#617792" stroke-width="2" stroke-miterlimit="10" stroke-linecap="round" stroke-linejoin="round"/>
<path d="M20.9646 35H16.5664" stroke="#617792" stroke-width="2" stroke-miterlimit="10" stroke-linecap="round" stroke-linejoin="round"/>
<path d="M53.6019 35H49.0059" stroke="#617792" stroke-width="2" stroke-miterlimit="10" stroke-linecap="round" stroke-linejoin="round"/>
<path d="M61.4316 16.4092V27.114" stroke="#617792" stroke-width="2" stroke-miterlimit="10" stroke-linecap="round" stroke-linejoin="round"/>
<path d="M42.9785 8.5686H53.6367" stroke="#617792" stroke-width="2" stroke-miterlimit="10" stroke-linecap="round" stroke-linejoin="round"/>
<path d="M16.4004 8.5686H27.2475" stroke="#617792" stroke-width="2" stroke-miterlimit="10" stroke-linecap="round" stroke-linejoin="round"/>
<path d="M10.9607 16.1123H14.7396C15.4971 16.1123 16.1123 15.4971 16.1123 14.7396V2.39668C16.1123 1.63926 15.4971 1.02539 14.7396 1.02539H2.39668C1.63926 1.02539 1.02539 1.63926 1.02539 2.39668V14.7396C1.02539 15.4971 1.63926 16.1123 2.39668 16.1123H6.17559" stroke="#617792" stroke-width="2" stroke-miterlimit="10" stroke-linecap="round" stroke-linejoin="round"/>
<path d="M41.1718 68.9747H28.8285C28.071 68.9747 27.457 68.3607 27.457 67.6032V55.2599C27.457 54.5024 28.071 53.8884 28.8285 53.8884H41.1718C41.9293 53.8884 42.5433 54.5024 42.5433 55.2599V67.6032C42.5433 68.3607 41.9293 68.9747 41.1718 68.9747Z" stroke="#617792" stroke-width="2" stroke-miterlimit="10" stroke-linecap="round" stroke-linejoin="round"/>
<path d="M14.7403 42.5431H2.39682C1.63939 42.5431 1.02539 41.9291 1.02539 41.1717V28.8283C1.02539 28.0709 1.63939 27.4569 2.39682 27.4569H14.7402C15.4976 27.4569 16.1116 28.0709 16.1116 28.8283V41.1717C16.1118 41.9291 15.4978 42.5431 14.7403 42.5431Z" stroke="#617792" stroke-width="2" stroke-miterlimit="10" stroke-linecap="round" stroke-linejoin="round"/>
<path d="M63.8234 42.5428H67.6023C68.3598 42.5428 68.9736 41.929 68.9736 41.1715V28.8286C68.9736 28.0711 68.3598 27.4573 67.6023 27.4573H55.2594C54.502 27.4573 53.8867 28.0711 53.8867 28.8286V41.1715C53.8867 41.929 54.502 42.5428 55.2594 42.5428H59.0383" stroke="#617792" stroke-width="2" stroke-miterlimit="10" stroke-linecap="round" stroke-linejoin="round"/>
<path d="M41.1718 16.1118H28.8285C28.071 16.1118 27.457 15.4978 27.457 14.7403V2.39682C27.457 1.63939 28.071 1.02539 28.8285 1.02539H41.1718C41.9293 1.02539 42.5433 1.63939 42.5433 2.39682V14.7402C42.5433 15.4978 41.9293 16.1118 41.1718 16.1118Z" stroke="#617792" stroke-width="2" stroke-miterlimit="10" stroke-linecap="round" stroke-linejoin="round"/>
<path d="M67.6035 68.9747H55.2601C54.5027 68.9747 53.8887 68.3607 53.8887 67.6032V55.2599C53.8887 54.5024 54.5027 53.8884 55.2601 53.8884H67.6035C68.3609 53.8884 68.9749 54.5024 68.9749 55.2599V67.6032C68.9749 68.3607 68.3609 68.9747 67.6035 68.9747Z" stroke="#617792" stroke-width="2" stroke-miterlimit="10" stroke-linecap="round" stroke-linejoin="round"/>
<path d="M1.02539 63.8244V67.6033C1.02539 68.3607 1.63926 68.9746 2.39668 68.9746H14.7396C15.4971 68.9746 16.1123 68.3607 16.1123 67.6033V55.2604C16.1123 54.5029 15.4971 53.8877 14.7396 53.8877H2.39668C1.63926 53.8877 1.02539 54.5029 1.02539 55.2604V59.0393" stroke="#617792" stroke-width="2" stroke-miterlimit="10" stroke-linecap="round" stroke-linejoin="round"/>
<path d="M68.9749 2.39682V14.7402C68.9749 15.4976 68.3609 16.1116 67.6035 16.1116H55.2601C54.5027 16.1116 53.8887 15.4976 53.8887 14.7402V2.39682C53.8887 1.63939 54.5027 1.02539 55.2601 1.02539H67.6035C68.3609 1.02539 68.9749 1.63939 68.9749 2.39682Z" stroke="#617792" stroke-width="2" stroke-miterlimit="10" stroke-linecap="round" stroke-linejoin="round"/>
<path d="M48.7944 36.9645V33.0586C48.7944 32.6055 48.4272 32.2383 47.9741 32.2383H46.3001C46.0168 31.0751 45.5592 29.9802 44.9555 28.9834L46.1433 27.7956C46.4636 27.4753 46.4636 26.9559 46.1433 26.6355L43.3816 23.8735C43.0612 23.5532 42.5419 23.5532 42.2215 23.8735L41.0377 25.0574C40.0421 24.4516 38.9481 23.9918 37.7855 23.7062V22.0266C37.7855 21.5735 37.4183 21.2063 36.9652 21.2063H33.0593C32.6062 21.2063 32.239 21.5735 32.239 22.0266V23.7006C31.0758 23.9839 29.981 24.4415 28.9841 25.0452L27.7963 23.8574C27.476 23.5371 26.9566 23.5371 26.6363 23.8574L23.8743 26.6191C23.5539 26.9395 23.5539 27.4589 23.8743 27.7792L25.0581 28.963C24.4523 29.9586 23.9927 31.0502 23.7069 32.2127H22.0273C21.5743 32.2127 21.207 32.5799 21.207 33.033V36.9414C21.207 37.3945 21.5743 37.7617 22.0273 37.7617H23.7013C23.9846 38.9249 24.4422 40.0198 25.046 41.0166L23.8581 42.2044C23.5378 42.5247 23.5378 43.0441 23.8581 43.3644L26.62 46.1263C26.9403 46.4466 27.4597 46.4466 27.7801 46.1263L28.9639 44.9424C29.9595 45.5483 31.0535 46.0079 32.216 46.2936V47.9732C32.216 48.4263 32.5833 48.7935 33.0363 48.7935H36.9421C37.3952 48.7935 37.7624 48.4263 37.7624 47.9732V46.2992C38.9256 46.016 40.0205 45.5584 41.0173 44.9546L42.2051 46.1424C42.5255 46.4628 43.0448 46.4628 43.3652 46.1424L46.127 43.3806C46.4474 43.0602 46.4474 42.5408 46.127 42.2205L44.9432 41.0367C45.549 40.0411 46.0086 38.9471 46.2944 37.7845H47.974C48.4272 37.7848 48.7944 37.4175 48.7944 36.9645Z" stroke="#617792" stroke-width="2" stroke-miterlimit="10" stroke-linecap="round" stroke-linejoin="round"/>
<path d="M34.9993 42.0774C38.908 42.0774 42.0766 38.9087 42.0766 35C42.0766 31.0913 38.908 27.9226 34.9993 27.9226C31.0905 27.9226 27.9219 31.0913 27.9219 35C27.9219 38.9087 31.0905 42.0774 34.9993 42.0774Z" stroke="#617792" stroke-width="2" stroke-miterlimit="10" stroke-linecap="round" stroke-linejoin="round"/>
<path d="M5.05273 8.34426L7.94147 11.5971L12.6611 5.54016" stroke="#617792" stroke-width="2" stroke-miterlimit="10" stroke-linecap="round" stroke-linejoin="round"/>
<path d="M31.1953 8.32986L34.084 11.5827L38.8037 5.52576" stroke="#617792" stroke-width="2" stroke-miterlimit="10" stroke-linecap="round" stroke-linejoin="round"/>
<path d="M57.627 8.32986L60.5157 11.5827L65.2354 5.52576" stroke="#617792" stroke-width="2" stroke-miterlimit="10" stroke-linecap="round" stroke-linejoin="round"/>
<path d="M57.627 34.7757L60.5157 38.0285L65.2354 31.9716" stroke="#617792" stroke-width="2" stroke-miterlimit="10" stroke-linecap="round" stroke-linejoin="round"/>
</g>
<defs>
<clipPath id="clip0_1599_581">
<rect width="70" height="70" fill="white"/>
</clipPath>
</defs>
</svg>
