<svg width="70" height="70" viewBox="0 0 70 70" fill="none" xmlns="http://www.w3.org/2000/svg">
<g clip-path="url(#clip0_1599_530)">
<path fill-rule="evenodd" clip-rule="evenodd" d="M21.1593 65.2434H7.62677C7.09367 65.2434 6.68359 64.8333 6.68359 64.3002V54.9915C6.68359 54.4584 7.09367 54.0483 7.62677 54.0483H21.1593C21.6924 54.0483 22.1025 54.4584 22.1025 54.9915V64.3002C22.1025 64.8333 21.6924 65.2434 21.1593 65.2434ZM8.56994 63.3571H20.2161V55.9347H8.56994V63.3571Z" fill="#617792"/>
<path fill-rule="evenodd" clip-rule="evenodd" d="M34.6925 65.2433H21.16C20.6269 65.2433 20.2168 64.8332 20.2168 64.3001V44.2474C20.2168 43.7143 20.6269 43.3042 21.16 43.3042H34.6925C35.2256 43.3042 35.6767 43.7143 35.6767 44.2474V64.3001C35.6767 64.8332 35.2256 65.2433 34.6925 65.2433ZM22.1031 63.3569H33.7493V45.2316H22.1031V63.3569Z" fill="#617792"/>
<path fill-rule="evenodd" clip-rule="evenodd" d="M48.2647 65.2432H34.6912C34.1581 65.2432 33.748 64.8332 33.748 64.3001V32.8062C33.748 32.3141 34.1581 31.863 34.6912 31.863H48.2647C48.7978 31.863 49.2079 32.3141 49.2079 32.8062V64.3001C49.2079 64.8332 48.7978 65.2432 48.2647 65.2432ZM35.6754 63.3569H47.2806V33.7904H35.6754V63.3569Z" fill="#617792"/>
<path fill-rule="evenodd" clip-rule="evenodd" d="M61.7979 65.2433H48.2654C47.7323 65.2433 47.2812 64.8332 47.2812 64.3001V19.4378C47.2812 18.9457 47.7323 18.4946 48.2654 18.4946H61.7979C62.331 18.4946 62.7411 18.9457 62.7411 19.4378V64.3001C62.7411 64.8332 62.331 65.2433 61.7979 65.2433ZM49.2086 63.357H60.8548V20.422H49.2086V63.357Z" fill="#617792"/>
<path fill-rule="evenodd" clip-rule="evenodd" d="M68.4417 69.5901H0.943175C0.410076 69.5901 0 69.139 0 68.6059V64.3001C0 63.767 0.410076 63.3569 0.943175 63.3569H68.4417C68.9748 63.3569 69.4259 63.767 69.4259 64.3001V68.6059C69.4259 69.139 68.9748 69.5901 68.4417 69.5901ZM1.92736 67.6627H67.4985V65.2433H1.92736V67.6627Z" fill="#617792"/>
<path fill-rule="evenodd" clip-rule="evenodd" d="M15.6654 52.4079H3.69122C3.15812 52.4079 2.74805 51.9568 2.74805 51.4237C2.74805 50.8906 3.15812 50.4806 3.69122 50.4806H14.6813V39.1215C14.6813 38.5884 15.1323 38.1783 15.6654 38.1783H26.6555V26.8192C26.6555 26.2861 27.0656 25.835 27.5987 25.835H38.6297V14.5169C38.6297 13.9838 39.0398 13.5327 39.5729 13.5327H51.5471C52.0392 13.5327 52.4903 13.9838 52.4903 14.5169C52.4903 15.009 52.0392 15.4601 51.5471 15.4601H40.5161V26.8192C40.5161 27.3523 40.106 27.7624 39.5729 27.7624H28.5828V39.1215C28.5828 39.6546 28.1318 40.0646 27.5987 40.0646H16.6086V51.4237C16.6086 51.9568 16.1575 52.4079 15.6654 52.4079Z" fill="#617792"/>
<path fill-rule="evenodd" clip-rule="evenodd" d="M56.3438 17.2233C56.1798 17.2233 55.9748 17.1413 55.8107 17.0182C55.4827 16.8132 55.3597 16.4441 55.4417 16.0751L56.3438 11.1542L52.7352 7.75052C52.4481 7.50447 52.3661 7.0944 52.4481 6.76634C52.5711 6.39727 52.8992 6.15122 53.2683 6.11021L58.2302 5.4951L60.3216 0.943255C60.4856 0.615194 60.8137 0.410156 61.1827 0.410156C61.5928 0.410156 61.9209 0.615194 62.0849 0.943255L64.1763 5.4951L69.1382 6.11021C69.5073 6.15122 69.8353 6.39727 69.9584 6.76634C70.0404 7.0944 69.9584 7.50447 69.6713 7.75052L66.0216 11.1542L66.9648 16.0751C67.0468 16.4441 66.8828 16.8132 66.5957 17.0182C66.3087 17.2643 65.8986 17.2643 65.5705 17.1003L61.1827 14.6808L56.8359 17.1003C56.6719 17.1823 56.5079 17.2233 56.3438 17.2233ZM55.5237 7.75052L58.0662 10.129C58.3122 10.375 58.3942 10.7031 58.3532 11.0311L57.6971 14.4348L60.7317 12.7534C61.0187 12.5894 61.3878 12.5894 61.6748 12.7534L64.7094 14.4348L64.0533 11.0311C64.0123 10.7031 64.0943 10.375 64.3403 10.129L66.8828 7.75052L63.4382 7.29944C63.1101 7.25843 62.823 7.05339 62.7 6.76634L61.1827 3.60875L59.7065 6.76634C59.5834 7.05339 59.2964 7.25843 58.9683 7.29944L55.5237 7.75052Z" fill="#617792"/>
</g>
<defs>
<clipPath id="clip0_1599_530">
<rect width="70" height="70" fill="white"/>
</clipPath>
</defs>
</svg>
