<svg width="70" height="70" viewBox="0 0 70 70" fill="none" xmlns="http://www.w3.org/2000/svg">
<g clip-path="url(#clip0_1599_636)">
<path d="M16.6135 18.9479H36.7331C38.0589 18.9479 38.0589 16.8971 36.7331 16.8971H16.6135C15.2877 16.8971 15.2877 18.9479 16.6135 18.9479Z" fill="#617792"/>
<path d="M16.6135 26.4708H32.0847C33.4105 26.4708 33.4105 24.42 32.0847 24.42H16.6135C15.2877 24.42 15.2877 26.4708 16.6135 26.4708Z" fill="#617792"/>
<path d="M16.6135 33.9937H29.8972C31.223 33.9937 31.223 31.943 29.8972 31.943H16.6135C15.2877 31.943 15.2877 33.9937 16.6135 33.9937Z" fill="#617792"/>
<path d="M35.5073 59.1149H34.8279V49.0935C34.8279 48.5272 34.369 48.0681 33.8026 48.0681H29.6876V44.4536C29.6876 43.8873 29.2286 43.4282 28.6622 43.4282H23.5343C22.9679 43.4282 22.5089 43.8873 22.5089 44.4536V50.693H18.402C17.8356 50.693 17.3766 51.1521 17.3766 51.7184V59.1149H16.6973C16.1308 59.1149 15.6719 59.574 15.6719 60.1403C15.6719 60.7065 16.1308 61.1656 16.6973 61.1656H35.5072C36.0736 61.1656 36.5326 60.7065 36.5326 60.1403C36.5326 59.574 36.0736 59.1149 35.5073 59.1149ZM19.4275 59.1149V52.7438H22.5048V59.1149H19.4275ZM24.5598 59.1149V45.4789H27.637V59.1149H24.5598ZM29.6999 59.1149V50.1189H32.7772V59.1149H29.6999Z" fill="#617792"/>
<path d="M69.9912 31.9379C69.8577 27.6214 68.0996 23.5595 65.0405 20.5004C63.5727 19.0326 61.8998 17.8922 60.1136 17.0777C60.0837 17.0604 60.0526 17.0445 60.0205 17.03C59.9877 17.0152 59.9545 17.0023 59.9211 16.9914C57.611 15.9727 55.1182 15.4947 52.6366 15.5587V9.90924C52.6366 8.59592 51.5684 7.52746 50.2552 7.52746H48.7763V6.24723C48.7763 4.93391 47.7081 3.86545 46.395 3.86545H44.912V2.38178C44.9121 1.06846 43.8438 0 42.5307 0H2.38137C1.06818 0 0 1.06846 0 2.38178V60.0909C0 61.4042 1.06818 62.4727 2.38137 62.4727H3.86436V63.9563C3.86436 65.2697 4.93254 66.3381 6.24148 66.3381L7.72475 66.3441V67.6184C7.72475 68.9317 8.79293 70.0001 10.1061 70.0001H42.1364C42.4046 70.0001 42.6698 69.8908 42.8598 69.7015L52.3348 60.2714C52.5282 60.0789 52.6369 59.8173 52.6369 59.5446V49.379C52.7751 49.3824 52.9133 49.3857 53.0515 49.3857C55.9418 49.3857 58.8197 48.647 61.3368 47.2366C62.4936 46.5886 61.491 44.7999 60.3344 45.4475C54.8598 48.5153 48.0081 47.7594 43.3151 43.6763L53.3846 33.6068L67.1508 37.2548C66.544 39.0487 65.5851 40.7509 64.2686 42.2527C63.3947 43.2496 64.9366 44.6015 65.8107 43.6047C68.6394 40.378 70.124 36.2347 69.9912 31.9379ZM58.2267 18.5179L52.2184 31.8723L41.863 42.2278C36.7764 36.3936 37.0089 27.5041 42.5626 21.9505C46.7905 17.7226 52.9519 16.5789 58.2267 18.5179ZM6.24545 64.2872C6.0632 64.2872 5.915 64.1387 5.915 63.9562V6.24723C5.915 6.06471 6.0632 5.91623 6.24545 5.91623H13.3983C14.7241 5.91623 14.7241 3.86545 13.3983 3.86545H6.24545C4.9324 3.86545 3.86422 4.93391 3.86422 6.24723V60.4218H2.38137C2.19912 60.4218 2.05078 60.2733 2.05078 60.0908V2.38178C2.05078 2.19926 2.19912 2.05078 2.38137 2.05078H42.5307C42.713 2.05078 42.8613 2.19926 42.8613 2.38178V3.86559H19.1406C17.8149 3.86559 17.8149 5.91637 19.1406 5.91637H46.3951C46.5773 5.91637 46.7257 6.06484 46.7257 6.24736V7.5276H10.106C8.79293 7.5276 7.72461 8.59606 7.72461 9.90938V64.2934L6.24545 64.2872ZM9.77539 67.6182V9.90924C9.77539 9.72672 9.92373 9.57824 10.106 9.57824H50.2554C50.4376 9.57824 50.5859 9.72672 50.5859 9.90924V15.7361C47.1167 16.2482 43.7771 17.8359 41.1124 20.5006C34.5155 27.0975 34.5155 37.8316 41.1124 44.4287C43.7072 47.0233 46.9782 48.6675 50.5859 49.201V58.4311H43.4923C42.1792 58.4311 41.1109 59.4996 41.1109 60.8129V67.9492H10.106C9.92373 67.9492 9.77539 67.8007 9.77539 67.6182ZM43.1617 66.4911V60.8129C43.1617 60.6304 43.31 60.4819 43.4923 60.4819H49.1437L43.1617 66.4911ZM54.5074 31.7829L60.0979 19.3573C61.3535 20.029 62.5326 20.8929 63.5902 21.9506C67.1841 25.5447 68.5639 30.5781 67.6715 35.2714L54.5074 31.7829Z" fill="#617792"/>
</g>
<defs>
<clipPath id="clip0_1599_636">
<rect width="70" height="70" fill="white"/>
</clipPath>
</defs>
</svg>
