<svg width="70" height="70" viewBox="0 0 70 70" fill="none" xmlns="http://www.w3.org/2000/svg">
<g clip-path="url(#clip0_1599_643)">
<path d="M69.3833 32.4475C69.3566 31.9085 68.8961 31.4657 68.3538 31.4657H56.4638L58.3931 27.0655C58.5015 26.8184 58.5076 26.5269 58.4096 26.2755L57.4218 23.7398C57.9717 23.538 58.5048 23.2915 59.015 23.0012L61.4915 24.5328C61.9494 24.7881 62.3854 24.7269 62.7993 24.3495L65.1938 21.7192C65.5325 21.3474 65.5541 20.7856 65.2451 20.3887L63.4668 18.1053C63.6848 17.6188 63.865 17.1172 64.0063 16.6048L66.846 15.9492C67.334 15.8367 67.6709 15.3902 67.6456 14.8901L67.4667 11.3505C67.4415 10.8504 67.0612 10.4405 66.5645 10.3775L63.6731 10.0116C63.481 9.51608 63.2511 9.03535 62.9851 8.57322L64.524 6.12231C64.7915 5.69628 64.7135 5.1395 64.339 4.80372L61.6915 2.42818C61.3211 2.09584 60.7665 2.07476 60.3719 2.37775L58.0625 4.15117C57.5691 3.93306 57.0607 3.75284 56.5411 3.6123L55.8841 0.798738C55.7703 0.311945 55.3232 -0.0264531 54.8257 0.00165491L51.2601 0.181739C50.7609 0.206954 50.3514 0.585861 50.2873 1.08147L49.9174 3.94697C49.4146 4.13932 48.9269 4.3697 48.4581 4.63659L45.9816 3.10497C45.5584 2.84346 45.0088 2.9202 44.6739 3.28823L42.2793 5.91853C41.9406 6.29041 41.919 6.85216 42.2282 7.24912L44.0063 9.53234C43.8368 9.9107 43.6924 10.2987 43.5691 10.6932L38.7289 8.57102C38.1283 8.37233 37.6745 8.54953 37.3676 9.10245L33.2591 18.473V2.42018C33.2591 1.08409 31.1923 1.08409 31.1923 2.42018V6.94654C24.1097 7.24595 17.5773 10.9882 13.6558 17.02C12.9518 18.1028 14.6238 19.3228 15.3886 18.1465C18.9288 12.7011 24.8107 9.31299 31.1923 9.01482V52.7659H24.8205C23.9512 52.7659 23.2441 52.0544 23.2441 51.1797V47.6366C23.2441 47.2565 23.0354 46.9071 22.7007 46.7267C16.1244 43.1851 12.0829 36.3354 12.1534 28.8505C12.1719 26.8944 12.4757 24.9597 13.0565 23.1C13.4547 21.8246 11.4819 21.2083 11.0837 22.4839C10.4426 24.5368 10.1072 26.6723 10.0869 28.8311C10.0112 36.8773 14.245 44.2584 21.1775 48.244V51.1797C21.1775 52.834 22.2803 54.2342 23.7873 54.6821V59.5776C23.7873 62.7388 26.3591 65.3106 29.5203 65.3106H31.1925V68.9665C31.1925 70.3026 33.2592 70.3026 33.2592 68.9665V44.2327L43.7887 48.8493L43.5519 50.199C43.2043 50.3171 42.8649 50.4567 42.5357 50.617L40.6802 49.3242C40.2694 49.0379 39.7124 49.0872 39.3584 49.4417L37.3174 51.4845C36.9634 51.8388 36.9145 52.3958 37.2011 52.8064L38.4957 54.6607C38.3356 54.9902 38.1963 55.3295 38.0785 55.6774L35.8689 56.0674C35.3734 56.1549 35.0131 56.5863 35.015 57.0892L35.0269 59.9875C35.029 60.485 35.3853 60.9105 35.8747 60.9999L38.0977 61.4057C38.2191 61.7581 38.3625 62.1022 38.527 62.4359L37.2506 64.2775C36.9659 64.6883 37.0159 65.2441 37.3696 65.5972L39.4273 67.6531C39.7807 68.0063 40.3364 68.056 40.7471 67.7708L42.5877 66.4928C42.9215 66.6571 43.2657 66.8001 43.6182 66.9212L44.026 69.1439C44.1158 69.6334 44.5416 69.9892 45.0391 69.9908L47.9374 69.9999H47.9407C48.4423 69.9999 48.8717 69.6396 48.9585 69.1452L49.3465 66.9351C49.6943 66.817 50.0335 66.6775 50.3627 66.5171L52.2181 67.8099C52.629 68.0964 53.186 68.047 53.5399 67.6924L55.5809 65.6496C55.9348 65.2953 55.9838 64.7383 55.6972 64.3277L54.4025 62.4734C54.5626 62.1439 54.7019 61.8046 54.8198 61.4567L57.0294 61.0667C57.5247 60.9792 57.8852 60.5478 57.8833 60.0449L57.8715 57.1466C57.8695 56.6491 57.5132 56.2236 57.0238 56.1342L54.9341 55.7528C57.8917 55.7396 60.8954 55.7392 63.8158 55.7392C64.1578 55.8034 64.4736 55.7011 64.7632 55.4323L69.1066 50.8139C69.2868 50.6221 69.3873 50.369 69.3873 50.1059V32.4991C69.3872 32.4817 69.3841 32.4649 69.3833 32.4475ZM65.9632 33.5325L63.6086 36.0361H48.7825L51.1372 33.5325H65.9632ZM54.3015 15.7299C54.2041 15.4797 53.9998 15.2664 53.7536 15.1586L49.8314 13.4389C50.0187 11.5556 51.5766 10.0347 53.5403 9.9355C55.7042 9.83037 57.5476 11.4798 57.6559 13.621C57.7446 15.3763 56.6289 16.9548 54.9921 17.5028L54.3015 15.7299ZM53.2786 18.7983L54.3948 21.6636L55.5755 24.6946L51.4745 22.8831L53.2786 18.7983ZM46.0324 8.77026L44.3937 6.66615L45.6244 5.31421L47.911 6.72829C48.2523 6.93924 48.6849 6.93373 49.0208 6.71382C49.6873 6.27705 50.4097 5.93603 51.1676 5.70014C51.5533 5.58013 51.8336 5.24628 51.8854 4.84574L52.2267 2.20235L54.0677 2.10934L54.6737 4.70479C54.7656 5.09816 55.0782 5.40198 55.4741 5.48258C56.2516 5.64062 57.0046 5.90723 57.7121 6.2747C58.0683 6.45961 58.4996 6.42144 58.8177 6.17715L60.9499 4.53972L62.3107 5.76063L60.8925 8.01947C60.6764 8.36352 60.6821 8.80236 60.9068 9.14076C61.3455 9.80143 61.6879 10.5169 61.9245 11.2676C62.0457 11.6526 62.38 11.9316 62.7804 11.9823L65.4462 12.3197L65.5377 14.1306L62.9194 14.7351C62.5262 14.8257 62.2218 15.1373 62.14 15.5323C61.9804 16.3031 61.7119 17.0494 61.3419 17.7508C61.1525 18.1101 61.191 18.5472 61.4406 18.8678L63.0794 20.972L61.8485 22.324L59.562 20.9099C59.2207 20.6989 58.7881 20.7045 58.4523 20.9242C57.8936 21.2903 57.2957 21.5879 56.6712 21.8138L55.7422 19.4291C58.1926 18.5626 59.854 16.1726 59.7196 13.5167C59.5539 10.2372 56.7352 7.70449 53.4357 7.87149C50.6682 8.01134 48.4292 10.007 47.8769 12.5822L45.4741 11.5287C45.6342 10.9623 45.8541 10.4124 46.1309 9.88741C46.3207 9.52793 46.2821 9.09088 46.0324 8.77026ZM29.5201 63.244C27.4985 63.244 25.8537 61.5993 25.8537 59.5777V54.8327H31.1922V63.244H29.5201ZM33.2591 23.6201L38.8454 10.8789L51.9746 16.6354L49.1663 22.9932C48.9658 23.5932 49.1418 24.0474 49.694 24.356L56.0863 27.1796L54.207 31.4658H50.6904C50.4053 31.4658 50.1329 31.5835 49.9376 31.7911L45.5943 36.4095C45.3812 36.6359 45.2694 37.2398 45.2958 37.5654V47.1355L45.0247 47.1347L33.2591 41.9762V23.6201ZM55.8129 59.1828L53.8316 59.5325C53.4314 59.6032 53.1098 59.9016 53.0097 60.2953C52.8548 60.9042 52.6164 61.4855 52.3012 62.0231C52.0971 62.3713 52.1144 62.8064 52.3454 63.1372L53.5069 64.8011L52.6893 65.6194L51.0243 64.4593C50.6932 64.2285 50.258 64.2118 49.9101 64.4161C49.373 64.7318 48.7918 64.9706 48.1831 65.1261C47.7894 65.2266 47.4913 65.5485 47.421 65.9487L47.0731 67.9305L45.9036 67.9268L45.5369 65.9286C45.4645 65.5339 45.17 65.2167 44.7817 65.1153C44.1704 64.9556 43.5861 64.7124 43.0447 64.3926C42.6971 64.1871 42.2615 64.2031 41.9296 64.4335L40.277 65.5808L39.4407 64.7455L40.5866 63.0919C40.8166 62.76 40.8323 62.3244 40.6264 61.9768C40.3061 61.4355 40.0624 60.8512 39.9021 60.2402C39.8003 59.852 39.483 59.5579 39.0881 59.4857L37.0897 59.1208L37.0848 57.9514L39.066 57.6017C39.4662 57.5311 39.7877 57.2326 39.8879 56.839C40.0428 56.2301 40.2812 55.6488 40.5964 55.1111C40.8005 54.763 40.7832 54.3278 40.5523 53.997L39.3907 52.3331L40.2083 51.5148L41.8731 52.675C42.2041 52.9059 42.6393 52.9226 42.9872 52.7181C43.5249 52.4024 44.1059 52.1635 44.7145 52.0081C45.1082 51.9077 45.4063 51.5858 45.4766 51.1855L45.8244 49.2038L46.9939 49.2075L47.3605 51.2056C47.433 51.6004 47.7274 51.9176 48.1157 52.019C48.7272 52.1787 49.3115 52.4219 49.8528 52.7417C50.2005 52.9472 50.6362 52.9313 50.9679 52.7008L52.6203 51.5534L53.4566 52.3888L52.3107 54.0424C52.0806 54.3743 52.065 54.8098 52.2707 55.1574C52.5911 55.6988 52.8348 56.283 52.9951 56.8941C53.0969 57.2822 53.4142 57.5764 53.8091 57.6486L55.8077 58.0134L55.8129 59.1828ZM65.0467 52.1143C65.0462 51.0968 65.0438 48.5829 65.0438 48.5829C65.0438 47.2468 62.977 47.2468 62.977 48.5829V53.6725C60.3681 53.6727 57.7044 53.6746 55.0729 53.686L55.6476 52.8567C55.9322 52.446 55.8822 51.8902 55.5287 51.537L53.4708 49.4811C53.1173 49.128 52.5616 49.0783 52.151 49.3635L50.3106 50.6414C49.9768 50.4772 49.6326 50.3342 49.2801 50.2131L48.8723 47.9903C48.7421 47.2807 47.9929 47.0513 47.3769 47.1418C47.36 45.9941 47.4844 39.9926 47.3769 38.1509H62.9771V43.1876C62.9771 44.5237 65.0439 44.5237 65.0439 43.1876C65.0439 43.1876 65.0471 39.3022 65.0471 37.5238L67.3205 35.1065V49.6968L65.0467 52.1143Z" fill="#617792"/>
<path d="M46.4461 53.873C46.441 53.8729 46.4359 53.8729 46.4308 53.8729C45.1835 53.8729 44.0129 54.3573 43.1332 55.2376C42.25 56.1217 41.7664 57.2986 41.7715 58.5518C41.7766 59.8022 42.268 60.9788 43.155 61.8651C44.0421 62.7513 45.219 63.2415 46.4694 63.2455H46.4847C47.7321 63.2455 48.9028 62.7611 49.7825 61.8808C50.6656 60.9968 51.1493 59.8198 51.1442 58.5666C51.1391 57.3164 50.6477 56.1397 49.7608 55.2535C48.8735 54.3673 47.6964 53.877 46.4461 53.873ZM48.3201 60.42C47.8291 60.9115 47.1735 61.1863 46.4758 61.1788C45.7747 61.1766 45.114 60.901 44.6157 60.403C44.1172 59.9049 43.841 59.2445 43.8382 58.5435C43.8353 57.8452 44.1042 57.19 44.5953 56.6984C45.0862 56.207 45.7444 55.9351 46.4395 55.9396C47.1406 55.942 47.8012 56.2174 48.2998 56.7155C48.7983 57.2135 49.0744 57.8739 49.0771 58.5749C49.08 59.2733 48.8112 59.9284 48.3201 60.42Z" fill="#617792"/>
<path d="M14.0131 11.8945C14.8806 11.8945 15.3573 10.744 14.7439 10.1305L11.2202 6.60621C10.2756 5.66129 8.81394 7.12277 9.75873 8.06742L13.2823 11.5918C13.4841 11.7937 13.7487 11.8945 14.0131 11.8945Z" fill="#617792"/>
<path d="M6.59846 28.1751H1.61535C0.279257 28.1751 0.279257 30.2419 1.61535 30.2419H6.5986C7.9347 30.2419 7.9347 28.1751 6.59846 28.1751Z" fill="#617792"/>
<path d="M13.5967 46.6947L10.0732 50.219C9.12839 51.1638 10.59 52.6252 11.5347 51.6802L15.0582 48.1559C16.003 47.2111 14.5414 45.7498 13.5967 46.6947Z" fill="#617792"/>
</g>
<defs>
<clipPath id="clip0_1599_643">
<rect width="70" height="70" fill="white"/>
</clipPath>
</defs>
</svg>
