<svg width="70" height="70" viewBox="0 0 70 70" fill="none" xmlns="http://www.w3.org/2000/svg">
<path d="M58.8387 1.09375H11.1599C6.98893 1.09375 3.5957 4.48697 3.5957 8.65799V65.6865C3.5957 67.4618 5.04014 68.9062 6.81557 68.9062H50.2421C52.0175 68.9062 53.462 67.4618 53.462 65.6864V37.0642L55.2647 33.9418C56.3698 32.0279 55.7118 29.5717 53.7979 28.4668L53.4621 28.2729V23.0066H63.1832C64.9586 23.0066 66.4032 21.5622 66.4032 19.7868V8.65799C66.4029 4.48697 63.0097 1.09375 58.8387 1.09375ZM53.3704 32.848L39.1125 57.5434L34.9495 55.1399L49.2074 30.4445C49.4495 30.0252 49.8425 29.7248 50.3136 29.5985C50.7846 29.4723 51.2753 29.536 51.6945 29.7782L52.7041 30.361C53.5732 30.863 53.8722 31.9787 53.3704 32.848ZM34.5492 57.4347L37.3253 59.0375L34.5492 60.6402V57.4347ZM51.2745 27.3767C50.7702 27.3152 50.2536 27.35 49.7473 27.4858C48.7118 27.7632 47.8473 28.4256 47.313 29.3509L32.5083 54.9935C32.4123 55.1597 32.3617 55.3484 32.3617 55.5404V61.4409H14.9484C13.9959 61.4409 13.221 60.6659 13.221 59.7134C13.221 58.7609 13.9959 57.986 14.9484 57.986H18.7979C20.9565 57.986 22.7127 56.2298 22.7127 54.0712C22.7127 51.9125 20.9565 50.1562 18.7979 50.1562H18.3474C17.3949 50.1562 16.6199 49.3813 16.6199 48.4288C16.6199 46.3918 16.6253 44.3316 16.6309 42.3203H18.4702C19.7381 42.3203 20.7696 41.2888 20.7696 40.0209V37.2091C20.7696 35.9412 19.7381 34.9095 18.4702 34.9095H16.6456C16.6456 33.8223 16.6444 32.8249 16.6417 31.8738H18.4703C19.7382 31.8738 20.7698 30.8422 20.7698 29.5743V26.7626C20.7698 25.4946 19.7382 24.4631 18.4703 24.4631H16.6201V22.636H38.1419V25.0302H36.518C35.914 25.0302 35.4242 25.5199 35.4242 26.1239C35.4242 26.728 35.914 27.2177 36.518 27.2177H38.1419V29.6119H36.518C35.914 29.6119 35.4242 30.1016 35.4242 30.7057C35.4242 31.3097 35.914 31.7994 36.518 31.7994H38.1419V34.1936H36.6994C36.0954 34.1936 35.6057 34.6834 35.6057 35.2874C35.6057 35.8914 36.0954 36.3811 36.6994 36.3811H39.2357C39.8397 36.3811 40.3294 35.8914 40.3294 35.2874V21.5421C40.3294 20.9381 39.8397 20.4483 39.2357 20.4483H27.1076V16.6604H34.124C35.3254 16.6604 36.3028 15.683 36.3028 14.4815V11.2306C36.3028 10.0293 35.3255 9.05188 34.124 9.05188H17.9036C16.7022 9.05188 15.7247 10.0293 15.7247 11.2306V14.4817C15.7247 15.6831 16.7021 16.6605 17.9036 16.6605H24.92V20.4485H15.5262C14.9222 20.4485 14.4324 20.9382 14.4324 21.5422V24.4631H12.5822C11.3143 24.4631 10.2828 25.4946 10.2828 26.7626V29.5743C10.2828 30.8422 11.3143 31.8738 12.5822 31.8738H14.4542C14.4571 32.8248 14.4583 33.822 14.4581 34.9095H12.5822C11.3143 34.9095 10.2828 35.941 10.2828 37.2091V40.0209C10.2828 41.2888 11.3143 42.3203 12.5822 42.3203H14.4434C14.4376 44.3312 14.4324 46.391 14.4324 48.4288C14.4324 50.5874 16.1887 52.3437 18.3474 52.3437H18.7979C19.7504 52.3437 20.5252 53.1187 20.5252 54.0712C20.5252 55.0237 19.7504 55.7985 18.7979 55.7985H14.9484C12.7898 55.7985 11.0335 57.5548 11.0335 59.7134C11.0335 61.8721 12.7898 63.6284 14.9484 63.6284H33.4555C33.6474 63.6284 33.8361 63.5778 34.0024 63.4818L40.0598 59.9847C40.2261 59.8887 40.3642 59.7506 40.4601 59.5844L51.2746 40.8532V65.6865C51.2746 66.2558 50.8115 66.7189 50.2422 66.7189H6.81557C6.24627 66.7189 5.78307 66.2558 5.78307 65.6865V8.65799C5.7832 5.69324 8.19506 3.28125 11.1599 3.28125H53.5244C52.1363 4.65336 51.2745 6.55662 51.2745 8.65799V27.3767ZM18.4703 37.097C18.53 37.097 18.5823 37.1494 18.5823 37.2091V40.0209C18.5823 40.0806 18.5299 40.1328 18.4703 40.1328H12.5822C12.5225 40.1328 12.4703 40.0805 12.4703 40.0209V37.2091C12.4703 37.1494 12.5226 37.097 12.5822 37.097H18.4703ZM18.4703 26.6504C18.53 26.6504 18.5823 26.7028 18.5823 26.7624V29.5742C18.5823 29.6339 18.5299 29.6862 18.4703 29.6862H12.5822C12.5225 29.6862 12.4703 29.6338 12.4703 29.5742V26.7624C12.4703 26.7027 12.5226 26.6504 12.5822 26.6504H18.4703ZM17.9123 14.4815L17.9037 11.2392H34.1153L34.124 14.4728L17.9123 14.4815ZM64.2154 19.7868C64.2154 20.3561 63.7522 20.8191 63.1829 20.8191H53.4618V8.65799C53.4618 5.69324 55.8738 3.28125 58.8386 3.28125C61.8033 3.28125 64.2153 5.69324 64.2153 8.65799V19.7868H64.2154ZM31.7636 30.7824C31.7636 31.3864 31.2739 31.8761 30.6698 31.8761H24.4148C23.8108 31.8761 23.3211 31.3864 23.3211 30.7824C23.3211 30.1783 23.8108 29.6886 24.4148 29.6886H30.6698C31.2739 29.6886 31.7636 30.1782 31.7636 30.7824ZM31.7636 35.2871C31.7636 35.8911 31.2739 36.3809 30.6698 36.3809H24.4148C23.8108 36.3809 23.3211 35.8911 23.3211 35.2871C23.3211 34.6831 23.8108 34.1934 24.4148 34.1934H30.6698C31.2739 34.1934 31.7636 34.6831 31.7636 35.2871ZM31.7636 26.1238C31.7636 26.7278 31.2739 27.2176 30.6698 27.2176H24.4148C23.8108 27.2176 23.3211 26.7278 23.3211 26.1238C23.3211 25.5198 23.8108 25.0301 24.4148 25.0301H30.6698C31.2739 25.0301 31.7636 25.5198 31.7636 26.1238Z" fill="#617792"/>
</svg>
