<svg width="70" height="70" viewBox="0 0 70 70" fill="none" xmlns="http://www.w3.org/2000/svg">
<path d="M58.183 3.88892C57.4671 3.88892 57.037 4.4578 57.037 5.17366V16.8519H47.8766C47.1607 16.8519 46.6666 17.4853 46.6666 18.2012V28.5185H36.146C35.4301 28.5185 35 29.0798 35 29.7956V40.1851H24.5509C23.835 40.1851 23.3334 40.7546 23.3334 41.4706V51.8519H12.8126C12.0967 51.8519 11.6666 52.4853 11.6666 53.2012V63.5185H0V66.1111H12.8126C13.5285 66.1111 14.2592 65.5837 14.2592 64.8678V54.4444H24.5507C25.2666 54.4444 25.9258 53.9169 25.9258 53.201V42.7776H36.1458C36.8617 42.7776 37.5925 42.1863 37.5925 41.4704V31.111H47.8764C48.5923 31.111 49.2591 30.5115 49.2591 29.7955V19.4442H58.1829C58.8987 19.4442 59.6295 18.9168 59.6295 18.2009V6.48151H70V3.88892H58.183Z" fill="#617792"/>
<path d="M58.1822 40.1853H50.4045C49.6886 40.1853 49.1082 40.7657 49.1082 41.4817C49.1082 42.1977 49.6886 42.778 50.4045 42.778H54.4263L46.8954 50.3033C46.389 50.8097 46.389 51.627 46.8954 52.1333C47.1486 52.3865 47.4803 52.5116 47.812 52.5116C48.1437 52.5116 48.5505 52.3843 48.8038 52.1311L57.0364 43.9728V49.2478C57.0364 49.9637 57.6168 50.5442 58.3328 50.5442C59.0488 50.5442 59.629 49.9637 59.629 49.2478V41.47C59.6289 40.7542 58.8981 40.1853 58.1822 40.1853Z" fill="#617792"/>
</svg>
