<svg width="70" height="70" viewBox="0 0 70 70" fill="none" xmlns="http://www.w3.org/2000/svg">
<path d="M17.5 41.5625C17.7901 41.5625 18.0683 41.4473 18.2734 41.2421C18.4785 41.037 18.5938 40.7588 18.5938 40.4687C18.5918 39.0134 18.1751 37.5888 17.3925 36.3618C16.6099 35.1348 15.4938 34.1563 14.175 33.5409C14.7451 32.9137 15.1207 32.1345 15.2562 31.2979C15.3917 30.4612 15.2813 29.6032 14.9384 28.8282C14.5955 28.0531 14.0349 27.3943 13.3246 26.9319C12.6143 26.4694 11.785 26.2233 10.9375 26.2233C10.09 26.2233 9.26067 26.4694 8.55041 26.9319C7.84014 27.3943 7.27949 28.0531 6.93658 28.8282C6.59367 29.6032 6.48327 30.4612 6.6188 31.2979C6.75432 32.1345 7.12994 32.9137 7.7 33.5409C6.38119 34.1563 5.2651 35.1348 4.48249 36.3618C3.69989 37.5888 3.2832 39.0134 3.28125 40.4687C3.28125 40.7588 3.39648 41.037 3.6016 41.2421C3.80672 41.4473 4.08492 41.5625 4.375 41.5625H17.5ZM8.75 30.625C8.75 30.1923 8.87829 29.7694 9.11866 29.4097C9.35903 29.0499 9.70067 28.7696 10.1004 28.604C10.5001 28.4384 10.9399 28.3951 11.3643 28.4795C11.7886 28.5639 12.1784 28.7723 12.4843 29.0782C12.7902 29.3841 12.9986 29.7739 13.083 30.1982C13.1674 30.6226 13.1241 31.0624 12.9585 31.4621C12.7929 31.8618 12.5125 32.2035 12.1528 32.4438C11.7931 32.6842 11.3701 32.8125 10.9375 32.8125C10.3573 32.8125 9.80094 32.582 9.3907 32.1718C8.98047 31.7615 8.75 31.2051 8.75 30.625ZM10.9375 35C12.1978 35.0014 13.419 35.4373 14.3953 36.2343C15.3716 37.0312 16.0432 38.1405 16.2969 39.375H5.57812C5.83179 38.1405 6.50339 37.0312 7.47968 36.2343C8.45597 35.4373 9.67722 35.0014 10.9375 35Z" fill="#617792"/>
<path d="M35 47.0312C34.1347 47.0312 33.2888 47.2878 32.5694 47.7686C31.8499 48.2493 31.2892 48.9326 30.958 49.732C30.6269 50.5314 30.5403 51.4111 30.7091 52.2598C30.8779 53.1084 31.2946 53.888 31.9064 54.4998C32.5183 55.1117 33.2978 55.5284 34.1465 55.6972C34.9951 55.866 35.8748 55.7794 36.6742 55.4482C37.4737 55.1171 38.157 54.5563 38.6377 53.8369C39.1184 53.1174 39.375 52.2715 39.375 51.4062C39.375 50.2459 38.9141 49.1331 38.0936 48.3127C37.2731 47.4922 36.1603 47.0312 35 47.0312ZM35 53.5938C34.5674 53.5938 34.1444 53.4655 33.7847 53.2251C33.425 52.9847 33.1446 52.6431 32.979 52.2434C32.8134 51.8437 32.7701 51.4038 32.8545 50.9795C32.9389 50.5552 33.1473 50.1654 33.4532 49.8595C33.7591 49.5535 34.1489 49.3452 34.5732 49.2608C34.9976 49.1764 35.4374 49.2197 35.8371 49.3853C36.2368 49.5508 36.5785 49.8312 36.8188 50.1909C37.0592 50.5507 37.1875 50.9736 37.1875 51.4062C37.1875 51.9864 36.957 52.5428 36.5468 52.953C36.1366 53.3633 35.5802 53.5938 35 53.5938Z" fill="#617792"/>
<path d="M62.3 33.5409C62.8701 32.9137 63.2457 32.1345 63.3812 31.2979C63.5167 30.4612 63.4063 29.6032 63.0634 28.8282C62.7205 28.0531 62.1599 27.3943 61.4496 26.9319C60.7393 26.4694 59.91 26.2233 59.0625 26.2233C58.215 26.2233 57.3857 26.4694 56.6754 26.9319C55.9651 27.3943 55.4045 28.0531 55.0616 28.8282C54.7187 29.6032 54.6083 30.4612 54.7438 31.2979C54.8793 32.1345 55.2549 32.9137 55.825 33.5409C54.5062 34.1563 53.3901 35.1348 52.6075 36.3618C51.8249 37.5888 51.4082 39.0134 51.4062 40.4687C51.4062 40.7588 51.5215 41.037 51.7266 41.2421C51.9317 41.4473 52.2099 41.5625 52.5 41.5625H65.625C65.9151 41.5625 66.1933 41.4473 66.3984 41.2421C66.6035 41.037 66.7188 40.7588 66.7188 40.4687C66.7168 39.0134 66.3001 37.5888 65.5175 36.3618C64.7349 35.1348 63.6188 34.1563 62.3 33.5409ZM56.875 30.625C56.875 30.1923 57.0033 29.7694 57.2437 29.4097C57.484 29.0499 57.8257 28.7696 58.2254 28.604C58.6251 28.4384 59.0649 28.3951 59.4893 28.4795C59.9136 28.5639 60.3034 28.7723 60.6093 29.0782C60.9152 29.3841 61.1236 29.7739 61.208 30.1982C61.2924 30.6226 61.2491 31.0624 61.0835 31.4621C60.9179 31.8618 60.6375 32.2035 60.2778 32.4438C59.9181 32.6842 59.4951 32.8125 59.0625 32.8125C58.4823 32.8125 57.9259 32.582 57.5157 32.1718C57.1055 31.7615 56.875 31.2051 56.875 30.625ZM53.7031 39.375C53.9542 38.1387 54.6249 37.0273 55.6016 36.2289C56.5783 35.4306 57.801 34.9945 59.0625 34.9945C60.324 34.9945 61.5467 35.4306 62.5234 36.2289C63.5001 37.0273 64.1708 38.1387 64.4219 39.375H53.7031Z" fill="#617792"/>
<path d="M10.9375 47.0313C10.9375 46.3823 10.7451 45.7479 10.3845 45.2083C10.024 44.6687 9.5115 44.2481 8.91193 43.9998C8.31236 43.7514 7.65261 43.6864 7.01611 43.813C6.37961 43.9397 5.79495 44.2522 5.33606 44.7111C4.87717 45.1699 4.56466 45.7546 4.43805 46.3911C4.31144 47.0276 4.37642 47.6874 4.62477 48.2869C4.87312 48.8865 5.29369 49.399 5.83329 49.7595C6.37289 50.1201 7.00728 50.3125 7.65625 50.3125C8.52649 50.3125 9.36109 49.9668 9.97645 49.3514C10.5918 48.7361 10.9375 47.9015 10.9375 47.0313ZM7.65625 48.125C7.43993 48.125 7.22846 48.0609 7.0486 47.9407C6.86873 47.8205 6.72854 47.6497 6.64576 47.4498C6.56297 47.25 6.54131 47.03 6.58352 46.8179C6.62572 46.6057 6.72989 46.4108 6.88285 46.2579C7.03582 46.1049 7.2307 46.0007 7.44287 45.9585C7.65504 45.9163 7.87495 45.938 8.07481 46.0208C8.27467 46.1035 8.44549 46.2437 8.56567 46.4236C8.68585 46.6035 8.75 46.8149 8.75 47.0313C8.75 47.3213 8.63477 47.5995 8.42965 47.8047C8.22453 48.0098 7.94633 48.125 7.65625 48.125Z" fill="#617792"/>
<path d="M12.0312 17.5C12.6802 17.5 13.3146 17.3076 13.8542 16.947C14.3938 16.5865 14.8144 16.074 15.0627 15.4744C15.3111 14.8749 15.3761 14.2151 15.2495 13.5786C15.1228 12.9421 14.8103 12.3574 14.3514 11.8986C13.8926 11.4397 13.3079 11.1272 12.6714 11.0005C12.0349 10.8739 11.3751 10.9389 10.7756 11.1873C10.176 11.4356 9.66354 11.8562 9.30299 12.3958C8.94244 12.9354 8.75 13.5698 8.75 14.2188C8.75 15.089 9.0957 15.9236 9.71106 16.5389C10.3264 17.1543 11.161 17.5 12.0312 17.5ZM12.0312 13.125C12.2476 13.125 12.459 13.1891 12.6389 13.3093C12.8188 13.4295 12.959 13.6003 13.0417 13.8002C13.1245 14 13.1462 14.22 13.104 14.4321C13.0618 14.6443 12.9576 14.8392 12.8046 14.9921C12.6517 15.1451 12.4568 15.2493 12.2446 15.2915C12.0325 15.3337 11.8125 15.312 11.6127 15.2292C11.4128 15.1465 11.242 15.0063 11.1218 14.8264C11.0016 14.6465 10.9375 14.4351 10.9375 14.2188C10.9375 13.9287 11.0527 13.6505 11.2579 13.4454C11.463 13.2402 11.7412 13.125 12.0312 13.125Z" fill="#617792"/>
<path d="M57.9688 17.5C58.6177 17.5 59.2521 17.3076 59.7917 16.947C60.3313 16.5865 60.7519 16.074 61.0002 15.4744C61.2486 14.8749 61.3136 14.2151 61.187 13.5786C61.0603 12.9421 60.7478 12.3574 60.2889 11.8986C59.8301 11.4397 59.2454 11.1272 58.6089 11.0005C57.9724 10.8739 57.3126 10.9389 56.7131 11.1873C56.1135 11.4356 55.601 11.8562 55.2405 12.3958C54.8799 12.9354 54.6875 13.5698 54.6875 14.2188C54.6875 15.089 55.0332 15.9236 55.6486 16.5389C56.2639 17.1543 57.0985 17.5 57.9688 17.5ZM57.9688 13.125C58.1851 13.125 58.3965 13.1891 58.5764 13.3093C58.7563 13.4295 58.8965 13.6003 58.9792 13.8002C59.062 14 59.0837 14.22 59.0415 14.4321C58.9993 14.6443 58.8951 14.8392 58.7421 14.9921C58.5892 15.1451 58.3943 15.2493 58.1821 15.2915C57.97 15.3337 57.75 15.312 57.5502 15.2292C57.3503 15.1465 57.1795 15.0063 57.0593 14.8264C56.9391 14.6465 56.875 14.4351 56.875 14.2188C56.875 13.9287 56.9902 13.6505 57.1954 13.4454C57.4005 13.2402 57.6787 13.125 57.9688 13.125Z" fill="#617792"/>
<path d="M62.3438 43.75C61.6948 43.75 61.0604 43.9424 60.5208 44.303C59.9812 44.6635 59.5606 45.176 59.3123 45.7756C59.0639 46.3751 58.9989 47.0349 59.1255 47.6714C59.2522 48.3079 59.5647 48.8926 60.0236 49.3514C60.4824 49.8103 61.0671 50.1228 61.7036 50.2495C62.3401 50.3761 62.9999 50.3111 63.5994 50.0627C64.199 49.8144 64.7115 49.3938 65.072 48.8542C65.4326 48.3146 65.625 47.6802 65.625 47.0312C65.625 46.161 65.2793 45.3264 64.6639 44.7111C64.0486 44.0957 63.214 43.75 62.3438 43.75ZM62.3438 48.125C62.1274 48.125 61.916 48.0609 61.7361 47.9407C61.5562 47.8205 61.416 47.6497 61.3333 47.4498C61.2505 47.25 61.2288 47.03 61.271 46.8179C61.3132 46.6057 61.4174 46.4108 61.5704 46.2579C61.7233 46.1049 61.9182 46.0007 62.1304 45.9585C62.3425 45.9163 62.5625 45.938 62.7623 46.0208C62.9622 46.1035 63.133 46.2437 63.2532 46.4236C63.3734 46.6035 63.4375 46.8149 63.4375 47.0312C63.4375 47.3213 63.3223 47.5995 63.1172 47.8046C62.912 48.0098 62.6338 48.125 62.3438 48.125Z" fill="#617792"/>
<path d="M26.25 33.9062C26.25 34.4864 26.4805 35.0428 26.8907 35.453C27.3009 35.8633 27.8573 36.0938 28.4375 36.0938V38.2812C28.4386 38.7005 28.56 39.1105 28.7875 39.4627C29.0149 39.8148 29.3388 40.0942 29.7205 40.2675L30.45 43.1856C30.5681 43.6593 30.8413 44.0798 31.226 44.3802C31.6107 44.6807 32.0848 44.8439 32.573 44.8438H37.427C37.9152 44.8439 38.3893 44.6807 38.774 44.3802C39.1587 44.0798 39.4319 43.6593 39.55 43.1856L40.2795 40.2675C40.6612 40.0942 40.9851 39.8148 41.2125 39.4627C41.44 39.1105 41.5614 38.7005 41.5625 38.2812V36.0938C42.1427 36.0938 42.6991 35.8633 43.1093 35.453C43.5195 35.0428 43.75 34.4864 43.75 33.9062C43.75 31.8817 44.8361 30.5572 46.2109 28.875C48.0375 26.647 50.3125 23.8711 50.3125 18.5938C50.3125 14.5326 48.6992 10.6378 45.8276 7.76618C42.9559 4.89453 39.0611 3.28125 35 3.28125C30.9389 3.28125 27.0441 4.89453 24.1724 7.76618C21.3008 10.6378 19.6875 14.5326 19.6875 18.5938C19.6875 23.8722 21.9625 26.6481 23.7902 28.875C25.165 30.5572 26.25 31.8806 26.25 33.9062ZM30.625 22.9688H29.5312C29.3149 22.9688 29.1035 22.9046 28.9236 22.7844C28.7437 22.6642 28.6035 22.4934 28.5208 22.2936C28.438 22.0937 28.4163 21.8738 28.4585 21.6616C28.5007 21.4495 28.6049 21.2546 28.7579 21.1016C28.9108 20.9486 29.1057 20.8445 29.3179 20.8023C29.53 20.7601 29.75 20.7817 29.9498 20.8645C30.1497 20.9473 30.3205 21.0875 30.4407 21.2673C30.5609 21.4472 30.625 21.6587 30.625 21.875V22.9688ZM32.8125 25.1562H37.1875V33.9062H32.8125V25.1562ZM37.427 42.6562H32.573L32.0261 40.4688H37.9739L37.427 42.6562ZM39.375 38.2812H30.625V36.0938H39.375V38.2812ZM35 5.46875C38.4798 5.47251 41.816 6.85653 44.2766 9.31713C46.7372 11.7777 48.1212 15.1139 48.125 18.5938C48.125 23.0891 46.2919 25.328 44.5156 27.4925C43.0653 29.2666 41.5625 31.1019 41.5625 33.9062H39.375V25.1562H40.4688C41.1177 25.1562 41.7521 24.9638 42.2917 24.6033C42.8313 24.2427 43.2519 23.7303 43.5002 23.1307C43.7486 22.5311 43.8136 21.8714 43.687 21.2349C43.5603 20.5984 43.2478 20.0137 42.7889 19.5548C42.3301 19.0959 41.7454 18.7834 41.1089 18.6568C40.4724 18.5302 39.8126 18.5952 39.2131 18.8435C38.6135 19.0919 38.101 19.5124 37.7405 20.052C37.3799 20.5916 37.1875 21.226 37.1875 21.875V22.9688H32.8125V21.875C32.8125 21.226 32.6201 20.5916 32.2595 20.052C31.899 19.5124 31.3865 19.0919 30.7869 18.8435C30.1874 18.5952 29.5276 18.5302 28.8911 18.6568C28.2546 18.7834 27.6699 19.0959 27.2111 19.5548C26.7522 20.0137 26.4397 20.5984 26.313 21.2349C26.1864 21.8714 26.2514 22.5311 26.4998 23.1307C26.7481 23.7303 27.1687 24.2427 27.7083 24.6033C28.2479 24.9638 28.8823 25.1562 29.5312 25.1562H30.625V33.9062H28.4375C28.4375 31.1041 26.9347 29.2698 25.4844 27.498C23.7092 25.328 21.875 23.0902 21.875 18.5938C21.8788 15.1139 23.2628 11.7777 25.7234 9.31713C28.184 6.85653 31.5202 5.47251 35 5.46875ZM39.375 22.9688V21.875C39.375 21.6587 39.4391 21.4472 39.5593 21.2673C39.6795 21.0875 39.8503 20.9473 40.0502 20.8645C40.25 20.7817 40.47 20.7601 40.6821 20.8023C40.8943 20.8445 41.0892 20.9486 41.2421 21.1016C41.3951 21.2546 41.4993 21.4495 41.5415 21.6616C41.5837 21.8738 41.562 22.0937 41.4792 22.2936C41.3965 22.4934 41.2563 22.6642 41.0764 22.7844C40.8965 22.9046 40.6851 22.9688 40.4688 22.9688H39.375Z" fill="#617792"/>
<path d="M23.7344 55.4717C24.8105 54.6302 25.5972 53.4739 25.9847 52.1639C26.3723 50.854 26.3414 49.4558 25.8964 48.1642C25.4514 46.8727 24.6144 45.7522 23.5022 44.9591C22.3899 44.1659 21.0579 43.7396 19.6919 43.7396C18.3258 43.7396 16.9938 44.1659 15.8816 44.9591C14.7694 45.7522 13.9324 46.8727 13.4874 48.1642C13.0423 49.4558 13.0115 50.854 13.399 52.1639C13.7866 53.4739 14.5733 54.6302 15.6494 55.4717C13.6165 56.2809 11.8726 57.6807 10.6429 59.4904C9.41308 61.3002 8.75378 63.4369 8.75 65.625C8.75 65.9151 8.86523 66.1933 9.07035 66.3984C9.27547 66.6035 9.55367 66.7187 9.84375 66.7187H29.5312C29.8213 66.7187 30.0995 66.6035 30.3046 66.3984C30.5098 66.1933 30.625 65.9151 30.625 65.625C30.6219 63.4379 29.9639 61.302 28.7358 59.4923C27.5076 57.6826 25.7657 56.2823 23.7344 55.4717ZM15.3125 50.3125C15.3125 49.4472 15.5691 48.6013 16.0498 47.8819C16.5306 47.1624 17.2138 46.6016 18.0133 46.2705C18.8127 45.9394 19.6924 45.8527 20.541 46.0216C21.3897 46.1904 22.1692 46.607 22.7811 47.2189C23.3929 47.8308 23.8096 48.6103 23.9784 49.459C24.1472 50.3076 24.0606 51.1873 23.7295 51.9867C23.3983 52.7862 22.8376 53.4694 22.1181 53.9502C21.3987 54.4309 20.5528 54.6875 19.6875 54.6875C18.5272 54.6875 17.4144 54.2266 16.5939 53.4061C15.7734 52.5856 15.3125 51.4728 15.3125 50.3125ZM15.4656 64.5312C15.6557 63.7759 16.0456 63.0857 16.5944 62.533C16.6988 62.4321 16.7822 62.3114 16.8395 62.1779C16.8968 62.0445 16.927 61.901 16.9282 61.7557C16.9295 61.6105 16.9018 61.4665 16.8468 61.3321C16.7918 61.1977 16.7106 61.0755 16.6079 60.9728C16.5052 60.8701 16.3831 60.7889 16.2487 60.7339C16.1143 60.6789 15.9703 60.6513 15.825 60.6525C15.6798 60.6538 15.5363 60.684 15.4028 60.7413C15.2694 60.7986 15.1487 60.8819 15.0478 60.9864C14.0827 61.9477 13.4434 63.1875 13.2202 64.5312H11.0053C11.2703 62.4154 12.2987 60.4692 13.8975 59.0582C15.4962 57.6471 17.5552 56.8685 19.6875 56.8685C21.8198 56.8685 23.8788 57.6471 25.4775 59.0582C27.0763 60.4692 28.1047 62.4154 28.3697 64.5312H15.4656Z" fill="#617792"/>
<path d="M54.3594 55.4717C55.4355 54.6302 56.2222 53.4739 56.6097 52.1639C56.9973 50.854 56.9664 49.4558 56.5214 48.1642C56.0764 46.8727 55.2394 45.7522 54.1272 44.9591C53.0149 44.1659 51.6829 43.7396 50.3169 43.7396C48.9508 43.7396 47.6188 44.1659 46.5066 44.9591C45.3944 45.7522 44.5574 46.8727 44.1124 48.1642C43.6673 49.4558 43.6365 50.854 44.024 52.1639C44.4116 53.4739 45.1983 54.6302 46.2744 55.4717C44.2415 56.2809 42.4976 57.6807 41.2679 59.4904C40.0381 61.3002 39.3788 63.4369 39.375 65.625C39.375 65.9151 39.4902 66.1933 39.6954 66.3984C39.9005 66.6035 40.1787 66.7187 40.4688 66.7187H60.1562C60.4463 66.7187 60.7245 66.6035 60.9296 66.3984C61.1348 66.1933 61.25 65.9151 61.25 65.625C61.2469 63.4379 60.5889 61.302 59.3608 59.4923C58.1326 57.6826 56.3907 56.2823 54.3594 55.4717ZM45.9375 50.3125C45.9375 49.4472 46.1941 48.6013 46.6748 47.8819C47.1556 47.1624 47.8388 46.6016 48.6383 46.2705C49.4377 45.9394 50.3174 45.8527 51.166 46.0216C52.0147 46.1904 52.7942 46.607 53.4061 47.2189C54.0179 47.8308 54.4346 48.6103 54.6034 49.459C54.7722 50.3076 54.6856 51.1873 54.3545 51.9867C54.0233 52.7862 53.4626 53.4694 52.7431 53.9502C52.0237 54.4309 51.1778 54.6875 50.3125 54.6875C49.1522 54.6875 48.0394 54.2266 47.2189 53.4061C46.3984 52.5856 45.9375 51.4728 45.9375 50.3125ZM56.7787 64.5312C56.5555 63.1872 55.9158 61.9473 54.95 60.9864C54.8497 60.8796 54.7289 60.794 54.5949 60.7347C54.4608 60.6755 54.3162 60.6438 54.1697 60.6415C54.0231 60.6392 53.8776 60.6664 53.7418 60.7215C53.606 60.7765 53.4826 60.8583 53.379 60.962C53.2754 61.0657 53.1937 61.1891 53.1388 61.325C53.0838 61.4608 53.0567 61.6063 53.0591 61.7529C53.0615 61.8994 53.0933 62.044 53.1526 62.178C53.212 62.312 53.2976 62.4327 53.4045 62.533C53.9537 63.0854 54.3436 63.7757 54.5333 64.5312H41.627C41.892 62.4154 42.9205 60.4692 44.5192 59.0582C46.1179 57.6471 48.1769 56.8685 50.3092 56.8685C52.4416 56.8685 54.5005 57.6471 56.0993 59.0582C57.698 60.4692 58.7264 62.4154 58.9914 64.5312H56.7787Z" fill="#617792"/>
</svg>
