<svg width="70" height="70" viewBox="0 0 70 70" fill="none" xmlns="http://www.w3.org/2000/svg">
<path d="M35.0009 16.4062C33.6884 16.4062 32.5224 16.9991 31.7196 17.9178L26.1513 15.1331C26.2148 14.8378 26.2509 14.5327 26.2509 14.2188C26.2509 11.8059 24.2887 9.84375 21.8759 9.84375C19.463 9.84375 17.5009 11.8059 17.5009 14.2188C17.5009 15.2009 17.8377 16.0989 18.3868 16.8295L10.538 26.6405C9.99117 26.3944 9.38961 26.25 8.75195 26.25C6.33914 26.25 4.37695 28.2122 4.37695 30.625C4.37695 33.0378 6.33914 35 8.75195 35C11.1648 35 13.127 33.0378 13.127 30.625C13.127 29.6428 12.7901 28.7448 12.241 28.0142L20.0898 18.2033C20.6366 18.4494 21.2393 18.5938 21.877 18.5938C23.1895 18.5938 24.3554 18.0009 25.1582 17.0822L30.7265 19.8669C30.663 20.1622 30.627 20.4673 30.627 20.7812C30.627 23.1941 32.5891 25.1562 35.002 25.1562C37.4148 25.1562 39.377 23.1941 39.377 20.7812C39.377 19.8516 39.0805 18.993 38.584 18.2831L46.2118 9.38328C46.7926 9.66875 47.4368 9.84375 48.1259 9.84375C49.7807 9.84375 51.2059 8.90969 51.9485 7.55234L56.8791 8.785C56.8977 11.1814 58.8501 13.125 61.2509 13.125C63.6516 13.125 65.6259 11.1628 65.6259 8.75C65.6259 6.33719 63.6637 4.375 61.2509 4.375C59.5971 4.375 58.1709 5.30906 57.4282 6.66641L52.4976 5.43375C52.4779 3.03734 50.5266 1.09375 48.1259 1.09375C45.7251 1.09375 43.7509 3.05594 43.7509 5.46875C43.7509 6.39844 44.0473 7.25812 44.5438 7.96687L36.916 16.8667C36.3352 16.5812 35.691 16.4062 35.0009 16.4062ZM8.75086 32.8125C7.54445 32.8125 6.56336 31.8314 6.56336 30.625C6.56336 29.4186 7.54445 28.4375 8.75086 28.4375C9.95727 28.4375 10.9384 29.4186 10.9384 30.625C10.9384 31.8314 9.95727 32.8125 8.75086 32.8125ZM21.8759 16.4062C20.6695 16.4062 19.6884 15.4252 19.6884 14.2188C19.6884 13.0123 20.6695 12.0312 21.8759 12.0312C23.0823 12.0312 24.0634 13.0123 24.0634 14.2188C24.0634 15.4252 23.0823 16.4062 21.8759 16.4062ZM35.0009 22.9688C33.7945 22.9688 32.8134 21.9877 32.8134 20.7812C32.8134 19.5748 33.7945 18.5938 35.0009 18.5938C36.2073 18.5938 37.1884 19.5748 37.1884 20.7812C37.1884 21.9877 36.2073 22.9688 35.0009 22.9688ZM61.2509 6.5625C62.4573 6.5625 63.4384 7.54359 63.4384 8.75C63.4384 9.95641 62.4573 10.9375 61.2509 10.9375C60.0445 10.9375 59.0634 9.95641 59.0634 8.75C59.0634 7.54359 60.0445 6.5625 61.2509 6.5625ZM48.1259 3.28125C49.3323 3.28125 50.3134 4.26234 50.3134 5.46875C50.3134 6.67516 49.3323 7.65625 48.1259 7.65625C46.9195 7.65625 45.9384 6.67516 45.9384 5.46875C45.9384 4.26234 46.9195 3.28125 48.1259 3.28125Z" fill="#617792"/>
<path d="M26.25 54.6875C32.2809 54.6875 37.1875 49.7809 37.1875 43.75C37.1875 37.7191 32.2809 32.8125 26.25 32.8125C20.2191 32.8125 15.3125 37.7191 15.3125 43.75C15.3125 49.7809 20.2191 54.6875 26.25 54.6875ZM26.25 52.5C23.0202 52.5 20.1994 50.7358 18.6834 48.125H33.8155C32.2995 50.7358 29.4809 52.5 26.25 52.5ZM35 43.75C35 44.5069 34.8939 45.2364 34.7123 45.9375H32.8125V37.9816C34.1698 39.5238 35 41.5395 35 43.75ZM30.625 36.1834V45.9375H21.875V36.1834C23.1634 35.4353 24.6553 35 26.25 35C27.8447 35 29.3366 35.4353 30.625 36.1834ZM19.6875 37.9816V45.9375H17.7877C17.6061 45.2364 17.5 44.5069 17.5 43.75C17.5 41.5395 18.3302 39.5238 19.6875 37.9816Z" fill="#617792"/>
<path d="M5.74984 68.9062C7.30953 68.9062 8.75766 68.1319 9.62391 66.8325L14.5698 59.4136C14.8127 59.4858 15.0609 59.5339 15.3125 59.5339C15.9753 59.5339 16.6392 59.2823 17.1434 58.777L18.8027 57.1178C21.0087 58.3516 23.5463 59.0625 26.2489 59.0625C33.1713 59.0625 39.0283 54.4414 40.9161 48.125H67.8114V45.9375H66.7177V20.7812C66.7177 20.1775 66.2277 19.6875 65.6239 19.6875H56.8739C56.2702 19.6875 55.7802 20.1775 55.7802 20.7812V45.9375H53.5927V31.7188H51.4052V45.9375H44.8427V18.5938H51.4052V28.4375H53.5927V17.5C53.5927 16.8963 53.1027 16.4062 52.4989 16.4062H43.7489C43.1452 16.4062 42.6552 16.8963 42.6552 17.5V45.9375H41.3864C41.4892 45.2211 41.5614 44.4948 41.5614 43.75C41.5614 37.2345 37.4642 31.6728 31.7177 29.4645V25.1562C31.7177 24.5525 31.2277 24.0625 30.6239 24.0625H21.8739C21.2702 24.0625 20.7802 24.5525 20.7802 25.1562V29.4645C17.1063 30.8755 14.1192 33.658 12.4348 37.1875H4.375C3.77125 37.1875 3.28125 37.6775 3.28125 38.2812V45.9375H2.1875V48.125H11.5828C11.9055 49.2034 12.343 50.2316 12.8822 51.1962L11.2164 52.862C10.5208 53.5577 10.3173 54.5508 10.5831 55.4323L3.1675 60.3761C1.86922 61.2423 1.09375 62.6905 1.09375 64.2502C1.09375 66.8172 3.18281 68.9062 5.74984 68.9062ZM57.9688 21.875H64.5312V45.9375H57.9688V21.875ZM22.9688 26.25H29.5312V28.8006C28.4725 28.5688 27.3766 28.4375 26.25 28.4375C25.1234 28.4375 24.0275 28.5688 22.9688 28.8006V26.25ZM26.25 30.625C33.4873 30.625 39.375 36.5127 39.375 43.75C39.375 50.9873 33.4873 56.875 26.25 56.875C19.0127 56.875 13.125 50.9873 13.125 43.75C13.125 36.5127 19.0127 30.625 26.25 30.625ZM5.46875 45.9375V39.375H11.5828C11.1683 40.763 10.9375 42.2297 10.9375 43.75C10.9375 44.4948 11.0086 45.2211 11.1125 45.9375H5.46875ZM12.763 54.4086L14.117 53.0545C14.9341 54.1166 15.8834 55.0659 16.9455 55.883L15.5969 57.2316C15.3913 57.4372 15.2327 57.4372 15.027 57.2316L12.7619 54.9664C12.6613 54.8658 12.647 54.7488 12.647 54.6875C12.647 54.6262 12.6634 54.5092 12.763 54.4086ZM4.38047 62.1961L11.8923 57.1889L12.8122 58.1087L7.805 65.6206C7.34672 66.3086 6.57781 66.7198 5.75094 66.7198C4.38922 66.7198 3.28234 65.613 3.28234 64.2512C3.28234 63.4244 3.6925 62.6566 4.38156 62.1972L4.38047 62.1961Z" fill="#617792"/>
</svg>
