<svg width="70" height="70" viewBox="0 0 70 70" fill="none" xmlns="http://www.w3.org/2000/svg">
<path d="M9.4374 28.9214C9.71656 28.9997 10.0154 28.9642 10.2684 28.8225C10.5214 28.6809 10.7079 28.4447 10.787 28.1657C11.9695 24.0315 14.1855 20.2667 17.226 17.2262C20.2665 14.1856 24.0314 11.9696 28.1655 10.7871C28.4394 10.7038 28.6697 10.5164 28.8071 10.2652C28.9444 10.0141 28.9778 9.71904 28.9 9.44352C28.8223 9.168 28.6397 8.93392 28.3913 8.79153C28.143 8.64914 27.8487 8.60977 27.5716 8.68188C23.0779 9.96712 18.9856 12.3758 15.6806 15.6808C12.3756 18.9858 9.96694 23.0781 8.68171 27.5718C8.64271 27.7101 8.63133 27.8546 8.6482 27.9973C8.66507 28.1399 8.70987 28.2778 8.78004 28.4031C8.85021 28.5284 8.94438 28.6387 9.05717 28.7276C9.16996 28.8166 9.29916 28.8824 9.4374 28.9214Z" fill="#617792"/>
<path d="M60.5621 41.0786C60.283 41.0008 59.9844 41.0366 59.7316 41.1782C59.4787 41.3198 59.2921 41.5556 59.2125 41.8342C58.03 45.9684 55.814 49.7332 52.7735 52.7738C49.733 55.8143 45.9681 58.0303 41.834 59.2128C41.5839 59.2885 41.369 59.451 41.228 59.671C41.0871 59.891 41.0293 60.1541 41.065 60.4129C41.1007 60.6717 41.2277 60.9093 41.423 61.0829C41.6183 61.2564 41.8692 61.3546 42.1304 61.3597C46.6924 60.1321 50.8581 57.7426 54.221 54.4246C57.5839 51.1065 60.0291 46.9732 61.3178 42.4282C61.3965 42.149 61.3612 41.85 61.2194 41.5969C61.0777 41.3438 60.8413 41.1573 60.5621 41.0786Z" fill="#617792"/>
<path d="M28.1654 59.2129C24.0312 58.0303 20.2664 55.8143 17.2259 52.7738C14.1853 49.7333 11.9693 45.9684 10.7868 41.8343C10.7033 41.5606 10.5159 41.3305 10.2648 41.1933C10.0137 41.0562 9.71881 41.0229 9.44341 41.1005C9.16802 41.1782 8.93403 41.3607 8.79161 41.6089C8.64919 41.8571 8.60969 42.1512 8.68156 42.4282C9.9668 46.9219 12.3755 51.0142 15.6805 54.3192C18.9854 57.6242 23.0778 60.0328 27.5715 61.318C27.8484 61.3898 28.1425 61.3503 28.3906 61.2079C28.6387 61.0654 28.8212 60.8315 28.8988 60.5561C28.9765 60.2808 28.9432 59.986 28.8061 59.7349C28.669 59.4838 28.439 59.2964 28.1654 59.2129Z" fill="#617792"/>
<path d="M41.8345 10.7872C45.9686 11.9697 49.7335 14.1857 52.774 17.2263C55.8145 20.2668 58.0305 24.0316 59.2131 28.1658C59.2962 28.4399 59.4835 28.6704 59.7348 28.8079C59.9861 28.9453 60.2812 28.9788 60.5569 28.901C60.8325 28.8233 61.0667 28.6405 61.2091 28.392C61.3514 28.1434 61.3907 27.849 61.3183 27.5719C60.0331 23.0781 57.6244 18.9858 54.3194 15.6808C51.0144 12.3759 46.9221 9.96719 42.4284 8.68196C42.1513 8.60976 41.8569 8.64907 41.6085 8.79146C41.3601 8.93384 41.1774 9.16795 41.0997 9.44353C41.0219 9.7191 41.0554 10.0142 41.1927 10.2654C41.3301 10.5166 41.5605 10.7039 41.8345 10.7872Z" fill="#617792"/>
<path d="M20.7813 35C21.5595 53.8634 48.4431 53.858 49.2185 34.9999C49.2185 31.2289 47.7204 27.6124 45.0539 24.9459C42.3874 22.2794 38.7708 20.7814 34.9998 20.7814C31.2288 20.7814 27.6122 22.2794 24.9457 24.9459C22.2792 27.6125 20.7812 31.229 20.7813 35ZM47.031 35.0001C47.031 38.191 45.7634 41.2511 43.5071 43.5074C41.2508 45.7637 38.1907 47.0312 34.9998 47.0312C31.8089 47.0312 28.7488 45.7636 26.4925 43.5073C24.2363 41.2511 22.9687 38.1909 22.9687 35C23.6223 19.0379 46.3798 19.0425 47.031 35.0001Z" fill="#617792"/>
<path d="M36.6406 35.0001C36.635 34.5687 36.4596 34.1569 36.1526 33.8538C35.8455 33.5508 35.4314 33.3809 35 33.3809C34.5686 33.3809 34.1546 33.5508 33.8475 33.8538C33.5404 34.1568 33.3651 34.5686 33.3594 35C33.365 35.4314 33.5404 35.8432 33.8474 36.1462C34.1545 36.4493 34.5686 36.6192 35 36.6192C35.4314 36.6192 35.8454 36.4493 36.1525 36.1463C36.4596 35.8432 36.6349 35.4314 36.6406 35.0001Z" fill="#617792"/>
<path d="M34.0209 14.7082C34.1137 14.8876 34.2541 15.038 34.4266 15.143C34.5992 15.248 34.7973 15.3035 34.9993 15.3035C35.2012 15.3035 35.3993 15.248 35.5719 15.143C35.7444 15.038 35.8848 14.8875 35.9776 14.7081L40.3525 5.9583C40.4337 5.7913 40.4713 5.60652 40.4619 5.4211C40.4525 5.23568 40.3964 5.05564 40.2988 4.89771C40.2011 4.73979 40.0652 4.60909 39.9036 4.51777C39.7419 4.42645 39.5598 4.37746 39.3742 4.37537H30.6243C30.4387 4.37746 30.2565 4.42645 30.0949 4.51777C29.9333 4.60909 29.7973 4.73978 29.6997 4.89771C29.6021 5.05564 29.546 5.23567 29.5366 5.42109C29.5272 5.60652 29.5648 5.7913 29.6459 5.9583L34.0209 14.7082ZM37.6044 6.56284L34.9993 11.7736L32.3942 6.56284H37.6044Z" fill="#617792"/>
<path d="M15.3124 35C15.3124 34.7969 15.2559 34.5977 15.1491 34.4249C15.0423 34.2521 14.8895 34.1125 14.7078 34.0216L5.95793 29.6467C5.79093 29.5656 5.60615 29.528 5.42075 29.5374C5.23534 29.5468 5.05532 29.603 4.8974 29.7006C4.73949 29.7982 4.60879 29.9341 4.51747 30.0957C4.42614 30.2574 4.37713 30.4394 4.375 30.6251V39.375C4.375 39.5615 4.42266 39.7448 4.51345 39.9076C4.60424 40.0705 4.73515 40.2074 4.89374 40.3054C5.05233 40.4035 5.23335 40.4593 5.4196 40.4677C5.60586 40.4761 5.79116 40.4368 5.95793 40.3534L14.7078 35.9785C14.8895 35.8876 15.0423 35.7479 15.1491 35.5751C15.2559 35.4023 15.3124 35.2032 15.3124 35ZM6.56247 37.6051V32.3949L11.7732 35L6.56247 37.6051Z" fill="#617792"/>
<path d="M35.9776 55.2919C35.8767 55.1224 35.7334 54.9821 35.5619 54.8846C35.3904 54.7872 35.1965 54.736 34.9993 54.736C34.802 54.736 34.6081 54.7872 34.4366 54.8846C34.2651 54.9821 34.1219 55.1224 34.0209 55.2919L29.6459 64.0418C29.5648 64.2088 29.5272 64.3936 29.5366 64.579C29.546 64.7644 29.6021 64.9444 29.6997 65.1023C29.7973 65.2603 29.9333 65.391 30.0949 65.4823C30.2566 65.5736 30.4387 65.6226 30.6243 65.6246L39.3742 65.6247C39.5599 65.6226 39.742 65.5736 39.9036 65.4823C40.0652 65.391 40.2012 65.2603 40.2988 65.1024C40.3964 64.9444 40.4525 64.7644 40.4619 64.579C40.4713 64.3936 40.4337 64.2088 40.3526 64.0418L35.9776 55.2919ZM32.3942 63.4372L34.9993 58.2265L37.6044 63.4372H32.3942Z" fill="#617792"/>
<path d="M65.1069 29.6947C64.9482 29.5969 64.7671 29.5411 64.5809 29.5327C64.3947 29.5243 64.2094 29.5635 64.0425 29.6467L55.2926 34.0216C55.1132 34.1144 54.9628 34.2548 54.8578 34.4273C54.7528 34.5999 54.6973 34.798 54.6973 35C54.6973 35.202 54.7528 35.4001 54.8578 35.5726C54.9628 35.7452 55.1133 35.8855 55.2927 35.9783L64.0425 40.3533C64.2093 40.4366 64.3946 40.4759 64.5808 40.4675C64.767 40.4591 64.948 40.4033 65.1066 40.3052C65.2652 40.2072 65.3961 40.0703 65.4869 39.9075C65.5777 39.7447 65.6254 39.5614 65.6254 39.375V30.625C65.6254 30.4386 65.5777 30.2553 65.487 30.0925C65.3962 29.9297 65.2654 29.7928 65.1069 29.6947ZM63.4379 37.6051L58.2272 35L63.4379 32.3949V37.6051Z" fill="#617792"/>
</svg>
