<svg width="70" height="70" viewBox="0 0 70 70" fill="none" xmlns="http://www.w3.org/2000/svg">
<path d="M56.1016 2.5078L53.1406 5.46875H49.2188C48.9287 5.46876 48.6505 5.584 48.4454 5.78912C48.2403 5.99423 48.125 6.27242 48.125 6.5625V10.4844L44.3906 14.2188H40.4688C40.1787 14.2188 39.9005 14.334 39.6954 14.5391C39.4903 14.7442 39.375 15.0224 39.375 15.3125V19.2344L35.6406 22.9688H31.7188C31.4287 22.9688 31.1505 23.084 30.9454 23.2891C30.7403 23.4942 30.625 23.7724 30.625 24.0625V27.9844L25.797 32.8125H22.0574C22.3599 31.0039 23.0393 29.2791 24.0516 27.7502C25.064 26.2212 26.3865 24.9223 27.9335 23.9377L26.754 22.0954C23.9635 23.879 21.8263 26.5192 20.6631 29.6201C19.4999 32.721 19.3733 36.1154 20.3023 39.2943C21.2313 42.4732 23.1658 45.2652 25.8157 47.2518C28.4656 49.2383 31.6881 50.3122 35 50.3125H49.0483C45.2142 53.8281 40.2019 55.7794 35 55.7812C23.5411 55.7812 14.2188 46.4589 14.2188 35H12.0312C12.0307 36.8428 12.2521 38.6789 12.6908 40.4688H4.375V29.5312H13.125C13.3413 29.5312 13.5528 29.4671 13.7326 29.3469C13.9125 29.2267 14.0527 29.0559 14.1354 28.8561L15.9021 24.591C15.9849 24.3911 16.0066 24.1712 15.9644 23.959C15.9222 23.7468 15.8181 23.5519 15.6651 23.3989L9.47779 17.2119L17.2119 9.47779L23.3989 15.6651C23.5519 15.8181 23.7468 15.9223 23.959 15.9645C24.1712 16.0067 24.3911 15.985 24.591 15.9021L28.8561 14.1354C29.0559 14.0527 29.2267 13.9125 29.3469 13.7326C29.4671 13.5528 29.5312 13.3413 29.5312 13.125V4.375H40.4688V10.9375H42.6562V3.28125C42.6562 2.99117 42.541 2.71298 42.3359 2.50787C42.1308 2.30275 41.8526 2.18751 41.5625 2.1875H28.4375C28.1474 2.18751 27.8692 2.30275 27.6641 2.50787C27.459 2.71298 27.3438 2.99117 27.3438 3.28125V12.3941L24.429 13.6015L17.9853 7.15757C17.7802 6.95249 17.502 6.83727 17.2119 6.83727C16.9218 6.83727 16.6436 6.95249 16.4384 7.15757L7.15757 16.4384C6.95249 16.6436 6.83727 16.9218 6.83727 17.2119C6.83727 17.502 6.95249 17.7802 7.15757 17.9853L13.6015 24.429L12.3941 27.3438H3.28125C2.99117 27.3438 2.71298 27.459 2.50787 27.6641C2.30275 27.8692 2.18751 28.1474 2.1875 28.4375V41.5625C2.18751 41.8526 2.30275 42.1308 2.50787 42.3359C2.71298 42.541 2.99117 42.6562 3.28125 42.6562H12.3941L13.6015 45.571L7.15757 52.0147C6.95249 52.2198 6.83727 52.498 6.83727 52.7881C6.83727 53.0782 6.95249 53.3564 7.15757 53.5616L16.4384 62.8424C16.6436 63.0475 16.9218 63.1627 17.2119 63.1627C17.502 63.1627 17.7802 63.0475 17.9853 62.8424L24.429 56.3985L27.3438 57.6059V66.7188C27.3438 67.0088 27.459 67.287 27.6641 67.4921C27.8692 67.6972 28.1474 67.8125 28.4375 67.8125H41.5625C41.8526 67.8125 42.1308 67.6972 42.3359 67.4921C42.541 67.287 42.6562 67.0088 42.6562 66.7188V57.6059L45.571 56.3985L52.0147 62.8424C52.2198 63.0475 52.498 63.1627 52.7881 63.1627C53.0782 63.1627 53.3564 63.0475 53.5616 62.8424L62.8424 53.5616C63.0475 53.3564 63.1628 53.0782 63.1627 52.7881C63.1627 52.498 63.0474 52.2198 62.8423 52.0147L61.1401 50.3125H66.7188C67.0088 50.3125 67.287 50.1972 67.4921 49.9921C67.6972 49.787 67.8125 49.5088 67.8125 49.2188V12.0312C67.8125 11.7412 67.6972 11.463 67.4921 11.2579C67.287 11.0528 67.0088 10.9375 66.7188 10.9375H57.9688C57.6787 10.9375 57.4005 11.0528 57.1954 11.2579C56.9903 11.463 56.875 11.7412 56.875 12.0312V19.6875H49.2188C48.9287 19.6875 48.6505 19.8028 48.4454 20.0079C48.2403 20.213 48.125 20.4912 48.125 20.7812V26.25H40.4688C40.1787 26.25 39.9005 26.3653 39.6954 26.5704C39.4903 26.7755 39.375 27.0537 39.375 27.3438V33.9062H31.7188C31.4287 33.9063 31.1505 34.0215 30.9454 34.2266C30.7403 34.4317 30.625 34.7099 30.625 35V39.375H22.6257C22.1278 37.9702 21.8739 36.4905 21.875 35H26.25C26.5401 35 26.8183 34.8848 27.0234 34.6797L32.1719 29.5312H36.0938C36.3838 29.5312 36.662 29.416 36.8671 29.2109C37.0722 29.0058 37.1875 28.7276 37.1875 28.4375V24.5156L40.9219 20.7812H44.8438C45.1338 20.7812 45.412 20.666 45.6171 20.4609C45.8222 20.2558 45.9375 19.9776 45.9375 19.6875V15.7656L49.6719 12.0312H53.5938C53.8838 12.0312 54.162 11.916 54.3671 11.7109C54.5722 11.5058 54.6875 11.2276 54.6875 10.9375V7.01565L57.328 4.375H67.8125V2.1875H56.875C56.5849 2.18751 56.3067 2.30272 56.1016 2.5078ZM17.2119 60.5222L9.47779 52.7881L15.3627 46.9035C17.2858 50.0622 19.9378 52.7142 23.0965 54.6373L17.2119 60.5222ZM29.5312 65.625V57.3092C33.124 58.1893 36.8763 58.1886 40.4688 57.3071V65.625H29.5312ZM60.5222 52.7881L52.7881 60.5222L46.9048 54.6387C48.8468 53.4621 50.6036 52.0042 52.1181 50.3125H58.0465L60.5222 52.7881ZM59.0625 13.125H65.625V48.125H59.0625V13.125ZM50.3125 21.875H56.875V48.125H50.3125V21.875ZM41.5625 28.4375H48.125V48.125H41.5625V28.4375ZM32.8125 36.0938H39.375V48.125H35C34.267 48.1249 33.5353 48.0636 32.8125 47.9417V36.0938ZM30.625 41.5625V47.3743C27.6809 46.3256 25.2046 44.2661 23.6369 41.5625H30.625ZM35 27.3438H32.8125V25.1562H35V27.3438ZM43.75 18.5938H41.5625V16.4062H43.75V18.5938ZM52.5 9.84375H50.3125V7.65625H52.5V9.84375Z" fill="#617792"/>
</svg>
