<svg width="70" height="70" viewBox="0 0 70 70" fill="none" xmlns="http://www.w3.org/2000/svg">
<g clip-path="url(#clip0_1599_1393)">
<path d="M14.8611 53.2847C13.8888 53.0436 12.9177 52.8756 11.9489 52.7672C13.457 51.7343 14.4822 49.7281 14.4822 47.427C14.4822 44.3353 12.6223 42.4149 9.62869 42.4149C6.6351 42.4149 4.77586 44.3353 4.77586 47.427C4.77586 49.7241 5.7977 51.7269 7.30119 52.7613C6.32352 52.8693 5.35172 53.0393 4.38908 53.2867C1.55873 54.015 0 55.5885 0 57.7182V63.2941C0 63.8167 0.423691 64.2401 0.945957 64.2401C1.46822 64.2401 1.89191 63.8167 1.89191 63.2941V57.7182C1.89191 56.201 3.50602 55.4675 4.8609 55.119C7.96729 54.3203 11.1795 54.3209 14.4054 55.1209C15.5114 55.3956 17.3664 56.0977 17.3664 57.7183V63.2943C17.3664 63.8168 17.7901 64.2402 18.3124 64.2402C18.8346 64.2402 19.2583 63.8168 19.2583 63.2943V57.7183C19.2582 55.5941 17.6552 53.9781 14.8611 53.2847ZM9.62883 44.3068C10.98 44.3068 12.5904 44.848 12.5904 47.427C12.5904 49.6983 11.2343 51.6168 9.62883 51.6168C8.02389 51.6168 6.66777 49.6981 6.66777 47.427C6.66777 44.8482 8.27832 44.3068 9.62883 44.3068ZM40.2317 53.2847C39.2596 53.0436 38.2886 52.8755 37.3204 52.7672C38.8283 51.7343 39.8535 49.7281 39.8535 47.4271C39.8535 44.3355 37.9936 42.415 35 42.415C32.0064 42.415 30.1465 44.3355 30.1465 47.4271C30.1465 49.7241 31.1683 51.7269 32.672 52.7613C31.6947 52.8693 30.7229 53.0394 29.7604 53.2869C26.9299 54.0148 25.3712 55.5887 25.3712 57.7182V63.2941C25.3712 63.8167 25.7949 64.2401 26.3171 64.2401C26.8394 64.2401 27.2631 63.8167 27.2631 63.2941V57.7182C27.2631 56.201 28.8772 55.4673 30.2321 55.119C33.3378 54.3206 36.5494 54.3206 39.7759 55.1209C40.8819 55.3956 42.7369 56.0977 42.7369 57.7183V63.2943C42.7369 63.8168 43.1606 64.2402 43.6829 64.2402C44.2051 64.2402 44.6288 63.8168 44.6288 63.2943V57.7183C44.6288 55.5941 43.0258 53.9781 40.2317 53.2847ZM35 44.3068C36.3512 44.3068 37.9616 44.848 37.9616 47.427C37.9616 49.6983 36.6055 51.6168 35 51.6168C33.3945 51.6168 32.0384 49.6981 32.0384 47.427C32.0384 44.8482 33.6488 44.3068 35 44.3068ZM65.6029 53.2847C64.6306 53.0436 63.6595 52.8756 62.691 52.7672C64.1989 51.7343 65.2241 49.7281 65.2241 47.427C65.2241 44.3353 63.3649 42.4149 60.3713 42.4149C57.3777 42.4149 55.5178 44.3353 55.5178 47.427C55.5178 49.7241 56.5396 51.7268 58.0434 52.7613C57.0657 52.8693 56.0938 53.0393 55.131 53.2867C52.3005 54.015 50.7418 55.5885 50.7418 57.7181V63.294C50.7418 63.8165 51.1655 64.2399 51.6878 64.2399C52.21 64.2399 52.6337 63.8165 52.6337 63.294V57.7181C52.6337 56.2009 54.2478 55.4674 55.6027 55.1189C58.7103 54.3202 61.9213 54.3207 65.1472 55.1208C66.2532 55.3955 68.1082 56.0975 68.1082 57.7182V63.2941C68.1082 63.8167 68.5319 64.2401 69.0542 64.2401C69.5764 64.2401 70 63.8167 70 63.294V57.7181C70 55.5941 68.397 53.9781 65.6029 53.2847ZM60.3712 44.3068C61.7217 44.3068 63.3322 44.848 63.3322 47.427C63.3322 49.6983 61.9761 51.6168 60.3712 51.6168C58.7657 51.6168 57.4096 49.6981 57.4096 47.427C57.4096 44.8482 59.02 44.3068 60.3712 44.3068ZM30.0516 39.4474C30.0516 39.9699 30.4753 40.3933 30.9976 40.3933C31.5198 40.3933 31.9435 39.9699 31.9435 39.4474C31.9435 37.3233 30.3405 35.7073 27.5464 35.0139C26.5742 34.7728 25.603 34.6048 24.6345 34.4964C26.143 33.4636 27.1683 31.4573 27.1683 29.1561C27.1683 26.0645 25.3084 24.144 22.3148 24.144C19.3212 24.144 17.4613 26.0645 17.4613 29.1561C17.4613 31.4533 18.4833 33.4562 19.9873 34.4905C19.0098 34.5985 18.038 34.7684 17.0758 35.0159C14.2447 35.7435 12.6853 37.3173 12.6853 39.4472C12.6853 39.9698 13.109 40.3932 13.6313 40.3932C14.1535 40.3932 14.5772 39.9698 14.5772 39.4472C14.5772 37.9298 16.192 37.1963 17.5469 36.8481C20.6526 36.0487 23.863 36.0496 27.0907 36.8503C28.1967 37.1248 30.0516 37.8268 30.0516 39.4474ZM22.3147 26.0361C23.6659 26.0361 25.2763 26.5774 25.2763 29.1563C25.2763 31.4272 23.9202 33.3459 22.3147 33.3459C20.7092 33.3459 19.3531 31.4272 19.3531 29.1563C19.3531 26.5774 20.9635 26.0361 22.3147 26.0361ZM55.4228 39.4474C55.4228 39.9699 55.8465 40.3933 56.3687 40.3933C56.891 40.3933 57.3147 39.9699 57.3147 39.4474C57.3147 37.3233 55.7117 35.7076 52.9169 35.0139C51.9444 34.773 50.9734 34.6048 50.005 34.4965C51.5134 33.4637 52.5388 31.4574 52.5388 29.1561C52.5388 26.0645 50.6789 24.144 47.6853 24.144C44.6917 24.144 42.8318 26.0645 42.8318 29.1561C42.8318 31.4533 43.8538 33.4561 45.3577 34.4905C44.3801 34.5985 43.4085 34.7684 42.4462 35.016C39.6152 35.7434 38.0565 37.3172 38.0565 39.4474C38.0565 39.9699 38.4802 40.3933 39.0024 40.3933C39.5247 40.3933 39.9484 39.9699 39.9484 39.4474C39.9484 37.9299 41.5625 37.1964 42.9174 36.8482C46.0238 36.0488 49.2354 36.0498 52.4612 36.8504C53.5672 37.1248 55.4228 37.8271 55.4228 39.4474ZM47.6853 26.0361C49.0365 26.0361 50.6469 26.5774 50.6469 29.1563C50.6469 31.4272 49.2908 33.3459 47.6853 33.3459C46.0798 33.3459 44.7237 31.4272 44.7237 29.1563C44.7237 26.5774 46.3341 26.0361 47.6853 26.0361ZM26.3164 22.0093C26.8387 22.0093 27.2624 21.5859 27.2624 21.0633C27.2624 19.5459 28.8772 18.8124 30.2321 18.4642C33.3372 17.6651 36.5489 17.6655 39.7759 18.4664C40.8819 18.7405 42.7369 19.4425 42.7369 21.0633C42.7369 21.5859 43.1606 22.0093 43.6829 22.0093C44.2051 22.0093 44.6288 21.5859 44.6288 21.0633C44.6288 18.9386 43.0258 17.323 40.2317 16.6298C39.2593 16.3888 38.2884 16.2208 37.3198 16.1124C38.8281 15.0796 39.8535 13.0734 39.8535 10.7723C39.8535 7.68063 37.9936 5.76015 35 5.76015C32.0064 5.76015 30.1465 7.68063 30.1465 10.7723C30.1465 13.0694 31.1685 15.0723 32.6725 16.1066C31.695 16.2146 30.7232 16.3846 29.7609 16.632C26.9299 17.3596 25.3705 18.9334 25.3705 21.0633C25.3706 21.5859 25.7943 22.0093 26.3164 22.0093ZM35 7.65192C36.3512 7.65192 37.9616 8.19319 37.9616 10.7721C37.9616 13.043 36.6055 14.9617 35 14.9617C33.3945 14.9617 32.0384 13.043 32.0384 10.7721C32.0384 8.19333 33.6488 7.65192 35 7.65192ZM65.6029 16.6298C64.6308 16.3888 63.6595 16.2206 62.6912 16.1122C64.1989 15.0793 65.2241 13.0732 65.2241 10.7721C65.2241 7.6805 63.3649 5.76001 60.3713 5.76001C57.3777 5.76001 55.5178 7.6805 55.5178 10.7721C55.5178 13.0691 56.5396 15.0718 58.0433 16.1063C57.0656 16.2143 56.0937 16.3844 55.131 16.632C52.3005 17.3603 50.7418 18.9341 50.7418 21.0633C50.7418 21.5859 51.1655 22.0093 51.6878 22.0093C52.21 22.0093 52.6337 21.5859 52.6337 21.0633C52.6337 19.5462 54.2478 18.8127 55.6027 18.4642C58.7091 17.6648 61.9213 17.666 65.1472 18.4661C66.2532 18.7408 68.1082 19.4428 68.1082 21.0635V26.6391C68.1082 27.1617 68.5319 27.5851 69.0542 27.5851C69.5764 27.5851 70.0001 27.1617 70.0001 26.6391V21.0635C70 18.9393 68.397 17.3233 65.6029 16.6298ZM60.3712 7.65192C61.7217 7.65192 63.3322 8.19319 63.3322 10.7721C63.3322 13.0434 61.9761 14.962 60.3712 14.962C58.7657 14.962 57.4096 13.0433 57.4096 10.7721C57.4096 8.19333 59.02 7.65192 60.3712 7.65192ZM0.945957 27.585C1.46822 27.585 1.89191 27.1616 1.89191 26.639V21.0633C1.89191 19.5462 3.50602 18.8127 4.8609 18.4642C7.96729 17.6648 11.1783 17.666 14.4054 18.4661C15.5114 18.7408 17.3664 19.4428 17.3664 21.0635C17.3664 21.586 17.7901 22.0094 18.3124 22.0094C18.8346 22.0094 19.2583 21.586 19.2583 21.0635C19.2583 18.9394 17.6553 17.3234 14.8612 16.63C13.8887 16.3889 12.9177 16.2208 11.9494 16.1125C13.4572 15.0796 14.4825 13.0734 14.4825 10.7724C14.4825 7.68077 12.6226 5.76028 9.62896 5.76028C6.63537 5.76028 4.77613 7.68077 4.77613 10.7724C4.77613 13.0695 5.79797 15.0722 7.30146 16.1067C6.32379 16.2148 5.35199 16.3848 4.38936 16.6323C1.55873 17.3602 0 18.9341 0 21.0633V26.639C0 27.1616 0.423691 27.585 0.945957 27.585ZM9.62883 7.65192C10.98 7.65192 12.5904 8.19319 12.5904 10.7721C12.5904 13.0434 11.2343 14.962 9.62883 14.962C8.02389 14.962 6.66777 13.0433 6.66777 10.7721C6.66777 8.19333 8.27832 7.65192 9.62883 7.65192Z" fill="#617792"/>
</g>
<defs>
<clipPath id="clip0_1599_1393">
<rect width="70" height="70" fill="white"/>
</clipPath>
</defs>
</svg>
