<svg width="70" height="70" viewBox="0 0 70 70" fill="none" xmlns="http://www.w3.org/2000/svg">
<path d="M59.217 5.21309H66.7447C67.9766 5.21309 68.9746 6.21113 68.9746 7.44297V62.557C68.9746 63.7889 67.9766 64.7869 66.7447 64.7869H25.0441M1.02539 23.8082V7.44297C1.02539 6.21113 2.02344 5.21309 3.25527 5.21309H54.4318M1.02539 28.5934V62.557C1.02539 63.7889 2.02344 64.7869 3.25527 64.7869H20.259" stroke="#617792" stroke-width="2" stroke-miterlimit="10" stroke-linecap="round" stroke-linejoin="round"/>
<path d="M68.6041 13.9146H1.39648" stroke="#617792" stroke-width="2" stroke-miterlimit="10" stroke-linecap="round" stroke-linejoin="round"/>
<path d="M22.2626 32.3904C22.2626 34.8273 20.287 36.8029 17.8501 36.8029C15.4132 36.8029 13.4377 34.8273 13.4377 32.3904C13.4377 29.9534 15.4132 27.978 17.8501 27.978V22.8177C12.5632 22.8177 8.27734 27.1035 8.27734 32.3904C8.27734 37.6774 12.5632 41.9632 17.8501 41.9632C23.137 41.9632 27.4229 37.6774 27.4229 32.3904H22.2626Z" stroke="#617792" stroke-width="2" stroke-miterlimit="10" stroke-linecap="round" stroke-linejoin="round"/>
<path d="M26.3636 28.2885H31.5239C31.5239 23.0016 27.2381 18.7157 21.9512 18.7157V23.876C24.388 23.876 26.3636 25.8515 26.3636 28.2885Z" stroke="#617792" stroke-width="2" stroke-miterlimit="10" stroke-linecap="round" stroke-linejoin="round"/>
<path d="M13.3017 32.3904H8.75977" stroke="#617792" stroke-width="2" stroke-miterlimit="10" stroke-linecap="round" stroke-linejoin="round"/>
<path d="M17.8496 36.9396V41.4214" stroke="#617792" stroke-width="2" stroke-miterlimit="10" stroke-linecap="round" stroke-linejoin="round"/>
<path d="M37.9883 36.9396V26.1976C37.9883 25.8202 38.2944 25.514 38.6719 25.514H44.424" stroke="#617792" stroke-width="2" stroke-miterlimit="10" stroke-linecap="round" stroke-linejoin="round"/>
<path d="M44.7246 36.7749V22.7985C44.7246 22.4211 45.0307 22.1149 45.4082 22.1149H51.138" stroke="#617792" stroke-width="2" stroke-miterlimit="10" stroke-linecap="round" stroke-linejoin="round"/>
<path d="M58.1944 37.2538H51.459V19.3992C51.459 19.0217 51.7651 18.7156 52.1426 18.7156H57.3447C57.8141 18.7156 58.1944 19.0961 58.1944 19.5653V37.2538Z" stroke="#617792" stroke-width="2" stroke-miterlimit="10" stroke-linecap="round" stroke-linejoin="round"/>
<path d="M45.5674 41.9631H61.3133C61.6906 41.9631 61.9969 41.6568 61.9969 41.2795V37.9326C61.9969 37.5539 61.6906 37.249 61.3133 37.249H58.1947H51.4586H34.8691C34.4918 37.249 34.1855 37.5539 34.1855 37.9326V41.2795C34.1855 41.6568 34.4918 41.9631 34.8691 41.9631H40.7822" stroke="#617792" stroke-width="2" stroke-miterlimit="10" stroke-linecap="round" stroke-linejoin="round"/>
<path d="M36.0932 59.4392C37.1467 59.4392 38.0008 58.5851 38.0008 57.5315C38.0008 56.478 37.1467 55.6239 36.0932 55.6239C35.0396 55.6239 34.1855 56.478 34.1855 57.5315C34.1855 58.5851 35.0396 59.4392 36.0932 59.4392Z" stroke="#617792" stroke-width="2" stroke-miterlimit="10" stroke-linecap="round" stroke-linejoin="round"/>
<path d="M44.0912 51.4408C45.1448 51.4408 45.9989 50.5868 45.9989 49.5332C45.9989 48.4796 45.1448 47.6256 44.0912 47.6256C43.0377 47.6256 42.1836 48.4796 42.1836 49.5332C42.1836 50.5868 43.0377 51.4408 44.0912 51.4408Z" stroke="#617792" stroke-width="2" stroke-miterlimit="10" stroke-linecap="round" stroke-linejoin="round"/>
<path d="M52.0893 59.4392C53.1428 59.4392 53.9969 58.5851 53.9969 57.5315C53.9969 56.478 53.1428 55.6239 52.0893 55.6239C51.0357 55.6239 50.1816 56.478 50.1816 57.5315C50.1816 58.5851 51.0357 59.4392 52.0893 59.4392Z" stroke="#617792" stroke-width="2" stroke-miterlimit="10" stroke-linecap="round" stroke-linejoin="round"/>
<path d="M60.0873 51.4408C61.1409 51.4408 61.995 50.5868 61.995 49.5332C61.995 48.4796 61.1409 47.6256 60.0873 47.6256C59.0338 47.6256 58.1797 48.4796 58.1797 49.5332C58.1797 50.5868 59.0338 51.4408 60.0873 51.4408Z" stroke="#617792" stroke-width="2" stroke-miterlimit="10" stroke-linecap="round" stroke-linejoin="round"/>
<path d="M42.4927 51.1327L37.6934 55.9321" stroke="#617792" stroke-width="2" stroke-miterlimit="10" stroke-linecap="round" stroke-linejoin="round"/>
<path d="M45.6914 51.1327L50.4908 55.9321" stroke="#617792" stroke-width="2" stroke-miterlimit="10" stroke-linecap="round" stroke-linejoin="round"/>
<path d="M58.4887 51.1327L53.6895 55.9321" stroke="#617792" stroke-width="2" stroke-miterlimit="10" stroke-linecap="round" stroke-linejoin="round"/>
<path d="M8.27734 47.6256H11.03" stroke="#617792" stroke-width="2" stroke-miterlimit="10" stroke-linecap="round" stroke-linejoin="round"/>
<path d="M8.27734 53.5324H11.03" stroke="#617792" stroke-width="2" stroke-miterlimit="10" stroke-linecap="round" stroke-linejoin="round"/>
<path d="M8.27734 59.4393H11.03" stroke="#617792" stroke-width="2" stroke-miterlimit="10" stroke-linecap="round" stroke-linejoin="round"/>
<path d="M15.8164 47.6256H35.1756" stroke="#617792" stroke-width="2" stroke-miterlimit="10" stroke-linecap="round" stroke-linejoin="round"/>
<path d="M15.8164 53.5324H25.3877" stroke="#617792" stroke-width="2" stroke-miterlimit="10" stroke-linecap="round" stroke-linejoin="round"/>
<path d="M15.8164 59.4393H29.4896" stroke="#617792" stroke-width="2" stroke-miterlimit="10" stroke-linecap="round" stroke-linejoin="round"/>
</svg>
