<svg width="70" height="70" viewBox="0 0 70 70" fill="none" xmlns="http://www.w3.org/2000/svg">
<path d="M57.9693 37.1088C57.6792 37.1088 57.401 37.224 57.1959 37.4291C56.9908 37.6342 56.8755 37.9124 56.8755 38.2025V65.625H54.688V45.78C54.688 45.4899 54.5728 45.2117 54.3677 45.0066C54.1626 44.8015 53.8844 44.6862 53.5943 44.6862C53.3042 44.6862 53.026 44.8015 52.8209 45.0066C52.6158 45.2117 52.5005 45.4899 52.5005 45.78V65.625H8.75053V56.875C8.75053 56.5849 8.63529 56.3067 8.43017 56.1016C8.22506 55.8965 7.94686 55.7812 7.65678 55.7812C7.36669 55.7812 7.0885 55.8965 6.88338 56.1016C6.67826 56.3067 6.56303 56.5849 6.56303 56.875V59.955C5.99737 59.7535 5.49797 59.4004 5.11942 58.9343C4.74087 58.4682 4.49772 57.907 4.41654 57.312C4.33536 56.717 4.41928 56.1112 4.65913 55.5607C4.89898 55.0102 5.28552 54.5362 5.77653 54.1906C6.26753 53.8449 6.8441 53.6408 7.44323 53.6007C8.04237 53.5606 8.64101 53.6859 9.17374 53.9629C9.70647 54.24 10.1528 54.6582 10.4639 55.1717C10.7751 55.6853 10.9391 56.2745 10.938 56.875C10.938 57.1651 11.0533 57.4433 11.2584 57.6484C11.4635 57.8535 11.7417 57.9688 12.0318 57.9688C12.3219 57.9688 12.6001 57.8535 12.8052 57.6484C13.0103 57.4433 13.1255 57.1651 13.1255 56.875C13.1239 55.6148 12.6879 54.3936 11.891 53.4174C11.0941 52.4411 9.98492 51.7695 8.75053 51.5156V45.045C9.38808 45.2704 9.94043 45.6873 10.332 46.2386C10.7236 46.7899 10.9352 47.4488 10.938 48.125C10.938 48.4151 11.0533 48.6933 11.2584 48.8984C11.4635 49.1035 11.7417 49.2188 12.0318 49.2188C12.3219 49.2188 12.6001 49.1035 12.8052 48.8984C13.0103 48.6933 13.1255 48.4151 13.1255 48.125C13.1239 46.8648 12.6879 45.6436 11.891 44.6674C11.0941 43.6911 9.98492 43.0195 8.75053 42.7656V36.295C9.38808 36.5204 9.94043 36.9373 10.332 37.4886C10.7236 38.0399 10.9352 38.6988 10.938 39.375C10.938 39.6651 11.0533 39.9433 11.2584 40.1484C11.4635 40.3535 11.7417 40.4688 12.0318 40.4688C12.3219 40.4688 12.6001 40.3535 12.8052 40.1484C13.0103 39.9433 13.1255 39.6651 13.1255 39.375C13.1239 38.1148 12.6879 36.8936 11.891 35.9174C11.0941 34.9411 9.98492 34.2695 8.75053 34.0156V27.545C9.38808 27.7704 9.94043 28.1873 10.332 28.7386C10.7236 29.2899 10.9352 29.9488 10.938 30.625C10.938 30.9151 11.0533 31.1933 11.2584 31.3984C11.4635 31.6035 11.7417 31.7188 12.0318 31.7188C12.3219 31.7188 12.6001 31.6035 12.8052 31.3984C13.0103 31.1933 13.1255 30.9151 13.1255 30.625C13.1239 29.3648 12.6879 28.1436 11.891 27.1674C11.0941 26.1911 9.98492 25.5195 8.75053 25.2656V18.795C9.38808 19.0204 9.94043 19.4373 10.332 19.9886C10.7236 20.5399 10.9352 21.1988 10.938 21.875C10.938 22.1651 11.0533 22.4433 11.2584 22.6484C11.4635 22.8535 11.7417 22.9688 12.0318 22.9688C12.3219 22.9688 12.6001 22.8535 12.8052 22.6484C13.0103 22.4433 13.1255 22.1651 13.1255 21.875C13.1239 20.6148 12.6879 19.3936 11.891 18.4174C11.0941 17.4411 9.98492 16.7695 8.75053 16.5156V13.125C8.75053 12.8349 8.63529 12.5567 8.43017 12.3516C8.22506 12.1465 7.94686 12.0312 7.65678 12.0312C7.36669 12.0312 7.0885 12.1465 6.88338 12.3516C6.67826 12.5567 6.56303 12.8349 6.56303 13.125V16.205C5.99737 16.0035 5.49797 15.6504 5.11942 15.1843C4.74087 14.7182 4.49772 14.157 4.41654 13.562C4.33536 12.967 4.41928 12.3612 4.65913 11.8107C4.89898 11.2602 5.28552 10.7862 5.77653 10.4406C6.26753 10.0949 6.8441 9.89085 7.44323 9.8507C8.04237 9.81056 8.64101 9.93586 9.17374 10.2129C9.70647 10.49 10.1528 10.9082 10.4639 11.4217C10.7751 11.9353 10.9391 12.5245 10.938 13.125C10.938 13.4151 11.0533 13.6933 11.2584 13.8984C11.4635 14.1035 11.7417 14.2188 12.0318 14.2188C12.3219 14.2188 12.6001 14.1035 12.8052 13.8984C13.0103 13.6933 13.1255 13.4151 13.1255 13.125C13.1239 11.8648 12.6879 10.6436 11.891 9.66738C11.0941 8.69114 9.98492 8.01948 8.75053 7.76562V4.375H52.5005V12.9675C52.5005 13.2576 52.6158 13.5358 52.8209 13.7409C53.026 13.946 53.3042 14.0612 53.5943 14.0612C53.8844 14.0612 54.1626 13.946 54.3677 13.7409C54.5728 13.5358 54.688 13.2576 54.688 12.9675V6.5625H56.8755C56.886 6.85258 57.0112 7.12663 57.2237 7.32437C57.4362 7.5221 57.7186 7.62732 58.0086 7.61687C58.2987 7.60643 58.5728 7.48118 58.7705 7.26868C58.9683 7.05618 59.0735 6.77383 59.063 6.48375V5.46875C59.063 5.17867 58.9478 4.90047 58.7427 4.69535C58.5376 4.49023 58.2594 4.375 57.9693 4.375H54.688V3.28125C54.688 2.99117 54.5728 2.71297 54.3677 2.50785C54.1626 2.30273 53.8844 2.1875 53.5943 2.1875H7.65678C7.36669 2.1875 7.0885 2.30273 6.88338 2.50785C6.67826 2.71297 6.56303 2.99117 6.56303 3.28125V7.76562C5.52763 7.97387 4.57504 8.47845 3.82109 9.21802C3.06714 9.95759 2.54431 10.9003 2.31618 11.9315C2.08804 12.9627 2.16442 14.0379 2.53604 15.0265C2.90766 16.0151 3.55851 16.8744 4.40943 17.5C3.72101 18.003 3.161 18.6614 2.77495 19.4216C2.38889 20.1818 2.18769 21.0224 2.18769 21.875C2.18769 22.7276 2.38889 23.5682 2.77495 24.3284C3.161 25.0886 3.72101 25.747 4.40943 26.25C3.72101 26.753 3.161 27.4114 2.77495 28.1716C2.38889 28.9318 2.18769 29.7724 2.18769 30.625C2.18769 31.4776 2.38889 32.3182 2.77495 33.0784C3.161 33.8386 3.72101 34.497 4.40943 35C3.72101 35.503 3.161 36.1614 2.77495 36.9216C2.38889 37.6818 2.18769 38.5224 2.18769 39.375C2.18769 40.2276 2.38889 41.0682 2.77495 41.8284C3.161 42.5886 3.72101 43.247 4.40943 43.75C3.72101 44.253 3.161 44.9114 2.77495 45.6716C2.38889 46.4318 2.18769 47.2724 2.18769 48.125C2.18769 48.9776 2.38889 49.8182 2.77495 50.5784C3.161 51.3386 3.72101 51.997 4.40943 52.5C3.55851 53.1256 2.90766 53.9849 2.53604 54.9735C2.16442 55.9621 2.08804 57.0373 2.31618 58.0685C2.54431 59.0997 3.06714 60.0424 3.82109 60.782C4.57504 61.5215 5.52763 62.0261 6.56303 62.2344V66.7188C6.56303 67.0088 6.67826 67.287 6.88338 67.4921C7.0885 67.6973 7.36669 67.8125 7.65678 67.8125H57.9693C58.2594 67.8125 58.5376 67.6973 58.7427 67.4921C58.9478 67.287 59.063 67.0088 59.063 66.7188V38.2025C59.063 37.9124 58.9478 37.6342 58.7427 37.4291C58.5376 37.224 58.2594 37.1088 57.9693 37.1088ZM6.56303 18.795V24.955C5.92368 24.7323 5.36949 24.3161 4.97734 23.7642C4.58518 23.2123 4.37449 22.552 4.37449 21.875C4.37449 21.198 4.58518 20.5377 4.97734 19.9858C5.36949 19.4339 5.92368 19.0177 6.56303 18.795ZM6.56303 27.545V33.705C5.92368 33.4823 5.36949 33.0661 4.97734 32.5142C4.58518 31.9623 4.37449 31.302 4.37449 30.625C4.37449 29.948 4.58518 29.2877 4.97734 28.7358C5.36949 28.1839 5.92368 27.7677 6.56303 27.545ZM6.56303 36.295V42.455C5.92368 42.2323 5.36949 41.8161 4.97734 41.2642C4.58518 40.7123 4.37449 40.052 4.37449 39.375C4.37449 38.698 4.58518 38.0377 4.97734 37.4858C5.36949 36.9339 5.92368 36.5177 6.56303 36.295ZM6.56303 45.045V51.205C5.92368 50.9823 5.36949 50.5661 4.97734 50.0142C4.58518 49.4623 4.37449 48.802 4.37449 48.125C4.37449 47.448 4.58518 46.7877 4.97734 46.2358C5.36949 45.6839 5.92368 45.2677 6.56303 45.045Z" fill="#617792"/>
<path d="M36.0938 62.3438H40.4688C41.9186 62.342 43.3086 61.7653 44.3338 60.7401C45.359 59.7149 45.9358 58.3249 45.9375 56.875V54.6875C45.9375 54.3974 45.8223 54.1192 45.6171 53.9141C45.412 53.709 45.1338 53.5938 44.8438 53.5938C44.5537 53.5938 44.2755 53.709 44.0704 53.9141C43.8652 54.1192 43.75 54.3974 43.75 54.6875V56.875C43.75 57.7452 43.4043 58.5798 42.7889 59.1952C42.1736 59.8105 41.339 60.1562 40.4688 60.1562H36.0938C35.8037 60.1562 35.5255 60.2715 35.3204 60.4766C35.1152 60.6817 35 60.9599 35 61.25C35 61.5401 35.1152 61.8183 35.3204 62.0234C35.5255 62.2285 35.8037 62.3438 36.0938 62.3438Z" fill="#617792"/>
<path d="M17.5 45.9375C17.5 46.2276 17.6152 46.5058 17.8204 46.7109C18.0255 46.916 18.3037 47.0312 18.5938 47.0312C18.8838 47.0312 19.162 46.916 19.3671 46.7109C19.5723 46.5058 19.6875 46.2276 19.6875 45.9375V41.5625C19.6875 40.9823 19.918 40.4259 20.3282 40.0157C20.7384 39.6055 21.2948 39.375 21.875 39.375C22.1651 39.375 22.4433 39.2598 22.6484 39.0546C22.8535 38.8495 22.9688 38.5713 22.9688 38.2812C22.9688 37.9912 22.8535 37.713 22.6484 37.5079C22.4433 37.3027 22.1651 37.1875 21.875 37.1875C20.7147 37.1875 19.6019 37.6484 18.7814 38.4689C17.9609 39.2894 17.5 40.4022 17.5 41.5625V45.9375Z" fill="#617792"/>
<path d="M18.5938 63.4375H29.5312C29.8213 63.4374 30.0995 63.3222 30.3045 63.117L34.6795 58.742C34.8847 58.537 34.9999 58.2588 35 57.9687V47.0312H34.9902C34.9942 46.8874 34.969 46.7441 34.916 46.6103C34.8631 46.4764 34.7836 46.3547 34.6823 46.2524C34.5809 46.1502 34.4599 46.0695 34.3265 46.0154C34.1932 45.9613 34.0502 45.9348 33.9062 45.9375H22.9688C22.6787 45.9376 22.4005 46.0528 22.1955 46.258L17.8205 50.633C17.6676 50.7859 17.5634 50.9808 17.5212 51.1929C17.4791 51.4051 17.5007 51.625 17.5835 51.8248C17.6662 52.0246 17.8064 52.1954 17.9862 52.3156C18.166 52.4358 18.3775 52.5 18.5938 52.5H28.4375V61.25H19.6875V55.7812C19.6875 55.4912 19.5723 55.213 19.3671 55.0079C19.162 54.8027 18.8838 54.6875 18.5938 54.6875C18.3037 54.6875 18.0255 54.8027 17.8204 55.0079C17.6152 55.213 17.5 55.4912 17.5 55.7812V62.3437C17.5 62.6338 17.6152 62.912 17.8204 63.1171C18.0255 63.3223 18.3037 63.4375 18.5938 63.4375ZM30.625 59.7034V51.8591L32.8125 49.6716V57.5159L30.625 59.7034ZM21.2341 50.3125L23.4216 48.125H31.2659L29.0784 50.3125H21.2341Z" fill="#617792"/>
<path d="M40.4686 20.7813C40.4663 19.024 39.993 17.2995 39.0982 15.7872C38.9491 15.5406 38.7088 15.3628 38.4294 15.2925C38.15 15.2221 37.8541 15.2648 37.606 15.4113C37.3579 15.5578 37.1777 15.7963 37.1044 16.075C37.0311 16.3536 37.0708 16.6499 37.2147 16.8995C38.1536 18.4833 38.488 20.3533 38.1561 22.1643C37.8242 23.9753 36.8485 25.6052 35.4089 26.7531C35.2812 26.8556 35.1782 26.9855 35.1074 27.1332C35.0366 27.2808 34.9999 27.4425 34.9999 27.6063V28.4375H34.0341L34.9933 19.8078C35.0136 19.6254 34.9876 19.4409 34.9178 19.2711C34.848 19.1014 34.7366 18.952 34.5938 18.8366C34.4511 18.7212 34.2817 18.6436 34.1011 18.6109C33.9205 18.5783 33.7346 18.5915 33.5605 18.6495L30.6249 19.6339L27.6893 18.6495C27.5152 18.5915 27.3292 18.5783 27.1487 18.6109C26.9681 18.6436 26.7986 18.7212 26.6559 18.8366C26.5132 18.952 26.4018 19.1014 26.332 19.2711C26.2622 19.4409 26.2362 19.6254 26.2564 19.8078L27.2157 28.4375H26.2499V27.6063C26.2499 27.4425 26.2132 27.2808 26.1424 27.1332C26.0716 26.9855 25.9685 26.8556 25.8408 26.7531C24.3258 25.5458 23.3253 23.8085 23.0415 21.8921C22.7577 19.9757 23.2117 18.023 24.3118 16.4284C25.4119 14.8337 27.0761 13.7159 28.9683 13.3007C30.8606 12.8855 32.8399 13.2038 34.5066 14.1914C34.7565 14.3389 35.0548 14.3811 35.3358 14.3087C35.6168 14.2363 35.8575 14.0552 36.005 13.8053C36.1525 13.5554 36.1947 13.2571 36.1223 12.9761C36.0499 12.6951 35.8689 12.4544 35.619 12.3069C33.5162 11.069 31.0285 10.6567 28.6388 11.1502C26.2492 11.6436 24.1282 13.0076 22.6878 14.9772C21.2474 16.9467 20.5905 19.3813 20.8445 21.8082C21.0985 24.235 22.2454 26.4808 24.0624 28.1094V28.6355C23.423 28.8582 22.8689 29.2744 22.4767 29.8263C22.0845 30.3782 21.8739 31.0384 21.8739 31.7155C21.8739 32.3925 22.0845 33.0528 22.4767 33.6047C22.8689 34.1565 23.423 34.5727 24.0624 34.7955V35C24.0624 36.7405 24.7538 38.4097 25.9845 39.6404C27.2152 40.8711 28.8844 41.5625 30.6249 41.5625C32.3654 41.5625 34.0346 40.8711 35.2653 39.6404C36.496 38.4097 37.1874 36.7405 37.1874 35V34.7988C37.8267 34.576 38.3809 34.1598 38.7731 33.6079C39.1652 33.056 39.3759 32.3958 39.3759 31.7188C39.3759 31.0417 39.1652 30.3815 38.7731 29.8296C38.3809 29.2777 37.8267 28.8615 37.1874 28.6388V28.1094C38.2211 27.1891 39.048 26.0602 39.6136 24.7971C40.1792 23.5339 40.4706 22.1652 40.4686 20.7813ZM28.62 21.2658L30.2793 21.8192C30.5036 21.8939 30.7462 21.8939 30.9705 21.8192L32.6297 21.2658L31.8335 28.4375H29.4218L28.62 21.2658ZM30.6249 39.375C29.4646 39.375 28.3518 38.9141 27.5313 38.0936C26.7108 37.2731 26.2499 36.1603 26.2499 35H34.9999C34.9999 36.1603 34.5389 37.2731 33.7185 38.0936C32.898 38.9141 31.7852 39.375 30.6249 39.375ZM36.0936 32.8125H25.1561C24.8661 32.8125 24.5879 32.6973 24.3827 32.4921C24.1776 32.287 24.0624 32.0088 24.0624 31.7188C24.0624 31.4287 24.1776 31.1505 24.3827 30.9454C24.5879 30.7402 24.8661 30.625 25.1561 30.625H36.0936C36.3837 30.625 36.6619 30.7402 36.867 30.9454C37.0722 31.1505 37.1874 31.4287 37.1874 31.7188C37.1874 32.0088 37.0722 32.287 36.867 32.4921C36.6619 32.6973 36.3837 32.8125 36.0936 32.8125Z" fill="#617792"/>
<path d="M17.5 21.875C18.1041 21.875 18.5938 21.3853 18.5938 20.7812C18.5938 20.1772 18.1041 19.6875 17.5 19.6875C16.8959 19.6875 16.4062 20.1772 16.4062 20.7812C16.4062 21.3853 16.8959 21.875 17.5 21.875Z" fill="#617792"/>
<path d="M43.75 21.875C44.3541 21.875 44.8438 21.3853 44.8438 20.7812C44.8438 20.1772 44.3541 19.6875 43.75 19.6875C43.1459 19.6875 42.6562 20.1772 42.6562 20.7812C42.6562 21.3853 43.1459 21.875 43.75 21.875Z" fill="#617792"/>
<path d="M30.625 8.75C31.2291 8.75 31.7188 8.26031 31.7188 7.65625C31.7188 7.05219 31.2291 6.5625 30.625 6.5625C30.0209 6.5625 29.5312 7.05219 29.5312 7.65625C29.5312 8.26031 30.0209 8.75 30.625 8.75Z" fill="#617792"/>
<path d="M19.8067 13.2716C19.6193 13.1634 19.4041 13.1132 19.1883 13.1273C18.9724 13.1415 18.7656 13.2193 18.594 13.351C18.4223 13.4827 18.2936 13.6623 18.2241 13.8672C18.1545 14.072 18.1473 14.2929 18.2033 14.5018C18.2593 14.7108 18.376 14.8984 18.5386 15.0411C18.7012 15.1837 18.9025 15.2749 19.117 15.3032C19.3315 15.3314 19.5495 15.2954 19.7435 15.1997C19.9375 15.104 20.0988 14.953 20.207 14.7656C20.352 14.5144 20.3913 14.2159 20.3163 13.9357C20.2412 13.6555 20.0579 13.4166 19.8067 13.2716Z" fill="#617792"/>
<path d="M41.4453 28.2909C41.6326 28.3991 41.8478 28.4493 42.0637 28.4352C42.2796 28.421 42.4864 28.3432 42.658 28.2115C42.8296 28.0798 42.9583 27.9002 43.0279 27.6953C43.0974 27.4905 43.1047 27.2696 43.0487 27.0607C42.9927 26.8517 42.876 26.6641 42.7134 26.5214C42.5507 26.3788 42.3494 26.2876 42.135 26.2593C41.9205 26.2311 41.7024 26.2671 41.5084 26.3628C41.3144 26.4585 41.1531 26.6095 41.045 26.7969C40.8999 27.0481 40.8606 27.3466 40.9357 27.6268C41.0108 27.907 41.1941 28.1459 41.4453 28.2909Z" fill="#617792"/>
<path d="M37.4764 10.4651C38.0599 10.3087 38.4061 9.70891 38.2496 9.12546C38.0932 8.542 37.4934 8.19583 36.91 8.35227C36.3265 8.5087 35.9803 9.1085 36.1368 9.69195C36.2932 10.2754 36.893 10.6216 37.4764 10.4651Z" fill="#617792"/>
<path d="M42.5391 15.1659C42.7264 15.0578 42.8775 14.8965 42.9731 14.7025C43.0688 14.5085 43.1048 14.2904 43.0766 14.076C43.0483 13.8615 42.9571 13.6602 42.8145 13.4976C42.6719 13.3349 42.4842 13.2182 42.2753 13.1622C42.0663 13.1062 41.8454 13.1135 41.6406 13.183C41.4358 13.2526 41.2561 13.3813 41.1244 13.5529C40.9928 13.7245 40.9149 13.9314 40.9008 14.1472C40.8866 14.3631 40.9368 14.5783 41.045 14.7656C41.19 15.0168 41.4289 15.2001 41.7091 15.2752C41.9893 15.3503 42.2878 15.311 42.5391 15.1659Z" fill="#617792"/>
<path d="M19.8066 28.2909C19.994 28.1828 20.145 28.0215 20.2407 27.8275C20.3364 27.6335 20.3724 27.4154 20.3442 27.201C20.3159 26.9865 20.2247 26.7852 20.0821 26.6226C19.9395 26.4599 19.7518 26.3432 19.5428 26.2872C19.3339 26.2312 19.113 26.2385 18.9082 26.308C18.7033 26.3776 18.5237 26.5063 18.392 26.6779C18.2603 26.8495 18.1825 27.0563 18.1684 27.2722C18.1542 27.4881 18.2044 27.7033 18.3126 27.8906C18.4576 28.1418 18.6965 28.3251 18.9767 28.4002C19.2569 28.4753 19.5554 28.436 19.8066 28.2909Z" fill="#617792"/>
<path d="M24.6094 10.3622C24.7967 10.254 24.9478 10.0927 25.0435 9.89872C25.1391 9.70471 25.1751 9.48668 25.1469 9.2722C25.1187 9.05773 25.0275 8.85644 24.8848 8.6938C24.7422 8.53116 24.5545 8.41447 24.3456 8.35848C24.1366 8.3025 23.9157 8.30973 23.7109 8.37927C23.5061 8.44881 23.3264 8.57753 23.1948 8.74915C23.0631 8.92078 22.9852 9.1276 22.9711 9.34346C22.9569 9.55933 23.0071 9.77453 23.1153 9.96187C23.2603 10.2131 23.4992 10.3964 23.7794 10.4715C24.0596 10.5465 24.3582 10.5072 24.6094 10.3622Z" fill="#617792"/>
<path d="M65.078 9.48281C63.8215 8.75907 62.3291 8.56334 60.9284 8.93859C59.5277 9.31383 58.3331 10.2294 57.6066 11.4844L56.5129 13.3798L54.3254 17.1686L40.6535 40.8494C40.6458 40.8625 40.6469 40.8767 40.6393 40.8909C40.5795 40.9996 40.5384 41.1175 40.5179 41.2398V41.2595L39.8485 45.9003L38.8411 52.9003C38.8101 53.1166 38.8446 53.3372 38.9402 53.5337C39.0357 53.7302 39.1879 53.8936 39.3771 54.0028C39.5664 54.1121 39.784 54.1621 40.0019 54.1465C40.2199 54.1309 40.4281 54.0504 40.5999 53.9153L44.5669 50.7938L49.8454 46.6375L49.8552 46.6298C49.951 46.5512 50.0327 46.4569 50.0969 46.3509C50.1046 46.3389 50.1188 46.3313 50.1265 46.3181L59.4233 30.2148C59.5684 29.9635 59.6076 29.6648 59.5324 29.3845C59.4573 29.1042 59.2738 28.8653 59.0225 28.7202C58.7711 28.5752 58.4724 28.5359 58.1922 28.6111C57.9119 28.6863 57.6729 28.8697 57.5279 29.1211L48.7779 44.2761L46.8846 43.1823L59.4627 21.3959L61.356 22.4897L59.7154 25.3334C59.5703 25.5848 59.5311 25.8835 59.6063 26.1638C59.6814 26.4441 59.8649 26.683 60.1162 26.828C60.3676 26.9731 60.6663 27.0123 60.9466 26.9372C61.2268 26.862 61.4658 26.6785 61.6108 26.4272L63.7983 22.6384L65.9858 18.8497L67.0796 16.9542C67.803 15.6976 67.9986 14.2053 67.6234 12.8047C67.2482 11.4041 66.3328 10.2095 65.078 9.48281ZM63.9843 11.3783C64.3579 11.5936 64.6854 11.8804 64.9481 12.2223C65.2108 12.5643 65.4036 12.9546 65.5153 13.3711C65.627 13.7876 65.6556 14.222 65.5993 14.6495C65.5431 15.077 65.4031 15.4893 65.1874 15.8627L64.6405 16.8109L58.953 13.5297L59.4999 12.5814C59.7149 12.2075 60.0015 11.8797 60.3433 11.6166C60.6851 11.3536 61.0755 11.1605 61.492 11.0485C61.9085 10.9364 62.343 10.9076 62.7706 10.9636C63.1983 11.0197 63.6107 11.1594 63.9843 11.375V11.3783ZM63.5468 18.7064L62.453 20.6008L59.6093 18.9602L56.7655 17.3195L57.8593 15.4252L60.703 17.0658L63.5468 18.7064ZM55.6718 19.2139L57.5661 20.3077L44.988 42.0941L43.0937 41.0003L55.6718 19.2139ZM45.3796 47.3714L42.1158 45.4869L42.4516 43.155L47.2313 45.9145L45.3796 47.3714ZM41.3929 50.5094L41.7801 47.8188L43.5301 48.8283L41.3929 50.5094Z" fill="#617792"/>
</svg>
