<svg width="70" height="70" viewBox="0 0 70 70" fill="none" xmlns="http://www.w3.org/2000/svg">
<g clip-path="url(#clip0_1599_1374)">
<path d="M45.8613 6.07523C46.4278 6.07523 46.8867 5.61627 46.8867 5.04984V1.02539C46.8867 0.458965 46.4278 0 45.8613 0C45.2949 0 44.8359 0.458965 44.8359 1.02539V5.04984C44.8359 5.61613 45.295 6.07523 45.8613 6.07523Z" fill="#617792"/>
<path d="M36.2388 7.33136C36.4414 7.56556 36.7272 7.6856 37.0144 7.6856C37.2523 7.6856 37.4912 7.6033 37.6852 7.43541C38.1134 7.06476 38.16 6.41726 37.7892 5.98906L35.1776 2.97263C34.807 2.54429 34.1593 2.49781 33.7313 2.86859C33.3031 3.23923 33.2564 3.88673 33.6272 4.31494L36.2388 7.33136Z" fill="#617792"/>
<path d="M54.0398 7.43548C54.2339 7.60351 54.4727 7.68568 54.7106 7.68568C54.9978 7.68568 55.2834 7.56564 55.4862 7.33144L58.0978 4.31501C58.4686 3.88681 58.422 3.23931 57.9938 2.86867C57.5655 2.49788 56.9179 2.54451 56.5474 2.97271L53.9358 5.98913C53.565 6.41734 53.6116 7.06484 54.0398 7.43548Z" fill="#617792"/>
<path d="M43.7365 38.1822C44.332 38.755 45.0965 39.0412 45.8609 39.0412C46.6253 39.0412 47.3899 38.755 47.9854 38.1822L63.7587 23.0171C64.8747 21.9442 65.0146 20.202 64.0838 18.9646L61.9667 16.1504C61.6264 15.6979 60.9834 15.607 60.5309 15.9475C60.0782 16.288 59.9874 16.9308 60.328 17.3834L62.1459 19.8001H54.0068L51.8446 12.6626H56.2703C56.5873 12.6626 56.8903 12.8138 57.081 13.0671L57.8635 14.107C58.2039 14.5596 58.8468 14.6505 59.2993 14.3099C59.752 13.9695 59.8428 13.3266 59.5022 12.8741L58.7197 11.8342C58.1439 11.0687 57.2281 10.6118 56.2703 10.6118H35.4519C34.4939 10.6118 33.5781 11.0689 33.0023 11.8342L27.6384 18.9646C26.7076 20.2018 26.8473 21.9439 27.9634 23.0171L43.7365 38.1822ZM37.6593 21.8509L43.5313 35.1401L29.7091 21.8509H37.6593ZM62.0128 21.8509L48.1912 35.1396L54.063 21.8508H62.0128V21.8509ZM45.8611 35.3386L39.9014 21.8509H51.8208L45.8611 35.3386ZM49.7018 12.6626L51.8638 19.8001H39.8583L42.0202 12.6626H49.7018ZM34.641 13.0671C34.8317 12.8138 35.1347 12.6626 35.4519 12.6626H39.8776L37.7155 19.8001H29.576L34.641 13.0671Z" fill="#617792"/>
<path d="M62.6251 50.8886L56.345 54.7088C50.2286 58.4293 42.8369 59.23 36.0658 56.9057C35.0733 56.5651 34.393 55.7415 34.2457 54.7029C34.0984 53.6641 34.5228 52.6837 35.3814 52.0805L41.9127 47.4907C43.6133 46.2956 44.0428 44.0044 42.89 42.2749C42.0154 40.962 40.4551 40.3321 38.9136 40.6702L22.134 44.3515V44.1396C22.134 42.6733 20.9412 41.4806 19.475 41.4806H11.067C10.5005 41.4806 10.0416 41.9395 10.0416 42.506C10.0416 43.0724 10.5005 43.5313 11.067 43.5313H19.4749C19.8102 43.5313 20.0831 43.8042 20.0831 44.1396V67.341C20.0831 67.6764 19.8102 67.9491 19.4749 67.9491H2.09617C2.07115 67.9491 2.05078 67.9289 2.05078 67.9039V43.5766C2.05078 43.5516 2.07115 43.5313 2.09617 43.5313H6.96731C7.53374 43.5313 7.9927 43.0724 7.9927 42.506C7.9927 41.9395 7.53374 41.4806 6.96731 41.4806H2.09617C0.94035 41.4806 0 42.4209 0 43.5766V67.904C0 69.0596 0.94035 69.9999 2.09617 69.9999H19.4749C20.9412 69.9999 22.1339 68.807 22.1339 67.341V66.8197L22.7345 66.9929C27.2665 68.3005 31.91 68.9573 36.5979 68.9571C38.3551 68.9571 40.1195 68.8649 41.8852 68.6799C48.4165 67.9959 54.6521 66.0776 60.4188 62.9785C60.9175 62.7103 61.1047 62.0885 60.8366 61.5898C60.5686 61.091 59.9468 60.9035 59.4479 61.172C53.9174 64.1444 47.9366 65.9841 41.6717 66.6403C35.459 67.2907 29.2787 66.7465 23.303 65.0225L22.1339 64.6852V46.4511L39.353 42.6734C40.0629 42.5174 40.7805 42.8076 41.1833 43.412C41.7139 44.2081 41.5163 45.2626 40.7334 45.8128L34.202 50.4025C32.7225 51.4423 31.9611 53.2006 32.2152 54.9911C32.4694 56.7815 33.6896 58.2584 35.4 58.8454C42.7493 61.3682 50.7719 60.4993 57.4107 56.4608L63.691 52.6406C65.4914 51.5451 68.0012 52.7385 67.9484 54.5199C67.9323 55.0691 67.6796 55.5843 67.2555 55.9336C65.8968 57.0521 64.4626 58.1065 62.9928 59.0675C62.5188 59.3774 62.3859 60.0129 62.6957 60.4869C63.0059 60.961 63.6414 61.0938 64.1151 60.784C65.6474 59.7821 67.1426 58.6829 68.5588 57.517C69.4399 56.7917 69.9646 55.7214 69.9982 54.5807C70.1028 51.0474 65.7016 49.0168 62.6251 50.8886Z" fill="#617792"/>
<path d="M14.8789 60.8771V58.6531C14.8789 58.0867 14.4199 57.6277 13.8535 57.6277C13.2871 57.6277 12.8281 58.0867 12.8281 58.6531V60.8771C12.8281 61.4435 13.2871 61.9025 13.8535 61.9025C14.4199 61.9025 14.8789 61.4434 14.8789 60.8771Z" fill="#617792"/>
</g>
<defs>
<clipPath id="clip0_1599_1374">
<rect width="70" height="70" fill="white"/>
</clipPath>
</defs>
</svg>
