<svg width="70" height="70" viewBox="0 0 70 70" fill="none" xmlns="http://www.w3.org/2000/svg">
<g clip-path="url(#clip0_1599_1418)">
<mask id="mask0_1599_1418" style="mask-type:luminance" maskUnits="userSpaceOnUse" x="0" y="0" width="70" height="70">
<path d="M0 7.62939e-06H70V70H0V7.62939e-06Z" fill="white"/>
</mask>
<g mask="url(#mask0_1599_1418)">
<path d="M31.9238 44.7412H3.07617C1.94824 44.7412 1.02539 43.8184 1.02539 42.6904V27.3096C1.02539 26.1816 1.94824 25.2588 3.07617 25.2588H66.9238C68.0518 25.2588 68.9746 26.1818 68.9746 27.3096V42.6904C68.9746 43.8184 68.0516 44.7412 66.9238 44.7412H38.0762M36.0254 44.7412H33.9746" stroke="#617792" stroke-width="2" stroke-miterlimit="22.926"/>
<path d="M6.04486 25.2588L5.84375 18.1665L13.8449 13.8447L18.1668 5.8435L27.2569 6.10122L35.0004 1.33302L42.7437 6.10122L51.8339 5.8435L56.1557 13.8447L64.1568 18.1665L63.9559 25.2588M63.9559 44.7412L64.1568 51.8335L56.1557 56.1553L51.8339 64.1565L42.7437 63.8988L35.0004 68.667L27.2569 63.8988L18.1668 64.1565L13.8449 56.1553L5.84375 51.8335L6.04486 44.7412" stroke="#617792" stroke-width="2" stroke-miterlimit="22.926"/>
<path d="M22.3487 13.8894C26.0457 11.6684 30.3739 10.3906 35.0009 10.3906C45.1317 10.3906 53.8314 16.5129 57.6054 25.2588M12.3965 25.2588C14.1719 21.1441 17.0379 17.6106 20.63 15.0217M57.6054 44.7412C53.8314 53.4872 45.1317 59.6093 35.0009 59.6093C24.8702 59.6093 16.1705 53.4872 12.3965 44.7412" stroke="#617792" stroke-width="2" stroke-miterlimit="22.926"/>
<path d="M46.2793 19.6191V17.5684M42.1777 17.5682V15.5174" stroke="#617792" stroke-width="2" stroke-miterlimit="2.613"/>
<path d="M30.7246 39.0431L33.8428 30.8558L34.1911 30.8554L37.281 39.0431" stroke="#617792" stroke-width="2" stroke-miterlimit="10" stroke-linecap="square"/>
<path d="M31.6973 37.0041H36.3242" stroke="#617792" stroke-width="2" stroke-miterlimit="10" stroke-linecap="round" stroke-linejoin="bevel"/>
<path d="M43.6914 39.1441V30.8554L44.0556 30.8556L49.1834 39.0162H49.5478V30.84" stroke="#617792" stroke-width="2" stroke-miterlimit="10" stroke-linecap="square"/>
<path d="M61.1284 34.8692C61.1284 37.0895 59.896 38.8642 57.9409 38.8985H55.5918V30.8399H57.874C60.0186 30.8399 61.1284 32.6487 61.1284 34.8692Z" stroke="#617792" stroke-width="2" stroke-miterlimit="10" stroke-linecap="square"/>
<path d="M9.2832 34.6798H11.7065C12.941 34.6798 13.9418 35.6805 13.9418 36.9151C13.9418 38.1495 12.941 39.1602 11.7065 39.1602H8.87305V30.856H11.2852C12.3405 30.856 13.1961 31.7114 13.1961 32.7667C13.1961 33.8222 12.3406 34.6798 11.2853 34.6798" stroke="#617792" stroke-width="2" stroke-miterlimit="10" stroke-linecap="square"/>
<path d="M21.4863 35.7203L24.2229 38.9552" stroke="#617792" stroke-width="2" stroke-miterlimit="10" stroke-linecap="square" stroke-linejoin="round"/>
<path d="M20.4126 35.1819L22.1937 35.1723C23.4289 35.1723 24.4741 34.206 24.4741 33.0142C24.4741 31.8223 23.4289 30.8559 22.1937 30.8559H19.9857L19.9844 39.1602" stroke="#617792" stroke-width="2" stroke-miterlimit="10" stroke-linecap="square"/>
</g>
</g>
<defs>
<clipPath id="clip0_1599_1418">
<rect width="70" height="70" fill="white"/>
</clipPath>
</defs>
</svg>
