<svg width="70" height="70" viewBox="0 0 70 70" fill="none" xmlns="http://www.w3.org/2000/svg">
<g clip-path="url(#clip0_1599_2001)">
<path d="M16.4675 41.1909C14.7613 41.1909 13.3789 39.8085 13.3789 38.1023C13.3789 36.3981 14.7599 35.0137 16.4675 35.0137H20.5856" stroke="#617792" stroke-width="2" stroke-miterlimit="10" stroke-linecap="round" stroke-linejoin="round"/>
<path d="M20.5859 35.0137L24.9497 32.2861C26.6355 31.2333 28.8221 32.4454 28.8221 34.433V41.7715C28.8221 43.7593 26.6355 44.9713 24.9497 43.9184L20.5859 41.1909V35.0137Z" stroke="#617792" stroke-width="2" stroke-miterlimit="10" stroke-linecap="round" stroke-linejoin="round"/>
<path d="M16.4688 41.1909V46.3385C16.4688 47.4752 17.3912 48.3976 18.5279 48.3976C19.6644 48.3976 20.587 47.4752 20.587 46.3385V41.1909H16.4688Z" stroke="#617792" stroke-width="2" stroke-miterlimit="10" stroke-linecap="round" stroke-linejoin="round"/>
<path d="M25.3723 68.9746H55.9344C63.1367 68.9746 68.9746 63.1367 68.9746 55.9344C68.9746 54.1721 68.9746 16.1875 68.9746 14.0656C68.9746 6.86328 63.1367 1.02539 55.9344 1.02539H14.0656C6.86328 1.02539 1.02539 6.86328 1.02539 14.0656C1.02539 16.1875 1.02539 54.1721 1.02539 55.9344C1.02539 63.1367 6.86328 68.9746 14.0656 68.9746H20.5871" stroke="#617792" stroke-width="2" stroke-miterlimit="10" stroke-linecap="round" stroke-linejoin="round"/>
<path d="M1.02539 15.4388H68.9746" stroke="#617792" stroke-width="2" stroke-miterlimit="10" stroke-linecap="round" stroke-linejoin="round"/>
<path d="M57.649 10.2912C58.7862 10.2912 59.7081 9.36932 59.7081 8.23209C59.7081 7.09487 58.7862 6.17297 57.649 6.17297C56.5117 6.17297 55.5898 7.09487 55.5898 8.23209C55.5898 9.36932 56.5117 10.2912 57.649 10.2912Z" stroke="#617792" stroke-width="2" stroke-miterlimit="10" stroke-linecap="round" stroke-linejoin="round"/>
<path d="M48.3833 10.2912C49.5206 10.2912 50.4425 9.36932 50.4425 8.23209C50.4425 7.09487 49.5206 6.17297 48.3833 6.17297C47.2461 6.17297 46.3242 7.09487 46.3242 8.23209C46.3242 9.36932 47.2461 10.2912 48.3833 10.2912Z" stroke="#617792" stroke-width="2" stroke-miterlimit="10" stroke-linecap="round" stroke-linejoin="round"/>
<path d="M39.1177 10.2912C40.2549 10.2912 41.1768 9.36932 41.1768 8.23209C41.1768 7.09487 40.2549 6.17297 39.1177 6.17297C37.9805 6.17297 37.0586 7.09487 37.0586 8.23209C37.0586 9.36932 37.9805 10.2912 39.1177 10.2912Z" stroke="#617792" stroke-width="2" stroke-miterlimit="10" stroke-linecap="round" stroke-linejoin="round"/>
<path d="M49.0512 22.6461H55.3402C58.8895 22.6461 61.7688 25.524 61.7688 29.0746V51.2217C61.7688 54.7709 58.8895 57.6502 55.3402 57.6502H42.352C40.6006 57.6502 38.9244 58.3447 37.6857 59.5821L35.0006 62.2672L32.3154 59.5821C31.0768 58.3447 29.4006 57.6502 27.6492 57.6502H14.6609C11.1117 57.6502 8.23242 54.7709 8.23242 51.2217V29.0746C8.23242 25.524 11.1117 22.6461 14.6609 22.6461H44.266" stroke="#617792" stroke-width="2" stroke-miterlimit="10" stroke-linecap="round" stroke-linejoin="round"/>
<path d="M52.3307 51.4725H38.2604C35.8911 51.4725 33.9707 49.5521 33.9707 47.1829V33.1124C33.9707 30.7431 35.8912 28.8228 38.2604 28.8228H52.3307C54.7 28.8228 56.6203 30.7431 56.6203 33.1124V47.1827C56.6203 49.5521 54.7 51.4725 52.3307 51.4725Z" stroke="#617792" stroke-width="2" stroke-miterlimit="10" stroke-linecap="round" stroke-linejoin="round"/>
<path d="M38.0879 41.1772C42.0097 32.0262 40.9005 34.6145 41.1765 33.9705C41.4524 34.6143 40.3433 32.0263 44.2651 41.1772" stroke="#617792" stroke-width="2" stroke-miterlimit="10" stroke-linecap="round" stroke-linejoin="round"/>
<path d="M48.8995 41.1772H48.3848V33.9705H48.8995C50.89 33.9705 52.5029 35.5835 52.5029 37.5738C52.5029 38.569 52.0993 39.4696 51.4473 40.1216C50.7953 40.7736 49.8947 41.1772 48.8995 41.1772Z" stroke="#617792" stroke-width="2" stroke-miterlimit="10" stroke-linecap="round" stroke-linejoin="round"/>
<path d="M43.3826 39.1182H38.9707" stroke="#617792" stroke-width="2" stroke-miterlimit="10" stroke-linecap="round" stroke-linejoin="round"/>
<path d="M38.0879 46.3248H52.5013" stroke="#617792" stroke-width="2" stroke-miterlimit="10" stroke-linecap="round" stroke-linejoin="round"/>
</g>
<defs>
<clipPath id="clip0_1599_2001">
<rect width="70" height="70" fill="white"/>
</clipPath>
</defs>
</svg>
