<svg width="70" height="70" viewBox="0 0 70 70" fill="none" xmlns="http://www.w3.org/2000/svg">
<path d="M66.8061 5.48157H3.19389C2.92707 5.48186 2.67125 5.58798 2.48258 5.77665C2.29391 5.96532 2.18779 6.22113 2.1875 6.48795V53.1847C2.18779 53.4515 2.29391 53.7073 2.48258 53.896C2.67125 54.0846 2.92707 54.1907 3.19389 54.191H28.6699V57.8477H20.2281C19.3546 57.8645 18.5225 58.2233 17.9107 58.8469C17.2989 59.4706 16.9562 60.3094 16.9562 61.183C16.9562 62.0567 17.2989 62.8955 17.9107 63.5191C18.5225 64.1428 19.3546 64.5016 20.2281 64.5184H49.7721C50.6455 64.5016 51.4776 64.1428 52.0894 63.5191C52.7012 62.8955 53.0439 62.0567 53.0439 61.183C53.0439 60.3094 52.7012 59.4706 52.0894 58.8469C51.4776 58.2233 50.6455 57.8645 49.7721 57.8477H41.3301V54.191H66.8061C67.0729 54.1907 67.3287 54.0846 67.5174 53.896C67.7061 53.7073 67.8122 53.4515 67.8125 53.1847V6.48795C67.8122 6.22113 67.7061 5.96532 67.5174 5.77665C67.3287 5.58798 67.0729 5.48186 66.8061 5.48157ZM66.0658 7.22829V45.4643H3.93422V7.22829H66.0658ZM51.3606 61.1831C51.3601 61.6043 51.1926 62.0081 50.8948 62.3059C50.597 62.6037 50.1932 62.7712 49.7721 62.7716H20.2281C19.8093 62.7678 19.409 62.5987 19.1143 62.3012C18.8195 62.0037 18.6542 61.6018 18.6542 61.183C18.6542 60.7643 18.8195 60.3624 19.1143 60.0649C19.409 59.7674 19.8093 59.5983 20.2281 59.5944H49.7721C50.1932 59.5949 50.597 59.7625 50.8948 60.0603C51.1926 60.3581 51.3601 60.7619 51.3606 61.1831ZM39.5829 57.8472H30.4171V54.191H39.5829V57.8472ZM3.93422 52.4445V47.2109H66.0658V52.4445H3.93422ZM9.00361 49.998C9.00363 50.1127 8.98106 50.2263 8.93718 50.3322C8.89331 50.4382 8.82899 50.5345 8.7479 50.6156C8.66681 50.6967 8.57054 50.761 8.46459 50.8049C8.35864 50.8488 8.24508 50.8714 8.13039 50.8714H7.91834C7.68671 50.8714 7.46457 50.7794 7.30078 50.6156C7.13699 50.4518 7.04498 50.2296 7.04498 49.998C7.04498 49.7664 7.13699 49.5442 7.30078 49.3805C7.46457 49.2167 7.68671 49.1247 7.91834 49.1247H8.13039C8.24508 49.1247 8.35864 49.1472 8.46459 49.1911C8.57054 49.235 8.66681 49.2994 8.7479 49.3805C8.82899 49.4616 8.89331 49.5578 8.93718 49.6638C8.98106 49.7698 9.00363 49.8833 9.00361 49.998ZM9.69336 33.6444C9.84619 34.0873 10.0886 34.494 10.4054 34.8391C10.7222 35.1843 11.1067 35.4605 11.535 35.6506C12.0142 35.8692 12.5347 35.9822 13.0614 35.9819C13.4823 35.9812 13.9002 35.9108 14.298 35.7734C14.4989 35.7026 14.6877 35.635 14.8684 35.5698L16.9492 39.0181C17.5074 39.9433 18.1429 40.1832 18.6729 40.1832C19.0007 40.1726 19.3232 40.0972 19.6217 39.9612C19.6734 39.94 19.7235 39.919 19.7721 39.9024L20.9409 39.5013C21.1727 39.4253 21.3844 39.2979 21.56 39.1286C21.7356 38.9593 21.8707 38.7525 21.9551 38.5236C22.0362 38.2875 22.0629 38.0362 22.0331 37.7884C22.0034 37.5405 21.918 37.3026 21.7834 37.0924L20.0309 34.2521C20.6404 34.2538 21.3871 34.2924 22.3888 34.3586L30.7423 34.8635C30.9846 35.4944 31.4652 36.0049 32.0803 36.2848C32.6955 36.5647 33.396 36.5917 34.0309 36.3599C34.6658 36.1282 35.1842 35.6563 35.4743 35.0459C35.7645 34.4355 35.8032 33.7355 35.5821 33.0968L34.0927 28.7574C34.8902 28.3914 35.4754 27.593 35.7141 26.5271C35.9442 25.4999 35.85 24.2907 35.4488 23.122C35.0477 21.9533 34.3794 20.9409 33.5671 20.2715C32.7242 19.577 31.7721 19.306 30.9179 19.507L29.4912 15.3507C29.2686 14.7047 28.7989 14.1732 28.185 13.873C27.5711 13.5729 26.8632 13.5284 26.2166 13.7495C25.5939 13.9639 25.0769 14.4086 24.7718 14.9923C24.4666 15.5759 24.3966 16.2543 24.576 16.888L18.3169 22.4806C16.9537 23.6665 16.1811 24.2853 15.428 24.7135C15.3883 24.7319 15.3501 24.7532 15.3136 24.7774C14.6146 25.158 13.9073 25.3903 12.7343 25.7754C12.2519 25.9339 11.7052 26.1134 11.0526 26.3375C10.1491 26.6429 9.39771 27.2842 8.95412 28.1285C8.73291 28.5415 8.59909 28.9956 8.56098 29.4626C8.52288 29.9295 8.58131 30.3994 8.73264 30.8428L9.69336 33.6444ZM19.2052 38.2503C19.1265 38.2777 19.0449 38.3101 18.9611 38.3442C18.8769 38.3816 18.7901 38.4126 18.7013 38.4371C18.5961 38.3474 18.509 38.2383 18.445 38.1158L16.5389 34.9569C17.0501 34.7599 17.5718 34.5914 18.1016 34.452L20.2289 37.899L19.2052 38.2503ZM32.457 21.6196C33.0155 22.0798 33.504 22.8339 33.7969 23.689C34.0897 24.544 34.1679 25.4389 34.0099 26.1454C33.9142 26.5743 33.7386 26.8983 33.5156 27.0751L31.4952 21.1881C31.7801 21.1921 32.1174 21.3401 32.457 21.6196ZM26.3095 15.8227C26.3812 15.6748 26.4952 15.5516 26.6371 15.4687C26.779 15.3858 26.9423 15.347 27.1063 15.3571C27.2703 15.3672 27.4276 15.4259 27.5582 15.5256C27.6888 15.6253 27.7868 15.7616 27.8398 15.9172L29.5542 20.9123L29.5553 20.9159L29.5564 20.9188L32.1523 28.4819C32.1531 28.4846 32.1537 28.4874 32.1546 28.4901C32.1556 28.4928 32.1562 28.4935 32.1568 28.4953L33.9307 33.6633C34.0023 33.8718 33.9881 34.1001 33.8912 34.2982C33.7944 34.4962 33.6228 34.6476 33.4143 34.7191C33.2058 34.7907 32.9775 34.7765 32.7794 34.6796C32.5814 34.5828 32.43 34.4113 32.3585 34.2028L32.1997 33.7407C32.1988 33.7378 32.1979 33.7349 32.1969 33.732L26.4128 16.8795L26.4096 16.8702L26.2676 16.4567C26.2323 16.3536 26.2178 16.2445 26.2248 16.1357C26.2319 16.0269 26.2605 15.9206 26.3089 15.823L26.3095 15.8227ZM19.4726 23.7905L25.1865 18.685L30.1256 33.0761L22.4997 32.615C20.9661 32.5136 19.9567 32.4783 19.1263 32.5337L16.8472 25.8929C17.541 25.4307 18.3203 24.7931 19.472 23.7908L19.4726 23.7905ZM10.5015 28.9388C10.7384 28.4907 11.1387 28.1508 11.6193 27.9897C12.2619 27.7693 12.8021 27.5917 13.2792 27.435C14.1064 27.1634 14.7336 26.953 15.2852 26.7241L17.3828 32.8354C16.8212 32.9935 16.2146 33.2132 15.4209 33.5069C15.2727 33.5615 15.1178 33.6187 14.9561 33.6784L14.952 33.6799C14.5854 33.8149 14.1821 33.9617 13.7248 34.1231C13.2465 34.2912 12.7219 34.2688 12.2597 34.0604C12.0481 33.9678 11.8577 33.8326 11.7006 33.6633C11.5434 33.4939 11.4228 33.294 11.3463 33.0761L10.3847 30.2748C10.3116 30.056 10.2842 29.8245 10.3043 29.5947C10.3244 29.3649 10.3915 29.1416 10.5015 28.9388ZM49.2687 15.7728C49.2687 15.5412 49.3607 15.319 49.5245 15.1552C49.6882 14.9915 49.9104 14.8994 50.142 14.8994H60.5765C60.8082 14.8994 61.0303 14.9915 61.1941 15.1552C61.3579 15.319 61.4499 15.5412 61.4499 15.7728C61.4499 16.0044 61.3579 16.2266 61.1941 16.3904C61.0303 16.5541 60.8082 16.6462 60.5765 16.6462H50.142C50.0273 16.6462 49.9136 16.6235 49.8076 16.5796C49.7016 16.5357 49.6053 16.4713 49.5242 16.3901C49.4431 16.3089 49.3788 16.2126 49.3349 16.1065C49.2911 16.0005 49.2686 15.8869 49.2687 15.7721V15.7728ZM40.9336 21.13C40.9336 20.8984 41.0256 20.6762 41.1894 20.5124C41.3532 20.3486 41.5753 20.2566 41.807 20.2566H60.5765C60.8082 20.2566 61.0303 20.3486 61.1941 20.5124C61.3579 20.6762 61.4499 20.8984 61.4499 21.13C61.4499 21.3616 61.3579 21.5838 61.1941 21.7475C61.0303 21.9113 60.8082 22.0033 60.5765 22.0033H41.8065C41.575 22.0032 41.3529 21.9112 41.1892 21.7474C41.0256 21.5836 40.9336 21.3615 40.9336 21.13ZM61.4497 26.4879C61.4498 26.6025 61.4272 26.7161 61.3833 26.8221C61.3394 26.928 61.2751 27.0243 61.194 27.1054C61.1129 27.1865 61.0167 27.2508 60.9107 27.2947C60.8048 27.3386 60.6912 27.3612 60.5765 27.3612H57.4629C57.2313 27.3612 57.0091 27.2692 56.8453 27.1054C56.6815 26.9416 56.5895 26.7195 56.5895 26.4879C56.5895 26.2562 56.6815 26.0341 56.8453 25.8703C57.0091 25.7065 57.2313 25.6145 57.4629 25.6145H60.5764C60.6911 25.6145 60.8047 25.6371 60.9106 25.6809C61.0166 25.7248 61.1129 25.7892 61.194 25.8703C61.2751 25.9514 61.3394 26.0476 61.3833 26.1536C61.4272 26.2596 61.4498 26.3732 61.4497 26.4879ZM40.9332 26.4879C40.9332 26.2562 41.0252 26.0341 41.189 25.8703C41.3528 25.7065 41.5749 25.6145 41.8065 25.6145H54.2583C54.49 25.6145 54.7121 25.7065 54.8759 25.8703C55.0397 26.0341 55.1317 26.2562 55.1317 26.4879C55.1317 26.7195 55.0397 26.9416 54.8759 27.1054C54.7121 27.2692 54.49 27.3612 54.2583 27.3612H41.8065C41.575 27.3611 41.3529 27.269 41.1892 27.1053C41.0256 26.9415 40.9336 26.7194 40.9336 26.4879H40.9332ZM40.9332 31.8457C40.9332 31.731 40.9557 31.6175 40.9996 31.5115C41.0435 31.4055 41.1078 31.3092 41.1889 31.2281C41.27 31.147 41.3663 31.0827 41.4723 31.0388C41.5783 30.9949 41.6918 30.9723 41.8065 30.9724H60.5765C60.8062 30.9752 61.0256 31.0685 61.187 31.232C61.3484 31.3954 61.439 31.6159 61.439 31.8457C61.439 32.0754 61.3484 32.2959 61.187 32.4593C61.0256 32.6228 60.8062 32.7161 60.5765 32.7189H41.8065C41.575 32.7189 41.353 32.6268 41.1893 32.4631C41.0256 32.2993 40.9336 32.0773 40.9336 31.8457H40.9332ZM40.9332 37.2035C40.9332 36.9718 41.0252 36.7497 41.189 36.5859C41.3528 36.4221 41.5749 36.3301 41.8065 36.3301H44.1552C44.3869 36.3301 44.609 36.4221 44.7728 36.5859C44.9366 36.7497 45.0286 36.9718 45.0286 37.2035C45.0286 37.4351 44.9366 37.6572 44.7728 37.821C44.609 37.9848 44.3869 38.0768 44.1552 38.0768H41.8065C41.575 38.0767 41.3529 37.9847 41.1892 37.8209C41.0256 37.6571 40.9336 37.435 40.9336 37.2035H40.9332ZM61.4497 37.2035C61.4498 37.3181 61.4272 37.4317 61.3833 37.5377C61.3394 37.6436 61.2751 37.7399 61.194 37.821C61.1129 37.9021 61.0167 37.9664 60.9107 38.0103C60.8048 38.0542 60.6912 38.0768 60.5765 38.0768H47.3594C47.1277 38.0768 46.9056 37.9848 46.7418 37.821C46.578 37.6572 46.486 37.4351 46.486 37.2035C46.486 36.9718 46.578 36.7497 46.7418 36.5859C46.9056 36.4221 47.1277 36.3301 47.3594 36.3301H60.5761C60.6908 36.33 60.8044 36.3526 60.9104 36.3965C61.0164 36.4403 61.1128 36.5047 61.1939 36.5858C61.275 36.6669 61.3394 36.7632 61.3833 36.8692C61.4272 36.9751 61.4498 37.0887 61.4497 37.2035Z" fill="#617792"/>
</svg>
