<svg width="70" height="70" viewBox="0 0 70 70" fill="none" xmlns="http://www.w3.org/2000/svg">
<path d="M37.3178 65.5209H37.3084C32.4553 65.472 27.6777 64.3137 23.341 62.1346C19.0044 59.9554 15.2237 56.8133 12.2881 52.9484C9.35244 49.0836 7.33971 44.5985 6.40386 39.8362C5.46801 35.074 5.63383 30.1608 6.88863 25.4724C6.91827 25.3499 6.9721 25.2345 7.04697 25.1331C7.12183 25.0317 7.21622 24.9462 7.32457 24.8818C7.43293 24.8173 7.55308 24.7752 7.67795 24.7579C7.80282 24.7405 7.9299 24.7483 8.05171 24.7808C8.17353 24.8133 8.28763 24.8698 8.3873 24.9469C8.48697 25.0241 8.5702 25.1205 8.63211 25.2303C8.69402 25.3401 8.73335 25.4612 8.74779 25.5865C8.76223 25.7117 8.75149 25.8386 8.7162 25.9596C7.53568 30.3692 7.37944 34.9905 8.25943 39.4697C9.13942 43.949 11.0323 48.1677 13.7933 51.803C16.5544 55.4383 20.1103 58.3938 24.1892 60.4436C28.268 62.4933 32.7617 63.5829 37.3263 63.6291C37.5772 63.6302 37.8174 63.7309 37.994 63.9091C38.1706 64.0873 38.2692 64.3284 38.268 64.5793C38.2669 64.8301 38.1662 65.0703 37.988 65.2469C37.8098 65.4235 37.5687 65.5221 37.3178 65.5209Z" fill="#617792"/>
<path d="M11.6074 18.0259C11.4377 18.0258 11.2711 17.98 11.1251 17.8934C10.9792 17.8067 10.8592 17.6824 10.7778 17.5334C10.6965 17.3844 10.6567 17.2163 10.6627 17.0466C10.6687 16.877 10.7202 16.7121 10.8119 16.5692C12.0536 14.6327 13.5007 12.8361 15.1282 11.2104C18.0825 8.25603 21.5897 5.91248 25.4497 4.31358C29.3096 2.71468 33.4467 1.89173 37.6247 1.89173C41.8027 1.89173 45.9398 2.71468 49.7998 4.31358C53.6598 5.91248 57.167 8.25603 60.1212 11.2104C60.2935 11.3888 60.3889 11.6278 60.3867 11.8758C60.3846 12.1238 60.2851 12.3611 60.1097 12.5364C59.9343 12.7118 59.697 12.8113 59.449 12.8135C59.201 12.8156 58.9621 12.7203 58.7836 12.548C56.005 9.76933 52.7063 7.56519 49.0759 6.06139C45.4454 4.5576 41.5543 3.78361 37.6247 3.78361C33.6951 3.78361 29.804 4.5576 26.1736 6.06139C22.5431 7.56519 19.2444 9.76933 16.4658 12.548C14.935 14.0778 13.5735 15.7682 12.4049 17.5899C12.3192 17.7237 12.2013 17.8337 12.0619 17.91C11.9226 17.9862 11.7663 18.0261 11.6074 18.0259Z" fill="#617792"/>
<path d="M68.4673 33.8176C68.2206 33.8176 67.9836 33.7214 67.8069 33.5493C67.6302 33.3771 67.5277 33.1428 67.5213 32.8962C67.3955 27.9019 66.0184 23.0189 63.5162 18.6947C63.4504 18.5873 63.4067 18.4678 63.3877 18.3432C63.3688 18.2187 63.3749 18.0916 63.4057 17.9694C63.4365 17.8472 63.4914 17.7324 63.5672 17.6318C63.643 17.5311 63.7381 17.4466 63.847 17.3832C63.9559 17.3198 64.0763 17.2788 64.2013 17.2626C64.3262 17.2464 64.4531 17.2554 64.5746 17.2889C64.696 17.3224 64.8096 17.3799 64.9085 17.4579C65.0075 17.5359 65.0898 17.6328 65.1508 17.7431C67.8127 22.3419 69.2779 27.5351 69.4123 32.847C69.4189 33.0978 69.3256 33.3409 69.153 33.5229C68.9804 33.7049 68.7426 33.8109 68.4919 33.8176H68.4673Z" fill="#617792"/>
<path d="M63.0941 52.0932C62.9215 52.0932 62.7522 52.0459 62.6046 51.9566C62.4569 51.8672 62.3366 51.7392 62.2565 51.5863C62.1764 51.4334 62.1396 51.2616 62.1502 51.0893C62.1608 50.917 62.2183 50.751 62.3165 50.6091C62.8122 49.892 63.2861 49.1268 63.7241 48.3341C63.7834 48.2239 63.864 48.1267 63.9612 48.0479C64.0584 47.9692 64.1702 47.9105 64.2903 47.8752C64.4103 47.84 64.5361 47.8289 64.6604 47.8426C64.7848 47.8563 64.9052 47.8946 65.0146 47.9551C65.1241 48.0157 65.2205 48.0973 65.2981 48.1954C65.3758 48.2934 65.4333 48.4059 65.4672 48.5263C65.5012 48.6467 65.5109 48.7726 65.4958 48.8968C65.4808 49.021 65.4412 49.1409 65.3795 49.2497C64.9112 50.1011 64.4042 50.9165 63.8735 51.6846C63.7864 51.8108 63.67 51.9139 63.5342 51.9851C63.3984 52.0563 63.2474 52.0934 63.0941 52.0932Z" fill="#617792"/>
<path d="M45.6228 64.4757C45.3865 64.4784 45.1578 64.3925 44.9816 64.2351C44.8054 64.0776 44.6945 63.8599 44.6708 63.6248C44.6471 63.3897 44.7122 63.1542 44.8534 62.9647C44.9946 62.7752 45.2015 62.6454 45.4336 62.6008C50.1126 61.3343 54.413 58.9481 57.9636 55.6481C58.054 55.5605 58.1609 55.4919 58.2782 55.4461C58.3954 55.4004 58.5206 55.3785 58.6464 55.3818C58.7722 55.385 58.8961 55.4134 59.0108 55.4651C59.1255 55.5168 59.2288 55.591 59.3145 55.6831C59.4002 55.7752 59.4667 55.8835 59.51 56.0017C59.5533 56.1198 59.5727 56.2455 59.5668 56.3712C59.561 56.4969 59.5302 56.6202 59.4761 56.7338C59.4221 56.8474 59.3459 56.9492 59.252 57.033C55.4603 60.5578 50.8641 63.1018 45.864 64.4435C45.7854 64.4648 45.7043 64.4756 45.6228 64.4757Z" fill="#617792"/>
<path d="M67.1535 43.6469C67.0573 43.647 66.9616 43.6327 66.8697 43.6043C66.751 43.5676 66.6407 43.5079 66.5451 43.4286C66.4495 43.3493 66.3704 43.2519 66.3124 43.142C66.2544 43.0321 66.2187 42.9118 66.2072 42.7881C66.1957 42.6644 66.2087 42.5396 66.2454 42.4209C66.5176 41.536 66.7446 40.6377 66.9255 39.7297C66.9757 39.4839 67.1215 39.268 67.3308 39.1296C67.5402 38.9913 67.7959 38.9417 68.0417 38.9919C68.2876 39.0421 68.5035 39.1879 68.6418 39.3972C68.7802 39.6065 68.8298 39.8622 68.7796 40.1081C68.5696 41.1487 68.3331 42.0851 68.0569 42.9819C67.9969 43.1746 67.8769 43.3431 67.7144 43.4627C67.5519 43.5824 67.3553 43.6469 67.1535 43.6469Z" fill="#617792"/>
<path d="M59.4526 12.8251H52.1764C51.9255 12.8251 51.6849 12.7255 51.5075 12.5481C51.3301 12.3707 51.2305 12.1301 51.2305 11.8792C51.2305 11.6283 51.3301 11.3877 51.5075 11.2103C51.6849 11.0329 51.9255 10.9332 52.1764 10.9332H58.5067V4.60297C58.5067 4.35209 58.6063 4.11149 58.7837 3.93409C58.9611 3.75669 59.2017 3.65703 59.4526 3.65703C59.7035 3.65703 59.9441 3.75669 60.1215 3.93409C60.2989 4.11149 60.3986 4.35209 60.3986 4.60297V11.8792C60.3986 12.1301 60.2989 12.3707 60.1215 12.5481C59.9441 12.7255 59.7035 12.8251 59.4526 12.8251Z" fill="#617792"/>
<path d="M11.4469 32.9643C11.2807 32.9645 11.1174 32.9209 10.9734 32.8378C10.8294 32.7548 10.7099 32.6353 10.6268 32.4914L7.46165 27.0096L1.97989 30.1757C1.76274 30.2991 1.50558 30.3317 1.26451 30.2663C1.02344 30.2008 0.818047 30.0427 0.693147 29.8263C0.568248 29.61 0.533983 29.3531 0.597831 29.1116C0.661679 28.8701 0.818455 28.6636 1.03395 28.5373L7.33489 24.8992C7.44251 24.8369 7.56135 24.7965 7.6846 24.7802C7.80786 24.7639 7.93312 24.7721 8.05322 24.8042C8.17332 24.8364 8.2859 24.8919 8.38453 24.9676C8.48315 25.0433 8.56589 25.1377 8.628 25.2454L12.2652 31.5464C12.3481 31.6901 12.3919 31.8531 12.3919 32.0191C12.3919 32.1851 12.3483 32.3481 12.2654 32.4919C12.1825 32.6357 12.0632 32.7551 11.9196 32.8382C11.7759 32.9213 11.6129 32.9642 11.4469 32.9643Z" fill="#617792"/>
<path d="M51.914 68.1081C51.7479 68.1081 51.5848 68.0644 51.441 67.9813L45.1401 64.3442C45.0323 64.2822 44.9378 64.1995 44.862 64.1009C44.7862 64.0023 44.7306 63.8897 44.6984 63.7696C44.6661 63.6495 44.6579 63.5242 44.6741 63.4009C44.6903 63.2776 44.7307 63.1588 44.7929 63.0511L48.432 56.7501C48.5574 56.5327 48.7641 56.3741 49.0065 56.3091C49.2489 56.2441 49.5072 56.278 49.7246 56.4034C49.942 56.5289 50.1006 56.7355 50.1657 56.978C50.2307 57.2204 50.1967 57.4787 50.0713 57.6961L46.9062 63.1778L52.3879 66.343C52.5682 66.4471 52.7092 66.6078 52.7889 66.8002C52.8685 66.9926 52.8825 67.2059 52.8286 67.407C52.7747 67.6081 52.656 67.7859 52.4908 67.9126C52.3256 68.0394 52.1222 68.1081 51.914 68.1081Z" fill="#617792"/>
<path d="M39.4469 54.8649H35.2847C34.9465 54.8645 34.6177 54.7533 34.3486 54.5483C34.0795 54.3433 33.885 54.0558 33.7949 53.7297L33.0381 50.9364C31.3226 50.5114 29.6802 49.8323 28.1656 48.9215L25.6541 50.3584C25.3598 50.5266 25.0183 50.5933 24.6824 50.5481C24.3465 50.503 24.0347 50.3486 23.7953 50.1087L20.8401 47.1592C20.6008 46.9194 20.4468 46.6076 20.4019 46.2718C20.3569 45.936 20.4235 45.5947 20.5914 45.3004L22.0283 42.7889C21.1175 41.2743 20.4383 39.6319 20.0134 37.9164L17.221 37.1596C16.893 37.0698 16.6037 36.8745 16.3978 36.6038C16.192 36.3332 16.081 36.0022 16.082 35.6622V31.5C16.0824 31.1617 16.1936 30.8329 16.3986 30.5638C16.6036 30.2948 16.8911 30.1003 17.2172 30.0101L20.0106 29.2534C20.4355 27.5378 21.1146 25.8955 22.0254 24.3808L20.5885 21.8693C20.4205 21.575 20.3539 21.2336 20.399 20.8977C20.4441 20.5618 20.5985 20.2501 20.8383 20.0105L23.7849 17.063C24.0243 16.8231 24.3362 16.6687 24.6721 16.6237C25.0081 16.5788 25.3495 16.6457 25.6437 16.8142L28.1551 18.2511C29.6698 17.3403 31.3122 16.6611 33.0277 16.2362L33.7845 13.4438C33.873 13.1139 34.0681 12.8226 34.3395 12.6152C34.6109 12.4078 34.9432 12.2961 35.2847 12.2973H39.4469C39.7852 12.2977 40.114 12.4089 40.3831 12.6139C40.6521 12.8189 40.8466 13.1064 40.9368 13.4324L41.6935 16.2258C43.4091 16.6507 45.0515 17.3299 46.5661 18.2407L49.0776 16.8038C49.3719 16.6359 49.7133 16.5694 50.0492 16.6145C50.385 16.6596 50.6968 16.8139 50.9364 17.0535L53.8839 20.0001C54.1233 20.2399 54.2772 20.5517 54.3222 20.8875C54.3671 21.2233 54.3006 21.5646 54.1327 21.8589L52.6958 24.3704C53.6066 25.8851 54.2858 27.5274 54.7107 29.243L57.5031 29.9997C57.833 30.0882 58.1243 30.2834 58.3317 30.5548C58.5391 30.8261 58.6508 31.1585 58.6496 31.5V35.6622C58.6492 36.0004 58.538 36.3293 58.333 36.5983C58.128 36.8674 57.8405 37.0619 57.5145 37.152L54.7211 37.9088C54.2962 39.6244 53.617 41.2667 52.7062 42.7814L54.1431 45.2928C54.3112 45.5872 54.3778 45.9286 54.3326 46.2645C54.2875 46.6004 54.1332 46.9121 53.8934 47.1516L50.9439 50.1068C50.7042 50.3462 50.3924 50.5003 50.0566 50.5453C49.7207 50.5902 49.3794 50.5236 49.0851 50.3555L46.5737 48.9187C45.059 49.8295 43.4167 50.5086 41.7011 50.9335L40.9443 53.726C40.8545 54.0539 40.6592 54.3432 40.3886 54.5491C40.1179 54.7549 39.787 54.8659 39.4469 54.8649ZM35.543 52.973H39.1811L40.0201 49.8901C40.0657 49.7223 40.1567 49.5703 40.283 49.4509C40.4093 49.3314 40.5662 49.249 40.7362 49.2128C42.6207 48.8112 44.4159 48.0687 46.0335 47.022C46.1792 46.9283 46.3478 46.8763 46.5209 46.8718C46.694 46.8673 46.8651 46.9104 47.0154 46.9965L49.7861 48.5809L52.3581 46.0089L50.7737 43.2382C50.6876 43.0879 50.6445 42.9169 50.649 42.7437C50.6535 42.5706 50.7055 42.402 50.7992 42.2564C51.8459 40.6387 52.5884 38.8435 52.99 36.9591C53.0262 36.789 53.1085 36.6322 53.228 36.5058C53.3475 36.3795 53.4995 36.2886 53.6673 36.243L56.7577 35.4001V31.762L53.6749 30.923C53.5071 30.8774 53.3551 30.7864 53.2356 30.6601C53.1161 30.5338 53.0338 30.377 52.9976 30.2069C52.5959 28.3225 51.8535 26.5272 50.8068 24.9096C50.713 24.764 50.6611 24.5954 50.6566 24.4222C50.6521 24.2491 50.6952 24.078 50.7812 23.9277L52.3657 21.157L49.7937 18.585L47.023 20.1695C46.8727 20.2555 46.7016 20.2986 46.5285 20.2941C46.3553 20.2896 46.1867 20.2377 46.0411 20.1439C44.4234 19.0972 42.6282 18.3548 40.7438 17.9531C40.5737 17.9169 40.4169 17.8346 40.2906 17.7151C40.1642 17.5956 40.0733 17.4436 40.0277 17.2758L39.1849 14.1892H35.5468L34.7077 17.272C34.6621 17.4398 34.5712 17.5918 34.4449 17.7113C34.3185 17.8308 34.1617 17.9132 33.9916 17.9493C32.1072 18.351 30.312 19.0934 28.6943 20.1401C28.5487 20.2339 28.3801 20.2858 28.207 20.2903C28.0338 20.2948 27.8628 20.2517 27.7124 20.1657L24.9418 18.5812L22.3697 21.1532L23.9542 23.9239C24.0402 24.0742 24.0834 24.2453 24.0789 24.4184C24.0744 24.5916 24.0224 24.7602 23.9287 24.9058C22.882 26.5235 22.1395 28.3187 21.7378 30.2031C21.7017 30.3732 21.6193 30.53 21.4998 30.6563C21.3804 30.7827 21.2284 30.8736 21.0606 30.9192L17.9739 31.762V35.4001L21.0568 36.2392C21.2246 36.2848 21.3766 36.3757 21.4961 36.502C21.6155 36.6284 21.6979 36.7852 21.7341 36.9553C22.1357 38.8397 22.8782 40.6349 23.9249 42.2526C24.0186 42.3982 24.0706 42.5668 24.0751 42.7399C24.0796 42.9131 24.0365 43.0841 23.9504 43.2345L22.366 46.0051L24.938 48.5772L27.7087 46.9927C27.859 46.9067 28.03 46.8635 28.2032 46.868C28.3763 46.8725 28.5449 46.9245 28.6906 47.0182C30.3082 48.065 32.1034 48.8074 33.9879 49.2091C34.1579 49.2452 34.3147 49.3276 34.4411 49.4471C34.5674 49.5666 34.6584 49.7186 34.7039 49.8864L35.543 52.973Z" fill="#617792"/>
<path d="M37.3648 46.2662C34.8559 46.2662 32.4034 45.5222 30.3173 44.1284C28.2313 42.7345 26.6054 40.7534 25.6453 38.4355C24.6852 36.1176 24.434 33.567 24.9234 31.1063C25.4129 28.6457 26.621 26.3854 28.3951 24.6113C30.1691 22.8373 32.4294 21.6291 34.8901 21.1397C37.3508 20.6502 39.9013 20.9014 42.2192 21.8615C44.5371 22.8217 46.5183 24.4475 47.9121 26.5336C49.306 28.6197 50.05 31.0722 50.05 33.5811C50.0465 36.9443 48.7089 40.1688 46.3307 42.547C43.9525 44.9251 40.7281 46.2627 37.3648 46.2662ZM37.3648 22.7878C35.2301 22.7878 33.1434 23.4209 31.3684 24.6068C29.5935 25.7928 28.2101 27.4785 27.3932 29.4507C26.5763 31.4229 26.3625 33.5931 26.779 35.6867C27.1954 37.7804 28.2234 39.7036 29.7329 41.2131C31.2423 42.7225 33.1655 43.7505 35.2592 44.1669C37.3529 44.5834 39.523 44.3697 41.4952 43.5527C43.4674 42.7358 45.1531 41.3524 46.3391 39.5775C47.5251 37.8025 48.1581 35.7158 48.1581 33.5811C48.1551 30.7195 47.017 27.9759 44.9935 25.9524C42.97 23.929 40.2265 22.7908 37.3648 22.7878Z" fill="#617792"/>
</svg>
