<svg width="70" height="70" viewBox="0 0 70 70" fill="none" xmlns="http://www.w3.org/2000/svg">
<path d="M64.9721 34.3984L56.6432 19.3484V6.05117C56.6432 3.46855 54.5418 1.36719 51.9592 1.36719H22.3254C19.7428 1.36719 17.6414 3.46855 17.6414 6.05117V9.49238H6.51797C4.97578 9.49238 3.7207 10.7475 3.7207 12.2896V33.8584C3.7207 35.4006 4.97578 36.6557 6.51797 36.6557H17.64V62.1031C17.64 64.6857 19.7414 66.7871 22.324 66.7871H51.9578C52.0371 66.7871 52.1164 66.783 52.1957 66.7789V67.8125C52.1957 68.265 52.5635 68.6328 53.016 68.6328H65.4588C65.9113 68.6328 66.2791 68.265 66.2791 67.8125V39.468C66.2805 37.6236 65.8648 36.0131 64.9721 34.3984ZM45.4035 3.00781L45.048 4.10293C44.7979 4.87539 44.1102 5.37441 43.298 5.37441H30.9852C30.173 5.37441 29.4867 4.87539 29.2352 4.10293L28.8797 3.00781H45.4035ZM5.36133 33.8598V12.291C5.36133 11.6525 5.88086 11.1344 6.51797 11.1344H38.6701C39.3086 11.1344 39.8268 11.6539 39.8268 12.291V33.8598C39.8268 34.4982 39.3072 35.0164 38.6701 35.0164H29.8449C29.3924 35.0164 29.0246 35.3842 29.0246 35.8367V40.7613L23.3836 35.2502C23.2305 35.1012 23.024 35.0164 22.8107 35.0164H6.51797C5.88086 35.0164 5.36133 34.4969 5.36133 33.8598ZM34.0668 65.1492L34.1748 64.3699C34.302 63.4512 35.0689 62.784 35.9973 62.784H38.2859C39.2143 62.784 39.9799 63.4512 40.1084 64.3699L40.2164 65.1492H34.0668ZM51.9592 65.1492H41.8734L41.734 64.1443C41.492 62.4053 40.0428 61.1434 38.2873 61.1434H35.9986C34.2432 61.1434 32.7926 62.4053 32.552 64.1443L32.4125 65.1492H22.3268C20.6492 65.1492 19.2834 63.7834 19.2834 62.1059V36.657H22.4771L28.3424 42.3883C28.6035 42.6439 28.9467 42.7779 29.2967 42.7779C29.4758 42.7779 29.6562 42.7424 29.8285 42.6699C30.3371 42.4566 30.6652 41.9617 30.6652 41.4094V36.657H38.6701C40.2123 36.657 41.4674 35.402 41.4674 33.8598V12.291C41.4674 10.7488 40.2123 9.49375 38.6701 9.49375H19.282V6.05117C19.282 4.37363 20.6478 3.00781 22.3254 3.00781H27.1557L27.6766 4.60879C28.151 6.07031 29.4512 7.01367 30.9865 7.01367H43.2994C44.8361 7.01367 46.135 6.07031 46.6094 4.60879L47.1289 3.00781H51.9592C53.6367 3.00781 55.0025 4.37363 55.0025 6.05117V19.559V44.435L47.9533 37.3857C45.7549 35.1873 42.177 35.1873 39.9785 37.3857C37.7801 39.5842 37.7801 43.1621 39.9785 45.3605C41.0025 46.3846 42.0703 47.4318 43.1039 48.4449C44.5299 49.8422 46.0037 51.2887 47.4092 52.7188C48.3047 53.6293 48.6902 54.7805 48.5234 56.0479C48.4947 56.2666 48.4797 56.4895 48.4797 56.7096C48.4797 58.3146 49.2549 59.8391 50.5523 60.7865C51.627 61.5713 52.1957 62.6896 52.1957 64.0213V65.1397C52.1178 65.1451 52.0385 65.1492 51.9592 65.1492ZM64.6398 66.9922H53.8377V64.0213C53.8377 62.1715 53.0146 60.5527 51.5217 59.4617C50.6453 58.8219 50.1217 57.7937 50.1217 56.7109C50.1217 56.5619 50.1313 56.4102 50.1504 56.2625C50.3814 54.5029 49.8236 52.8363 48.5795 51.5703C47.1631 50.1293 45.6838 48.6787 44.2523 47.2746C43.2229 46.2643 42.1564 45.2197 41.1393 44.2012C40.3873 43.4492 39.9744 42.4457 39.9744 41.3738C39.9744 40.302 40.3887 39.2984 41.1393 38.5465C42.6979 36.9879 45.2354 36.9879 46.7939 38.5465L53.8705 45.623C54.3367 46.0893 55.0313 46.2273 55.641 45.9758C56.2508 45.7229 56.6445 45.1336 56.6445 44.4746V22.7363L63.5365 35.1928C64.2994 36.5723 64.6398 37.8916 64.6398 39.468V66.9922ZM24.3707 28.3322C24.8725 29.4123 25.9635 30.0973 27.1393 30.0973C27.4004 30.0973 27.6656 30.0631 27.9281 29.9934C29.5537 29.5572 30.523 27.8797 30.0869 26.2541L27.0094 14.7684C26.5732 13.1428 24.8957 12.1734 23.2701 12.6096C22.4854 12.8201 21.8277 13.326 21.4189 14.0328C21.1004 14.5852 20.9664 15.2059 21.0211 15.8252C19.118 17.3988 16.884 18.7729 14.2111 20.017L10.5525 20.9973C9.36992 21.3145 8.43203 22.0814 7.91523 23.1561C7.4709 24.0775 7.36426 25.1562 7.62129 26.1146C8.06426 27.7662 9.64199 29.2332 11.6258 29.2332C11.6531 29.2332 11.6818 29.2305 11.7092 29.2305L13.1885 32.6293C13.373 33.0531 13.8447 33.6451 15.0369 33.6451C15.417 33.6451 15.8709 33.585 16.4109 33.44C16.8963 33.3102 17.3023 32.9984 17.5539 32.5609C17.8055 32.1248 17.8725 31.6162 17.7426 31.1309L16.9195 28.0602C19.6375 27.8578 22.0861 27.9467 24.3707 28.3322ZM23.6953 14.1941C23.817 14.1613 23.94 14.1463 24.0604 14.1463C24.6838 14.1463 25.2566 14.5633 25.4248 15.1936L28.5023 26.6793C28.7033 27.4312 28.2563 28.2078 27.5029 28.4088C27.1406 28.5059 26.7605 28.4553 26.4324 28.2652C26.1043 28.0752 25.8705 27.7717 25.7734 27.4094L22.6959 15.9236C22.4949 15.1717 22.9434 14.3951 23.6953 14.1941ZM9.20449 25.6922C9.05 25.1152 9.11973 24.4344 9.3918 23.8697C9.60918 23.4186 10.0604 22.8279 10.9764 22.5832L13.6752 21.86L14.9932 26.7805L12.2943 27.5037C10.6182 27.9521 9.4793 26.7148 9.20449 25.6922ZM16.1307 31.7434C16.1115 31.7762 16.0678 31.835 15.983 31.8568C15.2297 32.0592 14.7963 32.0127 14.6801 31.9539L13.358 28.916L15.3076 28.3937L16.1553 31.5588C16.1785 31.6422 16.1498 31.7105 16.1307 31.7434ZM16.6023 26.4428L15.2365 21.3473C17.6113 20.218 19.6566 18.9807 21.4436 17.5889L23.8566 26.5945C21.6131 26.2828 19.2232 26.2336 16.6023 26.4428ZM32.4043 18.6279L36.6713 17.485C37.1088 17.3674 37.5586 17.6271 37.6762 18.0646C37.7938 18.5021 37.534 18.952 37.0965 19.0695L32.8295 20.2125C32.7584 20.2316 32.6873 20.2412 32.6162 20.2412C32.2539 20.2412 31.923 19.9992 31.8246 19.6328C31.707 19.1953 31.9668 18.7455 32.4043 18.6279ZM36.9488 24.5178C36.8504 24.8842 36.5195 25.1262 36.1572 25.1262C36.0875 25.1262 36.015 25.1166 35.9439 25.0975L32.4043 24.1486C31.9668 24.0311 31.707 23.5812 31.8246 23.1437C31.9422 22.7062 32.392 22.4465 32.8295 22.5641L36.3691 23.5129C36.8053 23.6305 37.065 24.0803 36.9488 24.5178ZM30.0678 16.5922C29.7479 16.2723 29.7479 15.7527 30.0678 15.4314L32.6586 12.8406C32.9785 12.5207 33.498 12.5207 33.8193 12.8406C34.1393 13.1605 34.1393 13.6801 33.8193 14.0014L31.2285 16.5922C31.0686 16.7521 30.858 16.8328 30.6488 16.8328C30.4383 16.8314 30.2277 16.7521 30.0678 16.5922ZM21.9727 47.7832C21.9727 47.3307 22.3404 46.9629 22.793 46.9629H36.9857C37.4383 46.9629 37.8061 47.3307 37.8061 47.7832C37.8061 48.2357 37.4383 48.6035 36.9857 48.6035H22.793C22.3404 48.6035 21.9727 48.2371 21.9727 47.7832ZM21.9727 52.5219C21.9727 52.0693 22.3404 51.7016 22.793 51.7016H40.0441C40.4967 51.7016 40.8645 52.0693 40.8645 52.5219C40.8645 52.9744 40.4967 53.3422 40.0441 53.3422H22.793C22.3404 53.3422 21.9727 52.9758 21.9727 52.5219ZM43.6467 57.2605C43.6467 57.7131 43.2789 58.0809 42.8264 58.0809H22.793C22.3404 58.0809 21.9727 57.7131 21.9727 57.2605C21.9727 56.808 22.3404 56.4402 22.793 56.4402H42.8264C43.2803 56.4402 43.6467 56.808 43.6467 57.2605Z" fill="#617792"/>
</svg>
