<svg width="70" height="70" viewBox="0 0 70 70" fill="none" xmlns="http://www.w3.org/2000/svg">
<path d="M56.875 42.712V27.288C63.6005 26.7291 68.9062 21.0875 68.9062 14.2188C68.9062 6.98141 63.0186 1.09375 55.7812 1.09375C48.9136 1.09375 43.2709 6.39844 42.712 13.125H36.0938V11.3553L31.7188 9.16781V4.375H23.8044L20.7058 5.92375C18.4406 7.05687 15.9031 7.65625 13.3689 7.65625H7.65625C4.03703 7.65625 1.09375 10.5995 1.09375 14.2188C1.09375 17.0702 2.92359 19.495 5.46875 20.3984V29.5291C5.46875 31.3392 6.94203 32.8125 8.75219 32.8125H13.172C14.6366 32.8125 15.9195 31.8784 16.2903 30.5408C16.6917 29.0981 16.0158 27.5658 14.6814 26.8986L14.2188 26.6678V20.8316C16.4664 20.9497 18.6944 21.5075 20.7058 22.5137L23.8044 24.0625H31.7188V19.2697L36.0938 17.0822V15.3125H42.712C43.2414 21.677 48.323 26.7597 54.6875 27.288V42.7109C48.6927 43.2086 43.8408 47.7477 42.8542 53.5927H29.5312V45.9364C29.5312 44.1273 28.0591 42.6552 26.25 42.6552H16.4062V34.9989H14.2188V42.6552H4.375C2.56594 42.6552 1.09375 44.1273 1.09375 45.9364V65.6239C1.09375 67.433 2.56594 68.9052 4.375 68.9052H26.25C28.0591 68.9052 29.5312 67.433 29.5312 65.6239V55.7802H42.6562C42.6562 63.0175 48.5439 68.9052 55.7812 68.9052C63.0186 68.9052 68.9062 63.0175 68.9062 55.7802C68.9062 48.9125 63.6005 43.2709 56.875 42.712ZM3.28125 14.2188C3.28125 11.8059 5.24344 9.84375 7.65625 9.84375H9.84375V18.5938H7.65625C5.24344 18.5938 3.28125 16.6316 3.28125 14.2188ZM14.1816 29.9556C14.0744 30.3428 13.6489 30.625 13.1709 30.625H8.75219C8.14844 30.625 7.65625 30.1339 7.65625 29.5291V20.7812H12.0312V28.0197L13.7014 28.8553C14.1083 29.0577 14.3052 29.5105 14.1816 29.9556ZM13.3689 18.5938H12.0312V9.84375H13.3689C16.2411 9.84375 19.1166 9.16453 21.6847 7.88047L22.9688 7.23844V21.1991L21.6847 20.557C19.1166 19.273 16.2411 18.5938 13.3689 18.5938ZM29.5312 21.875H25.1562V6.5625H29.5312V21.875ZM33.9062 15.7303L31.7188 16.8241V11.6134L33.9062 12.7072V15.7303ZM12.0312 44.8438H18.5938V49.2188H12.0312V44.8438ZM27.3438 65.625C27.3438 66.2287 26.8527 66.7188 26.25 66.7188H4.375C3.77234 66.7188 3.28125 66.2287 3.28125 65.625V45.9375C3.28125 45.3338 3.77234 44.8438 4.375 44.8438H9.84375V51.4062H20.7812V44.8438H26.25C26.8527 44.8438 27.3438 45.3338 27.3438 45.9375V65.625ZM52.5 10.9375C52.5 9.12844 53.9722 7.65625 55.7812 7.65625C57.5903 7.65625 59.0625 9.12844 59.0625 10.9375C59.0625 12.7466 57.5903 14.2188 55.7812 14.2188C53.9722 14.2188 52.5 12.7466 52.5 10.9375ZM55.7812 25.1562C52.9156 25.1562 50.3125 24.0395 48.3602 22.2305C49.1925 18.8245 52.2255 16.4062 55.7812 16.4062C59.337 16.4062 62.37 18.8245 63.2023 22.2305C61.25 24.0395 58.6469 25.1562 55.7812 25.1562ZM55.7812 3.28125C61.8122 3.28125 66.7188 8.18781 66.7188 14.2188C66.7188 16.4686 66.0341 18.562 64.8648 20.3022C63.8542 17.8413 61.903 15.9217 59.4781 14.9417C60.5598 13.942 61.25 12.5234 61.25 10.9375C61.25 7.92203 58.7967 5.46875 55.7812 5.46875C52.7658 5.46875 50.3125 7.92203 50.3125 10.9375C50.3125 12.5234 51.0027 13.942 52.0844 14.9417C49.6595 15.9217 47.7072 17.8413 46.6977 20.3022C45.5284 18.562 44.8438 16.4686 44.8438 14.2188C44.8438 8.18781 49.7503 3.28125 55.7812 3.28125ZM55.7812 66.7188C49.7503 66.7188 44.8438 61.8122 44.8438 55.7812C44.8438 49.7503 49.7503 44.8438 55.7812 44.8438C61.8122 44.8438 66.7188 49.7503 66.7188 55.7812C66.7188 61.8122 61.8122 66.7188 55.7812 66.7188Z" fill="#617792"/>
<path d="M50.3125 63.0197L64.7894 55.7812L50.3125 48.5428V63.0197ZM52.5 52.0822L59.8981 55.7812L52.5 59.4803V52.0822Z" fill="#617792"/>
<path d="M18.5938 62.3438H20.7812V64.5312H18.5938V62.3438Z" fill="#617792"/>
<path d="M22.9688 62.3438H25.1562V64.5312H22.9688V62.3438Z" fill="#617792"/>
<path d="M18.5938 57.9688H25.1562V60.1562H18.5938V57.9688Z" fill="#617792"/>
</svg>
