<svg width="70" height="70" viewBox="0 0 70 70" fill="none" xmlns="http://www.w3.org/2000/svg">
<path d="M66.7188 67.8125H57.9688C57.365 67.8125 56.875 67.3203 56.875 66.7188V38.2812C56.875 37.6797 57.365 37.1875 57.9688 37.1875C58.5725 37.1875 59.0625 37.6797 59.0625 38.2812V65.625H65.625V18.5938C65.625 17.9878 66.115 17.5 66.7188 17.5C67.3225 17.5 67.8125 17.9878 67.8125 18.5938V66.7188C67.8125 67.3203 67.3225 67.8125 66.7188 67.8125Z" fill="#617792"/>
<path d="M48.125 65.625H41.5625V60.1562C41.5625 59.5525 41.0725 59.0625 40.4688 59.0625C39.865 59.0625 39.375 59.5525 39.375 60.1562V66.7188C39.375 67.3203 39.865 67.8125 40.4688 67.8125H49.2188C49.8225 67.8125 50.3125 67.3203 50.3125 66.7188V51.4062C50.3125 50.8025 49.8225 50.3125 49.2188 50.3125C48.615 50.3125 48.125 50.8025 48.125 51.4062V65.625Z" fill="#617792"/>
<path d="M64.5176 65.625H3.26758C2.66383 65.625 2.17383 66.115 2.17383 66.7188C2.17383 67.3225 2.66383 67.8125 3.26758 67.8125H64.5176C65.1213 67.8125 65.6113 67.3225 65.6113 66.7188C65.6113 66.115 65.1235 65.625 64.5176 65.625Z" fill="#617792"/>
<path d="M22.9688 60.1562C22.365 60.1562 21.875 59.6641 21.875 59.0625V36.0938C21.875 35.4878 22.365 35 22.9688 35H31.7188C32.3225 35 32.8125 35.4878 32.8125 36.0938V53.5938C32.8125 54.1953 32.3225 54.6875 31.7188 54.6875C31.115 54.6875 30.625 54.1953 30.625 53.5938V37.1875H24.0625V59.0625C24.0625 59.6641 23.5725 60.1562 22.9688 60.1562Z" fill="#617792"/>
<path d="M5.46875 63.4375C4.865 63.4375 4.375 62.9453 4.375 62.3438V44.8438C4.375 44.2378 4.865 43.75 5.46875 43.75H14.2188C14.8225 43.75 15.3125 44.2378 15.3125 44.8438V61.25C15.3125 61.8516 14.8225 62.3438 14.2188 62.3438C13.615 62.3438 13.125 61.8516 13.125 61.25V45.9375H6.5625V62.3438C6.5625 62.9453 6.0725 63.4375 5.46875 63.4375Z" fill="#617792"/>
<path d="M40.4688 43.75C39.865 43.75 39.375 43.2622 39.375 42.6562V27.3438C39.375 26.7378 39.865 26.25 40.4688 26.25H44.8438C45.4475 26.25 45.9375 26.7378 45.9375 27.3438C45.9375 27.9453 45.4475 28.4375 44.8438 28.4375H41.5625V42.6562C41.5625 43.2622 41.0725 43.75 40.4688 43.75Z" fill="#617792"/>
<path d="M7.65625 67.8124C7.0525 67.8124 6.5625 67.3224 6.5625 66.7187C6.5625 66.1149 7.0525 65.6249 7.65625 65.6249C29.9709 65.6249 48.125 47.4709 48.125 25.1562V19.6874H44.8438C44.4522 19.6874 44.0934 19.4796 43.8966 19.1427C43.7019 18.8059 43.6997 18.3881 43.8922 18.0512L52.6422 2.73868C53.0359 2.05618 54.1494 2.05618 54.5431 2.73868L63.2931 18.0512C63.4856 18.3881 63.4834 18.8059 63.2887 19.1427C63.0941 19.4796 62.7353 19.6874 62.3438 19.6874H59.0625V25.1562C59.0625 25.7599 58.5725 26.2499 57.9688 26.2499C57.365 26.2499 56.875 25.7599 56.875 25.1562V18.5937C56.875 17.9899 57.365 17.4999 57.9688 17.4999H60.4603L53.5938 5.48618L46.7272 17.4999H49.2188C49.8225 17.4999 50.3125 17.9899 50.3125 18.5937V25.1562C50.3125 48.6762 31.1762 67.8124 7.65625 67.8124Z" fill="#617792"/>
<path d="M57.9688 30.625C58.5728 30.625 59.0625 30.1353 59.0625 29.5312C59.0625 28.9272 58.5728 28.4375 57.9688 28.4375C57.3647 28.4375 56.875 28.9272 56.875 29.5312C56.875 30.1353 57.3647 30.625 57.9688 30.625Z" fill="#617792"/>
</svg>
