<svg width="70" height="70" viewBox="0 0 70 70" fill="none" xmlns="http://www.w3.org/2000/svg">
<path d="M52.6818 16.4567H67.0482C68.1119 16.4567 68.9746 17.3194 68.9746 18.383V59.8293C68.9746 60.893 68.1119 61.7557 67.0482 61.7557H2.95176C1.88809 61.7557 1.02539 60.893 1.02539 59.8293V18.383C1.02539 17.3194 1.88809 16.4567 2.95176 16.4567H17.3182" stroke="#617792" stroke-width="2" stroke-miterlimit="10" stroke-linecap="round" stroke-linejoin="round"/>
<path d="M23.832 14.722L26.6401 7.34887C26.6975 7.2086 26.896 7.20833 26.9537 7.3486L29.7364 14.722" stroke="#617792" stroke-width="2" stroke-miterlimit="10" stroke-linecap="round" stroke-linejoin="round"/>
<path d="M33.2188 7.25122V14.383" stroke="#617792" stroke-width="2" stroke-miterlimit="10" stroke-linecap="round" stroke-linejoin="round"/>
<path d="M38.2047 10.8722C38.2047 12.8718 37.095 14.4541 35.3342 14.4848C34.7481 14.4951 33.2334 14.5008 33.2334 14.5008C33.2334 14.5008 33.2239 11.8721 33.2239 10.8642C33.2239 10.0364 33.2188 7.24365 33.2188 7.24365C33.2188 7.24365 34.5814 7.24365 35.2742 7.24365C37.2053 7.24365 38.2047 8.87266 38.2047 10.8722Z" stroke="#617792" stroke-width="2" stroke-miterlimit="10" stroke-linecap="round" stroke-linejoin="round"/>
<path d="M45.9881 8.01243C45.9881 8.01243 44.6462 6.8845 43.0637 7.3611C41.6106 7.79873 41.4075 9.47422 42.4587 10.1596C42.4587 10.1596 43.4903 10.6198 44.6343 11.0418C47.3884 12.0577 46.2021 14.722 43.9849 14.722C42.8746 14.722 41.9429 14.2359 41.3789 13.6135" stroke="#617792" stroke-width="2" stroke-miterlimit="10" stroke-linecap="round" stroke-linejoin="round"/>
<path d="M37.3361 2.33655H23.0158C19.5694 2.33655 16.7754 5.1304 16.7754 8.5768V13.9076C16.7754 17.354 19.5692 20.1479 23.0158 20.1479H31.7071L33.7954 25.4539C34.2259 26.5478 35.7741 26.5478 36.2046 25.4539L38.2929 20.1479H46.9842C50.4306 20.1479 53.2245 17.354 53.2245 13.9076V8.57694C53.2245 5.13053 50.4306 2.33668 46.9842 2.33668H42.1314" stroke="#617792" stroke-width="2" stroke-miterlimit="10" stroke-linecap="round" stroke-linejoin="round"/>
<path d="M14.8359 54.2936H52.0485" stroke="#617792" stroke-width="2" stroke-miterlimit="10" stroke-linecap="round" stroke-linejoin="round"/>
<path d="M31.7064 20.1481H23.0152H4.7168V54.2936H10.0326" stroke="#617792" stroke-width="2" stroke-miterlimit="10" stroke-linecap="round" stroke-linejoin="round"/>
<path d="M38.293 20.1481H46.9842H65.2826V54.2936H61.6445" stroke="#617792" stroke-width="2" stroke-miterlimit="10" stroke-linecap="round" stroke-linejoin="round"/>
<path d="M30.7891 40.398V32.8357C30.7891 32.2266 31.4394 31.8383 31.9756 32.1272L38.9915 35.9083C39.5555 36.2122 39.5555 37.0213 38.9915 37.3253L31.9756 41.1063C31.4394 41.3955 30.7891 41.0072 30.7891 40.398Z" stroke="#617792" stroke-width="2" stroke-miterlimit="10" stroke-linecap="round" stroke-linejoin="round"/>
<path d="M13.2287 61.7563H19.0998L13.3665 66.9232C12.8378 67.3997 12.1512 67.6634 11.4394 67.6634H9.31549C8.38594 67.6634 7.94571 66.5173 8.63627 65.8951L13.2287 61.7563Z" stroke="#617792" stroke-width="2" stroke-miterlimit="10" stroke-linecap="round" stroke-linejoin="round"/>
<path d="M19.0996 61.7563H21.0448C22.0604 61.7563 22.8837 62.5797 22.8837 63.5952V67.6634" stroke="#617792" stroke-width="2" stroke-miterlimit="10" stroke-linecap="round" stroke-linejoin="round"/>
<path d="M56.7695 61.7563H50.8984L56.6317 66.9232C57.1604 67.3997 57.847 67.6634 58.5588 67.6634H60.6827C61.6123 67.6634 62.0525 66.5173 61.3619 65.8951L56.7695 61.7563Z" stroke="#617792" stroke-width="2" stroke-miterlimit="10" stroke-linecap="round" stroke-linejoin="round"/>
<path d="M50.8993 61.7563H48.9541C47.9386 61.7563 47.1152 62.5797 47.1152 63.5952V67.6634" stroke="#617792" stroke-width="2" stroke-miterlimit="10" stroke-linecap="round" stroke-linejoin="round"/>
<path d="M30.7891 58.0249H35.1017" stroke="#617792" stroke-width="2" stroke-miterlimit="10" stroke-linecap="round" stroke-linejoin="round"/>
<path d="M60.3246 61.7564H53.3697C52.6401 61.7564 52.0488 61.1649 52.0488 60.4355V40.4273C52.0488 39.6978 52.6403 39.1064 53.3697 39.1064H60.3246C61.0541 39.1064 61.6454 39.6979 61.6454 40.4273V60.4355C61.6454 61.1649 61.0541 61.7564 60.3246 61.7564Z" stroke="#617792" stroke-width="2" stroke-miterlimit="10" stroke-linecap="round" stroke-linejoin="round"/>
<path d="M56.8477 43.8821V48.5328" stroke="#617792" stroke-width="2" stroke-miterlimit="10" stroke-linecap="round" stroke-linejoin="round"/>
</svg>
