<svg width="70" height="70" viewBox="0 0 70 70" fill="none" xmlns="http://www.w3.org/2000/svg">
<path d="M2.92188 12.1041V6.49414C2.92188 3.47389 5.37037 1.02539 8.39062 1.02539H36.2627C39.2829 1.02539 41.7314 3.47389 41.7314 6.49414V18.9323" stroke="#617792" stroke-width="2" stroke-miterlimit="10" stroke-linecap="round" stroke-linejoin="round"/>
<path d="M31.8717 68.9746H8.39062C5.37037 68.9746 2.92188 66.5261 2.92188 63.5059V16.1328" stroke="#617792" stroke-width="2" stroke-miterlimit="10" stroke-linecap="round" stroke-linejoin="round"/>
<path d="M37.9034 19.0148V6.80312C37.9034 5.72633 37.0306 4.85352 35.9538 4.85352H28.7115L28.4117 5.56883C27.9858 6.58492 26.9916 7.24609 25.8899 7.24609H18.7635C17.6618 7.24609 16.6676 6.58492 16.2417 5.56883L15.9419 4.85352H8.69961C7.62281 4.85352 6.75 5.72633 6.75 6.80312V63.1969C6.75 64.2737 7.62281 65.1465 8.69961 65.1465H32.1257" stroke="#617792" stroke-width="2" stroke-miterlimit="10" stroke-linecap="round" stroke-linejoin="round"/>
<path d="M50.0595 42.9747H52.9605C54.0238 42.9747 54.8493 43.9108 54.7075 44.9645C53.8428 51.3896 48.8509 56.5248 42.4961 57.6057" stroke="#617792" stroke-width="2" stroke-miterlimit="10" stroke-linecap="round" stroke-linejoin="round"/>
<path d="M37.5027 57.6058C31.1478 56.5248 26.1559 51.3898 25.2913 44.9647C25.1495 43.911 25.975 42.9749 27.0383 42.9749H29.9393" stroke="#617792" stroke-width="2" stroke-miterlimit="10" stroke-linecap="round" stroke-linejoin="round"/>
<path d="M42.4961 52.7227V62.0059" stroke="#617792" stroke-width="2" stroke-miterlimit="10" stroke-linecap="round" stroke-linejoin="round"/>
<path d="M37.502 62.0059V52.7227" stroke="#617792" stroke-width="2" stroke-miterlimit="10" stroke-linecap="round" stroke-linejoin="round"/>
<path d="M44.6878 68.9746H48.2339V66.7866C48.2339 64.1463 46.0934 62.0059 43.4531 62.0059H36.6538C34.0135 62.0059 31.873 64.1463 31.873 66.7866V68.9746H40.6079" stroke="#617792" stroke-width="2" stroke-miterlimit="10" stroke-linecap="round" stroke-linejoin="round"/>
<path d="M39.9998 53.0351C34.4437 53.0351 29.9395 48.5309 29.9395 42.9748V28.9926C29.9395 23.4365 34.4437 18.9323 39.9998 18.9323C45.5559 18.9323 50.0601 23.4365 50.0601 28.9926V42.9748C50.0601 48.5309 45.5559 53.0351 39.9998 53.0351Z" stroke="#617792" stroke-width="2" stroke-miterlimit="10" stroke-linecap="round" stroke-linejoin="round"/>
<path d="M29.9395 31.047H35.4522" stroke="#617792" stroke-width="2" stroke-miterlimit="10" stroke-linecap="round" stroke-linejoin="round"/>
<path d="M29.9395 35.9836H35.4522" stroke="#617792" stroke-width="2" stroke-miterlimit="10" stroke-linecap="round" stroke-linejoin="round"/>
<path d="M29.9395 40.9202H35.4522" stroke="#617792" stroke-width="2" stroke-miterlimit="10" stroke-linecap="round" stroke-linejoin="round"/>
<path d="M44.5469 31.047H50.0596" stroke="#617792" stroke-width="2" stroke-miterlimit="10" stroke-linecap="round" stroke-linejoin="round"/>
<path d="M44.5469 35.9836H50.0596" stroke="#617792" stroke-width="2" stroke-miterlimit="10" stroke-linecap="round" stroke-linejoin="round"/>
<path d="M44.5469 40.9202H50.0596" stroke="#617792" stroke-width="2" stroke-miterlimit="10" stroke-linecap="round" stroke-linejoin="round"/>
<path d="M23.584 28.3199V37.0508" stroke="#617792" stroke-width="2" stroke-miterlimit="10" stroke-linecap="round" stroke-linejoin="round"/>
<path d="M18.252 21.484V43.8867" stroke="#617792" stroke-width="2" stroke-miterlimit="10" stroke-linecap="round" stroke-linejoin="round"/>
<path d="M12.9199 25.5856V39.7852" stroke="#617792" stroke-width="2" stroke-miterlimit="10" stroke-linecap="round" stroke-linejoin="round"/>
<path d="M56.4141 37.0508V28.3199" stroke="#617792" stroke-width="2" stroke-miterlimit="10" stroke-linecap="round" stroke-linejoin="round"/>
<path d="M61.7461 43.8867V21.484" stroke="#617792" stroke-width="2" stroke-miterlimit="10" stroke-linecap="round" stroke-linejoin="round"/>
<path d="M67.0781 39.7852V25.5856" stroke="#617792" stroke-width="2" stroke-miterlimit="10" stroke-linecap="round" stroke-linejoin="round"/>
</svg>
