<svg width="70" height="70" viewBox="0 0 70 70" fill="none" xmlns="http://www.w3.org/2000/svg">
<g clip-path="url(#clip0_1599_2020)">
<path d="M66.9171 10.2449H62.9482C62.3807 10.2449 61.9207 10.7048 61.9207 11.2723C61.9207 11.8398 62.3807 12.2998 62.9482 12.2998H66.9171C67.4841 12.2998 67.9453 12.7609 67.9453 13.3278V50.2135C67.9453 50.7804 67.4841 51.2415 66.9171 51.2415H3.08287C2.5159 51.2415 2.05475 50.7804 2.05475 50.2135V13.3276C2.05475 12.7608 2.5159 12.2996 3.08287 12.2996H58.8386C59.4061 12.2996 59.866 11.8396 59.866 11.2722C59.866 10.7048 59.4061 10.2447 58.8386 10.2447H53.2558V7.4215H56.1274C57.4495 7.4215 58.5251 6.34594 58.5251 5.02387V2.39764C58.5251 1.07557 57.4495 0 56.1274 0H48.3293C47.0072 0 45.9316 1.07557 45.9316 2.39764V5.02373C45.9316 6.3458 47.0072 7.42137 48.3293 7.42137H51.201V10.2447H36.0274V7.4215H38.8992C40.2213 7.4215 41.2969 6.34594 41.2969 5.02387V2.39764C41.2969 1.07557 40.2213 0 38.8992 0H31.1008C29.7787 0 28.7031 1.07557 28.7031 2.39764V5.02373C28.7031 6.3458 29.7787 7.42137 31.1008 7.42137H33.9726V10.2447H18.799V7.4215H21.6707C22.9928 7.4215 24.0684 6.34594 24.0684 5.02387V2.39764C24.0684 1.07557 22.9928 0 21.6707 0H13.8726C12.5505 0 11.4748 1.07557 11.4748 2.39764V5.02373C11.4748 6.3458 12.5504 7.42137 13.8724 7.42137H16.7441V10.2447H3.08287C1.38305 10.2449 0 11.6277 0 13.3276V50.2134C0 51.9132 1.38305 53.2961 3.08287 53.2961H9.74231V56.1728H2.26023C1.69271 56.1728 1.23279 56.6329 1.23279 57.2003C1.23279 57.7676 1.69271 58.2277 2.26023 58.2277H29.4928V68.9726C29.4928 69.5399 29.9528 70 30.5203 70H39.4797C40.0472 70 40.5072 69.5399 40.5072 68.9726V65.2468C40.5072 64.6795 40.0472 64.2194 39.4797 64.2194C38.9122 64.2194 38.4523 64.6795 38.4523 65.2468V67.9453H31.5476V53.2961H38.4523V61.1372C38.4523 61.7046 38.9122 62.1646 39.4797 62.1646C40.0472 62.1646 40.5072 61.7046 40.5072 61.1372V58.2277H67.7398C68.3073 58.2277 68.7672 57.7678 68.7672 57.2003C68.7672 56.6329 68.3073 56.1728 67.7398 56.1728H60.2577V53.2961H66.9171C68.617 53.2961 70 51.9132 70 50.2134V13.3276C70 11.6277 68.617 10.2449 66.9171 10.2449ZM47.9864 5.02387V2.39764C47.9864 2.20855 48.1402 2.05475 48.3293 2.05475H56.1274C56.3165 2.05475 56.4703 2.20855 56.4703 2.39764V5.02373C56.4703 5.21281 56.3165 5.36662 56.1274 5.36662H48.3293C48.1403 5.36662 47.9864 5.21281 47.9864 5.02387ZM30.758 5.02387V2.39764C30.758 2.20855 30.9118 2.05475 31.1009 2.05475H38.8992C39.0883 2.05475 39.2421 2.20855 39.2421 2.39764V5.02373C39.2421 5.21281 39.0883 5.36662 38.8992 5.36662H31.1008C30.9118 5.36662 30.758 5.21281 30.758 5.02387ZM13.5297 5.02387V2.39764C13.5297 2.20855 13.6835 2.05475 13.8726 2.05475H21.6707C21.8598 2.05475 22.0136 2.20855 22.0136 2.39764V5.02373C22.0136 5.21281 21.8598 5.36662 21.6707 5.36662H13.8726C13.6835 5.36662 13.5297 5.21281 13.5297 5.02387ZM11.7972 53.2961H19.6079V56.1728H11.7972V53.2961ZM29.4928 56.1729H21.6627V53.2963H29.4928V56.1729ZM40.5072 53.2961H48.3373V56.1728H40.5072V53.2961ZM58.2028 56.1729H50.3921V53.2963H58.2028V56.1729Z" fill="#617792"/>
<path d="M62.5257 39.8661H43.1681C42.6005 39.8661 42.1406 40.3261 42.1406 40.8935C42.1406 41.4609 42.6005 41.921 43.1681 41.921H62.5257C63.0932 41.921 63.5531 41.4609 63.5531 40.8935C63.553 40.3261 63.093 39.8661 62.5257 39.8661Z" fill="#617792"/>
<path d="M62.5257 33.6874H43.1681C42.6005 33.6874 42.1406 34.1474 42.1406 34.7148C42.1406 35.2822 42.6005 35.7423 43.1681 35.7423H62.5257C63.0932 35.7423 63.5531 35.2822 63.5531 34.7148C63.553 34.1473 63.093 33.6874 62.5257 33.6874Z" fill="#617792"/>
<path d="M17.4176 43.5772C17.4176 44.1446 17.8775 44.6047 18.4451 44.6047H36.8537C37.6591 44.6305 38.1784 43.6338 37.6958 42.9887L29.625 31.4425C29.2443 30.8642 28.3214 30.8643 27.9407 31.4425L24.4875 36.383L18.7102 28.1178C18.3295 27.5395 17.4066 27.5396 17.0259 28.1178L6.6312 42.9887C6.14858 43.634 6.66811 44.6305 7.47339 44.6047H14.3357C14.9032 44.6047 15.3632 44.1446 15.3632 43.5772C15.3632 43.0099 14.9032 42.5498 14.3357 42.5498H9.44487L17.868 30.4995L26.2911 42.5498H18.4452C17.8775 42.5498 17.4176 43.0099 17.4176 43.5772ZM25.7409 38.1762L28.7828 33.8243L34.8819 42.5498H28.7981L25.7409 38.1762Z" fill="#617792"/>
<path d="M17.7716 20.3321H52.2284C52.7959 20.3321 53.2558 19.872 53.2558 19.3047C53.2558 18.7373 52.7959 18.2772 52.2284 18.2772H17.7716C17.2041 18.2772 16.7441 18.7373 16.7441 19.3047C16.7443 19.8722 17.2042 20.3321 17.7716 20.3321Z" fill="#617792"/>
<path d="M45.8593 24.5868C45.8593 24.0194 45.3994 23.5593 44.8319 23.5593H26.4024C25.8349 23.5593 25.375 24.0192 25.375 24.5868C25.375 25.1542 25.8349 25.6142 26.4024 25.6142H44.8319C45.3994 25.6141 45.8593 25.1542 45.8593 24.5868Z" fill="#617792"/>
</g>
<defs>
<clipPath id="clip0_1599_2020">
<rect width="70" height="70" fill="white"/>
</clipPath>
</defs>
</svg>
