<svg width="70" height="70" viewBox="0 0 70 70" fill="none" xmlns="http://www.w3.org/2000/svg">
<path d="M11.2223 34.4696C10.7875 34.4696 10.4375 34.8196 10.4375 35.2544V40.6105C10.4375 41.0454 10.7875 41.3954 11.2223 41.3954H16.9072C17.342 41.3954 17.692 41.0454 17.692 40.6105V35.2544C17.692 34.8196 17.342 34.4696 16.9072 34.4696H14.8496V30.4923H24.4799V34.4696H22.4223C21.9875 34.4696 21.6375 34.8196 21.6375 35.2544V40.5999C21.6375 41.0347 21.9875 41.3847 22.4223 41.3847H28.1178C28.5527 41.3847 28.9027 41.0347 28.9027 40.5999V35.2544C28.9027 34.8196 28.5527 34.4696 28.1178 34.4696H26.0602V30.4923H35.6905V34.4696H33.6436C33.2087 34.4696 32.8587 34.8196 32.8587 35.2544V40.6105C32.8587 41.0454 33.2087 41.3954 33.6436 41.3954H35.6905V48.1196H28.9133V46.2423C28.9133 45.8075 28.5633 45.4575 28.1284 45.4575H22.433C21.9981 45.4575 21.6481 45.8075 21.6481 46.2423V51.5878C21.6481 52.0226 21.9981 52.3726 22.433 52.3726H28.1284C28.5633 52.3726 28.9133 52.0226 28.9133 51.5878V49.7105H36.486C36.9208 49.7105 37.2708 49.3605 37.2708 48.9257V41.4166H39.3284C39.7633 41.4166 40.1133 41.0666 40.1133 40.6317V35.2757C40.1133 34.8408 39.7633 34.4908 39.3284 34.4908H37.2708V29.7287C37.2708 29.2938 36.9208 28.9438 36.486 28.9438H26.0708V24.4363H30.2178C30.6527 24.4363 31.0027 24.0863 31.0027 23.6514V17.2878C31.0027 16.8529 30.6527 16.5029 30.2178 16.5029H20.3223C19.8875 16.5029 19.5375 16.8529 19.5375 17.2878V23.6196C19.5375 24.0544 19.8875 24.4044 20.3223 24.4044H24.4799V28.912H14.0648C13.6299 28.912 13.2799 29.262 13.2799 29.6969V34.459H11.2223V34.4696ZM27.333 39.8151H23.2178V36.0605H27.333V39.8151ZM27.333 50.8029H23.2178V47.0378H27.333V50.8029ZM38.5436 39.8257H36.5072C36.4966 39.8257 36.4966 39.8257 36.486 39.8257C36.4754 39.8257 36.4754 39.8257 36.4648 39.8257H34.4284V36.0499H36.4648H36.486C36.486 36.0499 36.4966 36.0499 36.5072 36.0499H38.5436V39.8257ZM21.1178 18.0832H29.433V22.8347H25.286C25.286 22.8347 25.286 22.8347 25.2754 22.8347C25.2754 22.8347 25.2754 22.8347 25.2648 22.8347H21.1072V18.0832H21.1178ZM16.1223 39.8257H12.0178V36.0499H14.0542H14.0754C14.0754 36.0499 14.086 36.0499 14.0966 36.0499H16.133V39.8257H16.1223Z" fill="#617792"/>
<path d="M46.5813 67.3591H23.4177C22.9828 67.3591 22.6328 67.7091 22.6328 68.144C22.6328 68.5788 22.9828 68.9288 23.4177 68.9288H46.5919C47.0268 68.9288 47.3768 68.5788 47.3768 68.144C47.3768 67.7091 47.0268 67.3591 46.5813 67.3591Z" fill="#617792"/>
<path d="M67.6556 58.9272H46.7828C47.0374 58.4818 47.1859 57.9727 47.1859 57.4318V46.4333C49.0525 45.7015 49.9965 44.1106 50.3995 42.753L50.5374 42.8378C50.6753 42.9227 50.8237 42.9651 50.9616 42.9651C51.2162 42.9651 51.4707 42.8378 51.6298 42.6045L58.9692 31.2984H58.9798C59.2344 31.2984 59.4889 31.1712 59.648 30.9378L65.0041 22.6969L66.1495 23.4393L61.695 30.2909C61.4616 30.6621 61.5571 31.1499 61.9283 31.3833C62.0662 31.4681 62.2147 31.5105 62.3525 31.5105C62.6071 31.5105 62.8616 31.3833 63.0207 31.1499L67.8995 23.6302C68.1328 23.259 68.0374 22.7712 67.6662 22.5378L65.8631 21.3605L66.2662 20.7454C67.5177 18.8045 66.9662 16.1954 65.0359 14.9333L64.4737 14.5621C63.5404 13.9575 62.4162 13.7454 61.3237 13.9787C60.2207 14.2121 59.2768 14.859 58.6722 15.803L52.0541 25.9742C51.9374 26.1545 51.9056 26.3666 51.948 26.5681C51.9586 26.6212 51.9904 26.6636 52.0116 26.7166L47.2177 34.109V11.4545C47.2177 9.75752 45.8389 8.37873 44.1419 8.37873H37.8631V7.92267C37.8631 7.48782 37.5131 7.13782 37.0783 7.13782H32.0298C31.8707 5.59994 31.1919 4.16812 30.0783 3.06509C28.795 1.77115 27.0874 1.06055 25.2737 1.06055C21.795 1.06055 18.9207 3.69085 18.5389 7.12721H13.5116C13.0768 7.12721 12.7268 7.47721 12.7268 7.91206V8.37873H6.44799C4.75102 8.37873 3.37223 9.75752 3.37223 11.4545V57.4318C3.37223 57.9833 3.53132 58.4818 3.77526 58.9272H2.34344C1.90859 58.9272 1.55859 59.2772 1.55859 59.7121C1.55859 60.1469 1.90859 60.4969 2.34344 60.4969H12.4192C12.2177 60.8893 12.0904 61.3348 12.0904 61.8121C12.0904 63.4136 13.3844 64.7075 14.9859 64.7075H52.9025C53.1147 64.7075 53.295 64.6227 53.4434 64.4954C53.454 64.4848 53.4647 64.4848 53.4647 64.4848C53.6131 64.3363 53.698 64.1348 53.698 63.9227C53.698 63.8166 53.6768 63.7212 53.6344 63.6151C53.5919 63.5196 53.5389 63.4454 53.4753 63.3712C53.4647 63.3606 53.4434 63.3605 53.4328 63.3499C53.295 63.2227 53.1147 63.1484 52.9131 63.1484H14.9859C14.2647 63.1484 13.6707 62.5545 13.6707 61.8333C13.6707 61.1121 14.254 60.5181 14.9753 60.5181H44.1101H44.1207H67.645C68.0798 60.5181 68.4298 60.1681 68.4298 59.7333C68.4404 59.2878 68.0904 58.9272 67.6556 58.9272ZM45.4677 45.2348C45.351 45.2666 42.8586 45.8712 41.0237 47.7802L46.0828 39.9742L48.9783 41.8409C48.798 42.7954 48.098 44.9272 45.4677 45.2348ZM50.7283 41.0878L46.3904 38.2666L53.2313 27.7348L57.5692 30.556L50.7283 41.0878ZM59.9662 16.7045C60.348 16.1212 60.9313 15.7075 61.6207 15.5696C62.2995 15.4212 62.9995 15.5484 63.5828 15.9302L64.145 16.3015C65.3541 17.0863 65.6934 18.7196 64.9086 19.9287L64.0919 21.1909C64.0919 21.2015 64.0813 21.2015 64.0813 21.2015C64.0813 21.2121 64.0813 21.2121 64.0707 21.2227L58.7253 29.4424L53.7722 26.2287L59.9662 16.7045ZM44.1101 9.95903C44.9374 9.95903 45.6056 10.6272 45.6056 11.4545V36.5696L44.6298 38.0757C44.5131 38.256 44.4813 38.4681 44.5237 38.6696C44.5556 38.8393 44.6616 38.9772 44.7889 39.0833L43.5268 41.0242V12.8333C43.5268 12.3984 43.1768 12.0484 42.7419 12.0484H37.8419V9.95903H44.1101ZM14.2965 8.70752H19.2813C19.7162 8.70752 20.0662 8.28327 20.0662 7.84843C20.0662 4.97418 22.3995 2.64085 25.2737 2.64085C26.6631 2.64085 27.9783 3.18176 28.9647 4.16812C29.951 5.15449 30.4919 6.45903 30.4919 7.92267C30.4919 8.35752 30.8419 8.70752 31.2768 8.70752H36.251V13.1196H14.2965V8.70752ZM37.0359 14.6999C37.4707 14.6999 37.8207 14.3499 37.8207 13.9151V13.6181H41.9253V43.4742L39.1889 47.6954C39.0722 47.8757 39.0404 48.0878 39.0828 48.2893C39.1253 48.4909 39.2525 48.6712 39.4328 48.7878L40.6631 49.5727C40.7904 49.6575 40.9389 49.6999 41.0874 49.6999C41.3313 49.6999 41.5647 49.5939 41.7131 49.3924C41.7768 49.2969 41.851 49.2121 41.9253 49.1272V55.2681H8.61162V13.6181H12.7268V13.9151C12.7268 14.3499 13.0768 14.6999 13.5116 14.6999H37.0359ZM4.94193 57.4318V11.4545C4.94193 10.6272 5.61011 9.95903 6.43738 9.95903H12.7162V12.0378H7.81617C7.38132 12.0378 7.03132 12.3878 7.03132 12.8227V56.053C7.03132 56.4878 7.38132 56.8378 7.81617 56.8378H42.7313C43.1662 56.8378 43.5162 56.4878 43.5162 56.053V47.7909C44.4283 47.2287 45.2768 46.9318 45.6056 46.8257V57.4212C45.6056 58.2378 44.948 58.9166 44.1313 58.9166H6.43738C5.61011 58.9272 4.94193 58.259 4.94193 57.4318Z" fill="#617792"/>
<path d="M57.4323 63.212C57.1353 63.0847 56.7747 63.1589 56.5732 63.3817C56.4247 63.5302 56.3398 63.7317 56.3398 63.9438C56.3398 64.1559 56.4247 64.3574 56.5732 64.5059C56.7217 64.6544 56.9232 64.7392 57.1353 64.7392C57.2414 64.7392 57.3368 64.718 57.4429 64.6756C57.5383 64.6332 57.6232 64.5802 57.6974 64.5059C57.8459 64.3574 57.9308 64.1559 57.9308 63.9438C57.9308 63.7317 57.8459 63.5302 57.6974 63.3817C57.602 63.3074 57.5277 63.2544 57.4323 63.212Z" fill="#617792"/>
</svg>
