<svg width="40" height="40" viewBox="0 0 40 40" fill="none" xmlns="http://www.w3.org/2000/svg">
<path fill-rule="evenodd" clip-rule="evenodd" d="M3.75 1.25H5V6.25H6.25V3.125H7.5V6.71875L8.03125 7.61719C8.32031 8.11719 8.5625 8.52344 8.57031 8.51562C8.57812 8.51562 8.97656 8.11719 9.46875 7.63281C9.95312 7.15625 10.6328 6.55469 10.9766 6.30469C11.3203 6.05469 11.75 5.76562 12.2656 5.46875L13.6641 8.14844C14.4375 9.61719 15.0781 10.8594 15.0937 10.9063C15.1094 10.9531 14.8516 11.2031 14.5312 11.4531C14.2109 11.7109 13.7812 12.1172 13.5859 12.3516C13.3828 12.5859 13.0781 13 12.8984 13.2812C12.7188 13.5625 12.4688 14.0625 12.3438 14.3984C12.2109 14.7266 12.0547 15.3047 11.9922 15.6875C11.9297 16.0625 11.875 16.4844 11.875 16.875H5.625V16.4844C5.625 16.2734 5.67969 15.6953 5.74219 15.2188C5.80469 14.7344 5.94531 13.9844 6.05469 13.5547C6.17188 13.125 6.41406 12.4063 6.59375 11.9531C6.78125 11.5 7.04688 10.9219 7.1875 10.6641C7.33594 10.4063 7.51562 10.1016 7.59375 9.98438C7.67187 9.85938 7.72656 9.71875 7.71094 9.66406C7.70312 9.60937 7.42969 9.10156 6.52344 7.5H1.25V4.375H2.5V6.25H3.75V1.25ZM18.6719 3.75781C19.1641 3.75781 19.9375 3.80469 20.3906 3.85938C20.8438 3.92188 21.5078 4.04687 21.875 4.14062C22.2422 4.22656 22.75 4.375 23.0078 4.46875C23.2656 4.55469 23.8828 4.82031 24.375 5.05469C24.8672 5.28906 25.5625 5.67187 25.9219 5.90625C26.5156 6.29687 26.5703 6.32031 26.6719 6.19531C26.7344 6.11719 27.1484 5.54688 28.4063 3.78906L38.7422 3.75L38.75 5H29.0625L28.3203 6.03906C27.9141 6.60156 27.5859 7.11719 27.5781 7.17188C27.5781 7.21875 27.6094 7.26562 27.6562 7.26562C27.6953 7.26562 28.0547 7.625 28.4453 8.07031C28.8359 8.50781 29.3672 9.17969 29.625 9.57031C29.8828 9.96094 30.2656 10.6094 30.4688 11.0156C30.6719 11.4219 30.9297 12.0078 31.0391 12.3047C31.1562 12.6016 31.3516 13.2578 31.4766 13.75C31.6016 14.2422 31.75 15.0703 31.7969 15.5859C31.8594 16.1406 31.875 16.9063 31.8516 17.4609C31.8203 17.9766 31.75 18.7266 31.5625 19.8438L31.8828 20.1406C32.0625 20.2969 32.3906 20.6719 32.6172 20.9766C32.8516 21.2813 33.1641 21.7344 33.3203 21.9922C33.4687 22.25 33.7031 22.7266 33.8359 23.0469C33.9688 23.3672 34.1406 23.875 34.2188 24.1797C34.2969 24.4844 34.3984 25.0937 34.4531 25.5469C34.5156 26.1328 34.5156 26.5859 34.4609 27.1484C34.4141 27.5781 34.3125 28.1953 34.2344 28.5156C34.1484 28.8359 33.9844 29.3281 33.875 29.6094C33.7578 29.8906 33.6484 30.1641 33.625 30.2187C33.6094 30.2656 34.8125 31.4531 36.3047 32.8516C38.4297 34.8359 39.0625 35.4766 39.2031 35.7656C39.3437 36.0547 39.375 36.2266 39.3516 36.6016C39.3359 36.8828 39.25 37.2266 39.1328 37.4609C39.0312 37.6797 38.7344 38.0781 38.4766 38.3516C38.2188 38.625 37.8984 38.9062 37.7734 38.9687C37.6484 39.0391 37.3828 39.1563 37.1875 39.2344C36.9922 39.3125 36.75 39.375 36.6406 39.375C36.5313 39.375 36.2656 39.3203 36.0547 39.2422C35.7187 39.125 35.2891 38.7578 33.125 36.7266C31.7266 35.4219 30.4922 34.2578 30.1562 33.9453L29.5547 34.2344C29.2187 34.3984 28.7344 34.6016 28.4766 34.6875C28.2188 34.7734 27.7109 34.9063 27.3438 34.9766C26.9453 35.0469 26.2891 35.1016 25.7031 35.1016C25.0312 35.1016 24.4922 35.0469 23.9844 34.9453C23.5781 34.8594 22.9453 34.6719 22.5781 34.5234C22.2109 34.375 21.6484 34.1094 21.3281 33.9219C21.0078 33.7422 20.4531 33.3437 20.0938 33.0469C19.7422 32.7422 19.2266 32.2109 18.9453 31.8594C18.6641 31.5 18.2813 30.9297 17.7422 29.9609L17.2109 29.8984C16.9219 29.8672 16.3437 29.7656 15.9375 29.6719C15.5313 29.5859 14.8438 29.3906 14.4141 29.2422C13.9844 29.0937 13.3125 28.8125 12.9297 28.6172C12.5469 28.4219 11.9453 28.0781 11.6016 27.8516C11.2578 27.6328 10.7109 27.2344 9.80469 26.4922L9.59375 26.6641C9.48438 26.7578 8.96875 27.1875 7.50781 28.3984L7.5 31.875H6.25V27.8125L7.57812 26.7188C8.30469 26.1172 8.90625 25.6094 8.90625 25.5859C8.90625 25.5625 8.74219 25.3437 8.53906 25.1016C8.33594 24.8516 7.99219 24.3672 7.76563 24.0234C7.53906 23.6797 7.17969 23.0469 6.96875 22.6172C6.75781 22.1875 6.45312 21.4688 6.30469 21.0156C6.15625 20.5625 5.95312 19.8203 5.86719 19.3594C5.77344 18.8906 5.70312 18.4297 5.70312 18.125H8.82812C11.2578 18.125 11.9609 18.1484 11.9844 18.2266C12.0078 18.2734 12.1172 18.6406 12.2344 19.0234C12.3594 19.4141 12.6328 20.0234 12.8516 20.3828C13.0703 20.75 13.5 21.3125 13.8281 21.6484C14.1484 21.9766 14.6797 22.4141 15 22.625C15.3203 22.8281 15.7969 23.0859 16.0547 23.1875C16.3125 23.2969 16.6953 23.4297 16.9141 23.4844C17.125 23.5469 17.3516 23.5938 17.3984 23.5938C17.4531 23.5938 17.5 23.5469 17.5 23.5C17.5 23.4453 17.6719 23.0469 17.8828 22.6172C18.0937 22.1875 18.4219 21.6094 18.625 21.3281C18.8203 21.0469 19.2578 20.5469 19.5859 20.2109C19.9219 19.875 20.4609 19.4219 20.7812 19.1953C21.1016 18.9766 21.6875 18.6484 22.0703 18.4687C22.4531 18.2812 23.1094 18.0469 23.5156 17.9375C23.9219 17.8359 24.5391 17.7187 24.8828 17.6875C25.2266 17.6562 25.5313 17.5938 25.5625 17.5469C25.5938 17.5 25.625 17.2188 25.625 16.9141C25.625 16.6172 25.5703 16.0469 25.5078 15.6641C25.4375 15.2812 25.2734 14.6953 25.1484 14.375C25.0156 14.0547 24.75 13.5234 24.5469 13.2031C24.3516 12.8828 23.9219 12.3516 23.5938 12.0312C23.2734 11.7031 22.7422 11.2734 22.4219 11.0781C22.1016 10.875 21.5703 10.6094 21.25 10.4766C20.9297 10.3516 20.3281 10.1875 19.9219 10.1094C19.3906 10.0156 18.9531 9.99219 18.3984 10.0234C17.9688 10.0469 17.3359 10.1406 16.9922 10.2344C16.6484 10.3203 16.3437 10.3906 16.3047 10.3906C16.2734 10.3906 15.6016 9.1875 14.8047 7.71875C14.0078 6.24219 13.3516 5.00781 13.3516 4.96094C13.3516 4.92188 13.6562 4.76563 14.0391 4.625C14.4141 4.48438 15.0625 4.28125 15.4688 4.17188C15.875 4.0625 16.5625 3.92969 16.9922 3.875C17.4219 3.8125 18.1797 3.76562 18.6719 3.75781V3.75781ZM10.1328 8.73438C9.80469 9.08594 9.46875 9.46875 9.39062 9.57812C9.25781 9.78125 9.26563 9.79687 9.47656 10.1875C9.67188 10.5469 9.73438 10.5937 10.1016 10.6953C10.375 10.7734 10.6016 10.9062 10.7969 11.1094C10.9766 11.2891 11.125 11.5391 11.1797 11.7422C11.2266 11.9219 11.2422 12.2266 11.2188 12.4219C11.1875 12.6172 11.0859 12.8984 10.9922 13.0469C10.8906 13.1953 10.6719 13.4063 10.5 13.5156C10.2578 13.6719 10.0937 13.7109 9.6875 13.7109C9.28125 13.7109 9.11719 13.6719 8.875 13.5156C8.70312 13.4063 8.47656 13.1797 8.36719 13.0156C8.20312 12.7656 8.16406 12.6094 8.16406 12.1953C8.16406 11.7969 8.20312 11.6172 8.33594 11.4062C8.42969 11.2578 8.51562 11.1094 8.51562 11.0781C8.51562 11.0391 8.47656 11.0391 8.42188 11.0781C8.36719 11.1094 8.19531 11.4141 8.03906 11.7578C7.875 12.1016 7.63281 12.7188 7.5 13.125C7.35938 13.5312 7.17969 14.2109 7.10156 14.6328C7.02344 15.0469 6.95312 15.4453 6.95312 15.5078C6.95312 15.6094 7.21094 15.625 8.82812 15.625H10.7031C10.7734 15.2891 10.8828 14.8984 10.9922 14.5312C11.0937 14.1641 11.3281 13.5859 11.5 13.2422C11.6719 12.8984 11.9609 12.4062 12.1406 12.1484C12.3281 11.8906 12.7109 11.4453 12.9922 11.1563C13.2813 10.8594 13.5156 10.6094 13.5156 10.5859C13.5156 10.5625 13.1328 9.8125 12.6719 8.90625C12.2031 8 11.8047 7.26562 11.7891 7.26562C11.7656 7.26562 11.5234 7.45313 11.25 7.67969C10.9688 7.91406 10.4687 8.39063 10.1328 8.73438V8.73438ZM9.39062 12.2344C9.40625 12.3047 9.47656 12.4062 9.54687 12.4531C9.64844 12.5156 9.72656 12.5156 9.82031 12.4531C9.89844 12.4062 9.96875 12.3047 9.97656 12.2344C9.99219 12.1641 9.95312 12.0547 9.89844 11.9922C9.85156 11.9219 9.75 11.8672 9.67969 11.875C9.60938 11.875 9.50781 11.9297 9.46094 11.9922C9.41406 12.0547 9.38281 12.1641 9.39062 12.2344ZM15.7187 5.39844C15.3672 5.5 15.0859 5.60156 15.0937 5.625C15.1094 5.64844 15.5234 6.41406 16.0156 7.32031L16.9141 8.96094C17.3359 8.85937 17.8281 8.80469 18.2812 8.78125C18.7813 8.75 19.375 8.76563 19.8047 8.82031C20.1875 8.875 20.7891 9.00781 21.1328 9.11719C21.4766 9.22656 22.0391 9.45312 22.3828 9.625C22.7266 9.79687 23.1641 10.0469 23.3594 10.1797C23.5547 10.3125 23.9844 10.6875 24.3281 11.0156C24.6641 11.3359 25.0938 11.8125 25.2891 12.0703C25.4844 12.3281 25.7812 12.8203 25.9609 13.1641C26.1328 13.5078 26.3594 14.0391 26.4609 14.3359C26.5625 14.6406 26.7031 15.2188 26.7656 15.625C26.8281 16.0312 26.875 16.6641 26.8672 17.0312L26.8516 17.6953C28.0547 17.9531 28.5938 18.1094 28.8281 18.2031C29.0625 18.2969 29.5234 18.5078 29.8438 18.6719C30.1641 18.8438 30.4375 18.9687 30.4453 18.9609C30.4531 18.9531 30.5 18.5781 30.5547 18.125C30.6094 17.6484 30.625 16.9141 30.6016 16.3672C30.5781 15.8516 30.4844 15.0625 30.3906 14.6094C30.2969 14.1562 30.1172 13.4766 29.9922 13.0859C29.8594 12.7031 29.5781 12.0312 29.3594 11.6016C29.1484 11.1719 28.7656 10.5234 28.5156 10.1562C28.2656 9.78906 27.7813 9.19531 27.4375 8.82812C27.0938 8.46094 26.7812 8.1875 26.75 8.22656C26.7109 8.25781 26.7266 8.42969 26.7891 8.61719C26.8516 8.82031 26.875 9.07813 26.8438 9.29688C26.8125 9.49219 26.7109 9.77344 26.6094 9.92188C26.5156 10.0703 26.2969 10.2813 26.125 10.3906C25.8828 10.5469 25.7187 10.5859 25.3125 10.5859C24.9063 10.5859 24.7422 10.5469 24.5 10.3906C24.3281 10.2813 24.1016 10.0547 23.9922 9.89062C23.8281 9.64062 23.7891 9.48437 23.7891 9.07031C23.7891 8.65625 23.8281 8.49219 23.9844 8.25C24.0937 8.07812 24.3203 7.85156 24.4844 7.74219C24.7187 7.58594 24.9141 7.53125 25.2656 7.52344C25.5312 7.51563 25.7734 7.47656 25.8047 7.44531C25.8359 7.40625 25.5937 7.20313 25.2578 6.97656C24.9219 6.75 24.3281 6.41406 23.9453 6.21875C23.5625 6.03125 22.9062 5.75781 22.5 5.625C22.0938 5.48438 21.4219 5.30469 21.0156 5.22656C20.5547 5.13281 19.8125 5.0625 19.0625 5.03906C18.2734 5.01562 17.5937 5.03906 17.1094 5.10938C16.7031 5.17188 16.0781 5.29687 15.7187 5.39844V5.39844ZM25.0156 9.10937C25.0313 9.17969 25.1016 9.28125 25.1719 9.32813C25.2734 9.39063 25.3516 9.39063 25.4453 9.32813C25.5234 9.28125 25.5938 9.17969 25.6016 9.10937C25.6172 9.03906 25.5781 8.92969 25.5234 8.86719C25.4766 8.79688 25.375 8.74219 25.3047 8.75C25.2344 8.75 25.1328 8.80469 25.0859 8.86719C25.0391 8.92969 25.0078 9.03906 25.0156 9.10937ZM23.5547 19.2266C23.25 19.3125 22.7109 19.5391 22.3516 19.7109C21.9922 19.8906 21.4141 20.2656 21.0625 20.5469C20.7188 20.8281 20.1953 21.3516 19.8984 21.7188C19.6094 22.0859 19.2344 22.6641 19.0625 23.0078C18.8984 23.3516 18.6953 23.8438 18.6094 24.1016C18.5234 24.3594 18.4141 24.8359 18.3594 25.1562C18.2969 25.5234 18.2813 26.1094 18.3047 26.7188C18.3281 27.3125 18.4063 27.9219 18.5 28.2812C18.5859 28.6016 18.7734 29.1328 18.9219 29.4531C19.0703 29.7734 19.3281 30.25 19.5 30.5078C19.6641 30.7656 20.0313 31.2187 20.3125 31.5156C20.5937 31.8047 21.0313 32.2109 21.2891 32.3984C21.5469 32.5938 22.0234 32.8828 22.3438 33.0469C22.6641 33.2109 23.2109 33.4297 23.5547 33.5391C23.8984 33.6484 24.5469 33.7734 25 33.8281C25.6094 33.8906 26 33.8906 26.5234 33.8281C26.9063 33.7812 27.4219 33.6953 27.6562 33.6328C27.8906 33.5703 28.3516 33.4141 28.6719 33.2812C28.9922 33.1484 29.5391 32.8516 29.8828 32.625C30.2266 32.3984 30.75 31.9766 31.0469 31.6719C31.3516 31.375 31.7734 30.8516 32 30.5078C32.2266 30.1641 32.5 29.6719 32.6172 29.4141C32.7266 29.1563 32.8906 28.7031 32.9766 28.3984C33.0625 28.0937 33.1641 27.5313 33.2109 27.1484C33.2656 26.6484 33.2656 26.2109 33.2031 25.625C33.1484 25.1719 33.0234 24.5234 32.9141 24.1797C32.8047 23.8359 32.6094 23.3437 32.4766 23.0859C32.3516 22.8281 32.125 22.4297 31.9844 22.2109C31.8359 21.9844 31.4766 21.5391 31.1797 21.2344C30.8906 20.9219 30.3906 20.4844 30.0703 20.2656C29.75 20.0469 29.3125 19.7734 29.1016 19.6719C28.8828 19.5625 28.4844 19.3984 28.2031 19.2969C27.9219 19.2031 27.4375 19.0781 27.125 19.0156C26.8203 18.9531 26.1875 18.9141 25.7188 18.9141C25.2578 18.9219 24.7031 18.9531 24.4922 18.9922C24.2734 19.0234 23.8594 19.1328 23.5547 19.2266V19.2266ZM7.20312 19.6641C7.24219 19.8281 7.36719 20.2422 7.47656 20.5859C7.58594 20.9297 7.8125 21.4922 7.96875 21.8359C8.125 22.1797 8.40625 22.7031 8.59375 23.0078C8.77344 23.3125 9.14063 23.8281 9.40625 24.1641C9.66406 24.5 9.92188 24.7578 9.96094 24.7422C10.0078 24.7266 10.0391 24.4531 10.0391 24.125C10.0391 23.6328 10.0703 23.5 10.2422 23.2344C10.3516 23.0703 10.5781 22.8437 10.75 22.7344C10.9922 22.5781 11.1563 22.5391 11.5703 22.5391C11.9844 22.5391 12.1406 22.5781 12.3906 22.7422C12.5547 22.8516 12.7813 23.0781 12.8906 23.25C13.0469 23.4922 13.0859 23.6563 13.0859 24.0703C13.0859 24.4844 13.0469 24.6406 12.8828 24.8906C12.7734 25.0547 12.5469 25.2813 12.375 25.3906C12.1172 25.5547 11.9766 25.5859 11.4688 25.5859C11.1406 25.5859 10.8516 25.6016 10.8203 25.625C10.7969 25.6484 10.9922 25.8438 11.2656 26.0625C11.5391 26.2813 11.9844 26.6094 12.2656 26.7969C12.5469 26.9844 13.1094 27.3047 13.5156 27.5078C13.9219 27.7109 14.5781 27.9844 14.9609 28.1172C15.3438 28.2422 16.0156 28.4219 16.4453 28.5078C16.875 28.5937 17.2344 28.6563 17.25 28.6484C17.2656 28.6406 17.2187 28.2969 17.1484 27.8906C17.0469 27.3516 17.0234 26.8281 17.0391 25.9844L17.0703 24.8281C16.0703 24.5391 15.4766 24.2969 15.0937 24.1094C14.7187 23.9219 14.2031 23.6094 13.9453 23.4219C13.6875 23.2266 13.25 22.8437 12.9766 22.5703C12.7031 22.2969 12.3359 21.8594 12.1484 21.6016C11.9609 21.3438 11.6875 20.8906 11.5391 20.5859C11.3828 20.2812 11.2109 19.8984 11.1484 19.7266L11.0391 19.4141L7.125 19.375L7.20312 19.6641ZM11.2734 24.1094C11.2891 24.1797 11.3594 24.2734 11.4297 24.3203C11.5313 24.3828 11.6016 24.3828 11.7031 24.3203C11.7813 24.2734 11.8516 24.1797 11.8594 24.1094C11.875 24.0391 11.8359 23.9219 11.7813 23.8594C11.7266 23.7891 11.625 23.7422 11.5547 23.7422C11.4844 23.7422 11.3906 23.7969 11.3437 23.8594C11.2969 23.9297 11.2656 24.0391 11.2734 24.1094ZM32.6406 31.7734C32.4922 31.9766 32.1094 32.3828 31.7891 32.6797L31.2188 33.2109C31.5156 33.5 32.6797 34.5859 33.9922 35.8125C36.1563 37.8359 36.3984 38.0391 36.6484 38.0391C36.8307 38.0443 37.0312 37.9688 37.25 37.8125C37.4375 37.6797 37.6875 37.4219 37.8203 37.2422C37.9453 37.0547 38.0781 36.8203 38.1016 36.7109C38.125 36.6094 38.125 36.4453 38.1016 36.3594C38.0781 36.2734 37.0312 35.2344 35.7734 34.0547C34.5156 32.8672 33.3516 31.7891 33.1953 31.6484L32.9141 31.3984L32.6406 31.7734ZM1.25781 33.125H6.25781V34.375H1.25781V33.125ZM1.25781 35.625H14.3828V36.875H1.25781V35.625ZM31.2578 6.25H34.3828V7.5H31.2578V6.25ZM35.6328 6.25H38.7578V7.5H35.6328V6.25ZM31.2578 8.75H38.7578V10H31.2578V8.75ZM7.50781 33.125H14.3828V34.375H7.50781V33.125ZM26.1406 19.9766C26.4844 20 27.0234 20.0859 27.3516 20.1641C27.6719 20.2422 28.25 20.4609 28.6406 20.6562C29.0234 20.8437 29.5859 21.2031 29.8828 21.4531C30.1797 21.7031 30.6094 22.1562 30.8437 22.4609C31.0703 22.7578 31.375 23.25 31.5234 23.5547C31.6719 23.8516 31.875 24.3828 31.9688 24.7266C32.1172 25.2266 32.1484 25.5469 32.1484 26.3672C32.1484 27.0938 32.1094 27.5234 32.0078 27.8906C31.9375 28.1641 31.7891 28.6094 31.6797 28.8672C31.5781 29.125 31.375 29.5234 31.2344 29.75C31.0937 29.9844 30.75 30.4219 30.4766 30.7188C30.1953 31.0234 29.7578 31.4219 29.5 31.6016C29.2422 31.7891 28.7656 32.0625 28.4453 32.2109C28.1172 32.3594 27.6094 32.5469 27.3125 32.625C26.9141 32.7266 26.4766 32.7656 25.75 32.7656C24.9219 32.7656 24.6172 32.7344 24.1094 32.5859C23.7656 32.4922 23.2344 32.2891 22.9375 32.1484C22.6328 32 22.1406 31.6953 21.8438 31.4687C21.5469 31.2344 21.0937 30.8047 20.8437 30.5078C20.5703 30.1797 20.2266 29.6406 20 29.1797C19.7969 28.7422 19.5625 28.1172 19.4844 27.7734C19.3984 27.3594 19.3516 26.8516 19.3594 26.2891C19.3672 25.6875 19.4141 25.2422 19.5312 24.8047C19.625 24.4609 19.7969 23.9687 19.9141 23.7109C20.0312 23.4531 20.25 23.0625 20.3906 22.8516C20.5312 22.6328 20.8828 22.2188 21.1719 21.9219C21.4531 21.6328 21.875 21.2578 22.1172 21.0938C22.3516 20.9297 22.7188 20.7109 22.9375 20.6016C23.1484 20.4922 23.5703 20.3281 23.875 20.2344C24.1719 20.1484 24.6641 20.0391 24.9688 20C25.2656 19.9687 25.7969 19.9531 26.1406 19.9766V19.9766ZM24.1875 21.4531C23.9688 21.5234 23.5469 21.7031 23.25 21.8594C22.8906 22.0469 22.5 22.3438 22.1172 22.7344C21.7344 23.1172 21.4297 23.5078 21.2422 23.8672C21.0859 24.1641 20.9063 24.5781 20.8359 24.7813C20.7656 24.9844 20.6719 25.4297 20.625 25.7578C20.5625 26.1953 20.5625 26.5391 20.625 26.9922C20.6719 27.3359 20.7969 27.8594 20.9063 28.1641C21.0156 28.4609 21.25 28.9375 21.4297 29.2109C21.6172 29.4844 22.0078 29.9375 22.3125 30.2109C22.6641 30.5391 23.0781 30.8203 23.4844 31.0156C23.8281 31.1797 24.3828 31.3672 24.7109 31.4375C25.0469 31.5078 25.5391 31.5625 25.8047 31.5547C26.0781 31.5547 26.5391 31.5078 26.8438 31.4453C27.1406 31.3828 27.6719 31.1875 28.0156 31.0156C28.3594 30.8437 28.8203 30.5547 29.0391 30.375C29.2656 30.1875 29.5859 29.8594 29.7656 29.6484C29.9453 29.4297 30.2344 28.9766 30.3984 28.6328C30.6016 28.2344 30.7578 27.7578 30.8359 27.3438C30.9219 26.8984 30.9453 26.4688 30.9141 26.0547C30.8906 25.7109 30.7969 25.1797 30.7031 24.8828C30.6172 24.5781 30.4219 24.125 30.2813 23.8672C30.1406 23.6094 29.8203 23.1719 29.5625 22.8984C29.3125 22.625 28.875 22.25 28.6016 22.0703C28.3203 21.8906 27.8984 21.6641 27.6641 21.5781C27.4219 21.4844 27.0938 21.375 26.9219 21.3359C26.75 21.2969 26.375 21.2422 26.1016 21.2266C25.8203 21.2031 25.3594 21.2188 25.0859 21.2578C24.8047 21.2891 24.3984 21.3828 24.1875 21.4531V21.4531Z" fill="#617792"/>
</svg>
