<svg width="35" height="40" viewBox="0 0 35 40" fill="none" xmlns="http://www.w3.org/2000/svg">
<g clip-path="url(#clip0_1599_3408)">
<path fill-rule="evenodd" clip-rule="evenodd" d="M13.5152 36.797C13.5262 36.3057 15.0678 33.4306 15.312 32.9689C15.8947 33.3589 16.37 33.8287 16.9526 34.2189C16.8474 34.3762 16.7812 34.4519 16.6091 34.5786L14.0053 36.6638C13.7449 36.869 13.8339 36.8646 13.5152 36.797ZM13.984 0.000322882H15.2533C16.739 0.0358399 17.8005 0.339672 18.1189 2.42791C18.162 2.71011 18.1253 2.71915 18.4304 2.74127C19.5521 2.82248 19.9651 2.62471 20.8091 3.09693C21.2965 3.3696 21.8159 4.02214 21.9528 4.60963C23.5673 4.60963 25.1819 4.60963 26.7965 4.60963C27.7249 4.60963 28.2985 4.5373 28.9341 4.89377C29.3783 5.14287 29.8434 5.74989 29.8434 6.40647V11.5627C29.6684 11.6799 29.5689 11.8753 29.3745 11.8753C28.984 11.8753 29.0002 11.7829 28.6715 11.5627L28.6749 6.71563C28.6445 5.72164 27.8367 5.85951 27.109 5.85951V14.5313C27.109 15.5455 25.859 15.6972 25.859 14.7657V5.85951H22.0309C22.0309 6.90435 21.6423 7.73448 20.3903 7.73448H9.531C8.38655 7.73448 7.8123 7.01882 7.8123 5.85951H4.06234V35.3905C4.06234 35.7486 4.61625 35.6252 4.99983 35.6249H12.656C12.7484 35.2286 13.3239 34.2115 13.5417 33.7762C13.8589 33.1418 14.1448 32.5625 14.4516 31.9518C14.6217 31.6129 14.8209 31.4407 15.0466 31.1405C15.2581 30.8593 15.4317 30.6675 15.639 30.4047C16.7366 29.0134 17.8068 27.5732 18.965 26.2308C19.0972 26.0774 19.1182 26.0266 19.2397 25.8806L23.3449 20.7671C23.4062 20.6895 23.4266 20.6848 23.494 20.6038L30.0967 12.3627C32.3394 10.1364 35.2061 12.5995 34.1291 14.9109C33.8925 15.4189 33.4282 15.9166 33.0678 16.3495L21.2185 31.1405C20.5284 32.0582 19.7426 32.9057 19.0623 33.8281C18.2298 34.9567 17.4226 35.4105 17.2655 35.6249H24.2186C25.7914 35.6249 25.8698 35.8677 25.8601 35.0008L25.8593 28.0468C25.8593 26.9139 25.694 26.8073 26.1719 26.0937C26.7708 26.0937 27.1094 26.1971 27.1094 26.9531V35C27.1094 36.0214 26.7016 36.8034 25.626 36.8761C23.9201 36.9912 16.1134 36.7503 15.7032 36.8749C15.5905 36.9503 15.37 37.1092 15.2547 37.2077C15.1682 37.2816 15.1446 37.3279 15.0581 37.4016C13.6305 38.6154 12.4315 37.9267 12.344 36.8749H4.29708C3.52959 36.8749 2.81263 36.241 2.81263 35.4686V5.85951C2.26567 5.85951 1.2502 5.66965 1.2502 6.48445V38.1248C1.2502 38.6045 1.622 38.8279 2.10955 38.8279H27.8906C28.2619 38.8279 28.4881 38.6272 28.5883 38.3537C28.7992 37.7787 28.6718 25.8433 28.6718 24.1405C28.6718 23.3802 28.516 22.578 29.2967 22.578C29.6028 22.578 29.8435 22.8686 29.8435 23.203V38.2809C29.8435 39.1404 28.9842 39.9996 28.1248 39.9996H1.7187C0.73262 39.9996 0 38.9877 0 38.0465V6.6404C0 5.77782 0.435891 5.04407 1.17852 4.7722C2.05079 4.45287 6.73888 4.60931 7.96857 4.60931C7.9965 4.27448 8.26207 3.81082 8.45483 3.61128C9.80981 2.20981 10.8823 3.05737 11.7185 2.65619C11.8469 2.38868 11.775 2.45019 11.797 2.10971C11.8638 1.07019 12.8867 0 13.9842 0L13.984 0.000322882ZM17.8121 33.3594C17.6912 33.2784 17.4913 33.1316 17.3646 33.0257C17.0682 32.7779 16.1842 32.1273 16.0153 31.8751L17.7127 29.7444C17.8278 29.606 17.7963 29.6127 17.9114 29.4745L18.6855 28.5299C18.8392 28.335 18.9385 28.2068 19.093 27.9999C19.243 27.799 19.3176 27.7535 19.4838 27.5314C19.5744 27.4104 19.5781 27.4276 19.6656 27.3226L22.2337 24.1095C22.3901 23.9015 22.4523 23.8332 22.6087 23.6251L26.1142 19.2402C26.2624 19.0623 26.3537 18.9422 26.5027 18.7693L27.8696 17.0894C27.9881 16.9499 27.9482 16.9617 28.0674 16.8183C28.2989 16.5398 28.305 16.4688 28.5149 16.3283L29.4331 17.0506C29.7018 17.2824 30.1341 17.5475 30.3117 17.8128L28.4177 20.2155C28.3142 20.3355 28.3384 20.3193 28.2493 20.4378L20.0461 30.672C19.7701 31.0393 18.0431 33.2046 17.8118 33.3596L17.8121 33.3594ZM31.0932 16.797C30.8349 16.6239 29.5037 15.6222 29.2964 15.3127C29.4622 15.0652 29.6703 14.844 29.8432 14.6096L30.9944 13.1826C31.4105 12.7597 31.4126 12.7346 32.1089 12.7346C32.9211 12.7346 33.5415 13.8981 32.7932 14.747C32.4439 15.1432 31.4528 16.5564 31.0934 16.7971L31.0932 16.797ZM9.06218 6.17206C9.06218 5.39052 8.9101 4.12837 10.1593 3.98792C11.1446 3.87717 12.1982 4.32501 12.8142 3.12728C13.1332 2.50734 12.7687 1.17206 14.4527 1.17206C15.3222 1.17206 16.6023 1.00061 16.847 2.137C16.9481 2.60631 16.8499 2.67863 17.0408 3.11517C17.7944 4.83968 20.7807 3.0606 20.7807 5.15643C20.7807 6.04533 20.9066 6.48461 20.5463 6.48461H9.37456C9.2191 6.48461 9.06202 6.45409 9.06202 6.17206H9.06218Z" fill="#36D1C2"/>
<path fill-rule="evenodd" clip-rule="evenodd" d="M14.5311 20.6254H22.6561C22.851 20.6254 23.0145 20.5506 23.1225 20.4668C23.6346 20.0694 23.2725 19.3755 22.6561 19.3755H14.5311C13.6485 19.3755 13.6485 20.6255 14.5311 20.6255V20.6254Z" fill="#36D1C2"/>
<path fill-rule="evenodd" clip-rule="evenodd" d="M14.6869 12.2657H22.6556C23.507 12.2657 23.6265 11.0156 22.7337 11.0156H14.5307C13.7142 11.0156 13.5053 12.2657 14.687 12.2657H14.6869Z" fill="#36D1C2"/>
<path fill-rule="evenodd" clip-rule="evenodd" d="M14.5309 14.8438H22.7339C23.5735 14.8438 23.6422 13.5938 22.4995 13.5938H14.687C13.5053 13.5938 13.7142 14.8438 14.5307 14.8438H14.5309Z" fill="#36D1C2"/>
<path fill-rule="evenodd" clip-rule="evenodd" d="M8.75003 13.5938L7.60041 12.634C7.10769 12.2473 6.5625 12.3482 6.5625 13.0468C6.5625 13.4925 6.85358 13.5406 7.09154 13.7676C7.99658 14.6313 8.79346 15.5456 9.77922 14.2323C9.97601 13.9701 11.6406 11.6337 11.6406 11.4842V11.0154C10.9597 10.5593 10.9314 10.42 10.1241 11.6082L9.03029 13.1706C8.91776 13.3363 8.84738 13.4481 8.75003 13.5934V13.5938Z" fill="#36D1C2"/>
<path fill-rule="evenodd" clip-rule="evenodd" d="M8.75003 30.625C8.53111 30.4784 8.47041 30.3502 8.25021 30.1873C7.36583 29.5328 7.47012 29.0797 6.5625 29.6875C6.5625 30.6287 6.59818 30.3181 7.52081 31.1511C7.95832 31.5462 8.82655 32.5398 9.73579 31.2984C9.87107 31.1137 9.91789 31.0181 10.0569 30.8382L11.0467 29.4061C11.3032 29.0543 11.6406 28.7289 11.6406 28.2813C11.6406 27.7596 11.3085 27.7344 10.9376 27.7344C10.6168 27.7344 9.52656 29.4616 9.28181 29.8286C9.07582 30.1376 8.92923 30.2864 8.75003 30.625V30.625Z" fill="#36D1C2"/>
<path fill-rule="evenodd" clip-rule="evenodd" d="M8.74987 22.1875C8.40761 21.9582 7.51177 20.9796 7.18744 20.9374C6.7325 21.0435 6.86779 21.0454 6.5625 21.25C6.5625 22.2656 6.67519 21.874 7.52065 22.7136C8.92277 24.1062 9.43244 23.3631 10.4064 21.8907C10.6328 21.5485 10.8163 21.3173 11.0467 20.9686C11.3744 20.4726 11.6405 20.3277 11.6405 19.8437C11.6405 19.3219 11.3084 19.2969 10.9374 19.2969C10.6413 19.2969 9.60179 20.911 9.28165 21.3911C9.07565 21.7001 8.92907 21.8489 8.74987 22.1875Z" fill="#36D1C2"/>
<path fill-rule="evenodd" clip-rule="evenodd" d="M14.3746 23.2032H18.5933C19.3697 23.2032 19.6432 21.9531 18.2026 21.9531H14.9214C14.2084 21.9531 13.64 22.2466 13.9298 22.863C14.0689 23.1589 13.913 22.9408 14.1035 23.0835C14.2149 23.167 14.2142 23.2032 14.3746 23.2032Z" fill="#36D1C2"/>
</g>
<defs>
<clipPath id="clip0_1599_3408">
<rect width="34.3632" height="40" fill="white"/>
</clipPath>
</defs>
</svg>
