<svg width="54" height="50" viewBox="0 0 54 50" fill="none" xmlns="http://www.w3.org/2000/svg">
<g clip-path="url(#clip0_1599_3487)">
<path fill-rule="evenodd" clip-rule="evenodd" d="M21.3013 37.3826V37.0783H32.662L33.0682 40.5268C33.1079 41.251 33.4728 43.2044 33.4736 43.976H26.1703C24.965 43.976 24.8268 45.5897 26.2678 45.6027C28.4397 45.6224 35.7014 45.4306 36.8209 45.7002V48.1347C35.7741 48.3868 22.5122 48.236 20.2869 48.236C19.6694 48.236 18.0412 48.321 17.5434 48.2406C17.0398 48.1593 17.2438 46.7456 17.2438 45.7001C18.0919 45.4957 20.8345 45.593 22.0124 45.5998C22.7167 45.6039 22.814 45.6342 23.2371 45.0828C23.1782 43.5233 21.8255 43.9758 20.4898 43.9758L21.0958 39.1044C21.1424 38.5927 21.3011 37.8332 21.3011 37.3824L21.3013 37.3826ZM53.9633 2.52267V5.53189C53.399 5.90087 53.5721 5.83612 52.8475 5.83612C52.5713 5.4184 52.4096 5.52049 52.3448 4.91864C52.2163 3.72507 52.7368 2.19912 51.4743 1.83327C50.856 1.65411 8.38333 1.77864 3.95577 1.77864C1.66832 1.77864 1.6227 1.85902 1.6227 4.72036V31.0935C1.6227 32.373 1.17665 35.083 2.75502 35.3374C3.59488 35.4727 45.5748 35.3495 50.2102 35.3537C52.7828 35.3561 52.3404 34.4228 52.3404 32.2093C52.3404 29.6013 52.2038 9.35485 52.4123 8.54534C52.7469 7.24637 53.829 8.1817 53.9633 8.27054V8.64927V9.028V9.40672V9.78545V10.1642V10.5429V10.9216V11.3004V11.6791V12.0578V12.4365V12.8153V13.194V13.5727V13.9515V14.3302V14.7089V15.0876V15.4664V15.8451V16.2238V16.6026V16.9813V17.36V17.7387V18.1175V18.4962V18.8749V19.2537V19.6324V20.0111V20.3898V20.7686V21.1473V21.526V21.9047V22.2835V22.6622V23.0409V23.4197V23.7984V24.1771V24.5558V24.9346V25.3133V25.692V26.0708V26.4495V26.8282V27.2069V27.5857V27.9644V28.3431V28.7219V29.1006V29.4793V29.858V30.2368V30.6155V30.9942V31.3729V31.7517V32.1304V32.5091V34.7077C53.9256 34.9393 53.8631 35.1575 53.7632 35.3521C52.5705 37.678 49.5554 37.0737 46.457 37.0737C42.4334 37.0737 38.4099 37.0737 34.3863 37.0737C34.3863 38.1709 35.1978 43.0291 35.1978 43.9714C36.3972 43.9714 37.1001 43.7632 37.8627 44.4511C38.5828 45.1008 38.5456 45.8555 38.5453 46.8116C38.5444 49.2477 38.2008 49.9564 35.5022 49.956C33.8825 49.9558 17.8173 50.0838 17.0146 49.8811C16.2408 49.6858 15.6171 49.0238 15.5258 48.2255C15.4545 47.6012 15.4167 45.8054 15.6165 45.2855C15.9437 44.4333 16.4273 43.9806 17.4434 43.9677C19.305 43.9442 18.6829 44.3457 19.0523 42.1204L19.2081 40.5669C19.2141 40.5354 19.2263 40.5139 19.2325 40.4823C19.3151 40.0572 19.4672 37.5321 19.6786 37.0737C14.8098 37.0737 9.94074 37.0737 5.0719 37.0737C2.88028 37.0737 0.731337 37.2402 0.0603316 34.7819C0.0349482 34.6888 0.0152668 34.1756 0 33.3521V5.83171V2.56166C0.112754 1.88183 0.422873 1.33443 1.191 0.631234C2.05514 -0.159882 3.87594 0.0498067 5.07172 0.0498067C18.3598 0.0498067 31.6476 0.0498067 44.9356 0.0498067C46.2512 0.0498067 51.2168 -0.150502 52.0697 0.219029C53.3751 0.784638 53.8263 1.54908 53.9633 2.51807V2.52267Z" fill="#36D1C2"/>
<path fill-rule="evenodd" clip-rule="evenodd" d="M5.07166 5.22755H48.8915V31.905H5.07166C5.07166 31.2566 5.15701 16.5158 5.01703 16.0343C4.89545 15.6162 4.80477 15.7343 4.56454 15.371C2.9801 15.371 3.34724 16.1485 3.34724 19.2256V31.905C3.34504 34.2757 3.84314 33.6294 9.33184 33.6294C21.3012 33.6294 33.2706 33.6294 45.2398 33.6294C46.113 33.6294 49.6435 33.8004 50.1852 33.503C50.8074 33.1614 50.6158 32.3643 50.6158 31.3979V5.73485C50.6158 2.97265 51.1398 3.50331 45.1383 3.50331C33.2027 3.50331 21.2672 3.50331 9.33166 3.50331C7.74115 3.50331 5.68638 3.38798 4.15418 3.50037C3.20138 3.57027 3.34669 4.44305 3.34706 5.22773C3.34761 6.50113 3.23854 12.4434 3.44289 12.8409C3.79789 13.5311 4.67049 13.4847 4.96387 12.8293C5.1868 12.3316 5.07129 6.04828 5.07129 5.22773L5.07166 5.22755Z" fill="#36D1C2"/>
<path fill-rule="evenodd" clip-rule="evenodd" d="M23.1272 24.3987C22.6633 25.0999 21.3732 25.9065 20.559 26.2938C20.0186 26.551 19.4549 26.7169 18.9062 26.8725C17.6057 27.2415 16.0581 27.1964 14.7948 26.8633C14.7718 26.8572 14.7455 26.8486 14.7229 26.842C14.7004 26.8353 14.6745 26.8254 14.6519 26.8182L14.0865 26.6444C13.858 26.5699 13.5004 26.4233 13.2869 26.3268C12.5112 25.9762 11.0818 25.0506 10.6505 24.3985C10.6731 23.3293 11.8091 21.8786 12.552 21.127C13.8323 19.8317 15.7108 19.9105 15.0183 18.6109C14.7738 18.1522 13.1658 17.1955 13.8562 14.925C14.7032 12.1394 18.9102 11.9112 19.8698 14.875C20.9968 18.3558 16.7396 18.6319 19.5768 20.0368C21.3001 20.8901 22.9765 22.7085 23.127 24.3985L23.1272 24.3987ZM12.8561 18.7938C11.1815 20.1078 10.6667 20.2375 9.53455 22.3737L9.35815 22.6484C8.62295 21.7184 8.19051 19.4243 8.21277 18.2077C8.25287 16.0137 9.4251 13.4279 11.1826 12.0473C11.1983 12.035 11.2216 12.0162 11.2367 12.0035L11.5455 11.7087C14.0763 9.53691 18.3889 9.29632 21.2611 11.0498C21.9364 11.462 22.2927 11.7802 22.8848 12.2636L24.1635 13.8276C25.4174 15.7936 25.8228 18.5798 25.2175 20.7075C25.0935 21.1434 24.7015 22.4199 24.3443 22.6745C22.6624 19.354 21.8654 19.7405 20.9216 18.794C21.0211 18.2322 22.6515 16.3886 21.1679 13.5775C20.1685 11.6838 17.7814 10.5484 15.5375 11.2304C12.7421 12.0802 11.2264 15.2327 12.2835 17.6946C12.4159 18.003 12.7932 18.438 12.8563 18.794L12.8561 18.7938ZM15.6209 8.37148C15.5879 8.37865 15.3262 8.27363 15.3122 8.27215C15.2315 8.26388 15.1104 8.26921 15.0295 8.2819C14.1586 8.41912 12.6582 9.09748 11.8007 9.5222C8.29701 11.2576 6.0206 15.8888 6.61564 19.8117C7.21748 23.7798 9.82885 26.9893 13.6542 28.2927C15.3291 28.8634 16.3472 28.8943 18.1544 28.758C20.1546 28.607 22.6271 27.3254 24.1508 25.8281C26.2894 23.7268 27.664 20.1954 27.1436 17.2375C26.7068 14.7536 25.5763 12.0909 23.4925 10.5423C21.7061 9.21484 20.2857 8.58135 18.1186 8.20704C17.7253 8.13917 17.2601 8.16933 16.838 8.16896C15.1176 8.16786 15.853 8.32071 15.6209 8.3713V8.37148Z" fill="#36D1C2"/>
<path fill-rule="evenodd" clip-rule="evenodd" d="M29.2133 21.4574C34.0485 21.4574 38.8835 21.4574 43.7185 21.4574C44.8994 21.4574 46.5208 21.81 46.3593 20.4478C46.3148 20.0733 46.0753 19.9155 45.7472 19.8345C44.7796 19.596 33.3181 19.733 31.3435 19.733C30.949 19.733 30.5134 19.7143 30.1249 19.7269L29.105 19.9276C28.1368 20.4064 29.2126 21.4561 29.2133 21.4574V21.4574Z" fill="#36D1C2"/>
<path fill-rule="evenodd" clip-rule="evenodd" d="M29.2134 12.9368L45.2427 12.9392C46.253 12.9413 46.356 12.6593 46.356 11.7195C46.0724 11.5319 45.9815 11.2991 45.6297 11.2286C45.3629 11.1753 44.641 11.2122 44.3274 11.2122H31.648C30.9113 11.2122 29.8388 11.0515 29.2399 11.3427C28.9581 11.4797 28.712 11.803 28.7114 12.1259C28.7109 12.4801 29.0315 12.6613 29.2138 12.9367L29.2134 12.9368Z" fill="#36D1C2"/>
<path fill-rule="evenodd" clip-rule="evenodd" d="M37.8353 15.9799C37.5001 15.7583 37.4694 15.5326 37.0201 15.4765L30.2269 15.4726C29.7413 15.4695 29.6202 15.4165 29.2187 15.5953C28.583 15.8784 29.724 15.2585 29.0866 15.6597C28.7988 15.8408 28.6307 16.2884 28.7636 16.6248C29.0741 17.41 30.1367 17.1972 30.8362 17.1972H36.3139C37.4849 17.2014 37.8353 17.2408 37.8353 15.9799Z" fill="#36D1C2"/>
<path fill-rule="evenodd" clip-rule="evenodd" d="M29.2133 25.7176H35.9081C37.0636 25.7176 36.9378 25.9058 37.8354 25.3118V24.5003C36.8214 23.8295 37.5801 23.9932 35.401 23.9932L29.5338 24.0138C29.1453 24.0793 28.8589 24.2595 28.7377 24.7448C28.617 25.2272 28.9825 25.3683 29.2135 25.7176H29.2133Z" fill="#36D1C2"/>
</g>
<defs>
<clipPath id="clip0_1599_3487">
<rect width="53.9636" height="50" fill="white"/>
</clipPath>
</defs>
</svg>
