<svg width="38" height="40" viewBox="0 0 38 40" fill="none" xmlns="http://www.w3.org/2000/svg">
<g clip-path="url(#clip0_1599_3357)">
<path fill-rule="evenodd" clip-rule="evenodd" d="M22.6754 2.33424L25.697 5.31484C22.2489 5.33537 22.6754 5.76186 22.6754 2.33424V2.33424ZM0 3.08459V32.9295C0 34.4673 1.54662 36.0141 3.08445 36.0141H12.1713C12.726 35.1858 12.726 35.5084 12.1713 34.6802C10.8385 34.6802 3.52689 34.8513 2.59165 34.5061C2.23673 34.3751 1.93462 34.1217 1.71516 33.7985C1.48679 33.4624 1.33377 33.0359 1.33377 32.5126V3.50136C1.33377 2.20756 2.20743 1.33391 3.50123 1.33391H20.9246C21.1497 1.33391 21.1544 1.37375 21.3413 1.41724C21.3413 2.50913 21.2691 3.861 21.3397 4.92022C21.3971 5.78145 22.2627 6.66928 23.1755 6.66928H26.5935C26.7128 8.10205 26.6768 8.13797 26.6768 9.67041L26.6748 17.342C26.6693 18.7302 28.0108 18.3749 28.0108 17.5901C28.0108 16.0245 28.1562 6.89427 27.8927 6.12043C27.8379 5.95931 27.7254 5.66922 27.6461 5.53335C27.174 4.72426 24.2822 1.98283 23.4464 1.14632C22.9136 0.613001 22.2005 0 21.1748 0H3.08445C1.54662 0 0 1.54662 0 3.08459H0Z" fill="#617792"/>
<path fill-rule="evenodd" clip-rule="evenodd" d="M14.5057 38.1814V38.2647L14.4085 38.1952L14.5057 38.1813V38.1814ZM14.5057 38.1814C14.5591 37.541 15.5357 35.3265 15.5895 34.68C15.8992 34.7627 16.0247 34.99 16.2358 35.2009C16.5673 35.5326 17.9174 36.7613 18.0072 37.0976C17.3668 37.1509 15.1524 38.1275 14.5059 38.1814H14.5057ZM19.3617 36.368L16.3194 33.3668L21.3212 28.3237L24.3636 31.3249L19.3618 36.368H19.3617ZM25.3434 30.3451L22.3218 27.3645C22.6 26.9598 29.202 20.4428 30.0746 19.5703C31.5781 18.0667 31.2444 18.1996 33.534 20.4873C34.627 21.5793 34.1067 21.6235 32.0335 23.6966C31.2768 24.4533 30.5811 25.1493 29.8244 25.906C29.4178 26.3126 25.6901 30.113 25.3434 30.3451V30.3451ZM32.9928 18.0273C33.1762 17.7634 33.8501 17.0729 34.0952 16.9216C35.5378 16.0316 37.1403 18.027 34.6804 19.6743L32.9928 18.0273ZM31.7626 17.2567C31.2611 17.215 31.3034 17.1441 30.7279 17.3057C30.0669 17.4914 29.1858 18.5412 28.6155 19.1115L15.0685 32.6583C14.7602 32.9623 14.7141 33.0123 14.5568 33.4805C14.291 34.2711 12.6719 38.934 12.6719 39.3486C12.6719 40.5838 14.4393 39.7184 15.0166 39.526C15.5997 39.3316 16.1057 39.1628 16.7047 38.9632C17.3082 38.762 17.7891 38.6017 18.3927 38.4004C18.9893 38.2015 19.5556 38.0951 19.9467 37.7036C20.7311 36.9185 32.9275 24.6234 33.3465 24.3429C34.0851 24.8374 34.2076 25.382 33.6353 26.0489L33.5582 26.1385C33.5471 26.1516 33.5308 26.1701 33.5197 26.1834L29.9494 29.7824C29.6929 30.0388 29.4975 30.2348 29.2409 30.4911C29.0078 30.7241 28.6781 30.9272 28.6781 31.3456C28.6781 31.7489 28.9417 32.0125 29.345 32.0125C29.7696 32.0125 30.0023 31.6473 30.2412 31.4081L34.9325 26.6791C35.4643 25.9266 35.4995 24.8905 35.0146 24.0919C34.8428 23.809 34.5452 23.6386 34.3469 23.3424C34.6989 22.8169 35.7554 22.3187 35.4307 20.9248C36.1957 19.7826 37.3481 19.7218 37.3481 17.7569C37.3481 16.4236 36.2075 15.3394 34.7637 15.3394C33.1284 15.3394 32.6925 16.634 31.7626 17.2568V17.2567Z" fill="#617792"/>
<path fill-rule="evenodd" clip-rule="evenodd" d="M12.6712 16.6733H15.3388V21.3417H12.6712V16.6733ZM11.2539 16.0897V21.3417H8.66956V13.9223C8.97829 13.759 9.06986 13.6459 9.35036 13.4361C9.58184 13.2628 9.79252 13.1167 10.0186 12.9372C10.1595 12.8252 10.1882 12.7805 10.3364 12.6714C10.4612 12.5794 10.5453 12.5138 10.6704 12.4218L11.9902 11.4076C12.2384 11.2219 12.395 11.0909 12.6483 10.8986C14.4375 9.53981 13.5428 9.58411 15.9713 11.3727C16.2246 11.5592 16.3872 11.6807 16.6395 11.8716L18.9 13.6126C19.11 13.7917 18.9516 13.7576 19.257 13.8392V21.3422H16.6726V16.0068C16.6726 15.6035 16.409 15.3399 16.0057 15.3399H11.9208C11.4435 15.3399 11.2539 15.7527 11.2539 16.0902V16.0897ZM7.08567 13.422C6.88728 13.2767 6.4643 12.6653 6.33532 12.4217C6.6585 12.2053 6.94427 11.946 7.27515 11.6942L9.15453 10.239C9.47528 9.98427 9.79671 9.7929 10.1072 9.52428C10.8785 8.85699 12.6235 7.66326 13.4004 6.98192C13.8321 6.60337 14.1139 6.5607 14.5673 6.94087L15.9713 8.03776C16.152 8.17092 16.27 8.26425 16.4455 8.39727L21.1971 12.0654C21.4553 12.2797 21.474 12.2052 21.6747 12.5049L20.9243 13.4219C20.6187 13.2173 20.4181 13.047 20.1135 12.8155L16.3386 9.92106C15.988 9.66271 14.3786 8.33663 14.1717 8.33663C13.6774 8.33663 13.615 8.35392 12.9842 8.8998L7.94204 12.7778C7.62345 13.0202 7.40656 13.207 7.08567 13.4219V13.422ZM4.6681 12.1716C4.6681 12.5386 4.65622 12.5619 4.85542 12.8179L6.33343 14.758C6.55681 15.0667 6.87445 15.2274 7.33579 15.006V21.2584C7.33552 22.0092 7.24193 22.6757 8.00268 22.6757H20.0073C20.7219 22.6757 20.6749 21.9795 20.6742 21.2584V15.006C21.3777 15.3435 21.7137 14.7461 22.2586 14.0061C23.5746 12.2198 23.8502 12.3246 22.3275 11.1852L19.4918 9.01892C19.2951 8.86266 19.1449 8.72909 18.9374 8.57284L17.8054 7.70405C17.3907 7.39667 17.0641 7.12427 16.6726 6.83607C15.0984 5.67813 14.3431 4.57665 12.4701 5.96809C10.058 7.75996 7.52513 9.83828 5.11796 11.621C4.95752 11.7398 4.66797 11.9514 4.66797 12.1714L4.6681 12.1716Z" fill="#617792"/>
<path fill-rule="evenodd" clip-rule="evenodd" d="M4.00195 30.0116C4.00195 30.4149 4.26557 30.6785 4.66884 30.6785H14.6727C15.5675 30.6785 15.5675 29.3447 14.6727 29.3447H4.66884C4.26557 29.3447 4.00195 29.6083 4.00195 30.0116V30.0116Z" fill="#617792"/>
<path fill-rule="evenodd" clip-rule="evenodd" d="M10.6709 26.0101C10.6709 26.4134 10.9345 26.677 11.3378 26.677H18.674C19.5688 26.677 19.5688 25.3433 18.674 25.3433H11.3378C10.9345 25.3433 10.6709 25.6069 10.6709 26.0101V26.0101Z" fill="#617792"/>
<path fill-rule="evenodd" clip-rule="evenodd" d="M4.00195 26.0101C4.00195 26.4134 4.26557 26.677 4.66884 26.677H8.67043C9.56529 26.677 9.56529 25.3433 8.67043 25.3433H4.66884C4.26557 25.3433 4.00195 25.6069 4.00195 26.0101V26.0101Z" fill="#617792"/>
</g>
<defs>
<clipPath id="clip0_1599_3357">
<rect width="37.348" height="40" fill="white"/>
</clipPath>
</defs>
</svg>
