<svg width="70" height="70" viewBox="0 0 70 70" fill="none" xmlns="http://www.w3.org/2000/svg">
<g clip-path="url(#clip0_1599_897)">
<path d="M1.16692 54.8333C1.81099 54.8333 2.3333 54.311 2.3333 53.667V51.3331C2.3333 50.6891 1.81099 50.1667 1.16692 50.1667C0.522308 50.1667 0 50.6891 0 51.3331V53.667C0 54.311 0.522308 54.8333 1.16692 54.8333Z" fill="#617792"/>
<path d="M5.8333 54.8333V50.1667C5.8333 49.5221 5.31099 48.9998 4.66638 48.9998C4.02231 48.9998 3.5 49.5221 3.5 50.1667V54.8333C3.5 55.4779 4.02231 56.0002 4.66638 56.0002C5.31099 56.0002 5.8333 55.4779 5.8333 54.8333Z" fill="#617792"/>
<path d="M19.8333 54.8333V50.1667C19.8333 49.5221 19.311 48.9998 18.6669 48.9998C18.0223 48.9998 17.5 49.5221 17.5 50.1667V54.8333C17.5 55.4779 18.0223 56.0002 18.6669 56.0002C19.311 56.0002 19.8333 55.4779 19.8333 54.8333Z" fill="#617792"/>
<path d="M10.4993 57.1666V47.8334C10.4993 47.1888 9.97701 46.6665 9.3324 46.6665C8.68832 46.6665 8.16602 47.1888 8.16602 47.8334V57.1666C8.16602 57.8112 8.68832 58.3335 9.3324 58.3335C9.97701 58.3335 10.4993 57.8112 10.4993 57.1666Z" fill="#617792"/>
<path d="M15.1673 57.1666V47.8334C15.1673 47.1888 14.645 46.6665 14.0004 46.6665C13.3563 46.6665 12.834 47.1888 12.834 47.8334V57.1666C12.834 57.8112 13.3563 58.3335 14.0004 58.3335C14.645 58.3335 15.1673 57.8112 15.1673 57.1666Z" fill="#617792"/>
<path d="M24.4993 59.4998V45.5C24.4993 44.8554 23.977 44.3331 23.3329 44.3331C22.6883 44.3331 22.166 44.8554 22.166 45.5V59.4998C22.166 60.1444 22.6883 60.6667 23.3329 60.6667C23.977 60.6667 24.4993 60.1444 24.4993 59.4998Z" fill="#617792"/>
<path d="M29.1673 61.8332V43.1668C29.1673 42.5222 28.645 41.9999 28.0009 41.9999C27.3563 41.9999 26.834 42.5222 26.834 43.1668V61.8332C26.834 62.4778 27.3563 63.0001 28.0009 63.0001C28.645 63.0001 29.1673 62.4778 29.1673 61.8332Z" fill="#617792"/>
<path d="M33.8333 68.8331V36.1669C33.8333 35.5223 33.311 35 32.6669 35C32.0223 35 31.5 35.5223 31.5 36.1669V68.8331C31.5 69.4777 32.0223 70 32.6669 70C33.311 70 33.8333 69.4777 33.8333 68.8331Z" fill="#617792"/>
<path d="M68.8324 50.1667C68.1883 50.1667 67.666 50.6891 67.666 51.3331V53.667C67.666 54.311 68.1883 54.8333 68.8324 54.8333C69.477 54.8333 69.9993 54.311 69.9993 53.667V51.3331C69.9993 50.6891 69.477 50.1667 68.8324 50.1667Z" fill="#617792"/>
<path d="M66.4993 54.8333V50.1667C66.4993 49.5221 65.977 48.9998 65.3329 48.9998C64.6883 48.9998 64.166 49.5221 64.166 50.1667V54.8333C64.166 55.4779 64.6883 56.0002 65.3329 56.0002C65.977 56.0002 66.4993 55.4779 66.4993 54.8333Z" fill="#617792"/>
<path d="M52.4993 54.8333V50.1667C52.4993 49.5221 51.977 48.9998 51.3324 48.9998C50.6883 48.9998 50.166 49.5221 50.166 50.1667V54.8333C50.166 55.4779 50.6883 56.0002 51.3324 56.0002C51.977 56.0002 52.4993 55.4779 52.4993 54.8333Z" fill="#617792"/>
<path d="M61.8333 57.1666V47.8334C61.8333 47.1888 61.311 46.6665 60.6669 46.6665C60.0223 46.6665 59.5 47.1888 59.5 47.8334V57.1666C59.5 57.8112 60.0223 58.3335 60.6669 58.3335C61.311 58.3335 61.8333 57.8112 61.8333 57.1666Z" fill="#617792"/>
<path d="M57.1673 57.1666V47.8334C57.1673 47.1888 56.645 46.6665 56.0009 46.6665C55.3563 46.6665 54.834 47.1888 54.834 47.8334V57.1666C54.834 57.8112 55.3563 58.3335 56.0009 58.3335C56.645 58.3335 57.1673 57.8112 57.1673 57.1666Z" fill="#617792"/>
<path d="M47.8333 59.4998V45.5C47.8333 44.8554 47.311 44.3331 46.6664 44.3331C46.0223 44.3331 45.5 44.8554 45.5 45.5V59.4998C45.5 60.1444 46.0223 60.6667 46.6664 60.6667C47.311 60.6667 47.8333 60.1444 47.8333 59.4998Z" fill="#617792"/>
<path d="M43.1673 61.8332V43.1668C43.1673 42.5222 42.645 41.9999 42.0004 41.9999C41.3563 41.9999 40.834 42.5222 40.834 43.1668V61.8332C40.834 62.4778 41.3563 63.0001 42.0004 63.0001C42.645 63.0001 43.1673 62.4778 43.1673 61.8332Z" fill="#617792"/>
<path d="M38.4993 68.8331V36.1669C38.4993 35.5223 37.977 35 37.3324 35C36.6883 35 36.166 35.5223 36.166 36.1669V68.8331C36.166 69.4777 36.6883 70 37.3324 70C37.977 70 38.4993 69.4777 38.4993 68.8331Z" fill="#617792"/>
<path d="M62.9994 0H39.6659C35.802 0.00427246 32.6703 3.13599 32.666 6.99989V23.3335C32.6703 27.1974 35.802 30.3291 39.6659 30.3334H41.6985L40.8419 37.1886C40.7842 37.65 41.0059 38.1018 41.4064 38.3379C41.8069 38.5744 42.3095 38.5504 42.686 38.2764L53.6075 30.3334H62.9994C66.8633 30.3291 69.995 27.1974 69.9993 23.3335V6.99989C69.995 3.13599 66.8633 0.00427246 62.9994 0ZM67.666 23.3335C67.6633 25.9098 65.5757 27.9974 62.9994 28.0001H55.9787C55.9867 27.7555 55.9157 27.5152 55.7758 27.3144C55.5942 27.0634 55.3202 26.8951 55.0147 26.8471C54.7087 26.7985 54.3963 26.8743 54.1463 27.0564L43.4914 34.8061L44.3234 28.1448C44.3811 27.7283 44.2102 27.3133 43.8759 27.058C43.5416 26.8027 43.0962 26.7472 42.7095 26.9122C42.3234 27.0773 42.0553 27.4377 42.0083 27.8554L41.9901 28.0001H39.6659C37.0896 27.9974 35.002 25.9098 34.9993 23.3335V6.99989C35.002 4.4236 37.0896 2.33597 39.6659 2.3333H62.9994C65.5757 2.33597 67.6633 4.4236 67.666 6.99989V23.3335Z" fill="#617792"/>
<path d="M41.9997 11.6665C40.0669 11.6665 38.5 13.2334 38.5 15.1667C38.5 17.0995 40.0669 18.6669 41.9997 18.6669C43.933 18.6669 45.4999 17.0995 45.4999 15.1667C45.4978 13.2345 43.9319 11.6686 41.9997 11.6665ZM41.9997 16.3331C41.3556 16.3331 40.8333 15.8108 40.8333 15.1667C40.8333 14.5221 41.3556 13.9998 41.9997 13.9998C42.6443 13.9998 43.1666 14.5221 43.1666 15.1667C43.1661 15.8108 42.6438 16.3326 41.9997 16.3331Z" fill="#617792"/>
<path d="M51.3337 11.6665C49.4009 11.6665 47.834 13.2334 47.834 15.1667C47.834 17.0995 49.4009 18.6669 51.3337 18.6669C53.267 18.6669 54.8339 17.0995 54.8339 15.1667C54.8317 13.2345 53.2659 11.6686 51.3337 11.6665ZM51.3337 16.3331C50.6896 16.3331 50.1673 15.8108 50.1673 15.1667C50.1673 14.5221 50.6896 13.9998 51.3337 13.9998C51.9783 13.9998 52.5006 14.5221 52.5006 15.1667C52.5 15.8108 51.9783 16.3326 51.3337 16.3331Z" fill="#617792"/>
<path d="M60.6662 11.6665C58.7329 11.6665 57.166 13.2334 57.166 15.1667C57.166 17.0995 58.7329 18.6669 60.6662 18.6669C62.599 18.6669 64.1659 17.0995 64.1659 15.1667C64.1638 13.2345 62.5984 11.6686 60.6662 11.6665ZM60.6662 16.3331C60.0216 16.3331 59.4993 15.8108 59.4993 15.1667C59.4993 14.5221 60.0216 13.9998 60.6662 13.9998C61.3103 13.9998 61.8326 14.5221 61.8326 15.1667C61.8321 15.8108 61.3103 16.3326 60.6662 16.3331Z" fill="#617792"/>
</g>
<defs>
<clipPath id="clip0_1599_897">
<rect width="70" height="70" fill="white"/>
</clipPath>
</defs>
</svg>
