<svg width="70" height="70" viewBox="0 0 70 70" fill="none" xmlns="http://www.w3.org/2000/svg">
<path d="M58.8353 45.5269H53.1464C52.5424 45.5269 52.0527 46.0166 52.0527 46.6206V62.7891C52.0527 63.3931 52.5424 63.8829 53.1464 63.8829H58.8353C59.4393 63.8829 59.929 63.3931 59.929 62.7891V46.6206C59.929 46.0166 59.4393 45.5269 58.8353 45.5269ZM57.7415 61.6952H54.2402V47.7144H57.7415V61.6952ZM48.9009 40.8042H43.212C42.608 40.8042 42.1183 41.2939 42.1183 41.898V62.7891C42.1183 63.3931 42.608 63.8829 43.212 63.8829H48.9009C49.5049 63.8829 49.9946 63.3931 49.9946 62.7891V41.898C49.9946 41.2939 49.5049 40.8042 48.9009 40.8042ZM47.8071 61.6952H44.3058V42.9917H47.8071V61.6952ZM38.9665 51.7859H33.2776C32.6736 51.7859 32.1839 52.2756 32.1839 52.8796V62.789C32.1839 63.393 32.6736 63.8827 33.2776 63.8827H38.9665C39.5705 63.8827 40.0602 63.393 40.0602 62.789V52.8796C40.0602 52.2756 39.5705 51.7859 38.9665 51.7859ZM37.8727 61.6952H34.3714V53.9734H37.8727V61.6952ZM68.7695 36.3547H63.0807C62.4766 36.3547 61.9869 36.8444 61.9869 37.4484V62.7891C61.9869 63.3931 62.4766 63.8829 63.0807 63.8829H68.7695C69.3736 63.8829 69.8633 63.3931 69.8633 62.7891V37.4484C69.8633 36.8444 69.3737 36.3547 68.7695 36.3547ZM67.6758 61.6952H64.1744V38.5422H67.6758V61.6952ZM55.8828 37.0377L63.5473 29.9612L62.1127 29.8936C61.5092 29.8652 61.0431 29.353 61.0716 28.7496C61.1 28.1462 61.612 27.6806 62.2156 27.7086L66.4033 27.9059C66.7183 27.9206 67.0115 28.0708 67.2078 28.3175C67.4041 28.5643 67.4842 28.8838 67.4279 29.1939L66.6786 33.3187C66.5826 33.8469 66.1221 34.2171 65.6037 34.2171C65.5387 34.2171 65.473 34.2113 65.4069 34.1993C64.8126 34.0913 64.4185 33.522 64.5263 32.9277L64.7213 31.8545L56.7327 39.2303C56.3609 39.5736 55.8023 39.6169 55.3819 39.3353L46.2986 33.2483L36.989 45.3524C36.7735 45.6326 36.4492 45.7794 36.1212 45.7794C35.8885 45.7794 35.6541 45.7054 35.4551 45.5526C34.9763 45.1844 34.8868 44.4977 35.255 44.0189L45.1894 31.1025C45.5409 30.6457 46.1865 30.54 46.6653 30.8606L55.8828 37.0377ZM26.9667 42.224C26.9667 42.828 26.477 43.3178 25.8729 43.3178H12.0192C11.4152 43.3178 10.9255 42.828 10.9255 42.224C10.9255 41.62 11.4152 41.1303 12.0192 41.1303H25.8729C26.477 41.1303 26.9667 41.62 26.9667 42.224ZM26.9667 37.5317C26.9667 38.1357 26.477 38.6254 25.8729 38.6254H12.0192C11.4152 38.6254 10.9255 38.1357 10.9255 37.5317C10.9255 36.9277 11.4152 36.4379 12.0192 36.4379H25.8729C26.477 36.4379 26.9667 36.9277 26.9667 37.5317ZM14.0633 5.60254C6.38422 5.60254 0.136719 11.8499 0.136719 19.529C0.136719 27.2081 6.38408 33.4553 14.0632 33.4553C21.7422 33.4553 27.9896 27.2081 27.9896 19.529C27.9896 11.8499 21.7424 5.60254 14.0633 5.60254ZM9.77115 19.529C9.77115 17.1622 11.6966 15.2367 14.0633 15.2367C16.43 15.2367 18.3554 17.1622 18.3554 19.529C18.3554 21.8957 16.43 23.8211 14.0633 23.8211C11.6966 23.8211 9.77115 21.8957 9.77115 19.529ZM2.32422 19.529C2.32422 13.425 7.00766 8.39639 12.9694 7.84268V13.1434C9.9158 13.665 7.58352 16.3288 7.58352 19.529C7.58352 21.2493 8.25877 22.8141 9.35648 23.9754L6.17367 28.214C3.81021 26.0652 2.32422 22.9675 2.32422 19.529ZM14.0633 31.2679C11.8135 31.2679 9.71018 30.6305 7.9223 29.5286L11.1044 25.2909C11.9921 25.7486 12.9976 26.0088 14.0632 26.0088C16.3334 26.0088 18.3333 24.8342 19.4909 23.0619L24.359 25.1621C22.362 28.7976 18.496 31.2679 14.0633 31.2679ZM25.2268 23.1538L20.3599 21.0542C20.4784 20.5648 20.5429 20.0544 20.5429 19.529C20.5429 16.3289 18.2107 13.665 15.1569 13.1434V7.84281C21.1187 8.39639 25.8021 13.425 25.8021 19.5291C25.8021 20.7938 25.5987 22.0114 25.2268 23.1538ZM33.7166 13.5346C33.7166 12.9305 34.2063 12.4408 34.8104 12.4408H52.6863C53.2904 12.4408 53.7801 12.9305 53.7801 13.5346C53.7801 14.1386 53.2904 14.6283 52.6863 14.6283H34.8104C34.2062 14.6283 33.7166 14.1386 33.7166 13.5346ZM33.7166 19.529C33.7166 18.925 34.2063 18.4352 34.8104 18.4352H52.6863C53.2904 18.4352 53.7801 18.925 53.7801 19.529C53.7801 20.133 53.2904 20.6227 52.6863 20.6227H34.8104C34.2062 20.6227 33.7166 20.133 33.7166 19.529ZM33.7166 25.5236C33.7166 24.9195 34.2063 24.4298 34.8104 24.4298H52.6863C53.2904 24.4298 53.7801 24.9195 53.7801 25.5236C53.7801 26.1276 53.2904 26.6173 52.6863 26.6173H34.8104C34.2062 26.6173 33.7166 26.1276 33.7166 25.5236ZM6.95187 35.9233H1.23047C0.626445 35.9233 0.136719 36.4131 0.136719 37.0171V42.7386C0.136719 43.3427 0.626445 43.8324 1.23047 43.8324H6.95201C7.55604 43.8324 8.04576 43.3427 8.04576 42.7386V37.0171C8.04562 36.4131 7.55604 35.9233 6.95187 35.9233ZM5.85812 41.6449H2.32422V38.1108H5.85826L5.85812 41.6449ZM26.9667 52.5065C26.9667 53.1105 26.477 53.6003 25.8729 53.6003H12.0192C11.4152 53.6003 10.9255 53.1105 10.9255 52.5065C10.9255 51.9025 11.4152 51.4128 12.0192 51.4128H25.8729C26.477 51.4128 26.9667 51.9025 26.9667 52.5065ZM26.9667 47.8142C26.9667 48.4182 26.477 48.9079 25.8729 48.9079H12.0192C11.4152 48.9079 10.9255 48.4182 10.9255 47.8142C10.9255 47.2102 11.4152 46.7204 12.0192 46.7204H25.8729C26.477 46.7204 26.9667 47.2102 26.9667 47.8142ZM6.95187 46.2058H1.23047C0.626445 46.2058 0.136719 46.6955 0.136719 47.2996V53.0211C0.136719 53.6251 0.626445 54.1149 1.23047 54.1149H6.95201C7.55604 54.1149 8.04576 53.6251 8.04576 53.0211V47.2996C8.04562 46.6955 7.55604 46.2058 6.95187 46.2058ZM5.85812 51.9274H2.32422V48.3933H5.85826L5.85812 51.9274ZM26.9667 58.0967C26.9667 58.7007 26.477 59.1904 25.8729 59.1904H12.0192C11.4152 59.1904 10.9255 58.7007 10.9255 58.0967C10.9255 57.4926 11.4152 57.0029 12.0192 57.0029H25.8729C26.477 57.0029 26.9667 57.4926 26.9667 58.0967ZM26.9667 62.789C26.9667 63.393 26.477 63.8827 25.8729 63.8827H12.0192C11.4152 63.8827 10.9255 63.393 10.9255 62.789C10.9255 62.185 11.4152 61.6952 12.0192 61.6952H25.8729C26.477 61.6952 26.9667 62.185 26.9667 62.789ZM6.95187 56.4883H1.23047C0.626445 56.4883 0.136719 56.978 0.136719 57.582V63.3036C0.136719 63.9076 0.626445 64.3973 1.23047 64.3973H6.95201C7.55604 64.3973 8.04576 63.9076 8.04576 63.3036V57.582C8.04562 56.978 7.55604 56.4883 6.95187 56.4883ZM5.85812 62.2098H2.32422V58.6758H5.85826L5.85812 62.2098Z" fill="#617792"/>
</svg>
