<svg width="70" height="70" viewBox="0 0 70 70" fill="none" xmlns="http://www.w3.org/2000/svg">
<g clip-path="url(#clip0_1599_854)">
<path d="M62.6172 0H7.38281C5.42544 0.00217125 3.54885 0.780698 2.16477 2.16477C0.780698 3.54885 0.00217125 5.42544 0 7.38281L0 62.6172C0.00217125 64.5746 0.780698 66.4512 2.16477 67.8352C3.54885 69.2193 5.42544 69.9978 7.38281 70H62.6172C64.5746 69.9978 66.4512 69.2193 67.8352 67.8352C69.2193 66.4512 69.9978 64.5746 70 62.6172V7.38281C69.9978 5.42544 69.2193 3.54885 67.8352 2.16477C66.4512 0.780698 64.5746 0.00217125 62.6172 0ZM68.3594 62.6172C68.3576 64.1396 67.7521 65.5991 66.6756 66.6756C65.5991 67.7521 64.1396 68.3576 62.6172 68.3594H7.38281C5.86042 68.3576 4.40088 67.7521 3.32439 66.6756C2.2479 65.5991 1.64236 64.1396 1.64062 62.6172V16.4062H68.3594V62.6172ZM68.3594 14.7656H1.64062V7.38281C1.64236 5.86042 2.2479 4.40088 3.32439 3.32439C4.40088 2.2479 5.86042 1.64236 7.38281 1.64062H62.6172C64.1396 1.64236 65.5991 2.2479 66.6756 3.32439C67.7521 4.40088 68.3576 5.86042 68.3594 7.38281V14.7656Z" fill="#617792"/>
<path d="M8.47656 6.01562C7.98984 6.01562 7.51404 6.15996 7.10934 6.43037C6.70464 6.70078 6.38922 7.08512 6.20295 7.5348C6.01669 7.98448 5.96796 8.47929 6.06291 8.95667C6.15787 9.43404 6.39225 9.87254 6.73642 10.2167C7.08059 10.5609 7.51908 10.7953 7.99646 10.8902C8.47383 10.9852 8.96865 10.9364 9.41832 10.7502C9.868 10.5639 10.2523 10.2485 10.5228 9.84379C10.7932 9.43909 10.9375 8.96329 10.9375 8.47656C10.9368 7.8241 10.6773 7.19857 10.2159 6.73722C9.75455 6.27586 9.12902 6.01635 8.47656 6.01562ZM8.47656 9.29688C8.31432 9.29688 8.15572 9.24876 8.02082 9.15863C7.88592 9.06849 7.78078 8.94037 7.71869 8.79048C7.65661 8.64059 7.64036 8.47565 7.67201 8.31653C7.70367 8.1574 7.78179 8.01124 7.89652 7.89651C8.01124 7.78179 8.1574 7.70366 8.31653 7.67201C8.47565 7.64036 8.64059 7.6566 8.79048 7.71869C8.94038 7.78078 9.06849 7.88592 9.15863 8.02082C9.24877 8.15572 9.29688 8.31432 9.29688 8.47656C9.29688 8.69412 9.21045 8.90277 9.05661 9.05661C8.90277 9.21045 8.69412 9.29688 8.47656 9.29688Z" fill="#617792"/>
<path d="M25.9766 6.01562C25.4898 6.01562 25.014 6.15996 24.6093 6.43037C24.2046 6.70078 23.8892 7.08512 23.703 7.5348C23.5167 7.98448 23.468 8.47929 23.5629 8.95667C23.6579 9.43404 23.8922 9.87254 24.2364 10.2167C24.5806 10.5609 25.0191 10.7953 25.4965 10.8902C25.9738 10.9852 26.4686 10.9364 26.9183 10.7502C27.368 10.5639 27.7523 10.2485 28.0228 9.84379C28.2932 9.43909 28.4375 8.96329 28.4375 8.47656C28.4368 7.8241 28.1773 7.19857 27.7159 6.73722C27.2546 6.27586 26.629 6.01635 25.9766 6.01562ZM25.9766 9.29688C25.8143 9.29688 25.6557 9.24876 25.5208 9.15863C25.3859 9.06849 25.2808 8.94037 25.2187 8.79048C25.1566 8.64059 25.1404 8.47565 25.172 8.31653C25.2037 8.1574 25.2818 8.01124 25.3965 7.89651C25.5112 7.78179 25.6574 7.70366 25.8165 7.67201C25.9757 7.64036 26.1406 7.6566 26.2905 7.71869C26.4404 7.78078 26.5685 7.88592 26.6586 8.02082C26.7488 8.15572 26.7969 8.31432 26.7969 8.47656C26.7969 8.69412 26.7105 8.90277 26.5566 9.05661C26.4028 9.21045 26.1941 9.29688 25.9766 9.29688Z" fill="#617792"/>
<path d="M17.2266 6.01562C16.7398 6.01562 16.264 6.15996 15.8593 6.43037C15.4546 6.70078 15.1392 7.08512 14.953 7.5348C14.7667 7.98448 14.718 8.47929 14.8129 8.95667C14.9079 9.43404 15.1423 9.87254 15.4864 10.2167C15.8306 10.5609 16.2691 10.7953 16.7465 10.8902C17.2238 10.9852 17.7186 10.9364 18.1683 10.7502C18.618 10.5639 19.0023 10.2485 19.2728 9.84379C19.5432 9.43909 19.6875 8.96329 19.6875 8.47656C19.6868 7.8241 19.4273 7.19857 18.9659 6.73722C18.5046 6.27586 17.879 6.01635 17.2266 6.01562ZM17.2266 9.29688C17.0643 9.29688 16.9057 9.24876 16.7708 9.15863C16.6359 9.06849 16.5308 8.94037 16.4687 8.79048C16.4066 8.64059 16.3904 8.47565 16.422 8.31653C16.4537 8.1574 16.5318 8.01124 16.6465 7.89651C16.7612 7.78179 16.9074 7.70366 17.0665 7.67201C17.2257 7.64036 17.3906 7.6566 17.5405 7.71869C17.6904 7.78078 17.8185 7.88592 17.9086 8.02082C17.9988 8.15572 18.0469 8.31432 18.0469 8.47656C18.0469 8.69412 17.9605 8.90277 17.8066 9.05661C17.6528 9.21045 17.4441 9.29688 17.2266 9.29688Z" fill="#617792"/>
<path d="M60.9766 6.01562H52.2266C51.5739 6.01563 50.9479 6.2749 50.4864 6.73642C50.0249 7.19793 49.7656 7.82388 49.7656 8.47656C49.7656 9.12924 50.0249 9.75519 50.4864 10.2167C50.9479 10.6782 51.5739 10.9375 52.2266 10.9375H60.9766C61.6292 10.9375 62.2552 10.6782 62.7167 10.2167C63.1782 9.75519 63.4375 9.12924 63.4375 8.47656C63.4375 7.82388 63.1782 7.19793 62.7167 6.73642C62.2552 6.2749 61.6292 6.01562 60.9766 6.01562ZM60.9766 9.29688H52.2266C52.009 9.29687 51.8004 9.21045 51.6465 9.05661C51.4927 8.90277 51.4062 8.69412 51.4062 8.47656C51.4062 8.259 51.4927 8.05035 51.6465 7.89651C51.8004 7.74268 52.009 7.65625 52.2266 7.65625H60.9766C61.1941 7.65625 61.4028 7.74268 61.5566 7.89651C61.7105 8.05035 61.7969 8.259 61.7969 8.47656C61.7969 8.69412 61.7105 8.90277 61.5566 9.05661C61.4028 9.21045 61.1941 9.29688 60.9766 9.29688Z" fill="#617792"/>
<path d="M13.2898 67.2657C17.6516 67.3575 22.7611 65.0541 23.9948 61.8516C25.484 58.1328 23.1844 55.265 24.0495 51.2805C24.9295 46.5019 29.9695 43.4328 32.8947 42.0285C38.6177 39.281 43.4991 40.2145 48.2203 41.1174C52.8441 42.0011 57.2131 42.8367 61.458 39.766C64.7906 37.356 68.0265 32.3187 67.2548 26.9396C65.5705 17.8019 57.6375 16.4517 47.7123 18.0589C34.7847 20.2902 33.3885 20.0857 22.5216 18.4915C16.057 17.3026 9.09797 17.0942 5.99828 20.5571C0.816093 25.9317 4.70711 36.2978 5.46945 42.9664C5.54711 44.7082 5.10578 46.1858 4.59445 47.897C3.90432 49.9905 3.46377 52.1582 3.28195 54.355C2.63281 62.8983 6.22141 67.1508 13.2898 67.2657ZM4.92258 54.4732C5.16867 49.7219 7.17734 47.3195 7.11008 42.8931C6.5632 36.7992 2.58469 26.7493 7.17133 21.7049C10.2814 18.3143 17.627 19.3293 22.2848 20.1146C33.1397 21.7066 34.8082 21.9516 47.9923 19.6771C56.972 18.2553 64.147 19.1024 65.635 27.1885C66.3066 31.879 63.4426 36.3082 60.4944 38.4388C56.8232 41.0933 52.9781 40.3583 48.526 39.5074C43.7764 38.5996 38.3924 37.5703 32.1827 40.5508C26.1397 43.4492 20.6518 48.4039 22.5921 56.8143C22.8716 58.491 23.093 59.8156 22.4887 61.1964C21.5437 63.3588 18.6223 65.0535 15.0469 65.5135C7.81062 66.2627 4.29258 62.7146 4.92258 54.4732Z" fill="#617792"/>
<path d="M8.99968 42.3964C9.02867 46.451 9.06148 51.0469 14.7588 51.8535C16.0657 51.9867 17.3807 51.6954 18.509 51.0228C19.6373 50.3501 20.519 49.3319 21.0233 48.1189C25.0543 38.7285 38.9012 34.8955 48.8045 37.3263C50.4694 37.7761 52.2099 37.873 53.9144 37.6111C55.619 37.3491 57.25 36.7339 58.703 35.8049C63.6516 32.6156 65.7511 26.3008 59.8809 22.2167C55.1537 19.0011 47.4756 21.0245 40.7009 22.8095C35.0539 24.2637 31.7672 25.4034 26.8546 23.9531C22.8717 23.0507 18.2823 21.9296 14.5953 21.922C5.67304 22.1921 5.05124 28.2017 8.33851 36.9567C8.97124 38.4338 8.98546 40.4485 8.99968 42.3964ZM8.97617 25.7364C11.9588 21.817 19.7704 24.1745 24.5539 25.1081C26.7359 25.5527 28.8622 26.2636 31.0404 26.2942C38.7469 26.3221 52.4653 19.1953 58.96 23.5735C63.5434 26.4835 62.0159 31.8084 57.8438 34.4088C56.574 35.2195 55.149 35.756 53.6598 35.9841C52.1707 36.2122 50.6503 36.1268 49.1961 35.7333C38.6551 33.1438 23.8698 37.3285 19.5095 47.4862C19.1473 48.3696 18.5103 49.1131 17.6929 49.6066C16.8755 50.1001 15.921 50.3175 14.9705 50.2266C8.38117 49.6376 11.8855 40.7968 9.85937 36.3403C7.93382 31.2752 7.63687 27.7079 8.97617 25.7364Z" fill="#617792"/>
<path d="M13.3897 42.4921C13.2054 44.9651 16.3193 46.3903 17.8467 44.2848C24.1134 35.858 36.0642 30.7343 47.1018 32.5188C51.3795 33.0361 55.8021 33.5699 57.9431 31.518C59.5837 30.0961 59.5203 26.4009 57.5936 25.1332C54.9407 23.2 49.303 24.5415 42.7733 26.0952C36.2108 27.656 28.776 29.4251 24.0434 27.8014C16.5211 25.2207 13.6664 24.786 12.2982 26.0175C11.0737 27.1195 11.5145 29.0428 12.1811 31.9544C12.7903 34.6089 13.6232 38.2435 13.3897 42.4921ZM13.3968 27.2343C13.6959 27.0408 14.052 26.9551 14.4064 26.9915C16.6371 26.9915 21.4714 28.6507 23.5118 29.3507C32.2482 32.7884 51.4664 23.4264 56.6278 26.4561C57.7347 27.1627 57.7117 29.5826 56.8083 30.3307C55.2273 31.845 50.831 31.3151 47.2982 30.8874C35.7104 29.0259 23.1208 34.429 16.526 43.3124C15.8889 44.1289 14.98 43.436 15.0276 42.5829C15.2737 38.1035 14.4113 34.3388 13.7818 31.5907C13.323 29.5859 12.8893 27.6937 13.3979 27.2371L13.3968 27.2343Z" fill="#617792"/>
<path d="M58.9158 44.3067C54.5364 43.6198 48.85 47.5141 51.5401 51.4762C52.4194 52.8893 52.1061 53.6424 50.5365 54.4036C47.7169 55.6068 45.1772 59.7543 46.5608 62.9644C49.7403 68.5551 62.5793 65.958 65.4969 60.8688C68.8317 55.9732 65.1824 45.2446 58.9158 44.3067ZM64.1111 59.991C62.1287 63.123 56.9404 64.6138 53.0451 64.4235C50.5048 64.2999 48.6826 63.5113 48.0428 62.2589C47.4412 60.9557 48.1166 58.9071 49.0572 57.6368C50.4113 55.6549 52.8083 55.9365 53.5646 53.5352C53.8927 52.3217 53.383 51.4084 52.9723 50.675C52.613 50.033 52.3976 49.6125 52.4883 49.0836C52.776 47.4025 55.9413 45.4989 58.6615 45.9276C63.7518 46.7184 66.8383 56.0776 64.1105 59.9921L64.1111 59.991Z" fill="#617792"/>
<path d="M57.8853 48.0571C57.5044 48.0673 57.1311 48.1665 56.7953 48.3467C56.4595 48.5269 56.1704 48.7832 55.9513 49.095C55.7322 49.4068 55.589 49.7655 55.5332 50.1425C55.4774 50.5195 55.5106 50.9043 55.63 51.2662C56.9622 55.1763 53.8352 57.0926 52.4292 57.7352C51.8054 58.0042 51.2539 58.4164 50.8192 58.9383C50.6172 59.2216 50.4909 59.5518 50.4522 59.8975C50.4134 60.2433 50.4635 60.5932 50.5977 60.9142C50.7319 61.2352 50.9458 61.5167 51.2191 61.732C51.4924 61.9473 51.8161 62.0893 52.1595 62.1446C52.6729 62.209 53.1894 62.2455 53.7067 62.254C57.1334 62.3306 61.0381 60.7829 62.2642 58.8235C63.2677 57.2375 63.1501 54.2844 61.9825 51.806C60.8204 49.3357 59.4417 48.0752 57.8853 48.0571ZM60.8773 57.9441C60.0482 59.2566 56.9086 60.6653 53.7389 60.6117C53.2931 60.604 52.8479 60.5735 52.4051 60.5204C52.3365 60.5086 52.272 60.4794 52.2179 60.4355C52.1638 60.3917 52.1219 60.3346 52.0961 60.2699C52.0704 60.2131 52.0604 60.1505 52.0669 60.0885C52.0734 60.0265 52.0963 59.9674 52.1333 59.9172C52.4125 59.612 52.7558 59.3722 53.1385 59.215C56.0407 57.8779 58.6192 54.9538 57.1908 50.7614C57.1481 50.6471 57.1326 50.5244 57.1453 50.403C57.158 50.2816 57.1987 50.1648 57.2641 50.0617C57.3295 49.9587 57.418 49.8722 57.5224 49.809C57.6269 49.7459 57.7445 49.7078 57.8662 49.6978C58.7166 49.7076 59.6512 50.7035 60.4978 52.5021C61.5188 54.671 61.4925 56.9723 60.8773 57.9441Z" fill="#617792"/>
</g>
<defs>
<clipPath id="clip0_1599_854">
<rect width="70" height="70" fill="white"/>
</clipPath>
</defs>
</svg>
