<svg width="70" height="70" viewBox="0 0 70 70" fill="none" xmlns="http://www.w3.org/2000/svg">
<path d="M54.0155 34.8726C54.0155 24.3726 45.4776 15.8347 34.9882 15.8347C24.4988 15.8347 15.9609 24.3726 15.9609 34.8726C15.9609 45.3726 24.4988 53.9105 34.9882 53.9105C45.4776 53.9105 54.0155 45.362 54.0155 34.8726ZM17.764 34.8726C17.764 25.3696 25.4958 17.6377 34.9882 17.6377C44.4806 17.6377 52.2125 25.3696 52.2125 34.8726C52.2125 44.3756 44.4806 52.1074 34.9882 52.1074C25.4958 52.1074 17.764 44.3756 17.764 34.8726Z" fill="#617792"/>
<path d="M49.9121 34.8727C49.9121 26.6424 43.2197 19.95 35 19.95C26.7803 19.95 20.0879 26.6424 20.0879 34.8727C20.0879 43.103 26.7803 49.7954 35 49.7954C43.2197 49.7954 49.9121 43.103 49.9121 34.8727ZM21.8697 34.8727C21.8697 27.6287 27.7561 21.7424 34.9894 21.7424C42.2227 21.7424 48.1091 27.6287 48.1091 34.8727C48.1091 42.1166 42.2227 48.003 34.9894 48.003C27.7561 48.003 21.8697 42.106 21.8697 34.8727Z" fill="#617792"/>
<path d="M34.9889 1.06055C28.0949 1.06055 21.2858 3.20297 15.6752 7.11661L15.3464 6.18327C14.954 5.12267 13.9464 4.42267 12.8222 4.42267C11.6874 4.42267 10.6692 5.16509 10.298 6.26812L6.41614 18.0196C6.05553 19.0272 6.36311 20.1939 7.21159 20.9363C8.06008 21.6469 9.21614 21.7848 10.1601 21.2757L21.2116 15.5696C22.2192 15.0393 22.7813 13.9257 22.6116 12.7909C22.5055 12.0909 22.1343 11.4969 21.5934 11.0833C25.6661 8.80297 30.354 7.56206 34.9783 7.56206C50.0283 7.56206 62.2677 19.8121 62.2677 34.8727C62.2677 36.3469 63.4661 37.5454 64.9404 37.5454H66.0964C67.5707 37.5454 68.7692 36.3469 68.7692 34.8727C68.7798 16.2272 53.6237 1.06055 34.9889 1.06055ZM66.1071 35.7424H64.951C64.4737 35.7424 64.0813 35.3393 64.0813 34.8727C64.0813 18.8151 51.0358 5.75903 34.9889 5.75903C29.3889 5.75903 23.7146 7.46661 19.0055 10.5636C18.698 10.7651 18.5389 11.1363 18.6237 11.4969C18.698 11.8575 18.9843 12.1333 19.3449 12.1969L20.1192 12.3348C20.5116 12.409 20.7874 12.6848 20.8404 13.056C20.8934 13.4272 20.7025 13.7984 20.3737 13.9787L9.3222 19.6848C9.02523 19.8439 8.65402 19.8015 8.38887 19.5787C8.11311 19.3348 7.99644 18.953 8.12372 18.6136L12.0055 6.84085C12.1328 6.46964 12.4616 6.2257 12.8222 6.2257C13.1934 6.2257 13.5328 6.46964 13.6601 6.79843L14.3813 8.856C14.4767 9.13176 14.6995 9.33327 14.9646 9.41812C15.2404 9.50297 15.5374 9.44994 15.7707 9.28024C21.254 5.14388 28.0737 2.86358 34.9889 2.86358C52.6267 2.86358 66.9768 17.2242 66.9768 34.8727C66.9768 35.3393 66.5843 35.7424 66.1071 35.7424Z" fill="#617792"/>
<path d="M59.8384 48.7243L48.7869 54.4303C47.7794 54.9607 47.2172 56.0743 47.3869 57.2091C47.493 57.8985 47.8748 58.5031 48.4157 58.9167C44.3536 61.197 39.6657 62.4379 35.0203 62.4379C19.9809 62.4379 7.74148 50.1879 7.74148 35.1273C7.74148 33.6531 6.54299 32.4546 5.05814 32.4546H3.89148C2.41723 32.4546 1.21875 33.6531 1.21875 35.1273C1.21875 53.7728 16.3748 68.9394 35.0097 68.9394C41.9036 68.9394 48.7127 66.797 54.3233 62.8834L54.6415 63.7955C55.0339 64.8773 56.0203 65.5773 57.1763 65.5773C58.343 65.5773 59.3612 64.8243 59.7006 63.7319L63.5824 51.9697C63.6778 51.694 63.7309 51.397 63.7309 51.1C63.7309 50.3152 63.3915 49.5728 62.7869 49.0637C61.949 48.3531 60.7824 48.2152 59.8384 48.7243ZM61.8854 51.3864L57.993 63.1803C57.8869 63.541 57.5581 63.7743 57.1763 63.7743C56.7945 63.7743 56.4657 63.5516 56.3384 63.191L55.6278 61.144C55.5324 60.8682 55.3097 60.6667 55.0445 60.5819C54.7687 60.497 54.4718 60.55 54.2384 60.7197C48.7551 64.8561 41.9248 67.1364 35.0097 67.1364C17.3718 67.1364 3.02178 52.7758 3.02178 35.1273C3.02178 34.65 3.42481 34.2576 3.89148 34.2576H5.04754C5.53542 34.2576 5.92784 34.65 5.92784 35.1273C5.92784 51.1849 18.9733 64.241 35.0097 64.241C40.6309 64.241 46.3051 62.544 51.0036 59.447C51.3112 59.2455 51.4597 58.8743 51.3854 58.5137C51.3112 58.1531 51.0248 57.8773 50.6642 57.8137L49.89 57.6758C49.5081 57.6016 49.2112 57.3046 49.1581 56.9334C49.1051 56.5622 49.296 56.191 49.6248 56.0107L60.6869 50.3046C60.9839 50.1455 61.3551 50.1879 61.6415 50.4213C61.8324 50.5803 61.949 50.8243 61.949 51.0788C61.9384 51.1955 61.9172 51.291 61.8854 51.3864Z" fill="#617792"/>
<path d="M35.9001 44.45V43.3681C38.2546 42.9757 40.0576 41.0772 40.0576 38.7969C40.0576 36.2303 37.7879 34.1409 34.9985 34.1409C33.2061 34.1409 31.7425 32.8575 31.7425 31.2878C31.7425 29.7181 33.2061 28.4348 34.9985 28.4348C36.791 28.4348 38.2546 29.7181 38.2546 31.2878C38.2546 31.7863 38.6576 32.1893 39.1561 32.1893C39.6546 32.1893 40.0576 31.7863 40.0576 31.2878C40.0576 29.0075 38.2546 27.109 35.9001 26.7166V25.55C35.9001 25.0515 35.497 24.6484 34.9985 24.6484C34.5001 24.6484 34.097 25.0515 34.097 25.55V26.7166C31.7425 27.109 29.9395 29.0075 29.9395 31.2878C29.9395 33.8545 32.2092 35.9439 34.9985 35.9439C36.791 35.9439 38.2546 37.2272 38.2546 38.7969C38.2546 40.3666 36.791 41.65 34.9985 41.65C33.2061 41.65 31.7425 40.3666 31.7425 38.7969C31.7425 38.2984 31.3395 37.8954 30.841 37.8954C30.3425 37.8954 29.9395 38.2984 29.9395 38.7969C29.9395 41.0772 31.7425 42.9757 34.097 43.3681V44.45C34.097 44.9484 34.5001 45.3515 34.9985 45.3515C35.497 45.3515 35.9001 44.9484 35.9001 44.45Z" fill="#617792"/>
</svg>
