<svg width="70" height="70" viewBox="0 0 70 70" fill="none" xmlns="http://www.w3.org/2000/svg">
<path d="M35 20.7812C32.4041 20.7812 29.8665 21.551 27.7081 22.9932C25.5498 24.4354 23.8675 26.4852 22.8741 28.8835C21.8807 31.2818 21.6208 33.9208 22.1272 36.4668C22.6336 39.0128 23.8837 41.3515 25.7192 43.187C27.5548 45.0226 29.8934 46.2726 32.4394 46.7791C34.9854 47.2855 37.6244 47.0256 40.0227 46.0322C42.421 45.0388 44.4708 43.3565 45.913 41.1981C47.3552 39.0397 48.125 36.5021 48.125 33.9062C48.1211 30.4265 46.7371 27.0903 44.2765 24.6298C41.8159 22.1692 38.4798 20.7851 35 20.7812ZM35 44.8438C32.8368 44.8438 30.7221 44.2023 28.9235 43.0005C27.1248 41.7986 25.7229 40.0904 24.8951 38.0919C24.0672 36.0933 23.8506 33.8941 24.2727 31.7724C24.6947 29.6508 25.7364 27.7019 27.266 26.1723C28.7957 24.6426 30.7445 23.6009 32.8662 23.1789C34.9879 22.7569 37.187 22.9735 39.1856 23.8013C41.1842 24.6292 42.8924 26.031 44.0942 27.8297C45.296 29.6284 45.9375 31.743 45.9375 33.9062C45.9342 36.806 44.7808 39.5861 42.7303 41.6366C40.6799 43.687 37.8998 44.8404 35 44.8438Z" fill="#617792"/>
<path d="M32.8123 37.8285L29.2106 34.2267L27.6641 35.7734L32.0391 40.1484C32.1406 40.25 32.2612 40.3305 32.3938 40.3855C32.5265 40.4405 32.6687 40.4688 32.8124 40.4688C32.956 40.4688 33.0982 40.4405 33.2309 40.3855C33.3636 40.3305 33.4842 40.25 33.5857 40.1484L43.4294 30.3046L41.8828 28.7581L32.8123 37.8285Z" fill="#617792"/>
<path d="M68.8687 56.5881C68.4028 54.8487 67.4645 53.2722 66.1578 52.0331C65.9888 51.8725 65.7728 51.7701 65.5414 51.741C65.31 51.7119 65.0754 51.7575 64.8718 51.8713L63.8155 52.4208C63.4135 52.1557 62.9974 51.9127 62.569 51.6929V50.634C62.5688 50.393 62.4892 50.1589 62.3424 49.9678C62.1957 49.7767 61.99 49.6394 61.7572 49.5771C60.8355 49.3331 59.8855 49.2127 58.9321 49.2192C58.0655 49.2333 57.2041 49.3549 56.3675 49.5813C56.1347 49.6435 55.929 49.7808 55.7822 49.9719C55.6354 50.163 55.5558 50.3972 55.5557 50.6382L55.5461 51.7308C55.1158 51.9251 54.7027 52.1555 54.3114 52.4198L53.2572 51.874C53.0533 51.7605 52.8185 51.715 52.587 51.7442C52.3555 51.7734 52.1394 51.8758 51.9701 52.0363C50.6638 53.2749 49.7246 54.85 49.256 56.5881C49.193 56.8232 49.2103 57.0726 49.3051 57.2967C49.3999 57.5209 49.5668 57.707 49.7794 57.8255L50.7631 58.3751C50.7417 58.6063 50.7311 58.8344 50.7311 59.0624C50.7311 59.2904 50.7417 59.5185 50.7631 59.7497L49.7794 60.2993C49.5669 60.418 49.4001 60.6041 49.3053 60.8282C49.2106 61.0523 49.1932 61.3016 49.256 61.5367C49.7219 63.2755 50.6593 64.8517 51.9647 66.0911C52.134 66.2518 52.3501 66.3542 52.5816 66.3835C52.8131 66.4128 53.0479 66.3675 53.2518 66.254L54.3093 65.7039C54.7113 65.969 55.1274 66.212 55.5557 66.4319V67.4909C55.5559 67.7318 55.6355 67.966 55.7823 68.1571C55.9291 68.3482 56.1348 68.4855 56.3675 68.5478C57.2484 68.7845 58.1566 68.905 59.0688 68.9062C59.1094 68.9062 59.151 68.9062 59.1916 68.9056C60.0585 68.8916 60.9203 68.77 61.7572 68.5436C61.99 68.4814 62.1957 68.344 62.3425 68.1529C62.4893 67.9618 62.5689 67.7276 62.569 67.4867L62.5765 66.3945C63.0077 66.2005 63.4215 65.9699 63.8133 65.7051L64.8676 66.2514C65.0713 66.3654 65.3063 66.4111 65.5379 66.3817C65.7695 66.3524 65.9857 66.2497 66.1546 66.0885C67.4613 64.8502 68.4006 63.275 68.8687 61.5367C68.9317 61.3017 68.9144 61.0523 68.8196 60.8281C68.7248 60.604 68.5579 60.4179 68.3453 60.2993L67.3616 59.7498C67.383 59.5185 67.3937 59.2905 67.3937 59.0625C67.3937 58.8344 67.383 58.6064 67.3616 58.3751L68.3453 57.8256C68.5578 57.7069 68.7246 57.5208 68.8194 57.2967C68.9142 57.0725 68.9315 56.8232 68.8687 56.5881ZM65.0993 57.99C65.2418 58.6977 65.2418 59.4266 65.0993 60.1343C65.0563 60.36 65.0854 60.5935 65.1827 60.8018C65.2799 61.01 65.4402 61.1823 65.6409 61.2942L66.4932 61.7701C66.1832 62.5567 65.7438 63.2859 65.1933 63.9277L64.9893 63.8134C64.6209 63.6052 64.2024 63.5023 63.7794 63.5161C63.3565 63.5298 62.9455 63.6597 62.5914 63.8914C62.3016 64.0867 61.9958 64.2569 61.6771 64.4003C61.2889 64.5788 60.9603 64.8653 60.7305 65.2256C60.5008 65.5858 60.3796 66.0046 60.3815 66.4319V66.6065C59.9794 66.6751 59.5727 66.7124 59.1649 66.7181C58.6887 66.726 58.2127 66.6895 57.7432 66.6091V66.4318C57.7452 66.0046 57.624 65.5859 57.3942 65.2257C57.1645 64.8655 56.8358 64.5791 56.4476 64.4008C56.1291 64.2566 55.8233 64.086 55.5333 63.8908C55.1793 63.6595 54.7685 63.5299 54.3458 63.5161C53.9231 63.5024 53.5048 63.605 53.1364 63.8128L52.9271 63.9303C52.3774 63.288 51.9394 62.5579 51.6315 61.7705L52.4838 61.2942C52.6845 61.1822 52.8448 61.0099 52.942 60.8017C53.0392 60.5935 53.0684 60.36 53.0254 60.1343C52.8829 59.4266 52.8829 58.6977 53.0254 57.99C53.0681 57.7644 53.0388 57.531 52.9416 57.323C52.8444 57.1149 52.6843 56.9426 52.4838 56.8306L51.6315 56.3547C51.9419 55.5683 52.3813 54.8392 52.9314 54.1972L53.1354 54.3114C53.5039 54.5192 53.9224 54.6219 54.3453 54.6081C54.7681 54.5944 55.1791 54.4648 55.5333 54.2335C55.8231 54.0388 56.1286 53.8685 56.4466 53.7245C56.835 53.5462 57.1639 53.2598 57.3939 52.8995C57.6239 52.5393 57.7452 52.1204 57.7433 51.6929V51.5183C58.6163 51.3693 59.5082 51.3684 60.3815 51.5156V51.6929C60.3797 52.1202 60.5008 52.539 60.7306 52.8992C60.9603 53.2595 61.2889 53.546 61.6771 53.7245C61.9959 53.8678 62.3018 54.0383 62.5915 54.234C62.9455 54.4653 63.3563 54.5949 63.779 54.6085C64.2017 54.6222 64.6201 54.5194 64.9883 54.3114L65.1977 54.195C65.7475 54.837 66.1855 55.5669 66.4933 56.3542L65.6409 56.8306C65.4405 56.9426 65.2803 57.1149 65.1831 57.3229C65.0859 57.531 65.0566 57.7644 65.0993 57.99Z" fill="#617792"/>
<path d="M59.0628 54.0798C58.0773 54.0798 57.114 54.3721 56.2946 54.9196C55.4752 55.4671 54.8365 56.2453 54.4594 57.1558C54.0822 58.0663 53.9836 59.0681 54.1758 60.0347C54.3681 61.0012 54.8426 61.8891 55.5395 62.5859C56.2363 63.2828 57.1242 63.7573 58.0907 63.9496C59.0573 64.1419 60.0592 64.0432 60.9696 63.6661C61.8801 63.2889 62.6583 62.6503 63.2058 61.8309C63.7534 61.0114 64.0456 60.0481 64.0456 59.0626C64.0441 57.7415 63.5186 56.475 62.5845 55.5409C61.6504 54.6068 60.3839 54.0813 59.0628 54.0798ZM59.0628 61.8578C58.51 61.8578 57.9696 61.6939 57.5099 61.3868C57.0502 61.0796 56.6919 60.643 56.4804 60.1323C56.2688 59.6215 56.2134 59.0595 56.3213 58.5173C56.4291 57.975 56.6954 57.477 57.0863 57.086C57.4772 56.6951 57.9753 56.4289 58.5175 56.321C59.0597 56.2132 59.6218 56.2685 60.1325 56.4801C60.6433 56.6917 61.0799 57.05 61.387 57.5096C61.6941 57.9693 61.8581 58.5097 61.8581 59.0626C61.8572 59.8037 61.5625 60.5142 61.0384 61.0382C60.5144 61.5622 59.8039 61.857 59.0628 61.8578Z" fill="#617792"/>
<path d="M2.90179 64.2653L8.19629 59.6963C8.79688 60.0577 9.49916 60.2127 10.1961 60.1379C10.893 60.0631 11.5463 59.7624 12.0565 59.2818L17.5392 61.9528C17.5181 62.0822 17.5049 62.2127 17.4997 62.3438C17.4997 63.214 17.8454 64.0486 18.4608 64.6639C19.0761 65.2793 19.9107 65.625 20.781 65.625C21.6512 65.625 22.4858 65.2793 23.1012 64.6639C23.7165 64.0486 24.0622 63.214 24.0622 62.3438C24.0592 61.9552 23.9865 61.5704 23.8475 61.2076L28.0431 57.7156L26.6439 56.0344L22.4432 59.5306C21.829 59.1581 21.1082 59.001 20.3947 59.0842C19.6812 59.1674 19.0158 59.4862 18.5038 59.99L13.0771 57.3464C13.1044 57.1906 13.1204 57.0331 13.1247 56.875C13.1247 56.0048 12.779 55.1702 12.1637 54.5548C11.5483 53.9395 10.7137 53.5938 9.84347 53.5938C8.97323 53.5938 8.13863 53.9395 7.52328 54.5548C6.90793 55.1702 6.56222 56.0048 6.56222 56.875C6.56495 57.2694 6.63948 57.6601 6.78219 58.0278L1.47266 62.6097L2.90179 64.2653ZM20.781 61.25C20.9973 61.25 21.2088 61.3141 21.3886 61.4343C21.5685 61.5545 21.7087 61.7253 21.7915 61.9252C21.8743 62.125 21.8959 62.345 21.8537 62.5571C21.8115 62.7693 21.7073 62.9642 21.5544 63.1171C21.4014 63.2701 21.2065 63.3743 20.9944 63.4165C20.7822 63.4587 20.5623 63.437 20.3624 63.3542C20.1626 63.2715 19.9917 63.1313 19.8716 62.9514C19.7514 62.7715 19.6872 62.5601 19.6872 62.3438C19.6875 62.0538 19.8028 61.7757 20.0079 61.5707C20.213 61.3656 20.491 61.2503 20.781 61.25ZM9.84347 55.7812C10.0598 55.7812 10.2713 55.8454 10.4511 55.9656C10.631 56.0858 10.7712 56.2566 10.854 56.4564C10.9368 56.6563 10.9584 56.8762 10.9162 57.0884C10.874 57.3005 10.7698 57.4954 10.6169 57.6484C10.4639 57.8014 10.269 57.9055 10.0569 57.9477C9.84469 57.9899 9.62477 57.9683 9.42491 57.8855C9.22506 57.8027 9.05424 57.6625 8.93406 57.4827C8.81387 57.3028 8.74972 57.0913 8.74972 56.875C8.75001 56.585 8.86534 56.307 9.0704 56.1019C9.27545 55.8969 9.55348 55.7815 9.84347 55.7812Z" fill="#617792"/>
<path d="M65.625 8.75H49.2188V2.1875C49.2188 2.04386 49.1905 1.90161 49.1356 1.7689C49.0806 1.63618 49.0001 1.51559 48.8985 1.41402C48.7969 1.31245 48.6763 1.23188 48.5436 1.17693C48.4109 1.12198 48.2686 1.09371 48.125 1.09375H21.875C21.7314 1.09371 21.5891 1.12198 21.4564 1.17693C21.3237 1.23188 21.2031 1.31245 21.1015 1.41402C20.9999 1.51559 20.9194 1.63618 20.8644 1.7689C20.8095 1.90161 20.7812 2.04386 20.7812 2.1875V8.75H4.375C4.23136 8.74996 4.08911 8.77823 3.9564 8.83318C3.82368 8.88813 3.70309 8.9687 3.60152 9.07027C3.49995 9.17184 3.41938 9.29243 3.36443 9.42515C3.30948 9.55786 3.28121 9.70011 3.28125 9.84375V38.2812C3.28121 38.4249 3.30948 38.5671 3.36443 38.6999C3.41938 38.8326 3.49995 38.9532 3.60152 39.0547C3.70309 39.1563 3.82368 39.2369 3.9564 39.2918C4.08911 39.3468 4.23136 39.375 4.375 39.375H16.4062V37.1875H5.46875V10.9375H20.7812V23.7433C19.068 26.1273 17.9836 28.9049 17.6283 31.819C17.273 34.7332 17.6584 37.6899 18.7487 40.4157C19.839 43.1415 21.5991 45.5483 23.8661 47.4136C26.1332 49.2788 28.834 50.5422 31.7188 51.087V53.5938C31.5749 53.5937 31.4324 53.622 31.2995 53.6771C31.1666 53.7322 31.0458 53.813 30.9442 53.9149C30.8426 54.0167 30.7621 54.1376 30.7073 54.2707C30.6525 54.4037 30.6246 54.5463 30.625 54.6902L30.6549 67.8152C30.6555 68.1048 30.771 68.3824 30.9761 68.587C31.1811 68.7916 31.459 68.9064 31.7487 68.9062H38.3112C38.455 68.9063 38.5975 68.878 38.7304 68.8229C38.8633 68.7678 38.9841 68.687 39.0857 68.5851C39.1873 68.4833 39.2678 68.3624 39.3226 68.2293C39.3774 68.0963 39.4053 67.9537 39.4049 67.8098L39.375 54.6848C39.3744 54.3952 39.2589 54.1176 39.0539 53.913C38.8488 53.7084 38.5709 53.5936 38.2812 53.5938V51.087C41.166 50.5422 43.8668 49.2788 46.1339 47.4136C48.4009 45.5483 50.161 43.1415 51.2513 40.4157C52.3416 37.6899 52.727 34.7332 52.3717 31.819C52.0164 28.9049 50.932 26.1273 49.2188 23.7433V10.9375H64.5312V37.1875H53.5938V39.375H65.625C65.7686 39.375 65.9109 39.3468 66.0436 39.2918C66.1763 39.2369 66.2969 39.1563 66.3985 39.0547C66.5001 38.9532 66.5806 38.8326 66.6356 38.6999C66.6905 38.5671 66.7188 38.4249 66.7188 38.2812V9.84375C66.7188 9.70011 66.6905 9.55786 66.6356 9.42515C66.5806 9.29243 66.5001 9.17184 66.3985 9.07027C66.2969 8.9687 66.1763 8.88813 66.0436 8.83318C65.9109 8.77823 65.7686 8.74996 65.625 8.75ZM22.9688 3.28125H47.0312V21.2311C43.7912 18.1344 39.4819 16.4063 35 16.4063C30.5181 16.4063 26.2088 18.1344 22.9688 21.2311V3.28125ZM32.8403 66.7188L32.8147 55.7812H37.1897L37.2153 66.7188H32.8403ZM33.9062 53.5938V51.3508C34.2698 51.3734 34.6308 51.4062 35 51.4062C35.3692 51.4062 35.7302 51.3734 36.0938 51.3508V53.5938H33.9062ZM50.3125 33.9062C50.3125 36.9348 49.4144 39.8953 47.7319 42.4134C46.0493 44.9315 43.6578 46.8942 40.8598 48.0532C38.0618 49.2121 34.983 49.5154 32.0127 48.9245C29.0423 48.3337 26.3139 46.8753 24.1724 44.7338C22.0309 42.5923 20.5726 39.8639 19.9817 36.8936C19.3909 33.9232 19.6941 30.8444 20.8531 28.0464C22.0121 25.2484 23.9747 22.8569 26.4928 21.1744C29.011 19.4918 31.9715 18.5938 35 18.5938C39.0597 18.5983 42.9519 20.213 45.8225 23.0837C48.6932 25.9544 50.3079 29.8465 50.3125 33.9062Z" fill="#617792"/>
<path d="M28.4375 9.84375H41.5625V12.0312H28.4375V9.84375Z" fill="#617792"/>
<path d="M51.4062 15.3125H62.3438V17.5H51.4062V15.3125Z" fill="#617792"/>
<path d="M52.5 21.875H62.3438V24.0625H52.5V21.875Z" fill="#617792"/>
<path d="M54.6875 28.4375H62.3438V30.625H54.6875V28.4375Z" fill="#617792"/>
<path d="M7.65625 15.3125H18.5938V17.5H7.65625V15.3125Z" fill="#617792"/>
<path d="M7.65625 21.875H17.5V24.0625H7.65625V21.875Z" fill="#617792"/>
<path d="M7.65625 28.4375H15.3125V30.625H7.65625V28.4375Z" fill="#617792"/>
<path d="M41.3594 59.0042L41.7881 56.8582L47.2592 57.9513L46.8304 60.0972L41.3594 59.0042Z" fill="#617792"/>
<path d="M32.8125 5.46875H37.1875V7.65625H32.8125V5.46875Z" fill="#617792"/>
</svg>
