<svg width="70" height="70" viewBox="0 0 70 70" fill="none" xmlns="http://www.w3.org/2000/svg">
<g clip-path="url(#clip0_1599_671)">
<path d="M66.3793 0.226318H3.62069C1.62101 0.226318 0 1.84733 0 3.84701C0 5.84668 1.62101 7.4677 3.62069 7.4677V56.9505C3.62069 57.617 4.16108 58.1574 4.82759 58.1574H19.2126L11.1264 68.2651L13.0116 69.7737L22.3047 58.1574H33.7931V60.7932C31.9078 61.4597 30.9198 63.5285 31.5864 65.4137C32.253 67.299 34.3217 68.287 36.2069 67.6203C38.0921 66.9537 39.0802 64.885 38.4136 62.9999C38.0491 61.9687 37.2379 61.1577 36.2069 60.7932V58.1574H47.6953L56.9885 69.7737L58.8736 68.2651L50.7874 58.1574H65.1724C65.8389 58.1574 66.3793 57.617 66.3793 56.9505V7.4677C68.379 7.4677 70 5.84668 70 3.84701C70 1.84733 68.379 0.226318 66.3793 0.226318ZM35 65.3987C34.3335 65.3987 33.7931 64.8583 33.7931 64.1918C33.7931 63.5253 34.3335 62.9849 35 62.9849C35.6665 62.9849 36.2069 63.5253 36.2069 64.1918C36.2069 64.8583 35.6665 65.3987 35 65.3987ZM63.9655 55.7436H6.03448V7.4677H63.9655V55.7436ZM66.3793 5.0539H3.62069C2.95418 5.0539 2.41379 4.51352 2.41379 3.84701C2.41379 3.1805 2.95418 2.64011 3.62069 2.64011H66.3793C67.0458 2.64011 67.5862 3.1805 67.5862 3.84701C67.5862 4.51352 67.0458 5.0539 66.3793 5.0539Z" fill="#617792"/>
<path d="M30.1717 38.8469H10.8613V41.2607H30.1717V38.8469Z" fill="#617792"/>
<path d="M30.1717 43.6746H10.8613V46.0884H30.1717V43.6746Z" fill="#617792"/>
<path d="M25.3441 48.5022H10.8613V50.916H25.3441V48.5022Z" fill="#617792"/>
<path d="M30.1728 34.0193H20.5176V36.4331H30.1728V34.0193Z" fill="#617792"/>
<path d="M59.1385 17.1228H39.8281V19.5366H59.1385V17.1228Z" fill="#617792"/>
<path d="M59.1385 21.9504H39.8281V24.3642H59.1385V21.9504Z" fill="#617792"/>
<path d="M54.3109 26.7781H39.8281V29.1919H54.3109V26.7781Z" fill="#617792"/>
<path d="M59.1376 12.2952H49.4824V14.709H59.1376V12.2952Z" fill="#617792"/>
<path d="M20.5165 11.0884C15.1841 11.0884 10.8613 15.4112 10.8613 20.7436C10.8674 26.0735 15.1865 30.3927 20.5165 30.3987C25.8489 30.3987 30.1717 26.0759 30.1717 20.7436C30.1717 15.4112 25.8489 11.0884 20.5165 11.0884ZM21.7596 13.618C23.6028 13.9406 25.2492 14.9651 26.3531 16.476L21.7234 18.7884L21.7596 13.618ZM16.3432 14.8379C17.2402 14.2053 18.2696 13.7858 19.3531 13.6106L19.3096 20.2608L14.6027 24.9037C12.3037 21.6434 13.0829 17.1369 16.3432 14.8379ZM22.6277 27.6698C21.9434 27.8786 21.232 27.9848 20.5165 27.9849C18.999 27.9851 17.5204 27.5052 16.2924 26.6139L21.2503 21.726L27.4405 18.6303C28.6075 22.4555 26.4528 26.5026 22.6277 27.6698Z" fill="#617792"/>
<path d="M39.8279 44.8813H37.4141V50.9158H39.8279V44.8813Z" fill="#617792"/>
<path d="M59.1384 42.4678H56.7246V50.916H59.1384V42.4678Z" fill="#617792"/>
<path d="M44.656 41.2607H42.2422V50.9159H44.656V41.2607Z" fill="#617792"/>
<path d="M49.4822 36.4331H47.0684V50.9159H49.4822V36.4331Z" fill="#617792"/>
<path d="M54.3103 40.054H51.8965V50.916H54.3103V40.054Z" fill="#617792"/>
<path d="M18.1032 34.0193H15.6895V36.4331H18.1032V34.0193Z" fill="#617792"/>
<path d="M47.0681 12.2952H44.6543V14.709H47.0681V12.2952Z" fill="#617792"/>
</g>
<defs>
<clipPath id="clip0_1599_671">
<rect width="70" height="70" fill="white"/>
</clipPath>
</defs>
</svg>
