<svg width="70" height="70" viewBox="0 0 70 70" fill="none" xmlns="http://www.w3.org/2000/svg">
<path d="M27.2992 48.7715C36.4887 48.7715 43.9383 41.3236 43.9383 32.136C43.9383 22.9485 36.4887 15.5005 27.2992 15.5005C18.1097 15.5005 10.6602 22.9485 10.6602 32.136C10.6602 41.3236 18.1097 48.7715 27.2992 48.7715Z" stroke="#617792" stroke-width="2" stroke-miterlimit="10" stroke-linecap="round" stroke-linejoin="round"/>
<path d="M24.8676 44.4227C22.51 43.96 20.2607 42.8174 18.4379 40.995C13.552 36.11 13.552 28.1617 18.4379 23.2769C23.3238 18.3921 31.2739 18.392 36.1598 23.2769C41.0457 28.1619 41.0457 36.1102 36.1598 40.9951C34.3246 42.8299 32.0571 43.9756 29.682 44.4321" stroke="#617792" stroke-width="2" stroke-miterlimit="10" stroke-linecap="round" stroke-linejoin="round"/>
<path d="M39.0645 43.899L43.9798 48.8135" stroke="#617792" stroke-width="2" stroke-miterlimit="10" stroke-linecap="round" stroke-linejoin="round"/>
<path d="M58.0707 57.2L59.947 59.0759C60.6545 59.7833 60.6545 60.9304 59.947 61.6376L56.806 64.7779C56.0988 65.485 54.9521 65.485 54.2449 64.7779L42.4095 52.945C41.702 52.2376 41.702 51.0906 42.4095 50.3833L45.5505 47.243C46.2578 46.5359 47.4044 46.5359 48.1117 47.243L54.6868 53.8167" stroke="#617792" stroke-width="2" stroke-miterlimit="10" stroke-linecap="round" stroke-linejoin="round"/>
<path d="M6.07606 14.7909C8.86546 14.7909 11.1267 12.5301 11.1267 9.74135C11.1267 6.95255 8.86546 4.69178 6.07606 4.69178C3.28665 4.69178 1.02539 6.95255 1.02539 9.74135C1.02539 12.5301 3.28665 14.7909 6.07606 14.7909Z" stroke="#617792" stroke-width="2" stroke-miterlimit="10" stroke-linecap="round" stroke-linejoin="round"/>
<path d="M42.7401 14.7909C45.5295 14.7909 47.7908 12.5301 47.7908 9.74135C47.7908 6.95255 45.5295 4.69178 42.7401 4.69178C39.9507 4.69178 37.6895 6.95255 37.6895 9.74135C37.6895 12.5301 39.9507 14.7909 42.7401 14.7909Z" stroke="#617792" stroke-width="2" stroke-miterlimit="10" stroke-linecap="round" stroke-linejoin="round"/>
<path d="M27.2596 33.6503C30.0491 33.6503 32.3103 31.3895 32.3103 28.6007C32.3103 25.8119 30.0491 23.5512 27.2596 23.5512C24.4702 23.5512 22.209 25.8119 22.209 28.6007C22.209 31.3895 24.4702 33.6503 27.2596 33.6503Z" stroke="#617792" stroke-width="2" stroke-miterlimit="10" stroke-linecap="round" stroke-linejoin="round"/>
<path d="M63.9237 33.6503C66.7131 33.6503 68.9744 31.3895 68.9744 28.6007C68.9744 25.8119 66.7131 23.5512 63.9237 23.5512C61.1343 23.5512 58.873 25.8119 58.873 28.6007C58.873 31.3895 61.1343 33.6503 63.9237 33.6503Z" stroke="#617792" stroke-width="2" stroke-miterlimit="10" stroke-linecap="round" stroke-linejoin="round"/>
<path d="M16.7643 19.2582L9.84766 13.1004" stroke="#617792" stroke-width="2" stroke-miterlimit="10" stroke-linecap="round" stroke-linejoin="round"/>
<path d="M23.4887 25.2424L19.8848 22.0336" stroke="#617792" stroke-width="2" stroke-miterlimit="10" stroke-linecap="round" stroke-linejoin="round"/>
<path d="M60.1524 25.2427L46.5117 13.0997" stroke="#617792" stroke-width="2" stroke-miterlimit="10" stroke-linecap="round" stroke-linejoin="round"/>
<path d="M33.36 21.1682L30.4629 24.6982" stroke="#617792" stroke-width="2" stroke-miterlimit="10" stroke-linecap="round" stroke-linejoin="round"/>
<path d="M39.5355 13.6445L36 17.9525" stroke="#617792" stroke-width="2" stroke-miterlimit="10" stroke-linecap="round" stroke-linejoin="round"/>
<path d="M62.5215 4.69178V5.59316" stroke="#617792" stroke-width="2" stroke-miterlimit="10" stroke-linecap="round" stroke-linejoin="round"/>
<path d="M62.5215 10.5819V11.4833" stroke="#617792" stroke-width="2" stroke-miterlimit="10" stroke-linecap="round" stroke-linejoin="round"/>
<path d="M65.9171 8.08746H65.0156" stroke="#617792" stroke-width="2" stroke-miterlimit="10" stroke-linecap="round" stroke-linejoin="round"/>
<path d="M60.0264 8.08746H59.125" stroke="#617792" stroke-width="2" stroke-miterlimit="10" stroke-linecap="round" stroke-linejoin="round"/>
<path d="M60.152 21.7098V25.2427H56.6191" stroke="#617792" stroke-width="2" stroke-miterlimit="10" stroke-linecap="round" stroke-linejoin="round"/>
</svg>
