<svg width="70" height="70" viewBox="0 0 70 70" fill="none" xmlns="http://www.w3.org/2000/svg">
<g clip-path="url(#clip0_1599_805)">
<mask id="mask0_1599_805" style="mask-type:luminance" maskUnits="userSpaceOnUse" x="0" y="0" width="70" height="70">
<path d="M0 7.62939e-06H70V70H0V7.62939e-06Z" fill="white"/>
</mask>
<g mask="url(#mask0_1599_805)">
<path d="M64.873 56.3965H5.12695C2.8618 56.3965 1.02539 54.5601 1.02539 52.2949V5.12695C1.02539 2.8618 2.8618 1.02539 5.12695 1.02539H64.873C67.1382 1.02539 68.9746 2.8618 68.9746 5.12695V52.2949C68.9746 54.5601 67.1382 56.3965 64.873 56.3965Z" stroke="#617792" stroke-width="2" stroke-miterlimit="10" stroke-linecap="round" stroke-linejoin="round"/>
<path d="M42.7245 56.3965C42.0691 58.5818 42.3283 60.9396 43.4427 62.9305L45.6869 66.9396C46.197 67.8509 45.5383 68.9746 44.4939 68.9746H25.5059C24.4615 68.9746 23.8028 67.8509 24.3129 66.9396L26.5571 62.9305C27.6715 60.9396 27.9307 58.5818 27.2753 56.3965" stroke="#617792" stroke-width="2" stroke-miterlimit="10" stroke-linecap="round" stroke-linejoin="round"/>
<path d="M6.15234 5.12695C6.15234 5.69324 5.69338 6.15234 5.12695 6.15234C4.56053 6.15234 4.10156 5.69324 4.10156 5.12695C4.10156 4.56066 4.56053 4.10156 5.12695 4.10156C5.69338 4.10156 6.15234 4.56066 6.15234 5.12695Z" fill="#617792"/>
<path d="M10.2539 5.12695C10.2539 5.69324 9.79494 6.15234 9.22852 6.15234C8.66209 6.15234 8.20312 5.69324 8.20312 5.12695C8.20312 4.56066 8.66209 4.10156 9.22852 4.10156C9.79494 4.10156 10.2539 4.56066 10.2539 5.12695Z" fill="#617792"/>
<path d="M14.3555 5.12695C14.3555 5.69324 13.8965 6.15234 13.3301 6.15234C12.7637 6.15234 12.3047 5.69324 12.3047 5.12695C12.3047 4.56066 12.7637 4.10156 13.3301 4.10156C13.8965 4.10156 14.3555 4.56066 14.3555 5.12695Z" fill="#617792"/>
<path d="M59.3027 9.22852H68.9742" stroke="#617792" stroke-width="2" stroke-miterlimit="10" stroke-linecap="round" stroke-linejoin="round"/>
<path d="M40.5195 1.02539C41.8787 1.02539 42.9805 2.12721 42.9805 3.48633V6.76758C42.9805 8.1267 44.0823 9.22852 45.4414 9.22852H54.519" stroke="#617792" stroke-width="2" stroke-miterlimit="10" stroke-linecap="round" stroke-linejoin="round"/>
<path d="M1.02539 9.22852H24.5596C25.9187 9.22852 27.0205 8.1267 27.0205 6.76758V3.48633C27.0205 2.12721 28.1222 1.02539 29.4815 1.02539" stroke="#617792" stroke-width="2" stroke-miterlimit="10" stroke-linecap="round" stroke-linejoin="round"/>
<path d="M15.2655 49.2871H1.02539" stroke="#617792" stroke-width="2" stroke-miterlimit="10" stroke-linecap="round" stroke-linejoin="round"/>
<path d="M68.9748 49.2871H20.0508" stroke="#617792" stroke-width="2" stroke-miterlimit="10" stroke-linecap="round" stroke-linejoin="round"/>
<path d="M55.2014 18.2902L42.373 31.1185" stroke="#617792" stroke-width="2" stroke-miterlimit="10" stroke-linecap="round" stroke-linejoin="round"/>
<path d="M24.0807 21.0519L14.7988 30.3337" stroke="#617792" stroke-width="2" stroke-miterlimit="10" stroke-linecap="round" stroke-linejoin="round"/>
<path d="M28.1895 21.0437L38.2629 31.1185H38.2641" stroke="#617792" stroke-width="2" stroke-miterlimit="10" stroke-linecap="round" stroke-linejoin="round"/>
<path d="M15.6497 32.3891C15.6497 33.994 14.3487 35.2949 12.7438 35.2949C11.1389 35.2949 9.83789 33.994 9.83789 32.3891C9.83789 30.7842 11.1389 29.4831 12.7438 29.4831C14.3487 29.4831 15.6497 30.7842 15.6497 32.3891Z" stroke="#617792" stroke-width="2" stroke-miterlimit="10" stroke-linecap="round" stroke-linejoin="round"/>
<path d="M29.0364 18.9931C29.0364 20.598 27.7354 21.8989 26.1306 21.8989C24.5256 21.8989 23.2246 20.598 23.2246 18.9931C23.2246 17.3882 24.5256 16.0871 26.1306 16.0871C27.7354 16.0871 29.0364 17.3882 29.0364 18.9931Z" stroke="#617792" stroke-width="2" stroke-miterlimit="10" stroke-linecap="round" stroke-linejoin="round"/>
<path d="M43.2239 33.1734C43.2239 34.7782 41.9229 36.0792 40.3179 36.0792C38.7131 36.0792 37.4121 34.7782 37.4121 33.1734C37.4121 31.5685 38.7131 30.2674 40.3179 30.2674C41.9229 30.2674 43.2239 31.5685 43.2239 33.1734Z" stroke="#617792" stroke-width="2" stroke-miterlimit="10" stroke-linecap="round" stroke-linejoin="round"/>
<path d="M60.1633 16.236C60.1633 17.8408 58.8623 19.1418 57.2574 19.1418C55.6526 19.1418 54.3516 17.8408 54.3516 16.236C54.3516 14.6311 55.6526 13.3301 57.2574 13.3301C58.8623 13.3301 60.1633 14.6311 60.1633 16.236Z" stroke="#617792" stroke-width="2" stroke-miterlimit="10" stroke-linecap="round" stroke-linejoin="round"/>
<path d="M16.9779 45.1855H10.2344C9.85689 45.1855 9.55078 44.8794 9.55078 44.502V41.7676C9.55078 41.3901 9.85689 41.084 10.2344 41.084H16.9779C17.3555 41.084 17.6615 41.3901 17.6615 41.7676V44.502C17.6615 44.8794 17.3555 45.1855 16.9779 45.1855Z" stroke="#617792" stroke-width="2" stroke-miterlimit="10" stroke-linecap="round" stroke-linejoin="round"/>
<path d="M31.2396 45.1855H24.4961C24.1186 45.1855 23.8125 44.8794 23.8125 44.502V41.7676C23.8125 41.3901 24.1186 41.084 24.4961 41.084H31.2396C31.6172 41.084 31.9232 41.3901 31.9232 41.7676V44.502C31.9232 44.8794 31.6172 45.1855 31.2396 45.1855Z" stroke="#617792" stroke-width="2" stroke-miterlimit="10" stroke-linecap="round" stroke-linejoin="round"/>
<path d="M45.5033 45.1855H38.7598C38.3821 45.1855 38.0762 44.8794 38.0762 44.502V41.7676C38.0762 41.3901 38.3821 41.084 38.7598 41.084H45.5033C45.8808 41.084 46.1869 41.3901 46.1869 41.7676V44.502C46.1869 44.8794 45.8808 45.1855 45.5033 45.1855Z" stroke="#617792" stroke-width="2" stroke-miterlimit="10" stroke-linecap="round" stroke-linejoin="round"/>
<path d="M59.767 45.1855H53.0234C52.6458 45.1855 52.3398 44.8794 52.3398 44.502V41.7676C52.3398 41.3901 52.6458 41.084 53.0234 41.084H59.767C60.1444 41.084 60.4505 41.3901 60.4505 41.7676V44.502C60.4505 44.8794 60.1444 45.1855 59.767 45.1855Z" stroke="#617792" stroke-width="2" stroke-miterlimit="10" stroke-linecap="round" stroke-linejoin="round"/>
</g>
</g>
<defs>
<clipPath id="clip0_1599_805">
<rect width="70" height="70" fill="white"/>
</clipPath>
</defs>
</svg>
