<svg width="70" height="70" viewBox="0 0 70 70" fill="none" xmlns="http://www.w3.org/2000/svg">
<path d="M42.1796 22.4575C41.5735 22.4575 41.0857 21.9699 41.0857 21.3636V16.7149H35.17C34.5639 16.7149 34.0762 16.2273 34.0762 15.6211C34.0762 15.0148 34.5638 14.5272 35.17 14.5272H42.1796C42.7857 14.5272 43.2734 15.0148 43.2734 15.6211V21.3636C43.2733 21.9653 42.7857 22.4575 42.1796 22.4575Z" fill="#617792"/>
<path d="M42.1793 63.4208H5.58213C4.97602 63.4208 4.48828 62.9332 4.48828 62.327V15.6167C4.48828 15.0106 4.97588 14.5228 5.58213 14.5228H12.5917C13.1978 14.5228 13.6856 15.0104 13.6856 15.6167C13.6856 16.2229 13.198 16.7105 12.5917 16.7105H6.67584V61.2287H41.0855V57.0814C41.0855 56.4753 41.5731 55.9875 42.1793 55.9875C42.7856 55.9875 43.2732 56.4751 43.2732 57.0814V62.3226C43.273 62.9287 42.7854 63.4208 42.1793 63.4208Z" fill="#617792"/>
<path d="M35.1701 18.734H12.5919C11.9858 18.734 11.498 18.2464 11.498 17.6402V9.48213C11.498 7.77761 12.8836 6.39209 14.5881 6.39209H17.8695C18.4756 6.39209 18.9633 6.87969 18.9633 7.48594C18.9633 8.09219 18.4758 8.57979 17.8695 8.57979H14.5881C14.0912 8.57979 13.6857 8.98543 13.6857 9.48213V16.5463H34.0762V9.48213C34.0762 8.98529 33.6706 8.57979 33.1739 8.57979H29.8925C29.2863 8.57979 28.7986 8.09219 28.7986 7.48594C28.7986 6.87969 29.2862 6.39209 29.8925 6.39209H33.1739C34.8784 6.39209 36.2639 7.77761 36.2639 9.48213V17.6402C36.2639 18.2463 35.7762 18.734 35.1701 18.734Z" fill="#617792"/>
<path d="M46.6739 67.9102H1.09385C0.487734 67.9102 0 67.4226 0 66.8163V11.1275C0 10.5214 0.487596 10.0337 1.09385 10.0337H12.5925C13.1986 10.0337 13.6864 10.5213 13.6864 11.1275C13.6864 11.7337 13.1988 12.2214 12.5925 12.2214H2.18756V65.7226H45.58V57.3002C45.58 56.6941 46.0676 56.2063 46.6739 56.2063C47.2801 56.2063 47.7677 56.6939 47.7677 57.3002V66.8163C47.7677 67.4179 47.2756 67.9102 46.6739 67.9102Z" fill="#617792"/>
<path d="M46.6732 22.2435C46.0671 22.2435 45.5794 21.7559 45.5794 21.1496V12.2214H35.17C34.5639 12.2214 34.0762 11.7338 34.0762 11.1275C34.0762 10.5214 34.5638 10.0337 35.17 10.0337H46.6687C47.2748 10.0337 47.7625 10.5213 47.7625 11.1275V21.1496C47.7671 21.7512 47.2749 22.2435 46.6732 22.2435Z" fill="#617792"/>
<path d="M29.894 10.9634H17.8712C17.2651 10.9634 16.7773 10.4758 16.7773 9.86958V3.18369C16.7773 2.57758 17.2649 2.08984 17.8712 2.08984H29.894C30.5001 2.08984 30.9879 2.57744 30.9879 3.18369V9.86958C30.9877 10.4757 30.5001 10.9634 29.894 10.9634ZM18.9649 8.77574H28.8002V4.27754H18.9649V8.77574Z" fill="#617792"/>
<path d="M31.8601 28.1408H20.3888C19.7827 28.1408 19.2949 27.6532 19.2949 27.047C19.2949 26.4409 19.7825 25.9531 20.3888 25.9531H31.8601C32.4662 25.9531 32.954 26.4407 32.954 27.047C32.9538 27.6532 32.4617 28.1408 31.8601 28.1408Z" fill="#617792"/>
<path d="M12.979 28.9657C12.6874 28.9657 12.4094 28.8518 12.2043 28.6467L10.7822 27.2248C10.3538 26.7964 10.3538 26.1036 10.7822 25.6798C11.2106 25.2559 11.9034 25.2514 12.3273 25.6798L12.9745 26.327L15.4948 23.8067C15.9233 23.3783 16.616 23.3783 17.0399 23.8067C17.4683 24.2351 17.4683 24.9278 17.0399 25.3517L13.7448 28.6467C13.5487 28.8472 13.2707 28.9657 12.979 28.9657Z" fill="#617792"/>
<path d="M27.4712 36.9733H20.3888C19.7827 36.9733 19.2949 36.4857 19.2949 35.8795C19.2949 35.2732 19.7825 34.7856 20.3888 34.7856H27.4712C28.0773 34.7856 28.565 35.2732 28.565 35.8795C28.565 36.4857 28.0729 36.9733 27.4712 36.9733Z" fill="#617792"/>
<path d="M12.9789 37.7937C12.6872 37.7937 12.4092 37.6798 12.2042 37.4747L10.7822 36.0528C10.3538 35.6244 10.3538 34.9316 10.7822 34.5078C11.2106 34.0794 11.9034 34.0794 12.3273 34.5078L12.9745 35.155L15.4948 32.6347C15.9233 32.2063 16.616 32.2063 17.0399 32.6347C17.4683 33.0631 17.4683 33.7558 17.0399 34.1797L13.7448 37.4747C13.5486 37.6798 13.2706 37.7937 12.9789 37.7937Z" fill="#617792"/>
<path d="M28.0045 45.8013H20.3888C19.7827 45.8013 19.2949 45.3138 19.2949 44.7075C19.2949 44.1012 19.7825 43.6136 20.3888 43.6136H28.0045C28.6106 43.6136 29.0983 44.1012 29.0983 44.7075C29.0983 45.3138 28.6107 45.8013 28.0045 45.8013Z" fill="#617792"/>
<path d="M12.979 46.6263C12.6874 46.6263 12.4094 46.5123 12.2043 46.3073L10.7822 44.8853C10.3538 44.4569 10.3538 43.7642 10.7822 43.3403C11.2106 42.9119 11.9034 42.9119 12.3273 43.3403L12.9745 43.9875L15.4948 41.4672C15.9233 41.0388 16.616 41.0388 17.0399 41.4672C17.4683 41.8956 17.4683 42.5883 17.0399 43.0122L13.7448 46.3073C13.5487 46.5123 13.2707 46.6263 12.979 46.6263Z" fill="#617792"/>
<path d="M34.1663 54.634H20.3888C19.7827 54.634 19.2949 54.1464 19.2949 53.5401C19.2949 52.9339 19.7825 52.4463 20.3888 52.4463H34.1663C34.7724 52.4463 35.2602 52.9339 35.2602 53.5401C35.2602 54.1464 34.7724 54.634 34.1663 54.634Z" fill="#617792"/>
<path d="M12.9789 55.4589C12.6872 55.4589 12.4092 55.3449 12.2042 55.1399L10.7822 53.718C10.3538 53.2896 10.3538 52.5968 10.7822 52.1729C11.2106 51.7445 11.9034 51.7445 12.3273 52.1729L12.9745 52.8202L15.4948 50.2998C15.9233 49.8714 16.616 49.8714 17.0399 50.2998C17.4683 50.7282 17.4683 51.421 17.0399 51.8448L13.7448 55.1399C13.5486 55.3404 13.2706 55.4589 12.9789 55.4589Z" fill="#617792"/>
<path d="M45.2882 58.444C42.695 58.444 40.1747 57.9335 37.8047 56.9308C35.5168 55.9646 33.4613 54.5791 31.6976 52.8108C29.9339 51.0471 28.5484 48.9916 27.5776 46.7037C26.575 44.3338 26.0645 41.818 26.0645 39.2202C26.0645 36.6225 26.575 34.1067 27.5776 31.7367C28.5438 29.4488 29.9294 27.3933 31.6976 25.6296C33.4659 23.8659 35.5168 22.4804 37.8047 21.5096C40.1747 20.507 42.6905 19.9965 45.2882 19.9965C47.886 19.9965 50.4018 20.507 52.7717 21.5096C55.0596 22.4758 57.1151 23.8614 58.8788 25.6296C60.6425 27.3933 62.0281 29.4488 62.9988 31.7367C64.0015 34.1067 64.512 36.6225 64.512 39.2202C64.512 41.818 64.0015 44.3338 62.9988 46.7037C62.0326 48.9916 60.6471 51.0471 58.8788 52.8108C57.1151 54.5745 55.0596 55.9601 52.7717 56.9308C50.4018 57.938 47.8814 58.444 45.2882 58.444ZM45.2882 22.1886C35.8952 22.1886 28.2566 29.8316 28.2566 39.2248C28.2566 48.618 35.8996 56.2564 45.2882 56.2564C54.6769 56.2564 62.3199 48.6134 62.3199 39.2248C62.3199 29.8361 54.6813 22.1886 45.2882 22.1886Z" fill="#617792"/>
<path d="M45.2885 52.3551C41.7792 52.3551 38.4841 50.9878 36.0047 48.5086C33.5254 46.0292 32.1582 42.7296 32.1582 39.2248C32.1582 35.72 33.5255 32.4204 36.0047 29.941C38.4841 27.4617 41.7837 26.0945 45.2885 26.0945C48.7933 26.0945 52.0929 27.4618 54.5723 29.941C57.0517 32.4204 58.4189 35.72 58.4189 39.2248C58.4189 42.7296 57.0515 46.0292 54.5723 48.5086C52.0929 50.9878 48.7977 52.3551 45.2885 52.3551ZM45.2885 28.282C42.3671 28.282 39.619 29.4214 37.5498 31.486C35.4851 33.5507 34.3458 36.2988 34.3458 39.2248C34.3458 42.1508 35.4851 44.8944 37.5498 46.9636C39.6144 49.0282 42.3625 50.1676 45.2885 50.1676C48.2145 50.1676 50.9581 49.0282 53.0273 46.9636C55.0965 44.8989 56.2313 42.1508 56.2313 39.2248C56.2313 36.2988 55.0919 33.5552 53.0273 31.486C50.9581 29.4216 48.2144 28.282 45.2885 28.282Z" fill="#617792"/>
<path d="M45.2888 46.2618C44.3499 46.2618 43.443 46.0841 42.5908 45.7331C41.7431 45.3822 40.9729 44.8671 40.312 44.2017C39.6466 43.5363 39.1317 42.7706 38.7807 41.9229C38.4298 41.0752 38.252 40.1683 38.252 39.2249C38.252 38.2814 38.4297 37.3791 38.7807 36.5268C39.1315 35.6791 39.6466 34.909 40.312 34.2481C40.9775 33.5826 41.7431 33.0677 42.5908 32.7167C43.4385 32.3658 44.3454 32.188 45.2888 32.188C46.2323 32.188 47.1346 32.3657 47.9869 32.7167C48.8346 33.0676 49.6048 33.5826 50.2657 34.2481C50.9311 34.9135 51.446 35.6791 51.797 36.5268C52.1479 37.3745 52.3257 38.2814 52.3257 39.2249C52.3257 40.1683 52.148 41.0707 51.797 41.9229C51.4462 42.7706 50.9311 43.5408 50.2657 44.2017C49.6002 44.8671 48.8346 45.3821 47.9869 45.7331C47.1392 46.0839 46.2322 46.2618 45.2888 46.2618ZM45.2888 34.3711C44.6371 34.3711 44.0127 34.4942 43.4294 34.7358C42.846 34.9774 42.3173 35.3328 41.857 35.7931C41.3968 36.2534 41.0412 36.7821 40.7998 37.3654C40.5582 37.9488 40.4351 38.5732 40.4351 39.2249C40.4351 39.8765 40.5582 40.501 40.7998 41.0843C41.0414 41.6677 41.3968 42.1964 41.857 42.6567C42.3173 43.117 42.846 43.4725 43.4294 43.714C44.0127 43.9554 44.6372 44.0786 45.2888 44.0786C45.9406 44.0786 46.565 43.9556 47.1483 43.714C47.7317 43.4724 48.2604 43.117 48.7206 42.6567C49.1809 42.1964 49.5365 41.6677 49.7779 41.0843C50.0195 40.501 50.1426 39.8765 50.1426 39.2249C50.1426 38.5732 50.0195 37.9488 49.7779 37.3654C49.5363 36.7821 49.1809 36.2534 48.7206 35.7931C48.2604 35.3328 47.7317 34.9772 47.1483 34.7358C46.565 34.4943 45.9405 34.3711 45.2888 34.3711Z" fill="#617792"/>
<path d="M45.2876 40.3187C45.0096 40.3187 44.727 40.2138 44.5127 39.9997C44.0843 39.5713 44.0843 38.8785 44.5127 38.4547L61.5899 21.3729C62.0183 20.9445 62.7111 20.9445 63.1349 21.3729C63.5633 21.8013 63.5633 22.4941 63.1349 22.918L46.0577 39.995C45.8482 40.2093 45.5701 40.3187 45.2876 40.3187Z" fill="#617792"/>
<path d="M62.3652 23.2415C62.0781 23.2415 61.7955 23.1275 61.5904 22.9225C61.3715 22.7037 61.2532 22.3983 61.2714 22.0839L61.4627 18.8298C61.4764 18.5609 61.5904 18.3102 61.7817 18.1188L65.0722 14.8283C65.3912 14.5093 65.879 14.4181 66.2937 14.6049C66.7085 14.7918 66.9637 15.2156 66.9364 15.6669L66.8179 17.6904L68.8414 17.5719C69.2971 17.5446 69.7164 17.7998 69.9034 18.2146C70.0902 18.6293 69.9991 19.1169 69.68 19.4361L66.3895 22.7266C66.1981 22.9179 65.9474 23.0274 65.6785 23.0456L62.4244 23.2369C62.4109 23.2415 62.3881 23.2415 62.3652 23.2415ZM63.6231 19.372L63.5274 20.9808L65.1361 20.885L66.0978 19.9234L65.7149 19.9461C65.4005 19.9644 65.0997 19.8504 64.8763 19.6272C64.6575 19.4083 64.5391 19.103 64.5573 18.7886L64.5801 18.4057L63.6231 19.372Z" fill="#617792"/>
</svg>
