<svg width="70" height="70" viewBox="0 0 70 70" fill="none" xmlns="http://www.w3.org/2000/svg">
<path d="M58.8353 45.5269H53.1464C52.5424 45.5269 52.0527 46.0167 52.0527 46.6207V62.7892C52.0527 63.3932 52.5424 63.8829 53.1464 63.8829H58.8353C59.4393 63.8829 59.929 63.3932 59.929 62.7892V46.6207C59.929 46.0167 59.4393 45.5269 58.8353 45.5269ZM57.7415 61.6953H54.2402V47.7144H57.7415V61.6953ZM48.9009 40.8043H43.212C42.608 40.8043 42.1183 41.294 42.1183 41.898V62.7892C42.1183 63.3932 42.608 63.8829 43.212 63.8829H48.9009C49.5049 63.8829 49.9946 63.3932 49.9946 62.7892V41.898C49.9946 41.294 49.5049 40.8043 48.9009 40.8043ZM47.8071 61.6953H44.3058V42.9918H47.8071V61.6953ZM38.9665 51.7859H33.2776C32.6736 51.7859 32.1839 52.2756 32.1839 52.8797V62.789C32.1839 63.3931 32.6736 63.8828 33.2776 63.8828H38.9665C39.5705 63.8828 40.0602 63.3931 40.0602 62.789V52.8797C40.0602 52.2756 39.5705 51.7859 38.9665 51.7859ZM37.8727 61.6953H34.3714V53.9734H37.8727V61.6953ZM68.7695 36.3547H63.0807C62.4766 36.3547 61.9869 36.8445 61.9869 37.4485V62.7892C61.9869 63.3932 62.4766 63.8829 63.0807 63.8829H68.7695C69.3736 63.8829 69.8633 63.3932 69.8633 62.7892V37.4485C69.8633 36.8445 69.3737 36.3547 68.7695 36.3547ZM67.6758 61.6953H64.1744V38.5422H67.6758V61.6953ZM55.8828 37.0378L63.5473 29.9612L62.1127 29.8937C61.5092 29.8653 61.0431 29.3531 61.0716 28.7496C61.1 28.1463 61.612 27.6806 62.2156 27.7087L66.4033 27.9059C66.7183 27.9207 67.0115 28.0708 67.2078 28.3176C67.4041 28.5644 67.4842 28.8839 67.4279 29.194L66.6786 33.3188C66.5826 33.8469 66.1221 34.2171 65.6037 34.2171C65.5387 34.2171 65.473 34.2114 65.4069 34.1994C64.8126 34.0914 64.4185 33.5221 64.5263 32.9278L64.7213 31.8545L56.7327 39.2303C56.3609 39.5736 55.8023 39.617 55.3819 39.3353L46.2986 33.2484L36.989 45.3525C36.7735 45.6326 36.4492 45.7795 36.1212 45.7795C35.8885 45.7795 35.6541 45.7055 35.4551 45.5526C34.9763 45.1845 34.8868 44.4977 35.255 44.0189L45.1894 31.1026C45.5409 30.6458 46.1865 30.5401 46.6653 30.8607L55.8828 37.0378ZM26.9667 42.2241C26.9667 42.8281 26.477 43.3178 25.8729 43.3178H12.0192C11.4152 43.3178 10.9255 42.8281 10.9255 42.2241C10.9255 41.6201 11.4152 41.1303 12.0192 41.1303H25.8729C26.477 41.1303 26.9667 41.6201 26.9667 42.2241ZM26.9667 37.5318C26.9667 38.1358 26.477 38.6255 25.8729 38.6255H12.0192C11.4152 38.6255 10.9255 38.1358 10.9255 37.5318C10.9255 36.9277 11.4152 36.438 12.0192 36.438H25.8729C26.477 36.438 26.9667 36.9277 26.9667 37.5318ZM14.0633 5.6026C6.38422 5.6026 0.136719 11.85 0.136719 19.529C0.136719 27.2081 6.38408 33.4554 14.0632 33.4554C21.7422 33.4554 27.9896 27.2081 27.9896 19.529C27.9896 11.85 21.7424 5.6026 14.0633 5.6026ZM9.77115 19.529C9.77115 17.1623 11.6966 15.2368 14.0633 15.2368C16.43 15.2368 18.3554 17.1623 18.3554 19.529C18.3554 21.8958 16.43 23.8212 14.0633 23.8212C11.6966 23.8212 9.77115 21.8958 9.77115 19.529ZM2.32422 19.529C2.32422 13.4251 7.00766 8.39645 12.9694 7.84273V13.1435C9.9158 13.665 7.58352 16.3289 7.58352 19.529C7.58352 21.2494 8.25877 22.8141 9.35648 23.9754L6.17367 28.2141C3.81021 26.0653 2.32422 22.9675 2.32422 19.529ZM14.0633 31.268C11.8135 31.268 9.71018 30.6306 7.9223 29.5287L11.1044 25.2909C11.9921 25.7487 12.9976 26.0088 14.0632 26.0088C16.3334 26.0088 18.3333 24.8343 19.4909 23.062L24.359 25.1621C22.362 28.7976 18.496 31.268 14.0633 31.268ZM25.2268 23.1539L20.3599 21.0543C20.4784 20.5648 20.5429 20.0545 20.5429 19.529C20.5429 16.329 18.2107 13.665 15.1569 13.1435V7.84287C21.1187 8.39645 25.8021 13.4251 25.8021 19.5292C25.8021 20.7938 25.5987 22.0114 25.2268 23.1539ZM33.7166 13.5346C33.7166 12.9306 34.2063 12.4409 34.8104 12.4409H52.6863C53.2904 12.4409 53.7801 12.9306 53.7801 13.5346C53.7801 14.1386 53.2904 14.6284 52.6863 14.6284H34.8104C34.2062 14.6284 33.7166 14.1386 33.7166 13.5346ZM33.7166 19.529C33.7166 18.925 34.2063 18.4353 34.8104 18.4353H52.6863C53.2904 18.4353 53.7801 18.925 53.7801 19.529C53.7801 20.1331 53.2904 20.6228 52.6863 20.6228H34.8104C34.2062 20.6228 33.7166 20.1331 33.7166 19.529ZM33.7166 25.5236C33.7166 24.9196 34.2063 24.4299 34.8104 24.4299H52.6863C53.2904 24.4299 53.7801 24.9196 53.7801 25.5236C53.7801 26.1276 53.2904 26.6174 52.6863 26.6174H34.8104C34.2062 26.6174 33.7166 26.1276 33.7166 25.5236ZM6.95187 35.9234H1.23047C0.626445 35.9234 0.136719 36.4131 0.136719 37.0171V42.7387C0.136719 43.3427 0.626445 43.8324 1.23047 43.8324H6.95201C7.55604 43.8324 8.04576 43.3427 8.04576 42.7387V37.0171C8.04562 36.4131 7.55604 35.9234 6.95187 35.9234ZM5.85812 41.6449H2.32422V38.1109H5.85826L5.85812 41.6449ZM26.9667 52.5066C26.9667 53.1106 26.477 53.6003 25.8729 53.6003H12.0192C11.4152 53.6003 10.9255 53.1106 10.9255 52.5066C10.9255 51.9025 11.4152 51.4128 12.0192 51.4128H25.8729C26.477 51.4128 26.9667 51.9025 26.9667 52.5066ZM26.9667 47.8142C26.9667 48.4183 26.477 48.908 25.8729 48.908H12.0192C11.4152 48.908 10.9255 48.4183 10.9255 47.8142C10.9255 47.2102 11.4152 46.7205 12.0192 46.7205H25.8729C26.477 46.7205 26.9667 47.2102 26.9667 47.8142ZM6.95187 46.2059H1.23047C0.626445 46.2059 0.136719 46.6956 0.136719 47.2996V53.0212C0.136719 53.6252 0.626445 54.1149 1.23047 54.1149H6.95201C7.55604 54.1149 8.04576 53.6252 8.04576 53.0212V47.2996C8.04562 46.6956 7.55604 46.2059 6.95187 46.2059ZM5.85812 51.9274H2.32422V48.3934H5.85826L5.85812 51.9274ZM26.9667 58.0967C26.9667 58.7007 26.477 59.1905 25.8729 59.1905H12.0192C11.4152 59.1905 10.9255 58.7007 10.9255 58.0967C10.9255 57.4927 11.4152 57.003 12.0192 57.003H25.8729C26.477 57.003 26.9667 57.4927 26.9667 58.0967ZM26.9667 62.789C26.9667 63.3931 26.477 63.8828 25.8729 63.8828H12.0192C11.4152 63.8828 10.9255 63.3931 10.9255 62.789C10.9255 62.185 11.4152 61.6953 12.0192 61.6953H25.8729C26.477 61.6953 26.9667 62.185 26.9667 62.789ZM6.95187 56.4884H1.23047C0.626445 56.4884 0.136719 56.9781 0.136719 57.5821V63.3037C0.136719 63.9077 0.626445 64.3974 1.23047 64.3974H6.95201C7.55604 64.3974 8.04576 63.9077 8.04576 63.3037V57.5821C8.04562 56.9781 7.55604 56.4884 6.95187 56.4884ZM5.85812 62.2099H2.32422V58.6759H5.85826L5.85812 62.2099Z" fill="#617792"/>
</svg>
