<svg width="70" height="70" viewBox="0 0 70 70" fill="none" xmlns="http://www.w3.org/2000/svg">
<path d="M42.0559 17.9462H37.9062L36.6145 13.7812C36.511 13.4335 36.2979 13.1284 36.007 12.9115C35.7161 12.6946 35.363 12.5774 35.0001 12.5774C34.6373 12.5774 34.2841 12.6946 33.9932 12.9115C33.7023 13.1284 33.4893 13.4335 33.3858 13.7812L32.094 17.9462H27.9443C27.5885 17.9446 27.2414 18.0564 26.9535 18.2655C26.6655 18.4746 26.4517 18.77 26.3431 19.1089C26.2257 19.4523 26.2192 19.8239 26.3244 20.1713C26.4295 20.5187 26.6412 20.8242 26.9293 21.0448L30.3298 23.6315L29.025 27.8359C28.914 28.1866 28.9178 28.5636 29.0358 28.9119C29.1538 29.2603 29.3799 29.562 29.6812 29.773C29.9712 29.976 30.3183 30.0815 30.6722 30.0742C31.0261 30.067 31.3686 29.9473 31.65 29.7325L35.0001 27.1851L38.3481 29.7325C38.6297 29.9468 38.9721 30.0662 39.3259 30.0735C39.6797 30.0807 40.0267 29.9755 40.3168 29.773C40.6181 29.5621 40.8441 29.2607 40.9622 28.9125C41.0802 28.5643 41.084 28.1875 40.9731 27.837L39.6704 23.6315L43.0709 21.0448C43.3591 20.8242 43.5707 20.5187 43.6759 20.1713C43.7811 19.8239 43.7745 19.4523 43.6572 19.1089C43.5486 18.77 43.3347 18.4746 43.0468 18.2655C42.7589 18.0564 42.4118 17.9446 42.0559 17.9462ZM37.7345 22.354C37.5559 22.4898 37.4234 22.6773 37.3549 22.8909C37.2864 23.1046 37.2853 23.3341 37.3517 23.5484L38.44 27.055L35.6564 24.9375C35.4661 24.7929 35.2337 24.7146 34.9947 24.7146C34.7557 24.7146 34.5232 24.7929 34.3329 24.9375L31.5526 27.0517L32.6409 23.5451C32.7073 23.3308 32.7062 23.1013 32.6377 22.8876C32.5692 22.674 32.4367 22.4865 32.2581 22.3508L29.3389 20.1305H32.8936C33.1265 20.1307 33.3535 20.0566 33.5413 19.9189C33.7292 19.7811 33.8682 19.587 33.9381 19.3648L35.0001 15.9611L36.0567 19.3648C36.1266 19.587 36.2656 19.7811 36.4535 19.9189C36.6413 20.0566 36.8683 20.1307 37.1012 20.1305H40.6559L37.7345 22.354Z" fill="#617792"/>
<path d="M61.7434 17.9462H57.5937L56.302 13.7812C56.1985 13.4335 55.9854 13.1284 55.6945 12.9115C55.4037 12.6946 55.0505 12.5774 54.6876 12.5774C54.3248 12.5774 53.9716 12.6946 53.6807 12.9115C53.3898 13.1284 53.1768 13.4335 53.0733 13.7812L51.7815 17.9462H47.6318C47.276 17.9446 46.9289 18.0564 46.641 18.2655C46.353 18.4746 46.1392 18.77 46.0306 19.1089C45.9132 19.4523 45.9067 19.8239 46.0119 20.1713C46.117 20.5187 46.3287 20.8242 46.6168 21.0448L50.0173 23.6315L48.7125 27.8359C48.6015 28.1866 48.6053 28.5636 48.7233 28.9119C48.8413 29.2603 49.0674 29.562 49.3687 29.773C49.6587 29.976 50.0058 30.0815 50.3597 30.0742C50.7136 30.067 51.0561 29.9473 51.3375 29.7325L54.6876 27.1851L58.0356 29.7325C58.3172 29.9468 58.6596 30.0662 59.0134 30.0735C59.3672 30.0807 59.7142 29.9755 60.0043 29.773C60.3056 29.5621 60.5316 29.2607 60.6497 28.9125C60.7677 28.5643 60.7715 28.1875 60.6606 27.837L59.3579 23.6315L62.7584 21.0448C63.0466 20.8242 63.2582 20.5187 63.3634 20.1713C63.4686 19.8239 63.462 19.4523 63.3447 19.1089C63.2361 18.77 63.0222 18.4746 62.7343 18.2655C62.4464 18.0564 62.0993 17.9446 61.7434 17.9462ZM57.422 22.354C57.2434 22.4898 57.1109 22.6773 57.0424 22.8909C56.9739 23.1046 56.9728 23.3341 57.0392 23.5484L58.1275 27.055L55.3493 24.9375C55.1591 24.7929 54.9266 24.7146 54.6876 24.7146C54.4486 24.7146 54.2162 24.7929 54.0259 24.9375L51.2456 27.0517L52.3339 23.5451C52.4003 23.3308 52.3992 23.1013 52.3307 22.8876C52.2622 22.674 52.1297 22.4865 51.9511 22.3508L49.0318 20.1305H52.5865C52.8195 20.1307 53.0464 20.0566 53.2343 19.9189C53.4222 19.7811 53.5612 19.587 53.6311 19.3648L54.6876 15.9611L55.7442 19.3648C55.8141 19.587 55.9531 19.7811 56.141 19.9189C56.3288 20.0566 56.5558 20.1307 56.7887 20.1305H60.3434L57.422 22.354Z" fill="#617792"/>
<path d="M22.3684 17.9462H18.2187L16.927 13.7812C16.8235 13.4335 16.6104 13.1284 16.3195 12.9115C16.0286 12.6946 15.6755 12.5774 15.3126 12.5774C14.9498 12.5774 14.5966 12.6946 14.3057 12.9115C14.0148 13.1284 13.8018 13.4335 13.6983 13.7812L12.4065 17.9462H8.25685C7.901 17.9446 7.55391 18.0564 7.26596 18.2655C6.97801 18.4746 6.76421 18.77 6.6556 19.1089C6.53823 19.4523 6.53167 19.8239 6.63686 20.1713C6.74205 20.5187 6.95367 20.8242 7.24185 21.0448L10.6423 23.6315L9.33747 27.8359C9.22647 28.1866 9.23026 28.5636 9.34829 28.9119C9.46632 29.2603 9.69243 29.562 9.99372 29.773C10.2837 29.976 10.6308 30.0815 10.9847 30.0742C11.3386 30.067 11.6811 29.9473 11.9625 29.7325L15.3126 27.1851L18.6606 29.7325C18.9422 29.9468 19.2846 30.0662 19.6384 30.0735C19.9922 30.0807 20.3392 29.9755 20.6293 29.773C20.9306 29.5621 21.1566 29.2607 21.2747 28.9125C21.3927 28.5643 21.3965 28.1875 21.2856 27.837L19.9829 23.6315L23.3834 21.0448C23.6716 20.8242 23.8832 20.5187 23.9884 20.1713C24.0936 19.8239 24.087 19.4523 23.9697 19.1089C23.8611 18.77 23.6472 18.4746 23.3593 18.2655C23.0714 18.0564 22.7243 17.9446 22.3684 17.9462ZM18.047 22.354C17.8684 22.4898 17.7359 22.6773 17.6674 22.8909C17.5989 23.1046 17.5978 23.3341 17.6642 23.5484L18.7525 27.055L15.9743 24.9375C15.784 24.7929 15.5516 24.7146 15.3126 24.7146C15.0736 24.7146 14.8412 24.7929 14.6509 24.9375L11.8706 27.0517L12.9643 23.5451C13.0307 23.3308 13.0296 23.1013 12.9611 22.8876C12.8927 22.674 12.7601 22.4865 12.5815 22.3508L9.66232 20.1305H13.217C13.4499 20.1307 13.6769 20.0566 13.8648 19.9189C14.0526 19.7811 14.1917 19.587 14.2615 19.3648L15.3126 15.9611L16.3692 19.3648C16.4391 19.587 16.5781 19.7811 16.766 19.9189C16.9538 20.0566 17.1808 20.1307 17.4137 20.1305H20.9684L18.047 22.354Z" fill="#617792"/>
<path d="M67.8125 31.1719V11.4844C67.8097 10.8082 67.598 10.1493 67.2065 9.59799C66.8149 9.04666 66.2626 8.62978 65.625 8.40438V7.10938C65.625 6.23913 65.2793 5.40453 64.6639 4.78918C64.0486 4.17383 63.214 3.82813 62.3438 3.82812H7.65625C6.78601 3.82813 5.95141 4.17383 5.33606 4.78918C4.7207 5.40453 4.375 6.23913 4.375 7.10938V8.40438C3.73744 8.62978 3.1851 9.04666 2.79353 9.59799C2.40197 10.1493 2.1903 10.8082 2.1875 11.4844V31.1719C2.1875 32.0421 2.5332 32.8767 3.14856 33.4921C3.76391 34.1074 4.59851 34.4531 5.46875 34.4531H29.5312C29.6759 34.4535 29.818 34.4912 29.9438 34.5624C30.0697 34.6337 30.1751 34.7362 30.2498 34.86L32.4056 38.453C32.6744 38.901 33.0546 39.2719 33.5093 39.5293C33.9639 39.7868 34.4775 39.9221 35 39.9221C35.5225 39.9221 36.0361 39.7868 36.4907 39.5293C36.9454 39.2719 37.3256 38.901 37.5944 38.453L39.7502 34.86C39.8249 34.7362 39.9303 34.6337 40.0562 34.5624C40.182 34.4912 40.3241 34.4535 40.4688 34.4531H64.5312C65.4015 34.4531 66.2361 34.1074 66.8514 33.4921C67.4668 32.8767 67.8125 32.0421 67.8125 31.1719ZM6.5625 7.10938C6.5625 6.81929 6.67773 6.5411 6.88285 6.33598C7.08797 6.13086 7.36617 6.01562 7.65625 6.01562H62.3438C62.6338 6.01562 62.912 6.13086 63.1171 6.33598C63.3223 6.5411 63.4375 6.81929 63.4375 7.10938V8.20312H6.5625V7.10938ZM37.8744 33.7345L35.7186 37.3275C35.638 37.4435 35.5306 37.5382 35.4055 37.6036C35.2803 37.6691 35.1412 37.7033 35 37.7033C34.8588 37.7033 34.7197 37.6691 34.5945 37.6036C34.4694 37.5382 34.362 37.4435 34.2814 37.3275L32.1256 33.7345C31.8556 33.2876 31.4751 32.9177 31.0207 32.6604C30.5664 32.4032 30.0534 32.2672 29.5312 32.2656H5.46875C5.17867 32.2656 4.90047 32.1504 4.69535 31.9453C4.49023 31.7402 4.375 31.462 4.375 31.1719V11.4844C4.375 11.1943 4.49023 10.9161 4.69535 10.711C4.90047 10.5059 5.17867 10.3906 5.46875 10.3906H64.5312C64.8213 10.3906 65.0995 10.5059 65.3046 10.711C65.5098 10.9161 65.625 11.1943 65.625 11.4844V31.1719C65.625 31.462 65.5098 31.7402 65.3046 31.9453C65.0995 32.1504 64.8213 32.2656 64.5312 32.2656H40.4688C39.9466 32.2672 39.4336 32.4032 38.9793 32.6604C38.5249 32.9177 38.1444 33.2876 37.8744 33.7345Z" fill="#617792"/>
<path d="M25.1563 51.9531C25.1561 53.2648 25.4189 54.5631 25.9291 55.7715C26.4393 56.9798 27.1867 58.0736 28.1269 58.9881C28.1477 59.0089 28.1695 59.0264 28.1914 59.0461C30.0187 60.8108 32.4597 61.797 35 61.797C37.5403 61.797 39.9813 60.8108 41.8086 59.0461C41.8305 59.0264 41.8524 59.0089 41.8731 58.9881C43.0361 57.8538 43.9003 56.4494 44.3885 54.9C44.8768 53.3506 44.9741 51.7044 44.6716 50.1083C44.3691 48.5122 43.6763 47.0157 42.655 45.7524C41.6337 44.4891 40.3156 43.4982 38.8182 42.8681C37.3209 42.238 35.6909 41.9882 34.0736 42.1411C32.4563 42.294 30.9019 42.8448 29.5492 43.7443C28.1965 44.6439 27.0874 45.8642 26.3209 47.2965C25.5544 48.7288 25.1543 50.3286 25.1563 51.9531ZM35 59.6094C33.2845 59.6106 31.6187 59.0325 30.2728 57.9687C30.752 57.139 31.4411 56.4501 32.2709 55.9711C33.1007 55.4921 34.0419 55.2399 35 55.2399C35.9581 55.2399 36.8994 55.4921 37.7291 55.9711C38.5589 56.4501 39.248 57.139 39.7272 57.9687C38.3813 59.0325 36.7156 59.6106 35 59.6094ZM32.8125 50.8594C32.8125 50.4267 32.9408 50.0038 33.1812 49.6441C33.4215 49.2843 33.7632 49.0039 34.1629 48.8384C34.5626 48.6728 35.0024 48.6295 35.4268 48.7139C35.8511 48.7983 36.2409 49.0066 36.5468 49.3126C36.8527 49.6185 37.0611 50.0083 37.1455 50.4326C37.2299 50.8569 37.1866 51.2968 37.021 51.6965C36.8554 52.0962 36.5751 52.4378 36.2153 52.6782C35.8556 52.9186 35.4327 53.0469 35 53.0469C34.4198 53.0469 33.8634 52.8164 33.4532 52.4062C33.043 51.9959 32.8125 51.4395 32.8125 50.8594ZM35 44.2969C36.4007 44.2951 37.7749 44.6781 38.9728 45.4041C40.1706 46.1301 41.1461 47.1712 41.7926 48.4137C42.4391 49.6563 42.732 51.0525 42.6391 52.4501C42.5463 53.8477 42.0713 55.193 41.2661 56.339C40.5045 55.2292 39.4615 54.3418 38.2441 53.7676C38.8122 53.1398 39.1859 52.3606 39.3199 51.5246C39.4539 50.6885 39.3424 49.8316 38.999 49.0577C38.6555 48.2837 38.0949 47.6261 37.3851 47.1645C36.6752 46.7029 35.8467 46.4572 35 46.4572C34.1533 46.4572 33.3248 46.7029 32.615 47.1645C31.9051 47.6261 31.3445 48.2837 31.0011 49.0577C30.6576 49.8316 30.5461 50.6885 30.6801 51.5246C30.8141 52.3606 31.1878 53.1398 31.7559 53.7676C30.5385 54.3418 29.4956 55.2292 28.7339 56.339C27.9287 55.193 27.4537 53.8477 27.3609 52.4501C27.268 51.0525 27.5609 49.6563 28.2074 48.4137C28.854 47.1712 29.8294 46.1301 31.0272 45.4041C32.2251 44.6781 33.5993 44.2951 35 44.2969Z" fill="#617792"/>
<path d="M29.062 39.0272C26.1153 40.3815 23.7201 42.7025 22.2737 45.6052C20.8273 48.5079 20.4167 51.8178 21.1099 54.9859C21.8031 58.154 23.5585 60.99 26.0849 63.0234C28.6113 65.0568 31.7569 66.1654 35 66.1654C38.2431 66.1654 41.3887 65.0568 43.9151 63.0234C46.4416 60.99 48.197 58.154 48.8902 54.9859C49.5834 51.8178 49.1727 48.5079 47.7263 45.6052C46.2799 42.7025 43.8847 40.3815 40.938 39.0272C40.8076 38.967 40.6666 38.9331 40.523 38.9274C40.3795 38.9217 40.2363 38.9443 40.1015 38.994C39.9667 39.0436 39.8431 39.1194 39.7376 39.2168C39.632 39.3143 39.5468 39.4316 39.4866 39.562C39.4264 39.6924 39.3925 39.8334 39.3868 39.9769C39.3811 40.1205 39.4037 40.2637 39.4534 40.3985C39.5031 40.5332 39.5788 40.6569 39.6763 40.7624C39.7737 40.8679 39.891 40.9532 40.0214 41.0134C42.5154 42.1588 44.5428 44.1225 45.7673 46.5786C46.9918 49.0347 47.3398 51.8356 46.7536 54.5167C46.1673 57.1978 44.6821 59.5979 42.5442 61.3188C40.4064 63.0396 37.7444 63.9779 35 63.9779C32.2556 63.9779 29.5936 63.0396 27.4558 61.3188C25.318 59.5979 23.8327 57.1978 23.2465 54.5167C22.6602 51.8356 23.0082 49.0347 24.2327 46.5786C25.4572 44.1225 27.4846 42.1588 29.9786 41.0134C30.242 40.8919 30.4463 40.6707 30.5466 40.3985C30.6469 40.1263 30.635 39.8254 30.5135 39.562C30.3919 39.2986 30.1707 39.0943 29.8985 38.994C29.6263 38.8937 29.3254 38.9056 29.062 39.0272Z" fill="#617792"/>
</svg>
