<svg width="40" height="40" viewBox="0 0 40 40" fill="none" xmlns="http://www.w3.org/2000/svg">
<g clip-path="url(#clip0_1599_3293)">
<path fill-rule="evenodd" clip-rule="evenodd" d="M1.24984 37.8128C1.24984 37.249 1.64376 36.6408 2.18744 36.6408H37.8123C38.8801 36.6408 38.7499 38.1491 38.7499 38.7502H1.25006V37.8126L1.24984 37.8128ZM39.9998 15.4092V17.0315C39.9998 18.8465 38.0601 21.0538 36.2498 21.0939V35.3127H37.6561C38.908 35.3127 39.9998 36.3389 39.9998 37.5782V39.536C39.9547 39.6849 39.8625 39.804 39.6873 40H0.46869C0.274072 39.9879 0.232113 39.8951 0 39.6875V37.5438C0.0642775 36.9178 0.255324 36.3712 0.76017 35.9164C1.59422 35.1651 2.60458 35.3124 3.74997 35.3124V21.0937C1.94172 21.0533 0 18.8483 0 17.0313V15.7565C0.033701 14.9711 0.226533 14.5053 1.1407 13.0157C1.64644 12.192 3.00653 9.13432 3.49352 8.49355C4.41617 7.27965 5.84724 7.42182 7.26558 7.42182C7.24528 7.17743 7.18747 7.14417 7.18747 6.87501V1.79687C7.18747 0.884485 8.1715 0 8.82811 0H31.1719C31.8285 0 32.8125 0.884485 32.8125 1.79687V6.87501C32.8125 7.1444 32.7547 7.17743 32.7344 7.42182C33.7394 7.42182 34.7092 7.31335 35.5992 7.76017C36.7913 8.35853 36.9154 9.38228 37.7333 10.7823L39.4795 14.1924C39.8268 14.8867 39.9569 15.1135 40 15.409L39.9998 15.4092ZM8.74977 23.9065H15.078V35.3129H8.74977V23.9065V23.9065ZM7.42159 23.2816V35.3129H5.07792V21.1723C5.47586 21.0794 5.7448 21.035 6.11796 20.8841C6.6766 20.6583 6.90402 20.53 7.35843 20.1715C7.64031 19.9492 8.19471 19.3866 8.28108 19.063C8.59912 19.1478 8.42883 19.1277 8.65291 19.3944C9.71349 20.6558 10.6457 21.1725 12.5 21.1725C13.7601 21.1725 14.7247 20.5454 15.4882 19.7856L16.1718 18.9848C16.4213 19.9195 18.3697 21.1723 19.7655 21.1723C21.1252 21.1723 22.3282 20.7634 23.2251 19.8662C23.3568 19.7345 23.3907 19.637 23.5347 19.4727C23.6742 19.3136 23.7699 19.202 23.828 18.9848C24.2962 19.3279 24.9419 21.1723 27.9685 21.1723C29.4525 21.1723 30.4633 20.4306 31.3087 19.4343C31.585 19.1087 31.4645 19.1308 31.7185 19.063C31.9062 19.766 33.1531 20.5898 33.8816 20.8841C34.2548 21.035 34.5235 21.0794 34.9216 21.1723V35.3129H16.3278V23.2035C16.3278 22.8256 16.0807 22.5786 15.7029 22.5786H8.12485C7.73874 22.5786 7.42181 22.8955 7.42181 23.2816H7.42159ZM1.24962 16.4066V15.7036H38.7495C38.7495 17.4214 38.5651 18.7195 36.9008 19.558C36.646 19.6863 36.6053 19.7301 36.284 19.8006C34.6866 20.1512 33.0966 19.3788 32.5291 17.9394C32.0593 16.7479 32.4945 16.6443 32.0693 16.2118C31.92 16.06 31.8252 16.016 31.6399 16.016C30.3635 16.016 31.691 18.1753 29.3232 19.4805C29.0849 19.612 28.9059 19.6785 28.6633 19.7582C27.9279 19.9997 26.9231 19.9238 26.2498 19.5312C25.8811 19.3165 25.447 18.996 25.1854 18.6425C24.2601 17.3917 24.8207 16.016 23.9056 16.016C22.6366 16.016 23.8911 18.2115 21.589 19.4805C21.1689 19.712 20.5157 19.8865 20.0693 19.92C20.0073 19.9247 19.36 19.8405 19.2466 19.8155C19.0087 19.7629 18.6889 19.6225 18.5132 19.5332C16.129 18.3197 17.3051 16.016 16.1711 16.016C15.3297 16.016 15.5038 16.8735 15.4241 17.2221C15.2797 17.8542 15.1583 18.1477 14.8302 18.5813C12.9791 21.0283 9.45191 19.7595 9.07718 17.2507C8.98501 16.6347 9.08209 16.016 8.35875 16.016C7.1127 16.016 8.51699 17.7096 6.29651 19.3444C5.01587 20.2874 3.44331 19.9278 2.29435 19.0335C2.14638 18.9183 2.20463 18.9614 2.10732 18.8297C1.54891 18.0736 1.24917 17.5928 1.24917 16.4066H1.24962ZM17.7339 8.75044H22.2652L22.8984 12.9611C22.954 13.3829 23.0901 13.9603 23.1245 14.3756H16.8746L17.7339 8.75066V8.75044ZM23.5932 8.75044H28.437L30.6244 14.3754H24.6089C24.2955 14.3754 24.3775 13.923 24.2375 13.1061C24.1514 12.604 24.1003 12.1891 24.015 11.688L23.5934 8.75044H23.5932ZM15.39 14.3754H9.37447C9.39589 14.1183 9.52266 13.8835 9.60881 13.6724C9.70813 13.4284 9.78892 13.2133 9.89739 12.9454L11.5619 8.75066H16.4057L15.656 13.7824C15.6074 14.0855 15.7183 14.3756 15.39 14.3756V14.3754ZM29.843 8.75044C30.5735 8.75044 34.3692 8.64755 34.8922 8.85757C35.6244 9.15128 35.8336 9.96747 36.3264 10.939L38.1243 14.3754H32.0307L29.8433 8.75044H29.843ZM7.96817 14.3754H1.87454C2.27315 13.6221 2.66127 12.8803 3.04648 12.1098L4.24477 9.79249C4.48224 9.31644 4.54071 9.10039 5.05136 8.88033C5.6303 8.63081 9.36286 8.75066 10.1561 8.75066L9.06223 11.5632C8.87252 12.0293 8.69353 12.4783 8.50449 12.9588C8.34246 13.3708 8.07374 13.9232 7.9684 14.3758L7.96817 14.3754ZM8.43686 6.64111V2.03166C8.43686 1.59288 8.77923 1.25029 9.21824 1.25029H30.7806C31.2194 1.25029 31.562 1.59265 31.562 2.03166V6.64111C31.562 7.03593 31.2801 7.42226 30.859 7.42226H9.14034C8.71897 7.42226 8.43731 7.03593 8.43731 6.64111H8.43686Z" fill="#617792"/>
<path fill-rule="evenodd" clip-rule="evenodd" d="M20.0001 23.9066H31.25V31.8754H20.0001V23.9066V23.9066ZM18.75 23.2035V32.8128C19.0605 33.0206 19.0551 33.2034 19.6093 33.2034H31.7186C32.2061 33.2034 32.5781 32.9797 32.5781 32.5003V23.2035C32.5781 22.8257 32.3311 22.5786 31.9532 22.5786H19.3751C18.9973 22.5786 18.7502 22.8257 18.7502 23.2035H18.75Z" fill="#617792"/>
<path fill-rule="evenodd" clip-rule="evenodd" d="M15.1565 2.26581V6.71903C15.3741 6.86477 15.4265 7.03149 15.7814 7.03149C16.6139 7.03149 16.4063 6.04077 16.4063 5.00028H18.1251C18.1251 5.87093 17.953 7.03149 18.8281 7.03149C19.206 7.03149 19.453 6.78443 19.453 6.40657V2.34415C19.453 1.49359 18.1248 1.17934 18.1248 2.65661V3.67232H16.4061C16.4061 2.9097 16.6583 1.64111 15.7812 1.64111C15.4033 1.64111 15.1562 1.88818 15.1562 2.26603L15.1565 2.26581Z" fill="#617792"/>
<path fill-rule="evenodd" clip-rule="evenodd" d="M21.5618 4.53159C21.5618 3.54913 21.5805 2.96907 22.5775 2.96907C23.6533 2.96907 23.72 5.7917 22.4347 5.73925C21.7885 5.71291 21.5618 5.19334 21.5618 4.53159V4.53159ZM20.3117 3.75044C20.3117 4.90587 20.1513 6.12603 21.4819 6.79916C23.0109 7.57272 24.6087 6.35212 24.6087 5.07862V3.59421C24.6087 2.60103 23.518 1.64111 22.4994 1.64111C21.3216 1.64111 20.3119 2.57515 20.3119 3.75044H20.3117Z" fill="#617792"/>
<path fill-rule="evenodd" clip-rule="evenodd" d="M10.469 3.28126C10.469 4.92212 12.9689 4.95828 12.9689 5.39059C12.9689 5.66823 12.5247 5.75639 12.3426 5.75371C11.9016 5.74724 11.7235 5.38345 11.6885 5.34305C11.297 4.88932 10.5469 5.14419 10.5469 5.78139C10.5469 6.94508 13.2191 7.71797 14.0924 6.12376C14.5647 5.26159 14.1069 4.43268 13.3083 4.03563C12.4484 3.60823 11.8429 3.67697 11.7969 3.12503C12.1272 3.04803 11.9996 2.9688 12.4218 2.9688C13.0053 2.9688 13.049 3.59372 13.5157 3.59372C14.1984 3.59372 14.6231 2.7233 13.5797 2.04526C12.0032 1.02062 10.4688 2.15998 10.4688 3.28126H10.469Z" fill="#617792"/>
<path fill-rule="evenodd" clip-rule="evenodd" d="M27.9689 4.06256H26.8751V2.96873C27.6031 2.96873 28.2032 2.83526 28.2032 3.51553C28.2032 3.79987 28.084 3.89651 27.9689 4.06234V4.06256ZM25.5471 2.18758V6.40623C25.5471 7.18537 26.8753 7.46994 26.8753 6.01566V5.39074H27.7345C29.9965 5.39074 30.2293 1.64077 27.5783 1.64077C26.9904 1.64077 26.1118 1.5448 25.7837 1.79946C25.6966 1.86708 25.5469 2.03246 25.5469 2.1878L25.5471 2.18758Z" fill="#617792"/>
<path fill-rule="evenodd" clip-rule="evenodd" d="M12.9688 30.0783V30.8596C12.9688 31.6872 14.2969 31.8847 14.2969 30.6253V30.3128C14.2969 29.0518 12.9688 29.236 12.9688 30.0785V30.0783Z" fill="#617792"/>
</g>
<defs>
<clipPath id="clip0_1599_3293">
<rect width="40" height="40" fill="white"/>
</clipPath>
</defs>
</svg>
