<svg width="70" height="70" viewBox="0 0 70 70" fill="none" xmlns="http://www.w3.org/2000/svg">
<path fill-rule="evenodd" clip-rule="evenodd" d="M42.6211 44.0992C42.2525 44.0992 41.884 44.0243 41.5355 43.8732L29.2001 38.469C28.8353 38.3104 28.6702 37.8858 28.8288 37.5211C28.9888 37.1576 29.4121 36.9916 29.7768 37.1514L42.1103 42.5543C42.7532 42.8316 43.5039 42.5419 43.7799 41.9037C43.8503 41.745 43.8848 41.5727 43.8848 41.3841L43.8851 25.9684C43.8851 25.2665 43.3141 24.6958 42.6121 24.6958C42.4352 24.6958 42.2625 24.732 42.1126 24.7982L29.7773 30.2023C29.4126 30.361 28.9887 30.1961 28.8288 29.8314C28.6706 29.4679 28.835 29.0433 29.1998 28.8835L41.532 23.4818C41.8608 23.3357 42.2349 23.2583 42.6121 23.2583C44.1072 23.2583 45.3236 24.4735 45.3236 25.9684L45.3239 41.3841C45.3239 41.775 45.2474 42.1447 45.0975 42.4819C44.813 43.1401 44.2819 43.6509 43.6063 43.9144C43.2883 44.038 42.9544 44.0993 42.6211 44.0992Z" fill="#617792" stroke="#617792" stroke-width="0.5"/>
<path fill-rule="evenodd" clip-rule="evenodd" d="M24.7952 30.2623C22.9129 30.2623 21.3817 31.7935 21.3817 33.6769C21.382 35.5591 22.9128 37.0915 24.795 37.0915L28.7692 37.0915V30.2623H24.7952ZM29.4886 38.5302H24.7952C22.1199 38.5302 19.9429 36.3521 19.9429 33.6769C19.9432 31.0004 22.1197 28.8235 24.795 28.8235L29.4886 28.8235C29.8859 28.8235 30.2079 29.1458 30.2079 29.5429L30.208 37.8109C30.208 38.2081 29.8856 38.5303 29.4886 38.5302Z" fill="#617792" stroke="#617792" stroke-width="0.5"/>
<path fill-rule="evenodd" clip-rule="evenodd" d="M24.9288 45.303H26.7222V38.5301H24.9288V45.303ZM27.4416 46.7418H24.2094C23.811 46.7418 23.4897 46.4197 23.4897 46.0225L23.49 37.8107C23.49 37.4123 23.8107 37.0913 24.2091 37.0913L27.4416 37.0913C27.8401 37.0913 28.1608 37.4123 28.1608 37.8107L28.161 46.0224C28.161 46.4197 27.8398 46.7419 27.4416 46.7418Z" fill="#617792" stroke="#617792" stroke-width="0.5"/>
<path fill-rule="evenodd" clip-rule="evenodd" d="M45.2867 40.1264C45.2715 40.1264 45.2566 40.1252 45.2416 40.1239H45.2232C44.9973 40.109 44.7408 40.0927 44.4847 40.0453C44.0952 39.9715 43.8377 39.5956 43.9115 39.206C43.984 38.815 44.3598 38.5577 44.7507 38.6315C44.9186 38.6627 45.1155 38.6752 45.3077 38.6877C47.1425 38.6739 48.6324 37.0316 48.6324 35.0133C48.6324 32.9875 47.1313 31.3401 45.2865 31.3401C45.0985 31.3401 44.9081 31.3639 44.707 31.3889C44.3149 31.4388 43.9539 31.1591 43.904 30.7644C43.8552 30.3709 44.1338 30.0113 44.5284 29.9613C44.7533 29.9338 45.0093 29.9014 45.2865 29.9014C47.9259 29.9014 50.0711 32.1944 50.0711 35.0133C50.0711 37.8321 47.9255 40.1264 45.2867 40.1264Z" fill="#617792" stroke="#617792" stroke-width="0.5"/>
<path fill-rule="evenodd" clip-rule="evenodd" d="M35.0004 27.8482C34.6031 27.8482 34.2808 27.526 34.2808 27.1288L34.281 12.1078C34.281 11.7106 34.6031 11.3884 35.0002 11.3884C35.3978 11.3884 35.7195 11.7107 35.7195 12.1078L35.7198 27.1288C35.7198 27.5259 35.3974 27.8482 35.0004 27.8482Z" fill="#617792" stroke="#617792" stroke-width="0.5"/>
<path fill-rule="evenodd" clip-rule="evenodd" d="M25.546 30.2623C25.4236 30.2623 25.2995 30.231 25.1859 30.1661L14.8176 24.1774C14.4742 23.9776 14.3564 23.538 14.555 23.1946C14.7535 22.8498 15.1932 22.7324 15.5379 22.9311L25.9057 28.9196C26.2503 29.1183 26.3674 29.5592 26.1689 29.9026C26.0356 30.1336 25.7929 30.2623 25.546 30.2623Z" fill="#617792" stroke="#617792" stroke-width="0.5"/>
<path fill-rule="evenodd" clip-rule="evenodd" d="M15.1784 47.1653C14.93 47.1653 14.6886 47.0367 14.555 46.8056C14.3567 46.4621 14.4737 46.0225 14.8172 45.8227L23.8486 40.5983C24.1921 40.3985 24.6326 40.5172 24.8312 40.8607C25.03 41.2041 24.9124 41.645 24.5689 41.8436L15.5381 47.0678C15.4246 47.1341 15.3005 47.1653 15.1784 47.1653Z" fill="#617792" stroke="#617792" stroke-width="0.5"/>
<path fill-rule="evenodd" clip-rule="evenodd" d="M35.0004 58.6106C34.6031 58.6106 34.2808 58.2897 34.2808 57.8912L34.281 40.3199C34.281 39.9228 34.6031 39.6006 35.0002 39.6006C35.3978 39.6005 35.7195 39.9228 35.7195 40.32L35.7198 57.8912C35.7198 58.2896 35.3974 58.6106 35.0004 58.6106Z" fill="#617792" stroke="#617792" stroke-width="0.5"/>
<path fill-rule="evenodd" clip-rule="evenodd" d="M54.8357 47.1651C54.7132 47.1651 54.5896 47.1339 54.476 47.069L44.2585 41.1752C43.914 40.9766 43.7964 40.5371 43.9949 40.1923C44.1939 39.8488 44.6331 39.7302 44.9765 39.9288L55.1954 45.8225C55.5405 46.0211 55.6575 46.4607 55.4589 46.8054C55.3253 47.0365 55.0842 47.1651 54.8357 47.1651Z" fill="#617792" stroke="#617792" stroke-width="0.5"/>
<path fill-rule="evenodd" clip-rule="evenodd" d="M44.6049 30.1673C44.3565 30.1673 44.1137 30.0375 43.9814 29.8064C43.7832 29.4617 43.9013 29.0221 44.2449 28.8248L54.4773 22.931C54.8213 22.7324 55.2604 22.8511 55.4591 23.1946C55.6577 23.5393 55.539 23.9789 55.1954 24.1775L44.9634 30.0711C44.851 30.1361 44.7269 30.1674 44.6049 30.1673Z" fill="#617792" stroke="#617792" stroke-width="0.5"/>
<path fill-rule="evenodd" clip-rule="evenodd" d="M35.0002 5.0237C33.2457 5.0237 31.8177 6.4513 31.8177 8.20605C31.8181 9.9608 33.2452 11.3883 35 11.3883C36.755 11.3883 38.1823 9.9608 38.1823 8.20605C38.1824 6.45126 36.7548 5.02374 35.0002 5.0237ZM35.0002 12.8271C32.4527 12.8271 30.3789 10.7539 30.3789 8.20605C30.3793 5.65815 32.4522 3.58496 35 3.58496C37.5479 3.58492 39.621 5.65819 39.621 8.20605C39.6212 10.7539 37.5479 12.8271 35.0002 12.8271Z" fill="#617792" stroke="#617792" stroke-width="0.5"/>
<path fill-rule="evenodd" clip-rule="evenodd" d="M11.7951 18.4211C10.0404 18.4211 8.61131 19.8487 8.61131 21.6035C8.6118 23.3582 10.0401 24.7858 11.7949 24.7858C13.5486 24.7857 14.9771 23.3582 14.9771 21.6035C14.9773 19.8487 13.5484 18.4212 11.7951 18.4211ZM11.7951 26.2245C9.24629 26.2245 7.17383 24.1513 7.17383 21.6035C7.17415 19.0556 9.24589 16.9824 11.7949 16.9824C14.3428 16.9823 16.4159 19.0557 16.4159 21.6035C16.416 24.1513 14.3426 26.2246 11.7951 26.2245Z" fill="#617792" stroke="#617792" stroke-width="0.5"/>
<path fill-rule="evenodd" clip-rule="evenodd" d="M11.7951 45.2146C10.0404 45.2146 8.61131 46.6422 8.61131 48.397C8.6118 50.1517 10.0401 51.5792 11.7949 51.5792C13.5486 51.5792 14.9771 50.1517 14.9771 48.397C14.9773 46.6422 13.5484 45.2147 11.7951 45.2146ZM11.7951 53.018C9.24629 53.018 7.17383 50.9448 7.17383 48.397C7.17415 45.8491 9.24589 43.7759 11.7949 43.7759C14.3428 43.7758 16.4159 45.8491 16.4159 48.397C16.416 50.9448 14.3426 53.018 11.7951 53.018Z" fill="#617792" stroke="#617792" stroke-width="0.5"/>
<path fill-rule="evenodd" clip-rule="evenodd" d="M35.0002 58.6118C33.2457 58.6118 31.8177 60.0394 31.8177 61.7941C31.8181 63.5489 33.2452 64.9765 35 64.9765C36.755 64.9765 38.1823 63.5489 38.1823 61.7941C38.1824 60.0394 36.7548 58.6119 35.0002 58.6118ZM35.0002 66.4152C32.4527 66.4152 30.3789 64.342 30.3789 61.7941C30.3793 59.2451 32.4522 57.1731 35 57.1731C37.5479 57.173 39.621 59.2451 39.621 61.7941C39.6212 64.342 37.5479 66.4152 35.0002 66.4152Z" fill="#617792" stroke="#617792" stroke-width="0.5"/>
<path fill-rule="evenodd" clip-rule="evenodd" d="M58.2059 45.2146C56.4512 45.2146 55.0233 46.6422 55.0233 48.397C55.0237 50.1517 56.4508 51.5792 58.2055 51.5792C59.9605 51.5792 61.3878 50.1517 61.3878 48.397C61.388 46.6422 59.9602 45.2147 58.2059 45.2146ZM58.2059 53.018C55.6577 53.018 53.5845 50.9448 53.5845 48.397C53.585 45.8491 55.6577 43.7759 58.2055 43.7759C60.7535 43.7758 62.8266 45.8491 62.8266 48.397C62.8268 50.9448 60.7533 53.018 58.2059 53.018Z" fill="#617792" stroke="#617792" stroke-width="0.5"/>
<path fill-rule="evenodd" clip-rule="evenodd" d="M58.2059 18.4211C56.4512 18.4211 55.0232 19.8487 55.0232 21.6035C55.0237 23.3582 56.4508 24.7858 58.2055 24.7858C59.9605 24.7857 61.3878 23.3582 61.3878 21.6035C61.388 19.8487 59.9602 18.4212 58.2059 18.4211ZM58.2059 26.2245C55.6577 26.2245 53.5845 24.1513 53.5845 21.6035C53.585 19.0556 55.6577 16.9824 58.2055 16.9824C60.7535 16.9823 62.8266 19.0557 62.8266 21.6035C62.8268 24.1513 60.7533 26.2246 58.2059 26.2245Z" fill="#617792" stroke="#617792" stroke-width="0.5"/>
</svg>
