<svg width="70" height="70" viewBox="0 0 70 70" fill="none" xmlns="http://www.w3.org/2000/svg">
<path d="M66.8828 6.72645C66.8828 6.72645 59.0078 3.60926 56.3828 2.5702C55.6719 2.29676 55.0703 2.84364 55.0703 3.4452V16.2421C52.6641 16.6249 50.8047 18.5389 50.3672 20.9452H41.9453C41.3984 17.828 38.4453 15.6952 35.3281 16.2421C32.2109 16.7889 30.0781 19.7421 30.625 22.8593C30.9531 24.828 32.3203 26.5233 34.1797 27.2343L32.3203 36.0936C28.9844 36.0936 26.8516 38.3358 26.4688 40.8514H18.0469C17.5 37.7343 14.5469 35.6014 11.4297 36.1483C8.3125 36.6952 6.17969 39.6483 6.72656 42.7655C7.05469 44.7343 8.42187 46.4296 10.2812 47.1405L8.42188 55.9999C8.36719 55.9999 8.25781 55.9999 8.20313 55.9999C5.03125 55.9999 2.46094 58.5702 2.40625 61.7421C2.40625 64.9139 4.97656 67.4843 8.14844 67.5389C11.3203 67.5389 13.8906 64.9686 13.9453 61.7968C13.9453 59.4452 12.5234 57.3124 10.2812 56.4374L12.1953 47.578C15.1484 47.6874 17.6094 45.6093 18.0469 42.8202H26.4688C27.0156 45.9374 29.9687 48.0702 33.0859 47.5233C36.2031 46.9764 38.3359 44.0233 37.7891 40.9061C37.4609 38.9374 36.0937 37.2421 34.2344 36.5311L36.0937 27.6718C38.9375 27.7811 41.4531 25.7577 41.9453 22.9139H50.3672C50.9141 26.0311 53.8672 28.1639 56.9844 27.6171C60.1016 27.0702 62.2344 24.1171 61.6875 20.9999C61.3047 18.5936 59.3906 16.6796 56.9844 16.2968V12.4686L66.8828 8.53114C67.7031 8.20301 67.7031 7.05457 66.8828 6.72645ZM12.0313 61.7421C12.0313 63.8749 10.3359 65.5702 8.20313 65.5702C6.07031 65.5702 4.375 63.8749 4.375 61.7421C4.375 59.6093 6.07031 57.9139 8.20313 57.9139C10.3359 57.9686 12.0313 59.6639 12.0313 61.7421ZM12.4141 45.6639C10.2813 45.6639 8.58594 43.9686 8.58594 41.8358C8.58594 39.703 10.2813 38.0077 12.4141 38.0077C14.5469 38.0077 16.2422 39.703 16.2422 41.8358C16.2422 43.9686 14.4922 45.6639 12.4141 45.6639ZM35.9297 41.8358C35.9297 43.9686 34.2344 45.6639 32.1016 45.6639C29.9687 45.6639 28.2734 43.9686 28.2734 41.8358C28.2734 39.703 29.9687 38.0077 32.1016 38.0077C34.2344 38.0077 35.9297 39.7577 35.9297 41.8358ZM36.3125 25.7577C34.1797 25.7577 32.4844 24.0624 32.4844 21.9296C32.4844 19.7968 34.1797 18.1014 36.3125 18.1014C38.4453 18.1014 40.1406 19.7968 40.1406 21.9296C40.1406 24.0624 38.3906 25.7577 36.3125 25.7577ZM59.8828 21.9296C59.8828 24.0624 58.1875 25.7577 56.0547 25.7577C53.9219 25.7577 52.2266 24.0624 52.2266 21.9296C52.2266 19.7968 53.9219 18.1014 56.0547 18.1014C58.1328 18.1014 59.8828 19.7968 59.8828 21.9296ZM56.9844 10.3905V4.86707L63.9297 7.65614L56.9844 10.3905Z" fill="#617792" stroke="#617792" stroke-width="0.5"/>
</svg>
