<svg width="70" height="70" viewBox="0 0 70 70" fill="none" xmlns="http://www.w3.org/2000/svg">
<g clip-path="url(#clip0_1599_2854)">
<path d="M15.6136 1.02539H66.7629C67.5858 1.02539 68.2528 1.69244 68.2528 2.51535V6.43877C68.2528 6.83717 67.9297 7.16023 67.5313 7.16023H2.46854C2.07014 7.16023 1.74707 6.83717 1.74707 6.43877V2.51535C1.74707 1.69244 2.41412 1.02539 3.23703 1.02539H10.555" stroke="#617792" stroke-width="2" stroke-miterlimit="10" stroke-linecap="round" stroke-linejoin="round"/>
<path d="M54.4788 57.6893H64.3172C65.5504 57.6893 66.5501 56.6896 66.5501 55.4564V7.16023H3.44922V55.4565C3.44922 56.6897 4.44891 57.6894 5.68211 57.6894H49.5571" stroke="#617792" stroke-width="2" stroke-miterlimit="10" stroke-linecap="round" stroke-linejoin="round"/>
<path d="M34.9998 68.9746C36.7564 68.9746 38.1803 67.5507 38.1803 65.7941C38.1803 64.0376 36.7564 62.6136 34.9998 62.6136C33.2433 62.6136 31.8193 64.0376 31.8193 65.7941C31.8193 67.5507 33.2433 68.9746 34.9998 68.9746Z" stroke="#617792" stroke-width="2" stroke-miterlimit="10" stroke-linecap="round" stroke-linejoin="round"/>
<path d="M35 62.6136V58.2326" stroke="#617792" stroke-width="2" stroke-miterlimit="10" stroke-linecap="round" stroke-linejoin="round"/>
<path d="M9.30859 14.8483H20.9588" stroke="#617792" stroke-width="2" stroke-miterlimit="10" stroke-linecap="round" stroke-linejoin="round"/>
<path d="M9.30859 18.8215H20.9588" stroke="#617792" stroke-width="2" stroke-miterlimit="10" stroke-linecap="round" stroke-linejoin="round"/>
<path d="M9.30859 22.7947H14.3769" stroke="#617792" stroke-width="2" stroke-miterlimit="10" stroke-linecap="round" stroke-linejoin="round"/>
<path d="M60.0643 50.4608H48.4141" stroke="#617792" stroke-width="2" stroke-miterlimit="10" stroke-linecap="round" stroke-linejoin="round"/>
<path d="M60.0643 46.4877H48.4141" stroke="#617792" stroke-width="2" stroke-miterlimit="10" stroke-linecap="round" stroke-linejoin="round"/>
<path d="M60.0644 42.5145H54.9961" stroke="#617792" stroke-width="2" stroke-miterlimit="10" stroke-linecap="round" stroke-linejoin="round"/>
<path d="M50.1871 22.1691H33.9175C33.1163 22.1691 32.4668 21.5195 32.4668 20.7184V15.8394C32.4668 15.0382 33.1163 14.3887 33.9175 14.3887H50.1871C50.9882 14.3887 51.6378 15.0382 51.6378 15.8394V20.7184C51.6378 21.5195 50.9884 22.1691 50.1871 22.1691Z" stroke="#617792" stroke-width="2" stroke-miterlimit="10" stroke-linecap="round" stroke-linejoin="round"/>
<path d="M16.1643 36.347H10.1105C9.60988 36.347 9.2041 35.9412 9.2041 35.4405V30.8347C9.2041 30.3341 9.60988 29.9283 10.1105 29.9283H16.1643C16.665 29.9283 17.0708 30.3341 17.0708 30.8347V35.4405C17.0708 35.9412 16.6648 36.347 16.1643 36.347Z" stroke="#617792" stroke-width="2" stroke-miterlimit="10" stroke-linecap="round" stroke-linejoin="round"/>
<path d="M30.6213 36.347H24.5676C24.0669 36.347 23.6611 35.9412 23.6611 35.4405V30.8347C23.6611 30.3341 24.0669 29.9283 24.5676 29.9283H30.6213C31.122 29.9283 31.5278 30.3341 31.5278 30.8347V35.4405C31.5278 35.9412 31.122 36.347 30.6213 36.347Z" stroke="#617792" stroke-width="2" stroke-miterlimit="10" stroke-linecap="round" stroke-linejoin="round"/>
<path d="M16.1643 49.6539H10.1105C9.60988 49.6539 9.2041 49.2481 9.2041 48.7475V44.1417C9.2041 43.641 9.60988 43.2353 10.1105 43.2353H16.1643C16.665 43.2353 17.0708 43.641 17.0708 44.1417V48.7475C17.0708 49.248 16.6648 49.6539 16.1643 49.6539Z" stroke="#617792" stroke-width="2" stroke-miterlimit="10" stroke-linecap="round" stroke-linejoin="round"/>
<path d="M30.6213 49.6539H24.5676C24.0669 49.6539 23.6611 49.2481 23.6611 48.7475V44.1417C23.6611 43.641 24.0669 43.2353 24.5676 43.2353H30.6213C31.122 43.2353 31.5278 43.641 31.5278 44.1417V48.7475C31.5278 49.248 31.122 49.6539 30.6213 49.6539Z" stroke="#617792" stroke-width="2" stroke-miterlimit="10" stroke-linecap="round" stroke-linejoin="round"/>
<path d="M42.0527 22.4587V29.6386" stroke="#617792" stroke-width="2" stroke-miterlimit="10" stroke-linecap="round" stroke-linejoin="round"/>
<path d="M13.1377 36.6365V42.2514" stroke="#617792" stroke-width="2" stroke-miterlimit="10" stroke-linecap="round" stroke-linejoin="round"/>
<path d="M27.5947 36.6365V42.2514" stroke="#617792" stroke-width="2" stroke-miterlimit="10" stroke-linecap="round" stroke-linejoin="round"/>
<path d="M16.1643 49.6539H10.1105C9.60988 49.6539 9.2041 49.2481 9.2041 48.7475V44.1417C9.2041 43.641 9.60988 43.2353 10.1105 43.2353H16.1643C16.665 43.2353 17.0708 43.641 17.0708 44.1417V48.7475C17.0708 49.248 16.6648 49.6539 16.1643 49.6539Z" stroke="#617792" stroke-width="2" stroke-miterlimit="10" stroke-linecap="round" stroke-linejoin="round"/>
<path d="M30.6213 49.6539H24.5676C24.0669 49.6539 23.6611 49.2481 23.6611 48.7475V44.1417C23.6611 43.641 24.0669 43.2353 24.5676 43.2353H30.6213C31.122 43.2353 31.5278 43.641 31.5278 44.1417V48.7475C31.5278 49.248 31.122 49.6539 30.6213 49.6539Z" stroke="#617792" stroke-width="2" stroke-miterlimit="10" stroke-linecap="round" stroke-linejoin="round"/>
<path d="M45.0794 36.347H39.0256C38.5249 36.347 38.1191 35.9412 38.1191 35.4405V30.8347C38.1191 30.3341 38.5249 29.9283 39.0256 29.9283H45.0794C45.58 29.9283 45.9858 30.3341 45.9858 30.8347V35.4405C45.9858 35.9412 45.5799 36.347 45.0794 36.347Z" stroke="#617792" stroke-width="2" stroke-miterlimit="10" stroke-linecap="round" stroke-linejoin="round"/>
<path d="M59.8889 36.347H53.8352C53.3345 36.347 52.9287 35.9412 52.9287 35.4405V30.8347C52.9287 30.3341 53.3345 29.9283 53.8352 29.9283H59.8889C60.3896 29.9283 60.7954 30.3341 60.7954 30.8347V35.4405C60.7954 35.9412 60.3896 36.347 59.8889 36.347Z" stroke="#617792" stroke-width="2" stroke-miterlimit="10" stroke-linecap="round" stroke-linejoin="round"/>
</g>
<defs>
<clipPath id="clip0_1599_2854">
<rect width="70" height="70" fill="white"/>
</clipPath>
</defs>
</svg>
