<svg width="70" height="70" viewBox="0 0 70 70" fill="none" xmlns="http://www.w3.org/2000/svg">
<g clip-path="url(#clip0_1599_2798)">
<path d="M28.411 22.4916H18.7266" stroke="#617792" stroke-width="2" stroke-miterlimit="10" stroke-linecap="round" stroke-linejoin="round"/>
<path d="M45.8599 22.4916H41.5361" stroke="#617792" stroke-width="2" stroke-miterlimit="10" stroke-linecap="round" stroke-linejoin="round"/>
<path d="M35.5166 57.1297H62.1385C65.9138 57.1297 68.9744 54.0691 68.9744 50.2937V29.3275C68.9744 25.5522 65.9138 22.4916 62.1385 22.4916H58.8749" stroke="#617792" stroke-width="2" stroke-miterlimit="10" stroke-linecap="round" stroke-linejoin="round"/>
<path d="M14.2379 22.4916H7.86133C4.08598 22.4916 1.02539 25.5522 1.02539 29.3275V50.2937C1.02539 54.0691 4.08598 57.1297 7.86133 57.1297H31.0282" stroke="#617792" stroke-width="2" stroke-miterlimit="10" stroke-linecap="round" stroke-linejoin="round"/>
<path d="M38.3956 63.437L35.6446 68.008C35.1132 68.891 33.8331 68.891 33.3018 68.008L30.5509 63.437C30.0025 62.5257 30.6588 61.3649 31.7223 61.3649H37.2242C38.2877 61.3649 38.9439 62.5257 38.3956 63.437Z" stroke="#617792" stroke-width="2" stroke-miterlimit="10" stroke-linecap="round" stroke-linejoin="round"/>
<path d="M46.0464 49.7178V57.1303H58.7433V19.571C58.7433 18.8159 58.1312 18.2039 57.3761 18.2039H47.4136C46.6585 18.2039 46.0464 18.8159 46.0464 19.571V45.2292" stroke="#617792" stroke-width="2" stroke-miterlimit="10" stroke-linecap="round" stroke-linejoin="round"/>
<path d="M23.9538 57.1303H11.2568V45.7627C11.2568 45.0076 11.8689 44.3955 12.624 44.3955H22.5866C23.3417 44.3955 23.9538 45.0076 23.9538 45.7627V57.1303Z" stroke="#617792" stroke-width="2" stroke-miterlimit="10" stroke-linecap="round" stroke-linejoin="round"/>
<path d="M17.6052 40.2182C21.1114 40.2182 23.9536 37.3759 23.9536 33.8698C23.9536 30.3636 21.1114 27.5214 17.6052 27.5214C14.0991 27.5214 11.2568 30.3636 11.2568 33.8698C11.2568 37.3759 14.0991 40.2182 17.6052 40.2182Z" stroke="#617792" stroke-width="2" stroke-miterlimit="10" stroke-linecap="round" stroke-linejoin="round"/>
<path d="M19.2417 36.3547C18.3377 35.4508 16.8722 35.4508 15.9683 36.3547" stroke="#617792" stroke-width="2" stroke-miterlimit="10" stroke-linecap="round" stroke-linejoin="round"/>
<path d="M15.6177 32.1509V32.7254" stroke="#617792" stroke-width="2" stroke-miterlimit="10" stroke-linecap="round" stroke-linejoin="round"/>
<path d="M19.5928 32.1509V32.7254" stroke="#617792" stroke-width="2" stroke-miterlimit="10" stroke-linecap="round" stroke-linejoin="round"/>
<path d="M52.3948 14.0265C55.9009 14.0265 58.7432 11.1842 58.7432 7.67811C58.7432 4.17199 55.9009 1.32971 52.3948 1.32971C48.8887 1.32971 46.0464 4.17199 46.0464 7.67811C46.0464 11.1842 48.8887 14.0265 52.3948 14.0265Z" stroke="#617792" stroke-width="2" stroke-miterlimit="10" stroke-linecap="round" stroke-linejoin="round"/>
<path d="M50.4458 9.42053C51.5222 10.4969 53.2673 10.4969 54.3435 9.42053" stroke="#617792" stroke-width="2" stroke-miterlimit="10" stroke-linecap="round" stroke-linejoin="round"/>
<path d="M50.4072 5.95947V6.53396" stroke="#617792" stroke-width="2" stroke-miterlimit="10" stroke-linecap="round" stroke-linejoin="round"/>
<path d="M54.3823 5.95947V6.53396" stroke="#617792" stroke-width="2" stroke-miterlimit="10" stroke-linecap="round" stroke-linejoin="round"/>
<path d="M34.9998 28.8399C38.5059 28.8399 41.3482 25.9976 41.3482 22.4915C41.3482 18.9853 38.5059 16.1431 34.9998 16.1431C31.4936 16.1431 28.6514 18.9853 28.6514 22.4915C28.6514 25.9976 31.4936 28.8399 34.9998 28.8399Z" stroke="#617792" stroke-width="2" stroke-miterlimit="10" stroke-linecap="round" stroke-linejoin="round"/>
<path d="M33.1953 24.5884H36.8044" stroke="#617792" stroke-width="2" stroke-miterlimit="10" stroke-linecap="round" stroke-linejoin="round"/>
<path d="M33.0122 20.7728V21.3473" stroke="#617792" stroke-width="2" stroke-miterlimit="10" stroke-linecap="round" stroke-linejoin="round"/>
<path d="M36.9873 20.7728V21.3473" stroke="#617792" stroke-width="2" stroke-miterlimit="10" stroke-linecap="round" stroke-linejoin="round"/>
<path d="M28.6514 57.1302V34.3567C28.6514 33.6016 29.2635 32.9895 30.0186 32.9895H39.9811C40.7362 32.9895 41.3483 33.6016 41.3483 34.3567V57.1302" stroke="#617792" stroke-width="2" stroke-miterlimit="10" stroke-linecap="round" stroke-linejoin="round"/>
</g>
<defs>
<clipPath id="clip0_1599_2798">
<rect width="70" height="70" fill="white"/>
</clipPath>
</defs>
</svg>
