<svg width="70" height="70" viewBox="0 0 70 70" fill="none" xmlns="http://www.w3.org/2000/svg">
<g clip-path="url(#clip0_1599_2738)">
<path d="M3.5 70H66.5C68.4329 70 70 68.4331 70 66.5C70 64.5669 68.4331 63 66.5 63H7V44.8163L19.8334 31.9829L28.3419 40.4914C28.7975 40.9469 29.536 40.9469 29.9916 40.4914L44.3334 26.1496L52.8418 34.6582C53.2973 35.1136 54.0359 35.1136 54.4914 34.6582L69.6582 19.4914C70.1004 19.0337 70.0941 18.306 69.644 17.856C69.1939 17.4059 68.4663 17.3996 68.0086 17.8418L53.6668 32.1836L45.1582 23.6752C44.7027 23.2198 43.9641 23.2198 43.5086 23.6752L29.1668 38.017L20.6582 29.5086C20.2027 29.0531 19.4641 29.0531 19.0086 29.5086L7 41.517V3.5C7 1.56707 5.43293 0 3.5 0C1.56707 0 0 1.56707 0 3.5V66.5C0 68.4331 1.56707 70 3.5 70ZM2.33338 3.5C2.33338 2.85564 2.85578 2.33338 3.5 2.33338C4.14422 2.33338 4.66662 2.85578 4.66662 3.5V64.1666C4.66662 64.811 5.18902 65.3332 5.83324 65.3332H66.5C67.1444 65.3332 67.6666 65.8555 67.6666 66.4999C67.6666 67.1442 67.1444 67.6665 66.5 67.6665H3.5C2.85564 67.6665 2.33338 67.1442 2.33338 66.4999V3.5Z" fill="#617792"/>
<path d="M34.2514 10.5H24.0827C23.025 10.5019 22.1684 11.3591 22.167 12.4168V18.6666H19.4393C18.6593 18.6674 17.9558 19.1352 17.6531 19.8539C17.3504 20.5728 17.5076 21.4029 18.0522 21.9613L27.8288 32.1007C28.1949 32.4662 28.692 32.6699 29.2094 32.6665C29.7267 32.6629 30.2211 32.4525 30.5822 32.0821L40.2655 21.9695C40.8173 21.4151 40.9814 20.5833 40.6816 19.8609C40.3818 19.1384 39.6768 18.6673 38.8947 18.6666H36.167V12.4168C36.1658 11.3591 35.3091 10.5019 34.2514 10.5ZM37.9661 21L29.195 30.1571L20.3657 21H23.3337C23.9781 21 24.5004 20.4776 24.5004 19.8334V12.8334H33.8337V19.8334C33.8337 20.4777 34.3561 21 35.0004 21H37.9661Z" fill="#617792"/>
<path d="M39.2489 53.6666H49.4177C50.4753 53.6647 51.332 52.8075 51.3334 51.7498V45.5H54.0611C54.8393 45.5009 55.5423 45.0358 55.8458 44.3191C56.1492 43.6026 55.994 42.7739 55.4518 42.2157L45.7311 32.0657C44.9619 31.3233 43.741 31.33 42.98 32.0809L33.2266 42.1959C32.6777 42.7529 32.5166 43.5847 32.8178 44.3063C33.119 45.0279 33.8237 45.4983 34.6057 45.4998H37.3334V51.7497C37.3346 52.8075 38.1913 53.6647 39.2489 53.6666ZM35.532 43.1666L44.3613 34.0094L53.1323 43.1666H50.1666C49.5223 43.1666 49 43.689 49 44.3332V51.3332H39.6666V44.3332C39.6666 43.6889 39.1442 43.1666 38.5 43.1666H35.532Z" fill="#617792"/>
</g>
<defs>
<clipPath id="clip0_1599_2738">
<rect width="70" height="70" fill="white"/>
</clipPath>
</defs>
</svg>
