<svg width="70" height="70" viewBox="0 0 70 70" fill="none" xmlns="http://www.w3.org/2000/svg">
<g clip-path="url(#clip0_1599_2745)">
<mask id="mask0_1599_2745" style="mask-type:luminance" maskUnits="userSpaceOnUse" x="0" y="0" width="70" height="70">
<path d="M0 7.62939e-06H70V70H0V7.62939e-06Z" fill="white"/>
</mask>
<g mask="url(#mask0_1599_2745)">
<path d="M60.7821 13.2178C59.0735 14.9264 56.3035 14.9264 54.5949 13.2178C52.8863 11.5093 52.8863 8.7392 54.5949 7.03063C56.3035 5.32206 59.0735 5.32206 60.7821 7.03063C62.4907 8.7392 62.4907 11.5093 60.7821 13.2178Z" stroke="#617792" stroke-width="2" stroke-miterlimit="10" stroke-linecap="round" stroke-linejoin="round"/>
<path d="M15.4052 62.9693C13.6966 64.6779 10.9265 64.6779 9.21795 62.9693C7.50938 61.2607 7.50938 58.4907 9.21795 56.7821C10.9265 55.0735 13.6966 55.0735 15.4052 56.7821C17.1137 58.4907 17.1137 61.2607 15.4052 62.9693Z" stroke="#617792" stroke-width="2" stroke-miterlimit="10" stroke-linecap="round" stroke-linejoin="round"/>
<path d="M28.3672 67.9789C30.5115 68.4078 32.7293 68.6328 34.9998 68.6328C53.5747 68.6328 68.6326 53.5749 68.6326 35C68.6326 26.8914 65.7626 19.4533 60.9836 13.6451" stroke="#617792" stroke-width="2" stroke-miterlimit="10" stroke-linecap="round" stroke-linejoin="round"/>
<path d="M41.6965 2.03402C39.5324 1.5968 37.293 1.36724 35 1.36724C16.4251 1.36724 1.36719 16.4252 1.36719 35.0001C1.36719 43.1087 4.23719 50.5468 9.01619 56.355" stroke="#617792" stroke-width="2" stroke-miterlimit="10" stroke-linecap="round" stroke-linejoin="round"/>
<path d="M35.0004 44.9299C29.5163 44.9299 25.0705 40.4842 25.0705 35C25.0705 29.5159 29.5163 25.0703 35.0004 25.0703C40.4844 25.0703 44.9303 29.5159 44.9303 35C44.9303 40.4842 40.4844 44.9299 35.0004 44.9299ZM54.802 30.7135C54.2811 28.2892 53.3272 26.0258 52.0239 24.009L54.6434 21.3894L48.5965 15.3468L45.979 17.9643C43.9623 16.661 41.699 15.7071 39.2747 15.1863V11.4844H30.726V15.1863C28.3017 15.7071 26.0385 16.661 24.0217 17.9643L21.4042 15.3468L15.3573 21.3894L17.9768 24.009C16.6735 26.0258 15.7196 28.2892 15.1987 30.7135H11.4871L11.4824 39.2621H15.1986C15.7195 41.6864 16.6734 43.9497 17.9767 45.9666L15.3472 48.5961L21.3897 54.6432L24.0214 52.0114C26.0383 53.3148 28.3017 54.2687 30.726 54.7896V58.5156H39.2747V54.7896C41.699 54.2687 43.9624 53.3148 45.9793 52.0114L48.611 54.6432L54.6536 48.5961L52.024 45.9666C53.3274 43.9497 54.2813 41.6864 54.8022 39.2621H58.5183V30.7135H54.802Z" stroke="#617792" stroke-width="2" stroke-miterlimit="10" stroke-linecap="round" stroke-linejoin="round"/>
</g>
</g>
<defs>
<clipPath id="clip0_1599_2745">
<rect width="70" height="70" fill="white"/>
</clipPath>
</defs>
</svg>
