<svg width="70" height="70" viewBox="0 0 70 70" fill="none" xmlns="http://www.w3.org/2000/svg">
<g clip-path="url(#clip0_1599_2845)">
<path d="M49.9399 18.6088C52.0233 21.1042 55.1551 22.6953 58.6523 22.6953C64.9096 22.6953 70 17.6049 70 11.3477C70 5.09045 64.9096 0 58.6523 0C52.3951 0 47.3047 5.09045 47.3047 11.3477C47.3047 13.1708 47.7393 14.8933 48.5066 16.4213H38.9303C38.6401 16.4213 38.3621 16.5365 38.1568 16.7416L33.1758 21.7227C28.5919 22.5029 24.6772 25.2722 22.3553 29.1091H17.4424L13.6084 22.4685C18.7861 21.4175 22.6953 16.8308 22.6953 11.3477C22.6953 5.09045 17.6049 0 11.3477 0C5.09045 0 0 5.09045 0 11.3477C0 17.5592 5.01717 22.6183 11.2115 22.6919L15.8637 30.7498C16.0591 31.0883 16.4201 31.2967 16.8109 31.2967H21.2554C20.5066 33.1285 20.0927 35.1314 20.0927 37.2295C20.0927 43.2757 23.5222 48.5353 28.5377 51.1675V55.7561L22.6831 59.1363C22.69 58.9757 22.6955 58.8148 22.6955 58.6526C22.6955 52.3954 17.605 47.305 11.3478 47.305C5.09059 47.305 0 52.3951 0 58.6523C0 64.9096 5.09045 70 11.3477 70C16.4634 70 20.7977 66.5965 22.2093 61.9355L30.1783 57.3346C30.5169 57.1393 30.7252 56.7783 30.7252 56.3875V52.1113C32.3248 52.6608 34.0397 52.9598 35.8233 52.9598C39.4148 52.9598 42.7283 51.7491 45.3791 49.7156L48.4669 52.7119C47.992 53.636 48.1506 54.8007 48.934 55.5609L56.9718 63.3605C57.4421 63.8168 58.0513 64.0437 58.6599 64.0437C59.2929 64.0437 59.9255 63.7979 60.4 63.3088L63.3021 60.3181C64.2329 59.3589 64.2098 57.8212 63.2506 56.8902L55.2128 49.0904C54.7492 48.6404 54.133 48.3964 53.4879 48.4079C53.1944 48.4122 52.9108 48.4706 52.6455 48.5734L49.303 45.3301C50.7311 42.9625 51.5539 40.1904 51.5539 37.2296C51.5539 28.7753 44.8499 21.8587 36.479 21.5138L39.3836 18.6092H49.9399V18.6088ZM52.703 18.3045C53.2596 15.4906 55.7275 13.4304 58.6523 13.4304C61.5772 13.4304 64.0451 15.4906 64.6017 18.3045C62.9997 19.6763 60.9219 20.5078 58.6523 20.5078C56.3828 20.5078 54.305 19.6763 52.703 18.3045ZM58.6525 11.2428C57.2593 11.2428 56.1259 10.1093 56.1259 8.71609C56.1259 7.32293 57.2593 6.18953 58.6525 6.18953C60.0456 6.18953 61.179 7.32293 61.179 8.71609C61.179 10.1093 60.0456 11.2428 58.6525 11.2428ZM58.6523 2.1875C63.7033 2.1875 67.8125 6.29672 67.8125 11.3477C67.8125 13.2054 67.2551 14.9347 66.3008 16.3801C65.502 14.4091 63.9707 12.8364 62.0561 11.9727C62.8668 11.1256 63.3665 9.97855 63.3665 8.71623C63.3665 6.1168 61.2518 4.00217 58.6525 4.00217C56.0532 4.00217 53.9384 6.11693 53.9384 8.71623C53.9384 9.97855 54.4381 11.1256 55.2487 11.9727C53.334 12.8362 51.8027 14.4091 51.0039 16.3803C50.0496 14.9347 49.4922 13.2054 49.4922 11.3477C49.4922 6.29672 53.6014 2.1875 58.6523 2.1875ZM11.3478 11.2428C9.95463 11.2428 8.82123 10.1093 8.82123 8.71609C8.82123 7.32293 9.95463 6.18953 11.3478 6.18953C12.741 6.18953 13.8744 7.32293 13.8744 8.71609C13.8744 10.1093 12.741 11.2428 11.3478 11.2428ZM11.3477 13.4303C14.2725 13.4303 16.7404 15.4905 17.297 18.3043C15.695 19.6763 13.6172 20.5078 11.3477 20.5078C9.07812 20.5078 7.00027 19.6763 5.39834 18.3045C5.95506 15.4905 8.42283 13.4303 11.3477 13.4303ZM11.3477 2.1875C16.3986 2.1875 20.5078 6.29672 20.5078 11.3477C20.5078 13.2054 19.9504 14.9347 18.9961 16.3801C18.1973 14.4091 16.666 12.8364 14.7514 11.9727C15.5621 11.1256 16.0619 9.97855 16.0619 8.71623C16.0619 6.1168 13.9471 4.00217 11.3478 4.00217C8.7485 4.00217 6.63373 6.11693 6.63373 8.71623C6.63373 9.97855 7.13344 11.1256 7.94404 11.9727C6.0293 12.8361 4.49805 14.4089 3.6992 16.3801C2.7449 14.9347 2.1875 13.2054 2.1875 11.3477C2.1875 6.29672 6.29672 2.1875 11.3477 2.1875ZM5.39834 65.6091C5.95492 62.7952 8.42283 60.735 11.3477 60.735C14.2725 60.735 16.7403 62.7952 17.297 65.6091C15.695 66.981 13.6172 67.8125 11.3477 67.8125C9.07812 67.8125 7.00027 66.981 5.39834 65.6091ZM11.3478 58.5473C9.95463 58.5473 8.82123 57.4139 8.82123 56.0208C8.82123 54.6276 9.95463 53.4942 11.3478 53.4942C12.741 53.4942 13.8744 54.6276 13.8744 56.0208C13.8744 57.4139 12.741 58.5473 11.3478 58.5473ZM18.9963 63.6848C18.1973 61.7136 16.6662 60.1409 14.7515 59.2773C15.5623 58.4302 16.0619 57.2831 16.0619 56.0208C16.0619 53.4213 13.9471 51.3067 11.3478 51.3067C8.7485 51.3067 6.63373 53.4215 6.63373 56.0208C6.63373 57.2831 7.1333 58.4302 7.94404 59.2771C6.0293 60.1408 4.49805 61.7135 3.69906 63.6848C2.7449 62.2394 2.1875 60.5101 2.1875 58.6523C2.1875 53.6014 6.29672 49.4922 11.3477 49.4922C16.3986 49.4922 20.5078 53.6014 20.5078 58.6523C20.5078 60.5101 19.9504 62.2394 18.9963 63.6848ZM53.5206 50.5948H53.5246C53.57 50.5948 53.6339 50.6064 53.689 50.66L61.7267 58.4597C61.8189 58.5491 61.8212 58.7025 61.7319 58.7947L58.8298 61.7853C58.7403 61.8773 58.5869 61.8795 58.4948 61.7903L50.457 53.9908C50.3649 53.9014 50.3627 53.748 50.452 53.6558L53.3541 50.665C53.4092 50.6082 53.4751 50.5955 53.5206 50.5948ZM50.9626 49.9885L49.9146 51.0684L47.0235 48.2628C47.3758 47.9052 47.7112 47.5308 48.0283 47.141L50.9626 49.9885ZM49.3661 37.2293C49.3661 44.6969 43.2908 50.7723 35.8232 50.7723C28.3556 50.7723 22.2801 44.6969 22.2801 37.2293C22.2801 29.7618 28.3556 23.6863 35.8232 23.6863C43.2908 23.6863 49.3661 29.7618 49.3661 37.2293ZM24.3374 37.2292C24.3374 43.5624 29.4901 48.7151 35.8233 48.7151C42.1565 48.7151 47.3092 43.5624 47.3092 37.2292C47.3092 30.896 42.1565 25.7435 35.8233 25.7435C29.4901 25.7435 24.3374 30.8958 24.3374 37.2292ZM45.1216 37.2292C45.1216 42.3563 40.9503 46.5276 35.8232 46.5276C30.6961 46.5276 26.5248 42.3563 26.5248 37.2292C26.5248 32.1021 30.6961 27.931 35.8232 27.931C40.9503 27.931 45.1216 32.1021 45.1216 37.2292ZM38.5145 41.6248V32.2927C38.5145 31.6887 39.0042 31.1989 39.6082 31.1989C40.2123 31.1989 40.702 31.6887 40.702 32.2927V41.6248C40.702 42.2289 40.2123 42.7186 39.6082 42.7186C39.0042 42.7186 38.5145 42.2289 38.5145 41.6248ZM31.8266 37.7092V41.6248C31.8266 42.2289 31.3369 42.7186 30.7329 42.7186C30.1288 42.7186 29.6391 42.2289 29.6391 41.6248V37.7092C29.6391 37.1052 30.1288 36.6155 30.7329 36.6155C31.3369 36.6155 31.8266 37.1052 31.8266 37.7092ZM35.1705 33.744C35.7745 33.744 36.2642 34.2337 36.2642 34.8377V41.6248C36.2642 42.2289 35.7745 42.7186 35.1705 42.7186C34.5665 42.7186 34.0767 42.2289 34.0767 41.6248V34.8377C34.0767 34.2338 34.5665 33.744 35.1705 33.744Z" fill="#617792"/>
</g>
<defs>
<clipPath id="clip0_1599_2845">
<rect width="70" height="70" fill="white"/>
</clipPath>
</defs>
</svg>
