<svg width="70" height="70" viewBox="0 0 70 70" fill="none" xmlns="http://www.w3.org/2000/svg">
<g clip-path="url(#clip0_1599_2682)">
<path d="M46.6284 29.2317C47.7947 28.0773 48.5187 26.4768 48.5187 24.71C48.5187 21.2007 45.663 18.3457 42.153 18.3457C39.4483 18.3457 37.051 20.0603 36.1559 22.5728C35.7808 22.5036 35.3948 22.4656 34.9998 22.4656C34.6049 22.4656 34.219 22.5036 33.8437 22.5728C32.9486 20.0602 30.5513 18.3457 27.8467 18.3457C24.3367 18.3457 21.481 21.2007 21.481 24.71C21.481 26.4768 22.2051 28.0773 23.3714 29.2317C20.5736 30.8255 18.7725 33.8434 18.7725 37.1256C18.7725 37.6921 19.2316 38.151 19.7979 38.151C20.3642 38.151 20.8233 37.6921 20.8233 37.1256C20.8233 34.2268 22.6382 31.5944 25.3433 30.562C26.1122 30.8922 26.9584 31.0757 27.8468 31.0757C28.2381 31.0757 28.6256 31.0379 29.0048 30.9679C29.329 31.8745 29.8526 32.6866 30.5234 33.3511C27.7001 34.9496 25.9259 37.9453 25.9259 41.246C25.9259 41.8124 26.385 42.2714 26.9513 42.2714C27.5176 42.2714 27.9767 41.8124 27.9767 41.246C27.9767 38.4168 29.6605 35.8764 32.2664 34.7742C32.3361 34.7447 32.4005 34.7079 32.4599 34.6659C33.2385 35.0062 34.0972 35.1963 34.9998 35.1963C35.8885 35.1963 36.7348 35.0126 37.5037 34.6823C40.2076 35.7147 42.023 38.3498 42.023 41.246C42.023 41.8124 42.4821 42.2714 43.0484 42.2714C43.6147 42.2714 44.0738 41.8124 44.0738 41.246C44.0738 37.9667 42.2722 34.9463 39.4752 33.352C40.1465 32.6874 40.6706 31.8749 40.9949 30.9679C41.3743 31.0379 41.7616 31.0757 42.1529 31.0757C43.0413 31.0757 43.8874 30.8922 44.6562 30.562C47.3613 31.5944 49.1763 34.2265 49.1763 37.1256C49.1763 37.6921 49.6354 38.151 50.2017 38.151C50.768 38.151 51.2271 37.6921 51.2271 37.1256C51.2274 33.8433 49.4262 30.8255 46.6284 29.2317ZM28.6347 28.831C28.6347 28.8713 28.637 28.911 28.6377 28.951C28.3795 28.9992 28.1149 29.0249 27.8468 29.0249C25.4676 29.0249 23.5319 27.0893 23.5319 24.71C23.5319 22.3316 25.4676 20.3965 27.8468 20.3965C29.6824 20.3965 31.3084 21.5612 31.9135 23.2666C29.9598 24.3547 28.6347 26.4406 28.6347 28.831ZM30.6855 28.831C30.6855 26.4521 32.6209 24.5165 35 24.5165C37.379 24.5165 39.3144 26.4519 39.3144 28.831C39.3144 31.2101 37.379 33.1455 35 33.1455C32.6209 33.1455 30.6855 31.2099 30.6855 28.831ZM41.3621 28.951C41.3628 28.911 41.3651 28.8712 41.3651 28.831C41.3651 26.4406 40.04 24.3548 38.0863 23.2668C38.6914 21.5613 40.3174 20.3966 42.153 20.3966C44.5322 20.3966 46.4679 22.3316 46.4679 24.7101C46.4679 27.0893 44.5322 29.025 42.153 29.025C41.8849 29.0249 41.6203 28.9992 41.3621 28.951Z" fill="#617792"/>
<path d="M61.5552 44.3159V25.6773C64.1112 25.195 66.0509 22.9467 66.0509 20.2527C66.0509 17.2079 63.574 14.731 60.5292 14.731C58.8559 14.731 57.3552 15.4802 56.3418 16.6596L40.2107 7.34553C40.4112 6.77418 40.5217 6.16058 40.5217 5.52142C40.5217 2.47695 38.0448 0 35.0001 0C31.9555 0 29.4785 2.47695 29.4785 5.52156C29.4785 6.16072 29.5888 6.77418 29.7895 7.34567L13.6584 16.6596C12.645 15.4802 11.1442 14.731 9.47091 14.731C6.42617 14.731 3.94922 17.2079 3.94922 20.2527C3.94922 22.9467 5.889 25.1948 8.44497 25.6773V44.3159C5.889 44.7982 3.94922 47.0464 3.94922 49.7405C3.94922 52.7852 6.42617 55.2622 9.47091 55.2622C11.1416 55.2622 12.6402 54.5153 13.6536 53.3392L29.7894 62.6549C29.5888 63.2261 29.4785 63.8396 29.4785 64.4784C29.4785 67.5232 31.9554 70.0001 35.0001 70.0001C38.0449 70.0001 40.5218 67.5232 40.5218 64.4784C40.5218 63.8396 40.4115 63.2261 40.2109 62.6549L56.3467 53.3392C57.3601 54.5154 58.8587 55.2622 60.5294 55.2622C63.5741 55.2622 66.0511 52.7852 66.0511 49.7405C66.0509 47.0463 64.111 44.7982 61.5552 44.3159ZM60.5292 16.7818C62.443 16.7818 64.0001 18.3389 64.0001 20.2527C64.0001 22.1665 62.443 23.7236 60.5292 23.7236C58.6154 23.7236 57.0583 22.1665 57.0583 20.2527C57.0583 18.3389 58.6154 16.7818 60.5292 16.7818ZM35.0001 2.05079C36.9139 2.05079 38.471 3.60776 38.471 5.52156C38.471 7.43358 36.9168 8.98945 35.0055 8.99232C35.0037 8.99232 35.0019 8.99204 35.0001 8.99204C34.9984 8.99204 34.9966 8.99232 34.9948 8.99232C33.0835 8.98945 31.5292 7.43358 31.5292 5.52156C31.5292 3.60776 33.0862 2.05079 35.0001 2.05079ZM6.00001 20.2527C6.00001 18.3389 7.55711 16.7818 9.47091 16.7818C11.3847 16.7818 12.9418 18.3389 12.9418 20.2527C12.9418 22.1665 11.3847 23.7236 9.47091 23.7236C7.55711 23.7236 6.00001 22.1665 6.00001 20.2527ZM9.47091 53.2113C7.55711 53.2113 6.00001 51.6542 6.00001 49.7403C6.00001 47.8265 7.55711 46.2695 9.47091 46.2695C11.3847 46.2695 12.9418 47.8265 12.9418 49.7403C12.9418 51.6542 11.3847 53.2113 9.47091 53.2113ZM35.0001 67.9492C33.0863 67.9492 31.5292 66.3921 31.5292 64.4783C31.5292 62.5645 33.0863 61.0074 35.0001 61.0074C36.9139 61.0074 38.471 62.5645 38.471 64.4783C38.471 66.3921 36.9139 67.9492 35.0001 67.9492ZM39.1831 60.8801C38.3823 59.9504 37.2783 59.2899 36.0254 59.0537V55.1033C36.0254 54.5369 35.5663 54.0779 35 54.0779C34.4337 54.0779 33.9746 54.5369 33.9746 55.1033V59.0537C32.7218 59.2901 31.6178 59.9504 30.8169 60.8801L14.6814 51.5646C14.8821 50.9931 14.9925 50.3797 14.9925 49.7405C14.9925 49.1008 14.8819 48.4866 14.6809 47.9147L18.103 45.9385C18.5934 45.6552 18.7613 45.028 18.4781 44.5376C18.195 44.0472 17.5679 43.8795 17.0773 44.1625L13.6522 46.1405C12.8514 45.2117 11.7478 44.5518 10.4956 44.3157V25.6774C11.7482 25.4413 12.8521 24.7811 13.6529 23.8518L17.0826 25.8325C17.2441 25.9257 17.4205 25.97 17.5945 25.97C17.9488 25.97 18.2934 25.7861 18.4833 25.4573C18.7666 24.9669 18.5986 24.3396 18.1082 24.0565L14.681 22.0773C14.8817 21.5057 14.9922 20.892 14.9922 20.2527C14.9922 19.6161 14.8827 19.005 14.6835 18.4355L30.8169 9.12015C31.6177 10.0496 32.7216 10.7099 33.9742 10.9462V14.897C33.9742 15.4634 34.4333 15.9224 34.9996 15.9224C35.5659 15.9224 36.025 15.4634 36.025 14.897V10.9462C37.2776 10.7099 38.3815 10.0496 39.1823 9.12015L55.3157 18.4355C55.1166 19.005 55.007 19.6161 55.007 20.2527C55.007 20.892 55.1175 21.5057 55.3182 22.0773L51.891 24.0565C51.4006 24.3396 51.2326 24.9669 51.5159 25.4573C51.7058 25.7861 52.0504 25.97 52.4047 25.97C52.5786 25.97 52.7551 25.9257 52.9166 25.8325L56.3463 23.8518C57.1472 24.7811 58.2511 25.4413 59.5036 25.6774V44.3157C58.2514 44.5518 57.1479 45.2117 56.347 46.1405L52.9219 44.1625C52.4315 43.8797 51.8043 44.0472 51.5211 44.5376C51.2378 45.028 51.4058 45.6552 51.8962 45.9385L55.3183 47.9147C55.1173 48.4866 55.0067 49.1008 55.0067 49.7405C55.0067 50.3797 55.1171 50.9933 55.3178 51.5646L39.1831 60.8801ZM60.5292 53.2113C58.6154 53.2113 57.0583 51.6542 57.0583 49.7403C57.0583 47.8265 58.6154 46.2695 60.5292 46.2695C62.443 46.2695 64.0001 47.8265 64.0001 49.7403C64.0001 51.6542 62.443 53.2113 60.5292 53.2113Z" fill="#617792"/>
<path d="M43.5887 45.5945H40.5371C39.9708 45.5945 39.5117 46.0534 39.5117 46.6199C39.5117 47.1863 39.9708 47.6453 40.5371 47.6453H43.5887C44.155 47.6453 44.6141 47.1863 44.6141 46.6199C44.6141 46.0534 44.155 45.5945 43.5887 45.5945Z" fill="#617792"/>
<path d="M43.5886 49.6108H26.4116C25.8453 49.6108 25.3862 50.0698 25.3862 50.6362C25.3862 51.2027 25.8453 51.6616 26.4116 51.6616H43.5887C44.155 51.6616 44.6141 51.2027 44.6141 50.6362C44.6141 50.0698 44.1548 49.6108 43.5886 49.6108Z" fill="#617792"/>
<path d="M26.4116 47.6453H26.4258C26.9921 47.6453 27.4512 47.1863 27.4512 46.6199C27.4512 46.0534 26.9921 45.5945 26.4258 45.5945H26.4116C25.8453 45.5945 25.3862 46.0534 25.3862 46.6199C25.3862 47.1863 25.8453 47.6453 26.4116 47.6453Z" fill="#617792"/>
<path d="M29.9776 47.6453C30.5439 47.6453 31.003 47.1863 31.003 46.6199C31.003 46.0534 30.5439 45.5945 29.9776 45.5945H29.9634C29.3971 45.5945 28.938 46.0534 28.938 46.6199C28.938 47.1863 29.3971 47.6453 29.9634 47.6453H29.9776Z" fill="#617792"/>
<path d="M33.5294 47.6453C34.0956 47.6453 34.5547 47.1863 34.5547 46.6199C34.5547 46.0534 34.0956 45.5945 33.5294 45.5945H33.5151C32.9488 45.5945 32.4897 46.0534 32.4897 46.6199C32.4897 47.1863 32.9488 47.6453 33.5151 47.6453H33.5294Z" fill="#617792"/>
</g>
<defs>
<clipPath id="clip0_1599_2682">
<rect width="70" height="70" fill="white"/>
</clipPath>
</defs>
</svg>
