<svg width="70" height="70" viewBox="0 0 70 70" fill="none" xmlns="http://www.w3.org/2000/svg">
<path d="M41.5625 27.3438H28.4375C27.5673 27.3438 26.7327 27.6895 26.1173 28.3048C25.502 28.9202 25.1563 29.7548 25.1562 30.625V33.9062H18.5938C15.6929 33.9063 12.9109 35.0586 10.8598 37.1098C8.80859 39.1609 7.65625 41.9429 7.65625 44.8438C7.65625 50.4 11.8891 55.7812 19.2391 55.7812L18.3641 56.6453C18.2098 56.7983 18.1046 56.9937 18.0619 57.2068C18.0191 57.4198 18.0408 57.6407 18.1241 57.8413C18.2074 58.0419 18.3486 58.2132 18.5296 58.3333C18.7107 58.4534 18.9234 58.5169 19.1406 58.5156C19.7531 58.5156 19.7312 58.3734 22.6516 55.4641C22.8033 55.3103 22.9061 55.1149 22.947 54.9028C22.9879 54.6906 22.965 54.4711 22.8813 54.2719C22.7719 53.9875 22.8812 54.1406 19.9172 51.1766C19.8152 51.0746 19.6941 50.9937 19.5609 50.9385C19.4277 50.8833 19.2848 50.8549 19.1406 50.8549C18.9964 50.8549 18.8536 50.8833 18.7204 50.9385C18.5871 50.9937 18.466 51.0746 18.3641 51.1766C18.2621 51.2785 18.1812 51.3996 18.126 51.5329C18.0708 51.6661 18.0424 51.8089 18.0424 51.9531C18.0424 52.0973 18.0708 52.2402 18.126 52.3734C18.1812 52.5066 18.2621 52.6277 18.3641 52.7297L19.2391 53.5938C13.2234 53.5938 9.84375 49.3281 9.84375 44.8438C9.84375 42.5231 10.7656 40.2975 12.4066 38.6566C14.0475 37.0156 16.2731 36.0937 18.5938 36.0938H25.1562V39.375C25.1563 40.2452 25.502 41.0798 26.1173 41.6952C26.7327 42.3105 27.5673 42.6562 28.4375 42.6562H41.5625C42.4327 42.6562 43.2673 42.3105 43.8827 41.6952C44.498 41.0798 44.8438 40.2452 44.8438 39.375V30.625C44.8438 29.7548 44.498 28.9202 43.8827 28.3048C43.2673 27.6895 42.4327 27.3438 41.5625 27.3438ZM42.6562 39.375C42.6562 39.6651 42.541 39.9433 42.3359 40.1484C42.1308 40.3535 41.8526 40.4688 41.5625 40.4688H28.4375C28.1474 40.4688 27.8692 40.3535 27.6641 40.1484C27.459 39.9433 27.3438 39.6651 27.3438 39.375V30.625C27.3438 30.3349 27.459 30.0567 27.6641 29.8516C27.8692 29.6465 28.1474 29.5312 28.4375 29.5312H41.5625C41.8526 29.5312 42.1308 29.6465 42.3359 29.8516C42.541 30.0567 42.6562 30.3349 42.6562 30.625V39.375Z" fill="#617792"/>
<path d="M41.5625 47.0312H28.4375C27.5673 47.0312 26.7327 47.377 26.1173 47.9923C25.502 48.6077 25.1563 49.4423 25.1562 50.3125V59.0625C25.1563 59.9327 25.502 60.7673 26.1173 61.3827C26.7327 61.998 27.5673 62.3438 28.4375 62.3438H41.5625C42.4327 62.3438 43.2673 61.998 43.8827 61.3827C44.498 60.7673 44.8438 59.9327 44.8438 59.0625V50.3125C44.8438 49.4423 44.498 48.6077 43.8827 47.9923C43.2673 47.377 42.4327 47.0312 41.5625 47.0312ZM42.6562 59.0625C42.6562 59.3526 42.541 59.6308 42.3359 59.8359C42.1308 60.041 41.8526 60.1562 41.5625 60.1562H28.4375C28.1474 60.1562 27.8692 60.041 27.6641 59.8359C27.459 59.6308 27.3438 59.3526 27.3438 59.0625V50.3125C27.3438 50.0224 27.459 49.7442 27.6641 49.5391C27.8692 49.334 28.1474 49.2188 28.4375 49.2188H41.5625C41.8526 49.2188 42.1308 49.334 42.3359 49.5391C42.541 49.7442 42.6562 50.0224 42.6562 50.3125V59.0625Z" fill="#617792"/>
<path d="M39.375 12.0312H35C34.7099 12.0312 34.4317 12.1465 34.2266 12.3516C34.0215 12.5567 33.9062 12.8349 33.9062 13.125C33.9062 13.4151 34.0215 13.6933 34.2266 13.8984C34.4317 14.1035 34.7099 14.2188 35 14.2188H39.375C39.6651 14.2188 39.9433 14.1035 40.1484 13.8984C40.3535 13.6933 40.4688 13.4151 40.4688 13.125C40.4688 12.8349 40.3535 12.5567 40.1484 12.3516C39.9433 12.1465 39.6651 12.0312 39.375 12.0312Z" fill="#617792"/>
<path d="M30.625 14.2188C30.9151 14.2188 31.1933 14.1035 31.3984 13.8984C31.6035 13.6933 31.7188 13.4151 31.7188 13.125C31.7188 12.8349 31.6035 12.5567 31.3984 12.3516C31.1933 12.1465 30.9151 12.0312 30.625 12.0312C30.3349 12.0312 30.0567 12.1465 29.8516 12.3516C29.6465 12.5567 29.5312 12.8349 29.5312 13.125C29.5312 13.4151 29.6465 13.6933 29.8516 13.8984C30.0567 14.1035 30.3349 14.2188 30.625 14.2188Z" fill="#617792"/>
<path d="M39.375 31.7188H35C34.7099 31.7188 34.4317 31.834 34.2266 32.0391C34.0215 32.2442 33.9062 32.5224 33.9062 32.8125C33.9062 33.1026 34.0215 33.3808 34.2266 33.5859C34.4317 33.791 34.7099 33.9062 35 33.9062H39.375C39.6651 33.9062 39.9433 33.791 40.1484 33.5859C40.3535 33.3808 40.4688 33.1026 40.4688 32.8125C40.4688 32.5224 40.3535 32.2442 40.1484 32.0391C39.9433 31.834 39.6651 31.7188 39.375 31.7188Z" fill="#617792"/>
<path d="M30.625 33.9062C30.9151 33.9062 31.1933 33.791 31.3984 33.5859C31.6035 33.3808 31.7188 33.1026 31.7188 32.8125C31.7188 32.5224 31.6035 32.2442 31.3984 32.0391C31.1933 31.834 30.9151 31.7188 30.625 31.7188C30.3349 31.7188 30.0567 31.834 29.8516 32.0391C29.6465 32.2442 29.5312 32.5224 29.5312 32.8125C29.5312 33.1026 29.6465 33.3808 29.8516 33.5859C30.0567 33.791 30.3349 33.9062 30.625 33.9062Z" fill="#617792"/>
<path d="M38.0516 51.4063L33.9063 55.6063L31.9485 53.5938C31.8465 53.4918 31.7255 53.4109 31.5922 53.3557C31.459 53.3005 31.3162 53.2721 31.172 53.2721C31.0277 53.2721 30.8849 53.3005 30.7517 53.3557C30.6184 53.4109 30.4974 53.4918 30.3954 53.5938C30.2934 53.6957 30.2125 53.8168 30.1573 53.95C30.1021 54.0833 30.0737 54.2261 30.0737 54.3703C30.0737 54.5145 30.1021 54.6573 30.1573 54.7906C30.2125 54.9238 30.2934 55.0449 30.3954 55.1469C33.3485 58.1 33.3048 58.1984 33.9063 58.1984C34.5079 58.1984 34.3438 58.1984 39.6048 52.9594C39.7067 52.8574 39.7876 52.7363 39.8428 52.6031C39.898 52.4698 39.9264 52.327 39.9264 52.1828C39.9264 52.0386 39.898 51.8958 39.8428 51.7625C39.7876 51.6293 39.7067 51.5082 39.6048 51.4063C39.5028 51.3043 39.3817 51.2234 39.2485 51.1682C39.1152 51.113 38.9724 51.0846 38.8282 51.0846C38.684 51.0846 38.5412 51.113 38.4079 51.1682C38.2747 51.2234 38.1536 51.3043 38.0516 51.4063Z" fill="#617792"/>
<path d="M62.3438 25.1562C62.3438 22.2554 61.1914 19.4734 59.1402 17.4223C57.0891 15.3711 54.3071 14.2188 51.4062 14.2188H44.8438V10.9375C44.8438 10.0673 44.498 9.23266 43.8827 8.61731C43.2673 8.00195 42.4327 7.65625 41.5625 7.65625H28.4375C27.5673 7.65625 26.7327 8.00195 26.1173 8.61731C25.502 9.23266 25.1563 10.0673 25.1562 10.9375V19.6875C25.1563 20.5577 25.502 21.3923 26.1173 22.0077C26.7327 22.623 27.5673 22.9687 28.4375 22.9688H41.5625C42.4327 22.9687 43.2673 22.623 43.8827 22.0077C44.498 21.3923 44.8438 20.5577 44.8438 19.6875V16.4062H51.4062C53.7269 16.4062 55.9525 17.3281 57.5934 18.9691C59.2344 20.61 60.1562 22.8356 60.1562 25.1562C60.1562 29.5312 56.875 33.9062 50.7609 33.9062L51.6359 33.0422C51.7379 32.9402 51.8188 32.8191 51.874 32.6859C51.9292 32.5527 51.9576 32.4098 51.9576 32.2656C51.9576 32.1214 51.9292 31.9786 51.874 31.8454C51.8188 31.7121 51.7379 31.591 51.6359 31.4891C51.534 31.3871 51.4129 31.3062 51.2796 31.251C51.1464 31.1958 51.0036 31.1674 50.8594 31.1674C50.7152 31.1674 50.5723 31.1958 50.4391 31.251C50.3059 31.3062 50.1848 31.3871 50.0828 31.4891C47.1188 34.4531 47.2281 34.3 47.1188 34.5844C47.035 34.7836 47.0121 35.0031 47.053 35.2153C47.0939 35.4274 47.1967 35.6228 47.3484 35.7766C50.3125 38.7297 50.3125 38.8281 50.8594 38.8281C51.0766 38.8294 51.2893 38.7659 51.4704 38.6458C51.6514 38.5257 51.7926 38.3544 51.8759 38.1538C51.9592 37.9532 51.9808 37.7323 51.9381 37.5193C51.8954 37.3062 51.7902 37.1108 51.6359 36.9578L50.7609 36.0938C58.1328 36.0938 62.3438 30.7016 62.3438 25.1562ZM42.6562 19.6875C42.6562 19.9776 42.541 20.2558 42.3359 20.4609C42.1308 20.666 41.8526 20.7812 41.5625 20.7812H28.4375C28.1474 20.7812 27.8692 20.666 27.6641 20.4609C27.459 20.2558 27.3438 19.9776 27.3438 19.6875V10.9375C27.3438 10.6474 27.459 10.3692 27.6641 10.1641C27.8692 9.95898 28.1474 9.84375 28.4375 9.84375H41.5625C41.8526 9.84375 42.1308 9.95898 42.3359 10.1641C42.541 10.3692 42.6562 10.6474 42.6562 10.9375V19.6875Z" fill="#617792"/>
<path d="M8.75 16.4062H19.2391L18.3641 17.2703C18.2098 17.4233 18.1046 17.6187 18.0619 17.8317C18.0191 18.0447 18.0408 18.2656 18.1241 18.4663C18.2074 18.6669 18.3486 18.8382 18.5296 18.9583C18.7107 19.0784 18.9234 19.1418 19.1406 19.1406C19.7531 19.1406 19.7312 18.9984 22.6516 16.089C22.8033 15.9352 22.9061 15.7399 22.947 15.5277C22.9879 15.3155 22.965 15.096 22.8813 14.8968C22.7719 14.6125 22.8812 14.7656 19.9172 11.8015C19.8152 11.6995 19.6941 11.6186 19.5609 11.5635C19.4277 11.5083 19.2848 11.4799 19.1406 11.4799C18.8494 11.4799 18.57 11.5956 18.3641 11.8015C18.2621 11.9035 18.1812 12.0246 18.126 12.1578C18.0708 12.2911 18.0424 12.4339 18.0424 12.5781C18.0424 12.8694 18.1581 13.1487 18.3641 13.3546L19.2391 14.2187H8.75C8.45992 14.2187 8.18172 14.3339 7.9766 14.5391C7.77148 14.7442 7.65625 15.0224 7.65625 15.3125C7.65625 15.6025 7.77148 15.8807 7.9766 16.0859C8.18172 16.291 8.45992 16.4062 8.75 16.4062Z" fill="#617792"/>
<path d="M39.375 16.4062H30.625C30.3349 16.4062 30.0567 16.5215 29.8516 16.7266C29.6465 16.9317 29.5312 17.2099 29.5312 17.5C29.5312 17.7901 29.6465 18.0683 29.8516 18.2734C30.0567 18.4785 30.3349 18.5938 30.625 18.5938H39.375C39.6651 18.5938 39.9433 18.4785 40.1484 18.2734C40.3535 18.0683 40.4688 17.7901 40.4688 17.5C40.4688 17.2099 40.3535 16.9317 40.1484 16.7266C39.9433 16.5215 39.6651 16.4062 39.375 16.4062Z" fill="#617792"/>
<path d="M39.375 36.0938H30.625C30.3349 36.0938 30.0567 36.209 29.8516 36.4141C29.6465 36.6192 29.5312 36.8974 29.5312 37.1875C29.5312 37.4776 29.6465 37.7558 29.8516 37.9609C30.0567 38.166 30.3349 38.2812 30.625 38.2812H39.375C39.6651 38.2812 39.9433 38.166 40.1484 37.9609C40.3535 37.7558 40.4688 37.4776 40.4688 37.1875C40.4688 36.8974 40.3535 36.6192 40.1484 36.4141C39.9433 36.209 39.6651 36.0938 39.375 36.0938Z" fill="#617792"/>
</svg>
