<svg width="70" height="70" viewBox="0 0 70 70" fill="none" xmlns="http://www.w3.org/2000/svg">
<path d="M65.625 49.2188C66.4952 49.2188 67.3298 48.873 67.9452 48.2577C68.5605 47.6423 68.9062 46.8077 68.9062 45.9375V4.375C68.9062 3.50476 68.5605 2.67016 67.9452 2.05481C67.3298 1.43945 66.4952 1.09375 65.625 1.09375H4.375C3.50476 1.09375 2.67016 1.43945 2.05481 2.05481C1.43945 2.67016 1.09375 3.50476 1.09375 4.375V45.9375C1.09375 46.8077 1.43945 47.6423 2.05481 48.2577C2.67016 48.873 3.50476 49.2188 4.375 49.2188H23.625C25.7373 52.5886 28.8702 55.1961 32.5675 56.6617L29.0784 60.1562H25.1562V56.875C25.1562 56.0048 24.8105 55.1702 24.1952 54.5548C23.5798 53.9395 22.7452 53.5938 21.875 53.5938H8.75C7.87976 53.5938 7.04516 53.9395 6.42981 54.5548C5.81445 55.1702 5.46875 56.0048 5.46875 56.875V65.625C5.46875 66.4952 5.81445 67.3298 6.42981 67.9452C7.04516 68.5605 7.87976 68.9062 8.75 68.9062H21.875C22.7452 68.9062 23.5798 68.5605 24.1952 67.9452C24.8105 67.3298 25.1562 66.4952 25.1562 65.625V62.3438H29.5312C29.8213 62.3437 30.0995 62.2284 30.3045 62.0233L34.9212 57.4066C37.3324 58.0182 39.8429 58.1314 42.2993 57.7391C44.7556 57.3468 47.1061 56.4573 49.2067 55.125L52.0505 57.9688L51.73 58.2892C51.525 58.4943 51.4098 58.7725 51.4098 59.0625C51.4098 59.3525 51.525 59.6307 51.73 59.8358L59.1205 67.2263C59.6529 67.7587 60.285 68.1811 60.9807 68.4692C61.6764 68.7574 62.422 68.9057 63.175 68.9057C63.928 68.9057 64.6736 68.7574 65.3693 68.4692C66.065 68.1811 66.6971 67.7587 67.2295 67.2263C67.762 66.6938 68.1843 66.0617 68.4725 65.366C68.7607 64.6703 68.909 63.9247 68.909 63.1717C68.909 62.4187 68.7607 61.6731 68.4725 60.9774C68.1843 60.2817 67.762 59.6496 67.2295 59.1172L59.8391 51.7267C59.634 51.5217 59.3558 51.4065 59.0658 51.4065C58.7758 51.4065 58.4976 51.5217 58.2925 51.7267L57.9688 52.0472L55.1403 49.2188H65.625ZM22.9688 65.625C22.9688 65.9151 22.8535 66.1933 22.6484 66.3984C22.4433 66.6035 22.1651 66.7188 21.875 66.7188H8.75C8.45992 66.7188 8.18172 66.6035 7.9766 66.3984C7.77148 66.1933 7.65625 65.9151 7.65625 65.625V56.875C7.65625 56.5849 7.77148 56.3067 7.9766 56.1016C8.18172 55.8965 8.45992 55.7812 8.75 55.7812H21.875C22.1651 55.7812 22.4433 55.8965 22.6484 56.1016C22.8535 56.3067 22.9688 56.5849 22.9688 56.875V65.625ZM4.375 47.0312C4.08492 47.0312 3.80672 46.916 3.6016 46.7109C3.39648 46.5058 3.28125 46.2276 3.28125 45.9375V4.375C3.28125 4.08492 3.39648 3.80672 3.6016 3.6016C3.80672 3.39648 4.08492 3.28125 4.375 3.28125H65.625C65.9151 3.28125 66.1933 3.39648 66.3984 3.6016C66.6035 3.80672 66.7188 4.08492 66.7188 4.375V45.9375C66.7188 46.2276 66.6035 46.5058 66.3984 46.7109C66.1933 46.916 65.9151 47.0312 65.625 47.0312H56.2997C57.3158 44.8026 57.8798 42.3947 57.9592 39.9466C58.0386 37.4986 57.6317 35.0592 56.7621 32.7694C55.8926 30.4797 54.5775 28.3851 52.8932 26.6069C51.2088 24.8287 49.1885 23.4022 46.9492 22.4098L52.5 16.8591V19.6875H54.6875V14.2188C54.6875 13.9287 54.5723 13.6505 54.3671 13.4454C54.162 13.2402 53.8838 13.125 53.5938 13.125H48.125V15.3125H50.9534L44.6983 21.5677C43.1714 21.1149 41.5925 20.8613 40.0006 20.813L34.8337 12.5453C34.7354 12.388 34.5987 12.2583 34.4365 12.1684C34.2742 12.0784 34.0918 12.0312 33.9062 12.0312H29.5312V8.75C29.5312 7.87976 29.1855 7.04516 28.5702 6.42981C27.9548 5.81445 27.1202 5.46875 26.25 5.46875H13.125C12.2548 5.46875 11.4202 5.81445 10.8048 6.42981C10.1895 7.04516 9.84375 7.87976 9.84375 8.75V17.5C9.84375 18.3702 10.1895 19.2048 10.8048 19.8202C11.4202 20.4355 12.2548 20.7812 13.125 20.7812H26.25C27.1202 20.7812 27.9548 20.4355 28.5702 19.8202C29.1855 19.2048 29.5312 18.3702 29.5312 17.5V14.2188H33.3003L37.4631 20.8797C32.7499 21.3723 28.4035 23.649 25.3148 27.2431L23.7836 25.5227C23.6818 25.4084 23.5572 25.3167 23.4178 25.2536C23.2784 25.1905 23.1273 25.1573 22.9742 25.1562H22.9688C22.8172 25.1562 22.6672 25.1877 22.5285 25.2487C22.3897 25.3097 22.2651 25.3989 22.1627 25.5106L10.1314 38.6356L11.7436 40.1144L22.9567 27.8819L23.9509 29.0019C21.2363 32.999 20.2078 37.9055 21.0886 42.6562H7.65625V13.125H5.46875V43.75C5.46875 44.0401 5.58398 44.3183 5.7891 44.5234C5.99422 44.7285 6.27242 44.8438 6.5625 44.8438H21.6048C21.8395 45.5903 22.1219 46.3209 22.4503 47.0312H4.375ZM27.3438 8.75V17.5C27.3438 17.7901 27.2285 18.0683 27.0234 18.2734C26.8183 18.4785 26.5401 18.5938 26.25 18.5938H13.125C12.8349 18.5938 12.5567 18.4785 12.3516 18.2734C12.1465 18.0683 12.0312 17.7901 12.0312 17.5V8.75C12.0312 8.45992 12.1465 8.18172 12.3516 7.9766C12.5567 7.77148 12.8349 7.65625 13.125 7.65625H26.25C26.5401 7.65625 26.8183 7.77148 27.0234 7.9766C27.2285 8.18172 27.3438 8.45992 27.3438 8.75ZM22.9688 39.375C22.9688 36.1302 23.931 32.9582 25.7337 30.2602C27.5364 27.5622 30.0987 25.4594 33.0966 24.2176C36.0945 22.9759 39.3932 22.651 42.5757 23.284C45.7582 23.917 48.6815 25.4796 50.976 27.774C53.2704 30.0685 54.833 32.9918 55.466 36.1743C56.099 39.3568 55.7741 42.6555 54.5324 45.6534C53.2906 48.6512 51.1878 51.2136 48.4898 53.0163C45.7918 54.819 42.6198 55.7812 39.375 55.7812C35.0253 55.7763 30.8552 54.0462 27.7795 50.9705C24.7038 47.8948 22.9737 43.7247 22.9688 39.375ZM65.6797 60.6638C66.0152 60.9917 66.2823 61.383 66.4655 61.8149C66.6487 62.2469 66.7445 62.7109 66.7471 63.18C66.7498 63.6492 66.6593 64.1143 66.481 64.5482C66.3027 64.9822 66.04 65.3765 65.7083 65.7083C65.3765 66.04 64.9822 66.3027 64.5482 66.481C64.1143 66.6593 63.6492 66.7498 63.18 66.7471C62.7109 66.7445 62.2469 66.6487 61.8149 66.4655C61.383 66.2823 60.9917 66.0152 60.6638 65.6797L54.0466 59.0625L59.0625 54.0466L65.6797 60.6638ZM53.5938 56.4222L51.0202 53.8486C52.0614 53.0097 53.0097 52.0614 53.8486 51.0202L56.4222 53.5938L53.5938 56.4222Z" fill="#617792"/>
<path d="M39.375 25.1563C36.5628 25.1562 33.8138 25.9902 31.4755 27.5525C29.1372 29.1149 27.3148 31.3356 26.2386 33.9337C25.1624 36.5319 24.8808 39.3908 25.4295 42.1489C25.9781 44.9071 27.3323 47.4406 29.3208 49.4292C31.3094 51.4177 33.8429 52.7719 36.6011 53.3205C39.3592 53.8692 42.2181 53.5876 44.8163 52.5114C47.4144 51.4352 49.6351 49.6128 51.1975 47.2745C52.7598 44.9363 53.5938 42.1872 53.5938 39.375C53.5894 35.6053 52.09 31.9912 49.4244 29.3256C46.7588 26.66 43.1447 25.1606 39.375 25.1563ZM38.8981 27.3678L31.7658 34.5002L29.7314 32.212C30.8002 30.7709 32.1785 29.5876 33.7649 28.7493C35.3512 27.911 37.1053 27.4389 38.8981 27.3678ZM39.375 51.4062C37.1597 51.4038 34.988 50.7898 33.0994 49.6319C31.2108 48.4739 29.6785 46.817 28.6716 44.8438H41.5625V42.6562H27.8097C26.9939 39.8342 27.2559 36.8096 28.5447 34.1698L30.9006 36.8211C30.9998 36.9326 31.1207 37.0226 31.256 37.0856C31.3912 37.1486 31.5379 37.1833 31.687 37.1875H31.7188C32.0088 37.1874 32.287 37.0722 32.492 36.867L41.7736 27.5855C44.6957 28.1802 47.2928 29.839 49.0613 32.24C50.8298 34.6411 51.6435 37.6133 51.3447 40.5804C51.046 43.5474 49.656 46.2978 47.4444 48.298C45.2327 50.2983 42.357 51.406 39.375 51.4062Z" fill="#617792"/>
<path d="M14.2188 9.84375H25.1562V12.0312H14.2188V9.84375Z" fill="#617792"/>
<path d="M14.2188 14.2188H25.1562V16.4062H14.2188V14.2188Z" fill="#617792"/>
<path d="M9.84375 57.9688H20.7812V60.1562H9.84375V57.9688Z" fill="#617792"/>
<path d="M9.84375 62.3438H20.7812V64.5312H9.84375V62.3438Z" fill="#617792"/>
</svg>
