<svg width="70" height="70" viewBox="0 0 70 70" fill="none" xmlns="http://www.w3.org/2000/svg">
<g clip-path="url(#clip0_1599_2692)">
<mask id="mask0_1599_2692" style="mask-type:luminance" maskUnits="userSpaceOnUse" x="0" y="0" width="70" height="70">
<path d="M0 7.62939e-06H70V70H0V7.62939e-06Z" fill="white"/>
</mask>
<g mask="url(#mask0_1599_2692)">
<path d="M32.2235 42.142C30.0042 46.7793 26.3121 50.5679 21.7067 52.9041L18.2465 54.6594C18.0025 54.783 17.8995 55.0771 18.0131 55.326L19.3433 58.244C19.5121 58.6144 19.2005 59.0239 18.7987 58.9596L7.43082 57.1451C7.0703 57.0875 6.88518 56.6813 7.07809 56.3715L13.1648 46.6004C13.38 46.2549 13.8932 46.2882 14.0621 46.6586L15.378 49.5453C15.4971 49.8066 15.8081 49.9181 16.066 49.7922L17.7607 48.9649C22.6382 46.5838 26.5229 42.5878 28.7695 37.6771" stroke="#617792" stroke-width="2" stroke-miterlimit="10" stroke-linecap="round" stroke-linejoin="round"/>
<path d="M37.6631 41.9022C39.8689 46.6488 43.6086 50.5278 48.293 52.9041L51.7533 54.6594C51.9972 54.783 52.1002 55.0771 51.9867 55.3261L50.6564 58.244C50.4876 58.6144 50.7992 59.0237 51.2011 58.9596L62.5689 57.1451C62.9294 57.0875 63.1145 56.6813 62.9216 56.3715L56.835 46.6004C56.6197 46.2549 56.1064 46.2883 55.9376 46.6586L54.6217 49.5453C54.5026 49.8064 54.1917 49.9181 53.9337 49.7922L52.2389 48.9649C51.4618 48.5855 50.71 48.1653 49.986 47.7067" stroke="#617792" stroke-width="2" stroke-miterlimit="10" stroke-linecap="round" stroke-linejoin="round"/>
<path d="M46.2687 44.7871C44.1712 42.7654 42.4567 40.3574 41.2305 37.6768" stroke="#617792" stroke-width="2" stroke-miterlimit="10" stroke-linecap="round" stroke-linejoin="round"/>
<path d="M32.2226 27.8559C30.0031 23.2195 26.3114 19.4317 21.7067 17.0958L18.2464 15.3405C18.0025 15.2169 17.8995 14.9227 18.013 14.6739L19.3433 11.7557C19.5121 11.3854 19.2005 10.9762 18.7986 11.0403L7.43082 12.8547C7.0703 12.9122 6.88518 13.3186 7.07809 13.6284L13.1647 23.3994C13.38 23.745 13.8932 23.7117 14.0621 23.3413L15.378 20.4545C15.4971 20.1933 15.808 20.0818 16.066 20.2077L17.7607 21.0348C22.6382 23.4159 26.5229 27.4121 28.7695 32.3228" stroke="#617792" stroke-width="2" stroke-miterlimit="10" stroke-linecap="round" stroke-linejoin="round"/>
<path d="M37.9121 27.5804C40.1446 23.0694 43.7808 19.3851 48.294 17.0958L51.7542 15.3404C51.9981 15.2167 52.1011 14.9226 51.9876 14.6738L50.6574 11.7557C50.4885 11.3853 50.8002 10.9761 51.202 11.0402L62.5699 12.8546C62.9303 12.9122 63.1155 13.3185 62.9226 13.6282L56.8359 23.3993C56.6207 23.7448 56.1075 23.7114 55.9386 23.3411L54.6227 20.4544C54.5035 20.1933 54.1926 20.0816 53.9346 20.2075L52.24 21.0348C47.4934 23.3519 43.687 27.1986 41.4157 31.9292" stroke="#617792" stroke-width="2" stroke-miterlimit="10" stroke-linecap="round" stroke-linejoin="round"/>
<path d="M37.6769 32.3232V12.1691C37.6769 11.8872 37.9053 11.6588 38.187 11.6588H41.3852C41.7924 11.6588 42.0355 11.2057 41.8103 10.8666L35.4252 1.24693C35.2234 0.942872 34.7769 0.942872 34.5751 1.24693L28.19 10.8666C27.9649 11.2057 28.208 11.6588 28.6151 11.6588H31.8133C32.095 11.6588 32.3235 11.8872 32.3235 12.1691V15.1093" stroke="#617792" stroke-width="2" stroke-miterlimit="10" stroke-linecap="round" stroke-linejoin="round"/>
<path d="M32.3235 37.6766V57.8307C32.3235 58.1126 32.095 58.3411 31.8134 58.3411H28.6151C28.2079 58.3411 27.9649 58.7942 28.19 59.1332L34.5751 68.7529C34.7769 69.057 35.2234 69.057 35.4252 68.7529L41.8104 59.1332C42.0354 58.7942 41.7923 58.3411 41.3852 58.3411H38.187C37.9053 58.3411 37.6768 58.1126 37.6768 57.8307V37.6766" stroke="#617792" stroke-width="2" stroke-miterlimit="10" stroke-linecap="round" stroke-linejoin="round"/>
<path d="M32.3232 19.8542V32.3232" stroke="#617792" stroke-width="2" stroke-miterlimit="10" stroke-linecap="round" stroke-linejoin="round"/>
<path d="M68.7531 34.5748L59.1335 28.1897C58.7943 27.9645 58.3412 28.2078 58.3412 28.6148V31.813C58.3412 32.0947 58.1128 32.3231 57.8309 32.3231H35.0001H12.1693C11.8874 32.3231 11.6589 32.0947 11.6589 31.813V28.6148C11.6589 28.2078 11.2058 27.9645 10.8668 28.1897L1.24709 34.5748C0.943027 34.7767 0.943027 35.2231 1.24709 35.425L10.8668 41.81C11.2058 42.0351 11.6589 41.792 11.6589 41.385V38.1867C11.6589 37.9049 11.8874 37.6765 12.1693 37.6765H35.0001H57.8309C58.1128 37.6765 58.3412 37.9049 58.3412 38.1867V41.385C58.3412 41.792 58.7943 42.0351 59.1335 41.81L68.7531 35.425C69.0573 35.2231 69.0573 34.7767 68.7531 34.5748Z" stroke="#617792" stroke-width="2" stroke-miterlimit="10" stroke-linecap="round" stroke-linejoin="round"/>
</g>
</g>
<defs>
<clipPath id="clip0_1599_2692">
<rect width="70" height="70" fill="white"/>
</clipPath>
</defs>
</svg>
