<svg width="70" height="70" viewBox="0 0 70 70" fill="none" xmlns="http://www.w3.org/2000/svg">
<mask id="mask0_1599_1241" style="mask-type:luminance" maskUnits="userSpaceOnUse" x="0" y="0" width="70" height="70">
<path d="M0 7.98728e-06H70.0001V70H0V7.98728e-06Z" fill="white"/>
</mask>
<g mask="url(#mask0_1599_1241)">
<path d="M35.0006 39.4474C32.5445 39.4474 30.5533 37.4563 30.5533 35C30.5533 32.5437 32.5445 30.5525 35.0006 30.5525C37.4569 30.5525 39.4481 32.5437 39.4481 35C39.4481 37.4563 37.4569 39.4474 35.0006 39.4474ZM45.893 32.6662H43.8978C43.5435 32.6662 43.2255 32.445 43.1067 32.1112C43.0094 31.8381 42.8987 31.5713 42.7754 31.3114C42.6233 30.9911 42.6912 30.6096 42.9421 30.3589L44.3529 28.9481C44.682 28.619 44.682 28.0855 44.353 27.7565L42.2441 25.6476C41.9151 25.3186 41.3816 25.3186 41.0526 25.6476L39.6416 27.0586C39.3908 27.3094 39.0095 27.3773 38.689 27.2253C38.4294 27.1018 38.1625 26.9914 37.8894 26.894C37.5555 26.7752 37.3343 26.4571 37.3343 26.103V24.1076C37.3343 23.6422 36.9572 23.265 36.4918 23.265H33.5094C33.044 23.265 32.667 23.6422 32.667 24.1076V26.103C32.667 26.4571 32.4458 26.7752 32.1119 26.894C31.8387 26.9914 31.5719 27.1018 31.3122 27.2253C30.9919 27.3773 30.6104 27.3094 30.3597 27.0586L28.9486 25.6476C28.6197 25.3186 28.0862 25.3186 27.7571 25.6476L25.6482 27.7565C25.3191 28.0855 25.3191 28.619 25.6484 28.9481L27.0593 30.3589C27.31 30.6096 27.378 30.9911 27.2258 31.3116C27.1025 31.5713 26.9919 31.8381 26.8946 32.1112C26.7757 32.445 26.4579 32.6662 26.1035 32.6662H24.1082C23.6428 32.6662 23.2656 33.0434 23.2656 33.5088V36.4912C23.2656 36.9565 23.6428 37.3338 24.1082 37.3338H26.1035C26.4579 37.3338 26.7757 37.555 26.8947 37.8888C26.9919 38.162 27.1025 38.4287 27.2258 38.6884C27.378 39.0088 27.31 39.3901 27.0593 39.641L25.6484 41.0518C25.3191 41.381 25.3191 41.9145 25.6482 42.2435L27.7571 44.3524C28.0862 44.6813 28.6197 44.6813 28.9486 44.3524L30.3596 42.9414C30.6104 42.6907 30.9919 42.6227 31.3122 42.7748C31.5719 42.8981 31.8387 43.0087 32.1119 43.106C32.4458 43.2248 32.667 43.5428 32.667 43.8971V45.8925C32.667 46.3579 33.044 46.7351 33.5094 46.7351H36.4918C36.9572 46.7351 37.3343 46.3579 37.3343 45.8925V43.8971C37.3343 43.5428 37.5555 43.2248 37.8894 43.106C38.1625 43.0087 38.4294 42.8981 38.689 42.7748C39.0094 42.6227 39.3908 42.6907 39.6417 42.9414L41.0526 44.3524C41.3816 44.6813 41.9151 44.6813 42.2441 44.3524L44.353 42.2435C44.682 41.9145 44.682 41.381 44.353 41.0518L42.9421 39.641C42.6912 39.3901 42.6233 39.0088 42.7754 38.6884C42.8987 38.4287 43.0094 38.162 43.1067 37.8888C43.2255 37.555 43.5434 37.3338 43.8978 37.3338H45.893C46.3584 37.3338 46.7356 36.9565 46.7356 36.4912V33.5088C46.7356 33.0434 46.3584 32.6662 45.893 32.6662Z" stroke="#617792" stroke-width="2" stroke-miterlimit="10" stroke-linecap="round" stroke-linejoin="round"/>
<path d="M24.7375 12.8814C24.7375 19.4293 19.4294 24.7374 12.8815 24.7374C6.33351 24.7374 1.02539 19.4293 1.02539 12.8814C1.02539 6.33353 6.33351 1.02542 12.8815 1.02542C19.4294 1.02542 24.7375 6.33353 24.7375 12.8814Z" stroke="#617792" stroke-width="2" stroke-miterlimit="10" stroke-linecap="round" stroke-linejoin="round"/>
<path d="M68.9739 57.1186C68.9739 63.6665 63.6657 68.9746 57.1179 68.9746C50.5698 68.9746 45.2617 63.6665 45.2617 57.1186C45.2617 50.5706 50.5698 45.2625 57.1179 45.2625C63.6657 45.2625 68.9739 50.5706 68.9739 57.1186Z" stroke="#617792" stroke-width="2" stroke-miterlimit="10" stroke-linecap="round" stroke-linejoin="round"/>
<path d="M15.702 6.07405C17.2592 7.63128 17.2592 10.1562 15.702 11.7134C14.1446 13.2708 11.6198 13.2708 10.0625 11.7134C8.50522 10.1562 8.50522 7.63128 10.0625 6.07405C11.6198 4.51668 14.1446 4.51668 15.702 6.07405Z" stroke="#617792" stroke-width="2" stroke-miterlimit="10" stroke-linecap="round" stroke-linejoin="round"/>
<path d="M16.2096 16.6298H9.553C7.03422 16.6298 4.99219 18.6717 4.99219 21.1907V21.7308C7.08809 23.6005 9.85173 24.7374 12.8813 24.7374C15.9108 24.7374 18.6745 23.6005 20.7704 21.7308V21.1907C20.7704 18.6717 18.7283 16.6298 16.2096 16.6298Z" stroke="#617792" stroke-width="2" stroke-miterlimit="10" stroke-linecap="round" stroke-linejoin="round"/>
<path d="M15.702 50.3111C17.2592 51.8685 17.2592 54.3933 15.702 55.9506C14.1446 57.5079 11.6198 57.5079 10.0625 55.9506C8.50522 54.3933 8.50522 51.8685 10.0625 50.3111C11.6198 48.7539 14.1446 48.7539 15.702 50.3111Z" stroke="#617792" stroke-width="2" stroke-miterlimit="10" stroke-linecap="round" stroke-linejoin="round"/>
<path d="M16.2096 60.8671H9.553C7.03422 60.8671 4.99219 62.909 4.99219 65.4277V65.968C7.08809 67.8377 9.85173 68.9746 12.8813 68.9746C15.9108 68.9746 18.6745 67.8377 20.7704 65.968V65.4277C20.7704 62.909 18.7283 60.8671 16.2096 60.8671Z" stroke="#617792" stroke-width="2" stroke-miterlimit="10" stroke-linecap="round" stroke-linejoin="round"/>
<path d="M59.9383 6.07405C61.4955 7.63128 61.4955 10.1562 59.9383 11.7134C58.3809 13.2708 55.8561 13.2708 54.2988 11.7134C52.7416 10.1562 52.7416 7.63128 54.2988 6.07405C55.8561 4.51668 58.3809 4.51668 59.9383 6.07405Z" stroke="#617792" stroke-width="2" stroke-miterlimit="10" stroke-linecap="round" stroke-linejoin="round"/>
<path d="M60.4479 16.6298H53.7913C51.2725 16.6298 49.2305 18.6717 49.2305 21.1907V21.7308C51.3264 23.6005 54.09 24.7374 57.1196 24.7374C60.1491 24.7374 62.9128 23.6005 65.0087 21.7308V21.1907C65.0087 18.6717 62.9666 16.6298 60.4479 16.6298Z" stroke="#617792" stroke-width="2" stroke-miterlimit="10" stroke-linecap="round" stroke-linejoin="round"/>
<path d="M59.9383 50.3111C61.4955 51.8685 61.4955 54.3933 59.9383 55.9506C58.3809 57.5079 55.8561 57.5079 54.2988 55.9506C52.7416 54.3933 52.7416 51.8685 54.2988 50.3111C55.8561 48.7539 58.3809 48.7539 59.9383 50.3111Z" stroke="#617792" stroke-width="2" stroke-miterlimit="10" stroke-linecap="round" stroke-linejoin="round"/>
<path d="M60.4479 60.8671H53.7913C51.2725 60.8671 49.2305 62.909 49.2305 65.4277V65.968C51.3264 67.8377 54.09 68.9746 57.1196 68.9746C60.1491 68.9746 62.9128 67.8377 65.0087 65.968V65.4277C65.0087 62.909 62.9666 60.8671 60.4479 60.8671Z" stroke="#617792" stroke-width="2" stroke-miterlimit="10" stroke-linecap="round" stroke-linejoin="round"/>
<path d="M28.5488 12.8814H41.4526" stroke="#617792" stroke-width="2" stroke-miterlimit="10" stroke-linecap="round" stroke-linejoin="round"/>
<path d="M28.5488 57.1186H41.4526" stroke="#617792" stroke-width="2" stroke-miterlimit="10" stroke-linecap="round" stroke-linejoin="round"/>
<path d="M12.8809 41.4519V28.5481" stroke="#617792" stroke-width="2" stroke-miterlimit="10" stroke-linecap="round" stroke-linejoin="round"/>
<path d="M57.1191 41.4519V28.5481" stroke="#617792" stroke-width="2" stroke-miterlimit="10" stroke-linecap="round" stroke-linejoin="round"/>
<path d="M68.7526 10.5948C67.6869 5.14126 62.8833 1.02533 57.1177 1.02533C50.5698 1.02533 45.2617 6.33359 45.2617 12.8815C45.2617 19.4294 50.5698 24.7375 57.1177 24.7375C62.8084 24.7375 67.5618 20.7279 68.7092 15.38" stroke="#617792" stroke-width="2" stroke-miterlimit="10" stroke-linecap="round" stroke-linejoin="round"/>
<path d="M10.4888 45.504C5.08786 46.6109 1.02539 51.3903 1.02539 57.1186C1.02539 63.6665 6.33351 68.9746 12.8814 68.9746C19.4294 68.9746 24.7375 63.6665 24.7375 57.1186C24.7375 51.3903 20.6749 46.6109 15.274 45.504" stroke="#617792" stroke-width="2" stroke-miterlimit="10" stroke-linecap="round" stroke-linejoin="round"/>
</g>
</svg>
