<svg width="70" height="70" viewBox="0 0 70 70" fill="none" xmlns="http://www.w3.org/2000/svg">
<path d="M42.6562 40.7969C42.1094 40.7969 41.5625 41.2344 41.4531 41.7813C41.3438 42.3282 41.8906 42.875 42.4375 42.9844C48.125 43.5313 50.5312 44.4063 51.1875 44.8438C49.9844 45.7188 44.5156 47.0313 35 47.0313C25.4844 47.0313 20.0156 45.7188 18.8125 44.8438C19.5781 44.4063 21.9844 43.4219 27.6719 42.9844C28.3281 42.9844 28.7656 42.4375 28.6563 41.7813C28.6563 41.2344 28.1094 40.6875 27.4531 40.7969C16.4062 41.7813 16.4062 44.0782 16.4062 44.8438V64.5313C16.4062 65.9532 18.0469 66.9375 21.5469 67.7032C21.6563 67.7032 22.5312 67.9219 22.8594 66.8282C22.9687 66.2813 22.6406 65.625 21.9844 65.5157C19.4688 64.9688 18.7031 64.4219 18.5938 64.3125V60.2657C22.9688 62.2344 32.5937 62.3438 35 62.3438C37.4063 62.3438 47.0312 62.2344 51.4062 60.2657V64.4219C50.6406 65.1875 45.0625 66.7188 35 66.7188C31.9375 66.7188 28.9844 66.6094 26.3594 66.2813C25.7031 66.1719 25.2656 66.6094 25.1562 67.2657C25.0469 67.9219 25.4844 68.3594 26.1406 68.4688C28.875 68.7969 31.9375 68.9063 35 68.9063C38.0625 68.9063 53.5938 68.6875 53.5938 64.5313V44.8438C53.5938 44.0782 53.5938 41.7813 42.6562 40.7969ZM51.4062 51.2969C51.1875 51.4063 50.5313 51.9532 47.7969 52.6094C47.25 52.7188 46.8125 53.2657 46.9219 53.9219C47.1406 54.9063 48.125 54.7969 48.2344 54.7969C49.5469 54.5782 50.5313 54.25 51.2969 53.9219V57.9688C50.5313 58.7344 44.9531 60.2657 34.8906 60.2657C24.8281 60.2657 19.25 58.7344 18.4844 57.9688V53.8125C22.8594 55.7813 32.4844 55.8907 34.8906 55.8907C38.0625 55.8907 41.2344 55.7813 43.9688 55.4532C44.5156 55.3438 44.9531 54.7969 44.9531 54.25C44.8437 53.7032 44.4063 53.2657 43.75 53.2657C41.125 53.5938 38.0625 53.7032 35 53.7032C24.9375 53.7032 19.3594 52.1719 18.5938 51.4063V47.25C22.9688 49.2188 32.5937 49.3282 35 49.3282C37.4063 49.3282 47.0312 49.2188 51.4062 47.25V51.2969Z" fill="#617792"/>
<path d="M6.5625 7.65625H15.3125C15.9688 7.65625 16.4062 7.21875 16.4062 6.5625C16.4062 5.90625 15.9688 5.46875 15.3125 5.46875H6.5625C5.90625 5.46875 5.46875 5.90625 5.46875 6.5625C5.46875 7.21875 5.90625 7.65625 6.5625 7.65625Z" fill="#617792"/>
<path d="M6.5625 12.0312H15.3125C15.9688 12.0312 16.4062 11.5938 16.4062 10.9375C16.4062 10.2812 15.9688 9.84375 15.3125 9.84375H6.5625C5.90625 9.84375 5.46875 10.2812 5.46875 10.9375C5.46875 11.5938 5.90625 12.0312 6.5625 12.0312Z" fill="#617792"/>
<path d="M6.5625 16.4062H15.3125C15.9688 16.4062 16.4062 15.9688 16.4062 15.3125C16.4062 14.6562 15.9688 14.2188 15.3125 14.2188H6.5625C5.90625 14.2188 5.46875 14.6562 5.46875 15.3125C5.46875 15.9688 5.90625 16.4062 6.5625 16.4062Z" fill="#617792"/>
<path d="M6.5625 20.7812H15.3125C15.9688 20.7812 16.4062 20.3438 16.4062 19.6875C16.4062 19.0312 15.9688 18.5938 15.3125 18.5938H6.5625C5.90625 18.5938 5.46875 19.0312 5.46875 19.6875C5.46875 20.3438 5.90625 20.7812 6.5625 20.7812Z" fill="#617792"/>
<path d="M26.25 19.7969C26.9063 19.7969 27.3438 19.3594 27.3438 18.7031V16.8438C27.3438 16.1875 26.9063 15.75 26.25 15.75C25.5937 15.75 25.1562 16.1875 25.1562 16.8438V18.7031C25.1562 19.25 25.5937 19.7969 26.25 19.7969Z" fill="#617792"/>
<path d="M30.625 7.65625H39.375C40.0313 7.65625 40.4688 7.21875 40.4688 6.5625C40.4688 5.90625 40.0313 5.46875 39.375 5.46875H30.625C29.9687 5.46875 29.5312 5.90625 29.5312 6.5625C29.5312 7.21875 29.9687 7.65625 30.625 7.65625Z" fill="#617792"/>
<path d="M30.625 12.0312H39.375C40.0313 12.0312 40.4688 11.5938 40.4688 10.9375C40.4688 10.2812 40.0313 9.84375 39.375 9.84375H30.625C29.9687 9.84375 29.5312 10.2812 29.5312 10.9375C29.5312 11.5938 29.9687 12.0312 30.625 12.0312Z" fill="#617792"/>
<path d="M30.625 16.4062H39.375C40.0313 16.4062 40.4688 15.9688 40.4688 15.3125C40.4688 14.6562 40.0313 14.2188 39.375 14.2188H30.625C29.9687 14.2188 29.5312 14.6562 29.5312 15.3125C29.5312 15.9688 29.9687 16.4062 30.625 16.4062Z" fill="#617792"/>
<path d="M30.625 20.7812H39.375C40.0313 20.7812 40.4688 20.3438 40.4688 19.6875C40.4688 19.0312 40.0313 18.5938 39.375 18.5938H30.625C29.9687 18.5938 29.5312 19.0312 29.5312 19.6875C29.5312 20.3438 29.9687 20.7812 30.625 20.7812Z" fill="#617792"/>
<path d="M67.8125 4.375C68.4688 4.375 68.9062 3.9375 68.9062 3.28125V2.1875C68.9062 1.53125 68.4688 1.09375 67.8125 1.09375H50.3125C49.6562 1.09375 49.2188 1.53125 49.2188 2.1875V24.0625C49.2188 24.7188 49.6562 25.1562 50.3125 25.1562H57.9688V31.7188H36.0938V25.1562H43.75C44.4063 25.1562 44.8438 24.7188 44.8438 24.0625V2.1875C44.8438 1.53125 44.4063 1.09375 43.75 1.09375H26.25C25.5937 1.09375 25.1562 1.53125 25.1562 2.1875V12.4687C25.1562 13.125 25.5937 13.5625 26.25 13.5625C26.9063 13.5625 27.3438 13.125 27.3438 12.4687V3.28125H42.6562V22.9688H27.3438C27.3438 22.3125 26.9063 21.875 26.25 21.875C25.5937 21.875 25.1562 22.3125 25.1562 22.9688V24.0625C25.1562 24.7188 25.5937 25.1562 26.25 25.1562H33.9062V31.7188H12.0312V25.1562H19.6875C20.3438 25.1562 20.7812 24.7188 20.7812 24.0625V2.1875C20.7812 1.53125 20.3438 1.09375 19.6875 1.09375H2.1875C1.53125 1.09375 1.09375 1.53125 1.09375 2.1875V8.64063C1.09375 9.29688 1.53125 9.73437 2.1875 9.73437C2.84375 9.73437 3.28125 9.29688 3.28125 8.64063V3.28125H18.5938V22.9688H3.28125V13.125C3.28125 12.4687 2.84375 12.0312 2.1875 12.0312C1.53125 12.0312 1.09375 12.4687 1.09375 13.125V24.0625C1.09375 24.7188 1.53125 25.1562 2.1875 25.1562H9.84375V32.8125C9.84375 33.4688 10.2812 33.9062 10.9375 33.9062H33.9062V41.125L31.3906 38.6094C30.9531 38.1719 30.2969 38.1719 29.8594 38.6094C29.4219 39.0469 29.4219 39.7031 29.8594 40.1406L34.2344 44.5156C35 45.0625 35.6563 44.625 35.7656 44.5156L40.1406 40.1406C40.5781 39.7031 40.5781 39.0469 40.1406 38.6094C39.7031 38.1719 39.0469 38.1719 38.6094 38.6094L36.0938 41.125V33.9062H59.0625C59.7188 33.9062 60.1562 33.4688 60.1562 32.8125V25.1562H67.8125C68.4688 25.1562 68.9062 24.7188 68.9062 24.0625V7.76562C68.9062 7.10937 68.4688 6.67187 67.8125 6.67187C67.1562 6.67187 66.7188 7.10937 66.7188 7.76562V22.9688H51.4062V3.28125H66.7188C66.7188 3.9375 67.1562 4.375 67.8125 4.375Z" fill="#617792"/>
<path d="M63.4375 5.46875H54.6875C54.0312 5.46875 53.5938 5.90625 53.5938 6.5625C53.5938 7.21875 54.0312 7.65625 54.6875 7.65625H63.4375C64.0938 7.65625 64.5312 7.21875 64.5312 6.5625C64.5312 5.90625 64.0938 5.46875 63.4375 5.46875Z" fill="#617792"/>
<path d="M63.4375 9.84375H54.6875C54.0312 9.84375 53.5938 10.2812 53.5938 10.9375C53.5938 11.5938 54.0312 12.0312 54.6875 12.0312H63.4375C64.0938 12.0312 64.5312 11.5938 64.5312 10.9375C64.5312 10.2812 64.0938 9.84375 63.4375 9.84375Z" fill="#617792"/>
<path d="M63.4375 14.2188H54.6875C54.0312 14.2188 53.5938 14.6562 53.5938 15.3125C53.5938 15.9688 54.0312 16.4062 54.6875 16.4062H63.4375C64.0938 16.4062 64.5312 15.9688 64.5312 15.3125C64.5312 14.6562 64.0938 14.2188 63.4375 14.2188Z" fill="#617792"/>
<path d="M63.4375 18.5938H54.6875C54.0312 18.5938 53.5938 19.0312 53.5938 19.6875C53.5938 20.3438 54.0312 20.7812 54.6875 20.7812H63.4375C64.0938 20.7812 64.5312 20.3438 64.5312 19.6875C64.5312 19.0312 64.0938 18.5938 63.4375 18.5938Z" fill="#617792"/>
</svg>
