<svg width="70" height="70" viewBox="0 0 70 70" fill="none" xmlns="http://www.w3.org/2000/svg">
<path d="M65.625 57.9688H64.5312V19.6875C64.5312 18.8173 64.1855 17.9827 63.5702 17.3673C62.9548 16.752 62.1202 16.4062 61.25 16.4062H53.5938C53.5938 16.1162 53.4785 15.838 53.2734 15.6329C53.0683 15.4277 52.7901 15.3125 52.5 15.3125H50.8069C50.4486 14.0188 49.9313 12.7744 49.2669 11.608L50.47 10.4048C50.675 10.1997 50.7902 9.92159 50.7902 9.63156C50.7902 9.34154 50.675 9.06339 50.47 8.85828L45.8281 4.21969C45.623 4.01464 45.3449 3.89945 45.0548 3.89945C44.7648 3.89945 44.4867 4.01464 44.2816 4.21969L43.0784 5.42281C41.9124 4.75769 40.6685 4.23967 39.375 3.88063V2.1875C39.375 1.89742 39.2598 1.61922 39.0546 1.4141C38.8495 1.20898 38.5713 1.09375 38.2812 1.09375H31.7188C31.4287 1.09375 31.1505 1.20898 30.9454 1.4141C30.7402 1.61922 30.625 1.89742 30.625 2.1875V3.88063C29.3313 4.23889 28.0869 4.75617 26.9205 5.42062L25.7173 4.2175C25.5122 4.01245 25.2341 3.89726 24.9441 3.89726C24.654 3.89726 24.3759 4.01245 24.1708 4.2175L19.5322 8.85938C19.3271 9.06448 19.212 9.34263 19.212 9.63266C19.212 9.92268 19.3271 10.2008 19.5322 10.4059L20.7353 11.6091C20.0702 12.7751 19.5522 14.019 19.1931 15.3125H17.5C17.2099 15.3125 16.9317 15.4277 16.7266 15.6329C16.5215 15.838 16.4062 16.1162 16.4062 16.4062H8.75C7.87976 16.4062 7.04516 16.752 6.42981 17.3673C5.81445 17.9827 5.46875 18.8173 5.46875 19.6875V57.9688H4.375C3.50476 57.9687 2.67016 58.3145 2.05481 58.9298C1.43945 59.5452 1.09375 60.3798 1.09375 61.25V63.4375C1.09549 64.8874 1.67221 66.2774 2.69743 67.3026C3.72264 68.3278 5.11263 68.9045 6.5625 68.9062H63.4375C64.8874 68.9045 66.2774 68.3278 67.3026 67.3026C68.3278 66.2774 68.9045 64.8874 68.9062 63.4375V61.25C68.9062 60.3798 68.5605 59.5452 67.9452 58.9298C67.3298 58.3145 66.4952 57.9688 65.625 57.9688ZM17.5 24.0625H19.1931C19.5514 25.3562 20.0687 26.6006 20.7331 27.767L19.53 28.9702C19.325 29.1753 19.2098 29.4534 19.2098 29.7434C19.2098 30.0335 19.325 30.3116 19.53 30.5167L24.1719 35.1553C24.377 35.3604 24.6551 35.4755 24.9452 35.4755C25.2352 35.4755 25.5133 35.3604 25.7184 35.1553L26.9216 33.9522C28.0878 34.6169 29.3317 35.1349 30.625 35.4944V37.1875C30.625 37.4776 30.7402 37.7558 30.9454 37.9609C31.1505 38.166 31.4287 38.2812 31.7188 38.2812H38.2812C38.5713 38.2812 38.8495 38.166 39.0546 37.9609C39.2598 37.7558 39.375 37.4776 39.375 37.1875V35.4944C40.6686 35.1357 41.9129 34.6185 43.0795 33.9544L44.2827 35.1575C44.4878 35.3625 44.7659 35.4777 45.0559 35.4777C45.346 35.4777 45.6241 35.3625 45.8292 35.1575L50.4678 30.5156C50.6729 30.3105 50.788 30.0324 50.788 29.7423C50.788 29.4523 50.6729 29.1742 50.4678 28.9691L49.2647 27.7659C49.9298 26.5999 50.4478 25.356 50.8069 24.0625H52.5C52.7901 24.0625 53.0683 23.9473 53.2734 23.7421C53.4785 23.537 53.5938 23.2588 53.5938 22.9688H57.9688V53.5938H12.0312V22.9688H16.4062C16.4062 23.2588 16.5215 23.537 16.7266 23.7421C16.9317 23.9473 17.2099 24.0625 17.5 24.0625ZM18.5938 17.5H20.0484C20.2979 17.5 20.5399 17.4148 20.7342 17.2584C20.9286 17.1021 21.0636 16.884 21.117 16.6403C21.4761 15.0021 22.1251 13.4412 23.0333 12.0312C23.1682 11.8211 23.2272 11.571 23.2003 11.3227C23.1734 11.0744 23.0624 10.8427 22.8856 10.6662L21.852 9.63375L24.9463 6.53953L25.9788 7.57312C26.1552 7.7499 26.3869 7.86095 26.6352 7.88781C26.8835 7.91467 27.1336 7.85573 27.3438 7.72078C28.7537 6.81258 30.3146 6.16363 31.9528 5.80453C32.1965 5.75115 32.4146 5.61608 32.5709 5.42172C32.7273 5.22736 32.8125 4.98539 32.8125 4.73594V3.28125H37.1875V4.73594C37.1875 4.98539 37.2727 5.22736 37.429 5.42172C37.5854 5.61608 37.8035 5.75115 38.0472 5.80453C39.6854 6.16363 41.2463 6.81258 42.6562 7.72078C42.8664 7.85573 43.1165 7.91467 43.3648 7.88781C43.6131 7.86095 43.8448 7.7499 44.0213 7.57312L45.0538 6.53953L48.148 9.63375L47.1144 10.6662C46.9376 10.8427 46.8266 11.0744 46.7997 11.3227C46.7728 11.571 46.8318 11.8211 46.9667 12.0312C47.8749 13.4412 48.5239 15.0021 48.883 16.6403C48.9364 16.884 49.0714 17.1021 49.2658 17.2584C49.4601 17.4148 49.7021 17.5 49.9516 17.5H51.4062V21.875H49.9516C49.7021 21.875 49.4601 21.9602 49.2658 22.1166C49.0714 22.2729 48.9364 22.491 48.883 22.7347C48.5239 24.3729 47.8749 25.9338 46.9667 27.3438C46.8318 27.5539 46.7728 27.804 46.7997 28.0523C46.8266 28.3006 46.9376 28.5323 47.1144 28.7087L48.148 29.7412L45.0538 32.8355L44.0213 31.8019C43.8448 31.6251 43.6131 31.5141 43.3648 31.4872C43.1165 31.4603 42.8664 31.5193 42.6562 31.6542C41.2468 32.5623 39.6862 33.2109 38.0483 33.5694C37.8044 33.6225 37.5861 33.7575 37.4295 33.9519C37.2729 34.1463 37.1875 34.3884 37.1875 34.638V36.0938H32.8125V34.638C32.8125 34.3884 32.7271 34.1463 32.5705 33.9519C32.4139 33.7575 32.1956 33.6225 31.9517 33.5694C30.3138 33.2109 28.7532 32.5623 27.3438 31.6542C27.1336 31.5193 26.8835 31.4603 26.6352 31.4872C26.3869 31.5141 26.1552 31.6251 25.9788 31.8019L24.9463 32.8355L21.852 29.7412L22.8856 28.7087C23.0624 28.5323 23.1734 28.3006 23.2003 28.0523C23.2272 27.804 23.1682 27.5539 23.0333 27.3438C22.1251 25.9338 21.4761 24.3729 21.117 22.7347C21.0636 22.491 20.9286 22.2729 20.7342 22.1166C20.5399 21.9602 20.2979 21.875 20.0484 21.875H18.5938V17.5ZM7.65625 19.6875C7.65625 19.3974 7.77148 19.1192 7.9766 18.9141C8.18172 18.709 8.45992 18.5938 8.75 18.5938H16.4062V20.7812H10.9375C10.6474 20.7812 10.3692 20.8965 10.1641 21.1016C9.95898 21.3067 9.84375 21.5849 9.84375 21.875V54.6875C9.84375 54.9776 9.95898 55.2558 10.1641 55.4609C10.3692 55.666 10.6474 55.7812 10.9375 55.7812H59.0625C59.3526 55.7812 59.6308 55.666 59.8359 55.4609C60.041 55.2558 60.1562 54.9776 60.1562 54.6875V21.875C60.1562 21.5849 60.041 21.3067 59.8359 21.1016C59.6308 20.8965 59.3526 20.7812 59.0625 20.7812H53.5938V18.5938H61.25C61.5401 18.5938 61.8183 18.709 62.0234 18.9141C62.2285 19.1192 62.3438 19.3974 62.3438 19.6875V57.9688H7.65625V19.6875ZM29.5312 60.1562H40.4688V61.25C40.4688 61.5401 40.3535 61.8183 40.1484 62.0234C39.9433 62.2285 39.6651 62.3438 39.375 62.3438H30.625C30.3349 62.3438 30.0567 62.2285 29.8516 62.0234C29.6465 61.8183 29.5312 61.5401 29.5312 61.25V60.1562ZM66.7188 63.4375C66.7188 64.3077 66.373 65.1423 65.7577 65.7577C65.1423 66.373 64.3077 66.7188 63.4375 66.7188H6.5625C5.69226 66.7188 4.85766 66.373 4.24231 65.7577C3.62695 65.1423 3.28125 64.3077 3.28125 63.4375V61.25C3.28125 60.9599 3.39648 60.6817 3.6016 60.4766C3.80672 60.2715 4.08492 60.1562 4.375 60.1562H27.3438V61.25C27.3438 62.1202 27.6895 62.9548 28.3048 63.5702C28.9202 64.1855 29.7548 64.5312 30.625 64.5312H39.375C40.2452 64.5312 41.0798 64.1855 41.6952 63.5702C42.3105 62.9548 42.6562 62.1202 42.6562 61.25V60.1562H65.625C65.9151 60.1562 66.1933 60.2715 66.3984 60.4766C66.6035 60.6817 66.7188 60.9599 66.7188 61.25V63.4375Z" fill="#617792"/>
<path d="M35 31.7188C37.3796 31.7188 39.7057 31.0131 41.6842 29.6911C43.6627 28.3691 45.2048 26.4901 46.1154 24.2917C47.026 22.0932 47.2643 19.6742 46.8001 17.3403C46.3358 15.0065 45.19 12.8627 43.5074 11.1801C41.8248 9.49753 39.681 8.35166 37.3472 7.88743C35.0133 7.4232 32.5943 7.66146 30.3958 8.57208C28.1974 9.4827 26.3184 11.0248 24.9964 13.0033C23.6744 14.9818 22.9688 17.3079 22.9688 19.6875C22.9725 22.8772 24.2413 25.9352 26.4968 28.1907C28.7523 30.4462 31.8103 31.715 35 31.7188ZM29.5312 27.8666V26.25C29.5312 25.3973 29.7306 24.5564 30.1135 23.7945C30.4963 23.0326 31.0521 22.3708 31.7363 21.8619C32.6728 22.5798 33.8199 22.9689 35 22.9689C36.1801 22.9689 37.3272 22.5798 38.2638 21.8619C38.9479 22.3708 39.5037 23.0326 39.8865 23.7945C40.2694 24.5564 40.4688 25.3973 40.4688 26.25V27.8666C38.8513 28.9515 36.9476 29.5308 35 29.5308C33.0524 29.5308 31.1487 28.9515 29.5312 27.8666ZM35 20.7813C34.351 20.7813 33.7166 20.5888 33.177 20.2283C32.6374 19.8677 32.2169 19.3553 31.9685 18.7557C31.7202 18.1561 31.6552 17.4964 31.7818 16.8599C31.9084 16.2234 32.2209 15.6387 32.6798 15.1798C33.1387 14.7209 33.7234 14.4084 34.3599 14.2818C34.9964 14.1552 35.6561 14.2202 36.2557 14.4685C36.8552 14.7169 37.3677 15.1374 37.7283 15.677C38.0888 16.2166 38.2812 16.851 38.2812 17.5C38.2812 18.3702 37.9355 19.2048 37.3202 19.8202C36.7048 20.4356 35.8702 20.7813 35 20.7813ZM35 9.84376C36.8609 9.84239 38.6841 10.369 40.2577 11.3623C41.8314 12.3557 43.0909 13.7751 43.8901 15.4557C44.6893 17.1363 44.9953 19.0092 44.7727 20.8567C44.55 22.7043 43.8078 24.4508 42.6322 25.8934C42.5817 24.7944 42.2946 23.7192 41.7907 22.7413C41.2867 21.7633 40.5776 20.9056 39.7119 20.2267C40.2017 19.4011 40.463 18.46 40.4688 17.5C40.4688 16.0496 39.8926 14.6586 38.867 13.633C37.8414 12.6074 36.4504 12.0313 35 12.0313C33.5496 12.0313 32.1586 12.6074 31.133 13.633C30.1074 14.6586 29.5312 16.0496 29.5312 17.5C29.537 18.46 29.7983 19.4011 30.2881 20.2267C29.4224 20.9056 28.7133 21.7633 28.2094 22.7413C27.7054 23.7192 27.4183 24.7944 27.3678 25.8934C26.1922 24.4508 25.45 22.7043 25.2273 20.8567C25.0047 19.0092 25.3107 17.1363 26.1099 15.4557C26.9091 13.7751 28.1686 12.3557 29.7423 11.3623C31.3159 10.369 33.1391 9.84239 35 9.84376Z" fill="#617792"/>
<path d="M22.9688 51.4062H25.1562C26.0265 51.4062 26.8611 51.0605 27.4764 50.4452C28.0918 49.8298 28.4375 48.9952 28.4375 48.125H26.25C26.25 48.4151 26.1348 48.6933 25.9296 48.8984C25.7245 49.1035 25.4463 49.2188 25.1562 49.2188H22.9688C22.6787 49.2188 22.4005 49.1035 22.1954 48.8984C21.9902 48.6933 21.875 48.4151 21.875 48.125V43.75C21.875 43.4599 21.9902 43.1817 22.1954 42.9766C22.4005 42.7715 22.6787 42.6562 22.9688 42.6562H25.1562C25.4463 42.6562 25.7245 42.7715 25.9296 42.9766C26.1348 43.1817 26.25 43.4599 26.25 43.75H28.4375C28.4375 42.8798 28.0918 42.0452 27.4764 41.4298C26.8611 40.8145 26.0265 40.4688 25.1562 40.4688H22.9688C22.0985 40.4688 21.2639 40.8145 20.6486 41.4298C20.0332 42.0452 19.6875 42.8798 19.6875 43.75V48.125C19.6875 48.9952 20.0332 49.8298 20.6486 50.4452C21.2639 51.0605 22.0985 51.4062 22.9688 51.4062Z" fill="#617792"/>
<path d="M31.7188 47.0313H33.5781L33.8537 47.215C34.5436 47.675 35.109 48.2983 35.4998 49.0295C35.8906 49.7607 36.0946 50.5772 36.0938 51.4063H38.2812C38.2812 49.658 37.6456 47.9694 36.493 46.655C37.1492 46.3218 37.6739 45.7769 37.9821 45.1085C38.2904 44.4402 38.3641 43.6873 38.1914 42.9718C38.0188 42.2564 37.6098 41.62 37.0306 41.1658C36.4515 40.7116 35.736 40.466 35 40.4688H30.625C30.3349 40.4688 30.0567 40.584 29.8516 40.7891C29.6465 40.9942 29.5312 41.2724 29.5312 41.5625V51.4063H31.7188V47.0313ZM31.7188 42.6563H35C35.2901 42.6563 35.5683 42.7715 35.7734 42.9766C35.9785 43.1817 36.0938 43.4599 36.0938 43.75C36.0938 44.0401 35.9785 44.3183 35.7734 44.5234C35.5683 44.7285 35.2901 44.8438 35 44.8438H31.7188V42.6563Z" fill="#617792"/>
<path d="M41.5626 46.1956L43.8594 50.8014C43.9605 50.9709 44.1038 51.1112 44.2754 51.2087C44.447 51.3062 44.641 51.3574 44.8383 51.3574C45.0357 51.3574 45.2297 51.3062 45.4013 51.2087C45.5728 51.1112 45.7162 50.9709 45.8173 50.8014L48.1251 46.1956V51.4062H50.3126V41.5625C50.3154 41.3138 50.2334 41.0717 50.0801 40.8759C49.9268 40.6801 49.7114 40.5424 49.4694 40.4855C49.2273 40.4285 48.9731 40.4558 48.7486 40.5627C48.5242 40.6696 48.3428 40.8498 48.2344 41.0736L44.8438 47.8668L41.4532 41.0736C41.3448 40.8498 41.1635 40.6696 40.939 40.5627C40.7145 40.4558 40.4603 40.4285 40.2183 40.4855C39.9762 40.5424 39.7608 40.6801 39.6076 40.8759C39.4543 41.0717 39.3723 41.3138 39.3751 41.5625V51.4062H41.5626V46.1956Z" fill="#617792"/>
<path d="M2.1875 12.0313H9.84375V13.125C9.8438 13.3413 9.90797 13.5527 10.0282 13.7325C10.1483 13.9124 10.3191 14.0525 10.519 14.1353C10.7188 14.218 10.9387 14.2397 11.1508 14.1975C11.363 14.1553 11.5578 14.0512 11.7108 13.8983L17.1795 8.42954C17.3846 8.22443 17.4998 7.94628 17.4998 7.65626C17.4998 7.36624 17.3846 7.08809 17.1795 6.88298L11.7108 1.41423C11.5578 1.26131 11.363 1.15718 11.1508 1.115C10.9387 1.07281 10.7188 1.09447 10.519 1.17724C10.3191 1.26 10.1483 1.40016 10.0282 1.57998C9.90797 1.7598 9.8438 1.97122 9.84375 2.18751V3.28126H2.1875C1.89742 3.28126 1.61922 3.3965 1.4141 3.60161C1.20898 3.80673 1.09375 4.08493 1.09375 4.37501V10.9375C1.09375 11.2276 1.20898 11.5058 1.4141 11.7109C1.61922 11.916 1.89742 12.0313 2.1875 12.0313ZM3.28125 5.46876H10.9375C11.1604 5.46882 11.378 5.40076 11.5612 5.2737C11.7444 5.14664 11.8843 4.96664 11.9623 4.75782L14.8597 7.65626L11.9623 10.5536C11.8841 10.345 11.7441 10.1652 11.561 10.0384C11.3778 9.91152 11.1603 9.84362 10.9375 9.84376H3.28125V5.46876Z" fill="#617792"/>
<path d="M67.8123 3.28126H60.156V2.18751C60.156 1.97122 60.0918 1.7598 59.9716 1.57998C59.8514 1.40016 59.6806 1.26 59.4808 1.17724C59.281 1.09447 59.0611 1.07281 58.849 1.115C58.6368 1.15718 58.4419 1.26131 58.289 1.41423L52.8202 6.88298C52.6152 7.08809 52.5 7.36624 52.5 7.65626C52.5 7.94628 52.6152 8.22443 52.8202 8.42954L58.289 13.8983C58.4419 14.0512 58.6368 14.1553 58.849 14.1975C59.0611 14.2397 59.281 14.218 59.4808 14.1353C59.6806 14.0525 59.8514 13.9124 59.9716 13.7325C60.0918 13.5527 60.156 13.3413 60.156 13.125V12.0313H67.8123C68.1023 12.0313 68.3805 11.916 68.5857 11.7109C68.7908 11.5058 68.906 11.2276 68.906 10.9375V4.37501C68.906 4.08493 68.7908 3.80673 68.5857 3.60161C68.3805 3.3965 68.1023 3.28126 67.8123 3.28126ZM66.7185 9.84376H59.0623C58.8396 9.84354 58.6222 9.91128 58.4391 10.0379C58.2559 10.1646 58.1158 10.3441 58.0374 10.5525L55.1401 7.65626L58.0374 4.75892C58.1156 4.96753 58.2557 5.14729 58.4388 5.27415C58.622 5.401 58.8395 5.4689 59.0623 5.46876H66.7185V9.84376Z" fill="#617792"/>
</svg>
