<svg width="70" height="70" viewBox="0 0 70 70" fill="none" xmlns="http://www.w3.org/2000/svg">
<g clip-path="url(#clip0_1599_1169)">
<mask id="mask0_1599_1169" style="mask-type:luminance" maskUnits="userSpaceOnUse" x="0" y="0" width="70" height="70">
<path d="M70 0H0V70H70V0Z" fill="white"/>
</mask>
<g mask="url(#mask0_1599_1169)">
<mask id="mask1_1599_1169" style="mask-type:luminance" maskUnits="userSpaceOnUse" x="0" y="0" width="70" height="70">
<path d="M0 7.62939e-06H70V70H0V7.62939e-06Z" fill="white"/>
</mask>
<g mask="url(#mask1_1599_1169)">
<path d="M51.895 32.8183H48.976C48.6864 31.3565 48.1115 29.9975 47.3114 28.8016L49.376 26.7369C49.7849 26.3281 49.7849 25.665 49.376 25.2561L47.7716 23.6516C47.3627 23.2427 46.6996 23.2427 46.2907 23.6516L44.2261 25.7163C43.0302 24.9162 41.6712 24.3413 40.2094 24.0516V21.1327C40.2094 20.5544 39.7406 20.0855 39.1623 20.0855H36.8932C36.3148 20.0855 35.846 20.5544 35.846 21.1327V24.0516C34.3842 24.3413 33.0253 24.9162 31.8294 25.7163L29.7646 23.6516C29.3559 23.2427 28.6928 23.2427 28.2838 23.6516L26.6793 25.2561C26.2704 25.665 26.2704 26.3281 26.6793 26.7369L28.744 28.8016C27.944 29.9975 27.3691 31.3565 27.0795 32.8183H24.1604C23.5821 32.8183 23.1133 33.2871 23.1133 33.8654V36.1345C23.1133 36.7129 23.5821 37.1817 24.1604 37.1817H27.0795C27.3691 38.6435 27.944 40.0025 28.744 41.1983L26.6793 43.2629C26.2704 43.6719 26.2704 44.3349 26.6793 44.7439L28.2838 46.3483C28.6928 46.7572 29.3559 46.7572 29.7646 46.3483L31.8294 44.2837C33.0253 45.0837 34.3842 45.6586 35.846 45.9482V48.8673C35.846 49.4456 36.3148 49.9144 36.8932 49.9144H39.1623C39.7406 49.9144 40.2094 49.4456 40.2094 48.8673V45.9482C41.6712 45.6586 43.0302 45.0837 44.2261 44.2837L46.2907 46.3483C46.6996 46.7572 47.3627 46.7572 47.7716 46.3483L49.376 44.7439C49.7849 44.3349 49.7849 43.6719 49.376 43.2629L47.3114 41.1983C48.1115 40.0025 48.6864 38.6435 48.976 37.1817H51.895C52.4734 37.1817 52.9422 36.7129 52.9422 36.1345V33.8654C52.9422 33.2871 52.4734 32.8183 51.895 32.8183Z" stroke="#617792" stroke-width="2" stroke-miterlimit="10" stroke-linecap="round" stroke-linejoin="round"/>
<path d="M41.9453 37.3719C41.1425 38.6953 39.6879 39.5796 38.0269 39.5796C35.4976 39.5796 33.4473 37.5292 33.4473 34.9999C33.4473 32.4706 35.4976 30.4203 38.0269 30.4203C39.7258 30.4203 41.2087 31.3453 41.9992 32.7193" stroke="#617792" stroke-width="2" stroke-miterlimit="10" stroke-linecap="round" stroke-linejoin="round"/>
<path d="M13.2656 46.5013C12.6096 46.7291 11.9281 46.9022 11.2266 47.015C10.6126 47.1137 10.263 47.7754 10.5346 48.3349C12.0027 51.3591 13.985 54.1491 16.432 56.596C19.8873 60.0514 24.0247 62.5775 28.5412 64.047C29.1434 64.2428 29.7622 63.7961 29.7622 63.1628V60.8306C29.7622 60.438 29.5154 60.0882 29.1457 59.9562C22.7331 57.6674 17.4531 52.9726 14.3986 46.9636C14.1875 46.5482 13.7057 46.3485 13.2656 46.5013ZM63.1898 43.2843C60.6304 51.0375 54.5805 57.2182 46.91 59.9562C46.5405 60.0882 46.2937 60.438 46.2937 60.8306V63.1628C46.2937 63.7961 46.9126 64.2428 47.5147 64.047C52.0314 62.5775 56.1686 60.0514 59.624 56.596C63.2424 52.9776 65.8424 48.611 67.2763 43.845C67.456 43.2481 67.0086 42.6464 66.3852 42.6464H64.0715C63.6707 42.6464 63.3155 42.9037 63.1898 43.2843ZM59.624 13.4039C56.1686 9.94849 52.0314 7.42234 47.5147 5.95302C46.9126 5.7571 46.2937 6.20376 46.2937 6.83704V9.16947C46.2937 9.56089 46.5388 9.91117 46.9076 10.0428C54.182 12.6388 59.9995 18.331 62.7638 25.524C62.9012 25.8817 63.246 26.1163 63.6291 26.1163H65.9828C66.6236 26.1163 67.0729 25.483 66.8611 24.8782C65.366 20.6086 62.9175 16.6961 59.624 13.4039Z" stroke="#617792" stroke-width="2" stroke-miterlimit="10" stroke-linecap="round" stroke-linejoin="round"/>
<path d="M39.9763 10.2015H36.4241C35.5782 10.2015 34.8926 9.51589 34.8926 8.67015V5.11779C34.8926 4.27205 35.5782 3.5864 36.4241 3.5864H39.9763C40.8221 3.5864 41.5077 4.27205 41.5077 5.11779V8.67015C41.5077 9.51589 40.8221 10.2015 39.9763 10.2015Z" stroke="#617792" stroke-width="2" stroke-miterlimit="10" stroke-linecap="round" stroke-linejoin="round"/>
<path d="M39.9763 66.4136H36.4241C35.5782 66.4136 34.8926 65.7279 34.8926 64.8822V61.3298C34.8926 60.4841 35.5782 59.7984 36.4241 59.7984H39.9763C40.8221 59.7984 41.5077 60.4841 41.5077 61.3298V64.8822C41.5077 65.7279 40.8221 66.4136 39.9763 66.4136Z" stroke="#617792" stroke-width="2" stroke-miterlimit="10" stroke-linecap="round" stroke-linejoin="round"/>
<path d="M67.4431 37.4607H63.8909C63.045 37.4607 62.3594 36.775 62.3594 35.9293V32.3769C62.3594 31.5312 63.045 30.8456 63.8909 30.8456H67.4431C68.2889 30.8456 68.9745 31.5312 68.9745 32.3769V35.9293C68.9745 36.775 68.2889 37.4607 67.4431 37.4607Z" stroke="#617792" stroke-width="2" stroke-miterlimit="10" stroke-linecap="round" stroke-linejoin="round"/>
<path d="M6.63477 35.1026L8.33145 36.7993L11.93 33.2007" stroke="#617792" stroke-width="2" stroke-miterlimit="10" stroke-linecap="round" stroke-linejoin="round"/>
<path d="M11.5845 27.069C15.0239 28.0658 17.5381 31.2393 17.5381 35C17.5381 39.5599 13.8417 43.2563 9.28184 43.2563C4.72199 43.2563 1.02539 39.5599 1.02539 35C1.02539 31.2961 3.46432 28.1619 6.82391 27.1156" stroke="#617792" stroke-width="2" stroke-miterlimit="10" stroke-linecap="round" stroke-linejoin="round"/>
<path d="M30.2772 6.89392H20.002" stroke="#617792" stroke-width="2" stroke-miterlimit="10" stroke-linecap="round" stroke-linejoin="round"/>
<path d="M27.0918 3.70853L30.2772 6.89394L27.0918 10.0793" stroke="#617792" stroke-width="2" stroke-miterlimit="10" stroke-linecap="round" stroke-linejoin="round"/>
</g>
</g>
</g>
<defs>
<clipPath id="clip0_1599_1169">
<rect width="70" height="70" fill="white"/>
</clipPath>
</defs>
</svg>
