<svg width="70" height="70" viewBox="0 0 70 70" fill="none" xmlns="http://www.w3.org/2000/svg">
<g clip-path="url(#clip0_1599_1006)">
<path d="M35 70C43.8713 70 52.2492 66.7111 58.723 60.711L60.123 62.111C60.7145 62.7001 61.565 62.8845 62.3432 62.5846C63.1295 62.2848 63.6475 61.5766 63.6965 60.7331L64.1632 52.5921C64.2005 51.9913 63.98 51.4045 63.5565 50.9821C63.1342 50.561 62.5637 50.3218 61.9628 50.3766L53.8078 50.8433C52.969 50.8911 52.262 51.4103 51.9622 52.1978C51.6647 52.9806 51.8443 53.8311 52.4323 54.4191L53.7647 55.7515C48.6033 60.4345 41.9848 62.9976 34.9988 62.9976C19.5603 62.9976 6.99883 50.4361 6.99883 34.9976C6.99883 32.7075 7.27767 30.4185 7.83183 28.1831C7.89833 27.8996 7.93217 27.6138 7.93217 27.3326C7.93217 25.7273 6.85533 24.332 5.3235 23.9411C4.40883 23.7055 3.45567 23.8373 2.64017 24.325C1.83283 24.8068 1.267 25.5698 1.05 26.4646C0.352333 29.2273 0 32.0985 0 34.9976C0 54.2966 15.701 69.9976 35 69.9976V70ZM3.31567 27.027C3.38683 26.7353 3.57117 26.488 3.836 26.3293C4.0215 26.2185 4.22683 26.1625 4.43683 26.1625C4.53717 26.1625 4.63867 26.1753 4.74017 26.201C5.24767 26.3305 5.6 26.796 5.6 27.3338C5.6 27.4341 5.586 27.5438 5.565 27.6371C4.96883 30.0428 4.66667 32.5208 4.66667 35C4.66667 51.7265 18.2735 65.3333 35 65.3333C42.9952 65.3333 50.5435 62.2358 56.2578 56.609C56.4795 56.3896 56.6055 56.0933 56.6067 55.7818C56.6078 55.4703 56.4853 55.1728 56.2648 54.9523L54.4577 53.144L61.8205 52.7228L61.3993 60.0856L59.5677 58.2551C59.1138 57.8013 58.38 57.8001 57.9227 58.2505C51.7813 64.323 43.6415 67.6666 35.0023 67.6666C16.9902 67.6666 2.33567 53.0121 2.33567 35C2.33567 32.2933 2.66467 29.6135 3.318 27.027H3.31567Z" fill="#617792"/>
<path d="M34.9993 0C26.1279 0 17.7501 3.28883 11.2763 9.289L9.87627 7.889C9.28594 7.301 8.43661 7.11783 7.65611 7.41533C6.86977 7.71517 6.35177 8.42333 6.30277 9.26683L5.83611 17.4043C5.79877 18.0063 6.01927 18.5943 6.44277 19.0178C6.86394 19.4378 7.42744 19.6712 8.03644 19.6233L16.1914 19.1567C17.0303 19.1088 17.7373 18.5897 18.0371 17.8022C18.3346 17.0193 18.1549 16.1688 17.5669 15.5808L16.2346 14.2485C21.3959 9.5655 28.0144 7.00233 35.0004 7.00233C50.4389 7.00233 63.0004 19.5638 63.0004 35.0023C63.0004 37.2925 62.7216 39.5815 62.1674 41.8168C62.1009 42.1003 62.0671 42.3862 62.0671 42.6673C62.0671 44.2727 63.1439 45.668 64.6758 46.0588C64.9709 46.1347 65.2696 46.1743 65.5671 46.1743C66.1913 46.1743 66.8061 46.0052 67.3591 45.675C68.1664 45.1932 68.7323 44.4302 68.9493 43.5353C69.6469 40.7727 69.9993 37.9015 69.9993 35.0023C69.9993 15.701 54.2983 0 34.9993 0ZM66.6836 42.973C66.6124 43.2647 66.4281 43.512 66.1633 43.6707C65.8903 43.834 65.5741 43.8818 65.2603 43.7978C64.7528 43.6683 64.4004 43.2028 64.4004 42.665C64.4004 42.5647 64.4144 42.455 64.4354 42.3617C65.0316 39.956 65.3338 37.478 65.3338 34.9988C65.3338 18.2723 51.7269 4.6655 35.0004 4.6655C27.0053 4.6655 19.4569 7.763 13.7426 13.3898C13.5209 13.6092 13.3949 13.9055 13.3938 14.217C13.3926 14.5285 13.5151 14.826 13.7356 15.0465L15.5428 16.8548L8.17994 17.276L8.60111 9.91317L10.4328 11.7437C10.8878 12.1987 11.6216 12.1998 12.0778 11.7483C18.2191 5.677 26.3601 2.33333 34.9993 2.33333C53.0114 2.33333 67.6659 16.9878 67.6659 35C67.6659 37.7067 67.3369 40.3865 66.6836 42.973Z" fill="#617792"/>
<path d="M34.9993 47.8334C42.0752 47.8334 47.8327 42.0759 47.8327 35.0001C47.8327 27.9242 42.0752 22.1667 34.9993 22.1667C27.9235 22.1667 22.166 27.9242 22.166 35.0001C22.166 42.0759 27.9235 47.8334 34.9993 47.8334ZM34.9993 24.5001C40.7895 24.5001 45.4994 29.2099 45.4994 35.0001C45.4994 40.7902 40.7895 45.5001 34.9993 45.5001C29.2092 45.5001 24.4993 40.7902 24.4993 35.0001C24.4993 29.2099 29.2092 24.5001 34.9993 24.5001Z" fill="#617792"/>
<path d="M15.8212 31.5699C14.7315 31.9339 14 32.9489 14 34.0946V35.9064C14 37.0521 14.7315 38.0682 15.8212 38.4311L17.4265 38.9666C17.8792 40.9872 18.6643 42.8854 19.7668 44.6284L19.0132 46.1357C18.4998 47.1636 18.6993 48.3991 19.5125 49.2099L20.7923 50.4897C21.6032 51.3029 22.8398 51.5047 23.8665 50.9902L25.375 50.2366C27.1168 51.3391 29.015 52.1242 31.0368 52.5769L31.5723 54.1822C31.9363 55.2719 32.9513 56.0034 34.097 56.0034H35.9088C37.0545 56.0034 38.0707 55.2719 38.4335 54.1822L38.969 52.5769C40.9897 52.1242 42.8878 51.3391 44.6308 50.2366L46.1382 50.9902C47.1683 51.5059 48.4027 51.3064 49.2123 50.4909L50.4922 49.2111C51.3053 48.4002 51.506 47.1636 50.9927 46.1369L50.239 44.6284C51.3415 42.8866 52.1267 40.9884 52.5793 38.9666L54.1847 38.4311C55.2743 38.0671 56.0058 37.0521 56.0058 35.9064V34.0946C56.0058 32.9489 55.2743 31.9327 54.1847 31.5699L52.5793 31.0344C52.1267 29.0137 51.3415 27.1156 50.239 25.3726L50.9927 23.8641C51.506 22.8362 51.3065 21.6019 50.4933 20.7911L49.2135 19.5112C48.4027 18.6981 47.166 18.4962 46.1393 19.0107L44.6308 19.7644C42.889 18.6619 40.9908 17.8767 38.969 17.4241L38.4335 15.8187C38.0695 14.7291 37.0545 13.9976 35.9088 13.9976H34.097C32.9513 13.9976 31.9352 14.7291 31.5723 15.8187L31.0368 17.4241C29.0162 17.8767 27.118 18.6619 25.375 19.7644L23.8677 19.0107C22.8387 18.4962 21.6043 18.6969 20.7935 19.5101L19.5137 20.7899C18.7005 21.6007 18.4998 22.8362 19.0132 23.8641L19.7668 25.3726C18.6643 27.1144 17.8792 29.0126 17.4265 31.0344L15.8212 31.5699ZM19.5825 32.1392C19.9862 29.9576 20.8227 27.9311 22.0733 26.1146C22.3137 25.7646 22.3452 25.3119 22.155 24.9316L21.1003 22.8199C21.0362 22.6939 21.0618 22.5411 21.1622 22.4407L22.4443 21.1586C22.5435 21.0582 22.6975 21.0337 22.8223 21.0979L24.934 22.1526C25.3155 22.3416 25.7693 22.3101 26.117 22.0709C27.9335 20.8214 29.96 19.9837 32.1417 19.5801C32.5593 19.5031 32.9012 19.2056 33.0365 18.8019L33.7855 16.5572C33.831 16.4231 33.9558 16.3321 34.0982 16.3321H35.91C36.0512 16.3321 36.1772 16.4231 36.2227 16.5572L36.9717 18.8019C37.1058 19.2056 37.4477 19.5031 37.8665 19.5801C40.0482 19.9837 42.0747 20.8202 43.8912 22.0709C44.24 22.3101 44.6927 22.3416 45.0742 22.1526L47.187 21.0979C47.3142 21.0314 47.4647 21.0582 47.565 21.1597L48.8472 22.4419C48.9463 22.5411 48.9708 22.6939 48.9078 22.8199L47.8532 24.9316C47.663 25.3119 47.6945 25.7646 47.9348 26.1146C49.1843 27.9311 50.022 29.9576 50.4257 32.1392C50.5027 32.5569 50.8002 32.8987 51.2038 33.0341L53.4485 33.7831C53.5827 33.8286 53.6737 33.9534 53.6737 34.0957V35.9076C53.6737 36.0487 53.5827 36.1747 53.4485 36.2202L51.2038 36.9692C50.8002 37.1034 50.5027 37.4452 50.4257 37.8641C50.022 40.0457 49.1855 42.0722 47.9348 43.8887C47.6945 44.2387 47.663 44.6914 47.8532 45.0717L48.9078 47.1846C48.972 47.3094 48.9463 47.4622 48.846 47.5626L47.5638 48.8447C47.4635 48.9451 47.3095 48.9684 47.1858 48.9054L45.0742 47.8507C44.6927 47.6617 44.24 47.6932 43.8912 47.9324C42.0747 49.1819 40.0482 50.0196 37.8665 50.4232C37.4488 50.5002 37.107 50.7977 36.9717 51.2014L36.2227 53.4461C36.1772 53.5802 36.0523 53.6712 35.91 53.6712H34.0982C33.957 53.6712 33.831 53.5802 33.7855 53.4461L33.0365 51.2014C32.9023 50.7977 32.5605 50.5002 32.1417 50.4232C29.96 50.0196 27.9335 49.1831 26.117 47.9324C25.9198 47.7971 25.6888 47.7271 25.4567 47.7271C25.2793 47.7271 25.0997 47.7679 24.9352 47.8496L22.8223 48.9042C22.694 48.9696 22.5447 48.9427 22.4443 48.8424L21.1622 47.5602C21.063 47.4611 21.0385 47.3082 21.1015 47.1822L22.1562 45.0706C22.3463 44.6902 22.3148 44.2376 22.0745 43.8876C20.825 42.0711 19.9873 40.0446 19.5837 37.8629C19.5067 37.4452 19.2092 37.1034 18.8055 36.9681L16.5608 36.2191C16.4267 36.1736 16.3357 36.0487 16.3357 35.9064V34.0946C16.3357 33.9534 16.4267 33.8274 16.5608 33.7819L18.8055 33.0329C19.2092 32.8987 19.5067 32.5569 19.5837 32.1381L19.5825 32.1392Z" fill="#617792"/>
</g>
<defs>
<clipPath id="clip0_1599_1006">
<rect width="70" height="70" fill="white"/>
</clipPath>
</defs>
</svg>
