<svg width="70" height="70" viewBox="0 0 70 70" fill="none" xmlns="http://www.w3.org/2000/svg">
<path d="M36.0938 9.84375C37.3002 9.84375 38.2812 10.8248 38.2812 12.0312H40.4688C40.4688 9.61844 38.5066 7.65625 36.0938 7.65625C33.6809 7.65625 31.7188 9.61844 31.7188 12.0312V14.2188C31.7188 16.6316 33.6809 18.5938 36.0938 18.5938C38.5066 18.5938 40.4688 16.6316 40.4688 14.2188H38.2812C38.2812 15.4252 37.3002 16.4062 36.0938 16.4062C34.8873 16.4062 33.9062 15.4252 33.9062 14.2188V12.0312C33.9062 10.8248 34.8873 9.84375 36.0938 9.84375Z" fill="#617792"/>
<path d="M48.125 7.65625H42.6562V18.5938H44.8438V14.2188H48.125C48.7277 14.2188 49.2188 14.7098 49.2188 15.3125V18.5938H51.4062V15.3125C51.4062 14.4692 51.077 13.7069 50.5531 13.125C51.0781 12.5431 51.4062 11.7808 51.4062 10.9375C51.4062 9.12844 49.9341 7.65625 48.125 7.65625ZM44.8438 12.0312V9.84375H48.125C48.7277 9.84375 49.2188 10.3348 49.2188 10.9375C49.2188 11.5402 48.7277 12.0312 48.125 12.0312H44.8438Z" fill="#617792"/>
<path d="M59.3677 14.2188H58.7573L56.5698 7.65625H53.5938V18.5938H55.7812V12.2084L57.1802 16.4062H60.9448L62.3438 12.2084V18.5938H64.5312V7.65625H61.5552L59.3677 14.2188Z" fill="#617792"/>
<path d="M5.46875 22.9688H7.65625V25.1562H5.46875V22.9688Z" fill="#617792"/>
<path d="M9.84375 22.9688H12.0312V25.1562H9.84375V22.9688Z" fill="#617792"/>
<path d="M14.2188 22.9688H16.4062V25.1562H14.2188V22.9688Z" fill="#617792"/>
<path d="M56.875 33.9062H39.375C37.5659 33.9062 36.0938 35.3784 36.0938 37.1875V39.375C36.0938 41.1841 37.5659 42.6562 39.375 42.6562V44.8438C37.5659 44.8438 36.0938 46.3159 36.0938 48.125V50.3125C36.0938 52.1216 37.5659 53.5938 39.375 53.5938V55.7812C37.5659 55.7812 36.0938 57.2534 36.0938 59.0625V61.25C36.0938 63.0591 37.5659 64.5312 39.375 64.5312H56.875C58.6841 64.5312 60.1562 63.0591 60.1562 61.25V59.0625C60.1562 57.2534 58.6841 55.7812 56.875 55.7812V53.5938C58.6841 53.5938 60.1562 52.1216 60.1562 50.3125V48.125C60.1562 46.3159 58.6841 44.8438 56.875 44.8438V42.6562C58.6841 42.6562 60.1562 41.1841 60.1562 39.375V37.1875C60.1562 35.3784 58.6841 33.9062 56.875 33.9062ZM57.9688 59.0625V61.25C57.9688 61.8537 57.4777 62.3438 56.875 62.3438H39.375C38.7723 62.3438 38.2812 61.8537 38.2812 61.25V59.0625C38.2812 58.4588 38.7723 57.9688 39.375 57.9688H56.875C57.4777 57.9688 57.9688 58.4588 57.9688 59.0625ZM54.6875 55.7812H41.5625V53.5938H54.6875V55.7812ZM57.9688 48.125V50.3125C57.9688 50.9162 57.4777 51.4062 56.875 51.4062H39.375C38.7723 51.4062 38.2812 50.9162 38.2812 50.3125V48.125C38.2812 47.5213 38.7723 47.0312 39.375 47.0312H56.875C57.4777 47.0312 57.9688 47.5213 57.9688 48.125ZM54.6875 44.8438H41.5625V42.6562H54.6875V44.8438ZM57.9688 39.375C57.9688 39.9787 57.4777 40.4688 56.875 40.4688H39.375C38.7723 40.4688 38.2812 39.9787 38.2812 39.375V37.1875C38.2812 36.5838 38.7723 36.0938 39.375 36.0938H56.875C57.4777 36.0938 57.9688 36.5838 57.9688 37.1875V39.375Z" fill="#617792"/>
<path d="M63.4375 1.09375H32.8125C29.797 1.09375 27.3438 3.54703 27.3438 6.5625V18.5938H4.375C2.56594 18.5938 1.09375 20.0659 1.09375 21.875V65.625C1.09375 67.4341 2.56594 68.9062 4.375 68.9062H61.25C63.0591 68.9062 64.5312 67.4341 64.5312 65.625V25.0458C67.0239 24.5372 68.9062 22.3289 68.9062 19.6875V6.5625C68.9062 3.54703 66.453 1.09375 63.4375 1.09375ZM4.375 20.7812H27.4542C27.9628 23.2739 30.1711 25.1562 32.8125 25.1562H36.6756L38.4989 27.3438H3.28125V21.875C3.28125 21.2723 3.77234 20.7812 4.375 20.7812ZM61.25 66.7188H4.375C3.77234 66.7188 3.28125 66.2287 3.28125 65.625V29.5312H40.3211L41.1458 30.5211C41.7802 31.2823 42.712 31.7188 43.703 31.7188C45.1358 31.7188 46.3488 30.8033 46.8169 29.5312H62.3438V65.625C62.3438 66.2287 61.8527 66.7188 61.25 66.7188ZM47.0312 27.3438V25.1562H62.3438V27.3438H47.0312ZM66.7188 19.6875C66.7188 21.4966 65.2466 22.9688 63.4375 22.9688H44.8438V28.3905C44.8438 29.0194 44.3319 29.5312 43.703 29.5312C43.3628 29.5312 43.0434 29.3814 42.8258 29.1211L37.6994 22.9688H32.8125C31.0034 22.9688 29.5312 21.4966 29.5312 19.6875V6.5625C29.5312 4.75344 31.0034 3.28125 32.8125 3.28125H63.4375C65.2466 3.28125 66.7188 4.75344 66.7188 6.5625V19.6875Z" fill="#617792"/>
<path d="M19.6875 55.7812C26.3211 55.7812 31.7188 50.3836 31.7188 43.75C31.7188 37.1164 26.3211 31.7188 19.6875 31.7188C13.0539 31.7188 7.65625 37.1164 7.65625 43.75C7.65625 50.3836 13.0539 55.7812 19.6875 55.7812ZM19.6875 53.5938C17.3666 53.5938 15.2348 52.7822 13.5505 51.4336L20.1403 44.8438H29.4667C28.9209 49.758 24.745 53.5938 19.6875 53.5938ZM27.3711 37.613C28.5042 39.0294 29.2556 40.7608 29.4667 42.6562H22.3278L27.3711 37.613ZM25.8245 36.0664L19.6875 42.2034L13.5505 36.0664C15.2348 34.7178 17.3666 33.9062 19.6875 33.9062C22.0084 33.9062 24.1402 34.7178 25.8245 36.0664ZM12.0039 37.613L18.1409 43.75L12.0039 49.887C10.6553 48.2027 9.84375 46.0709 9.84375 43.75C9.84375 41.4291 10.6553 39.2973 12.0039 37.613Z" fill="#617792"/>
<path d="M5.46875 57.9688H7.65625V60.1562H5.46875V57.9688Z" fill="#617792"/>
<path d="M9.84375 57.9688H33.9062V60.1562H9.84375V57.9688Z" fill="#617792"/>
<path d="M5.46875 62.3438H12.0312V64.5312H5.46875V62.3438Z" fill="#617792"/>
<path d="M14.2188 62.3438H33.9062V64.5312H14.2188V62.3438Z" fill="#617792"/>
</svg>
