<svg width="70" height="70" viewBox="0 0 70 70" fill="none" xmlns="http://www.w3.org/2000/svg">
<path d="M45.2233 25.603C45.6687 25.5288 45.9975 25.1363 45.9975 24.6909V21.9863C45.9975 21.5303 45.6687 21.1485 45.2233 21.0742L43.7915 20.8409C43.7808 20.8197 43.7702 20.7878 43.7596 20.7666L44.5975 19.5894C44.8627 19.2181 44.8202 18.7091 44.5021 18.3909L42.593 16.4818C42.2748 16.1636 41.7657 16.1212 41.3945 16.3863L40.2172 17.2242C40.196 17.2136 40.1642 17.203 40.143 17.1924L39.9096 15.7606C39.8354 15.3151 39.443 14.9863 38.9975 14.9863H36.293C35.8369 14.9863 35.4551 15.3151 35.3808 15.7606L35.1475 17.1924C35.1263 17.203 35.0945 17.2136 35.0733 17.2242L33.896 16.3863C33.5248 16.1212 33.0157 16.1636 32.6975 16.4818L30.7884 18.3909C30.4702 18.7091 30.4278 19.2181 30.693 19.5894L31.5308 20.7666C31.5202 20.7878 31.5096 20.8197 31.499 20.8409L30.0672 21.0742C29.6218 21.1485 29.293 21.5409 29.293 21.9863V24.6909C29.293 25.1469 29.6218 25.5288 30.0672 25.603L31.499 25.8363C31.5096 25.8575 31.5202 25.8894 31.5308 25.9106L30.693 27.0878C30.4278 27.4591 30.4702 27.9681 30.7884 28.2863L32.6975 30.1954C33.0157 30.5136 33.5248 30.556 33.896 30.2909L35.0733 29.453C35.0945 29.4636 35.1263 29.4742 35.1475 29.4848L35.3808 30.9166C35.4551 31.3621 35.8475 31.6909 36.293 31.6909H38.9975C39.4536 31.6909 39.8354 31.3621 39.9096 30.9166L40.143 29.4848C40.1642 29.4742 40.196 29.4636 40.2172 29.453L41.3945 30.2909C41.7657 30.556 42.2748 30.5136 42.593 30.1954L44.5021 28.2863C44.8202 27.9681 44.8627 27.4591 44.5975 27.0878L43.7596 25.9106C43.7702 25.8894 43.7808 25.8575 43.7915 25.8363L45.2233 25.603ZM42.9536 24.0969C42.6036 24.15 42.3172 24.4045 42.2218 24.7439C42.1369 25.0303 42.0202 25.306 41.8718 25.5712C41.7021 25.8788 41.7339 26.2606 41.9354 26.5469L42.6354 27.5333L41.8399 28.3288L40.8536 27.6288C40.5672 27.4272 40.1854 27.406 39.8778 27.5651C39.6127 27.703 39.3263 27.8197 39.0399 27.9151C38.7005 28.0212 38.4566 28.3075 38.393 28.6469L38.1915 29.8348H37.0672L36.8869 28.6363C36.8339 28.2863 36.5793 28 36.2399 27.9045C35.9536 27.8197 35.6778 27.703 35.4021 27.5545C35.0945 27.3954 34.7127 27.4166 34.4263 27.6181L33.4399 28.3181L32.6445 27.5227L33.3445 26.5363C33.546 26.25 33.5778 25.8681 33.4081 25.5606C33.2702 25.2954 33.1536 25.0091 33.0581 24.7333C32.9521 24.3939 32.6657 24.15 32.3263 24.0863L31.1384 23.8848V22.7606L32.3263 22.5591C32.6763 22.506 32.9627 22.2515 33.0581 21.9121C33.143 21.6257 33.2596 21.35 33.4081 21.0742C33.5778 20.7666 33.546 20.3848 33.3445 20.0985L32.6445 19.1121L33.4399 18.3166L34.4263 19.0166C34.7127 19.2181 35.0945 19.25 35.4021 19.0803C35.6672 18.9424 35.9536 18.8257 36.2399 18.7303C36.5793 18.6242 36.8233 18.3378 36.8869 17.9984L37.0884 16.8106H38.2127L38.4142 18.0303C38.4672 18.3803 38.7218 18.6666 39.0612 18.7621C39.3475 18.8469 39.6233 18.9636 39.899 19.1121C40.2066 19.2818 40.5884 19.25 40.8748 19.0484L41.8612 18.3484L42.6566 19.1439L41.9566 20.1303C41.7551 20.4166 41.7233 20.7984 41.893 21.106C42.0308 21.3712 42.1475 21.6575 42.243 21.9439C42.349 22.2833 42.6354 22.5272 42.9748 22.5909L44.1627 22.7924V23.9166L42.9536 24.0969Z" fill="#617792"/>
<path d="M37.6502 19.4409C35.4972 19.4409 33.7578 21.1909 33.7578 23.3333C33.7578 25.4758 35.5078 27.2258 37.6502 27.2258C39.7927 27.2258 41.5533 25.4758 41.5533 23.3333C41.5533 21.1909 39.8033 19.4409 37.6502 19.4409ZM37.6502 25.3803C36.526 25.3803 35.6139 24.4682 35.6139 23.3439C35.6139 22.2197 36.526 21.3076 37.6502 21.3076C38.7745 21.3076 39.6972 22.2197 39.6972 23.3439C39.6972 24.4682 38.7745 25.3803 37.6502 25.3803Z" fill="#617792"/>
<path d="M29.834 59.3939C29.834 59.903 30.2476 60.3272 30.7673 60.3272H39.2522C39.7613 60.3272 40.1855 59.9136 40.1855 59.3939C40.1855 58.8742 39.7719 58.4606 39.2522 58.4606H30.7673C30.2476 58.4712 29.834 58.8848 29.834 59.3939Z" fill="#617792"/>
<path d="M35 62.7136H30.7576C30.2485 62.7136 29.8242 63.1273 29.8242 63.647C29.8242 64.1667 30.2379 64.5803 30.7576 64.5803H35C35.5091 64.5803 35.9333 64.1667 35.9333 63.647C35.9333 63.1273 35.5091 62.7136 35 62.7136Z" fill="#617792"/>
<path d="M67.8784 54.2287H60.3163V45.606C60.3163 45.0969 59.9027 44.6727 59.383 44.6727H40.0799C39.6981 42.5621 38.033 40.9075 35.933 40.5257V35.9227H43.4845C43.9936 35.9227 44.4178 35.509 44.4178 34.9893C44.4178 34.4696 44.0042 34.056 43.4845 34.056H34.9996C34.9996 34.056 34.9996 34.056 34.989 34.056C34.9784 34.056 34.989 34.056 34.9784 34.056H22.5163C22.9405 33.409 23.1951 32.6348 23.1951 31.7969V12.5999H53.1572V30.7575C53.1572 32.5818 51.6724 34.0772 49.8375 34.0772H46.9739C46.4648 34.0772 46.0405 34.4909 46.0405 35.0105C46.0405 35.5302 46.4542 35.9439 46.9739 35.9439H49.8481C52.7011 35.9439 55.0239 33.6212 55.0239 30.7681V11.6666C55.0239 11.1575 54.6102 10.7333 54.0905 10.7333H22.2723C21.7633 10.7333 21.339 11.1469 21.339 11.6666V31.8181C21.339 33.0272 20.3739 34.0242 19.1754 34.0772H19.0905C18.5814 34.0772 18.1678 34.4909 18.1678 35.0105C18.1678 35.5196 18.5814 35.9333 19.1011 35.9333H34.0875V40.5363C31.9769 40.9181 30.3223 42.5833 29.9405 44.6833H10.6057C10.0966 44.6833 9.67235 45.0969 9.67235 45.6166V54.2393H2.12083C1.61174 54.2393 1.1875 54.653 1.1875 55.1727V67.8999C1.1875 68.409 1.60114 68.8333 2.12083 68.8333H19.0905C19.5996 68.8333 20.0239 68.4196 20.0239 67.8999V55.1515C20.0239 54.6424 19.6102 54.2181 19.0905 54.2181H11.5284V46.5287H29.9193C30.3011 48.6393 31.9663 50.2939 34.0663 50.6757V54.2181H26.5148C26.0057 54.2181 25.5814 54.6318 25.5814 55.1515V67.8787C25.5814 68.3878 25.9951 68.8121 26.5148 68.8121H43.4845C43.9936 68.8121 44.4178 68.3984 44.4178 67.8787V55.1515C44.4178 54.6424 44.0042 54.2181 43.4845 54.2181H35.9224V50.6757C38.033 50.2939 39.6875 48.6287 40.0693 46.5287H58.4602V54.2181H50.9087C50.3996 54.2181 49.9754 54.6318 49.9754 55.1515V67.8787C49.9754 68.3878 50.389 68.8121 50.9087 68.8121H67.8784C68.3875 68.8121 68.8117 68.3984 68.8117 67.8787V55.1515C68.8117 54.6424 68.3875 54.2287 67.8784 54.2287ZM18.1678 66.956H3.05417V56.0848H18.1678V66.956ZM42.5617 66.956H27.4481V56.0848H42.5617V66.956ZM34.9996 48.9257C33.1754 48.9257 31.6799 47.4409 31.6799 45.606C31.6799 43.7712 33.1648 42.2863 34.9996 42.2863C36.8345 42.2863 38.3193 43.7712 38.3193 45.606C38.3193 47.4409 36.8239 48.9257 34.9996 48.9257ZM66.9557 66.956H51.8421V56.0848H66.9557V66.956Z" fill="#617792"/>
<path d="M54.2285 59.3939C54.2285 59.903 54.6421 60.3272 55.1618 60.3272H63.6467C64.1558 60.3272 64.58 59.9136 64.58 59.3939C64.58 58.8742 64.1664 58.4606 63.6467 58.4606H55.1618C54.6421 58.4712 54.2285 58.8848 54.2285 59.3939Z" fill="#617792"/>
<path d="M59.3945 62.7136H55.1521C54.643 62.7136 54.2188 63.1273 54.2188 63.647C54.2188 64.1667 54.6324 64.5803 55.1521 64.5803H59.3945C59.9036 64.5803 60.3278 64.1667 60.3278 63.647C60.3278 63.1273 59.9036 62.7136 59.3945 62.7136Z" fill="#617792"/>
<path d="M5.44141 59.3939C5.44141 59.903 5.85504 60.3272 6.37474 60.3272H14.8596C15.3687 60.3272 15.7929 59.9136 15.7929 59.3939C15.7929 58.8742 15.3793 58.4606 14.8596 58.4606H6.36413C5.85504 58.4712 5.44141 58.8848 5.44141 59.3939Z" fill="#617792"/>
<path d="M10.6054 62.7136H6.36302C5.85393 62.7136 5.42969 63.1273 5.42969 63.647C5.42969 64.1667 5.85393 64.5697 6.36302 64.5697H10.6054C11.1145 64.5697 11.5388 64.156 11.5388 63.6363C11.5388 63.1167 11.1145 62.7136 10.6054 62.7136Z" fill="#617792"/>
<path d="M20.1521 5.44092C19.643 5.44092 19.2188 5.85455 19.2188 6.37425C19.2188 6.89395 19.643 7.29698 20.1521 7.29698H22.2733C22.7824 7.29698 23.2066 6.88334 23.2066 6.36365C23.2066 5.84395 22.7824 5.44092 22.2733 5.44092H20.1521Z" fill="#617792"/>
<path d="M16.9685 35.106C17.2231 35.106 17.4776 35 17.6579 34.7985C17.9973 34.4167 17.9655 33.8333 17.5837 33.4833C17.0958 33.0485 16.8307 32.4545 16.8307 31.8182V3.04393H24.9549L26.8004 5.81211C26.9701 6.06665 27.267 6.22575 27.5746 6.22575H48.914V8.48484C48.914 8.99393 49.3276 9.41817 49.8473 9.41817C50.367 9.41817 50.7807 8.99393 50.7807 8.48484V5.30302C50.7807 4.79393 50.367 4.36968 49.8473 4.36968H28.0731L26.2276 1.6015C26.0579 1.34696 25.761 1.18787 25.4534 1.18787H15.9079C15.3989 1.18787 14.9746 1.6015 14.9746 2.1212V31.8182C14.9746 32.9742 15.4731 34.0879 16.3428 34.8621C16.5231 35.0212 16.7458 35.106 16.9685 35.106Z" fill="#617792"/>
</svg>
