<svg width="70" height="70" viewBox="0 0 70 70" fill="none" xmlns="http://www.w3.org/2000/svg">
<g clip-path="url(#clip0_1599_990)">
<path d="M38.4216 24.0295C31.4475 16.358 19.7078 15.8932 12.1526 22.7509C11.8041 23.0999 11.3393 23.4484 10.9902 23.9132L10.5254 24.7271L11.1066 25.4246L11.2229 25.5404C18.0806 33.0956 29.8203 33.561 37.3756 26.7027C37.724 26.3542 38.1889 26.0057 38.5379 25.5404L39.1191 24.7271L38.4216 24.0295ZM22.3815 24.7271C22.3815 23.4484 23.4275 22.4024 24.7062 22.4024C25.9843 22.4024 27.0308 23.4484 27.0308 24.7271C27.0308 26.0057 25.9843 27.0517 24.7062 27.0517C23.4275 27.0517 22.3815 26.0057 22.3815 24.7271ZM23.1948 20.3098C20.7538 21.1237 19.4756 23.6811 20.1726 26.1215C20.638 27.5166 21.684 28.6789 23.1948 29.1437C19.5914 28.7953 16.1044 27.2839 13.4312 24.7271C16.2207 22.1697 19.5914 20.6589 23.1948 20.3098ZM26.217 29.1437C28.658 28.3304 29.9367 25.7731 29.2392 23.332C28.7744 21.9376 27.7278 20.7752 26.217 20.3098C29.8203 20.6589 33.3074 22.1697 35.9805 24.7271C33.191 27.2839 29.8203 28.7953 26.217 29.1437Z" fill="#617792"/>
<path d="M24.7051 4.96729C13.7786 4.96729 4.94531 13.8012 4.94531 24.7271C4.94531 35.6529 13.7786 44.4868 24.7051 44.4868C35.631 44.4868 44.4649 35.6529 44.4649 24.7271C44.4649 13.8012 35.631 4.96729 24.7051 4.96729ZM24.7051 42.1622C15.0573 42.1622 7.26999 34.3743 7.26999 24.7271C7.26999 15.0793 15.0573 7.29197 24.7051 7.29197C34.3523 7.29197 42.1402 15.0793 42.1402 24.7271C42.1402 34.3743 34.3523 42.1622 24.7051 42.1622Z" fill="#617792"/>
<path d="M64.2244 50.2986V11.9413C64.2244 8.68645 61.667 6.12964 58.4127 6.12964H45.627V8.45432H58.4127C60.3883 8.45432 61.8997 9.96513 61.8997 11.9413V50.2986H64.2244Z" fill="#617792"/>
<path d="M6.10742 46.8115V58.4349C6.10742 61.6893 8.66423 64.2466 11.9191 64.2466H52.601V61.9219H11.9191C9.94292 61.9219 8.4321 60.4106 8.4321 58.4349V46.8115H6.10742Z" fill="#617792"/>
<path d="M49.1152 11.9412H59.5763V14.2658H49.1152V11.9412Z" fill="#617792"/>
<path d="M51.4395 17.7529H59.5758V20.0776H51.4395V17.7529Z" fill="#617792"/>
<path d="M51.4395 23.5647H59.5758V25.8894H51.4395V23.5647Z" fill="#617792"/>
<path d="M51.4395 29.3762H59.5758V31.7009H51.4395V29.3762Z" fill="#617792"/>
<path d="M51.4395 35.188H59.5758V37.5127H51.4395V35.188Z" fill="#617792"/>
<path d="M52.6016 40.9998H59.5756V43.3244H52.6016V40.9998Z" fill="#617792"/>
<path d="M10.7578 51.4607H42.141V53.7854H10.7578V51.4607Z" fill="#617792"/>
<path d="M10.7578 56.1101H46.7904V58.4348H10.7578V56.1101Z" fill="#617792"/>
<path d="M16.5703 34.0256H32.8431V36.3503H16.5703V34.0256Z" fill="#617792"/>
<path d="M16.5703 13.1035H32.8431V15.4282H16.5703V13.1035Z" fill="#617792"/>
<path d="M56.4384 49.0198C55.7409 48.3223 54.9276 47.9738 53.9973 47.9738H53.184L44.815 38.5588C52.4865 27.4002 49.8128 12.1734 38.6548 4.38608C27.4962 -3.40183 12.1531 -0.49598 4.48154 10.5463C-3.18945 21.5885 -0.516292 36.9316 10.6423 44.7189C19.4762 50.8797 31.3317 50.5306 39.8171 43.7893L47.9535 52.9717V53.9019C47.9535 54.8315 48.302 55.7612 48.9995 56.3423L61.0877 68.4311C63.1797 70.5231 66.4346 70.5231 68.5266 68.4311C70.6191 66.3386 70.6191 63.0843 68.5266 60.9917L56.4384 49.0198ZM2.62225 24.727C2.62225 12.5225 12.5021 2.64256 24.7067 2.64256C36.9113 2.64256 46.7912 12.5225 46.7912 24.727C46.7912 36.9316 36.9113 46.8115 24.7067 46.8115C12.5021 46.8115 2.62225 36.9316 2.62225 24.727ZM41.5606 42.3943C42.1418 41.8131 42.8388 41.1161 43.3042 40.535L50.9751 49.1362L49.1159 50.8797L41.5606 42.3943ZM64.8074 67.7336C63.9936 67.7336 63.2961 67.3846 62.7149 66.9197L50.6267 54.8315C50.394 54.5988 50.2782 54.3667 50.2782 54.0177V53.088L53.0677 50.2985H53.9973C54.3464 50.2985 54.5785 50.4149 54.8112 50.647L66.8994 62.7352C68.0618 63.8976 68.0618 65.7574 66.8994 66.9197C66.3183 67.3846 65.5044 67.7336 64.8074 67.7336Z" fill="#617792"/>
</g>
<defs>
<clipPath id="clip0_1599_990">
<rect width="70" height="70" fill="white"/>
</clipPath>
</defs>
</svg>
