<svg width="70" height="70" viewBox="0 0 70 70" fill="none" xmlns="http://www.w3.org/2000/svg">
<g clip-path="url(#clip0_1599_1200)">
<path d="M5.8476 17.5461C2.78674 22.6475 1.02539 28.6177 1.02539 35C1.02539 53.7637 16.2363 68.9746 35 68.9746C41.3794 68.9746 47.3473 67.2148 52.4472 64.1564" stroke="#617792" stroke-width="2" stroke-miterlimit="10" stroke-linecap="round" stroke-linejoin="round" stroke-dasharray="15 30"/>
<path d="M65.0321 50.8945C67.5474 46.1515 68.9743 40.7427 68.9743 35C68.9743 16.2363 53.7634 1.02539 34.9997 1.02539C29.2601 1.02539 23.8543 2.45068 19.1133 4.96344" stroke="#617792" stroke-width="2" stroke-miterlimit="10" stroke-linecap="round" stroke-linejoin="round" stroke-dasharray="15 30"/>
<path d="M58.3818 48.5527C60.0942 45.6047 61.2641 42.3034 61.7572 38.7846C61.7401 38.7849 61.7233 38.786 61.7062 38.786C59.6154 38.786 57.9204 37.091 57.9204 35.0001C57.9204 32.9093 59.6154 31.2143 61.7062 31.2143C61.7233 31.2143 61.7401 31.2154 61.7572 31.2156C59.9164 18.0838 48.6397 7.97836 35.0007 7.97836C30.1574 7.97836 25.6125 9.25381 21.6814 11.4852C21.5916 16.4579 17.5351 20.462 12.5411 20.462C12.435 20.462 12.3298 20.4576 12.2246 20.4541C10.1819 23.6459 8.79348 27.2962 8.24414 31.2155C8.26123 31.2152 8.27805 31.2141 8.29514 31.2141C10.386 31.2141 12.081 32.9092 12.081 35C12.081 37.0908 10.386 38.7859 8.29514 38.7859C8.27805 38.7859 8.26123 38.7848 8.24414 38.7845C10.0849 51.9162 21.3616 62.0216 35.0007 62.0216C40.4481 62.0216 45.5179 60.4082 49.7614 57.6354C49.7855 52.7816 53.5901 48.8229 58.3818 48.5527Z" stroke="#617792" stroke-width="2" stroke-miterlimit="10" stroke-linecap="round" stroke-linejoin="round"/>
<path d="M47.7891 26.2663C45.9735 15.6287 40.9336 7.97836 35 7.97836C29.0664 7.97836 24.0266 15.6287 22.2109 26.2663" stroke="#617792" stroke-width="2" stroke-miterlimit="10" stroke-linecap="round" stroke-linejoin="round"/>
<path d="M22.2109 43.7337C24.0266 54.3713 29.0664 62.0216 35 62.0216C40.9336 62.0216 45.9735 54.3713 47.7891 43.7337" stroke="#617792" stroke-width="2" stroke-miterlimit="10" stroke-linecap="round" stroke-linejoin="round"/>
<path d="M35 7.97836V19.5139" stroke="#617792" stroke-width="2" stroke-miterlimit="10" stroke-linecap="round" stroke-linejoin="round"/>
<path d="M9.89062 45.0002H23.177" stroke="#617792" stroke-width="2" stroke-miterlimit="10" stroke-linecap="round" stroke-linejoin="round"/>
<path d="M23.177 24.9998H9.89062" stroke="#617792" stroke-width="2" stroke-miterlimit="10" stroke-linecap="round" stroke-linejoin="round"/>
<path d="M46.8242 45.0002H60.1107" stroke="#617792" stroke-width="2" stroke-miterlimit="10" stroke-linecap="round" stroke-linejoin="round"/>
<path d="M19.6973 37.3926C20.8476 44.8092 27.2603 50.4861 34.9992 50.4861C43.552 50.4861 50.4854 43.5527 50.4854 35C50.4854 26.4473 43.552 19.5139 34.9992 19.5139C27.2603 19.5139 20.8475 25.1907 19.6973 32.6074" stroke="#617792" stroke-width="2" stroke-miterlimit="10" stroke-linecap="round" stroke-linejoin="round"/>
<path d="M19.3552 17.4139C18.2306 16.1577 16.7637 15.2157 15.1016 14.7313" stroke="#617792" stroke-width="2" stroke-miterlimit="10" stroke-linecap="round" stroke-linejoin="round"/>
<path d="M9.98016 14.7313C8.31807 15.2157 6.85121 16.1577 5.72656 17.4139" stroke="#617792" stroke-width="2" stroke-miterlimit="10" stroke-linecap="round" stroke-linejoin="round"/>
<path d="M12.541 15.585C14.8979 15.585 16.8085 13.6743 16.8085 11.3174C16.8085 8.96054 14.8979 7.0499 12.541 7.0499C10.1841 7.0499 8.27344 8.96054 8.27344 11.3174C8.27344 13.6743 10.1841 15.585 12.541 15.585Z" stroke="#617792" stroke-width="2" stroke-miterlimit="10" stroke-linecap="round" stroke-linejoin="round"/>
<path d="M61.4648 61.0952C60.7515 61.631 59.8649 61.9488 58.9042 61.9488C57.9433 61.9488 57.0568 61.631 56.3434 61.0952C54.6815 61.5796 53.2145 62.5216 52.0898 63.7778C53.7642 65.6481 56.1962 66.8259 58.904 66.8259C61.6119 66.8259 64.0438 65.6481 65.7182 63.7778C64.5937 62.5216 63.1269 61.5796 61.4648 61.0952Z" stroke="#617792" stroke-width="2" stroke-miterlimit="10" stroke-linecap="round" stroke-linejoin="round"/>
<path d="M58.9043 61.9489C61.2612 61.9489 63.1718 60.0383 63.1718 57.6814C63.1718 55.3245 61.2612 53.4138 58.9043 53.4138C56.5474 53.4138 54.6367 55.3245 54.6367 57.6814C54.6367 60.0383 56.5474 61.9489 58.9043 61.9489Z" stroke="#617792" stroke-width="2" stroke-miterlimit="10" stroke-linecap="round" stroke-linejoin="round"/>
<path d="M61.7058 38.7859C63.7967 38.7859 65.4917 37.0909 65.4917 35C65.4917 32.9091 63.7967 31.2141 61.7058 31.2141C59.6149 31.2141 57.9199 32.9091 57.9199 35C57.9199 37.0909 59.6149 38.7859 61.7058 38.7859Z" stroke="#617792" stroke-width="2" stroke-miterlimit="10" stroke-linecap="round" stroke-linejoin="round"/>
<path d="M8.29369 38.7859C10.3846 38.7859 12.0796 37.0909 12.0796 35C12.0796 32.9091 10.3846 31.2141 8.29369 31.2141C6.20281 31.2141 4.50781 32.9091 4.50781 35C4.50781 37.0909 6.20281 38.7859 8.29369 38.7859Z" stroke="#617792" stroke-width="2" stroke-miterlimit="10" stroke-linecap="round" stroke-linejoin="round"/>
<path d="M45.8008 36.158V33.842C45.8008 33.2805 45.3456 32.8254 44.7841 32.8254H43.2495C42.833 32.8254 42.4545 32.5731 42.305 32.1844C42.2584 32.0631 42.2089 31.9434 42.1564 31.8251C41.9877 31.4445 42.0766 30.9987 42.3711 30.7043L43.4561 29.6193C43.8531 29.2223 43.8531 28.5786 43.4561 28.1816L41.8184 26.5439C41.4214 26.1469 40.7777 26.1469 40.3807 26.5439L39.2957 27.6289C39.0013 27.9233 38.5555 28.0122 38.1749 27.8436C38.0566 27.7912 37.9369 27.7416 37.8156 27.695C37.4269 27.5455 37.1746 27.167 37.1746 26.7505V25.2159C37.1746 24.6544 36.7195 24.1992 36.158 24.1992H33.842C33.2805 24.1992 32.8254 24.6544 32.8254 25.2159V26.7505C32.8254 27.167 32.5731 27.5455 32.1844 27.695C32.0631 27.7416 31.9434 27.7911 31.8251 27.8436C31.4445 28.0123 30.9987 27.9234 30.7043 27.6289L29.6193 26.5439C29.2223 26.1469 28.5786 26.1469 28.1816 26.5439L26.5439 28.1816C26.1469 28.5786 26.1469 29.2223 26.5439 29.6193L27.6289 30.7043C27.9233 30.9987 28.0122 31.4445 27.8436 31.8251C27.7912 31.9434 27.7416 32.0631 27.695 32.1844C27.5455 32.5731 27.167 32.8254 26.7505 32.8254H25.2159C24.6544 32.8254 24.1992 33.2805 24.1992 33.842V36.158C24.1992 36.7195 24.6544 37.1746 25.2159 37.1746H26.7505C27.167 37.1746 27.5455 37.4269 27.695 37.8156C27.7416 37.9369 27.7911 38.0566 27.8436 38.1749C28.0123 38.5555 27.9234 39.0013 27.6289 39.2957L26.5439 40.3807C26.1469 40.7777 26.1469 41.4214 26.5439 41.8184L28.1816 43.4561C28.5786 43.8531 29.2223 43.8531 29.6193 43.4561L30.7043 42.3711C30.9987 42.0767 31.4445 41.9878 31.8251 42.1564C31.9434 42.2088 32.0631 42.2584 32.1844 42.305C32.5731 42.4545 32.8254 42.833 32.8254 43.2495V44.7841C32.8254 45.3456 33.2805 45.8008 33.842 45.8008H36.158C36.7195 45.8008 37.1746 45.3456 37.1746 44.7841V43.2495C37.1746 42.833 37.4269 42.4545 37.8156 42.305C37.9369 42.2584 38.0566 42.2089 38.1749 42.1564C38.5555 41.9877 39.0013 42.0766 39.2957 42.3711L40.3807 43.4561C40.7777 43.8531 41.4214 43.8531 41.8184 43.4561L43.4561 41.8184C43.8531 41.4214 43.8531 40.7777 43.4561 40.3807L42.3711 39.2957C42.0767 39.0013 41.9878 38.5555 42.1564 38.1749C42.2088 38.0566 42.2584 37.9369 42.305 37.8156C42.4545 37.4269 42.833 37.1746 43.2495 37.1746H44.7841C45.3456 37.1746 45.8008 36.7195 45.8008 36.158Z" stroke="#617792" stroke-width="2" stroke-miterlimit="10" stroke-linecap="round" stroke-linejoin="round"/>
<path d="M34.9998 39.2634C37.3544 39.2634 39.2632 37.3546 39.2632 35C39.2632 32.6454 37.3544 30.7366 34.9998 30.7366C32.6451 30.7366 30.7363 32.6454 30.7363 35C30.7363 37.3546 32.6451 39.2634 34.9998 39.2634Z" stroke="#617792" stroke-width="2" stroke-miterlimit="10" stroke-linecap="round" stroke-linejoin="round"/>
<path d="M35 50.4861V62.0216" stroke="#617792" stroke-width="2" stroke-miterlimit="10" stroke-linecap="round" stroke-linejoin="round"/>
<path d="M58.9043 66.8259C63.9547 66.8259 68.0489 62.7318 68.0489 57.6814C68.0489 52.631 63.9547 48.5368 58.9043 48.5368C53.8539 48.5368 49.7598 52.631 49.7598 57.6814C49.7598 62.7318 53.8539 66.8259 58.9043 66.8259Z" stroke="#617792" stroke-width="2" stroke-miterlimit="10" stroke-linecap="round" stroke-linejoin="round"/>
<path d="M4.58703 6.8075C3.83057 8.13873 3.39648 9.67695 3.39648 11.3174C3.39648 16.3678 7.49066 20.462 12.5411 20.462C17.5914 20.462 21.6856 16.3678 21.6856 11.3174C21.6856 6.26705 17.5914 2.17287 12.5411 2.17287C10.8688 2.17287 9.30301 2.62391 7.95441 3.40758" stroke="#617792" stroke-width="2" stroke-miterlimit="10" stroke-linecap="round" stroke-linejoin="round"/>
<path d="M50.5869 24.9998H46.8242" stroke="#617792" stroke-width="2" stroke-miterlimit="10" stroke-linecap="round" stroke-linejoin="round"/>
<path d="M60.1098 24.9998H55.3711" stroke="#617792" stroke-width="2" stroke-miterlimit="10" stroke-linecap="round" stroke-linejoin="round"/>
</g>
<defs>
<clipPath id="clip0_1599_1200">
<rect width="70" height="70" fill="white"/>
</clipPath>
</defs>
</svg>
