<svg width="70" height="70" viewBox="0 0 70 70" fill="none" xmlns="http://www.w3.org/2000/svg">
<path d="M35.0005 26.5152C30.3338 26.5152 26.5156 30.3333 26.5156 35C26.5156 39.6667 30.3338 43.4848 35.0005 43.4848C39.6671 43.4848 43.4853 39.6667 43.4853 35C43.4853 30.3333 39.6671 26.5152 35.0005 26.5152ZM35.0005 41.3636C31.5005 41.3636 28.6368 38.5 28.6368 35C28.6368 31.5 31.5005 28.6364 35.0005 28.6364C38.5005 28.6364 41.3641 31.5 41.3641 35C41.3641 38.5 38.5005 41.3636 35.0005 41.3636Z" fill="#617792"/>
<path d="M58.5454 36.0606H61.6212C62.0454 37.6515 63.5302 38.7121 65.2272 38.7121C67.3484 38.7121 68.9393 37.0152 68.9393 35C68.9393 32.9848 67.2424 31.2879 65.2272 31.2879C63.5302 31.2879 62.1515 32.4545 61.6212 33.9394H58.5454V16.6515H61.6212C62.0454 18.2424 63.5302 19.303 65.2272 19.303C67.3484 19.303 68.9393 17.6061 68.9393 15.5909C68.9393 13.5758 67.2424 11.8788 65.2272 11.8788C63.5302 11.8788 62.1515 13.0455 61.6212 14.5303H57.4848C56.8484 14.5303 56.4242 14.9545 56.4242 15.5909V33.9394H52.2878V32.7727C52.2878 32.1364 51.8636 31.7121 51.2272 31.7121H48.8939C48.5757 30.2273 47.9393 28.8485 47.1969 27.4697L48.7878 25.8788C49.2121 25.4545 49.2121 24.8182 48.7878 24.3939L45.606 21.2121C45.1818 20.7879 44.5454 20.7879 44.1212 21.2121L42.5302 22.803C41.2575 21.9545 39.7727 21.4242 38.2878 21V18.6667C38.2878 18.0303 37.8636 17.6061 37.2272 17.6061H32.6666C32.0302 17.6061 31.606 18.0303 31.606 18.6667V21C30.1212 21.3182 28.7424 21.9545 27.3636 22.697L25.7727 21.1061C25.3484 20.6818 24.7121 20.6818 24.2878 21.1061L21.106 24.2879C20.6818 24.7121 20.6818 25.3485 21.106 25.7727L22.6969 27.3636C21.8484 28.6364 21.3181 30.1212 20.9999 31.6061H18.6666C18.0302 31.6061 17.606 32.0303 17.606 32.6667V33.9394H13.5757V15.5909C13.5757 14.9545 13.1515 14.5303 12.5151 14.5303H8.37873C7.95449 12.9394 6.46964 11.8788 4.77267 11.8788C2.65146 11.8788 1.06055 13.5758 1.06055 15.5909C1.06055 17.6061 2.75752 19.303 4.77267 19.303C6.46964 19.303 7.84843 18.1364 8.37873 16.6515H11.4545V33.9394H8.37873C7.95449 32.3485 6.46964 31.2879 4.77267 31.2879C2.75752 31.2879 1.06055 32.8788 1.06055 35C1.06055 37.1212 2.75752 38.7121 4.77267 38.7121C6.46964 38.7121 7.84843 37.5455 8.37873 36.0606H11.4545V53.3485H8.37873C7.95449 51.7576 6.46964 50.697 4.77267 50.697C2.65146 50.697 1.06055 52.3939 1.06055 54.4091C1.06055 56.5303 2.75752 58.1212 4.77267 58.1212C6.46964 58.1212 7.84843 56.9545 8.37873 55.4697H12.5151C13.1515 55.4697 13.5757 55.0455 13.5757 54.4091V36.0606H17.606V37.2273C17.606 37.8636 18.0302 38.2879 18.6666 38.2879H20.9999C21.3181 39.7727 21.9545 41.1515 22.6969 42.5303L21.106 44.1212C20.8939 44.3333 20.7878 44.5455 20.7878 44.8636C20.7878 45.1818 20.8939 45.3939 21.106 45.6061L24.2878 48.7879C24.7121 49.2121 25.3484 49.2121 25.7727 48.7879L27.3636 47.197C28.6363 48.0455 30.1212 48.5758 31.606 48.8939V51.2273C31.606 51.8636 32.0302 52.2879 32.6666 52.2879H37.2272C37.8636 52.2879 38.2878 51.8636 38.2878 51.2273V48.8939C39.7727 48.5758 41.1515 47.9394 42.5302 47.197L44.1212 48.7879C44.5454 49.2121 45.1818 49.2121 45.606 48.7879L48.7878 45.6061C49.2121 45.1818 49.2121 44.5455 48.7878 44.1212L47.1969 42.5303C48.0454 41.2576 48.5757 39.7727 48.8939 38.2879H51.2272C51.8636 38.2879 52.2878 37.8636 52.2878 37.2273V36.0606H56.4242V54.4091C56.4242 55.0455 56.8484 55.4697 57.4848 55.4697H61.6212C62.0454 57.0606 63.5302 58.1212 65.2272 58.1212C67.3484 58.1212 68.9393 56.4242 68.9393 54.4091C68.9393 52.2879 67.2424 50.697 65.2272 50.697C63.5302 50.697 62.1515 51.8636 61.6212 53.3485H58.5454V36.0606ZM65.2272 33.4091C66.1818 33.4091 66.8181 34.1515 66.8181 35C66.8181 35.9545 66.0757 36.5909 65.2272 36.5909C64.2727 36.5909 63.6363 35.8485 63.6363 35C63.5302 34.0455 64.2727 33.4091 65.2272 33.4091ZM65.2272 13.8939C66.1818 13.8939 66.8181 14.6364 66.8181 15.4848C66.8181 16.4394 66.0757 17.0758 65.2272 17.0758C64.2727 17.0758 63.6363 16.3333 63.6363 15.4848C63.5302 14.6364 64.2727 13.8939 65.2272 13.8939ZM4.77267 17.1818C3.81812 17.1818 3.18176 16.4394 3.18176 15.5909C3.18176 14.6364 3.92418 14 4.77267 14C5.62115 14 6.36358 14.7424 6.36358 15.5909C6.46964 16.4394 5.72721 17.1818 4.77267 17.1818ZM4.77267 56.1061C3.81812 56.1061 3.18176 55.3636 3.18176 54.5152C3.18176 53.5606 3.92418 52.9242 4.77267 52.9242C5.62115 52.9242 6.36358 53.6667 6.36358 54.5152C6.46964 55.3636 5.72721 56.1061 4.77267 56.1061ZM4.77267 36.5909C3.92418 36.5909 3.18176 35.9545 3.18176 35C3.18176 34.0455 3.92418 33.4091 4.77267 33.4091C5.62115 33.4091 6.36358 34.1515 6.36358 35C6.46964 35.9545 5.72721 36.5909 4.77267 36.5909ZM50.2727 36.1667H48.1515C47.6212 36.1667 47.1969 36.5909 47.0909 37.0152C46.7727 38.8182 46.0302 40.5151 45.0757 42C44.7575 42.4242 44.8636 42.9545 45.1818 43.3788L46.6666 44.8636L44.8636 46.6667L43.3787 45.1818C43.0606 44.8636 42.4242 44.7576 41.9999 45.0758C40.5151 46.1364 38.8181 46.8788 37.0151 47.0909C36.4848 47.197 36.1666 47.6212 36.1666 48.1515V50.2727H33.7272V48.1515C33.7272 47.6212 33.303 47.197 32.8787 47.0909C31.0757 46.7727 29.3787 46.1364 27.8939 45.0758C27.4696 44.7576 26.9393 44.8636 26.5151 45.1818L25.0302 46.6667L23.3333 44.8636L24.8181 43.3788C25.1363 43.0606 25.2424 42.4242 24.9242 42C23.8636 40.5151 23.1212 38.8182 22.909 37.0152C22.803 36.4848 22.3787 36.1667 21.8484 36.1667H19.7272V33.7273H21.8484C22.3787 33.7273 22.803 33.303 22.909 32.8788C23.2272 31.0758 23.8636 29.3788 24.9242 27.8939C25.2424 27.4697 25.1363 26.9394 24.8181 26.5152L23.3333 25.0303L25.0302 23.3333L26.5151 24.8182C26.8333 25.1364 27.4696 25.2424 27.8939 24.9242C29.3787 23.8636 31.0757 23.1212 32.8787 22.9091C33.409 22.803 33.7272 22.3788 33.7272 21.8485V19.7273H36.1666V21.8485C36.1666 22.3788 36.5909 22.803 37.0151 22.9091C38.8181 23.2273 40.5151 23.8636 41.9999 24.9242C42.4242 25.2424 42.9545 25.1364 43.3787 24.8182L44.8636 23.3333L46.5606 25.0303L45.0757 26.5152C44.7575 26.8333 44.6515 27.4697 44.9696 27.8939C46.0302 29.3788 46.7727 31.0758 46.9848 32.8788C47.0909 33.4091 47.5151 33.7273 48.0454 33.7273H50.1666V36.1667H50.2727ZM65.2272 52.8182C66.1818 52.8182 66.8181 53.5606 66.8181 54.4091C66.8181 55.3636 66.0757 56 65.2272 56C64.2727 56 63.6363 55.2576 63.6363 54.4091C63.5302 53.5606 64.2727 52.8182 65.2272 52.8182Z" fill="#617792"/>
</svg>
